<?xml version="1.0" encoding="utf-8" standalone="no"?>
<!DOCTYPE svg PUBLIC "-//W3C//DTD SVG 1.1//EN"
  "http://www.w3.org/Graphics/SVG/1.1/DTD/svg11.dtd">
<svg xmlns:xlink="http://www.w3.org/1999/xlink" width="709.2pt" height="288.597656pt" viewBox="0 0 709.2 288.597656" xmlns="http://www.w3.org/2000/svg" version="1.1">
 <metadata>
  <rdf:RDF xmlns:dc="http://purl.org/dc/elements/1.1/" xmlns:cc="http://creativecommons.org/ns#" xmlns:rdf="http://www.w3.org/1999/02/22-rdf-syntax-ns#">
   <cc:Work>
    <dc:type rdf:resource="http://purl.org/dc/dcmitype/StillImage"/>
    <dc:date>2023-10-13T20:50:06.434348</dc:date>
    <dc:format>image/svg+xml</dc:format>
    <dc:creator>
     <cc:Agent>
      <dc:title>Matplotlib v3.7.2, https://matplotlib.org/</dc:title>
     </cc:Agent>
    </dc:creator>
   </cc:Work>
  </rdf:RDF>
 </metadata>
 <defs>
  <style type="text/css">*{stroke-linejoin: round; stroke-linecap: butt}</style>
 </defs>
 <g id="figure_1">
  <g id="patch_1">
   <path d="M 0 288.597656 
L 709.2 288.597656 
L 709.2 0 
L 0 0 
z
" style="fill: #ffffff"/>
  </g>
  <g id="axes_1">
   <g id="patch_2">
    <path d="M 54.88 226.877656 
L 261.053333 226.877656 
L 261.053333 24.597656 
L 54.88 24.597656 
z
" style="fill: #ffffff"/>
   </g>
   <g id="matplotlib.axis_1">
    <g id="xtick_1">
     <g id="line2d_1">
      <defs>
       <path id="mf3394c6c65" d="M 0 0 
L 0 3.5 
" style="stroke: #000000; stroke-width: 0.8"/>
      </defs>
      <g>
       <use xlink:href="#mf3394c6c65" x="89.242222" y="226.877656" style="stroke: #000000; stroke-width: 0.8"/>
      </g>
     </g>
     <g id="text_1">
      <!-- 9am -->
      <g transform="translate(72.568785 245.275313) scale(0.15 -0.15)">
       <defs>
        <path id="DejaVuSans-39" d="M 703 97 
L 703 672 
Q 941 559 1184 500 
Q 1428 441 1663 441 
Q 2288 441 2617 861 
Q 2947 1281 2994 2138 
Q 2813 1869 2534 1725 
Q 2256 1581 1919 1581 
Q 1219 1581 811 2004 
Q 403 2428 403 3163 
Q 403 3881 828 4315 
Q 1253 4750 1959 4750 
Q 2769 4750 3195 4129 
Q 3622 3509 3622 2328 
Q 3622 1225 3098 567 
Q 2575 -91 1691 -91 
Q 1453 -91 1209 -44 
Q 966 3 703 97 
z
M 1959 2075 
Q 2384 2075 2632 2365 
Q 2881 2656 2881 3163 
Q 2881 3666 2632 3958 
Q 2384 4250 1959 4250 
Q 1534 4250 1286 3958 
Q 1038 3666 1038 3163 
Q 1038 2656 1286 2365 
Q 1534 2075 1959 2075 
z
" transform="scale(0.015625)"/>
        <path id="DejaVuSans-61" d="M 2194 1759 
Q 1497 1759 1228 1600 
Q 959 1441 959 1056 
Q 959 750 1161 570 
Q 1363 391 1709 391 
Q 2188 391 2477 730 
Q 2766 1069 2766 1631 
L 2766 1759 
L 2194 1759 
z
M 3341 1997 
L 3341 0 
L 2766 0 
L 2766 531 
Q 2569 213 2275 61 
Q 1981 -91 1556 -91 
Q 1019 -91 701 211 
Q 384 513 384 1019 
Q 384 1609 779 1909 
Q 1175 2209 1959 2209 
L 2766 2209 
L 2766 2266 
Q 2766 2663 2505 2880 
Q 2244 3097 1772 3097 
Q 1472 3097 1187 3025 
Q 903 2953 641 2809 
L 641 3341 
Q 956 3463 1253 3523 
Q 1550 3584 1831 3584 
Q 2591 3584 2966 3190 
Q 3341 2797 3341 1997 
z
" transform="scale(0.015625)"/>
        <path id="DejaVuSans-6d" d="M 3328 2828 
Q 3544 3216 3844 3400 
Q 4144 3584 4550 3584 
Q 5097 3584 5394 3201 
Q 5691 2819 5691 2113 
L 5691 0 
L 5113 0 
L 5113 2094 
Q 5113 2597 4934 2840 
Q 4756 3084 4391 3084 
Q 3944 3084 3684 2787 
Q 3425 2491 3425 1978 
L 3425 0 
L 2847 0 
L 2847 2094 
Q 2847 2600 2669 2842 
Q 2491 3084 2119 3084 
Q 1678 3084 1418 2786 
Q 1159 2488 1159 1978 
L 1159 0 
L 581 0 
L 581 3500 
L 1159 3500 
L 1159 2956 
Q 1356 3278 1631 3431 
Q 1906 3584 2284 3584 
Q 2666 3584 2933 3390 
Q 3200 3197 3328 2828 
z
" transform="scale(0.015625)"/>
       </defs>
       <use xlink:href="#DejaVuSans-39"/>
       <use xlink:href="#DejaVuSans-61" x="63.623047"/>
       <use xlink:href="#DejaVuSans-6d" x="124.902344"/>
      </g>
     </g>
    </g>
    <g id="xtick_2">
     <g id="line2d_2">
      <g>
       <use xlink:href="#mf3394c6c65" x="157.966667" y="226.877656" style="stroke: #000000; stroke-width: 0.8"/>
      </g>
     </g>
     <g id="text_2">
      <!-- 12pm -->
      <g transform="translate(136.35612 245.275313) scale(0.15 -0.15)">
       <defs>
        <path id="DejaVuSans-31" d="M 794 531 
L 1825 531 
L 1825 4091 
L 703 3866 
L 703 4441 
L 1819 4666 
L 2450 4666 
L 2450 531 
L 3481 531 
L 3481 0 
L 794 0 
L 794 531 
z
" transform="scale(0.015625)"/>
        <path id="DejaVuSans-32" d="M 1228 531 
L 3431 531 
L 3431 0 
L 469 0 
L 469 531 
Q 828 903 1448 1529 
Q 2069 2156 2228 2338 
Q 2531 2678 2651 2914 
Q 2772 3150 2772 3378 
Q 2772 3750 2511 3984 
Q 2250 4219 1831 4219 
Q 1534 4219 1204 4116 
Q 875 4013 500 3803 
L 500 4441 
Q 881 4594 1212 4672 
Q 1544 4750 1819 4750 
Q 2544 4750 2975 4387 
Q 3406 4025 3406 3419 
Q 3406 3131 3298 2873 
Q 3191 2616 2906 2266 
Q 2828 2175 2409 1742 
Q 1991 1309 1228 531 
z
" transform="scale(0.015625)"/>
        <path id="DejaVuSans-70" d="M 1159 525 
L 1159 -1331 
L 581 -1331 
L 581 3500 
L 1159 3500 
L 1159 2969 
Q 1341 3281 1617 3432 
Q 1894 3584 2278 3584 
Q 2916 3584 3314 3078 
Q 3713 2572 3713 1747 
Q 3713 922 3314 415 
Q 2916 -91 2278 -91 
Q 1894 -91 1617 61 
Q 1341 213 1159 525 
z
M 3116 1747 
Q 3116 2381 2855 2742 
Q 2594 3103 2138 3103 
Q 1681 3103 1420 2742 
Q 1159 2381 1159 1747 
Q 1159 1113 1420 752 
Q 1681 391 2138 391 
Q 2594 391 2855 752 
Q 3116 1113 3116 1747 
z
" transform="scale(0.015625)"/>
       </defs>
       <use xlink:href="#DejaVuSans-31"/>
       <use xlink:href="#DejaVuSans-32" x="63.623047"/>
       <use xlink:href="#DejaVuSans-70" x="127.246094"/>
       <use xlink:href="#DejaVuSans-6d" x="190.722656"/>
      </g>
     </g>
    </g>
    <g id="xtick_3">
     <g id="line2d_3">
      <g>
       <use xlink:href="#mf3394c6c65" x="226.691111" y="226.877656" style="stroke: #000000; stroke-width: 0.8"/>
      </g>
     </g>
     <g id="text_3">
      <!-- 4pm -->
      <g transform="translate(209.852439 245.275313) scale(0.15 -0.15)">
       <defs>
        <path id="DejaVuSans-34" d="M 2419 4116 
L 825 1625 
L 2419 1625 
L 2419 4116 
z
M 2253 4666 
L 3047 4666 
L 3047 1625 
L 3713 1625 
L 3713 1100 
L 3047 1100 
L 3047 0 
L 2419 0 
L 2419 1100 
L 313 1100 
L 313 1709 
L 2253 4666 
z
" transform="scale(0.015625)"/>
       </defs>
       <use xlink:href="#DejaVuSans-34"/>
       <use xlink:href="#DejaVuSans-70" x="63.623047"/>
       <use xlink:href="#DejaVuSans-6d" x="127.099609"/>
      </g>
     </g>
    </g>
   </g>
   <g id="matplotlib.axis_2">
    <g id="ytick_1">
     <g id="line2d_4">
      <defs>
       <path id="md8a5764a92" d="M 0 0 
L -3.5 0 
" style="stroke: #000000; stroke-width: 0.8"/>
      </defs>
      <g>
       <use xlink:href="#md8a5764a92" x="54.88" y="226.877656" style="stroke: #000000; stroke-width: 0.8"/>
      </g>
     </g>
     <g id="text_4">
      <!-- 0 -->
      <g transform="translate(38.33625 232.576484) scale(0.15 -0.15)">
       <defs>
        <path id="DejaVuSans-30" d="M 2034 4250 
Q 1547 4250 1301 3770 
Q 1056 3291 1056 2328 
Q 1056 1369 1301 889 
Q 1547 409 2034 409 
Q 2525 409 2770 889 
Q 3016 1369 3016 2328 
Q 3016 3291 2770 3770 
Q 2525 4250 2034 4250 
z
M 2034 4750 
Q 2819 4750 3233 4129 
Q 3647 3509 3647 2328 
Q 3647 1150 3233 529 
Q 2819 -91 2034 -91 
Q 1250 -91 836 529 
Q 422 1150 422 2328 
Q 422 3509 836 4129 
Q 1250 4750 2034 4750 
z
" transform="scale(0.015625)"/>
       </defs>
       <use xlink:href="#DejaVuSans-30"/>
      </g>
     </g>
    </g>
    <g id="ytick_2">
     <g id="line2d_5">
      <g>
       <use xlink:href="#md8a5764a92" x="54.88" y="167.383539" style="stroke: #000000; stroke-width: 0.8"/>
      </g>
     </g>
     <g id="text_5">
      <!-- 10 -->
      <g transform="translate(28.7925 173.082367) scale(0.15 -0.15)">
       <use xlink:href="#DejaVuSans-31"/>
       <use xlink:href="#DejaVuSans-30" x="63.623047"/>
      </g>
     </g>
    </g>
    <g id="ytick_3">
     <g id="line2d_6">
      <g>
       <use xlink:href="#md8a5764a92" x="54.88" y="107.889421" style="stroke: #000000; stroke-width: 0.8"/>
      </g>
     </g>
     <g id="text_6">
      <!-- 20 -->
      <g transform="translate(28.7925 113.588249) scale(0.15 -0.15)">
       <use xlink:href="#DejaVuSans-32"/>
       <use xlink:href="#DejaVuSans-30" x="63.623047"/>
      </g>
     </g>
    </g>
    <g id="ytick_4">
     <g id="line2d_7">
      <g>
       <use xlink:href="#md8a5764a92" x="54.88" y="48.395303" style="stroke: #000000; stroke-width: 0.8"/>
      </g>
     </g>
     <g id="text_7">
      <!-- 30 -->
      <g transform="translate(28.7925 54.094131) scale(0.15 -0.15)">
       <defs>
        <path id="DejaVuSans-33" d="M 2597 2516 
Q 3050 2419 3304 2112 
Q 3559 1806 3559 1356 
Q 3559 666 3084 287 
Q 2609 -91 1734 -91 
Q 1441 -91 1130 -33 
Q 819 25 488 141 
L 488 750 
Q 750 597 1062 519 
Q 1375 441 1716 441 
Q 2309 441 2620 675 
Q 2931 909 2931 1356 
Q 2931 1769 2642 2001 
Q 2353 2234 1838 2234 
L 1294 2234 
L 1294 2753 
L 1863 2753 
Q 2328 2753 2575 2939 
Q 2822 3125 2822 3475 
Q 2822 3834 2567 4026 
Q 2313 4219 1838 4219 
Q 1578 4219 1281 4162 
Q 984 4106 628 3988 
L 628 4550 
Q 988 4650 1302 4700 
Q 1616 4750 1894 4750 
Q 2613 4750 3031 4423 
Q 3450 4097 3450 3541 
Q 3450 3153 3228 2886 
Q 3006 2619 2597 2516 
z
" transform="scale(0.015625)"/>
       </defs>
       <use xlink:href="#DejaVuSans-33"/>
       <use xlink:href="#DejaVuSans-30" x="63.623047"/>
      </g>
     </g>
    </g>
   </g>
   <g id="patch_3">
    <path d="M 63.470556 155.484715 
L 115.013889 155.484715 
L 115.013889 131.687068 
L 63.470556 131.687068 
L 63.470556 155.484715 
z
" clip-path="url(#pd2e929209f)" style="fill: #117733; stroke: #000000; stroke-linejoin: miter"/>
   </g>
   <g id="line2d_8">
    <path d="M 89.242222 155.484715 
L 89.242222 179.282362 
" clip-path="url(#pd2e929209f)" style="fill: none; stroke: #000000; stroke-linecap: square"/>
   </g>
   <g id="line2d_9">
    <path d="M 89.242222 131.687068 
L 89.242222 95.990597 
" clip-path="url(#pd2e929209f)" style="fill: none; stroke: #000000; stroke-linecap: square"/>
   </g>
   <g id="line2d_10">
    <path d="M 76.356389 179.282362 
L 102.128056 179.282362 
" clip-path="url(#pd2e929209f)" style="fill: none; stroke: #000000; stroke-linecap: square"/>
   </g>
   <g id="line2d_11">
    <path d="M 76.356389 95.990597 
L 102.128056 95.990597 
" clip-path="url(#pd2e929209f)" style="fill: none; stroke: #000000; stroke-linecap: square"/>
   </g>
   <g id="line2d_12"/>
   <g id="patch_4">
    <path d="M 132.195 143.585892 
L 183.738333 143.585892 
L 183.738333 119.788244 
L 132.195 119.788244 
L 132.195 143.585892 
z
" clip-path="url(#pd2e929209f)" style="fill: #aa4499; stroke: #000000; stroke-linejoin: miter"/>
   </g>
   <g id="line2d_13">
    <path d="M 157.966667 143.585892 
L 157.966667 161.434127 
" clip-path="url(#pd2e929209f)" style="fill: none; stroke: #000000; stroke-linecap: square"/>
   </g>
   <g id="line2d_14">
    <path d="M 157.966667 119.788244 
L 157.966667 84.091774 
" clip-path="url(#pd2e929209f)" style="fill: none; stroke: #000000; stroke-linecap: square"/>
   </g>
   <g id="line2d_15">
    <path d="M 145.080833 161.434127 
L 170.8525 161.434127 
" clip-path="url(#pd2e929209f)" style="fill: none; stroke: #000000; stroke-linecap: square"/>
   </g>
   <g id="line2d_16">
    <path d="M 145.080833 84.091774 
L 170.8525 84.091774 
" clip-path="url(#pd2e929209f)" style="fill: none; stroke: #000000; stroke-linecap: square"/>
   </g>
   <g id="line2d_17"/>
   <g id="patch_5">
    <path d="M 200.919444 131.687068 
L 252.462778 131.687068 
L 252.462778 107.889421 
L 200.919444 107.889421 
L 200.919444 131.687068 
z
" clip-path="url(#pd2e929209f)" style="fill: #332288; stroke: #000000; stroke-linejoin: miter"/>
   </g>
   <g id="line2d_18">
    <path d="M 226.691111 131.687068 
L 226.691111 155.484715 
" clip-path="url(#pd2e929209f)" style="fill: none; stroke: #000000; stroke-linecap: square"/>
   </g>
   <g id="line2d_19">
    <path d="M 226.691111 107.889421 
L 226.691111 84.091774 
" clip-path="url(#pd2e929209f)" style="fill: none; stroke: #000000; stroke-linecap: square"/>
   </g>
   <g id="line2d_20">
    <path d="M 213.805278 155.484715 
L 239.576944 155.484715 
" clip-path="url(#pd2e929209f)" style="fill: none; stroke: #000000; stroke-linecap: square"/>
   </g>
   <g id="line2d_21">
    <path d="M 213.805278 84.091774 
L 239.576944 84.091774 
" clip-path="url(#pd2e929209f)" style="fill: none; stroke: #000000; stroke-linecap: square"/>
   </g>
   <g id="line2d_22"/>
   <g id="line2d_23">
    <path d="M 94.396556 72.19295 
L 94.396556 66.243539 
L 152.812333 66.243539 
L 152.812333 72.19295 
" clip-path="url(#pd2e929209f)" style="fill: none; stroke: #000000; stroke-width: 1.5; stroke-linecap: square"/>
   </g>
   <g id="line2d_24">
    <path d="M 94.396556 54.344715 
L 94.396556 48.395303 
L 221.536778 48.395303 
L 221.536778 54.344715 
" clip-path="url(#pd2e929209f)" style="fill: none; stroke: #000000; stroke-width: 1.5; stroke-linecap: square"/>
   </g>
   <g id="line2d_25">
    <path d="M 163.121 72.19295 
L 163.121 66.243539 
L 221.536778 66.243539 
L 221.536778 72.19295 
" clip-path="url(#pd2e929209f)" style="fill: none; stroke: #000000; stroke-width: 1.5; stroke-linecap: square"/>
   </g>
   <g id="line2d_26">
    <path d="M 63.470556 137.63648 
L 115.013889 137.63648 
" clip-path="url(#pd2e929209f)" style="fill: none; stroke: #ddcc77; stroke-width: 3; stroke-linecap: square"/>
   </g>
   <g id="line2d_27">
    <path d="M 132.195 131.687068 
L 183.738333 131.687068 
" clip-path="url(#pd2e929209f)" style="fill: none; stroke: #ddcc77; stroke-width: 3; stroke-linecap: square"/>
   </g>
   <g id="line2d_28">
    <path d="M 200.919444 119.788244 
L 252.462778 119.788244 
" clip-path="url(#pd2e929209f)" style="fill: none; stroke: #ddcc77; stroke-width: 3; stroke-linecap: square"/>
   </g>
   <g id="patch_6">
    <path d="M 54.88 226.877656 
L 54.88 24.597656 
" style="fill: none; stroke: #000000; stroke-width: 0.8; stroke-linejoin: miter; stroke-linecap: square"/>
   </g>
   <g id="patch_7">
    <path d="M 261.053333 226.877656 
L 261.053333 24.597656 
" style="fill: none; stroke: #000000; stroke-width: 0.8; stroke-linejoin: miter; stroke-linecap: square"/>
   </g>
   <g id="patch_8">
    <path d="M 54.88 226.877656 
L 261.053333 226.877656 
" style="fill: none; stroke: #000000; stroke-width: 0.8; stroke-linejoin: miter; stroke-linecap: square"/>
   </g>
   <g id="patch_9">
    <path d="M 54.88 24.597656 
L 261.053333 24.597656 
" style="fill: none; stroke: #000000; stroke-width: 0.8; stroke-linejoin: miter; stroke-linecap: square"/>
   </g>
   <g id="text_8">
    <!-- * -->
    <g transform="translate(119.854444 63.124007) scale(0.15 -0.15)">
     <defs>
      <path id="DejaVuSans-2a" d="M 3009 3897 
L 1888 3291 
L 3009 2681 
L 2828 2375 
L 1778 3009 
L 1778 1831 
L 1422 1831 
L 1422 3009 
L 372 2375 
L 191 2681 
L 1313 3291 
L 191 3897 
L 372 4206 
L 1422 3572 
L 1422 4750 
L 1778 4750 
L 1778 3572 
L 2828 4206 
L 3009 3897 
z
" transform="scale(0.015625)"/>
     </defs>
     <use xlink:href="#DejaVuSans-2a"/>
    </g>
   </g>
   <g id="text_9">
    <!-- *** -->
    <g transform="translate(146.716667 45.275772) scale(0.15 -0.15)">
     <use xlink:href="#DejaVuSans-2a"/>
     <use xlink:href="#DejaVuSans-2a" x="50"/>
     <use xlink:href="#DejaVuSans-2a" x="100"/>
    </g>
   </g>
   <g id="text_10">
    <!-- n.s. -->
    <g transform="translate(178.901545 63.124007) scale(0.15 -0.15)">
     <defs>
      <path id="DejaVuSans-6e" d="M 3513 2113 
L 3513 0 
L 2938 0 
L 2938 2094 
Q 2938 2591 2744 2837 
Q 2550 3084 2163 3084 
Q 1697 3084 1428 2787 
Q 1159 2491 1159 1978 
L 1159 0 
L 581 0 
L 581 3500 
L 1159 3500 
L 1159 2956 
Q 1366 3272 1645 3428 
Q 1925 3584 2291 3584 
Q 2894 3584 3203 3211 
Q 3513 2838 3513 2113 
z
" transform="scale(0.015625)"/>
      <path id="DejaVuSans-2e" d="M 684 794 
L 1344 794 
L 1344 0 
L 684 0 
L 684 794 
z
" transform="scale(0.015625)"/>
      <path id="DejaVuSans-73" d="M 2834 3397 
L 2834 2853 
Q 2591 2978 2328 3040 
Q 2066 3103 1784 3103 
Q 1356 3103 1142 2972 
Q 928 2841 928 2578 
Q 928 2378 1081 2264 
Q 1234 2150 1697 2047 
L 1894 2003 
Q 2506 1872 2764 1633 
Q 3022 1394 3022 966 
Q 3022 478 2636 193 
Q 2250 -91 1575 -91 
Q 1294 -91 989 -36 
Q 684 19 347 128 
L 347 722 
Q 666 556 975 473 
Q 1284 391 1588 391 
Q 1994 391 2212 530 
Q 2431 669 2431 922 
Q 2431 1156 2273 1281 
Q 2116 1406 1581 1522 
L 1381 1569 
Q 847 1681 609 1914 
Q 372 2147 372 2553 
Q 372 3047 722 3315 
Q 1072 3584 1716 3584 
Q 2034 3584 2315 3537 
Q 2597 3491 2834 3397 
z
" transform="scale(0.015625)"/>
     </defs>
     <use xlink:href="#DejaVuSans-6e"/>
     <use xlink:href="#DejaVuSans-2e" x="63.378906"/>
     <use xlink:href="#DejaVuSans-73" x="95.166016"/>
     <use xlink:href="#DejaVuSans-2e" x="147.265625"/>
    </g>
   </g>
   <g id="text_11">
    <!-- Manual -->
    <g transform="translate(130.713542 18.597656) scale(0.15 -0.15)">
     <defs>
      <path id="DejaVuSans-4d" d="M 628 4666 
L 1569 4666 
L 2759 1491 
L 3956 4666 
L 4897 4666 
L 4897 0 
L 4281 0 
L 4281 4097 
L 3078 897 
L 2444 897 
L 1241 4097 
L 1241 0 
L 628 0 
L 628 4666 
z
" transform="scale(0.015625)"/>
      <path id="DejaVuSans-75" d="M 544 1381 
L 544 3500 
L 1119 3500 
L 1119 1403 
Q 1119 906 1312 657 
Q 1506 409 1894 409 
Q 2359 409 2629 706 
Q 2900 1003 2900 1516 
L 2900 3500 
L 3475 3500 
L 3475 0 
L 2900 0 
L 2900 538 
Q 2691 219 2414 64 
Q 2138 -91 1772 -91 
Q 1169 -91 856 284 
Q 544 659 544 1381 
z
M 1991 3584 
L 1991 3584 
z
" transform="scale(0.015625)"/>
      <path id="DejaVuSans-6c" d="M 603 4863 
L 1178 4863 
L 1178 0 
L 603 0 
L 603 4863 
z
" transform="scale(0.015625)"/>
     </defs>
     <use xlink:href="#DejaVuSans-4d"/>
     <use xlink:href="#DejaVuSans-61" x="86.279297"/>
     <use xlink:href="#DejaVuSans-6e" x="147.558594"/>
     <use xlink:href="#DejaVuSans-75" x="210.9375"/>
     <use xlink:href="#DejaVuSans-61" x="274.316406"/>
     <use xlink:href="#DejaVuSans-6c" x="335.595703"/>
    </g>
   </g>
  </g>
  <g id="axes_2">
   <g id="patch_10">
    <path d="M 275.353333 226.877656 
L 481.526667 226.877656 
L 481.526667 24.597656 
L 275.353333 24.597656 
z
" style="fill: #ffffff"/>
   </g>
   <g id="matplotlib.axis_3">
    <g id="xtick_4">
     <g id="line2d_29">
      <g>
       <use xlink:href="#mf3394c6c65" x="309.715556" y="226.877656" style="stroke: #000000; stroke-width: 0.8"/>
      </g>
     </g>
     <g id="text_12">
      <!-- 9am -->
      <g transform="translate(293.042118 245.275313) scale(0.15 -0.15)">
       <use xlink:href="#DejaVuSans-39"/>
       <use xlink:href="#DejaVuSans-61" x="63.623047"/>
       <use xlink:href="#DejaVuSans-6d" x="124.902344"/>
      </g>
     </g>
    </g>
    <g id="xtick_5">
     <g id="line2d_30">
      <g>
       <use xlink:href="#mf3394c6c65" x="378.44" y="226.877656" style="stroke: #000000; stroke-width: 0.8"/>
      </g>
     </g>
     <g id="text_13">
      <!-- 12pm -->
      <g transform="translate(356.829453 245.275313) scale(0.15 -0.15)">
       <use xlink:href="#DejaVuSans-31"/>
       <use xlink:href="#DejaVuSans-32" x="63.623047"/>
       <use xlink:href="#DejaVuSans-70" x="127.246094"/>
       <use xlink:href="#DejaVuSans-6d" x="190.722656"/>
      </g>
     </g>
    </g>
    <g id="xtick_6">
     <g id="line2d_31">
      <g>
       <use xlink:href="#mf3394c6c65" x="447.164444" y="226.877656" style="stroke: #000000; stroke-width: 0.8"/>
      </g>
     </g>
     <g id="text_14">
      <!-- 4pm -->
      <g transform="translate(430.325773 245.275313) scale(0.15 -0.15)">
       <use xlink:href="#DejaVuSans-34"/>
       <use xlink:href="#DejaVuSans-70" x="63.623047"/>
       <use xlink:href="#DejaVuSans-6d" x="127.099609"/>
      </g>
     </g>
    </g>
   </g>
   <g id="matplotlib.axis_4">
    <g id="ytick_5">
     <g id="line2d_32">
      <g>
       <use xlink:href="#md8a5764a92" x="275.353333" y="226.877656" style="stroke: #000000; stroke-width: 0.8"/>
      </g>
     </g>
    </g>
    <g id="ytick_6">
     <g id="line2d_33">
      <g>
       <use xlink:href="#md8a5764a92" x="275.353333" y="167.383539" style="stroke: #000000; stroke-width: 0.8"/>
      </g>
     </g>
    </g>
    <g id="ytick_7">
     <g id="line2d_34">
      <g>
       <use xlink:href="#md8a5764a92" x="275.353333" y="107.889421" style="stroke: #000000; stroke-width: 0.8"/>
      </g>
     </g>
    </g>
    <g id="ytick_8">
     <g id="line2d_35">
      <g>
       <use xlink:href="#md8a5764a92" x="275.353333" y="48.395303" style="stroke: #000000; stroke-width: 0.8"/>
      </g>
     </g>
    </g>
   </g>
   <g id="patch_11">
    <path d="M 283.943889 183.288299 
L 335.487222 183.288299 
L 335.487222 154.770786 
L 283.943889 154.770786 
L 283.943889 183.288299 
z
" clip-path="url(#p6562568ca5)" style="fill: #117733; stroke: #000000; stroke-linejoin: miter"/>
   </g>
   <g id="line2d_36">
    <path d="M 309.715556 183.288299 
L 309.715556 203.080009 
" clip-path="url(#p6562568ca5)" style="fill: none; stroke: #000000; stroke-linecap: square"/>
   </g>
   <g id="line2d_37">
    <path d="M 309.715556 154.770786 
L 309.715556 132.797625 
" clip-path="url(#p6562568ca5)" style="fill: none; stroke: #000000; stroke-linecap: square"/>
   </g>
   <g id="line2d_38">
    <path d="M 296.829722 203.080009 
L 322.601389 203.080009 
" clip-path="url(#p6562568ca5)" style="fill: none; stroke: #000000; stroke-linecap: square"/>
   </g>
   <g id="line2d_39">
    <path d="M 296.829722 132.797625 
L 322.601389 132.797625 
" clip-path="url(#p6562568ca5)" style="fill: none; stroke: #000000; stroke-linecap: square"/>
   </g>
   <g id="line2d_40">
    <defs>
     <path id="mce9309df15" d="M 0 3 
C 0.795609 3 1.55874 2.683901 2.12132 2.12132 
C 2.683901 1.55874 3 0.795609 3 0 
C 3 -0.795609 2.683901 -1.55874 2.12132 -2.12132 
C 1.55874 -2.683901 0.795609 -3 0 -3 
C -0.795609 -3 -1.55874 -2.683901 -2.12132 -2.12132 
C -2.683901 -1.55874 -3 -0.795609 -3 0 
C -3 0.795609 -2.683901 1.55874 -2.12132 2.12132 
C -1.55874 2.683901 -0.795609 3 0 3 
z
" style="stroke: #000000"/>
    </defs>
    <g clip-path="url(#p6562568ca5)">
     <use xlink:href="#mce9309df15" x="309.715556" y="85.202331" style="fill-opacity: 0; stroke: #000000"/>
     <use xlink:href="#mce9309df15" x="309.715556" y="109.793233" style="fill-opacity: 0; stroke: #000000"/>
     <use xlink:href="#mce9309df15" x="309.715556" y="109.793233" style="fill-opacity: 0; stroke: #000000"/>
     <use xlink:href="#mce9309df15" x="309.715556" y="103.288543" style="fill-opacity: 0; stroke: #000000"/>
    </g>
   </g>
   <g id="patch_12">
    <path d="M 352.668333 192.133092 
L 404.211667 192.133092 
L 404.211667 149.77328 
L 352.668333 149.77328 
L 352.668333 192.133092 
z
" clip-path="url(#p6562568ca5)" style="fill: #aa4499; stroke: #000000; stroke-linejoin: miter"/>
   </g>
   <g id="line2d_41">
    <path d="M 378.44 192.133092 
L 378.44 207.839539 
" clip-path="url(#p6562568ca5)" style="fill: none; stroke: #000000; stroke-linecap: square"/>
   </g>
   <g id="line2d_42">
    <path d="M 378.44 149.77328 
L 378.44 103.764495 
" clip-path="url(#p6562568ca5)" style="fill: none; stroke: #000000; stroke-linecap: square"/>
   </g>
   <g id="line2d_43">
    <path d="M 365.554167 207.839539 
L 391.325833 207.839539 
" clip-path="url(#p6562568ca5)" style="fill: none; stroke: #000000; stroke-linecap: square"/>
   </g>
   <g id="line2d_44">
    <path d="M 365.554167 103.764495 
L 391.325833 103.764495 
" clip-path="url(#p6562568ca5)" style="fill: none; stroke: #000000; stroke-linecap: square"/>
   </g>
   <g id="line2d_45"/>
   <g id="patch_13">
    <path d="M 421.392778 165.95568 
L 472.936111 165.95568 
L 472.936111 151.042488 
L 421.392778 151.042488 
L 421.392778 165.95568 
z
" clip-path="url(#p6562568ca5)" style="fill: #332288; stroke: #000000; stroke-linejoin: miter"/>
   </g>
   <g id="line2d_46">
    <path d="M 447.164444 165.95568 
L 447.164444 187.05626 
" clip-path="url(#p6562568ca5)" style="fill: none; stroke: #000000; stroke-linecap: square"/>
   </g>
   <g id="line2d_47">
    <path d="M 447.164444 151.042488 
L 447.164444 136.287946 
" clip-path="url(#p6562568ca5)" style="fill: none; stroke: #000000; stroke-linecap: square"/>
   </g>
   <g id="line2d_48">
    <path d="M 434.278611 187.05626 
L 460.050278 187.05626 
" clip-path="url(#p6562568ca5)" style="fill: none; stroke: #000000; stroke-linecap: square"/>
   </g>
   <g id="line2d_49">
    <path d="M 434.278611 136.287946 
L 460.050278 136.287946 
" clip-path="url(#p6562568ca5)" style="fill: none; stroke: #000000; stroke-linecap: square"/>
   </g>
   <g id="line2d_50">
    <g clip-path="url(#p6562568ca5)">
     <use xlink:href="#mce9309df15" x="447.164444" y="193.56095" style="fill-opacity: 0; stroke: #000000"/>
     <use xlink:href="#mce9309df15" x="447.164444" y="106.778864" style="fill-opacity: 0; stroke: #000000"/>
     <use xlink:href="#mce9309df15" x="447.164444" y="93.452182" style="fill-opacity: 0; stroke: #000000"/>
    </g>
   </g>
   <g id="line2d_51">
    <path d="M 314.869889 72.19295 
L 314.869889 66.243539 
L 373.285667 66.243539 
L 373.285667 72.19295 
" clip-path="url(#p6562568ca5)" style="fill: none; stroke: #000000; stroke-width: 1.5; stroke-linecap: square"/>
   </g>
   <g id="line2d_52">
    <path d="M 314.869889 54.344715 
L 314.869889 48.395303 
L 442.010111 48.395303 
L 442.010111 54.344715 
" clip-path="url(#p6562568ca5)" style="fill: none; stroke: #000000; stroke-width: 1.5; stroke-linecap: square"/>
   </g>
   <g id="line2d_53">
    <path d="M 383.594333 72.19295 
L 383.594333 66.243539 
L 442.010111 66.243539 
L 442.010111 72.19295 
" clip-path="url(#p6562568ca5)" style="fill: none; stroke: #000000; stroke-width: 1.5; stroke-linecap: square"/>
   </g>
   <g id="line2d_54">
    <path d="M 283.943889 172.539695 
L 335.487222 172.539695 
" clip-path="url(#p6562568ca5)" style="fill: none; stroke: #ddcc77; stroke-width: 3; stroke-linecap: square"/>
   </g>
   <g id="line2d_55">
    <path d="M 352.668333 170.715209 
L 404.211667 170.715209 
" clip-path="url(#p6562568ca5)" style="fill: none; stroke: #ddcc77; stroke-width: 3; stroke-linecap: square"/>
   </g>
   <g id="line2d_56">
    <path d="M 421.392778 156.753923 
L 472.936111 156.753923 
" clip-path="url(#p6562568ca5)" style="fill: none; stroke: #ddcc77; stroke-width: 3; stroke-linecap: square"/>
   </g>
   <g id="patch_14">
    <path d="M 275.353333 226.877656 
L 275.353333 24.597656 
" style="fill: none; stroke: #000000; stroke-width: 0.8; stroke-linejoin: miter; stroke-linecap: square"/>
   </g>
   <g id="patch_15">
    <path d="M 481.526667 226.877656 
L 481.526667 24.597656 
" style="fill: none; stroke: #000000; stroke-width: 0.8; stroke-linejoin: miter; stroke-linecap: square"/>
   </g>
   <g id="patch_16">
    <path d="M 275.353333 226.877656 
L 481.526667 226.877656 
" style="fill: none; stroke: #000000; stroke-width: 0.8; stroke-linejoin: miter; stroke-linecap: square"/>
   </g>
   <g id="patch_17">
    <path d="M 275.353333 24.597656 
L 481.526667 24.597656 
" style="fill: none; stroke: #000000; stroke-width: 0.8; stroke-linejoin: miter; stroke-linecap: square"/>
   </g>
   <g id="text_15">
    <!-- n.s. -->
    <g transform="translate(330.650434 63.124007) scale(0.15 -0.15)">
     <use xlink:href="#DejaVuSans-6e"/>
     <use xlink:href="#DejaVuSans-2e" x="63.378906"/>
     <use xlink:href="#DejaVuSans-73" x="95.166016"/>
     <use xlink:href="#DejaVuSans-2e" x="147.265625"/>
    </g>
   </g>
   <g id="text_16">
    <!-- * -->
    <g transform="translate(374.69 45.275772) scale(0.15 -0.15)">
     <use xlink:href="#DejaVuSans-2a"/>
    </g>
   </g>
   <g id="text_17">
    <!-- n.s. -->
    <g transform="translate(399.374878 63.124007) scale(0.15 -0.15)">
     <use xlink:href="#DejaVuSans-6e"/>
     <use xlink:href="#DejaVuSans-2e" x="63.378906"/>
     <use xlink:href="#DejaVuSans-73" x="95.166016"/>
     <use xlink:href="#DejaVuSans-2e" x="147.265625"/>
    </g>
   </g>
   <g id="text_18">
    <!-- Auto Coil 1 -->
    <g transform="translate(337.494687 18.597656) scale(0.15 -0.15)">
     <defs>
      <path id="DejaVuSans-41" d="M 2188 4044 
L 1331 1722 
L 3047 1722 
L 2188 4044 
z
M 1831 4666 
L 2547 4666 
L 4325 0 
L 3669 0 
L 3244 1197 
L 1141 1197 
L 716 0 
L 50 0 
L 1831 4666 
z
" transform="scale(0.015625)"/>
      <path id="DejaVuSans-74" d="M 1172 4494 
L 1172 3500 
L 2356 3500 
L 2356 3053 
L 1172 3053 
L 1172 1153 
Q 1172 725 1289 603 
Q 1406 481 1766 481 
L 2356 481 
L 2356 0 
L 1766 0 
Q 1100 0 847 248 
Q 594 497 594 1153 
L 594 3053 
L 172 3053 
L 172 3500 
L 594 3500 
L 594 4494 
L 1172 4494 
z
" transform="scale(0.015625)"/>
      <path id="DejaVuSans-6f" d="M 1959 3097 
Q 1497 3097 1228 2736 
Q 959 2375 959 1747 
Q 959 1119 1226 758 
Q 1494 397 1959 397 
Q 2419 397 2687 759 
Q 2956 1122 2956 1747 
Q 2956 2369 2687 2733 
Q 2419 3097 1959 3097 
z
M 1959 3584 
Q 2709 3584 3137 3096 
Q 3566 2609 3566 1747 
Q 3566 888 3137 398 
Q 2709 -91 1959 -91 
Q 1206 -91 779 398 
Q 353 888 353 1747 
Q 353 2609 779 3096 
Q 1206 3584 1959 3584 
z
" transform="scale(0.015625)"/>
      <path id="DejaVuSans-20" transform="scale(0.015625)"/>
      <path id="DejaVuSans-43" d="M 4122 4306 
L 4122 3641 
Q 3803 3938 3442 4084 
Q 3081 4231 2675 4231 
Q 1875 4231 1450 3742 
Q 1025 3253 1025 2328 
Q 1025 1406 1450 917 
Q 1875 428 2675 428 
Q 3081 428 3442 575 
Q 3803 722 4122 1019 
L 4122 359 
Q 3791 134 3420 21 
Q 3050 -91 2638 -91 
Q 1578 -91 968 557 
Q 359 1206 359 2328 
Q 359 3453 968 4101 
Q 1578 4750 2638 4750 
Q 3056 4750 3426 4639 
Q 3797 4528 4122 4306 
z
" transform="scale(0.015625)"/>
      <path id="DejaVuSans-69" d="M 603 3500 
L 1178 3500 
L 1178 0 
L 603 0 
L 603 3500 
z
M 603 4863 
L 1178 4863 
L 1178 4134 
L 603 4134 
L 603 4863 
z
" transform="scale(0.015625)"/>
     </defs>
     <use xlink:href="#DejaVuSans-41"/>
     <use xlink:href="#DejaVuSans-75" x="68.408203"/>
     <use xlink:href="#DejaVuSans-74" x="131.787109"/>
     <use xlink:href="#DejaVuSans-6f" x="170.996094"/>
     <use xlink:href="#DejaVuSans-20" x="232.177734"/>
     <use xlink:href="#DejaVuSans-43" x="263.964844"/>
     <use xlink:href="#DejaVuSans-6f" x="333.789062"/>
     <use xlink:href="#DejaVuSans-69" x="394.970703"/>
     <use xlink:href="#DejaVuSans-6c" x="422.753906"/>
     <use xlink:href="#DejaVuSans-20" x="450.537109"/>
     <use xlink:href="#DejaVuSans-31" x="482.324219"/>
    </g>
   </g>
  </g>
  <g id="axes_3">
   <g id="patch_18">
    <path d="M 495.826667 226.877656 
L 702 226.877656 
L 702 24.597656 
L 495.826667 24.597656 
z
" style="fill: #ffffff"/>
   </g>
   <g id="matplotlib.axis_5">
    <g id="xtick_7">
     <g id="line2d_57">
      <g>
       <use xlink:href="#mf3394c6c65" x="530.188889" y="226.877656" style="stroke: #000000; stroke-width: 0.8"/>
      </g>
     </g>
     <g id="text_19">
      <!-- 9am -->
      <g transform="translate(513.515451 245.275313) scale(0.15 -0.15)">
       <use xlink:href="#DejaVuSans-39"/>
       <use xlink:href="#DejaVuSans-61" x="63.623047"/>
       <use xlink:href="#DejaVuSans-6d" x="124.902344"/>
      </g>
     </g>
    </g>
    <g id="xtick_8">
     <g id="line2d_58">
      <g>
       <use xlink:href="#mf3394c6c65" x="598.913333" y="226.877656" style="stroke: #000000; stroke-width: 0.8"/>
      </g>
     </g>
     <g id="text_20">
      <!-- 12pm -->
      <g transform="translate(577.302786 245.275313) scale(0.15 -0.15)">
       <use xlink:href="#DejaVuSans-31"/>
       <use xlink:href="#DejaVuSans-32" x="63.623047"/>
       <use xlink:href="#DejaVuSans-70" x="127.246094"/>
       <use xlink:href="#DejaVuSans-6d" x="190.722656"/>
      </g>
     </g>
    </g>
    <g id="xtick_9">
     <g id="line2d_59">
      <g>
       <use xlink:href="#mf3394c6c65" x="667.637778" y="226.877656" style="stroke: #000000; stroke-width: 0.8"/>
      </g>
     </g>
     <g id="text_21">
      <!-- 4pm -->
      <g transform="translate(650.799106 245.275313) scale(0.15 -0.15)">
       <use xlink:href="#DejaVuSans-34"/>
       <use xlink:href="#DejaVuSans-70" x="63.623047"/>
       <use xlink:href="#DejaVuSans-6d" x="127.099609"/>
      </g>
     </g>
    </g>
   </g>
   <g id="matplotlib.axis_6">
    <g id="ytick_9">
     <g id="line2d_60">
      <g>
       <use xlink:href="#md8a5764a92" x="495.826667" y="226.877656" style="stroke: #000000; stroke-width: 0.8"/>
      </g>
     </g>
    </g>
    <g id="ytick_10">
     <g id="line2d_61">
      <g>
       <use xlink:href="#md8a5764a92" x="495.826667" y="167.383539" style="stroke: #000000; stroke-width: 0.8"/>
      </g>
     </g>
    </g>
    <g id="ytick_11">
     <g id="line2d_62">
      <g>
       <use xlink:href="#md8a5764a92" x="495.826667" y="107.889421" style="stroke: #000000; stroke-width: 0.8"/>
      </g>
     </g>
    </g>
    <g id="ytick_12">
     <g id="line2d_63">
      <g>
       <use xlink:href="#md8a5764a92" x="495.826667" y="48.395303" style="stroke: #000000; stroke-width: 0.8"/>
      </g>
     </g>
    </g>
   </g>
   <g id="patch_19">
    <path d="M 504.417222 180.472244 
L 555.960556 180.472244 
L 555.960556 163.139625 
L 504.417222 163.139625 
L 504.417222 180.472244 
z
" clip-path="url(#pb0ba02a163)" style="fill: #117733; stroke: #000000; stroke-linejoin: miter"/>
   </g>
   <g id="line2d_64">
    <path d="M 530.188889 180.472244 
L 530.188889 194.671507 
" clip-path="url(#pb0ba02a163)" style="fill: none; stroke: #000000; stroke-linecap: square"/>
   </g>
   <g id="line2d_65">
    <path d="M 530.188889 163.139625 
L 530.188889 143.427241 
" clip-path="url(#pb0ba02a163)" style="fill: none; stroke: #000000; stroke-linecap: square"/>
   </g>
   <g id="line2d_66">
    <path d="M 517.303056 194.671507 
L 543.074722 194.671507 
" clip-path="url(#pb0ba02a163)" style="fill: none; stroke: #000000; stroke-linecap: square"/>
   </g>
   <g id="line2d_67">
    <path d="M 517.303056 143.427241 
L 543.074722 143.427241 
" clip-path="url(#pb0ba02a163)" style="fill: none; stroke: #000000; stroke-linecap: square"/>
   </g>
   <g id="line2d_68"/>
   <g id="patch_20">
    <path d="M 573.141667 168.176794 
L 624.685 168.176794 
L 624.685 151.042488 
L 573.141667 151.042488 
L 573.141667 168.176794 
z
" clip-path="url(#pb0ba02a163)" style="fill: #aa4499; stroke: #000000; stroke-linejoin: miter"/>
   </g>
   <g id="line2d_69">
    <path d="M 598.913333 168.176794 
L 598.913333 179.758315 
" clip-path="url(#pb0ba02a163)" style="fill: none; stroke: #000000; stroke-linecap: square"/>
   </g>
   <g id="line2d_70">
    <path d="M 598.913333 151.042488 
L 598.913333 140.888825 
" clip-path="url(#pb0ba02a163)" style="fill: none; stroke: #000000; stroke-linecap: square"/>
   </g>
   <g id="line2d_71">
    <path d="M 586.0275 179.758315 
L 611.799167 179.758315 
" clip-path="url(#pb0ba02a163)" style="fill: none; stroke: #000000; stroke-linecap: square"/>
   </g>
   <g id="line2d_72">
    <path d="M 586.0275 140.888825 
L 611.799167 140.888825 
" clip-path="url(#pb0ba02a163)" style="fill: none; stroke: #000000; stroke-linecap: square"/>
   </g>
   <g id="line2d_73">
    <g clip-path="url(#pb0ba02a163)">
     <use xlink:href="#mce9309df15" x="598.913333" y="118.360386" style="fill-opacity: 0; stroke: #000000"/>
     <use xlink:href="#mce9309df15" x="598.913333" y="106.302911" style="fill-opacity: 0; stroke: #000000"/>
    </g>
   </g>
   <g id="patch_21">
    <path d="M 641.866111 150.606197 
L 693.409444 150.606197 
L 693.409444 135.811994 
L 641.866111 135.811994 
L 641.866111 150.606197 
z
" clip-path="url(#pb0ba02a163)" style="fill: #332288; stroke: #000000; stroke-linejoin: miter"/>
   </g>
   <g id="line2d_74">
    <path d="M 667.637778 150.606197 
L 667.637778 156.753923 
" clip-path="url(#pb0ba02a163)" style="fill: none; stroke: #000000; stroke-linecap: square"/>
   </g>
   <g id="line2d_75">
    <path d="M 667.637778 135.811994 
L 667.637778 116.297923 
" clip-path="url(#pb0ba02a163)" style="fill: none; stroke: #000000; stroke-linecap: square"/>
   </g>
   <g id="line2d_76">
    <path d="M 654.751944 156.753923 
L 680.523611 156.753923 
" clip-path="url(#pb0ba02a163)" style="fill: none; stroke: #000000; stroke-linecap: square"/>
   </g>
   <g id="line2d_77">
    <path d="M 654.751944 116.297923 
L 680.523611 116.297923 
" clip-path="url(#pb0ba02a163)" style="fill: none; stroke: #000000; stroke-linecap: square"/>
   </g>
   <g id="line2d_78">
    <g clip-path="url(#pb0ba02a163)">
     <use xlink:href="#mce9309df15" x="667.637778" y="181.027523" style="fill-opacity: 0; stroke: #000000"/>
     <use xlink:href="#mce9309df15" x="667.637778" y="178.806409" style="fill-opacity: 0; stroke: #000000"/>
     <use xlink:href="#mce9309df15" x="667.637778" y="174.04688" style="fill-opacity: 0; stroke: #000000"/>
    </g>
   </g>
   <g id="line2d_79">
    <path d="M 535.343222 72.19295 
L 535.343222 66.243539 
L 593.759 66.243539 
L 593.759 72.19295 
" clip-path="url(#pb0ba02a163)" style="fill: none; stroke: #000000; stroke-width: 1.5; stroke-linecap: square"/>
   </g>
   <g id="line2d_80">
    <path d="M 535.343222 54.344715 
L 535.343222 48.395303 
L 662.483444 48.395303 
L 662.483444 54.344715 
" clip-path="url(#pb0ba02a163)" style="fill: none; stroke: #000000; stroke-width: 1.5; stroke-linecap: square"/>
   </g>
   <g id="line2d_81">
    <path d="M 604.067667 72.19295 
L 604.067667 66.243539 
L 662.483444 66.243539 
L 662.483444 72.19295 
" clip-path="url(#pb0ba02a163)" style="fill: none; stroke: #000000; stroke-width: 1.5; stroke-linecap: square"/>
   </g>
   <g id="line2d_82">
    <path d="M 504.417222 170.159931 
L 555.960556 170.159931 
" clip-path="url(#pb0ba02a163)" style="fill: none; stroke: #ddcc77; stroke-width: 3; stroke-linecap: square"/>
   </g>
   <g id="line2d_83">
    <path d="M 573.141667 161.19615 
L 624.685 161.19615 
" clip-path="url(#pb0ba02a163)" style="fill: none; stroke: #ddcc77; stroke-width: 3; stroke-linecap: square"/>
   </g>
   <g id="line2d_84">
    <path d="M 641.866111 142.55466 
L 693.409444 142.55466 
" clip-path="url(#pb0ba02a163)" style="fill: none; stroke: #ddcc77; stroke-width: 3; stroke-linecap: square"/>
   </g>
   <g id="patch_22">
    <path d="M 495.826667 226.877656 
L 495.826667 24.597656 
" style="fill: none; stroke: #000000; stroke-width: 0.8; stroke-linejoin: miter; stroke-linecap: square"/>
   </g>
   <g id="patch_23">
    <path d="M 702 226.877656 
L 702 24.597656 
" style="fill: none; stroke: #000000; stroke-width: 0.8; stroke-linejoin: miter; stroke-linecap: square"/>
   </g>
   <g id="patch_24">
    <path d="M 495.826667 226.877656 
L 702 226.877656 
" style="fill: none; stroke: #000000; stroke-width: 0.8; stroke-linejoin: miter; stroke-linecap: square"/>
   </g>
   <g id="patch_25">
    <path d="M 495.826667 24.597656 
L 702 24.597656 
" style="fill: none; stroke: #000000; stroke-width: 0.8; stroke-linejoin: miter; stroke-linecap: square"/>
   </g>
   <g id="text_22">
    <!-- ** -->
    <g transform="translate(557.051111 63.124007) scale(0.15 -0.15)">
     <use xlink:href="#DejaVuSans-2a"/>
     <use xlink:href="#DejaVuSans-2a" x="50"/>
    </g>
   </g>
   <g id="text_23">
    <!-- *** -->
    <g transform="translate(587.663333 45.275772) scale(0.15 -0.15)">
     <use xlink:href="#DejaVuSans-2a"/>
     <use xlink:href="#DejaVuSans-2a" x="50"/>
     <use xlink:href="#DejaVuSans-2a" x="100"/>
    </g>
   </g>
   <g id="text_24">
    <!-- ** -->
    <g transform="translate(625.775556 63.124007) scale(0.15 -0.15)">
     <use xlink:href="#DejaVuSans-2a"/>
     <use xlink:href="#DejaVuSans-2a" x="50"/>
    </g>
   </g>
   <g id="text_25">
    <!-- Auto Coil 2 -->
    <g transform="translate(557.968021 18.597656) scale(0.15 -0.15)">
     <use xlink:href="#DejaVuSans-41"/>
     <use xlink:href="#DejaVuSans-75" x="68.408203"/>
     <use xlink:href="#DejaVuSans-74" x="131.787109"/>
     <use xlink:href="#DejaVuSans-6f" x="170.996094"/>
     <use xlink:href="#DejaVuSans-20" x="232.177734"/>
     <use xlink:href="#DejaVuSans-43" x="263.964844"/>
     <use xlink:href="#DejaVuSans-6f" x="333.789062"/>
     <use xlink:href="#DejaVuSans-69" x="394.970703"/>
     <use xlink:href="#DejaVuSans-6c" x="422.753906"/>
     <use xlink:href="#DejaVuSans-20" x="450.537109"/>
     <use xlink:href="#DejaVuSans-32" x="482.324219"/>
    </g>
   </g>
  </g>
  <g id="text_26">
   <!-- Time of inoculation -->
   <g transform="translate(281.104688 278.278125) scale(0.15 -0.15)">
    <defs>
     <path id="DejaVuSans-54" d="M -19 4666 
L 3928 4666 
L 3928 4134 
L 2272 4134 
L 2272 0 
L 1638 0 
L 1638 4134 
L -19 4134 
L -19 4666 
z
" transform="scale(0.015625)"/>
     <path id="DejaVuSans-65" d="M 3597 1894 
L 3597 1613 
L 953 1613 
Q 991 1019 1311 708 
Q 1631 397 2203 397 
Q 2534 397 2845 478 
Q 3156 559 3463 722 
L 3463 178 
Q 3153 47 2828 -22 
Q 2503 -91 2169 -91 
Q 1331 -91 842 396 
Q 353 884 353 1716 
Q 353 2575 817 3079 
Q 1281 3584 2069 3584 
Q 2775 3584 3186 3129 
Q 3597 2675 3597 1894 
z
M 3022 2063 
Q 3016 2534 2758 2815 
Q 2500 3097 2075 3097 
Q 1594 3097 1305 2825 
Q 1016 2553 972 2059 
L 3022 2063 
z
" transform="scale(0.015625)"/>
     <path id="DejaVuSans-66" d="M 2375 4863 
L 2375 4384 
L 1825 4384 
Q 1516 4384 1395 4259 
Q 1275 4134 1275 3809 
L 1275 3500 
L 2222 3500 
L 2222 3053 
L 1275 3053 
L 1275 0 
L 697 0 
L 697 3053 
L 147 3053 
L 147 3500 
L 697 3500 
L 697 3744 
Q 697 4328 969 4595 
Q 1241 4863 1831 4863 
L 2375 4863 
z
" transform="scale(0.015625)"/>
     <path id="DejaVuSans-63" d="M 3122 3366 
L 3122 2828 
Q 2878 2963 2633 3030 
Q 2388 3097 2138 3097 
Q 1578 3097 1268 2742 
Q 959 2388 959 1747 
Q 959 1106 1268 751 
Q 1578 397 2138 397 
Q 2388 397 2633 464 
Q 2878 531 3122 666 
L 3122 134 
Q 2881 22 2623 -34 
Q 2366 -91 2075 -91 
Q 1284 -91 818 406 
Q 353 903 353 1747 
Q 353 2603 823 3093 
Q 1294 3584 2113 3584 
Q 2378 3584 2631 3529 
Q 2884 3475 3122 3366 
z
" transform="scale(0.015625)"/>
    </defs>
    <use xlink:href="#DejaVuSans-54"/>
    <use xlink:href="#DejaVuSans-69" x="57.958984"/>
    <use xlink:href="#DejaVuSans-6d" x="85.742188"/>
    <use xlink:href="#DejaVuSans-65" x="183.154297"/>
    <use xlink:href="#DejaVuSans-20" x="244.677734"/>
    <use xlink:href="#DejaVuSans-6f" x="276.464844"/>
    <use xlink:href="#DejaVuSans-66" x="337.646484"/>
    <use xlink:href="#DejaVuSans-20" x="372.851562"/>
    <use xlink:href="#DejaVuSans-69" x="404.638672"/>
    <use xlink:href="#DejaVuSans-6e" x="432.421875"/>
    <use xlink:href="#DejaVuSans-6f" x="495.800781"/>
    <use xlink:href="#DejaVuSans-63" x="556.982422"/>
    <use xlink:href="#DejaVuSans-75" x="611.962891"/>
    <use xlink:href="#DejaVuSans-6c" x="675.341797"/>
    <use xlink:href="#DejaVuSans-61" x="703.125"/>
    <use xlink:href="#DejaVuSans-74" x="764.404297"/>
    <use xlink:href="#DejaVuSans-69" x="803.613281"/>
    <use xlink:href="#DejaVuSans-6f" x="831.396484"/>
    <use xlink:href="#DejaVuSans-6e" x="892.578125"/>
   </g>
  </g>
  <g id="text_27">
   <!-- Time after inoculation [h] -->
   <g transform="translate(18.597656 235.476094) rotate(-90) scale(0.15 -0.15)">
    <defs>
     <path id="DejaVuSans-72" d="M 2631 2963 
Q 2534 3019 2420 3045 
Q 2306 3072 2169 3072 
Q 1681 3072 1420 2755 
Q 1159 2438 1159 1844 
L 1159 0 
L 581 0 
L 581 3500 
L 1159 3500 
L 1159 2956 
Q 1341 3275 1631 3429 
Q 1922 3584 2338 3584 
Q 2397 3584 2469 3576 
Q 2541 3569 2628 3553 
L 2631 2963 
z
" transform="scale(0.015625)"/>
     <path id="DejaVuSans-5b" d="M 550 4863 
L 1875 4863 
L 1875 4416 
L 1125 4416 
L 1125 -397 
L 1875 -397 
L 1875 -844 
L 550 -844 
L 550 4863 
z
" transform="scale(0.015625)"/>
     <path id="DejaVuSans-68" d="M 3513 2113 
L 3513 0 
L 2938 0 
L 2938 2094 
Q 2938 2591 2744 2837 
Q 2550 3084 2163 3084 
Q 1697 3084 1428 2787 
Q 1159 2491 1159 1978 
L 1159 0 
L 581 0 
L 581 4863 
L 1159 4863 
L 1159 2956 
Q 1366 3272 1645 3428 
Q 1925 3584 2291 3584 
Q 2894 3584 3203 3211 
Q 3513 2838 3513 2113 
z
" transform="scale(0.015625)"/>
     <path id="DejaVuSans-5d" d="M 1947 4863 
L 1947 -844 
L 622 -844 
L 622 -397 
L 1369 -397 
L 1369 4416 
L 622 4416 
L 622 4863 
L 1947 4863 
z
" transform="scale(0.015625)"/>
    </defs>
    <use xlink:href="#DejaVuSans-54"/>
    <use xlink:href="#DejaVuSans-69" x="57.958984"/>
    <use xlink:href="#DejaVuSans-6d" x="85.742188"/>
    <use xlink:href="#DejaVuSans-65" x="183.154297"/>
    <use xlink:href="#DejaVuSans-20" x="244.677734"/>
    <use xlink:href="#DejaVuSans-61" x="276.464844"/>
    <use xlink:href="#DejaVuSans-66" x="337.744141"/>
    <use xlink:href="#DejaVuSans-74" x="371.199219"/>
    <use xlink:href="#DejaVuSans-65" x="410.408203"/>
    <use xlink:href="#DejaVuSans-72" x="471.931641"/>
    <use xlink:href="#DejaVuSans-20" x="513.044922"/>
    <use xlink:href="#DejaVuSans-69" x="544.832031"/>
    <use xlink:href="#DejaVuSans-6e" x="572.615234"/>
    <use xlink:href="#DejaVuSans-6f" x="635.994141"/>
    <use xlink:href="#DejaVuSans-63" x="697.175781"/>
    <use xlink:href="#DejaVuSans-75" x="752.15625"/>
    <use xlink:href="#DejaVuSans-6c" x="815.535156"/>
    <use xlink:href="#DejaVuSans-61" x="843.318359"/>
    <use xlink:href="#DejaVuSans-74" x="904.597656"/>
    <use xlink:href="#DejaVuSans-69" x="943.806641"/>
    <use xlink:href="#DejaVuSans-6f" x="971.589844"/>
    <use xlink:href="#DejaVuSans-6e" x="1032.771484"/>
    <use xlink:href="#DejaVuSans-20" x="1096.150391"/>
    <use xlink:href="#DejaVuSans-5b" x="1127.9375"/>
    <use xlink:href="#DejaVuSans-68" x="1166.951172"/>
    <use xlink:href="#DejaVuSans-5d" x="1230.330078"/>
   </g>
  </g>
 </g>
 <defs>
  <clipPath id="pd2e929209f">
   <rect x="54.88" y="24.597656" width="206.173333" height="202.28"/>
  </clipPath>
  <clipPath id="p6562568ca5">
   <rect x="275.353333" y="24.597656" width="206.173333" height="202.28"/>
  </clipPath>
  <clipPath id="pb0ba02a163">
   <rect x="495.826667" y="24.597656" width="206.173333" height="202.28"/>
  </clipPath>
 </defs>
</svg>
