<?xml version="1.0" encoding="utf-8" standalone="no"?>
<!DOCTYPE svg PUBLIC "-//W3C//DTD SVG 1.1//EN"
  "http://www.w3.org/Graphics/SVG/1.1/DTD/svg11.dtd">
<svg xmlns:xlink="http://www.w3.org/1999/xlink" width="406.220375pt" height="421.499437pt" viewBox="0 0 406.220375 421.499437" xmlns="http://www.w3.org/2000/svg" version="1.1">
 <metadata>
  <rdf:RDF xmlns:dc="http://purl.org/dc/elements/1.1/" xmlns:cc="http://creativecommons.org/ns#" xmlns:rdf="http://www.w3.org/1999/02/22-rdf-syntax-ns#">
   <cc:Work>
    <dc:type rdf:resource="http://purl.org/dc/dcmitype/StillImage"/>
    <dc:date>2024-05-30T13:51:25.766584</dc:date>
    <dc:format>image/svg+xml</dc:format>
    <dc:creator>
     <cc:Agent>
      <dc:title>Matplotlib v3.7.2, https://matplotlib.org/</dc:title>
     </cc:Agent>
    </dc:creator>
   </cc:Work>
  </rdf:RDF>
 </metadata>
 <defs>
  <style type="text/css">*{stroke-linejoin: round; stroke-linecap: butt}</style>
 </defs>
 <g id="figure_1">
  <g id="patch_1">
   <path d="M 0 421.499437 
L 406.220375 421.499437 
L 406.220375 0 
L 0 0 
z
" style="fill: #ffffff"/>
  </g>
  <g id="axes_1">
   <g id="patch_2">
    <path d="M 45.746875 379.0735 
L 399.020375 379.0735 
L 399.020375 25.8 
L 45.746875 25.8 
z
" style="fill: #fffafa"/>
   </g>
   <g id="line2d_1">
    <path d="M 74.334637 200.300234 
L 65.65569 269.581643 
" clip-path="url(#p62f839a71c)" style="fill: none; stroke: #000000; stroke-linecap: square"/>
   </g>
   <g id="line2d_2">
    <path d="M 151.571726 210.079582 
L 129.488799 189.593652 
" clip-path="url(#p62f839a71c)" style="fill: none; stroke: #000000; stroke-linecap: square"/>
   </g>
   <g id="line2d_3">
    <path d="M 118.261714 247.233168 
L 132.408016 261.373995 
" clip-path="url(#p62f839a71c)" style="fill: none; stroke: #000000; stroke-linecap: square"/>
   </g>
   <g id="line2d_4">
    <path d="M 226.428849 148.517305 
L 149.000224 72.263767 
" clip-path="url(#p62f839a71c)" style="fill: none; stroke: #000000; stroke-linecap: square"/>
   </g>
   <g id="line2d_5">
    <path d="M 200.234636 185.826651 
L 219.61418 205.206195 
" clip-path="url(#p62f839a71c)" style="fill: none; stroke: #000000; stroke-linecap: square"/>
   </g>
   <g id="line2d_6">
    <path d="M 206.703827 180.278554 
L 225.622824 199.197551 
" clip-path="url(#p62f839a71c)" style="fill: none; stroke: #000000; stroke-linecap: square"/>
   </g>
   <g id="line2d_7">
    <path d="M 152.481734 236.225484 
L 170.538312 254.282063 
" clip-path="url(#p62f839a71c)" style="fill: none; stroke: #000000; stroke-linecap: square"/>
   </g>
   <g id="line2d_8">
    <path d="M 165.259048 224.131555 
L 182.973934 241.846441 
" clip-path="url(#p62f839a71c)" style="fill: none; stroke: #000000; stroke-linecap: square"/>
   </g>
   <g id="line2d_9">
    <path d="M 182.001623 225.817412 
L 190.502293 234.318082 
" clip-path="url(#p62f839a71c)" style="fill: none; stroke: #000000; stroke-linecap: square"/>
   </g>
   <g id="line2d_10">
    <path d="M 143.894593 270.272353 
L 149.221307 275.599068 
" clip-path="url(#p62f839a71c)" style="fill: none; stroke: #000000; stroke-linecap: square"/>
   </g>
   <g id="line2d_11">
    <path d="M 152.493254 262.716098 
L 157.298765 267.52161 
" clip-path="url(#p62f839a71c)" style="fill: none; stroke: #000000; stroke-linecap: square"/>
   </g>
   <g id="line2d_12">
    <path d="M 160.755534 256.221262 
L 164.677323 260.143052 
" clip-path="url(#p62f839a71c)" style="fill: none; stroke: #000000; stroke-linecap: square"/>
   </g>
   <g id="line2d_13">
    <path d="M 195.377759 227.249311 
L 196.474411 228.345964 
" clip-path="url(#p62f839a71c)" style="fill: none; stroke: #000000; stroke-linecap: square"/>
   </g>
   <g id="line2d_14">
    <path d="M 268.10026 156.181069 
L 268.369783 156.450592 
" clip-path="url(#p62f839a71c)" style="fill: none; stroke: #000000; stroke-linecap: square"/>
   </g>
   <g id="line2d_15">
    <path d="M 242.870808 181.435489 
L 243.127847 181.692528 
" clip-path="url(#p62f839a71c)" style="fill: none; stroke: #000000; stroke-linecap: square"/>
   </g>
   <g id="line2d_16">
    <path d="M 94.616563 285.374436 
L 117.031251 307.789124 
" clip-path="url(#p62f839a71c)" style="fill: none; stroke: #000000; stroke-linecap: square"/>
   </g>
   <g id="line2d_17">
    <path d="M 316.631497 74.979082 
L 333.236395 91.58398 
" clip-path="url(#p62f839a71c)" style="fill: none; stroke: #000000; stroke-linecap: square"/>
   </g>
   <g id="line2d_18">
    <path d="M 338.909433 57.370632 
L 353.179588 71.640787 
" clip-path="url(#p62f839a71c)" style="fill: none; stroke: #000000; stroke-linecap: square"/>
   </g>
   <g id="line2d_19">
    <path d="M 313.573004 84.919201 
L 326.737089 98.083286 
" clip-path="url(#p62f839a71c)" style="fill: none; stroke: #000000; stroke-linecap: square"/>
   </g>
   <g id="line2d_20">
    <path d="M 313.528865 92.976461 
L 322.686389 102.133986 
" clip-path="url(#p62f839a71c)" style="fill: none; stroke: #000000; stroke-linecap: square"/>
   </g>
   <g id="line2d_21">
    <path d="M 355.034905 63.995987 
L 357.929647 66.890728 
" clip-path="url(#p62f839a71c)" style="fill: none; stroke: #000000; stroke-linecap: square"/>
   </g>
   <g id="line2d_22">
    <path d="M 314.477666 108.738375 
L 315.279833 109.540542 
" clip-path="url(#p62f839a71c)" style="fill: none; stroke: #000000; stroke-linecap: square"/>
   </g>
   <g id="PathCollection_1">
    <defs>
     <path id="mfffa51766b" d="M 0 3 
C 0.795609 3 1.55874 2.683901 2.12132 2.12132 
C 2.683901 1.55874 3 0.795609 3 0 
C 3 -0.795609 2.683901 -1.55874 2.12132 -2.12132 
C 1.55874 -2.683901 0.795609 -3 0 -3 
C -0.795609 -3 -1.55874 -2.683901 -2.12132 -2.12132 
C -2.683901 -1.55874 -3 -0.795609 -3 0 
C -3 0.795609 -2.683901 1.55874 -2.12132 2.12132 
C -1.55874 2.683901 -0.795609 3 0 3 
z
" style="stroke: #1f77b4; stroke-opacity: 0"/>
    </defs>
    <g clip-path="url(#p62f839a71c)">
     <use xlink:href="#mfffa51766b" x="45.746875" y="379.0735" style="fill: #1f77b4; fill-opacity: 0; stroke: #1f77b4; stroke-opacity: 0"/>
     <use xlink:href="#mfffa51766b" x="399.020375" y="25.8" style="fill: #1f77b4; fill-opacity: 0; stroke: #1f77b4; stroke-opacity: 0"/>
    </g>
   </g>
   <g id="matplotlib.axis_1">
    <g id="xtick_1">
     <g id="line2d_23">
      <defs>
       <path id="m0fd62d4469" d="M 0 0 
L 0 3.5 
" style="stroke: #000000; stroke-width: 0.8"/>
      </defs>
      <g>
       <use xlink:href="#m0fd62d4469" x="45.746875" y="379.0735" style="stroke: #000000; stroke-width: 0.8"/>
      </g>
     </g>
     <g id="text_1">
      <!-- 0 -->
      <g transform="translate(42.2475 394.431781) scale(0.11 -0.11)">
       <defs>
        <path id="DejaVuSans-30" d="M 2034 4250 
Q 1547 4250 1301 3770 
Q 1056 3291 1056 2328 
Q 1056 1369 1301 889 
Q 1547 409 2034 409 
Q 2525 409 2770 889 
Q 3016 1369 3016 2328 
Q 3016 3291 2770 3770 
Q 2525 4250 2034 4250 
z
M 2034 4750 
Q 2819 4750 3233 4129 
Q 3647 3509 3647 2328 
Q 3647 1150 3233 529 
Q 2819 -91 2034 -91 
Q 1250 -91 836 529 
Q 422 1150 422 2328 
Q 422 3509 836 4129 
Q 1250 4750 2034 4750 
z
" transform="scale(0.015625)"/>
       </defs>
       <use xlink:href="#DejaVuSans-30"/>
      </g>
     </g>
    </g>
    <g id="xtick_2">
     <g id="line2d_24">
      <g>
       <use xlink:href="#m0fd62d4469" x="98.364594" y="379.0735" style="stroke: #000000; stroke-width: 0.8"/>
      </g>
     </g>
     <g id="text_2">
      <!-- 10 -->
      <g transform="translate(91.365844 394.431781) scale(0.11 -0.11)">
       <defs>
        <path id="DejaVuSans-31" d="M 794 531 
L 1825 531 
L 1825 4091 
L 703 3866 
L 703 4441 
L 1819 4666 
L 2450 4666 
L 2450 531 
L 3481 531 
L 3481 0 
L 794 0 
L 794 531 
z
" transform="scale(0.015625)"/>
       </defs>
       <use xlink:href="#DejaVuSans-31"/>
       <use xlink:href="#DejaVuSans-30" x="63.623047"/>
      </g>
     </g>
    </g>
    <g id="xtick_3">
     <g id="line2d_25">
      <g>
       <use xlink:href="#m0fd62d4469" x="150.982314" y="379.0735" style="stroke: #000000; stroke-width: 0.8"/>
      </g>
     </g>
     <g id="text_3">
      <!-- 20 -->
      <g transform="translate(143.983564 394.431781) scale(0.11 -0.11)">
       <defs>
        <path id="DejaVuSans-32" d="M 1228 531 
L 3431 531 
L 3431 0 
L 469 0 
L 469 531 
Q 828 903 1448 1529 
Q 2069 2156 2228 2338 
Q 2531 2678 2651 2914 
Q 2772 3150 2772 3378 
Q 2772 3750 2511 3984 
Q 2250 4219 1831 4219 
Q 1534 4219 1204 4116 
Q 875 4013 500 3803 
L 500 4441 
Q 881 4594 1212 4672 
Q 1544 4750 1819 4750 
Q 2544 4750 2975 4387 
Q 3406 4025 3406 3419 
Q 3406 3131 3298 2873 
Q 3191 2616 2906 2266 
Q 2828 2175 2409 1742 
Q 1991 1309 1228 531 
z
" transform="scale(0.015625)"/>
       </defs>
       <use xlink:href="#DejaVuSans-32"/>
       <use xlink:href="#DejaVuSans-30" x="63.623047"/>
      </g>
     </g>
    </g>
    <g id="xtick_4">
     <g id="line2d_26">
      <g>
       <use xlink:href="#m0fd62d4469" x="203.600033" y="379.0735" style="stroke: #000000; stroke-width: 0.8"/>
      </g>
     </g>
     <g id="text_4">
      <!-- 30 -->
      <g transform="translate(196.601283 394.431781) scale(0.11 -0.11)">
       <defs>
        <path id="DejaVuSans-33" d="M 2597 2516 
Q 3050 2419 3304 2112 
Q 3559 1806 3559 1356 
Q 3559 666 3084 287 
Q 2609 -91 1734 -91 
Q 1441 -91 1130 -33 
Q 819 25 488 141 
L 488 750 
Q 750 597 1062 519 
Q 1375 441 1716 441 
Q 2309 441 2620 675 
Q 2931 909 2931 1356 
Q 2931 1769 2642 2001 
Q 2353 2234 1838 2234 
L 1294 2234 
L 1294 2753 
L 1863 2753 
Q 2328 2753 2575 2939 
Q 2822 3125 2822 3475 
Q 2822 3834 2567 4026 
Q 2313 4219 1838 4219 
Q 1578 4219 1281 4162 
Q 984 4106 628 3988 
L 628 4550 
Q 988 4650 1302 4700 
Q 1616 4750 1894 4750 
Q 2613 4750 3031 4423 
Q 3450 4097 3450 3541 
Q 3450 3153 3228 2886 
Q 3006 2619 2597 2516 
z
" transform="scale(0.015625)"/>
       </defs>
       <use xlink:href="#DejaVuSans-33"/>
       <use xlink:href="#DejaVuSans-30" x="63.623047"/>
      </g>
     </g>
    </g>
    <g id="xtick_5">
     <g id="line2d_27">
      <g>
       <use xlink:href="#m0fd62d4469" x="256.217753" y="379.0735" style="stroke: #000000; stroke-width: 0.8"/>
      </g>
     </g>
     <g id="text_5">
      <!-- 40 -->
      <g transform="translate(249.219003 394.431781) scale(0.11 -0.11)">
       <defs>
        <path id="DejaVuSans-34" d="M 2419 4116 
L 825 1625 
L 2419 1625 
L 2419 4116 
z
M 2253 4666 
L 3047 4666 
L 3047 1625 
L 3713 1625 
L 3713 1100 
L 3047 1100 
L 3047 0 
L 2419 0 
L 2419 1100 
L 313 1100 
L 313 1709 
L 2253 4666 
z
" transform="scale(0.015625)"/>
       </defs>
       <use xlink:href="#DejaVuSans-34"/>
       <use xlink:href="#DejaVuSans-30" x="63.623047"/>
      </g>
     </g>
    </g>
    <g id="xtick_6">
     <g id="line2d_28">
      <g>
       <use xlink:href="#m0fd62d4469" x="308.835472" y="379.0735" style="stroke: #000000; stroke-width: 0.8"/>
      </g>
     </g>
     <g id="text_6">
      <!-- 50 -->
      <g transform="translate(301.836722 394.431781) scale(0.11 -0.11)">
       <defs>
        <path id="DejaVuSans-35" d="M 691 4666 
L 3169 4666 
L 3169 4134 
L 1269 4134 
L 1269 2991 
Q 1406 3038 1543 3061 
Q 1681 3084 1819 3084 
Q 2600 3084 3056 2656 
Q 3513 2228 3513 1497 
Q 3513 744 3044 326 
Q 2575 -91 1722 -91 
Q 1428 -91 1123 -41 
Q 819 9 494 109 
L 494 744 
Q 775 591 1075 516 
Q 1375 441 1709 441 
Q 2250 441 2565 725 
Q 2881 1009 2881 1497 
Q 2881 1984 2565 2268 
Q 2250 2553 1709 2553 
Q 1456 2553 1204 2497 
Q 953 2441 691 2322 
L 691 4666 
z
" transform="scale(0.015625)"/>
       </defs>
       <use xlink:href="#DejaVuSans-35"/>
       <use xlink:href="#DejaVuSans-30" x="63.623047"/>
      </g>
     </g>
    </g>
    <g id="xtick_7">
     <g id="line2d_29">
      <g>
       <use xlink:href="#m0fd62d4469" x="361.453191" y="379.0735" style="stroke: #000000; stroke-width: 0.8"/>
      </g>
     </g>
     <g id="text_7">
      <!-- 60 -->
      <g transform="translate(354.454441 394.431781) scale(0.11 -0.11)">
       <defs>
        <path id="DejaVuSans-36" d="M 2113 2584 
Q 1688 2584 1439 2293 
Q 1191 2003 1191 1497 
Q 1191 994 1439 701 
Q 1688 409 2113 409 
Q 2538 409 2786 701 
Q 3034 994 3034 1497 
Q 3034 2003 2786 2293 
Q 2538 2584 2113 2584 
z
M 3366 4563 
L 3366 3988 
Q 3128 4100 2886 4159 
Q 2644 4219 2406 4219 
Q 1781 4219 1451 3797 
Q 1122 3375 1075 2522 
Q 1259 2794 1537 2939 
Q 1816 3084 2150 3084 
Q 2853 3084 3261 2657 
Q 3669 2231 3669 1497 
Q 3669 778 3244 343 
Q 2819 -91 2113 -91 
Q 1303 -91 875 529 
Q 447 1150 447 2328 
Q 447 3434 972 4092 
Q 1497 4750 2381 4750 
Q 2619 4750 2861 4703 
Q 3103 4656 3366 4563 
z
" transform="scale(0.015625)"/>
       </defs>
       <use xlink:href="#DejaVuSans-36"/>
       <use xlink:href="#DejaVuSans-30" x="63.623047"/>
      </g>
     </g>
    </g>
    <g id="text_8">
     <!-- $H_0$ Birth (Suplevel, both normalized) -->
     <g transform="translate(95.473625 411.359438) scale(0.14 -0.14)">
      <defs>
       <path id="DejaVuSans-Oblique-48" d="M 1081 4666 
L 1716 4666 
L 1344 2753 
L 3634 2753 
L 4006 4666 
L 4641 4666 
L 3731 0 
L 3097 0 
L 3531 2222 
L 1241 2222 
L 806 0 
L 172 0 
L 1081 4666 
z
" transform="scale(0.015625)"/>
       <path id="DejaVuSans-20" transform="scale(0.015625)"/>
       <path id="DejaVuSans-42" d="M 1259 2228 
L 1259 519 
L 2272 519 
Q 2781 519 3026 730 
Q 3272 941 3272 1375 
Q 3272 1813 3026 2020 
Q 2781 2228 2272 2228 
L 1259 2228 
z
M 1259 4147 
L 1259 2741 
L 2194 2741 
Q 2656 2741 2882 2914 
Q 3109 3088 3109 3444 
Q 3109 3797 2882 3972 
Q 2656 4147 2194 4147 
L 1259 4147 
z
M 628 4666 
L 2241 4666 
Q 2963 4666 3353 4366 
Q 3744 4066 3744 3513 
Q 3744 3084 3544 2831 
Q 3344 2578 2956 2516 
Q 3422 2416 3680 2098 
Q 3938 1781 3938 1306 
Q 3938 681 3513 340 
Q 3088 0 2303 0 
L 628 0 
L 628 4666 
z
" transform="scale(0.015625)"/>
       <path id="DejaVuSans-69" d="M 603 3500 
L 1178 3500 
L 1178 0 
L 603 0 
L 603 3500 
z
M 603 4863 
L 1178 4863 
L 1178 4134 
L 603 4134 
L 603 4863 
z
" transform="scale(0.015625)"/>
       <path id="DejaVuSans-72" d="M 2631 2963 
Q 2534 3019 2420 3045 
Q 2306 3072 2169 3072 
Q 1681 3072 1420 2755 
Q 1159 2438 1159 1844 
L 1159 0 
L 581 0 
L 581 3500 
L 1159 3500 
L 1159 2956 
Q 1341 3275 1631 3429 
Q 1922 3584 2338 3584 
Q 2397 3584 2469 3576 
Q 2541 3569 2628 3553 
L 2631 2963 
z
" transform="scale(0.015625)"/>
       <path id="DejaVuSans-74" d="M 1172 4494 
L 1172 3500 
L 2356 3500 
L 2356 3053 
L 1172 3053 
L 1172 1153 
Q 1172 725 1289 603 
Q 1406 481 1766 481 
L 2356 481 
L 2356 0 
L 1766 0 
Q 1100 0 847 248 
Q 594 497 594 1153 
L 594 3053 
L 172 3053 
L 172 3500 
L 594 3500 
L 594 4494 
L 1172 4494 
z
" transform="scale(0.015625)"/>
       <path id="DejaVuSans-68" d="M 3513 2113 
L 3513 0 
L 2938 0 
L 2938 2094 
Q 2938 2591 2744 2837 
Q 2550 3084 2163 3084 
Q 1697 3084 1428 2787 
Q 1159 2491 1159 1978 
L 1159 0 
L 581 0 
L 581 4863 
L 1159 4863 
L 1159 2956 
Q 1366 3272 1645 3428 
Q 1925 3584 2291 3584 
Q 2894 3584 3203 3211 
Q 3513 2838 3513 2113 
z
" transform="scale(0.015625)"/>
       <path id="DejaVuSans-28" d="M 1984 4856 
Q 1566 4138 1362 3434 
Q 1159 2731 1159 2009 
Q 1159 1288 1364 580 
Q 1569 -128 1984 -844 
L 1484 -844 
Q 1016 -109 783 600 
Q 550 1309 550 2009 
Q 550 2706 781 3412 
Q 1013 4119 1484 4856 
L 1984 4856 
z
" transform="scale(0.015625)"/>
       <path id="DejaVuSans-53" d="M 3425 4513 
L 3425 3897 
Q 3066 4069 2747 4153 
Q 2428 4238 2131 4238 
Q 1616 4238 1336 4038 
Q 1056 3838 1056 3469 
Q 1056 3159 1242 3001 
Q 1428 2844 1947 2747 
L 2328 2669 
Q 3034 2534 3370 2195 
Q 3706 1856 3706 1288 
Q 3706 609 3251 259 
Q 2797 -91 1919 -91 
Q 1588 -91 1214 -16 
Q 841 59 441 206 
L 441 856 
Q 825 641 1194 531 
Q 1563 422 1919 422 
Q 2459 422 2753 634 
Q 3047 847 3047 1241 
Q 3047 1584 2836 1778 
Q 2625 1972 2144 2069 
L 1759 2144 
Q 1053 2284 737 2584 
Q 422 2884 422 3419 
Q 422 4038 858 4394 
Q 1294 4750 2059 4750 
Q 2388 4750 2728 4690 
Q 3069 4631 3425 4513 
z
" transform="scale(0.015625)"/>
       <path id="DejaVuSans-75" d="M 544 1381 
L 544 3500 
L 1119 3500 
L 1119 1403 
Q 1119 906 1312 657 
Q 1506 409 1894 409 
Q 2359 409 2629 706 
Q 2900 1003 2900 1516 
L 2900 3500 
L 3475 3500 
L 3475 0 
L 2900 0 
L 2900 538 
Q 2691 219 2414 64 
Q 2138 -91 1772 -91 
Q 1169 -91 856 284 
Q 544 659 544 1381 
z
M 1991 3584 
L 1991 3584 
z
" transform="scale(0.015625)"/>
       <path id="DejaVuSans-70" d="M 1159 525 
L 1159 -1331 
L 581 -1331 
L 581 3500 
L 1159 3500 
L 1159 2969 
Q 1341 3281 1617 3432 
Q 1894 3584 2278 3584 
Q 2916 3584 3314 3078 
Q 3713 2572 3713 1747 
Q 3713 922 3314 415 
Q 2916 -91 2278 -91 
Q 1894 -91 1617 61 
Q 1341 213 1159 525 
z
M 3116 1747 
Q 3116 2381 2855 2742 
Q 2594 3103 2138 3103 
Q 1681 3103 1420 2742 
Q 1159 2381 1159 1747 
Q 1159 1113 1420 752 
Q 1681 391 2138 391 
Q 2594 391 2855 752 
Q 3116 1113 3116 1747 
z
" transform="scale(0.015625)"/>
       <path id="DejaVuSans-6c" d="M 603 4863 
L 1178 4863 
L 1178 0 
L 603 0 
L 603 4863 
z
" transform="scale(0.015625)"/>
       <path id="DejaVuSans-65" d="M 3597 1894 
L 3597 1613 
L 953 1613 
Q 991 1019 1311 708 
Q 1631 397 2203 397 
Q 2534 397 2845 478 
Q 3156 559 3463 722 
L 3463 178 
Q 3153 47 2828 -22 
Q 2503 -91 2169 -91 
Q 1331 -91 842 396 
Q 353 884 353 1716 
Q 353 2575 817 3079 
Q 1281 3584 2069 3584 
Q 2775 3584 3186 3129 
Q 3597 2675 3597 1894 
z
M 3022 2063 
Q 3016 2534 2758 2815 
Q 2500 3097 2075 3097 
Q 1594 3097 1305 2825 
Q 1016 2553 972 2059 
L 3022 2063 
z
" transform="scale(0.015625)"/>
       <path id="DejaVuSans-76" d="M 191 3500 
L 800 3500 
L 1894 563 
L 2988 3500 
L 3597 3500 
L 2284 0 
L 1503 0 
L 191 3500 
z
" transform="scale(0.015625)"/>
       <path id="DejaVuSans-2c" d="M 750 794 
L 1409 794 
L 1409 256 
L 897 -744 
L 494 -744 
L 750 256 
L 750 794 
z
" transform="scale(0.015625)"/>
       <path id="DejaVuSans-62" d="M 3116 1747 
Q 3116 2381 2855 2742 
Q 2594 3103 2138 3103 
Q 1681 3103 1420 2742 
Q 1159 2381 1159 1747 
Q 1159 1113 1420 752 
Q 1681 391 2138 391 
Q 2594 391 2855 752 
Q 3116 1113 3116 1747 
z
M 1159 2969 
Q 1341 3281 1617 3432 
Q 1894 3584 2278 3584 
Q 2916 3584 3314 3078 
Q 3713 2572 3713 1747 
Q 3713 922 3314 415 
Q 2916 -91 2278 -91 
Q 1894 -91 1617 61 
Q 1341 213 1159 525 
L 1159 0 
L 581 0 
L 581 4863 
L 1159 4863 
L 1159 2969 
z
" transform="scale(0.015625)"/>
       <path id="DejaVuSans-6f" d="M 1959 3097 
Q 1497 3097 1228 2736 
Q 959 2375 959 1747 
Q 959 1119 1226 758 
Q 1494 397 1959 397 
Q 2419 397 2687 759 
Q 2956 1122 2956 1747 
Q 2956 2369 2687 2733 
Q 2419 3097 1959 3097 
z
M 1959 3584 
Q 2709 3584 3137 3096 
Q 3566 2609 3566 1747 
Q 3566 888 3137 398 
Q 2709 -91 1959 -91 
Q 1206 -91 779 398 
Q 353 888 353 1747 
Q 353 2609 779 3096 
Q 1206 3584 1959 3584 
z
" transform="scale(0.015625)"/>
       <path id="DejaVuSans-6e" d="M 3513 2113 
L 3513 0 
L 2938 0 
L 2938 2094 
Q 2938 2591 2744 2837 
Q 2550 3084 2163 3084 
Q 1697 3084 1428 2787 
Q 1159 2491 1159 1978 
L 1159 0 
L 581 0 
L 581 3500 
L 1159 3500 
L 1159 2956 
Q 1366 3272 1645 3428 
Q 1925 3584 2291 3584 
Q 2894 3584 3203 3211 
Q 3513 2838 3513 2113 
z
" transform="scale(0.015625)"/>
       <path id="DejaVuSans-6d" d="M 3328 2828 
Q 3544 3216 3844 3400 
Q 4144 3584 4550 3584 
Q 5097 3584 5394 3201 
Q 5691 2819 5691 2113 
L 5691 0 
L 5113 0 
L 5113 2094 
Q 5113 2597 4934 2840 
Q 4756 3084 4391 3084 
Q 3944 3084 3684 2787 
Q 3425 2491 3425 1978 
L 3425 0 
L 2847 0 
L 2847 2094 
Q 2847 2600 2669 2842 
Q 2491 3084 2119 3084 
Q 1678 3084 1418 2786 
Q 1159 2488 1159 1978 
L 1159 0 
L 581 0 
L 581 3500 
L 1159 3500 
L 1159 2956 
Q 1356 3278 1631 3431 
Q 1906 3584 2284 3584 
Q 2666 3584 2933 3390 
Q 3200 3197 3328 2828 
z
" transform="scale(0.015625)"/>
       <path id="DejaVuSans-61" d="M 2194 1759 
Q 1497 1759 1228 1600 
Q 959 1441 959 1056 
Q 959 750 1161 570 
Q 1363 391 1709 391 
Q 2188 391 2477 730 
Q 2766 1069 2766 1631 
L 2766 1759 
L 2194 1759 
z
M 3341 1997 
L 3341 0 
L 2766 0 
L 2766 531 
Q 2569 213 2275 61 
Q 1981 -91 1556 -91 
Q 1019 -91 701 211 
Q 384 513 384 1019 
Q 384 1609 779 1909 
Q 1175 2209 1959 2209 
L 2766 2209 
L 2766 2266 
Q 2766 2663 2505 2880 
Q 2244 3097 1772 3097 
Q 1472 3097 1187 3025 
Q 903 2953 641 2809 
L 641 3341 
Q 956 3463 1253 3523 
Q 1550 3584 1831 3584 
Q 2591 3584 2966 3190 
Q 3341 2797 3341 1997 
z
" transform="scale(0.015625)"/>
       <path id="DejaVuSans-7a" d="M 353 3500 
L 3084 3500 
L 3084 2975 
L 922 459 
L 3084 459 
L 3084 0 
L 275 0 
L 275 525 
L 2438 3041 
L 353 3041 
L 353 3500 
z
" transform="scale(0.015625)"/>
       <path id="DejaVuSans-64" d="M 2906 2969 
L 2906 4863 
L 3481 4863 
L 3481 0 
L 2906 0 
L 2906 525 
Q 2725 213 2448 61 
Q 2172 -91 1784 -91 
Q 1150 -91 751 415 
Q 353 922 353 1747 
Q 353 2572 751 3078 
Q 1150 3584 1784 3584 
Q 2172 3584 2448 3432 
Q 2725 3281 2906 2969 
z
M 947 1747 
Q 947 1113 1208 752 
Q 1469 391 1925 391 
Q 2381 391 2643 752 
Q 2906 1113 2906 1747 
Q 2906 2381 2643 2742 
Q 2381 3103 1925 3103 
Q 1469 3103 1208 2742 
Q 947 2381 947 1747 
z
" transform="scale(0.015625)"/>
       <path id="DejaVuSans-29" d="M 513 4856 
L 1013 4856 
Q 1481 4119 1714 3412 
Q 1947 2706 1947 2009 
Q 1947 1309 1714 600 
Q 1481 -109 1013 -844 
L 513 -844 
Q 928 -128 1133 580 
Q 1338 1288 1338 2009 
Q 1338 2731 1133 3434 
Q 928 4138 513 4856 
z
" transform="scale(0.015625)"/>
      </defs>
      <use xlink:href="#DejaVuSans-Oblique-48" transform="translate(0 0.015625)"/>
      <use xlink:href="#DejaVuSans-30" transform="translate(75.195312 -16.390625) scale(0.7)"/>
      <use xlink:href="#DejaVuSans-20" transform="translate(122.46582 0.015625)"/>
      <use xlink:href="#DejaVuSans-42" transform="translate(154.25293 0.015625)"/>
      <use xlink:href="#DejaVuSans-69" transform="translate(222.856445 0.015625)"/>
      <use xlink:href="#DejaVuSans-72" transform="translate(250.639648 0.015625)"/>
      <use xlink:href="#DejaVuSans-74" transform="translate(291.75293 0.015625)"/>
      <use xlink:href="#DejaVuSans-68" transform="translate(330.961914 0.015625)"/>
      <use xlink:href="#DejaVuSans-20" transform="translate(394.34082 0.015625)"/>
      <use xlink:href="#DejaVuSans-28" transform="translate(426.12793 0.015625)"/>
      <use xlink:href="#DejaVuSans-53" transform="translate(465.141602 0.015625)"/>
      <use xlink:href="#DejaVuSans-75" transform="translate(528.618164 0.015625)"/>
      <use xlink:href="#DejaVuSans-70" transform="translate(591.99707 0.015625)"/>
      <use xlink:href="#DejaVuSans-6c" transform="translate(655.473633 0.015625)"/>
      <use xlink:href="#DejaVuSans-65" transform="translate(683.256836 0.015625)"/>
      <use xlink:href="#DejaVuSans-76" transform="translate(744.780273 0.015625)"/>
      <use xlink:href="#DejaVuSans-65" transform="translate(803.959961 0.015625)"/>
      <use xlink:href="#DejaVuSans-6c" transform="translate(865.483398 0.015625)"/>
      <use xlink:href="#DejaVuSans-2c" transform="translate(893.266602 0.015625)"/>
      <use xlink:href="#DejaVuSans-20" transform="translate(925.053711 0.015625)"/>
      <use xlink:href="#DejaVuSans-62" transform="translate(956.84082 0.015625)"/>
      <use xlink:href="#DejaVuSans-6f" transform="translate(1020.317383 0.015625)"/>
      <use xlink:href="#DejaVuSans-74" transform="translate(1081.499023 0.015625)"/>
      <use xlink:href="#DejaVuSans-68" transform="translate(1120.708008 0.015625)"/>
      <use xlink:href="#DejaVuSans-20" transform="translate(1184.086914 0.015625)"/>
      <use xlink:href="#DejaVuSans-6e" transform="translate(1215.874023 0.015625)"/>
      <use xlink:href="#DejaVuSans-6f" transform="translate(1279.25293 0.015625)"/>
      <use xlink:href="#DejaVuSans-72" transform="translate(1340.43457 0.015625)"/>
      <use xlink:href="#DejaVuSans-6d" transform="translate(1381.547852 0.015625)"/>
      <use xlink:href="#DejaVuSans-61" transform="translate(1478.959961 0.015625)"/>
      <use xlink:href="#DejaVuSans-6c" transform="translate(1540.239258 0.015625)"/>
      <use xlink:href="#DejaVuSans-69" transform="translate(1568.022461 0.015625)"/>
      <use xlink:href="#DejaVuSans-7a" transform="translate(1595.805664 0.015625)"/>
      <use xlink:href="#DejaVuSans-65" transform="translate(1648.295898 0.015625)"/>
      <use xlink:href="#DejaVuSans-64" transform="translate(1709.819336 0.015625)"/>
      <use xlink:href="#DejaVuSans-29" transform="translate(1773.295898 0.015625)"/>
     </g>
    </g>
   </g>
   <g id="matplotlib.axis_2">
    <g id="ytick_1">
     <g id="line2d_30">
      <defs>
       <path id="md651056ca9" d="M 0 0 
L -3.5 0 
" style="stroke: #000000; stroke-width: 0.8"/>
      </defs>
      <g>
       <use xlink:href="#md651056ca9" x="45.746875" y="379.0735" style="stroke: #000000; stroke-width: 0.8"/>
      </g>
     </g>
     <g id="text_9">
      <!-- 0 -->
      <g transform="translate(31.748125 383.252641) scale(0.11 -0.11)">
       <use xlink:href="#DejaVuSans-30"/>
      </g>
     </g>
    </g>
    <g id="ytick_2">
     <g id="line2d_31">
      <g>
       <use xlink:href="#md651056ca9" x="45.746875" y="326.455781" style="stroke: #000000; stroke-width: 0.8"/>
      </g>
     </g>
     <g id="text_10">
      <!-- 10 -->
      <g transform="translate(24.749375 330.634921) scale(0.11 -0.11)">
       <use xlink:href="#DejaVuSans-31"/>
       <use xlink:href="#DejaVuSans-30" x="63.623047"/>
      </g>
     </g>
    </g>
    <g id="ytick_3">
     <g id="line2d_32">
      <g>
       <use xlink:href="#md651056ca9" x="45.746875" y="273.838061" style="stroke: #000000; stroke-width: 0.8"/>
      </g>
     </g>
     <g id="text_11">
      <!-- 20 -->
      <g transform="translate(24.749375 278.017202) scale(0.11 -0.11)">
       <use xlink:href="#DejaVuSans-32"/>
       <use xlink:href="#DejaVuSans-30" x="63.623047"/>
      </g>
     </g>
    </g>
    <g id="ytick_4">
     <g id="line2d_33">
      <g>
       <use xlink:href="#md651056ca9" x="45.746875" y="221.220342" style="stroke: #000000; stroke-width: 0.8"/>
      </g>
     </g>
     <g id="text_12">
      <!-- 30 -->
      <g transform="translate(24.749375 225.399482) scale(0.11 -0.11)">
       <use xlink:href="#DejaVuSans-33"/>
       <use xlink:href="#DejaVuSans-30" x="63.623047"/>
      </g>
     </g>
    </g>
    <g id="ytick_5">
     <g id="line2d_34">
      <g>
       <use xlink:href="#md651056ca9" x="45.746875" y="168.602622" style="stroke: #000000; stroke-width: 0.8"/>
      </g>
     </g>
     <g id="text_13">
      <!-- 40 -->
      <g transform="translate(24.749375 172.781763) scale(0.11 -0.11)">
       <use xlink:href="#DejaVuSans-34"/>
       <use xlink:href="#DejaVuSans-30" x="63.623047"/>
      </g>
     </g>
    </g>
    <g id="ytick_6">
     <g id="line2d_35">
      <g>
       <use xlink:href="#md651056ca9" x="45.746875" y="115.984903" style="stroke: #000000; stroke-width: 0.8"/>
      </g>
     </g>
     <g id="text_14">
      <!-- 50 -->
      <g transform="translate(24.749375 120.164044) scale(0.11 -0.11)">
       <use xlink:href="#DejaVuSans-35"/>
       <use xlink:href="#DejaVuSans-30" x="63.623047"/>
      </g>
     </g>
    </g>
    <g id="ytick_7">
     <g id="line2d_36">
      <g>
       <use xlink:href="#md651056ca9" x="45.746875" y="63.367184" style="stroke: #000000; stroke-width: 0.8"/>
      </g>
     </g>
     <g id="text_15">
      <!-- 60 -->
      <g transform="translate(24.749375 67.546324) scale(0.11 -0.11)">
       <use xlink:href="#DejaVuSans-36"/>
       <use xlink:href="#DejaVuSans-30" x="63.623047"/>
      </g>
     </g>
    </g>
    <g id="text_16">
     <!-- $H_0$ Death -->
     <g transform="translate(17.837813 234.42675) rotate(-90) scale(0.14 -0.14)">
      <defs>
       <path id="DejaVuSans-44" d="M 1259 4147 
L 1259 519 
L 2022 519 
Q 2988 519 3436 956 
Q 3884 1394 3884 2338 
Q 3884 3275 3436 3711 
Q 2988 4147 2022 4147 
L 1259 4147 
z
M 628 4666 
L 1925 4666 
Q 3281 4666 3915 4102 
Q 4550 3538 4550 2338 
Q 4550 1131 3912 565 
Q 3275 0 1925 0 
L 628 0 
L 628 4666 
z
" transform="scale(0.015625)"/>
      </defs>
      <use xlink:href="#DejaVuSans-Oblique-48" transform="translate(0 0.015625)"/>
      <use xlink:href="#DejaVuSans-30" transform="translate(75.195312 -16.390625) scale(0.7)"/>
      <use xlink:href="#DejaVuSans-20" transform="translate(122.46582 0.015625)"/>
      <use xlink:href="#DejaVuSans-44" transform="translate(154.25293 0.015625)"/>
      <use xlink:href="#DejaVuSans-65" transform="translate(231.254883 0.015625)"/>
      <use xlink:href="#DejaVuSans-61" transform="translate(292.77832 0.015625)"/>
      <use xlink:href="#DejaVuSans-74" transform="translate(354.057617 0.015625)"/>
      <use xlink:href="#DejaVuSans-68" transform="translate(393.266602 0.015625)"/>
     </g>
    </g>
   </g>
   <g id="patch_3">
    <path d="M 45.746875 379.0735 
L 45.746875 25.8 
" style="fill: none; stroke: #000000; stroke-width: 0.8; stroke-linejoin: miter; stroke-linecap: square"/>
   </g>
   <g id="patch_4">
    <path d="M 399.020375 379.0735 
L 399.020375 25.8 
" style="fill: none; stroke: #000000; stroke-width: 0.8; stroke-linejoin: miter; stroke-linecap: square"/>
   </g>
   <g id="patch_5">
    <path d="M 45.746875 379.0735 
L 399.020375 379.0735 
" style="fill: none; stroke: #000000; stroke-width: 0.8; stroke-linejoin: miter; stroke-linecap: square"/>
   </g>
   <g id="patch_6">
    <path d="M 45.746875 25.8 
L 399.020375 25.8 
" style="fill: none; stroke: #000000; stroke-width: 0.8; stroke-linejoin: miter; stroke-linecap: square"/>
   </g>
   <g id="line2d_37">
    <path d="M 45.746875 379.0735 
L 399.020375 25.8 
" clip-path="url(#p62f839a71c)" style="fill: none; stroke: #000000; stroke-width: 3; stroke-linecap: square"/>
   </g>
   <g id="text_17">
    <!-- $W_\infty^1$(17G195900 , 05G092200) = 68.1 -->
    <g transform="translate(91.483625 19.8) scale(0.14 -0.14)">
     <defs>
      <path id="DejaVuSans-Oblique-57" d="M 616 4666 
L 1228 4666 
L 1453 697 
L 3213 4666 
L 3916 4666 
L 4147 697 
L 5888 4666 
L 6528 4666 
L 4453 0 
L 3659 0 
L 3444 3891 
L 1697 0 
L 903 0 
L 616 4666 
z
" transform="scale(0.015625)"/>
      <path id="DejaVuSans-221e" d="M 2916 1091 
Q 2819 1203 2666 1466 
Q 2456 1091 2272 925 
Q 2041 725 1681 725 
Q 1259 725 981 1041 
Q 688 1372 688 1919 
Q 688 2444 981 2800 
Q 1244 3116 1688 3116 
Q 1916 3116 2084 3022 
Q 2281 2919 2416 2741 
Q 2541 2581 2666 2366 
Q 2875 2741 3059 2906 
Q 3291 3106 3650 3106 
Q 4072 3106 4350 2791 
Q 4644 2459 4644 1913 
Q 4644 1388 4350 1031 
Q 4088 716 3644 716 
Q 3416 716 3247 809 
Q 3078 894 2916 1091 
z
M 1647 1134 
Q 2163 1134 2472 1884 
Q 2075 2703 1647 2703 
Q 1334 2703 1175 2478 
Q 1003 2238 1003 1919 
Q 1003 1569 1175 1353 
Q 1350 1134 1647 1134 
z
M 3684 2697 
Q 3219 2697 2859 1947 
Q 3253 1128 3684 1128 
Q 3997 1128 4156 1353 
Q 4328 1594 4328 1913 
Q 4328 2263 4156 2478 
Q 3981 2697 3684 2697 
z
" transform="scale(0.015625)"/>
      <path id="DejaVuSans-37" d="M 525 4666 
L 3525 4666 
L 3525 4397 
L 1831 0 
L 1172 0 
L 2766 4134 
L 525 4134 
L 525 4666 
z
" transform="scale(0.015625)"/>
      <path id="DejaVuSans-47" d="M 3809 666 
L 3809 1919 
L 2778 1919 
L 2778 2438 
L 4434 2438 
L 4434 434 
Q 4069 175 3628 42 
Q 3188 -91 2688 -91 
Q 1594 -91 976 548 
Q 359 1188 359 2328 
Q 359 3472 976 4111 
Q 1594 4750 2688 4750 
Q 3144 4750 3555 4637 
Q 3966 4525 4313 4306 
L 4313 3634 
Q 3963 3931 3569 4081 
Q 3175 4231 2741 4231 
Q 1884 4231 1454 3753 
Q 1025 3275 1025 2328 
Q 1025 1384 1454 906 
Q 1884 428 2741 428 
Q 3075 428 3337 486 
Q 3600 544 3809 666 
z
" transform="scale(0.015625)"/>
      <path id="DejaVuSans-39" d="M 703 97 
L 703 672 
Q 941 559 1184 500 
Q 1428 441 1663 441 
Q 2288 441 2617 861 
Q 2947 1281 2994 2138 
Q 2813 1869 2534 1725 
Q 2256 1581 1919 1581 
Q 1219 1581 811 2004 
Q 403 2428 403 3163 
Q 403 3881 828 4315 
Q 1253 4750 1959 4750 
Q 2769 4750 3195 4129 
Q 3622 3509 3622 2328 
Q 3622 1225 3098 567 
Q 2575 -91 1691 -91 
Q 1453 -91 1209 -44 
Q 966 3 703 97 
z
M 1959 2075 
Q 2384 2075 2632 2365 
Q 2881 2656 2881 3163 
Q 2881 3666 2632 3958 
Q 2384 4250 1959 4250 
Q 1534 4250 1286 3958 
Q 1038 3666 1038 3163 
Q 1038 2656 1286 2365 
Q 1534 2075 1959 2075 
z
" transform="scale(0.015625)"/>
      <path id="DejaVuSans-3d" d="M 678 2906 
L 4684 2906 
L 4684 2381 
L 678 2381 
L 678 2906 
z
M 678 1631 
L 4684 1631 
L 4684 1100 
L 678 1100 
L 678 1631 
z
" transform="scale(0.015625)"/>
      <path id="DejaVuSans-38" d="M 2034 2216 
Q 1584 2216 1326 1975 
Q 1069 1734 1069 1313 
Q 1069 891 1326 650 
Q 1584 409 2034 409 
Q 2484 409 2743 651 
Q 3003 894 3003 1313 
Q 3003 1734 2745 1975 
Q 2488 2216 2034 2216 
z
M 1403 2484 
Q 997 2584 770 2862 
Q 544 3141 544 3541 
Q 544 4100 942 4425 
Q 1341 4750 2034 4750 
Q 2731 4750 3128 4425 
Q 3525 4100 3525 3541 
Q 3525 3141 3298 2862 
Q 3072 2584 2669 2484 
Q 3125 2378 3379 2068 
Q 3634 1759 3634 1313 
Q 3634 634 3220 271 
Q 2806 -91 2034 -91 
Q 1263 -91 848 271 
Q 434 634 434 1313 
Q 434 1759 690 2068 
Q 947 2378 1403 2484 
z
M 1172 3481 
Q 1172 3119 1398 2916 
Q 1625 2713 2034 2713 
Q 2441 2713 2670 2916 
Q 2900 3119 2900 3481 
Q 2900 3844 2670 4047 
Q 2441 4250 2034 4250 
Q 1625 4250 1398 4047 
Q 1172 3844 1172 3481 
z
" transform="scale(0.015625)"/>
      <path id="DejaVuSans-2e" d="M 684 794 
L 1344 794 
L 1344 0 
L 684 0 
L 684 794 
z
" transform="scale(0.015625)"/>
     </defs>
     <use xlink:href="#DejaVuSans-Oblique-57" transform="translate(0 0.684375)"/>
     <use xlink:href="#DejaVuSans-31" transform="translate(105.893724 38.965625) scale(0.7)"/>
     <use xlink:href="#DejaVuSans-221e" transform="translate(98.876953 -26.659375) scale(0.7)"/>
     <use xlink:href="#DejaVuSans-28" transform="translate(159.921875 0.684375)"/>
     <use xlink:href="#DejaVuSans-31" transform="translate(198.935547 0.684375)"/>
     <use xlink:href="#DejaVuSans-37" transform="translate(262.558594 0.684375)"/>
     <use xlink:href="#DejaVuSans-47" transform="translate(326.181641 0.684375)"/>
     <use xlink:href="#DejaVuSans-31" transform="translate(403.671875 0.684375)"/>
     <use xlink:href="#DejaVuSans-39" transform="translate(467.294922 0.684375)"/>
     <use xlink:href="#DejaVuSans-35" transform="translate(530.917969 0.684375)"/>
     <use xlink:href="#DejaVuSans-39" transform="translate(589.041016 0.684375)"/>
     <use xlink:href="#DejaVuSans-30" transform="translate(652.664062 0.684375)"/>
     <use xlink:href="#DejaVuSans-30" transform="translate(716.287109 0.684375)"/>
     <use xlink:href="#DejaVuSans-20" transform="translate(779.910156 0.684375)"/>
     <use xlink:href="#DejaVuSans-2c" transform="translate(811.697266 0.684375)"/>
     <use xlink:href="#DejaVuSans-20" transform="translate(843.484375 0.684375)"/>
     <use xlink:href="#DejaVuSans-30" transform="translate(875.271484 0.684375)"/>
     <use xlink:href="#DejaVuSans-35" transform="translate(938.894531 0.684375)"/>
     <use xlink:href="#DejaVuSans-47" transform="translate(1002.517578 0.684375)"/>
     <use xlink:href="#DejaVuSans-30" transform="translate(1080.007812 0.684375)"/>
     <use xlink:href="#DejaVuSans-39" transform="translate(1143.630859 0.684375)"/>
     <use xlink:href="#DejaVuSans-32" transform="translate(1205.503906 0.684375)"/>
     <use xlink:href="#DejaVuSans-32" transform="translate(1269.126953 0.684375)"/>
     <use xlink:href="#DejaVuSans-30" transform="translate(1332.75 0.684375)"/>
     <use xlink:href="#DejaVuSans-30" transform="translate(1396.373047 0.684375)"/>
     <use xlink:href="#DejaVuSans-29" transform="translate(1459.996094 0.684375)"/>
     <use xlink:href="#DejaVuSans-20" transform="translate(1499.009766 0.684375)"/>
     <use xlink:href="#DejaVuSans-3d" transform="translate(1530.796875 0.684375)"/>
     <use xlink:href="#DejaVuSans-20" transform="translate(1614.585938 0.684375)"/>
     <use xlink:href="#DejaVuSans-36" transform="translate(1646.373047 0.684375)"/>
     <use xlink:href="#DejaVuSans-38" transform="translate(1709.996094 0.684375)"/>
     <use xlink:href="#DejaVuSans-2e" transform="translate(1773.619141 0.684375)"/>
     <use xlink:href="#DejaVuSans-31" transform="translate(1805.40625 0.684375)"/>
    </g>
   </g>
   <g id="PathCollection_2">
    <defs>
     <path id="m585e641af9" d="M -0 5.477226 
L 5.477226 0 
L 0 -5.477226 
L -5.477226 -0 
z
" style="stroke: #000000"/>
    </defs>
    <g clip-path="url(#p62f839a71c)">
     <use xlink:href="#m585e641af9" x="74.334637" y="200.300234" style="fill: #e0e0e0; stroke: #000000"/>
     <use xlink:href="#m585e641af9" x="151.571726" y="210.079582" style="fill: #e0e0e0; stroke: #000000"/>
     <use xlink:href="#m585e641af9" x="118.261714" y="247.233168" style="fill: #e0e0e0; stroke: #000000"/>
     <use xlink:href="#m585e641af9" x="226.428849" y="148.517305" style="fill: #e0e0e0; stroke: #000000"/>
     <use xlink:href="#m585e641af9" x="200.234636" y="185.826651" style="fill: #e0e0e0; stroke: #000000"/>
     <use xlink:href="#m585e641af9" x="206.703827" y="180.278554" style="fill: #e0e0e0; stroke: #000000"/>
     <use xlink:href="#m585e641af9" x="152.481734" y="236.225484" style="fill: #e0e0e0; stroke: #000000"/>
     <use xlink:href="#m585e641af9" x="165.259048" y="224.131555" style="fill: #e0e0e0; stroke: #000000"/>
     <use xlink:href="#m585e641af9" x="182.001623" y="225.817412" style="fill: #e0e0e0; stroke: #000000"/>
     <use xlink:href="#m585e641af9" x="143.894593" y="270.272353" style="fill: #e0e0e0; stroke: #000000"/>
     <use xlink:href="#m585e641af9" x="152.493254" y="262.716098" style="fill: #e0e0e0; stroke: #000000"/>
     <use xlink:href="#m585e641af9" x="160.755534" y="256.221262" style="fill: #e0e0e0; stroke: #000000"/>
     <use xlink:href="#m585e641af9" x="195.377759" y="227.249311" style="fill: #e0e0e0; stroke: #000000"/>
     <use xlink:href="#m585e641af9" x="268.10026" y="156.181069" style="fill: #e0e0e0; stroke: #000000"/>
     <use xlink:href="#m585e641af9" x="242.870808" y="181.435489" style="fill: #e0e0e0; stroke: #000000"/>
    </g>
   </g>
   <g id="PathCollection_3">
    <defs>
     <path id="m7607943545" d="M -1.482127 -3.57817 
L -3.57817 -1.482127 
L -3.57817 1.482127 
L -1.482127 3.57817 
L 1.482127 3.57817 
L 3.57817 1.482127 
L 3.57817 -1.482127 
L 1.482127 -3.57817 
z
" style="stroke: #000000"/>
    </defs>
    <g clip-path="url(#p62f839a71c)">
     <use xlink:href="#m7607943545" x="70.879365" y="311.750644" style="fill: #56b4e9; stroke: #000000"/>
     <use xlink:href="#m7607943545" x="62.34041" y="320.950922" style="fill: #56b4e9; stroke: #000000"/>
     <use xlink:href="#m7607943545" x="75.399972" y="314.776176" style="fill: #56b4e9; stroke: #000000"/>
     <use xlink:href="#m7607943545" x="79.087098" y="312.2267" style="fill: #56b4e9; stroke: #000000"/>
    </g>
   </g>
   <g id="legend_1">
    <g id="patch_7">
     <path d="M 235.556 373.0735 
L 390.620375 373.0735 
Q 393.020375 373.0735 393.020375 370.6735 
L 393.020375 244.639125 
Q 393.020375 242.239125 390.620375 242.239125 
L 235.556 242.239125 
Q 233.156 242.239125 233.156 244.639125 
L 233.156 370.6735 
Q 233.156 373.0735 235.556 373.0735 
z
" style="fill: #ffffff; opacity: 0.8; stroke: #cccccc; stroke-linejoin: miter"/>
    </g>
    <g id="text_18">
     <!-- Cell ID: 1692 -->
     <g transform="translate(267.926156 257.676938) scale(0.14 -0.14)">
      <defs>
       <path id="DejaVuSans-43" d="M 4122 4306 
L 4122 3641 
Q 3803 3938 3442 4084 
Q 3081 4231 2675 4231 
Q 1875 4231 1450 3742 
Q 1025 3253 1025 2328 
Q 1025 1406 1450 917 
Q 1875 428 2675 428 
Q 3081 428 3442 575 
Q 3803 722 4122 1019 
L 4122 359 
Q 3791 134 3420 21 
Q 3050 -91 2638 -91 
Q 1578 -91 968 557 
Q 359 1206 359 2328 
Q 359 3453 968 4101 
Q 1578 4750 2638 4750 
Q 3056 4750 3426 4639 
Q 3797 4528 4122 4306 
z
" transform="scale(0.015625)"/>
       <path id="DejaVuSans-49" d="M 628 4666 
L 1259 4666 
L 1259 0 
L 628 0 
L 628 4666 
z
" transform="scale(0.015625)"/>
       <path id="DejaVuSans-3a" d="M 750 794 
L 1409 794 
L 1409 0 
L 750 0 
L 750 794 
z
M 750 3309 
L 1409 3309 
L 1409 2516 
L 750 2516 
L 750 3309 
z
" transform="scale(0.015625)"/>
      </defs>
      <use xlink:href="#DejaVuSans-43"/>
      <use xlink:href="#DejaVuSans-65" x="69.824219"/>
      <use xlink:href="#DejaVuSans-6c" x="131.347656"/>
      <use xlink:href="#DejaVuSans-6c" x="159.130859"/>
      <use xlink:href="#DejaVuSans-20" x="186.914062"/>
      <use xlink:href="#DejaVuSans-49" x="218.701172"/>
      <use xlink:href="#DejaVuSans-44" x="248.193359"/>
      <use xlink:href="#DejaVuSans-3a" x="325.195312"/>
      <use xlink:href="#DejaVuSans-20" x="358.886719"/>
      <use xlink:href="#DejaVuSans-31" x="390.673828"/>
      <use xlink:href="#DejaVuSans-36" x="454.296875"/>
      <use xlink:href="#DejaVuSans-39" x="517.919922"/>
      <use xlink:href="#DejaVuSans-32" x="581.542969"/>
     </g>
    </g>
    <g id="line2d_38">
     <defs>
      <path id="ma6990f161f" d="M -0 4.949747 
L 4.949747 0 
L 0 -4.949747 
L -4.949747 -0 
z
" style="stroke: #000000; stroke-linejoin: miter"/>
     </defs>
     <g>
      <use xlink:href="#ma6990f161f" x="249.956" y="271.506625" style="fill: #e0e0e0; stroke: #000000; stroke-linejoin: miter"/>
     </g>
    </g>
    <g id="text_19">
     <!-- GLYMA_17G195900 -->
     <g transform="translate(271.556 275.706625) scale(0.12 -0.12)">
      <defs>
       <path id="DejaVuSans-4c" d="M 628 4666 
L 1259 4666 
L 1259 531 
L 3531 531 
L 3531 0 
L 628 0 
L 628 4666 
z
" transform="scale(0.015625)"/>
       <path id="DejaVuSans-59" d="M -13 4666 
L 666 4666 
L 1959 2747 
L 3244 4666 
L 3922 4666 
L 2272 2222 
L 2272 0 
L 1638 0 
L 1638 2222 
L -13 4666 
z
" transform="scale(0.015625)"/>
       <path id="DejaVuSans-4d" d="M 628 4666 
L 1569 4666 
L 2759 1491 
L 3956 4666 
L 4897 4666 
L 4897 0 
L 4281 0 
L 4281 4097 
L 3078 897 
L 2444 897 
L 1241 4097 
L 1241 0 
L 628 0 
L 628 4666 
z
" transform="scale(0.015625)"/>
       <path id="DejaVuSans-41" d="M 2188 4044 
L 1331 1722 
L 3047 1722 
L 2188 4044 
z
M 1831 4666 
L 2547 4666 
L 4325 0 
L 3669 0 
L 3244 1197 
L 1141 1197 
L 716 0 
L 50 0 
L 1831 4666 
z
" transform="scale(0.015625)"/>
       <path id="DejaVuSans-5f" d="M 3263 -1063 
L 3263 -1509 
L -63 -1509 
L -63 -1063 
L 3263 -1063 
z
" transform="scale(0.015625)"/>
      </defs>
      <use xlink:href="#DejaVuSans-47"/>
      <use xlink:href="#DejaVuSans-4c" x="77.490234"/>
      <use xlink:href="#DejaVuSans-59" x="119.953125"/>
      <use xlink:href="#DejaVuSans-4d" x="181.037109"/>
      <use xlink:href="#DejaVuSans-41" x="267.316406"/>
      <use xlink:href="#DejaVuSans-5f" x="335.724609"/>
      <use xlink:href="#DejaVuSans-31" x="385.724609"/>
      <use xlink:href="#DejaVuSans-37" x="449.347656"/>
      <use xlink:href="#DejaVuSans-47" x="512.970703"/>
      <use xlink:href="#DejaVuSans-31" x="590.460938"/>
      <use xlink:href="#DejaVuSans-39" x="654.083984"/>
      <use xlink:href="#DejaVuSans-35" x="717.707031"/>
      <use xlink:href="#DejaVuSans-39" x="781.330078"/>
      <use xlink:href="#DejaVuSans-30" x="844.953125"/>
      <use xlink:href="#DejaVuSans-30" x="908.576172"/>
     </g>
    </g>
    <g id="line2d_39">
     <defs>
      <path id="m8c82219193" d="M -1.339392 -3.233578 
L -3.233578 -1.339392 
L -3.233578 1.339392 
L -1.339392 3.233578 
L 1.339392 3.233578 
L 3.233578 1.339392 
L 3.233578 -1.339392 
L 1.339392 -3.233578 
z
" style="stroke: #000000; stroke-linejoin: miter"/>
     </defs>
     <g>
      <use xlink:href="#m8c82219193" x="249.956" y="289.454125" style="fill: #56b4e9; stroke: #000000; stroke-linejoin: miter"/>
     </g>
    </g>
    <g id="text_20">
     <!-- GLYMA_05G216000 -->
     <g transform="translate(271.556 293.654125) scale(0.12 -0.12)">
      <use xlink:href="#DejaVuSans-47"/>
      <use xlink:href="#DejaVuSans-4c" x="77.490234"/>
      <use xlink:href="#DejaVuSans-59" x="119.953125"/>
      <use xlink:href="#DejaVuSans-4d" x="181.037109"/>
      <use xlink:href="#DejaVuSans-41" x="267.316406"/>
      <use xlink:href="#DejaVuSans-5f" x="335.724609"/>
      <use xlink:href="#DejaVuSans-30" x="385.724609"/>
      <use xlink:href="#DejaVuSans-35" x="449.347656"/>
      <use xlink:href="#DejaVuSans-47" x="512.970703"/>
      <use xlink:href="#DejaVuSans-32" x="590.460938"/>
      <use xlink:href="#DejaVuSans-31" x="654.083984"/>
      <use xlink:href="#DejaVuSans-36" x="717.707031"/>
      <use xlink:href="#DejaVuSans-30" x="781.330078"/>
      <use xlink:href="#DejaVuSans-30" x="844.953125"/>
      <use xlink:href="#DejaVuSans-30" x="908.576172"/>
     </g>
    </g>
    <g id="line2d_40">
     <defs>
      <path id="ma226a87690" d="M -3.5 3.5 
L 3.5 3.5 
L 3.5 -3.5 
L -3.5 -3.5 
z
" style="stroke: #000000; stroke-linejoin: miter"/>
     </defs>
     <g>
      <use xlink:href="#ma226a87690" x="249.956" y="307.401625" style="fill: #009e73; stroke: #000000; stroke-linejoin: miter"/>
     </g>
    </g>
    <g id="text_21">
     <!-- GLYMA_17G185800 -->
     <g transform="translate(271.556 311.601625) scale(0.12 -0.12)">
      <use xlink:href="#DejaVuSans-47"/>
      <use xlink:href="#DejaVuSans-4c" x="77.490234"/>
      <use xlink:href="#DejaVuSans-59" x="119.953125"/>
      <use xlink:href="#DejaVuSans-4d" x="181.037109"/>
      <use xlink:href="#DejaVuSans-41" x="267.316406"/>
      <use xlink:href="#DejaVuSans-5f" x="335.724609"/>
      <use xlink:href="#DejaVuSans-31" x="385.724609"/>
      <use xlink:href="#DejaVuSans-37" x="449.347656"/>
      <use xlink:href="#DejaVuSans-47" x="512.970703"/>
      <use xlink:href="#DejaVuSans-31" x="590.460938"/>
      <use xlink:href="#DejaVuSans-38" x="654.083984"/>
      <use xlink:href="#DejaVuSans-35" x="717.707031"/>
      <use xlink:href="#DejaVuSans-38" x="781.330078"/>
      <use xlink:href="#DejaVuSans-30" x="844.953125"/>
      <use xlink:href="#DejaVuSans-30" x="908.576172"/>
     </g>
    </g>
    <g id="line2d_41">
     <defs>
      <path id="me82ca23f73" d="M 0 -3.5 
L -3.5 3.5 
L 3.5 3.5 
z
" style="stroke: #000000; stroke-linejoin: miter"/>
     </defs>
     <g>
      <use xlink:href="#me82ca23f73" x="249.956" y="325.349125" style="fill: #0072b2; stroke: #000000; stroke-linejoin: miter"/>
     </g>
    </g>
    <g id="text_22">
     <!-- GLYMA_05G203100 -->
     <g transform="translate(271.556 329.549125) scale(0.12 -0.12)">
      <use xlink:href="#DejaVuSans-47"/>
      <use xlink:href="#DejaVuSans-4c" x="77.490234"/>
      <use xlink:href="#DejaVuSans-59" x="119.953125"/>
      <use xlink:href="#DejaVuSans-4d" x="181.037109"/>
      <use xlink:href="#DejaVuSans-41" x="267.316406"/>
      <use xlink:href="#DejaVuSans-5f" x="335.724609"/>
      <use xlink:href="#DejaVuSans-30" x="385.724609"/>
      <use xlink:href="#DejaVuSans-35" x="449.347656"/>
      <use xlink:href="#DejaVuSans-47" x="512.970703"/>
      <use xlink:href="#DejaVuSans-32" x="590.460938"/>
      <use xlink:href="#DejaVuSans-30" x="654.083984"/>
      <use xlink:href="#DejaVuSans-33" x="717.707031"/>
      <use xlink:href="#DejaVuSans-31" x="781.330078"/>
      <use xlink:href="#DejaVuSans-30" x="844.953125"/>
      <use xlink:href="#DejaVuSans-30" x="908.576172"/>
     </g>
    </g>
    <g id="line2d_42">
     <defs>
      <path id="m05f2f0ca4a" d="M -0 3.5 
L 3.5 -3.5 
L -3.5 -3.5 
z
" style="stroke: #000000; stroke-linejoin: miter"/>
     </defs>
     <g>
      <use xlink:href="#m05f2f0ca4a" x="249.956" y="343.296625" style="fill: #d55e00; stroke: #000000; stroke-linejoin: miter"/>
     </g>
    </g>
    <g id="text_23">
     <!-- GLYMA_15G210100 -->
     <g transform="translate(271.556 347.496625) scale(0.12 -0.12)">
      <use xlink:href="#DejaVuSans-47"/>
      <use xlink:href="#DejaVuSans-4c" x="77.490234"/>
      <use xlink:href="#DejaVuSans-59" x="119.953125"/>
      <use xlink:href="#DejaVuSans-4d" x="181.037109"/>
      <use xlink:href="#DejaVuSans-41" x="267.316406"/>
      <use xlink:href="#DejaVuSans-5f" x="335.724609"/>
      <use xlink:href="#DejaVuSans-31" x="385.724609"/>
      <use xlink:href="#DejaVuSans-35" x="449.347656"/>
      <use xlink:href="#DejaVuSans-47" x="512.970703"/>
      <use xlink:href="#DejaVuSans-32" x="590.460938"/>
      <use xlink:href="#DejaVuSans-31" x="654.083984"/>
      <use xlink:href="#DejaVuSans-30" x="717.707031"/>
      <use xlink:href="#DejaVuSans-31" x="781.330078"/>
      <use xlink:href="#DejaVuSans-30" x="844.953125"/>
      <use xlink:href="#DejaVuSans-30" x="908.576172"/>
     </g>
    </g>
    <g id="line2d_43">
     <defs>
      <path id="m0e43a20e73" d="M -1.166667 3.5 
L 1.166667 3.5 
L 1.166667 1.166667 
L 3.5 1.166667 
L 3.5 -1.166667 
L 1.166667 -1.166667 
L 1.166667 -3.5 
L -1.166667 -3.5 
L -1.166667 -1.166667 
L -3.5 -1.166667 
L -3.5 1.166667 
L -1.166667 1.166667 
z
" style="stroke: #000000; stroke-linejoin: miter"/>
     </defs>
     <g>
      <use xlink:href="#m0e43a20e73" x="249.956" y="361.244125" style="fill: #cc79a7; stroke: #000000; stroke-linejoin: miter"/>
     </g>
    </g>
    <g id="text_24">
     <!-- GLYMA_05G092200 -->
     <g transform="translate(271.556 365.444125) scale(0.12 -0.12)">
      <use xlink:href="#DejaVuSans-47"/>
      <use xlink:href="#DejaVuSans-4c" x="77.490234"/>
      <use xlink:href="#DejaVuSans-59" x="119.953125"/>
      <use xlink:href="#DejaVuSans-4d" x="181.037109"/>
      <use xlink:href="#DejaVuSans-41" x="267.316406"/>
      <use xlink:href="#DejaVuSans-5f" x="335.724609"/>
      <use xlink:href="#DejaVuSans-30" x="385.724609"/>
      <use xlink:href="#DejaVuSans-35" x="449.347656"/>
      <use xlink:href="#DejaVuSans-47" x="512.970703"/>
      <use xlink:href="#DejaVuSans-30" x="590.460938"/>
      <use xlink:href="#DejaVuSans-39" x="654.083984"/>
      <use xlink:href="#DejaVuSans-32" x="717.707031"/>
      <use xlink:href="#DejaVuSans-32" x="781.330078"/>
      <use xlink:href="#DejaVuSans-30" x="844.953125"/>
      <use xlink:href="#DejaVuSans-30" x="908.576172"/>
     </g>
    </g>
   </g>
   <g id="PathCollection_4">
    <defs>
     <path id="m06008f698f" d="M -3.872983 3.872983 
L 3.872983 3.872983 
L 3.872983 -3.872983 
L -3.872983 -3.872983 
z
" style="stroke: #000000"/>
    </defs>
    <g clip-path="url(#p62f839a71c)">
     <use xlink:href="#m06008f698f" x="57.688713" y="326.73929" style="fill: #009e73; stroke: #000000"/>
     <use xlink:href="#m06008f698f" x="62.174877" y="326.791739" style="fill: #009e73; stroke: #000000"/>
     <use xlink:href="#m06008f698f" x="62.711162" y="333.682224" style="fill: #009e73; stroke: #000000"/>
     <use xlink:href="#m06008f698f" x="63.399852" y="335.672947" style="fill: #009e73; stroke: #000000"/>
     <use xlink:href="#m06008f698f" x="63.246702" y="346.333253" style="fill: #009e73; stroke: #000000"/>
    </g>
   </g>
   <g id="PathCollection_5">
    <defs>
     <path id="m204b22c050" d="M 0 -3.872983 
L -3.872983 3.872983 
L 3.872983 3.872983 
z
" style="stroke: #000000"/>
    </defs>
    <g clip-path="url(#p62f839a71c)">
     <use xlink:href="#m204b22c050" x="45.791834" y="372.879363" style="fill: #0072b2; stroke: #000000"/>
    </g>
   </g>
   <g id="PathCollection_6"/>
   <g id="PathCollection_7">
    <defs>
     <path id="m62709274d8" d="M -1.290994 3.872983 
L 1.290994 3.872983 
L 1.290994 1.290994 
L 3.872983 1.290994 
L 3.872983 -1.290994 
L 1.290994 -1.290994 
L 1.290994 -3.872983 
L -1.290994 -3.872983 
L -1.290994 -1.290994 
L -3.872983 -1.290994 
L -3.872983 1.290994 
L -1.290994 1.290994 
z
" style="stroke: #000000"/>
    </defs>
    <g clip-path="url(#p62f839a71c)">
     <use xlink:href="#m62709274d8" x="149.000224" y="72.263767" style="fill: #cc79a7; stroke: #000000"/>
     <use xlink:href="#m62709274d8" x="129.488799" y="189.593652" style="fill: #cc79a7; stroke: #000000"/>
     <use xlink:href="#m62709274d8" x="65.65569" y="269.581643" style="fill: #cc79a7; stroke: #000000"/>
     <use xlink:href="#m62709274d8" x="94.616563" y="285.374436" style="fill: #cc79a7; stroke: #000000"/>
     <use xlink:href="#m62709274d8" x="316.631497" y="74.979082" style="fill: #cc79a7; stroke: #000000"/>
     <use xlink:href="#m62709274d8" x="132.408016" y="261.373995" style="fill: #cc79a7; stroke: #000000"/>
     <use xlink:href="#m62709274d8" x="338.909433" y="57.370632" style="fill: #cc79a7; stroke: #000000"/>
     <use xlink:href="#m62709274d8" x="313.573004" y="84.919201" style="fill: #cc79a7; stroke: #000000"/>
     <use xlink:href="#m62709274d8" x="313.528865" y="92.976461" style="fill: #cc79a7; stroke: #000000"/>
     <use xlink:href="#m62709274d8" x="355.034905" y="63.995987" style="fill: #cc79a7; stroke: #000000"/>
     <use xlink:href="#m62709274d8" x="314.477666" y="108.738375" style="fill: #cc79a7; stroke: #000000"/>
    </g>
   </g>
  </g>
 </g>
 <defs>
  <clipPath id="p62f839a71c">
   <rect x="45.746875" y="25.8" width="353.2735" height="353.2735"/>
  </clipPath>
 </defs>
</svg>
