<?xml version="1.0" encoding="UTF-8"?>
<svg xmlns="http://www.w3.org/2000/svg" xmlns:xlink="http://www.w3.org/1999/xlink" width="307.235pt" height="148.308pt" viewBox="0 0 307.235 148.308" version="1.1">
<defs>
<clipPath id="clip1">
  <path d="M 292 122 L 307.234375 122 L 307.234375 140 L 292 140 Z M 292 122 "/>
</clipPath>
<clipPath id="clip2">
  <path d="M 292 93 L 307.234375 93 L 307.234375 112 L 292 112 Z M 292 93 "/>
</clipPath>
<clipPath id="clip3">
  <path d="M 292 65 L 307.234375 65 L 307.234375 83 L 292 83 Z M 292 65 "/>
</clipPath>
<clipPath id="clip4">
  <path d="M 292 37 L 307.234375 37 L 307.234375 55 L 292 55 Z M 292 37 "/>
</clipPath>
<clipPath id="clip5">
  <path d="M 292 8 L 307.234375 8 L 307.234375 27 L 292 27 Z M 292 8 "/>
</clipPath>
</defs>
<g id="surface1">
<path style="fill-rule:nonzero;fill:rgb(83.999634%,83.999634%,83.999634%);fill-opacity:1;stroke-width:0.3985;stroke-linecap:butt;stroke-linejoin:miter;stroke:rgb(19.999695%,19.999695%,19.999695%);stroke-opacity:1;stroke-miterlimit:10;" d="M 0.0010625 0.00046875 L 28.348719 0.00046875 L 28.348719 28.348125 L 0.0010625 28.348125 Z M 0.0010625 0.00046875 " transform="matrix(1,0,0,-1,3.288,145.02)"/>
<path style="fill-rule:nonzero;fill:rgb(0%,0%,0%);fill-opacity:1;stroke-width:0.3985;stroke-linecap:butt;stroke-linejoin:miter;stroke:rgb(0%,0%,0%);stroke-opacity:1;stroke-miterlimit:10;" d="M 1.992125 -0.00065625 C 1.992125 1.100906 1.1015 1.991531 -0.0000625 1.991531 C -1.101625 1.991531 -1.99225 1.100906 -1.99225 -0.00065625 C -1.99225 -1.102219 -1.101625 -1.992844 -0.0000625 -1.992844 C 1.1015 -1.992844 1.992125 -1.102219 1.992125 -0.00065625 Z M 1.992125 -0.00065625 " transform="matrix(1,0,0,-1,17.461,130.847)"/>
<path style="fill-rule:nonzero;fill:rgb(83.999634%,83.999634%,83.999634%);fill-opacity:1;stroke-width:0.3985;stroke-linecap:butt;stroke-linejoin:miter;stroke:rgb(19.999695%,19.999695%,19.999695%);stroke-opacity:1;stroke-miterlimit:10;" d="M 28.348719 0.00046875 L 56.692469 0.00046875 L 56.692469 28.348125 L 28.348719 28.348125 Z M 28.348719 0.00046875 " transform="matrix(1,0,0,-1,3.288,145.02)"/>
<path style="fill-rule:nonzero;fill:rgb(0%,0%,0%);fill-opacity:1;stroke-width:0.3985;stroke-linecap:butt;stroke-linejoin:miter;stroke:rgb(0%,0%,0%);stroke-opacity:1;stroke-miterlimit:10;" d="M 1.993781 -0.00065625 C 1.993781 1.100906 1.09925 1.991531 0.00159375 1.991531 C -1.099969 1.991531 -1.9945 1.100906 -1.9945 -0.00065625 C -1.9945 -1.102219 -1.099969 -1.992844 0.00159375 -1.992844 C 1.09925 -1.992844 1.993781 -1.102219 1.993781 -0.00065625 Z M 1.993781 -0.00065625 " transform="matrix(1,0,0,-1,45.807,130.847)"/>
<path style="fill-rule:nonzero;fill:rgb(83.999634%,83.999634%,83.999634%);fill-opacity:1;stroke-width:0.3985;stroke-linecap:butt;stroke-linejoin:miter;stroke:rgb(19.999695%,19.999695%,19.999695%);stroke-opacity:1;stroke-miterlimit:10;" d="M 56.692469 0.00046875 L 85.040125 0.00046875 L 85.040125 28.348125 L 56.692469 28.348125 Z M 56.692469 0.00046875 " transform="matrix(1,0,0,-1,3.288,145.02)"/>
<path style="fill-rule:nonzero;fill:rgb(0%,0%,0%);fill-opacity:1;stroke-width:0.3985;stroke-linecap:butt;stroke-linejoin:miter;stroke:rgb(0%,0%,0%);stroke-opacity:1;stroke-miterlimit:10;" d="M 1.994438 -0.00065625 C 1.994438 1.100906 1.099906 1.991531 -0.00165625 1.991531 C -1.099312 1.991531 -1.993844 1.100906 -1.993844 -0.00065625 C -1.993844 -1.102219 -1.099312 -1.992844 -0.00165625 -1.992844 C 1.099906 -1.992844 1.994438 -1.102219 1.994438 -0.00065625 Z M 1.994438 -0.00065625 " transform="matrix(1,0,0,-1,74.154,130.847)"/>
<path style="fill-rule:nonzero;fill:rgb(83.999634%,83.999634%,83.999634%);fill-opacity:1;stroke-width:0.3985;stroke-linecap:butt;stroke-linejoin:miter;stroke:rgb(19.999695%,19.999695%,19.999695%);stroke-opacity:1;stroke-miterlimit:10;" d="M 85.040125 0.00046875 L 113.387781 0.00046875 L 113.387781 28.348125 L 85.040125 28.348125 Z M 85.040125 0.00046875 " transform="matrix(1,0,0,-1,3.288,145.02)"/>
<path style="fill-rule:nonzero;fill:rgb(0%,0%,0%);fill-opacity:1;stroke-width:0.3985;stroke-linecap:butt;stroke-linejoin:miter;stroke:rgb(0%,0%,0%);stroke-opacity:1;stroke-miterlimit:10;" d="M 1.992188 -0.00065625 C 1.992188 1.100906 1.101562 1.991531 0 1.991531 C -1.101562 1.991531 -1.992188 1.100906 -1.992188 -0.00065625 C -1.992188 -1.102219 -1.101562 -1.992844 0 -1.992844 C 1.101562 -1.992844 1.992188 -1.102219 1.992188 -0.00065625 Z M 1.992188 -0.00065625 " transform="matrix(1,0,0,-1,102.5,130.847)"/>
<path style="fill-rule:nonzero;fill:rgb(83.999634%,83.999634%,83.999634%);fill-opacity:1;stroke-width:0.3985;stroke-linecap:butt;stroke-linejoin:miter;stroke:rgb(19.999695%,19.999695%,19.999695%);stroke-opacity:1;stroke-miterlimit:10;" d="M 113.387781 0.00046875 L 141.735437 0.00046875 L 141.735437 28.348125 L 113.387781 28.348125 Z M 113.387781 0.00046875 " transform="matrix(1,0,0,-1,3.288,145.02)"/>
<path style="fill-rule:nonzero;fill:rgb(0%,0%,0%);fill-opacity:1;stroke-width:0.3985;stroke-linecap:butt;stroke-linejoin:miter;stroke:rgb(0%,0%,0%);stroke-opacity:1;stroke-miterlimit:10;" d="M 1.992844 -0.00065625 C 1.992844 1.100906 1.102219 1.991531 0.00065625 1.991531 C -1.100906 1.991531 -1.991531 1.100906 -1.991531 -0.00065625 C -1.991531 -1.102219 -1.100906 -1.992844 0.00065625 -1.992844 C 1.102219 -1.992844 1.992844 -1.102219 1.992844 -0.00065625 Z M 1.992844 -0.00065625 " transform="matrix(1,0,0,-1,130.847,130.847)"/>
<path style="fill-rule:nonzero;fill:rgb(83.999634%,83.999634%,83.999634%);fill-opacity:1;stroke-width:0.3985;stroke-linecap:butt;stroke-linejoin:miter;stroke:rgb(19.999695%,19.999695%,19.999695%);stroke-opacity:1;stroke-miterlimit:10;" d="M 0.0010625 28.348125 L 28.348719 28.348125 L 28.348719 56.691875 L 0.0010625 56.691875 Z M 0.0010625 28.348125 " transform="matrix(1,0,0,-1,3.288,145.02)"/>
<path style="fill-rule:nonzero;fill:rgb(0%,0%,0%);fill-opacity:1;stroke-width:0.3985;stroke-linecap:butt;stroke-linejoin:miter;stroke:rgb(0%,0%,0%);stroke-opacity:1;stroke-miterlimit:10;" d="M 1.992125 0.001 C 1.992125 1.098656 1.1015 1.993188 -0.0000625 1.993188 C -1.101625 1.993188 -1.99225 1.098656 -1.99225 0.001 C -1.99225 -1.100562 -1.101625 -1.991187 -0.0000625 -1.991187 C 1.1015 -1.991187 1.992125 -1.100562 1.992125 0.001 Z M 1.992125 0.001 " transform="matrix(1,0,0,-1,17.461,102.501)"/>
<path style="fill-rule:nonzero;fill:rgb(83.999634%,83.999634%,83.999634%);fill-opacity:1;stroke-width:0.3985;stroke-linecap:butt;stroke-linejoin:miter;stroke:rgb(19.999695%,19.999695%,19.999695%);stroke-opacity:1;stroke-miterlimit:10;" d="M 56.692469 28.348125 L 85.040125 28.348125 L 85.040125 56.691875 L 56.692469 56.691875 Z M 56.692469 28.348125 " transform="matrix(1,0,0,-1,3.288,145.02)"/>
<path style="fill-rule:nonzero;fill:rgb(0%,0%,0%);fill-opacity:1;stroke-width:0.3985;stroke-linecap:butt;stroke-linejoin:miter;stroke:rgb(0%,0%,0%);stroke-opacity:1;stroke-miterlimit:10;" d="M 1.994438 0.001 C 1.994438 1.098656 1.099906 1.993188 -0.00165625 1.993188 C -1.099312 1.993188 -1.993844 1.098656 -1.993844 0.001 C -1.993844 -1.100562 -1.099312 -1.991187 -0.00165625 -1.991187 C 1.099906 -1.991187 1.994438 -1.100562 1.994438 0.001 Z M 1.994438 0.001 " transform="matrix(1,0,0,-1,74.154,102.501)"/>
<path style="fill-rule:nonzero;fill:rgb(83.999634%,83.999634%,83.999634%);fill-opacity:1;stroke-width:0.3985;stroke-linecap:butt;stroke-linejoin:miter;stroke:rgb(19.999695%,19.999695%,19.999695%);stroke-opacity:1;stroke-miterlimit:10;" d="M 113.387781 28.348125 L 141.735437 28.348125 L 141.735437 56.691875 L 113.387781 56.691875 Z M 113.387781 28.348125 " transform="matrix(1,0,0,-1,3.288,145.02)"/>
<path style="fill-rule:nonzero;fill:rgb(0%,0%,0%);fill-opacity:1;stroke-width:0.3985;stroke-linecap:butt;stroke-linejoin:miter;stroke:rgb(0%,0%,0%);stroke-opacity:1;stroke-miterlimit:10;" d="M 1.992844 0.001 C 1.992844 1.098656 1.102219 1.993188 0.00065625 1.993188 C -1.100906 1.993188 -1.991531 1.098656 -1.991531 0.001 C -1.991531 -1.100562 -1.100906 -1.991187 0.00065625 -1.991187 C 1.102219 -1.991187 1.992844 -1.100562 1.992844 0.001 Z M 1.992844 0.001 " transform="matrix(1,0,0,-1,130.847,102.501)"/>
<path style="fill-rule:nonzero;fill:rgb(83.999634%,83.999634%,83.999634%);fill-opacity:1;stroke-width:0.3985;stroke-linecap:butt;stroke-linejoin:miter;stroke:rgb(19.999695%,19.999695%,19.999695%);stroke-opacity:1;stroke-miterlimit:10;" d="M 28.348719 56.691875 L 56.692469 56.691875 L 56.692469 85.039531 L 28.348719 85.039531 Z M 28.348719 56.691875 " transform="matrix(1,0,0,-1,3.288,145.02)"/>
<path style="fill-rule:nonzero;fill:rgb(0%,0%,0%);fill-opacity:1;stroke-width:0.3985;stroke-linecap:butt;stroke-linejoin:miter;stroke:rgb(0%,0%,0%);stroke-opacity:1;stroke-miterlimit:10;" d="M 1.993781 0.00165625 C 1.993781 1.099313 1.09925 1.993844 0.00159375 1.993844 C -1.099969 1.993844 -1.9945 1.099313 -1.9945 0.00165625 C -1.9945 -1.099906 -1.099969 -1.994437 0.00159375 -1.994437 C 1.09925 -1.994437 1.993781 -1.099906 1.993781 0.00165625 Z M 1.993781 0.00165625 " transform="matrix(1,0,0,-1,45.807,74.154)"/>
<path style="fill-rule:nonzero;fill:rgb(83.999634%,83.999634%,83.999634%);fill-opacity:1;stroke-width:0.3985;stroke-linecap:butt;stroke-linejoin:miter;stroke:rgb(19.999695%,19.999695%,19.999695%);stroke-opacity:1;stroke-miterlimit:10;" d="M 56.692469 56.691875 L 85.040125 56.691875 L 85.040125 85.039531 L 56.692469 85.039531 Z M 56.692469 56.691875 " transform="matrix(1,0,0,-1,3.288,145.02)"/>
<path style="fill-rule:nonzero;fill:rgb(0%,0%,0%);fill-opacity:1;stroke-width:0.3985;stroke-linecap:butt;stroke-linejoin:miter;stroke:rgb(0%,0%,0%);stroke-opacity:1;stroke-miterlimit:10;" d="M 1.994438 0.00165625 C 1.994438 1.099313 1.099906 1.993844 -0.00165625 1.993844 C -1.099312 1.993844 -1.993844 1.099313 -1.993844 0.00165625 C -1.993844 -1.099906 -1.099312 -1.994437 -0.00165625 -1.994437 C 1.099906 -1.994437 1.994438 -1.099906 1.994438 0.00165625 Z M 1.994438 0.00165625 " transform="matrix(1,0,0,-1,74.154,74.154)"/>
<path style="fill-rule:nonzero;fill:rgb(83.999634%,83.999634%,83.999634%);fill-opacity:1;stroke-width:0.3985;stroke-linecap:butt;stroke-linejoin:miter;stroke:rgb(19.999695%,19.999695%,19.999695%);stroke-opacity:1;stroke-miterlimit:10;" d="M 85.040125 56.691875 L 113.387781 56.691875 L 113.387781 85.039531 L 85.040125 85.039531 Z M 85.040125 56.691875 " transform="matrix(1,0,0,-1,3.288,145.02)"/>
<path style="fill-rule:nonzero;fill:rgb(0%,0%,0%);fill-opacity:1;stroke-width:0.3985;stroke-linecap:butt;stroke-linejoin:miter;stroke:rgb(0%,0%,0%);stroke-opacity:1;stroke-miterlimit:10;" d="M 1.992188 0.00165625 C 1.992188 1.099313 1.101562 1.993844 0 1.993844 C -1.101562 1.993844 -1.992188 1.099313 -1.992188 0.00165625 C -1.992188 -1.099906 -1.101562 -1.994437 0 -1.994437 C 1.101562 -1.994437 1.992188 -1.099906 1.992188 0.00165625 Z M 1.992188 0.00165625 " transform="matrix(1,0,0,-1,102.5,74.154)"/>
<path style="fill-rule:nonzero;fill:rgb(83.999634%,83.999634%,83.999634%);fill-opacity:1;stroke-width:0.3985;stroke-linecap:butt;stroke-linejoin:miter;stroke:rgb(19.999695%,19.999695%,19.999695%);stroke-opacity:1;stroke-miterlimit:10;" d="M 113.387781 56.691875 L 141.735437 56.691875 L 141.735437 85.039531 L 113.387781 85.039531 Z M 113.387781 56.691875 " transform="matrix(1,0,0,-1,3.288,145.02)"/>
<path style="fill-rule:nonzero;fill:rgb(0%,0%,0%);fill-opacity:1;stroke-width:0.3985;stroke-linecap:butt;stroke-linejoin:miter;stroke:rgb(0%,0%,0%);stroke-opacity:1;stroke-miterlimit:10;" d="M 1.992844 0.00165625 C 1.992844 1.099313 1.102219 1.993844 0.00065625 1.993844 C -1.100906 1.993844 -1.991531 1.099313 -1.991531 0.00165625 C -1.991531 -1.099906 -1.100906 -1.994437 0.00065625 -1.994437 C 1.102219 -1.994437 1.992844 -1.099906 1.992844 0.00165625 Z M 1.992844 0.00165625 " transform="matrix(1,0,0,-1,130.847,74.154)"/>
<path style="fill-rule:nonzero;fill:rgb(83.999634%,83.999634%,83.999634%);fill-opacity:1;stroke-width:0.3985;stroke-linecap:butt;stroke-linejoin:miter;stroke:rgb(19.999695%,19.999695%,19.999695%);stroke-opacity:1;stroke-miterlimit:10;" d="M 0.0010625 85.039531 L 28.348719 85.039531 L 28.348719 113.387188 L 0.0010625 113.387188 Z M 0.0010625 85.039531 " transform="matrix(1,0,0,-1,3.288,145.02)"/>
<path style="fill-rule:nonzero;fill:rgb(0%,0%,0%);fill-opacity:1;stroke-width:0.3985;stroke-linecap:butt;stroke-linejoin:miter;stroke:rgb(0%,0%,0%);stroke-opacity:1;stroke-miterlimit:10;" d="M 1.992125 -0.00059375 C 1.992125 1.100969 1.1015 1.991594 -0.0000625 1.991594 C -1.101625 1.991594 -1.99225 1.100969 -1.99225 -0.00059375 C -1.99225 -1.102156 -1.101625 -1.992781 -0.0000625 -1.992781 C 1.1015 -1.992781 1.992125 -1.102156 1.992125 -0.00059375 Z M 1.992125 -0.00059375 " transform="matrix(1,0,0,-1,17.461,45.808)"/>
<path style="fill-rule:nonzero;fill:rgb(83.999634%,83.999634%,83.999634%);fill-opacity:1;stroke-width:0.3985;stroke-linecap:butt;stroke-linejoin:miter;stroke:rgb(19.999695%,19.999695%,19.999695%);stroke-opacity:1;stroke-miterlimit:10;" d="M 56.692469 85.039531 L 85.040125 85.039531 L 85.040125 113.387188 L 56.692469 113.387188 Z M 56.692469 85.039531 " transform="matrix(1,0,0,-1,3.288,145.02)"/>
<path style="fill-rule:nonzero;fill:rgb(0%,0%,0%);fill-opacity:1;stroke-width:0.3985;stroke-linecap:butt;stroke-linejoin:miter;stroke:rgb(0%,0%,0%);stroke-opacity:1;stroke-miterlimit:10;" d="M 1.994438 -0.00059375 C 1.994438 1.100969 1.099906 1.991594 -0.00165625 1.991594 C -1.099312 1.991594 -1.993844 1.100969 -1.993844 -0.00059375 C -1.993844 -1.102156 -1.099312 -1.992781 -0.00165625 -1.992781 C 1.099906 -1.992781 1.994438 -1.102156 1.994438 -0.00059375 Z M 1.994438 -0.00059375 " transform="matrix(1,0,0,-1,74.154,45.808)"/>
<path style="fill-rule:nonzero;fill:rgb(83.999634%,83.999634%,83.999634%);fill-opacity:1;stroke-width:0.3985;stroke-linecap:butt;stroke-linejoin:miter;stroke:rgb(19.999695%,19.999695%,19.999695%);stroke-opacity:1;stroke-miterlimit:10;" d="M 85.040125 85.039531 L 113.387781 85.039531 L 113.387781 113.387188 L 85.040125 113.387188 Z M 85.040125 85.039531 " transform="matrix(1,0,0,-1,3.288,145.02)"/>
<path style="fill-rule:nonzero;fill:rgb(0%,0%,0%);fill-opacity:1;stroke-width:0.3985;stroke-linecap:butt;stroke-linejoin:miter;stroke:rgb(0%,0%,0%);stroke-opacity:1;stroke-miterlimit:10;" d="M 1.992188 -0.00059375 C 1.992188 1.100969 1.101562 1.991594 0 1.991594 C -1.101562 1.991594 -1.992188 1.100969 -1.992188 -0.00059375 C -1.992188 -1.102156 -1.101562 -1.992781 0 -1.992781 C 1.101562 -1.992781 1.992188 -1.102156 1.992188 -0.00059375 Z M 1.992188 -0.00059375 " transform="matrix(1,0,0,-1,102.5,45.808)"/>
<path style="fill-rule:nonzero;fill:rgb(83.999634%,83.999634%,83.999634%);fill-opacity:1;stroke-width:0.3985;stroke-linecap:butt;stroke-linejoin:miter;stroke:rgb(19.999695%,19.999695%,19.999695%);stroke-opacity:1;stroke-miterlimit:10;" d="M 113.387781 85.039531 L 141.735437 85.039531 L 141.735437 113.387188 L 113.387781 113.387188 Z M 113.387781 85.039531 " transform="matrix(1,0,0,-1,3.288,145.02)"/>
<path style="fill-rule:nonzero;fill:rgb(0%,0%,0%);fill-opacity:1;stroke-width:0.3985;stroke-linecap:butt;stroke-linejoin:miter;stroke:rgb(0%,0%,0%);stroke-opacity:1;stroke-miterlimit:10;" d="M 1.992844 -0.00059375 C 1.992844 1.100969 1.102219 1.991594 0.00065625 1.991594 C -1.100906 1.991594 -1.991531 1.100969 -1.991531 -0.00059375 C -1.991531 -1.102156 -1.100906 -1.992781 0.00065625 -1.992781 C 1.102219 -1.992781 1.992844 -1.102156 1.992844 -0.00059375 Z M 1.992844 -0.00059375 " transform="matrix(1,0,0,-1,130.847,45.808)"/>
<path style="fill-rule:nonzero;fill:rgb(83.999634%,83.999634%,83.999634%);fill-opacity:1;stroke-width:0.3985;stroke-linecap:butt;stroke-linejoin:miter;stroke:rgb(19.999695%,19.999695%,19.999695%);stroke-opacity:1;stroke-miterlimit:10;" d="M 0.0010625 113.387188 L 28.348719 113.387188 L 28.348719 141.734844 L 0.0010625 141.734844 Z M 0.0010625 113.387188 " transform="matrix(1,0,0,-1,3.288,145.02)"/>
<path style="fill-rule:nonzero;fill:rgb(0%,0%,0%);fill-opacity:1;stroke-width:0.3985;stroke-linecap:butt;stroke-linejoin:miter;stroke:rgb(0%,0%,0%);stroke-opacity:1;stroke-miterlimit:10;" d="M 1.992125 0.0000625 C 1.992125 1.101625 1.1015 1.99225 -0.0000625 1.99225 C -1.101625 1.99225 -1.99225 1.101625 -1.99225 0.0000625 C -1.99225 -1.1015 -1.101625 -1.992125 -0.0000625 -1.992125 C 1.1015 -1.992125 1.992125 -1.1015 1.992125 0.0000625 Z M 1.992125 0.0000625 " transform="matrix(1,0,0,-1,17.461,17.461)"/>
<path style="fill-rule:nonzero;fill:rgb(83.999634%,83.999634%,83.999634%);fill-opacity:1;stroke-width:0.3985;stroke-linecap:butt;stroke-linejoin:miter;stroke:rgb(19.999695%,19.999695%,19.999695%);stroke-opacity:1;stroke-miterlimit:10;" d="M 28.348719 113.387188 L 56.692469 113.387188 L 56.692469 141.734844 L 28.348719 141.734844 Z M 28.348719 113.387188 " transform="matrix(1,0,0,-1,3.288,145.02)"/>
<path style="fill-rule:nonzero;fill:rgb(0%,0%,0%);fill-opacity:1;stroke-width:0.3985;stroke-linecap:butt;stroke-linejoin:miter;stroke:rgb(0%,0%,0%);stroke-opacity:1;stroke-miterlimit:10;" d="M 1.993781 0.0000625 C 1.993781 1.101625 1.09925 1.99225 0.00159375 1.99225 C -1.099969 1.99225 -1.9945 1.101625 -1.9945 0.0000625 C -1.9945 -1.1015 -1.099969 -1.992125 0.00159375 -1.992125 C 1.09925 -1.992125 1.993781 -1.1015 1.993781 0.0000625 Z M 1.993781 0.0000625 " transform="matrix(1,0,0,-1,45.807,17.461)"/>
<path style="fill-rule:nonzero;fill:rgb(83.999634%,83.999634%,83.999634%);fill-opacity:1;stroke-width:0.3985;stroke-linecap:butt;stroke-linejoin:miter;stroke:rgb(19.999695%,19.999695%,19.999695%);stroke-opacity:1;stroke-miterlimit:10;" d="M 85.040125 113.387188 L 113.387781 113.387188 L 113.387781 141.734844 L 85.040125 141.734844 Z M 85.040125 113.387188 " transform="matrix(1,0,0,-1,3.288,145.02)"/>
<path style="fill-rule:nonzero;fill:rgb(0%,0%,0%);fill-opacity:1;stroke-width:0.3985;stroke-linecap:butt;stroke-linejoin:miter;stroke:rgb(0%,0%,0%);stroke-opacity:1;stroke-miterlimit:10;" d="M 1.992188 0.0000625 C 1.992188 1.101625 1.101562 1.99225 0 1.99225 C -1.101562 1.99225 -1.992188 1.101625 -1.992188 0.0000625 C -1.992188 -1.1015 -1.101562 -1.992125 0 -1.992125 C 1.101562 -1.992125 1.992188 -1.1015 1.992188 0.0000625 Z M 1.992188 0.0000625 " transform="matrix(1,0,0,-1,102.5,17.461)"/>
<path style="fill-rule:nonzero;fill:rgb(83.999634%,83.999634%,83.999634%);fill-opacity:1;stroke-width:0.3985;stroke-linecap:butt;stroke-linejoin:miter;stroke:rgb(19.999695%,19.999695%,19.999695%);stroke-opacity:1;stroke-miterlimit:10;" d="M 113.387781 113.387188 L 141.735437 113.387188 L 141.735437 141.734844 L 113.387781 141.734844 Z M 113.387781 113.387188 " transform="matrix(1,0,0,-1,3.288,145.02)"/>
<path style="fill-rule:nonzero;fill:rgb(0%,0%,0%);fill-opacity:1;stroke-width:0.3985;stroke-linecap:butt;stroke-linejoin:miter;stroke:rgb(0%,0%,0%);stroke-opacity:1;stroke-miterlimit:10;" d="M 1.992844 0.0000625 C 1.992844 1.101625 1.102219 1.99225 0.00065625 1.99225 C -1.100906 1.99225 -1.991531 1.101625 -1.991531 0.0000625 C -1.991531 -1.1015 -1.100906 -1.992125 0.00065625 -1.992125 C 1.102219 -1.992125 1.992844 -1.1015 1.992844 0.0000625 Z M 1.992844 0.0000625 " transform="matrix(1,0,0,-1,130.847,17.461)"/>
<path style="fill:none;stroke-width:0.59776;stroke-linecap:butt;stroke-linejoin:miter;stroke:rgb(19.999695%,19.999695%,19.999695%);stroke-opacity:1;stroke-miterlimit:10;" d="M 0.0010625 0.00046875 L 28.348719 0.00046875 L 28.348719 28.348125 L 0.0010625 28.348125 Z M 0.0010625 0.00046875 " transform="matrix(1,0,0,-1,3.288,145.02)"/>
<path style="fill:none;stroke-width:0.59776;stroke-linecap:butt;stroke-linejoin:miter;stroke:rgb(19.999695%,19.999695%,19.999695%);stroke-opacity:1;stroke-miterlimit:10;" d="M 0.0010625 28.348125 L 28.348719 28.348125 L 28.348719 56.691875 L 0.0010625 56.691875 Z M 0.0010625 28.348125 " transform="matrix(1,0,0,-1,3.288,145.02)"/>
<path style="fill:none;stroke-width:0.59776;stroke-linecap:butt;stroke-linejoin:miter;stroke:rgb(19.999695%,19.999695%,19.999695%);stroke-opacity:1;stroke-miterlimit:10;" d="M 0.0010625 56.691875 L 28.348719 56.691875 L 28.348719 85.039531 L 0.0010625 85.039531 Z M 0.0010625 56.691875 " transform="matrix(1,0,0,-1,3.288,145.02)"/>
<path style="fill:none;stroke-width:0.59776;stroke-linecap:butt;stroke-linejoin:miter;stroke:rgb(19.999695%,19.999695%,19.999695%);stroke-opacity:1;stroke-miterlimit:10;" d="M 0.0010625 85.039531 L 28.348719 85.039531 L 28.348719 113.387188 L 0.0010625 113.387188 Z M 0.0010625 85.039531 " transform="matrix(1,0,0,-1,3.288,145.02)"/>
<path style="fill:none;stroke-width:0.59776;stroke-linecap:butt;stroke-linejoin:miter;stroke:rgb(19.999695%,19.999695%,19.999695%);stroke-opacity:1;stroke-miterlimit:10;" d="M 0.0010625 113.387188 L 28.348719 113.387188 L 28.348719 141.734844 L 0.0010625 141.734844 Z M 0.0010625 113.387188 " transform="matrix(1,0,0,-1,3.288,145.02)"/>
<path style="fill:none;stroke-width:0.59776;stroke-linecap:butt;stroke-linejoin:miter;stroke:rgb(19.999695%,19.999695%,19.999695%);stroke-opacity:1;stroke-miterlimit:10;" d="M 28.348719 0.00046875 L 56.692469 0.00046875 L 56.692469 28.348125 L 28.348719 28.348125 Z M 28.348719 0.00046875 " transform="matrix(1,0,0,-1,3.288,145.02)"/>
<path style="fill:none;stroke-width:0.59776;stroke-linecap:butt;stroke-linejoin:miter;stroke:rgb(19.999695%,19.999695%,19.999695%);stroke-opacity:1;stroke-miterlimit:10;" d="M 28.348719 28.348125 L 56.692469 28.348125 L 56.692469 56.691875 L 28.348719 56.691875 Z M 28.348719 28.348125 " transform="matrix(1,0,0,-1,3.288,145.02)"/>
<path style="fill:none;stroke-width:0.59776;stroke-linecap:butt;stroke-linejoin:miter;stroke:rgb(19.999695%,19.999695%,19.999695%);stroke-opacity:1;stroke-miterlimit:10;" d="M 28.348719 56.691875 L 56.692469 56.691875 L 56.692469 85.039531 L 28.348719 85.039531 Z M 28.348719 56.691875 " transform="matrix(1,0,0,-1,3.288,145.02)"/>
<path style="fill:none;stroke-width:0.59776;stroke-linecap:butt;stroke-linejoin:miter;stroke:rgb(19.999695%,19.999695%,19.999695%);stroke-opacity:1;stroke-miterlimit:10;" d="M 28.348719 85.039531 L 56.692469 85.039531 L 56.692469 113.387188 L 28.348719 113.387188 Z M 28.348719 85.039531 " transform="matrix(1,0,0,-1,3.288,145.02)"/>
<path style="fill:none;stroke-width:0.59776;stroke-linecap:butt;stroke-linejoin:miter;stroke:rgb(19.999695%,19.999695%,19.999695%);stroke-opacity:1;stroke-miterlimit:10;" d="M 28.348719 113.387188 L 56.692469 113.387188 L 56.692469 141.734844 L 28.348719 141.734844 Z M 28.348719 113.387188 " transform="matrix(1,0,0,-1,3.288,145.02)"/>
<path style="fill:none;stroke-width:0.59776;stroke-linecap:butt;stroke-linejoin:miter;stroke:rgb(19.999695%,19.999695%,19.999695%);stroke-opacity:1;stroke-miterlimit:10;" d="M 56.692469 0.00046875 L 85.040125 0.00046875 L 85.040125 28.348125 L 56.692469 28.348125 Z M 56.692469 0.00046875 " transform="matrix(1,0,0,-1,3.288,145.02)"/>
<path style="fill:none;stroke-width:0.59776;stroke-linecap:butt;stroke-linejoin:miter;stroke:rgb(19.999695%,19.999695%,19.999695%);stroke-opacity:1;stroke-miterlimit:10;" d="M 56.692469 28.348125 L 85.040125 28.348125 L 85.040125 56.691875 L 56.692469 56.691875 Z M 56.692469 28.348125 " transform="matrix(1,0,0,-1,3.288,145.02)"/>
<path style="fill:none;stroke-width:0.59776;stroke-linecap:butt;stroke-linejoin:miter;stroke:rgb(19.999695%,19.999695%,19.999695%);stroke-opacity:1;stroke-miterlimit:10;" d="M 56.692469 56.691875 L 85.040125 56.691875 L 85.040125 85.039531 L 56.692469 85.039531 Z M 56.692469 56.691875 " transform="matrix(1,0,0,-1,3.288,145.02)"/>
<path style="fill:none;stroke-width:0.59776;stroke-linecap:butt;stroke-linejoin:miter;stroke:rgb(19.999695%,19.999695%,19.999695%);stroke-opacity:1;stroke-miterlimit:10;" d="M 56.692469 85.039531 L 85.040125 85.039531 L 85.040125 113.387188 L 56.692469 113.387188 Z M 56.692469 85.039531 " transform="matrix(1,0,0,-1,3.288,145.02)"/>
<path style="fill:none;stroke-width:0.59776;stroke-linecap:butt;stroke-linejoin:miter;stroke:rgb(19.999695%,19.999695%,19.999695%);stroke-opacity:1;stroke-miterlimit:10;" d="M 56.692469 113.387188 L 85.040125 113.387188 L 85.040125 141.734844 L 56.692469 141.734844 Z M 56.692469 113.387188 " transform="matrix(1,0,0,-1,3.288,145.02)"/>
<path style="fill:none;stroke-width:0.59776;stroke-linecap:butt;stroke-linejoin:miter;stroke:rgb(19.999695%,19.999695%,19.999695%);stroke-opacity:1;stroke-miterlimit:10;" d="M 85.040125 0.00046875 L 113.387781 0.00046875 L 113.387781 28.348125 L 85.040125 28.348125 Z M 85.040125 0.00046875 " transform="matrix(1,0,0,-1,3.288,145.02)"/>
<path style="fill:none;stroke-width:0.59776;stroke-linecap:butt;stroke-linejoin:miter;stroke:rgb(19.999695%,19.999695%,19.999695%);stroke-opacity:1;stroke-miterlimit:10;" d="M 85.040125 28.348125 L 113.387781 28.348125 L 113.387781 56.691875 L 85.040125 56.691875 Z M 85.040125 28.348125 " transform="matrix(1,0,0,-1,3.288,145.02)"/>
<path style="fill:none;stroke-width:0.59776;stroke-linecap:butt;stroke-linejoin:miter;stroke:rgb(19.999695%,19.999695%,19.999695%);stroke-opacity:1;stroke-miterlimit:10;" d="M 85.040125 56.691875 L 113.387781 56.691875 L 113.387781 85.039531 L 85.040125 85.039531 Z M 85.040125 56.691875 " transform="matrix(1,0,0,-1,3.288,145.02)"/>
<path style="fill:none;stroke-width:0.59776;stroke-linecap:butt;stroke-linejoin:miter;stroke:rgb(19.999695%,19.999695%,19.999695%);stroke-opacity:1;stroke-miterlimit:10;" d="M 85.040125 85.039531 L 113.387781 85.039531 L 113.387781 113.387188 L 85.040125 113.387188 Z M 85.040125 85.039531 " transform="matrix(1,0,0,-1,3.288,145.02)"/>
<path style="fill:none;stroke-width:0.59776;stroke-linecap:butt;stroke-linejoin:miter;stroke:rgb(19.999695%,19.999695%,19.999695%);stroke-opacity:1;stroke-miterlimit:10;" d="M 85.040125 113.387188 L 113.387781 113.387188 L 113.387781 141.734844 L 85.040125 141.734844 Z M 85.040125 113.387188 " transform="matrix(1,0,0,-1,3.288,145.02)"/>
<path style="fill:none;stroke-width:0.59776;stroke-linecap:butt;stroke-linejoin:miter;stroke:rgb(19.999695%,19.999695%,19.999695%);stroke-opacity:1;stroke-miterlimit:10;" d="M 113.387781 0.00046875 L 141.735437 0.00046875 L 141.735437 28.348125 L 113.387781 28.348125 Z M 113.387781 0.00046875 " transform="matrix(1,0,0,-1,3.288,145.02)"/>
<path style="fill:none;stroke-width:0.59776;stroke-linecap:butt;stroke-linejoin:miter;stroke:rgb(19.999695%,19.999695%,19.999695%);stroke-opacity:1;stroke-miterlimit:10;" d="M 113.387781 28.348125 L 141.735437 28.348125 L 141.735437 56.691875 L 113.387781 56.691875 Z M 113.387781 28.348125 " transform="matrix(1,0,0,-1,3.288,145.02)"/>
<path style="fill:none;stroke-width:0.59776;stroke-linecap:butt;stroke-linejoin:miter;stroke:rgb(19.999695%,19.999695%,19.999695%);stroke-opacity:1;stroke-miterlimit:10;" d="M 113.387781 56.691875 L 141.735437 56.691875 L 141.735437 85.039531 L 113.387781 85.039531 Z M 113.387781 56.691875 " transform="matrix(1,0,0,-1,3.288,145.02)"/>
<path style="fill:none;stroke-width:0.59776;stroke-linecap:butt;stroke-linejoin:miter;stroke:rgb(19.999695%,19.999695%,19.999695%);stroke-opacity:1;stroke-miterlimit:10;" d="M 113.387781 85.039531 L 141.735437 85.039531 L 141.735437 113.387188 L 113.387781 113.387188 Z M 113.387781 85.039531 " transform="matrix(1,0,0,-1,3.288,145.02)"/>
<path style="fill:none;stroke-width:0.59776;stroke-linecap:butt;stroke-linejoin:miter;stroke:rgb(19.999695%,19.999695%,19.999695%);stroke-opacity:1;stroke-miterlimit:10;" d="M 113.387781 113.387188 L 141.735437 113.387188 L 141.735437 141.734844 L 113.387781 141.734844 Z M 113.387781 113.387188 " transform="matrix(1,0,0,-1,3.288,145.02)"/>
<path style=" stroke:none;fill-rule:nonzero;fill:rgb(100%,59.999084%,59.999084%);fill-opacity:1;" d="M 244.234375 74.152344 L 272.582031 74.152344 L 272.582031 45.804688 L 244.234375 45.804688 Z M 244.234375 74.152344 "/>
<path style=" stroke:none;fill-rule:nonzero;fill:rgb(100%,59.999084%,59.999084%);fill-opacity:1;" d="M 272.582031 74.152344 L 300.929688 74.152344 L 300.929688 45.804688 L 272.582031 45.804688 Z M 272.582031 74.152344 "/>
<path style=" stroke:none;fill-rule:nonzero;fill:rgb(100%,59.999084%,59.999084%);fill-opacity:1;" d="M 272.582031 45.804688 L 300.929688 45.804688 L 300.929688 17.460938 L 272.582031 17.460938 Z M 272.582031 45.804688 "/>
<path style="fill-rule:nonzero;fill:rgb(100%,0%,0%);fill-opacity:1;stroke-width:0.3985;stroke-linecap:butt;stroke-linejoin:miter;stroke:rgb(100%,0%,0%);stroke-opacity:1;stroke-miterlimit:10;" d="M 2.987344 -0.00065625 C 2.987344 1.651688 1.651406 2.987625 -0.0009375 2.987625 C -1.649375 2.987625 -2.989219 1.651688 -2.989219 -0.00065625 C -2.989219 -1.649094 -1.649375 -2.988937 -0.0009375 -2.988937 C 1.651406 -2.988937 2.987344 -1.649094 2.987344 -0.00065625 Z M 2.987344 -0.00065625 " transform="matrix(1,0,0,-1,187.54,130.847)"/>
<path style="fill-rule:nonzero;fill:rgb(100%,0%,0%);fill-opacity:1;stroke-width:0.3985;stroke-linecap:butt;stroke-linejoin:miter;stroke:rgb(100%,0%,0%);stroke-opacity:1;stroke-miterlimit:10;" d="M 2.989 -0.00065625 C 2.989 1.651688 1.649156 2.987625 0.00071875 2.987625 C -1.651625 2.987625 -2.987563 1.651688 -2.987563 -0.00065625 C -2.987563 -1.649094 -1.651625 -2.988937 0.00071875 -2.988937 C 1.649156 -2.988937 2.989 -1.649094 2.989 -0.00065625 Z M 2.989 -0.00065625 " transform="matrix(1,0,0,-1,215.886,130.847)"/>
<path style="fill-rule:nonzero;fill:rgb(100%,0%,0%);fill-opacity:1;stroke-width:0.3985;stroke-linecap:butt;stroke-linejoin:miter;stroke:rgb(100%,0%,0%);stroke-opacity:1;stroke-miterlimit:10;" d="M 2.989656 -0.00065625 C 2.989656 1.651688 1.649812 2.987625 0.001375 2.987625 C -1.650969 2.987625 -2.986906 1.651688 -2.986906 -0.00065625 C -2.986906 -1.649094 -1.650969 -2.988937 0.001375 -2.988937 C 1.649812 -2.988937 2.989656 -1.649094 2.989656 -0.00065625 Z M 2.989656 -0.00065625 " transform="matrix(1,0,0,-1,244.233,130.847)"/>
<path style="fill-rule:nonzero;fill:rgb(100%,0%,0%);fill-opacity:1;stroke-width:0.3985;stroke-linecap:butt;stroke-linejoin:miter;stroke:rgb(100%,0%,0%);stroke-opacity:1;stroke-miterlimit:10;" d="M 2.987406 -0.00065625 C 2.987406 1.651688 1.651469 2.987625 -0.000875 2.987625 C -1.649312 2.987625 -2.989156 1.651688 -2.989156 -0.00065625 C -2.989156 -1.649094 -1.649312 -2.988937 -0.000875 -2.988937 C 1.651469 -2.988937 2.987406 -1.649094 2.987406 -0.00065625 Z M 2.987406 -0.00065625 " transform="matrix(1,0,0,-1,272.579,130.847)"/>
<path style=" stroke:none;fill-rule:nonzero;fill:rgb(100%,0%,0%);fill-opacity:1;" d="M 303.914062 130.847656 C 303.914062 129.195312 302.578125 127.859375 300.925781 127.859375 C 299.273438 127.859375 297.9375 129.195312 297.9375 130.847656 C 297.9375 132.496094 299.273438 133.835938 300.925781 133.835938 C 302.578125 133.835938 303.914062 132.496094 303.914062 130.847656 Z M 303.914062 130.847656 "/>
<g clip-path="url(#clip1)" clip-rule="nonzero">
<path style="fill:none;stroke-width:0.3985;stroke-linecap:butt;stroke-linejoin:miter;stroke:rgb(100%,0%,0%);stroke-opacity:1;stroke-miterlimit:10;" d="M 2.988063 -0.00065625 C 2.988063 1.651688 1.652125 2.987625 -0.00021875 2.987625 C -1.652562 2.987625 -2.9885 1.651688 -2.9885 -0.00065625 C -2.9885 -1.649094 -1.652562 -2.988937 -0.00021875 -2.988937 C 1.652125 -2.988937 2.988063 -1.649094 2.988063 -0.00065625 Z M 2.988063 -0.00065625 " transform="matrix(1,0,0,-1,300.926,130.847)"/>
</g>
<path style="fill-rule:nonzero;fill:rgb(100%,0%,0%);fill-opacity:1;stroke-width:0.3985;stroke-linecap:butt;stroke-linejoin:miter;stroke:rgb(100%,0%,0%);stroke-opacity:1;stroke-miterlimit:10;" d="M 2.987344 0 C 2.987344 1.652344 1.651406 2.988281 -0.0009375 2.988281 C -1.649375 2.988281 -2.989219 1.652344 -2.989219 0 C -2.989219 -1.652344 -1.649375 -2.988281 -0.0009375 -2.988281 C 1.651406 -2.988281 2.987344 -1.652344 2.987344 0 Z M 2.987344 0 " transform="matrix(1,0,0,-1,187.54,102.5)"/>
<path style="fill-rule:nonzero;fill:rgb(100%,0%,0%);fill-opacity:1;stroke-width:0.3985;stroke-linecap:butt;stroke-linejoin:miter;stroke:rgb(100%,0%,0%);stroke-opacity:1;stroke-miterlimit:10;" d="M 2.989656 0 C 2.989656 1.652344 1.649812 2.988281 0.001375 2.988281 C -1.650969 2.988281 -2.986906 1.652344 -2.986906 0 C -2.986906 -1.652344 -1.650969 -2.988281 0.001375 -2.988281 C 1.649812 -2.988281 2.989656 -1.652344 2.989656 0 Z M 2.989656 0 " transform="matrix(1,0,0,-1,244.233,102.5)"/>
<path style=" stroke:none;fill-rule:nonzero;fill:rgb(100%,0%,0%);fill-opacity:1;" d="M 303.914062 102.5 C 303.914062 100.847656 302.578125 99.511719 300.925781 99.511719 C 299.273438 99.511719 297.9375 100.847656 297.9375 102.5 C 297.9375 104.152344 299.273438 105.488281 300.925781 105.488281 C 302.578125 105.488281 303.914062 104.152344 303.914062 102.5 Z M 303.914062 102.5 "/>
<g clip-path="url(#clip2)" clip-rule="nonzero">
<path style="fill:none;stroke-width:0.3985;stroke-linecap:butt;stroke-linejoin:miter;stroke:rgb(100%,0%,0%);stroke-opacity:1;stroke-miterlimit:10;" d="M 2.988063 0 C 2.988063 1.652344 1.652125 2.988281 -0.00021875 2.988281 C -1.652562 2.988281 -2.9885 1.652344 -2.9885 0 C -2.9885 -1.652344 -1.652562 -2.988281 -0.00021875 -2.988281 C 1.652125 -2.988281 2.988063 -1.652344 2.988063 0 Z M 2.988063 0 " transform="matrix(1,0,0,-1,300.926,102.5)"/>
</g>
<path style="fill-rule:nonzero;fill:rgb(100%,0%,0%);fill-opacity:1;stroke-width:0.3985;stroke-linecap:butt;stroke-linejoin:miter;stroke:rgb(100%,0%,0%);stroke-opacity:1;stroke-miterlimit:10;" d="M 2.989 0.00165625 C 2.989 1.650094 1.649156 2.989938 0.00071875 2.989938 C -1.651625 2.989938 -2.987563 1.650094 -2.987563 0.00165625 C -2.987563 -1.650687 -1.651625 -2.990531 0.00071875 -2.990531 C 1.649156 -2.990531 2.989 -1.650687 2.989 0.00165625 Z M 2.989 0.00165625 " transform="matrix(1,0,0,-1,215.886,74.154)"/>
<path style="fill-rule:nonzero;fill:rgb(100%,0%,0%);fill-opacity:1;stroke-width:0.3985;stroke-linecap:butt;stroke-linejoin:miter;stroke:rgb(100%,0%,0%);stroke-opacity:1;stroke-miterlimit:10;" d="M 2.989656 0.00165625 C 2.989656 1.650094 1.649812 2.989938 0.001375 2.989938 C -1.650969 2.989938 -2.986906 1.650094 -2.986906 0.00165625 C -2.986906 -1.650687 -1.650969 -2.990531 0.001375 -2.990531 C 1.649812 -2.990531 2.989656 -1.650687 2.989656 0.00165625 Z M 2.989656 0.00165625 " transform="matrix(1,0,0,-1,244.233,74.154)"/>
<path style="fill-rule:nonzero;fill:rgb(100%,0%,0%);fill-opacity:1;stroke-width:0.3985;stroke-linecap:butt;stroke-linejoin:miter;stroke:rgb(100%,0%,0%);stroke-opacity:1;stroke-miterlimit:10;" d="M 2.987406 0.00165625 C 2.987406 1.650094 1.651469 2.989938 -0.000875 2.989938 C -1.649312 2.989938 -2.989156 1.650094 -2.989156 0.00165625 C -2.989156 -1.650687 -1.649312 -2.990531 -0.000875 -2.990531 C 1.651469 -2.990531 2.987406 -1.650687 2.987406 0.00165625 Z M 2.987406 0.00165625 " transform="matrix(1,0,0,-1,272.579,74.154)"/>
<path style=" stroke:none;fill-rule:nonzero;fill:rgb(100%,0%,0%);fill-opacity:1;" d="M 303.914062 74.152344 C 303.914062 72.503906 302.578125 71.164062 300.925781 71.164062 C 299.273438 71.164062 297.9375 72.503906 297.9375 74.152344 C 297.9375 75.804688 299.273438 77.144531 300.925781 77.144531 C 302.578125 77.144531 303.914062 75.804688 303.914062 74.152344 Z M 303.914062 74.152344 "/>
<g clip-path="url(#clip3)" clip-rule="nonzero">
<path style="fill:none;stroke-width:0.3985;stroke-linecap:butt;stroke-linejoin:miter;stroke:rgb(100%,0%,0%);stroke-opacity:1;stroke-miterlimit:10;" d="M 2.988063 0.00165625 C 2.988063 1.650094 1.652125 2.989938 -0.00021875 2.989938 C -1.652562 2.989938 -2.9885 1.650094 -2.9885 0.00165625 C -2.9885 -1.650687 -1.652562 -2.990531 -0.00021875 -2.990531 C 1.652125 -2.990531 2.988063 -1.650687 2.988063 0.00165625 Z M 2.988063 0.00165625 " transform="matrix(1,0,0,-1,300.926,74.154)"/>
</g>
<path style="fill-rule:nonzero;fill:rgb(100%,0%,0%);fill-opacity:1;stroke-width:0.3985;stroke-linecap:butt;stroke-linejoin:miter;stroke:rgb(100%,0%,0%);stroke-opacity:1;stroke-miterlimit:10;" d="M 2.987344 -0.00059375 C 2.987344 1.65175 1.651406 2.987688 -0.0009375 2.987688 C -1.649375 2.987688 -2.989219 1.65175 -2.989219 -0.00059375 C -2.989219 -1.649031 -1.649375 -2.988875 -0.0009375 -2.988875 C 1.651406 -2.988875 2.987344 -1.649031 2.987344 -0.00059375 Z M 2.987344 -0.00059375 " transform="matrix(1,0,0,-1,187.54,45.808)"/>
<path style="fill-rule:nonzero;fill:rgb(100%,0%,0%);fill-opacity:1;stroke-width:0.3985;stroke-linecap:butt;stroke-linejoin:miter;stroke:rgb(100%,0%,0%);stroke-opacity:1;stroke-miterlimit:10;" d="M 2.989656 -0.00059375 C 2.989656 1.65175 1.649812 2.987688 0.001375 2.987688 C -1.650969 2.987688 -2.986906 1.65175 -2.986906 -0.00059375 C -2.986906 -1.649031 -1.650969 -2.988875 0.001375 -2.988875 C 1.649812 -2.988875 2.989656 -1.649031 2.989656 -0.00059375 Z M 2.989656 -0.00059375 " transform="matrix(1,0,0,-1,244.233,45.808)"/>
<path style="fill-rule:nonzero;fill:rgb(100%,0%,0%);fill-opacity:1;stroke-width:0.3985;stroke-linecap:butt;stroke-linejoin:miter;stroke:rgb(100%,0%,0%);stroke-opacity:1;stroke-miterlimit:10;" d="M 2.987406 -0.00059375 C 2.987406 1.65175 1.651469 2.987688 -0.000875 2.987688 C -1.649312 2.987688 -2.989156 1.65175 -2.989156 -0.00059375 C -2.989156 -1.649031 -1.649312 -2.988875 -0.000875 -2.988875 C 1.651469 -2.988875 2.987406 -1.649031 2.987406 -0.00059375 Z M 2.987406 -0.00059375 " transform="matrix(1,0,0,-1,272.579,45.808)"/>
<path style=" stroke:none;fill-rule:nonzero;fill:rgb(100%,0%,0%);fill-opacity:1;" d="M 303.914062 45.808594 C 303.914062 44.15625 302.578125 42.820312 300.925781 42.820312 C 299.273438 42.820312 297.9375 44.15625 297.9375 45.808594 C 297.9375 47.457031 299.273438 48.796875 300.925781 48.796875 C 302.578125 48.796875 303.914062 47.457031 303.914062 45.808594 Z M 303.914062 45.808594 "/>
<g clip-path="url(#clip4)" clip-rule="nonzero">
<path style="fill:none;stroke-width:0.3985;stroke-linecap:butt;stroke-linejoin:miter;stroke:rgb(100%,0%,0%);stroke-opacity:1;stroke-miterlimit:10;" d="M 2.988063 -0.00059375 C 2.988063 1.65175 1.652125 2.987688 -0.00021875 2.987688 C -1.652562 2.987688 -2.9885 1.65175 -2.9885 -0.00059375 C -2.9885 -1.649031 -1.652562 -2.988875 -0.00021875 -2.988875 C 1.652125 -2.988875 2.988063 -1.649031 2.988063 -0.00059375 Z M 2.988063 -0.00059375 " transform="matrix(1,0,0,-1,300.926,45.808)"/>
</g>
<path style="fill-rule:nonzero;fill:rgb(100%,0%,0%);fill-opacity:1;stroke-width:0.3985;stroke-linecap:butt;stroke-linejoin:miter;stroke:rgb(100%,0%,0%);stroke-opacity:1;stroke-miterlimit:10;" d="M 2.987344 0.0000625 C 2.987344 1.652406 1.651406 2.988344 -0.0009375 2.988344 C -1.649375 2.988344 -2.989219 1.652406 -2.989219 0.0000625 C -2.989219 -1.652281 -1.649375 -2.988219 -0.0009375 -2.988219 C 1.651406 -2.988219 2.987344 -1.652281 2.987344 0.0000625 Z M 2.987344 0.0000625 " transform="matrix(1,0,0,-1,187.54,17.461)"/>
<path style="fill-rule:nonzero;fill:rgb(100%,0%,0%);fill-opacity:1;stroke-width:0.3985;stroke-linecap:butt;stroke-linejoin:miter;stroke:rgb(100%,0%,0%);stroke-opacity:1;stroke-miterlimit:10;" d="M 2.989 0.0000625 C 2.989 1.652406 1.649156 2.988344 0.00071875 2.988344 C -1.651625 2.988344 -2.987563 1.652406 -2.987563 0.0000625 C -2.987563 -1.652281 -1.651625 -2.988219 0.00071875 -2.988219 C 1.649156 -2.988219 2.989 -1.652281 2.989 0.0000625 Z M 2.989 0.0000625 " transform="matrix(1,0,0,-1,215.886,17.461)"/>
<path style="fill-rule:nonzero;fill:rgb(100%,0%,0%);fill-opacity:1;stroke-width:0.3985;stroke-linecap:butt;stroke-linejoin:miter;stroke:rgb(100%,0%,0%);stroke-opacity:1;stroke-miterlimit:10;" d="M 2.987406 0.0000625 C 2.987406 1.652406 1.651469 2.988344 -0.000875 2.988344 C -1.649312 2.988344 -2.989156 1.652406 -2.989156 0.0000625 C -2.989156 -1.652281 -1.649312 -2.988219 -0.000875 -2.988219 C 1.651469 -2.988219 2.987406 -1.652281 2.987406 0.0000625 Z M 2.987406 0.0000625 " transform="matrix(1,0,0,-1,272.579,17.461)"/>
<path style=" stroke:none;fill-rule:nonzero;fill:rgb(100%,0%,0%);fill-opacity:1;" d="M 303.914062 17.460938 C 303.914062 15.808594 302.578125 14.472656 300.925781 14.472656 C 299.273438 14.472656 297.9375 15.808594 297.9375 17.460938 C 297.9375 19.113281 299.273438 20.449219 300.925781 20.449219 C 302.578125 20.449219 303.914062 19.113281 303.914062 17.460938 Z M 303.914062 17.460938 "/>
<g clip-path="url(#clip5)" clip-rule="nonzero">
<path style="fill:none;stroke-width:0.3985;stroke-linecap:butt;stroke-linejoin:miter;stroke:rgb(100%,0%,0%);stroke-opacity:1;stroke-miterlimit:10;" d="M 2.988063 0.0000625 C 2.988063 1.652406 1.652125 2.988344 -0.00021875 2.988344 C -1.652562 2.988344 -2.9885 1.652406 -2.9885 0.0000625 C -2.9885 -1.652281 -1.652562 -2.988219 -0.00021875 -2.988219 C 1.652125 -2.988219 2.988063 -1.652281 2.988063 0.0000625 Z M 2.988063 0.0000625 " transform="matrix(1,0,0,-1,300.926,17.461)"/>
</g>
<path style="fill:none;stroke-width:0.79701;stroke-linecap:butt;stroke-linejoin:miter;stroke:rgb(100%,0%,0%);stroke-opacity:1;stroke-miterlimit:10;" d="M 184.254969 14.172344 L 297.641687 14.172344 " transform="matrix(1,0,0,-1,3.288,145.02)"/>
<path style="fill:none;stroke-width:0.79701;stroke-linecap:butt;stroke-linejoin:miter;stroke:rgb(100%,0%,0%);stroke-opacity:1;stroke-miterlimit:10;" d="M 212.602625 70.867656 L 297.641687 70.867656 " transform="matrix(1,0,0,-1,3.288,145.02)"/>
<path style="fill:none;stroke-width:0.79701;stroke-linecap:butt;stroke-linejoin:miter;stroke:rgb(100%,0%,0%);stroke-opacity:1;stroke-miterlimit:10;" d="M 240.946375 99.215313 L 297.641687 99.215313 " transform="matrix(1,0,0,-1,3.288,145.02)"/>
<path style="fill:none;stroke-width:0.79701;stroke-linecap:butt;stroke-linejoin:miter;stroke:rgb(100%,0%,0%);stroke-opacity:1;stroke-miterlimit:10;" d="M 269.294031 127.559063 L 297.641687 127.559063 " transform="matrix(1,0,0,-1,3.288,145.02)"/>
<path style="fill:none;stroke-width:0.79701;stroke-linecap:butt;stroke-linejoin:miter;stroke:rgb(100%,0%,0%);stroke-opacity:1;stroke-miterlimit:10;" d="M 184.254969 14.172344 L 184.254969 42.52 " transform="matrix(1,0,0,-1,3.288,145.02)"/>
<path style="fill:none;stroke-width:0.79701;stroke-linecap:butt;stroke-linejoin:miter;stroke:rgb(100%,0%,0%);stroke-opacity:1;stroke-miterlimit:10;" d="M 240.946375 14.172344 L 240.946375 99.215313 " transform="matrix(1,0,0,-1,3.288,145.02)"/>
<path style="fill:none;stroke-width:0.79701;stroke-linecap:butt;stroke-linejoin:miter;stroke:rgb(100%,0%,0%);stroke-opacity:1;stroke-miterlimit:10;" d="M 269.294031 70.867656 L 269.294031 127.559063 " transform="matrix(1,0,0,-1,3.288,145.02)"/>
<path style="fill:none;stroke-width:0.79701;stroke-linecap:butt;stroke-linejoin:miter;stroke:rgb(100%,0%,0%);stroke-opacity:1;stroke-miterlimit:10;" d="M 297.641687 14.172344 L 297.641687 127.559063 " transform="matrix(1,0,0,-1,3.288,145.02)"/>
<path style="fill-rule:nonzero;fill:rgb(0%,0%,100%);fill-opacity:1;stroke-width:0.3985;stroke-linecap:butt;stroke-linejoin:miter;stroke:rgb(0%,0%,100%);stroke-opacity:1;stroke-miterlimit:10;" d="M 2.987344 0.0000625 C 2.987344 1.652406 1.651406 2.988344 -0.0009375 2.988344 C -1.649375 2.988344 -2.989219 1.652406 -2.989219 0.0000625 C -2.989219 -1.652281 -1.649375 -2.988219 -0.0009375 -2.988219 C 1.651406 -2.988219 2.987344 -1.652281 2.987344 0.0000625 Z M 2.987344 0.0000625 " transform="matrix(1,0,0,-1,187.54,17.461)"/>
<path style="fill-rule:nonzero;fill:rgb(0%,0%,100%);fill-opacity:1;stroke-width:0.3985;stroke-linecap:butt;stroke-linejoin:miter;stroke:rgb(0%,0%,100%);stroke-opacity:1;stroke-miterlimit:10;" d="M 2.987344 -0.00159375 C 2.987344 1.65075 1.651406 2.990594 -0.0009375 2.990594 C -1.649375 2.990594 -2.989219 1.65075 -2.989219 -0.00159375 C -2.989219 -1.650031 -1.649375 -2.989875 -0.0009375 -2.989875 C 1.651406 -2.989875 2.987344 -1.650031 2.987344 -0.00159375 Z M 2.987344 -0.00159375 " transform="matrix(1,0,0,-1,187.54,45.807)"/>
<path style="fill-rule:nonzero;fill:rgb(0%,0%,100%);fill-opacity:1;stroke-width:0.3985;stroke-linecap:butt;stroke-linejoin:miter;stroke:rgb(0%,0%,100%);stroke-opacity:1;stroke-miterlimit:10;" d="M 2.989 0.0000625 C 2.989 1.652406 1.649156 2.988344 0.00071875 2.988344 C -1.651625 2.988344 -2.987563 1.652406 -2.987563 0.0000625 C -2.987563 -1.652281 -1.651625 -2.988219 0.00071875 -2.988219 C 1.649156 -2.988219 2.989 -1.652281 2.989 0.0000625 Z M 2.989 0.0000625 " transform="matrix(1,0,0,-1,215.886,17.461)"/>
<path style="fill:none;stroke-width:0.79701;stroke-linecap:butt;stroke-linejoin:miter;stroke:rgb(0%,0%,100%);stroke-opacity:1;stroke-miterlimit:10;" d="M 212.602625 127.559063 L 184.254969 127.559063 L 184.254969 99.215313 " transform="matrix(1,0,0,-1,3.288,145.02)"/>
<path style="fill:none;stroke-width:2.49069;stroke-linecap:butt;stroke-linejoin:miter;stroke:rgb(100%,0%,0%);stroke-opacity:1;stroke-miterlimit:10;" d="M 240.946375 70.867656 L 297.641687 70.867656 L 297.641687 14.172344 L 240.946375 14.172344 Z M 240.946375 70.867656 " transform="matrix(1,0,0,-1,3.288,145.02)"/>
</g>
</svg>
