<?xml version="1.0" encoding="utf-8" standalone="no"?>
<!DOCTYPE svg PUBLIC "-//W3C//DTD SVG 1.1//EN"
  "http://www.w3.org/Graphics/SVG/1.1/DTD/svg11.dtd">
<svg xmlns:xlink="http://www.w3.org/1999/xlink" width="1072.8pt" height="424.8pt" viewBox="0 0 1072.8 424.8" xmlns="http://www.w3.org/2000/svg" version="1.1">
 <metadata>
  <rdf:RDF xmlns:dc="http://purl.org/dc/elements/1.1/" xmlns:cc="http://creativecommons.org/ns#" xmlns:rdf="http://www.w3.org/1999/02/22-rdf-syntax-ns#">
   <cc:Work>
    <dc:type rdf:resource="http://purl.org/dc/dcmitype/StillImage"/>
    <dc:date>2023-10-24T09:47:27.396498</dc:date>
    <dc:format>image/svg+xml</dc:format>
    <dc:creator>
     <cc:Agent>
      <dc:title>Matplotlib v3.7.2, https://matplotlib.org/</dc:title>
     </cc:Agent>
    </dc:creator>
   </cc:Work>
  </rdf:RDF>
 </metadata>
 <defs>
  <style type="text/css">*{stroke-linejoin: round; stroke-linecap: butt}</style>
 </defs>
 <g id="figure_1">
  <g id="patch_1">
   <path d="M 0 424.8 
L 1072.8 424.8 
L 1072.8 -0 
L 0 -0 
z
" style="fill: #ffffff"/>
  </g>
  <g id="axes_1">
   <g id="PathCollection_1">
    <defs>
     <path id="ma29e60cc46" d="M 0 3 
C 0.795609 3 1.55874 2.683901 2.12132 2.12132 
C 2.683901 1.55874 3 0.795609 3 0 
C 3 -0.795609 2.683901 -1.55874 2.12132 -2.12132 
C 1.55874 -2.683901 0.795609 -3 0 -3 
C -0.795609 -3 -1.55874 -2.683901 -2.12132 -2.12132 
C -2.683901 -1.55874 -3 -0.795609 -3 0 
C -3 0.795609 -2.683901 1.55874 -2.12132 2.12132 
C -1.55874 2.683901 -0.795609 3 0 3 
z
" style="stroke: #1f77b4; stroke-opacity: 0"/>
    </defs>
    <g clip-path="url(#p9f6448d5d8)">
     <use xlink:href="#ma29e60cc46" x="7.2" y="402.625299" style="fill: #1f77b4; fill-opacity: 0; stroke: #1f77b4; stroke-opacity: 0"/>
     <use xlink:href="#ma29e60cc46" x="518.667783" y="18.674701" style="fill: #1f77b4; fill-opacity: 0; stroke: #1f77b4; stroke-opacity: 0"/>
    </g>
   </g>
   <g id="patch_2">
    <path d="M 319.824154 273.606879 
C 331.8674 273.606879 343.419006 268.822046 351.934867 260.306186 
C 360.450728 251.790325 365.23556 240.238718 365.23556 228.195473 
C 365.23556 216.152227 360.450728 204.60062 351.934867 196.08476 
C 343.419006 187.568899 331.8674 182.784067 319.824154 182.784067 
C 307.780908 182.784067 296.229301 187.568899 287.713441 196.08476 
C 279.19758 204.60062 274.412748 216.152227 274.412748 228.195473 
C 274.412748 240.238718 279.19758 251.790325 287.713441 260.306186 
C 296.229301 268.822046 307.780908 273.606879 319.824154 273.606879 
z
" clip-path="url(#p9f6448d5d8)" style="fill: #ff0000; opacity: 0.2"/>
   </g>
   <g id="patch_3">
    <path d="M 305.527927 206.968897 
C 317.571173 206.968897 329.122779 202.184065 337.63864 193.668204 
C 346.154501 185.152343 350.939333 173.600737 350.939333 161.557491 
C 350.939333 149.514245 346.154501 137.962639 337.63864 129.446778 
C 329.122779 120.930917 317.571173 116.146085 305.527927 116.146085 
C 293.484681 116.146085 281.933075 120.930917 273.417214 129.446778 
C 264.901353 137.962639 260.116521 149.514245 260.116521 161.557491 
C 260.116521 173.600737 264.901353 185.152343 273.417214 193.668204 
C 281.933075 202.184065 293.484681 206.968897 305.527927 206.968897 
z
" clip-path="url(#p9f6448d5d8)" style="fill: #ff0000; opacity: 0.2"/>
   </g>
   <g id="patch_4">
    <path d="M 228.59678 140.84738 
C 240.640026 140.84738 252.191633 136.062548 260.707493 127.546687 
C 269.223354 119.030827 274.008186 107.47922 274.008186 95.435974 
C 274.008186 83.392729 269.223354 71.841122 260.707493 63.325261 
C 252.191633 54.809401 240.640026 50.024568 228.59678 50.024568 
C 216.553535 50.024568 205.001928 54.809401 196.486067 63.325261 
C 187.970207 71.841122 183.185374 83.392729 183.185374 95.435974 
C 183.185374 107.47922 187.970207 119.030827 196.486067 127.546687 
C 205.001928 136.062548 216.553535 140.84738 228.59678 140.84738 
z
" clip-path="url(#p9f6448d5d8)" style="fill: #ff0000; opacity: 0.2"/>
   </g>
   <g id="patch_5">
    <path d="M 182.340397 136.120097 
C 194.383643 136.120097 205.935249 131.335265 214.45111 122.819404 
C 222.966971 114.303544 227.751803 102.751937 227.751803 90.708691 
C 227.751803 78.665446 222.966971 67.113839 214.45111 58.597978 
C 205.935249 50.082118 194.383643 45.297285 182.340397 45.297285 
C 170.297151 45.297285 158.745545 50.082118 150.229684 58.597978 
C 141.713823 67.113839 136.928991 78.665446 136.928991 90.708691 
C 136.928991 102.751937 141.713823 114.303544 150.229684 122.819404 
C 158.745545 131.335265 170.297151 136.120097 182.340397 136.120097 
z
" clip-path="url(#p9f6448d5d8)" style="fill: #ff0000; opacity: 0.2"/>
   </g>
   <g id="patch_6">
    <path d="M 181.629464 156.6086 
C 193.67271 156.6086 205.224317 151.823768 213.740178 143.307907 
C 222.256038 134.792046 227.04087 123.240439 227.04087 111.197194 
C 227.04087 99.153948 222.256038 87.602341 213.740178 79.086481 
C 205.224317 70.57062 193.67271 65.785788 181.629464 65.785788 
C 169.586219 65.785788 158.034612 70.57062 149.518751 79.086481 
C 141.002891 87.602341 136.218059 99.153948 136.218059 111.197194 
C 136.218059 123.240439 141.002891 134.792046 149.518751 143.307907 
C 158.034612 151.823768 169.586219 156.6086 181.629464 156.6086 
z
" clip-path="url(#p9f6448d5d8)" style="fill: #ff0000; opacity: 0.2"/>
   </g>
   <g id="patch_7">
    <path d="M 109.618952 204.950249 
C 121.662198 204.950249 133.213805 200.165417 141.729665 191.649556 
C 150.245526 183.133696 155.030358 171.582089 155.030358 159.538843 
C 155.030358 147.495598 150.245526 135.943991 141.729665 127.42813 
C 133.213805 118.91227 121.662198 114.127437 109.618952 114.127437 
C 97.575707 114.127437 86.0241 118.91227 77.508239 127.42813 
C 68.992379 135.943991 64.207547 147.495598 64.207547 159.538843 
C 64.207547 171.582089 68.992379 183.133696 77.508239 191.649556 
C 86.0241 200.165417 97.575707 204.950249 109.618952 204.950249 
z
" clip-path="url(#p9f6448d5d8)" style="fill: #ff0000; opacity: 0.2"/>
   </g>
   <g id="patch_8">
    <path d="M 79.23399 249.335807 
C 91.277236 249.335807 102.828843 244.550975 111.344703 236.035115 
C 119.860564 227.519254 124.645396 215.967647 124.645396 203.924402 
C 124.645396 191.881156 119.860564 180.329549 111.344703 171.813688 
C 102.828843 163.297828 91.277236 158.512996 79.23399 158.512996 
C 67.190745 158.512996 55.639138 163.297828 47.123277 171.813688 
C 38.607417 180.329549 33.822584 191.881156 33.822584 203.924402 
C 33.822584 215.967647 38.607417 227.519254 47.123277 236.035115 
C 55.639138 244.550975 67.190745 249.335807 79.23399 249.335807 
z
" clip-path="url(#p9f6448d5d8)" style="fill: #ff0000; opacity: 0.2"/>
   </g>
   <g id="patch_9">
    <path d="M 100.823985 322.601503 
C 112.86723 322.601503 124.418837 317.816671 132.934698 309.30081 
C 141.450558 300.78495 146.23539 289.233343 146.23539 277.190097 
C 146.23539 265.146852 141.450558 253.595245 132.934698 245.079384 
C 124.418837 236.563524 112.86723 231.778692 100.823985 231.778692 
C 88.780739 231.778692 77.229132 236.563524 68.713272 245.079384 
C 60.197411 253.595245 55.412579 265.146852 55.412579 277.190097 
C 55.412579 289.233343 60.197411 300.78495 68.713272 309.30081 
C 77.229132 317.816671 88.780739 322.601503 100.823985 322.601503 
z
" clip-path="url(#p9f6448d5d8)" style="fill: #ff0000; opacity: 0.2"/>
   </g>
   <g id="patch_10">
    <path d="M 116.178287 346.746744 
C 128.221533 346.746744 139.77314 341.961912 148.289 333.446051 
C 156.804861 324.93019 161.589693 313.378583 161.589693 301.335338 
C 161.589693 289.292092 156.804861 277.740485 148.289 269.224625 
C 139.77314 260.708764 128.221533 255.923932 116.178287 255.923932 
C 104.135042 255.923932 92.583435 260.708764 84.067574 269.224625 
C 75.551714 277.740485 70.766881 289.292092 70.766881 301.335338 
C 70.766881 313.378583 75.551714 324.93019 84.067574 333.446051 
C 92.583435 341.961912 104.135042 346.746744 116.178287 346.746744 
z
" clip-path="url(#p9f6448d5d8)" style="fill: #ff0000; opacity: 0.2"/>
   </g>
   <g id="patch_11">
    <path d="M 208.847895 376.002715 
C 220.891141 376.002715 232.442747 371.217882 240.958608 362.702022 
C 249.474469 354.186161 254.259301 342.634554 254.259301 330.591309 
C 254.259301 318.548063 249.474469 306.996456 240.958608 298.480596 
C 232.442747 289.964735 220.891141 285.179903 208.847895 285.179903 
C 196.804649 285.179903 185.253043 289.964735 176.737182 298.480596 
C 168.221321 306.996456 163.436489 318.548063 163.436489 330.591309 
C 163.436489 342.634554 168.221321 354.186161 176.737182 362.702022 
C 185.253043 371.217882 196.804649 376.002715 208.847895 376.002715 
z
" clip-path="url(#p9f6448d5d8)" style="fill: #ff0000; opacity: 0.2"/>
   </g>
   <g id="patch_12">
    <path d="M 262.281614 367.302666 
C 274.324859 367.302666 285.876466 362.517834 294.392327 354.001973 
C 302.908188 345.486113 307.69302 333.934506 307.69302 321.89126 
C 307.69302 309.848015 302.908188 298.296408 294.392327 289.780547 
C 285.876466 281.264687 274.324859 276.479854 262.281614 276.479854 
C 250.238368 276.479854 238.686761 281.264687 230.170901 289.780547 
C 221.65504 298.296408 216.870208 309.848015 216.870208 321.89126 
C 216.870208 333.934506 221.65504 345.486113 230.170901 354.001973 
C 238.686761 362.517834 250.238368 367.302666 262.281614 367.302666 
z
" clip-path="url(#p9f6448d5d8)" style="fill: #ff0000; opacity: 0.2"/>
   </g>
   <g id="patch_13">
    <path d="M 316.164517 295.1505 
C 328.207763 295.1505 339.75937 290.365668 348.275231 281.849807 
C 356.791091 273.333946 361.575923 261.782339 361.575923 249.739094 
C 361.575923 237.695848 356.791091 226.144241 348.275231 217.628381 
C 339.75937 209.11252 328.207763 204.327688 316.164517 204.327688 
C 304.121272 204.327688 292.569665 209.11252 284.053804 217.628381 
C 275.537944 226.144241 270.753112 237.695848 270.753112 249.739094 
C 270.753112 261.782339 275.537944 273.333946 284.053804 281.849807 
C 292.569665 290.365668 304.121272 295.1505 316.164517 295.1505 
z
" clip-path="url(#p9f6448d5d8)" style="fill: #ff0000; opacity: 0.2"/>
   </g>
   <g id="patch_14">
    <path d="M 446.633793 257.556411 
C 458.677039 257.556411 470.228645 252.771579 478.744506 244.255718 
C 487.260367 235.739857 492.045199 224.188251 492.045199 212.145005 
C 492.045199 200.101759 487.260367 188.550153 478.744506 180.034292 
C 470.228645 171.518431 458.677039 166.733599 446.633793 166.733599 
C 434.590547 166.733599 423.038941 171.518431 414.52308 180.034292 
C 406.007219 188.550153 401.222387 200.101759 401.222387 212.145005 
C 401.222387 224.188251 406.007219 235.739857 414.52308 244.255718 
C 423.038941 252.771579 434.590547 257.556411 446.633793 257.556411 
z
" clip-path="url(#p9f6448d5d8)" style="fill: #ff0000; opacity: 0.2"/>
   </g>
   <g id="patch_15">
    <path d="M 420.798862 198.047415 
C 432.842108 198.047415 444.393714 193.262582 452.909575 184.746722 
C 461.425436 176.230861 466.210268 164.679254 466.210268 152.636009 
C 466.210268 140.592763 461.425436 129.041156 452.909575 120.525296 
C 444.393714 112.009435 432.842108 107.224603 420.798862 107.224603 
C 408.755616 107.224603 397.20401 112.009435 388.688149 120.525296 
C 380.172288 129.041156 375.387456 140.592763 375.387456 152.636009 
C 375.387456 164.679254 380.172288 176.230861 388.688149 184.746722 
C 397.20401 193.262582 408.755616 198.047415 420.798862 198.047415 
z
" clip-path="url(#p9f6448d5d8)" style="fill: #ff0000; opacity: 0.2"/>
   </g>
   <g id="patch_16">
    <path d="M 376.644757 187.435589 
C 388.688003 187.435589 400.23961 182.650757 408.755471 174.134897 
C 417.271331 165.619036 422.056163 154.067429 422.056163 142.024184 
C 422.056163 129.980938 417.271331 118.429331 408.755471 109.913471 
C 400.23961 101.39761 388.688003 96.612778 376.644757 96.612778 
C 364.601512 96.612778 353.049905 101.39761 344.534044 109.913471 
C 336.018184 118.429331 331.233352 129.980938 331.233352 142.024184 
C 331.233352 154.067429 336.018184 165.619036 344.534044 174.134897 
C 353.049905 182.650757 364.601512 187.435589 376.644757 187.435589 
z
" clip-path="url(#p9f6448d5d8)" style="fill: #ff0000; opacity: 0.2"/>
   </g>
   <g id="patch_17">
    <path d="M 302.490014 254.614297 
C 314.53326 254.614297 326.084867 249.829464 334.600727 241.313604 
C 343.116588 232.797743 347.90142 221.246136 347.90142 209.202891 
C 347.90142 197.159645 343.116588 185.608038 334.600727 177.092178 
C 326.084867 168.576317 314.53326 163.791485 302.490014 163.791485 
C 290.446769 163.791485 278.895162 168.576317 270.379301 177.092178 
C 261.863441 185.608038 257.078608 197.159645 257.078608 209.202891 
C 257.078608 221.246136 261.863441 232.797743 270.379301 241.313604 
C 278.895162 249.829464 290.446769 254.614297 302.490014 254.614297 
z
" clip-path="url(#p9f6448d5d8)" style="fill: #ff0000; opacity: 0.2"/>
   </g>
   <g id="patch_18">
    <path d="M 302.980353 271.959641 
C 315.023599 271.959641 326.575205 267.174809 335.091066 258.658948 
C 343.606927 250.143087 348.391759 238.59148 348.391759 226.548235 
C 348.391759 214.504989 343.606927 202.953382 335.091066 194.437522 
C 326.575205 185.921661 315.023599 181.136829 302.980353 181.136829 
C 290.937107 181.136829 279.385501 185.921661 270.86964 194.437522 
C 262.353779 202.953382 257.568947 214.504989 257.568947 226.548235 
C 257.568947 238.59148 262.353779 250.143087 270.86964 258.658948 
C 279.385501 267.174809 290.937107 271.959641 302.980353 271.959641 
z
" clip-path="url(#p9f6448d5d8)" style="fill: #ff0000; opacity: 0.2"/>
   </g>
   <g id="patch_19">
    <path d="M 367.241323 329.63968 
C 379.284568 329.63968 390.836175 324.854847 399.352036 316.338987 
C 407.867896 307.823126 412.652728 296.271519 412.652728 284.228274 
C 412.652728 272.185028 407.867896 260.633421 399.352036 252.117561 
C 390.836175 243.6017 379.284568 238.816868 367.241323 238.816868 
C 355.198077 238.816868 343.64647 243.6017 335.13061 252.117561 
C 326.614749 260.633421 321.829917 272.185028 321.829917 284.228274 
C 321.829917 296.271519 326.614749 307.823126 335.13061 316.338987 
C 343.64647 324.854847 355.198077 329.63968 367.241323 329.63968 
z
" clip-path="url(#p9f6448d5d8)" style="fill: #ff0000; opacity: 0.2"/>
   </g>
   <g id="patch_20">
    <path d="M 421.154323 322.291341 
C 433.197569 322.291341 444.749176 317.506509 453.265036 308.990648 
C 461.780897 300.474788 466.565729 288.923181 466.565729 276.879935 
C 466.565729 264.83669 461.780897 253.285083 453.265036 244.769222 
C 444.749176 236.253362 433.197569 231.46853 421.154323 231.46853 
C 409.111078 231.46853 397.559471 236.253362 389.04361 244.769222 
C 380.527749 253.285083 375.742917 264.83669 375.742917 276.879935 
C 375.742917 288.923181 380.527749 300.474788 389.04361 308.990648 
C 397.559471 317.506509 409.111078 322.291341 421.154323 322.291341 
z
" clip-path="url(#p9f6448d5d8)" style="fill: #ff0000; opacity: 0.2"/>
   </g>
   <g id="patch_21">
    <path d="M 319.824154 273.606879 
C 331.8674 273.606879 343.419006 268.822046 351.934867 260.306186 
C 360.450728 251.790325 365.23556 240.238718 365.23556 228.195473 
C 365.23556 216.152227 360.450728 204.60062 351.934867 196.08476 
C 343.419006 187.568899 331.8674 182.784067 319.824154 182.784067 
C 307.780908 182.784067 296.229301 187.568899 287.713441 196.08476 
C 279.19758 204.60062 274.412748 216.152227 274.412748 228.195473 
C 274.412748 240.238718 279.19758 251.790325 287.713441 260.306186 
C 296.229301 268.822046 307.780908 273.606879 319.824154 273.606879 
L 319.824154 273.606879 
z
" clip-path="url(#p9f6448d5d8)" style="fill: none; stroke: #ff0000; stroke-width: 2; stroke-linejoin: miter"/>
   </g>
   <g id="patch_22">
    <path d="M 305.527927 206.968897 
C 317.571173 206.968897 329.122779 202.184065 337.63864 193.668204 
C 346.154501 185.152343 350.939333 173.600737 350.939333 161.557491 
C 350.939333 149.514245 346.154501 137.962639 337.63864 129.446778 
C 329.122779 120.930917 317.571173 116.146085 305.527927 116.146085 
C 293.484681 116.146085 281.933075 120.930917 273.417214 129.446778 
C 264.901353 137.962639 260.116521 149.514245 260.116521 161.557491 
C 260.116521 173.600737 264.901353 185.152343 273.417214 193.668204 
C 281.933075 202.184065 293.484681 206.968897 305.527927 206.968897 
L 305.527927 206.968897 
z
" clip-path="url(#p9f6448d5d8)" style="fill: none; stroke: #ff0000; stroke-width: 2; stroke-linejoin: miter"/>
   </g>
   <g id="patch_23">
    <path d="M 228.59678 140.84738 
C 240.640026 140.84738 252.191633 136.062548 260.707493 127.546687 
C 269.223354 119.030827 274.008186 107.47922 274.008186 95.435974 
C 274.008186 83.392729 269.223354 71.841122 260.707493 63.325261 
C 252.191633 54.809401 240.640026 50.024568 228.59678 50.024568 
C 216.553535 50.024568 205.001928 54.809401 196.486067 63.325261 
C 187.970207 71.841122 183.185374 83.392729 183.185374 95.435974 
C 183.185374 107.47922 187.970207 119.030827 196.486067 127.546687 
C 205.001928 136.062548 216.553535 140.84738 228.59678 140.84738 
L 228.59678 140.84738 
z
" clip-path="url(#p9f6448d5d8)" style="fill: none; stroke: #ff0000; stroke-width: 2; stroke-linejoin: miter"/>
   </g>
   <g id="patch_24">
    <path d="M 182.340397 136.120097 
C 194.383643 136.120097 205.935249 131.335265 214.45111 122.819404 
C 222.966971 114.303544 227.751803 102.751937 227.751803 90.708691 
C 227.751803 78.665446 222.966971 67.113839 214.45111 58.597978 
C 205.935249 50.082118 194.383643 45.297285 182.340397 45.297285 
C 170.297151 45.297285 158.745545 50.082118 150.229684 58.597978 
C 141.713823 67.113839 136.928991 78.665446 136.928991 90.708691 
C 136.928991 102.751937 141.713823 114.303544 150.229684 122.819404 
C 158.745545 131.335265 170.297151 136.120097 182.340397 136.120097 
L 182.340397 136.120097 
z
" clip-path="url(#p9f6448d5d8)" style="fill: none; stroke: #ff0000; stroke-width: 2; stroke-linejoin: miter"/>
   </g>
   <g id="patch_25">
    <path d="M 181.629464 156.6086 
C 193.67271 156.6086 205.224317 151.823768 213.740178 143.307907 
C 222.256038 134.792046 227.04087 123.240439 227.04087 111.197194 
C 227.04087 99.153948 222.256038 87.602341 213.740178 79.086481 
C 205.224317 70.57062 193.67271 65.785788 181.629464 65.785788 
C 169.586219 65.785788 158.034612 70.57062 149.518751 79.086481 
C 141.002891 87.602341 136.218059 99.153948 136.218059 111.197194 
C 136.218059 123.240439 141.002891 134.792046 149.518751 143.307907 
C 158.034612 151.823768 169.586219 156.6086 181.629464 156.6086 
L 181.629464 156.6086 
z
" clip-path="url(#p9f6448d5d8)" style="fill: none; stroke: #ff0000; stroke-width: 2; stroke-linejoin: miter"/>
   </g>
   <g id="patch_26">
    <path d="M 109.618952 204.950249 
C 121.662198 204.950249 133.213805 200.165417 141.729665 191.649556 
C 150.245526 183.133696 155.030358 171.582089 155.030358 159.538843 
C 155.030358 147.495598 150.245526 135.943991 141.729665 127.42813 
C 133.213805 118.91227 121.662198 114.127437 109.618952 114.127437 
C 97.575707 114.127437 86.0241 118.91227 77.508239 127.42813 
C 68.992379 135.943991 64.207547 147.495598 64.207547 159.538843 
C 64.207547 171.582089 68.992379 183.133696 77.508239 191.649556 
C 86.0241 200.165417 97.575707 204.950249 109.618952 204.950249 
L 109.618952 204.950249 
z
" clip-path="url(#p9f6448d5d8)" style="fill: none; stroke: #ff0000; stroke-width: 2; stroke-linejoin: miter"/>
   </g>
   <g id="patch_27">
    <path d="M 79.23399 249.335807 
C 91.277236 249.335807 102.828843 244.550975 111.344703 236.035115 
C 119.860564 227.519254 124.645396 215.967647 124.645396 203.924402 
C 124.645396 191.881156 119.860564 180.329549 111.344703 171.813688 
C 102.828843 163.297828 91.277236 158.512996 79.23399 158.512996 
C 67.190745 158.512996 55.639138 163.297828 47.123277 171.813688 
C 38.607417 180.329549 33.822584 191.881156 33.822584 203.924402 
C 33.822584 215.967647 38.607417 227.519254 47.123277 236.035115 
C 55.639138 244.550975 67.190745 249.335807 79.23399 249.335807 
L 79.23399 249.335807 
z
" clip-path="url(#p9f6448d5d8)" style="fill: none; stroke: #ff0000; stroke-width: 2; stroke-linejoin: miter"/>
   </g>
   <g id="patch_28">
    <path d="M 100.823985 322.601503 
C 112.86723 322.601503 124.418837 317.816671 132.934698 309.30081 
C 141.450558 300.78495 146.23539 289.233343 146.23539 277.190097 
C 146.23539 265.146852 141.450558 253.595245 132.934698 245.079384 
C 124.418837 236.563524 112.86723 231.778692 100.823985 231.778692 
C 88.780739 231.778692 77.229132 236.563524 68.713272 245.079384 
C 60.197411 253.595245 55.412579 265.146852 55.412579 277.190097 
C 55.412579 289.233343 60.197411 300.78495 68.713272 309.30081 
C 77.229132 317.816671 88.780739 322.601503 100.823985 322.601503 
L 100.823985 322.601503 
z
" clip-path="url(#p9f6448d5d8)" style="fill: none; stroke: #ff0000; stroke-width: 2; stroke-linejoin: miter"/>
   </g>
   <g id="patch_29">
    <path d="M 116.178287 346.746744 
C 128.221533 346.746744 139.77314 341.961912 148.289 333.446051 
C 156.804861 324.93019 161.589693 313.378583 161.589693 301.335338 
C 161.589693 289.292092 156.804861 277.740485 148.289 269.224625 
C 139.77314 260.708764 128.221533 255.923932 116.178287 255.923932 
C 104.135042 255.923932 92.583435 260.708764 84.067574 269.224625 
C 75.551714 277.740485 70.766881 289.292092 70.766881 301.335338 
C 70.766881 313.378583 75.551714 324.93019 84.067574 333.446051 
C 92.583435 341.961912 104.135042 346.746744 116.178287 346.746744 
L 116.178287 346.746744 
z
" clip-path="url(#p9f6448d5d8)" style="fill: none; stroke: #ff0000; stroke-width: 2; stroke-linejoin: miter"/>
   </g>
   <g id="patch_30">
    <path d="M 208.847895 376.002715 
C 220.891141 376.002715 232.442747 371.217882 240.958608 362.702022 
C 249.474469 354.186161 254.259301 342.634554 254.259301 330.591309 
C 254.259301 318.548063 249.474469 306.996456 240.958608 298.480596 
C 232.442747 289.964735 220.891141 285.179903 208.847895 285.179903 
C 196.804649 285.179903 185.253043 289.964735 176.737182 298.480596 
C 168.221321 306.996456 163.436489 318.548063 163.436489 330.591309 
C 163.436489 342.634554 168.221321 354.186161 176.737182 362.702022 
C 185.253043 371.217882 196.804649 376.002715 208.847895 376.002715 
L 208.847895 376.002715 
z
" clip-path="url(#p9f6448d5d8)" style="fill: none; stroke: #ff0000; stroke-width: 2; stroke-linejoin: miter"/>
   </g>
   <g id="patch_31">
    <path d="M 262.281614 367.302666 
C 274.324859 367.302666 285.876466 362.517834 294.392327 354.001973 
C 302.908188 345.486113 307.69302 333.934506 307.69302 321.89126 
C 307.69302 309.848015 302.908188 298.296408 294.392327 289.780547 
C 285.876466 281.264687 274.324859 276.479854 262.281614 276.479854 
C 250.238368 276.479854 238.686761 281.264687 230.170901 289.780547 
C 221.65504 298.296408 216.870208 309.848015 216.870208 321.89126 
C 216.870208 333.934506 221.65504 345.486113 230.170901 354.001973 
C 238.686761 362.517834 250.238368 367.302666 262.281614 367.302666 
L 262.281614 367.302666 
z
" clip-path="url(#p9f6448d5d8)" style="fill: none; stroke: #ff0000; stroke-width: 2; stroke-linejoin: miter"/>
   </g>
   <g id="patch_32">
    <path d="M 316.164517 295.1505 
C 328.207763 295.1505 339.75937 290.365668 348.275231 281.849807 
C 356.791091 273.333946 361.575923 261.782339 361.575923 249.739094 
C 361.575923 237.695848 356.791091 226.144241 348.275231 217.628381 
C 339.75937 209.11252 328.207763 204.327688 316.164517 204.327688 
C 304.121272 204.327688 292.569665 209.11252 284.053804 217.628381 
C 275.537944 226.144241 270.753112 237.695848 270.753112 249.739094 
C 270.753112 261.782339 275.537944 273.333946 284.053804 281.849807 
C 292.569665 290.365668 304.121272 295.1505 316.164517 295.1505 
L 316.164517 295.1505 
z
" clip-path="url(#p9f6448d5d8)" style="fill: none; stroke: #ff0000; stroke-width: 2; stroke-linejoin: miter"/>
   </g>
   <g id="patch_33">
    <path d="M 446.633793 257.556411 
C 458.677039 257.556411 470.228645 252.771579 478.744506 244.255718 
C 487.260367 235.739857 492.045199 224.188251 492.045199 212.145005 
C 492.045199 200.101759 487.260367 188.550153 478.744506 180.034292 
C 470.228645 171.518431 458.677039 166.733599 446.633793 166.733599 
C 434.590547 166.733599 423.038941 171.518431 414.52308 180.034292 
C 406.007219 188.550153 401.222387 200.101759 401.222387 212.145005 
C 401.222387 224.188251 406.007219 235.739857 414.52308 244.255718 
C 423.038941 252.771579 434.590547 257.556411 446.633793 257.556411 
L 446.633793 257.556411 
z
" clip-path="url(#p9f6448d5d8)" style="fill: none; stroke: #ff0000; stroke-width: 2; stroke-linejoin: miter"/>
   </g>
   <g id="patch_34">
    <path d="M 420.798862 198.047415 
C 432.842108 198.047415 444.393714 193.262582 452.909575 184.746722 
C 461.425436 176.230861 466.210268 164.679254 466.210268 152.636009 
C 466.210268 140.592763 461.425436 129.041156 452.909575 120.525296 
C 444.393714 112.009435 432.842108 107.224603 420.798862 107.224603 
C 408.755616 107.224603 397.20401 112.009435 388.688149 120.525296 
C 380.172288 129.041156 375.387456 140.592763 375.387456 152.636009 
C 375.387456 164.679254 380.172288 176.230861 388.688149 184.746722 
C 397.20401 193.262582 408.755616 198.047415 420.798862 198.047415 
L 420.798862 198.047415 
z
" clip-path="url(#p9f6448d5d8)" style="fill: none; stroke: #ff0000; stroke-width: 2; stroke-linejoin: miter"/>
   </g>
   <g id="patch_35">
    <path d="M 376.644757 187.435589 
C 388.688003 187.435589 400.23961 182.650757 408.755471 174.134897 
C 417.271331 165.619036 422.056163 154.067429 422.056163 142.024184 
C 422.056163 129.980938 417.271331 118.429331 408.755471 109.913471 
C 400.23961 101.39761 388.688003 96.612778 376.644757 96.612778 
C 364.601512 96.612778 353.049905 101.39761 344.534044 109.913471 
C 336.018184 118.429331 331.233352 129.980938 331.233352 142.024184 
C 331.233352 154.067429 336.018184 165.619036 344.534044 174.134897 
C 353.049905 182.650757 364.601512 187.435589 376.644757 187.435589 
L 376.644757 187.435589 
z
" clip-path="url(#p9f6448d5d8)" style="fill: none; stroke: #ff0000; stroke-width: 2; stroke-linejoin: miter"/>
   </g>
   <g id="patch_36">
    <path d="M 302.490014 254.614297 
C 314.53326 254.614297 326.084867 249.829464 334.600727 241.313604 
C 343.116588 232.797743 347.90142 221.246136 347.90142 209.202891 
C 347.90142 197.159645 343.116588 185.608038 334.600727 177.092178 
C 326.084867 168.576317 314.53326 163.791485 302.490014 163.791485 
C 290.446769 163.791485 278.895162 168.576317 270.379301 177.092178 
C 261.863441 185.608038 257.078608 197.159645 257.078608 209.202891 
C 257.078608 221.246136 261.863441 232.797743 270.379301 241.313604 
C 278.895162 249.829464 290.446769 254.614297 302.490014 254.614297 
L 302.490014 254.614297 
z
" clip-path="url(#p9f6448d5d8)" style="fill: none; stroke: #ff0000; stroke-width: 2; stroke-linejoin: miter"/>
   </g>
   <g id="patch_37">
    <path d="M 302.980353 271.959641 
C 315.023599 271.959641 326.575205 267.174809 335.091066 258.658948 
C 343.606927 250.143087 348.391759 238.59148 348.391759 226.548235 
C 348.391759 214.504989 343.606927 202.953382 335.091066 194.437522 
C 326.575205 185.921661 315.023599 181.136829 302.980353 181.136829 
C 290.937107 181.136829 279.385501 185.921661 270.86964 194.437522 
C 262.353779 202.953382 257.568947 214.504989 257.568947 226.548235 
C 257.568947 238.59148 262.353779 250.143087 270.86964 258.658948 
C 279.385501 267.174809 290.937107 271.959641 302.980353 271.959641 
L 302.980353 271.959641 
z
" clip-path="url(#p9f6448d5d8)" style="fill: none; stroke: #ff0000; stroke-width: 2; stroke-linejoin: miter"/>
   </g>
   <g id="patch_38">
    <path d="M 367.241323 329.63968 
C 379.284568 329.63968 390.836175 324.854847 399.352036 316.338987 
C 407.867896 307.823126 412.652728 296.271519 412.652728 284.228274 
C 412.652728 272.185028 407.867896 260.633421 399.352036 252.117561 
C 390.836175 243.6017 379.284568 238.816868 367.241323 238.816868 
C 355.198077 238.816868 343.64647 243.6017 335.13061 252.117561 
C 326.614749 260.633421 321.829917 272.185028 321.829917 284.228274 
C 321.829917 296.271519 326.614749 307.823126 335.13061 316.338987 
C 343.64647 324.854847 355.198077 329.63968 367.241323 329.63968 
L 367.241323 329.63968 
z
" clip-path="url(#p9f6448d5d8)" style="fill: none; stroke: #ff0000; stroke-width: 2; stroke-linejoin: miter"/>
   </g>
   <g id="patch_39">
    <path d="M 421.154323 322.291341 
C 433.197569 322.291341 444.749176 317.506509 453.265036 308.990648 
C 461.780897 300.474788 466.565729 288.923181 466.565729 276.879935 
C 466.565729 264.83669 461.780897 253.285083 453.265036 244.769222 
C 444.749176 236.253362 433.197569 231.46853 421.154323 231.46853 
C 409.111078 231.46853 397.559471 236.253362 389.04361 244.769222 
C 380.527749 253.285083 375.742917 264.83669 375.742917 276.879935 
C 375.742917 288.923181 380.527749 300.474788 389.04361 308.990648 
C 397.559471 317.506509 409.111078 322.291341 421.154323 322.291341 
L 421.154323 322.291341 
z
" clip-path="url(#p9f6448d5d8)" style="fill: none; stroke: #ff0000; stroke-width: 2; stroke-linejoin: miter"/>
   </g>
   <g id="line2d_1">
    <path d="M 319.824154 228.195473 
L 316.164517 249.739094 
" clip-path="url(#p9f6448d5d8)" style="fill: none; stroke: #000000; stroke-width: 2; stroke-linecap: square"/>
   </g>
   <g id="line2d_2">
    <path d="M 319.824154 228.195473 
L 302.490014 209.202891 
" clip-path="url(#p9f6448d5d8)" style="fill: none; stroke: #000000; stroke-width: 2; stroke-linecap: square"/>
   </g>
   <g id="line2d_3">
    <path d="M 319.824154 228.195473 
L 302.980353 226.548235 
" clip-path="url(#p9f6448d5d8)" style="fill: none; stroke: #000000; stroke-width: 2; stroke-linecap: square"/>
   </g>
   <g id="line2d_4">
    <path d="M 182.340397 90.708691 
L 181.629464 111.197194 
" clip-path="url(#p9f6448d5d8)" style="fill: none; stroke: #000000; stroke-width: 2; stroke-linecap: square"/>
   </g>
   <g id="line2d_5">
    <path d="M 100.823985 277.190097 
L 116.178287 301.335338 
" clip-path="url(#p9f6448d5d8)" style="fill: none; stroke: #000000; stroke-width: 2; stroke-linecap: square"/>
   </g>
   <g id="line2d_6">
    <path d="M 316.164517 249.739094 
L 302.490014 209.202891 
" clip-path="url(#p9f6448d5d8)" style="fill: none; stroke: #000000; stroke-width: 2; stroke-linecap: square"/>
   </g>
   <g id="line2d_7">
    <path d="M 316.164517 249.739094 
L 302.980353 226.548235 
" clip-path="url(#p9f6448d5d8)" style="fill: none; stroke: #000000; stroke-width: 2; stroke-linecap: square"/>
   </g>
   <g id="line2d_8">
    <path d="M 420.798862 152.636009 
L 376.644757 142.024184 
" clip-path="url(#p9f6448d5d8)" style="fill: none; stroke: #000000; stroke-width: 2; stroke-linecap: square"/>
   </g>
   <g id="line2d_9">
    <path d="M 302.490014 209.202891 
L 302.980353 226.548235 
" clip-path="url(#p9f6448d5d8)" style="fill: none; stroke: #000000; stroke-width: 2; stroke-linecap: square"/>
   </g>
   <g id="PathCollection_2">
    <defs>
     <path id="m1a8ececfa5" d="M 0 3 
C 0.795609 3 1.55874 2.683901 2.12132 2.12132 
C 2.683901 1.55874 3 0.795609 3 0 
C 3 -0.795609 2.683901 -1.55874 2.12132 -2.12132 
C 1.55874 -2.683901 0.795609 -3 0 -3 
C -0.795609 -3 -1.55874 -2.683901 -2.12132 -2.12132 
C -2.683901 -1.55874 -3 -0.795609 -3 0 
C -3 0.795609 -2.683901 1.55874 -2.12132 2.12132 
C -1.55874 2.683901 -0.795609 3 0 3 
z
" style="stroke: #0000ff"/>
    </defs>
    <g clip-path="url(#p9f6448d5d8)">
     <use xlink:href="#m1a8ececfa5" x="319.824154" y="228.195473" style="fill: #0000ff; stroke: #0000ff"/>
     <use xlink:href="#m1a8ececfa5" x="305.527927" y="161.557491" style="fill: #0000ff; stroke: #0000ff"/>
     <use xlink:href="#m1a8ececfa5" x="228.59678" y="95.435974" style="fill: #0000ff; stroke: #0000ff"/>
     <use xlink:href="#m1a8ececfa5" x="182.340397" y="90.708691" style="fill: #0000ff; stroke: #0000ff"/>
     <use xlink:href="#m1a8ececfa5" x="181.629464" y="111.197194" style="fill: #0000ff; stroke: #0000ff"/>
     <use xlink:href="#m1a8ececfa5" x="109.618952" y="159.538843" style="fill: #0000ff; stroke: #0000ff"/>
     <use xlink:href="#m1a8ececfa5" x="79.23399" y="203.924402" style="fill: #0000ff; stroke: #0000ff"/>
     <use xlink:href="#m1a8ececfa5" x="100.823985" y="277.190097" style="fill: #0000ff; stroke: #0000ff"/>
     <use xlink:href="#m1a8ececfa5" x="116.178287" y="301.335338" style="fill: #0000ff; stroke: #0000ff"/>
     <use xlink:href="#m1a8ececfa5" x="208.847895" y="330.591309" style="fill: #0000ff; stroke: #0000ff"/>
     <use xlink:href="#m1a8ececfa5" x="262.281614" y="321.89126" style="fill: #0000ff; stroke: #0000ff"/>
     <use xlink:href="#m1a8ececfa5" x="316.164517" y="249.739094" style="fill: #0000ff; stroke: #0000ff"/>
     <use xlink:href="#m1a8ececfa5" x="446.633793" y="212.145005" style="fill: #0000ff; stroke: #0000ff"/>
     <use xlink:href="#m1a8ececfa5" x="420.798862" y="152.636009" style="fill: #0000ff; stroke: #0000ff"/>
     <use xlink:href="#m1a8ececfa5" x="376.644757" y="142.024184" style="fill: #0000ff; stroke: #0000ff"/>
     <use xlink:href="#m1a8ececfa5" x="302.490014" y="209.202891" style="fill: #0000ff; stroke: #0000ff"/>
     <use xlink:href="#m1a8ececfa5" x="302.980353" y="226.548235" style="fill: #0000ff; stroke: #0000ff"/>
     <use xlink:href="#m1a8ececfa5" x="367.241323" y="284.228274" style="fill: #0000ff; stroke: #0000ff"/>
     <use xlink:href="#m1a8ececfa5" x="421.154323" y="276.879935" style="fill: #0000ff; stroke: #0000ff"/>
    </g>
   </g>
  </g>
  <g id="axes_2">
   <g id="patch_40">
    <path d="M 554.132217 414.1 
L 1065.6 414.1 
L 1065.6 7.2 
L 554.132217 7.2 
z
" style="fill: #ffffff"/>
   </g>
   <g id="matplotlib.axis_1">
    <g id="xtick_1">
     <g id="line2d_10">
      <defs>
       <path id="m3bce9d354c" d="M 0 0 
L 0 3.5 
" style="stroke: #000000; stroke-width: 0.8"/>
      </defs>
      <g>
       <use xlink:href="#m3bce9d354c" x="567.591895" y="414.1" style="stroke: #000000; stroke-width: 0.8"/>
      </g>
     </g>
    </g>
    <g id="xtick_2">
     <g id="line2d_11">
      <g>
       <use xlink:href="#m3bce9d354c" x="594.511252" y="414.1" style="stroke: #000000; stroke-width: 0.8"/>
      </g>
     </g>
    </g>
    <g id="xtick_3">
     <g id="line2d_12">
      <g>
       <use xlink:href="#m3bce9d354c" x="621.430609" y="414.1" style="stroke: #000000; stroke-width: 0.8"/>
      </g>
     </g>
    </g>
    <g id="xtick_4">
     <g id="line2d_13">
      <g>
       <use xlink:href="#m3bce9d354c" x="648.349966" y="414.1" style="stroke: #000000; stroke-width: 0.8"/>
      </g>
     </g>
    </g>
    <g id="xtick_5">
     <g id="line2d_14">
      <g>
       <use xlink:href="#m3bce9d354c" x="675.269323" y="414.1" style="stroke: #000000; stroke-width: 0.8"/>
      </g>
     </g>
    </g>
    <g id="xtick_6">
     <g id="line2d_15">
      <g>
       <use xlink:href="#m3bce9d354c" x="702.18868" y="414.1" style="stroke: #000000; stroke-width: 0.8"/>
      </g>
     </g>
    </g>
    <g id="xtick_7">
     <g id="line2d_16">
      <g>
       <use xlink:href="#m3bce9d354c" x="729.108037" y="414.1" style="stroke: #000000; stroke-width: 0.8"/>
      </g>
     </g>
    </g>
    <g id="xtick_8">
     <g id="line2d_17">
      <g>
       <use xlink:href="#m3bce9d354c" x="756.027394" y="414.1" style="stroke: #000000; stroke-width: 0.8"/>
      </g>
     </g>
    </g>
    <g id="xtick_9">
     <g id="line2d_18">
      <g>
       <use xlink:href="#m3bce9d354c" x="782.946751" y="414.1" style="stroke: #000000; stroke-width: 0.8"/>
      </g>
     </g>
    </g>
    <g id="xtick_10">
     <g id="line2d_19">
      <g>
       <use xlink:href="#m3bce9d354c" x="809.866108" y="414.1" style="stroke: #000000; stroke-width: 0.8"/>
      </g>
     </g>
    </g>
    <g id="xtick_11">
     <g id="line2d_20">
      <g>
       <use xlink:href="#m3bce9d354c" x="836.785465" y="414.1" style="stroke: #000000; stroke-width: 0.8"/>
      </g>
     </g>
    </g>
    <g id="xtick_12">
     <g id="line2d_21">
      <g>
       <use xlink:href="#m3bce9d354c" x="863.704822" y="414.1" style="stroke: #000000; stroke-width: 0.8"/>
      </g>
     </g>
    </g>
    <g id="xtick_13">
     <g id="line2d_22">
      <g>
       <use xlink:href="#m3bce9d354c" x="890.624179" y="414.1" style="stroke: #000000; stroke-width: 0.8"/>
      </g>
     </g>
    </g>
    <g id="xtick_14">
     <g id="line2d_23">
      <g>
       <use xlink:href="#m3bce9d354c" x="917.543536" y="414.1" style="stroke: #000000; stroke-width: 0.8"/>
      </g>
     </g>
    </g>
    <g id="xtick_15">
     <g id="line2d_24">
      <g>
       <use xlink:href="#m3bce9d354c" x="944.462893" y="414.1" style="stroke: #000000; stroke-width: 0.8"/>
      </g>
     </g>
    </g>
    <g id="xtick_16">
     <g id="line2d_25">
      <g>
       <use xlink:href="#m3bce9d354c" x="971.38225" y="414.1" style="stroke: #000000; stroke-width: 0.8"/>
      </g>
     </g>
    </g>
    <g id="xtick_17">
     <g id="line2d_26">
      <g>
       <use xlink:href="#m3bce9d354c" x="998.301607" y="414.1" style="stroke: #000000; stroke-width: 0.8"/>
      </g>
     </g>
    </g>
    <g id="xtick_18">
     <g id="line2d_27">
      <g>
       <use xlink:href="#m3bce9d354c" x="1025.220964" y="414.1" style="stroke: #000000; stroke-width: 0.8"/>
      </g>
     </g>
    </g>
    <g id="xtick_19">
     <g id="line2d_28">
      <g>
       <use xlink:href="#m3bce9d354c" x="1052.140321" y="414.1" style="stroke: #000000; stroke-width: 0.8"/>
      </g>
     </g>
    </g>
   </g>
   <g id="matplotlib.axis_2">
    <g id="ytick_1">
     <g id="line2d_29">
      <defs>
       <path id="m9e47c74ffa" d="M 0 0 
L -3.5 0 
" style="stroke: #000000; stroke-width: 0.8"/>
      </defs>
      <g>
       <use xlink:href="#m9e47c74ffa" x="554.132217" y="253.682782" style="stroke: #000000; stroke-width: 0.8"/>
      </g>
     </g>
     <g id="text_1">
      <!-- $r_{6}$ -->
      <g transform="translate(529.332217 261.28122) scale(0.2 -0.2)">
       <defs>
        <path id="DejaVuSans-Oblique-72" d="M 2853 2969 
Q 2766 3016 2653 3041 
Q 2541 3066 2413 3066 
Q 1953 3066 1609 2717 
Q 1266 2369 1153 1784 
L 800 0 
L 225 0 
L 909 3500 
L 1484 3500 
L 1375 2956 
Q 1603 3259 1920 3421 
Q 2238 3584 2597 3584 
Q 2691 3584 2781 3573 
Q 2872 3563 2963 3538 
L 2853 2969 
z
" transform="scale(0.015625)"/>
        <path id="DejaVuSans-36" d="M 2113 2584 
Q 1688 2584 1439 2293 
Q 1191 2003 1191 1497 
Q 1191 994 1439 701 
Q 1688 409 2113 409 
Q 2538 409 2786 701 
Q 3034 994 3034 1497 
Q 3034 2003 2786 2293 
Q 2538 2584 2113 2584 
z
M 3366 4563 
L 3366 3988 
Q 3128 4100 2886 4159 
Q 2644 4219 2406 4219 
Q 1781 4219 1451 3797 
Q 1122 3375 1075 2522 
Q 1259 2794 1537 2939 
Q 1816 3084 2150 3084 
Q 2853 3084 3261 2657 
Q 3669 2231 3669 1497 
Q 3669 778 3244 343 
Q 2819 -91 2113 -91 
Q 1303 -91 875 529 
Q 447 1150 447 2328 
Q 447 3434 972 4092 
Q 1497 4750 2381 4750 
Q 2619 4750 2861 4703 
Q 3103 4656 3366 4563 
z
" transform="scale(0.015625)"/>
       </defs>
       <use xlink:href="#DejaVuSans-Oblique-72"/>
       <use xlink:href="#DejaVuSans-36" transform="translate(41.113281 -16.40625) scale(0.7)"/>
      </g>
     </g>
    </g>
   </g>
   <g id="line2d_30">
    <path d="M 594.511252 414.1 
L 594.511252 341.680163 
L 621.430609 341.680163 
L 621.430609 414.1 
" clip-path="url(#p8df3ff67e8)" style="fill: none; stroke: #ff0000; stroke-width: 5; stroke-linecap: square"/>
   </g>
   <g id="line2d_31">
    <path d="M 648.349966 414.1 
L 648.349966 313.020995 
L 675.269323 313.020995 
L 675.269323 414.1 
" clip-path="url(#p8df3ff67e8)" style="fill: none; stroke: #ff0000; stroke-width: 5; stroke-linecap: square"/>
   </g>
   <g id="line2d_32">
    <path d="M 890.624179 414.1 
L 890.624179 354.314891 
L 917.543536 354.314891 
L 917.543536 414.1 
" clip-path="url(#p8df3ff67e8)" style="fill: none; stroke: #ff0000; stroke-width: 5; stroke-linecap: square"/>
   </g>
   <g id="line2d_33">
    <path d="M 863.704822 414.1 
L 863.704822 352.802549 
L 904.083858 352.802549 
L 904.083858 354.314891 
" clip-path="url(#p8df3ff67e8)" style="fill: none; stroke: #ff0000; stroke-width: 5; stroke-linecap: square"/>
   </g>
   <g id="line2d_34">
    <path d="M 836.785465 414.1 
L 836.785465 336.906263 
L 883.89434 336.906263 
L 883.89434 352.802549 
" clip-path="url(#p8df3ff67e8)" style="fill: none; stroke: #ff0000; stroke-width: 5; stroke-linecap: square"/>
   </g>
   <g id="line2d_35">
    <path d="M 1025.220964 414.1 
L 1025.220964 253.682782 
L 1052.140321 253.682782 
L 1052.140321 414.1 
" clip-path="url(#p8df3ff67e8)" style="fill: none; stroke: #ff0000; stroke-width: 5; stroke-linecap: square"/>
   </g>
   <g id="line2d_36">
    <path d="M 567.591895 414.1 
L 567.591895 253.682782 
" clip-path="url(#p8df3ff67e8)" style="fill: none; stroke: #ff0000; stroke-width: 5; stroke-linecap: square"/>
   </g>
   <g id="line2d_37">
    <path d="M 702.18868 414.1 
L 702.18868 253.682782 
" clip-path="url(#p8df3ff67e8)" style="fill: none; stroke: #ff0000; stroke-width: 5; stroke-linecap: square"/>
   </g>
   <g id="line2d_38">
    <path d="M 729.108037 414.1 
L 729.108037 253.682782 
" clip-path="url(#p8df3ff67e8)" style="fill: none; stroke: #ff0000; stroke-width: 5; stroke-linecap: square"/>
   </g>
   <g id="line2d_39">
    <path d="M 756.027394 414.1 
L 756.027394 253.682782 
" clip-path="url(#p8df3ff67e8)" style="fill: none; stroke: #ff0000; stroke-width: 5; stroke-linecap: square"/>
   </g>
   <g id="line2d_40">
    <path d="M 782.946751 414.1 
L 782.946751 253.682782 
" clip-path="url(#p8df3ff67e8)" style="fill: none; stroke: #ff0000; stroke-width: 5; stroke-linecap: square"/>
   </g>
   <g id="line2d_41">
    <path d="M 809.866108 414.1 
L 809.866108 253.682782 
" clip-path="url(#p8df3ff67e8)" style="fill: none; stroke: #ff0000; stroke-width: 5; stroke-linecap: square"/>
   </g>
   <g id="line2d_42">
    <path d="M 944.462893 414.1 
L 944.462893 253.682782 
" clip-path="url(#p8df3ff67e8)" style="fill: none; stroke: #ff0000; stroke-width: 5; stroke-linecap: square"/>
   </g>
   <g id="line2d_43">
    <path d="M 971.38225 414.1 
L 971.38225 253.682782 
" clip-path="url(#p8df3ff67e8)" style="fill: none; stroke: #ff0000; stroke-width: 5; stroke-linecap: square"/>
   </g>
   <g id="line2d_44">
    <path d="M 998.301607 414.1 
L 998.301607 253.682782 
" clip-path="url(#p8df3ff67e8)" style="fill: none; stroke: #ff0000; stroke-width: 5; stroke-linecap: square"/>
   </g>
   <g id="line2d_45">
    <path d="M 607.970931 341.680163 
L 607.970931 253.682782 
" clip-path="url(#p8df3ff67e8)" style="fill: none; stroke: #ff0000; stroke-width: 5; stroke-linecap: square"/>
   </g>
   <g id="line2d_46">
    <path d="M 661.809645 313.020995 
L 661.809645 253.682782 
" clip-path="url(#p8df3ff67e8)" style="fill: none; stroke: #ff0000; stroke-width: 5; stroke-linecap: square"/>
   </g>
   <g id="line2d_47">
    <path d="M 860.339903 336.906263 
L 860.339903 253.682782 
" clip-path="url(#p8df3ff67e8)" style="fill: none; stroke: #ff0000; stroke-width: 5; stroke-linecap: square"/>
   </g>
   <g id="line2d_48">
    <path d="M 1038.680643 253.682782 
L 1038.680643 253.682782 
" clip-path="url(#p8df3ff67e8)" style="fill: none; stroke: #ff0000; stroke-width: 5; stroke-linecap: square"/>
   </g>
   <g id="patch_41">
    <path d="M 554.132217 414.1 
L 554.132217 7.2 
" style="fill: none; stroke: #000000; stroke-width: 0.8; stroke-linejoin: miter; stroke-linecap: square"/>
   </g>
   <g id="patch_42">
    <path d="M 1065.6 414.1 
L 1065.6 7.2 
" style="fill: none; stroke: #000000; stroke-width: 0.8; stroke-linejoin: miter; stroke-linecap: square"/>
   </g>
   <g id="patch_43">
    <path d="M 554.132217 414.1 
L 1065.6 414.1 
" style="fill: none; stroke: #000000; stroke-width: 0.8; stroke-linejoin: miter; stroke-linecap: square"/>
   </g>
   <g id="patch_44">
    <path d="M 554.132217 7.2 
L 1065.6 7.2 
" style="fill: none; stroke: #000000; stroke-width: 0.8; stroke-linejoin: miter; stroke-linecap: square"/>
   </g>
   <g id="PathCollection_3">
    <defs>
     <path id="m6bbdb40bda" d="M 0 6.123724 
C 1.624031 6.123724 3.181764 5.47849 4.330127 4.330127 
C 5.47849 3.181764 6.123724 1.624031 6.123724 0 
C 6.123724 -1.624031 5.47849 -3.181764 4.330127 -4.330127 
C 3.181764 -5.47849 1.624031 -6.123724 0 -6.123724 
C -1.624031 -6.123724 -3.181764 -5.47849 -4.330127 -4.330127 
C -5.47849 -3.181764 -6.123724 -1.624031 -6.123724 0 
C -6.123724 1.624031 -5.47849 3.181764 -4.330127 4.330127 
C -3.181764 5.47849 -1.624031 6.123724 0 6.123724 
z
" style="stroke: #0000ff"/>
    </defs>
    <g clip-path="url(#p8df3ff67e8)">
     <use xlink:href="#m6bbdb40bda" x="567.591895" y="414.1" style="fill: #0000ff; stroke: #0000ff"/>
     <use xlink:href="#m6bbdb40bda" x="594.511252" y="414.1" style="fill: #0000ff; stroke: #0000ff"/>
     <use xlink:href="#m6bbdb40bda" x="621.430609" y="414.1" style="fill: #0000ff; stroke: #0000ff"/>
     <use xlink:href="#m6bbdb40bda" x="648.349966" y="414.1" style="fill: #0000ff; stroke: #0000ff"/>
     <use xlink:href="#m6bbdb40bda" x="675.269323" y="414.1" style="fill: #0000ff; stroke: #0000ff"/>
     <use xlink:href="#m6bbdb40bda" x="702.18868" y="414.1" style="fill: #0000ff; stroke: #0000ff"/>
     <use xlink:href="#m6bbdb40bda" x="729.108037" y="414.1" style="fill: #0000ff; stroke: #0000ff"/>
     <use xlink:href="#m6bbdb40bda" x="756.027394" y="414.1" style="fill: #0000ff; stroke: #0000ff"/>
     <use xlink:href="#m6bbdb40bda" x="782.946751" y="414.1" style="fill: #0000ff; stroke: #0000ff"/>
     <use xlink:href="#m6bbdb40bda" x="809.866108" y="414.1" style="fill: #0000ff; stroke: #0000ff"/>
     <use xlink:href="#m6bbdb40bda" x="836.785465" y="414.1" style="fill: #0000ff; stroke: #0000ff"/>
     <use xlink:href="#m6bbdb40bda" x="863.704822" y="414.1" style="fill: #0000ff; stroke: #0000ff"/>
     <use xlink:href="#m6bbdb40bda" x="890.624179" y="414.1" style="fill: #0000ff; stroke: #0000ff"/>
     <use xlink:href="#m6bbdb40bda" x="917.543536" y="414.1" style="fill: #0000ff; stroke: #0000ff"/>
     <use xlink:href="#m6bbdb40bda" x="944.462893" y="414.1" style="fill: #0000ff; stroke: #0000ff"/>
     <use xlink:href="#m6bbdb40bda" x="971.38225" y="414.1" style="fill: #0000ff; stroke: #0000ff"/>
     <use xlink:href="#m6bbdb40bda" x="998.301607" y="414.1" style="fill: #0000ff; stroke: #0000ff"/>
     <use xlink:href="#m6bbdb40bda" x="1025.220964" y="414.1" style="fill: #0000ff; stroke: #0000ff"/>
     <use xlink:href="#m6bbdb40bda" x="1052.140321" y="414.1" style="fill: #0000ff; stroke: #0000ff"/>
    </g>
   </g>
  </g>
 </g>
 <defs>
  <clipPath id="p9f6448d5d8">
   <rect x="7.2" y="18.674701" width="511.467783" height="383.950598"/>
  </clipPath>
  <clipPath id="p8df3ff67e8">
   <rect x="554.132217" y="7.2" width="511.467783" height="406.9"/>
  </clipPath>
 </defs>
</svg>
