<?xml version="1.0" encoding="utf-8" standalone="no"?>
<!DOCTYPE svg PUBLIC "-//W3C//DTD SVG 1.1//EN"
  "http://www.w3.org/Graphics/SVG/1.1/DTD/svg11.dtd">
<svg xmlns:xlink="http://www.w3.org/1999/xlink" width="1072.8pt" height="424.8pt" viewBox="0 0 1072.8 424.8" xmlns="http://www.w3.org/2000/svg" version="1.1">
 <metadata>
  <rdf:RDF xmlns:dc="http://purl.org/dc/elements/1.1/" xmlns:cc="http://creativecommons.org/ns#" xmlns:rdf="http://www.w3.org/1999/02/22-rdf-syntax-ns#">
   <cc:Work>
    <dc:type rdf:resource="http://purl.org/dc/dcmitype/StillImage"/>
    <dc:date>2023-10-24T09:47:31.334944</dc:date>
    <dc:format>image/svg+xml</dc:format>
    <dc:creator>
     <cc:Agent>
      <dc:title>Matplotlib v3.7.2, https://matplotlib.org/</dc:title>
     </cc:Agent>
    </dc:creator>
   </cc:Work>
  </rdf:RDF>
 </metadata>
 <defs>
  <style type="text/css">*{stroke-linejoin: round; stroke-linecap: butt}</style>
 </defs>
 <g id="figure_1">
  <g id="patch_1">
   <path d="M 0 424.8 
L 1072.8 424.8 
L 1072.8 -0 
L 0 -0 
z
" style="fill: #ffffff"/>
  </g>
  <g id="axes_1">
   <g id="PathCollection_1">
    <defs>
     <path id="mc623fbe23b" d="M 0 3 
C 0.795609 3 1.55874 2.683901 2.12132 2.12132 
C 2.683901 1.55874 3 0.795609 3 0 
C 3 -0.795609 2.683901 -1.55874 2.12132 -2.12132 
C 1.55874 -2.683901 0.795609 -3 0 -3 
C -0.795609 -3 -1.55874 -2.683901 -2.12132 -2.12132 
C -2.683901 -1.55874 -3 -0.795609 -3 0 
C -3 0.795609 -2.683901 1.55874 -2.12132 2.12132 
C -1.55874 2.683901 -0.795609 3 0 3 
z
" style="stroke: #1f77b4; stroke-opacity: 0"/>
    </defs>
    <g clip-path="url(#p2c470db3e3)">
     <use xlink:href="#mc623fbe23b" x="7.2" y="400.959565" style="fill: #1f77b4; fill-opacity: 0; stroke: #1f77b4; stroke-opacity: 0"/>
     <use xlink:href="#mc623fbe23b" x="514.229874" y="20.340435" style="fill: #1f77b4; fill-opacity: 0; stroke: #1f77b4; stroke-opacity: 0"/>
    </g>
   </g>
   <g id="patch_2">
    <path d="M 317.111573 324.378061 
C 342.659868 324.378061 367.16521 314.227616 385.230582 296.162243 
C 403.295955 278.096871 413.4464 253.591529 413.4464 228.043234 
C 413.4464 202.494939 403.295955 177.989597 385.230582 159.924224 
C 367.16521 141.858852 342.659868 131.708407 317.111573 131.708407 
C 291.563278 131.708407 267.057936 141.858852 248.992564 159.924224 
C 230.927191 177.989597 220.776746 202.494939 220.776746 228.043234 
C 220.776746 253.591529 230.927191 278.096871 248.992564 296.162243 
C 267.057936 314.227616 291.563278 324.378061 317.111573 324.378061 
z
" clip-path="url(#p2c470db3e3)" style="fill: #ff0000; opacity: 0.2"/>
   </g>
   <g id="patch_3">
    <path d="M 302.939392 258.318284 
C 328.487687 258.318284 352.993029 248.167839 371.058401 230.102467 
C 389.123774 212.037094 399.274219 187.531752 399.274219 161.983457 
C 399.274219 136.435163 389.123774 111.929821 371.058401 93.864448 
C 352.993029 75.799076 328.487687 65.648631 302.939392 65.648631 
C 277.391097 65.648631 252.885755 75.799076 234.820382 93.864448 
C 216.75501 111.929821 206.604565 136.435163 206.604565 161.983457 
C 206.604565 187.531752 216.75501 212.037094 234.820382 230.102467 
C 252.885755 248.167839 277.391097 258.318284 302.939392 258.318284 
z
" clip-path="url(#p2c470db3e3)" style="fill: #ff0000; opacity: 0.2"/>
   </g>
   <g id="patch_4">
    <path d="M 226.675762 192.770492 
C 252.224057 192.770492 276.729399 182.620047 294.794771 164.554674 
C 312.860144 146.489302 323.010589 121.983959 323.010589 96.435665 
C 323.010589 70.88737 312.860144 46.382028 294.794771 28.316655 
C 276.729399 10.251283 252.224057 0.100838 226.675762 0.100838 
C 201.127467 0.100838 176.622125 10.251283 158.556753 28.316655 
C 140.49138 46.382028 130.340935 70.88737 130.340935 96.435665 
C 130.340935 121.983959 140.49138 146.489302 158.556753 164.554674 
C 176.622125 182.620047 201.127467 192.770492 226.675762 192.770492 
z
" clip-path="url(#p2c470db3e3)" style="fill: #ff0000; opacity: 0.2"/>
   </g>
   <g id="patch_5">
    <path d="M 180.820737 188.084226 
C 206.369032 188.084226 230.874374 177.933781 248.939746 159.868409 
C 267.005119 141.803036 277.155564 117.297694 277.155564 91.7494 
C 277.155564 66.201105 267.005119 41.695763 248.939746 23.63039 
C 230.874374 5.565018 206.369032 -4.585427 180.820737 -4.585427 
C 155.272442 -4.585427 130.7671 5.565018 112.701727 23.63039 
C 94.636355 41.695763 84.48591 66.201105 84.48591 91.7494 
C 84.48591 117.297694 94.636355 141.803036 112.701727 159.868409 
C 130.7671 177.933781 155.272442 188.084226 180.820737 188.084226 
z
" clip-path="url(#p2c470db3e3)" style="fill: #ff0000; opacity: 0.2"/>
   </g>
   <g id="patch_6">
    <path d="M 180.115973 208.394954 
C 205.664268 208.394954 230.16961 198.244509 248.234982 180.179137 
C 266.300355 162.113764 276.4508 137.608422 276.4508 112.060127 
C 276.4508 86.511832 266.300355 62.00649 248.234982 43.941118 
C 230.16961 25.875745 205.664268 15.7253 180.115973 15.7253 
C 154.567678 15.7253 130.062336 25.875745 111.996963 43.941118 
C 93.931591 62.00649 83.781146 86.511832 83.781146 112.060127 
C 83.781146 137.608422 93.931591 162.113764 111.996963 180.179137 
C 130.062336 198.244509 154.567678 208.394954 180.115973 208.394954 
z
" clip-path="url(#p2c470db3e3)" style="fill: #ff0000; opacity: 0.2"/>
   </g>
   <g id="patch_7">
    <path d="M 108.730282 256.317152 
C 134.278577 256.317152 158.783919 246.166707 176.849292 228.101335 
C 194.914664 210.035962 205.065109 185.53062 205.065109 159.982325 
C 205.065109 134.43403 194.914664 109.928688 176.849292 91.863316 
C 158.783919 73.797943 134.278577 63.647498 108.730282 63.647498 
C 83.181988 63.647498 58.676646 73.797943 40.611273 91.863316 
C 22.545901 109.928688 12.395456 134.43403 12.395456 159.982325 
C 12.395456 185.53062 22.545901 210.035962 40.611273 228.101335 
C 58.676646 246.166707 83.181988 256.317152 108.730282 256.317152 
z
" clip-path="url(#p2c470db3e3)" style="fill: #ff0000; opacity: 0.2"/>
   </g>
   <g id="patch_8">
    <path d="M 78.608965 300.317585 
C 104.15726 300.317585 128.662602 290.16714 146.727974 272.101768 
C 164.793347 254.036395 174.943792 229.531053 174.943792 203.982758 
C 174.943792 178.434464 164.793347 153.929121 146.727974 135.863749 
C 128.662602 117.798376 104.15726 107.647931 78.608965 107.647931 
C 53.06067 107.647931 28.555328 117.798376 10.489956 135.863749 
C -7.575417 153.929121 -17.725862 178.434464 -17.725862 203.982758 
C -17.725862 229.531053 -7.575417 254.036395 10.489956 272.101768 
C 28.555328 290.16714 53.06067 300.317585 78.608965 300.317585 
z
" clip-path="url(#p2c470db3e3)" style="fill: #ff0000; opacity: 0.2"/>
   </g>
   <g id="patch_9">
    <path d="M 100.011627 372.947568 
C 125.559922 372.947568 150.065264 362.797123 168.130636 344.731751 
C 186.196009 326.666378 196.346454 302.161036 196.346454 276.612742 
C 196.346454 251.064447 186.196009 226.559105 168.130636 208.493732 
C 150.065264 190.42836 125.559922 180.277915 100.011627 180.277915 
C 74.463332 180.277915 49.95799 190.42836 31.892617 208.493732 
C 13.827245 226.559105 3.6768 251.064447 3.6768 276.612742 
C 3.6768 302.161036 13.827245 326.666378 31.892617 344.731751 
C 49.95799 362.797123 74.463332 372.947568 100.011627 372.947568 
z
" clip-path="url(#p2c470db3e3)" style="fill: #ff0000; opacity: 0.2"/>
   </g>
   <g id="patch_10">
    <path d="M 115.232703 396.883305 
C 140.780998 396.883305 165.28634 386.73286 183.351713 368.667488 
C 201.417085 350.602115 211.56753 326.096773 211.56753 300.548478 
C 211.56753 275.000184 201.417085 250.494841 183.351713 232.429469 
C 165.28634 214.364096 140.780998 204.213651 115.232703 204.213651 
C 89.684408 204.213651 65.179066 214.364096 47.113694 232.429469 
C 29.048321 250.494841 18.897876 275.000184 18.897876 300.548478 
C 18.897876 326.096773 29.048321 350.602115 47.113694 368.667488 
C 65.179066 386.73286 89.684408 396.883305 115.232703 396.883305 
z
" clip-path="url(#p2c470db3e3)" style="fill: #ff0000; opacity: 0.2"/>
   </g>
   <g id="patch_11">
    <path d="M 207.098234 425.885427 
C 232.646529 425.885427 257.151871 415.734982 275.217244 397.66961 
C 293.282616 379.604237 303.433061 355.098895 303.433061 329.5506 
C 303.433061 304.002306 293.282616 279.496964 275.217244 261.431591 
C 257.151871 243.366219 232.646529 233.215774 207.098234 233.215774 
C 181.549939 233.215774 157.044597 243.366219 138.979225 261.431591 
C 120.913852 279.496964 110.763407 304.002306 110.763407 329.5506 
C 110.763407 355.098895 120.913852 379.604237 138.979225 397.66961 
C 157.044597 415.734982 181.549939 425.885427 207.098234 425.885427 
z
" clip-path="url(#p2c470db3e3)" style="fill: #ff0000; opacity: 0.2"/>
   </g>
   <g id="patch_12">
    <path d="M 260.068319 417.260868 
C 285.616613 417.260868 310.121956 407.110423 328.187328 389.04505 
C 346.252701 370.979678 356.403146 346.474336 356.403146 320.926041 
C 356.403146 295.377746 346.252701 270.872404 328.187328 252.807031 
C 310.121956 234.741659 285.616613 224.591214 260.068319 224.591214 
C 234.520024 224.591214 210.014682 234.741659 191.949309 252.807031 
C 173.883937 270.872404 163.733492 295.377746 163.733492 320.926041 
C 163.733492 346.474336 173.883937 370.979678 191.949309 389.04505 
C 210.014682 407.110423 234.520024 417.260868 260.068319 417.260868 
z
" clip-path="url(#p2c470db3e3)" style="fill: #ff0000; opacity: 0.2"/>
   </g>
   <g id="patch_13">
    <path d="M 313.483691 345.734752 
C 339.031985 345.734752 363.537327 335.584307 381.6027 317.518935 
C 399.668072 299.453562 409.818517 274.94822 409.818517 249.399925 
C 409.818517 223.85163 399.668072 199.346288 381.6027 181.280916 
C 363.537327 163.215543 339.031985 153.065098 313.483691 153.065098 
C 287.935396 153.065098 263.430054 163.215543 245.364681 181.280916 
C 227.299309 199.346288 217.148864 223.85163 217.148864 249.399925 
C 217.148864 274.94822 227.299309 299.453562 245.364681 317.518935 
C 263.430054 335.584307 287.935396 345.734752 313.483691 345.734752 
z
" clip-path="url(#p2c470db3e3)" style="fill: #ff0000; opacity: 0.2"/>
   </g>
   <g id="patch_14">
    <path d="M 442.820909 308.46686 
C 468.369203 308.46686 492.874546 298.316415 510.939918 280.251042 
C 529.00529 262.18567 539.155736 237.680328 539.155736 212.132033 
C 539.155736 186.583738 529.00529 162.078396 510.939918 144.013024 
C 492.874546 125.947651 468.369203 115.797206 442.820909 115.797206 
C 417.272614 115.797206 392.767272 125.947651 374.701899 144.013024 
C 356.636527 162.078396 346.486082 186.583738 346.486082 212.132033 
C 346.486082 237.680328 356.636527 262.18567 374.701899 280.251042 
C 392.767272 298.316415 417.272614 308.46686 442.820909 308.46686 
z
" clip-path="url(#p2c470db3e3)" style="fill: #ff0000; opacity: 0.2"/>
   </g>
   <g id="patch_15">
    <path d="M 417.210143 249.474212 
C 442.758437 249.474212 467.26378 239.323767 485.329152 221.258395 
C 503.394524 203.193022 513.54497 178.68768 513.54497 153.139385 
C 513.54497 127.59109 503.394524 103.085748 485.329152 85.020376 
C 467.26378 66.955003 442.758437 56.804558 417.210143 56.804558 
C 391.661848 56.804558 367.156506 66.955003 349.091133 85.020376 
C 331.025761 103.085748 320.875316 127.59109 320.875316 153.139385 
C 320.875316 178.68768 331.025761 203.193022 349.091133 221.258395 
C 367.156506 239.323767 391.661848 249.474212 417.210143 249.474212 
z
" clip-path="url(#p2c470db3e3)" style="fill: #ff0000; opacity: 0.2"/>
   </g>
   <g id="patch_16">
    <path d="M 373.439155 238.954464 
C 398.98745 238.954464 423.492792 228.804019 441.558164 210.738646 
C 459.623537 192.673274 469.773982 168.167932 469.773982 142.619637 
C 469.773982 117.071342 459.623537 92.566 441.558164 74.500628 
C 423.492792 56.435255 398.98745 46.28481 373.439155 46.28481 
C 347.89086 46.28481 323.385518 56.435255 305.320145 74.500628 
C 287.254773 92.566 277.104328 117.071342 277.104328 142.619637 
C 277.104328 168.167932 287.254773 192.673274 305.320145 210.738646 
C 323.385518 228.804019 347.89086 238.954464 373.439155 238.954464 
z
" clip-path="url(#p2c470db3e3)" style="fill: #ff0000; opacity: 0.2"/>
   </g>
   <g id="patch_17">
    <path d="M 299.927838 305.550274 
C 325.476133 305.550274 349.981475 295.399829 368.046848 277.334456 
C 386.11222 259.269084 396.262665 234.763742 396.262665 209.215447 
C 396.262665 183.667152 386.11222 159.16181 368.046848 141.096438 
C 349.981475 123.031065 325.476133 112.88062 299.927838 112.88062 
C 274.379544 112.88062 249.874201 123.031065 231.808829 141.096438 
C 213.743456 159.16181 203.593011 183.667152 203.593011 209.215447 
C 203.593011 234.763742 213.743456 259.269084 231.808829 277.334456 
C 249.874201 295.399829 274.379544 305.550274 299.927838 305.550274 
z
" clip-path="url(#p2c470db3e3)" style="fill: #ff0000; opacity: 0.2"/>
   </g>
   <g id="patch_18">
    <path d="M 300.413923 322.745116 
C 325.962217 322.745116 350.46756 312.594671 368.532932 294.529298 
C 386.598304 276.463926 396.74875 251.958584 396.74875 226.410289 
C 396.74875 200.861994 386.598304 176.356652 368.532932 158.291279 
C 350.46756 140.225907 325.962217 130.075462 300.413923 130.075462 
C 274.865628 130.075462 250.360286 140.225907 232.294913 158.291279 
C 214.229541 176.356652 204.079096 200.861994 204.079096 226.410289 
C 204.079096 251.958584 214.229541 276.463926 232.294913 294.529298 
C 250.360286 312.594671 274.865628 322.745116 300.413923 322.745116 
z
" clip-path="url(#p2c470db3e3)" style="fill: #ff0000; opacity: 0.2"/>
   </g>
   <g id="patch_19">
    <path d="M 364.117312 379.924676 
C 389.665607 379.924676 414.170949 369.774231 432.236321 351.708858 
C 450.301694 333.643486 460.452139 309.138144 460.452139 283.589849 
C 460.452139 258.041554 450.301694 233.536212 432.236321 215.47084 
C 414.170949 197.405467 389.665607 187.255022 364.117312 187.255022 
C 338.569017 187.255022 314.063675 197.405467 295.998302 215.47084 
C 277.93293 233.536212 267.782485 258.041554 267.782485 283.589849 
C 267.782485 309.138144 277.93293 333.643486 295.998302 351.708858 
C 314.063675 369.774231 338.569017 379.924676 364.117312 379.924676 
z
" clip-path="url(#p2c470db3e3)" style="fill: #ff0000; opacity: 0.2"/>
   </g>
   <g id="patch_20">
    <path d="M 417.562519 372.640098 
C 443.110814 372.640098 467.616156 362.489653 485.681529 344.42428 
C 503.746901 326.358908 513.897346 301.853565 513.897346 276.305271 
C 513.897346 250.756976 503.746901 226.251634 485.681529 208.186261 
C 467.616156 190.120889 443.110814 179.970444 417.562519 179.970444 
C 392.014225 179.970444 367.508882 190.120889 349.44351 208.186261 
C 331.378138 226.251634 321.227692 250.756976 321.227692 276.305271 
C 321.227692 301.853565 331.378138 326.358908 349.44351 344.42428 
C 367.508882 362.489653 392.014225 372.640098 417.562519 372.640098 
z
" clip-path="url(#p2c470db3e3)" style="fill: #ff0000; opacity: 0.2"/>
   </g>
   <g id="patch_21">
    <path d="M 317.111573 324.378061 
C 342.659868 324.378061 367.16521 314.227616 385.230582 296.162243 
C 403.295955 278.096871 413.4464 253.591529 413.4464 228.043234 
C 413.4464 202.494939 403.295955 177.989597 385.230582 159.924224 
C 367.16521 141.858852 342.659868 131.708407 317.111573 131.708407 
C 291.563278 131.708407 267.057936 141.858852 248.992564 159.924224 
C 230.927191 177.989597 220.776746 202.494939 220.776746 228.043234 
C 220.776746 253.591529 230.927191 278.096871 248.992564 296.162243 
C 267.057936 314.227616 291.563278 324.378061 317.111573 324.378061 
L 317.111573 324.378061 
z
" clip-path="url(#p2c470db3e3)" style="fill: none; stroke: #ff0000; stroke-width: 2; stroke-linejoin: miter"/>
   </g>
   <g id="patch_22">
    <path d="M 302.939392 258.318284 
C 328.487687 258.318284 352.993029 248.167839 371.058401 230.102467 
C 389.123774 212.037094 399.274219 187.531752 399.274219 161.983457 
C 399.274219 136.435163 389.123774 111.929821 371.058401 93.864448 
C 352.993029 75.799076 328.487687 65.648631 302.939392 65.648631 
C 277.391097 65.648631 252.885755 75.799076 234.820382 93.864448 
C 216.75501 111.929821 206.604565 136.435163 206.604565 161.983457 
C 206.604565 187.531752 216.75501 212.037094 234.820382 230.102467 
C 252.885755 248.167839 277.391097 258.318284 302.939392 258.318284 
L 302.939392 258.318284 
z
" clip-path="url(#p2c470db3e3)" style="fill: none; stroke: #ff0000; stroke-width: 2; stroke-linejoin: miter"/>
   </g>
   <g id="patch_23">
    <path d="M 226.675762 192.770492 
C 252.224057 192.770492 276.729399 182.620047 294.794771 164.554674 
C 312.860144 146.489302 323.010589 121.983959 323.010589 96.435665 
C 323.010589 70.88737 312.860144 46.382028 294.794771 28.316655 
C 276.729399 10.251283 252.224057 0.100838 226.675762 0.100838 
C 201.127467 0.100838 176.622125 10.251283 158.556753 28.316655 
C 140.49138 46.382028 130.340935 70.88737 130.340935 96.435665 
C 130.340935 121.983959 140.49138 146.489302 158.556753 164.554674 
C 176.622125 182.620047 201.127467 192.770492 226.675762 192.770492 
L 226.675762 192.770492 
z
" clip-path="url(#p2c470db3e3)" style="fill: none; stroke: #ff0000; stroke-width: 2; stroke-linejoin: miter"/>
   </g>
   <g id="patch_24">
    <path d="M 180.820737 188.084226 
C 206.369032 188.084226 230.874374 177.933781 248.939746 159.868409 
C 267.005119 141.803036 277.155564 117.297694 277.155564 91.7494 
C 277.155564 66.201105 267.005119 41.695763 248.939746 23.63039 
C 230.874374 5.565018 206.369032 -4.585427 180.820737 -4.585427 
C 155.272442 -4.585427 130.7671 5.565018 112.701727 23.63039 
C 94.636355 41.695763 84.48591 66.201105 84.48591 91.7494 
C 84.48591 117.297694 94.636355 141.803036 112.701727 159.868409 
C 130.7671 177.933781 155.272442 188.084226 180.820737 188.084226 
L 180.820737 188.084226 
z
" clip-path="url(#p2c470db3e3)" style="fill: none; stroke: #ff0000; stroke-width: 2; stroke-linejoin: miter"/>
   </g>
   <g id="patch_25">
    <path d="M 180.115973 208.394954 
C 205.664268 208.394954 230.16961 198.244509 248.234982 180.179137 
C 266.300355 162.113764 276.4508 137.608422 276.4508 112.060127 
C 276.4508 86.511832 266.300355 62.00649 248.234982 43.941118 
C 230.16961 25.875745 205.664268 15.7253 180.115973 15.7253 
C 154.567678 15.7253 130.062336 25.875745 111.996963 43.941118 
C 93.931591 62.00649 83.781146 86.511832 83.781146 112.060127 
C 83.781146 137.608422 93.931591 162.113764 111.996963 180.179137 
C 130.062336 198.244509 154.567678 208.394954 180.115973 208.394954 
L 180.115973 208.394954 
z
" clip-path="url(#p2c470db3e3)" style="fill: none; stroke: #ff0000; stroke-width: 2; stroke-linejoin: miter"/>
   </g>
   <g id="patch_26">
    <path d="M 108.730282 256.317152 
C 134.278577 256.317152 158.783919 246.166707 176.849292 228.101335 
C 194.914664 210.035962 205.065109 185.53062 205.065109 159.982325 
C 205.065109 134.43403 194.914664 109.928688 176.849292 91.863316 
C 158.783919 73.797943 134.278577 63.647498 108.730282 63.647498 
C 83.181988 63.647498 58.676646 73.797943 40.611273 91.863316 
C 22.545901 109.928688 12.395456 134.43403 12.395456 159.982325 
C 12.395456 185.53062 22.545901 210.035962 40.611273 228.101335 
C 58.676646 246.166707 83.181988 256.317152 108.730282 256.317152 
L 108.730282 256.317152 
z
" clip-path="url(#p2c470db3e3)" style="fill: none; stroke: #ff0000; stroke-width: 2; stroke-linejoin: miter"/>
   </g>
   <g id="patch_27">
    <path d="M 78.608965 300.317585 
C 104.15726 300.317585 128.662602 290.16714 146.727974 272.101768 
C 164.793347 254.036395 174.943792 229.531053 174.943792 203.982758 
C 174.943792 178.434464 164.793347 153.929121 146.727974 135.863749 
C 128.662602 117.798376 104.15726 107.647931 78.608965 107.647931 
C 53.06067 107.647931 28.555328 117.798376 10.489956 135.863749 
C -7.575417 153.929121 -17.725862 178.434464 -17.725862 203.982758 
C -17.725862 229.531053 -7.575417 254.036395 10.489956 272.101768 
C 28.555328 290.16714 53.06067 300.317585 78.608965 300.317585 
L 78.608965 300.317585 
z
" clip-path="url(#p2c470db3e3)" style="fill: none; stroke: #ff0000; stroke-width: 2; stroke-linejoin: miter"/>
   </g>
   <g id="patch_28">
    <path d="M 100.011627 372.947568 
C 125.559922 372.947568 150.065264 362.797123 168.130636 344.731751 
C 186.196009 326.666378 196.346454 302.161036 196.346454 276.612742 
C 196.346454 251.064447 186.196009 226.559105 168.130636 208.493732 
C 150.065264 190.42836 125.559922 180.277915 100.011627 180.277915 
C 74.463332 180.277915 49.95799 190.42836 31.892617 208.493732 
C 13.827245 226.559105 3.6768 251.064447 3.6768 276.612742 
C 3.6768 302.161036 13.827245 326.666378 31.892617 344.731751 
C 49.95799 362.797123 74.463332 372.947568 100.011627 372.947568 
L 100.011627 372.947568 
z
" clip-path="url(#p2c470db3e3)" style="fill: none; stroke: #ff0000; stroke-width: 2; stroke-linejoin: miter"/>
   </g>
   <g id="patch_29">
    <path d="M 115.232703 396.883305 
C 140.780998 396.883305 165.28634 386.73286 183.351713 368.667488 
C 201.417085 350.602115 211.56753 326.096773 211.56753 300.548478 
C 211.56753 275.000184 201.417085 250.494841 183.351713 232.429469 
C 165.28634 214.364096 140.780998 204.213651 115.232703 204.213651 
C 89.684408 204.213651 65.179066 214.364096 47.113694 232.429469 
C 29.048321 250.494841 18.897876 275.000184 18.897876 300.548478 
C 18.897876 326.096773 29.048321 350.602115 47.113694 368.667488 
C 65.179066 386.73286 89.684408 396.883305 115.232703 396.883305 
L 115.232703 396.883305 
z
" clip-path="url(#p2c470db3e3)" style="fill: none; stroke: #ff0000; stroke-width: 2; stroke-linejoin: miter"/>
   </g>
   <g id="patch_30">
    <path d="M 207.098234 425.885427 
C 232.646529 425.885427 257.151871 415.734982 275.217244 397.66961 
C 293.282616 379.604237 303.433061 355.098895 303.433061 329.5506 
C 303.433061 304.002306 293.282616 279.496964 275.217244 261.431591 
C 257.151871 243.366219 232.646529 233.215774 207.098234 233.215774 
C 181.549939 233.215774 157.044597 243.366219 138.979225 261.431591 
C 120.913852 279.496964 110.763407 304.002306 110.763407 329.5506 
C 110.763407 355.098895 120.913852 379.604237 138.979225 397.66961 
C 157.044597 415.734982 181.549939 425.885427 207.098234 425.885427 
" clip-path="url(#p2c470db3e3)" style="fill: none; stroke: #ff0000; stroke-width: 2; stroke-linejoin: miter"/>
   </g>
   <g id="patch_31">
    <path d="M 260.068319 417.260868 
C 285.616613 417.260868 310.121956 407.110423 328.187328 389.04505 
C 346.252701 370.979678 356.403146 346.474336 356.403146 320.926041 
C 356.403146 295.377746 346.252701 270.872404 328.187328 252.807031 
C 310.121956 234.741659 285.616613 224.591214 260.068319 224.591214 
C 234.520024 224.591214 210.014682 234.741659 191.949309 252.807031 
C 173.883937 270.872404 163.733492 295.377746 163.733492 320.926041 
C 163.733492 346.474336 173.883937 370.979678 191.949309 389.04505 
C 210.014682 407.110423 234.520024 417.260868 260.068319 417.260868 
L 260.068319 417.260868 
z
" clip-path="url(#p2c470db3e3)" style="fill: none; stroke: #ff0000; stroke-width: 2; stroke-linejoin: miter"/>
   </g>
   <g id="patch_32">
    <path d="M 313.483691 345.734752 
C 339.031985 345.734752 363.537327 335.584307 381.6027 317.518935 
C 399.668072 299.453562 409.818517 274.94822 409.818517 249.399925 
C 409.818517 223.85163 399.668072 199.346288 381.6027 181.280916 
C 363.537327 163.215543 339.031985 153.065098 313.483691 153.065098 
C 287.935396 153.065098 263.430054 163.215543 245.364681 181.280916 
C 227.299309 199.346288 217.148864 223.85163 217.148864 249.399925 
C 217.148864 274.94822 227.299309 299.453562 245.364681 317.518935 
C 263.430054 335.584307 287.935396 345.734752 313.483691 345.734752 
L 313.483691 345.734752 
z
" clip-path="url(#p2c470db3e3)" style="fill: none; stroke: #ff0000; stroke-width: 2; stroke-linejoin: miter"/>
   </g>
   <g id="patch_33">
    <path d="M 442.820909 308.46686 
C 468.369203 308.46686 492.874546 298.316415 510.939918 280.251042 
C 529.00529 262.18567 539.155736 237.680328 539.155736 212.132033 
C 539.155736 186.583738 529.00529 162.078396 510.939918 144.013024 
C 492.874546 125.947651 468.369203 115.797206 442.820909 115.797206 
C 417.272614 115.797206 392.767272 125.947651 374.701899 144.013024 
C 356.636527 162.078396 346.486082 186.583738 346.486082 212.132033 
C 346.486082 237.680328 356.636527 262.18567 374.701899 280.251042 
C 392.767272 298.316415 417.272614 308.46686 442.820909 308.46686 
L 442.820909 308.46686 
z
" clip-path="url(#p2c470db3e3)" style="fill: none; stroke: #ff0000; stroke-width: 2; stroke-linejoin: miter"/>
   </g>
   <g id="patch_34">
    <path d="M 417.210143 249.474212 
C 442.758437 249.474212 467.26378 239.323767 485.329152 221.258395 
C 503.394524 203.193022 513.54497 178.68768 513.54497 153.139385 
C 513.54497 127.59109 503.394524 103.085748 485.329152 85.020376 
C 467.26378 66.955003 442.758437 56.804558 417.210143 56.804558 
C 391.661848 56.804558 367.156506 66.955003 349.091133 85.020376 
C 331.025761 103.085748 320.875316 127.59109 320.875316 153.139385 
C 320.875316 178.68768 331.025761 203.193022 349.091133 221.258395 
C 367.156506 239.323767 391.661848 249.474212 417.210143 249.474212 
L 417.210143 249.474212 
z
" clip-path="url(#p2c470db3e3)" style="fill: none; stroke: #ff0000; stroke-width: 2; stroke-linejoin: miter"/>
   </g>
   <g id="patch_35">
    <path d="M 373.439155 238.954464 
C 398.98745 238.954464 423.492792 228.804019 441.558164 210.738646 
C 459.623537 192.673274 469.773982 168.167932 469.773982 142.619637 
C 469.773982 117.071342 459.623537 92.566 441.558164 74.500628 
C 423.492792 56.435255 398.98745 46.28481 373.439155 46.28481 
C 347.89086 46.28481 323.385518 56.435255 305.320145 74.500628 
C 287.254773 92.566 277.104328 117.071342 277.104328 142.619637 
C 277.104328 168.167932 287.254773 192.673274 305.320145 210.738646 
C 323.385518 228.804019 347.89086 238.954464 373.439155 238.954464 
L 373.439155 238.954464 
z
" clip-path="url(#p2c470db3e3)" style="fill: none; stroke: #ff0000; stroke-width: 2; stroke-linejoin: miter"/>
   </g>
   <g id="patch_36">
    <path d="M 299.927838 305.550274 
C 325.476133 305.550274 349.981475 295.399829 368.046848 277.334456 
C 386.11222 259.269084 396.262665 234.763742 396.262665 209.215447 
C 396.262665 183.667152 386.11222 159.16181 368.046848 141.096438 
C 349.981475 123.031065 325.476133 112.88062 299.927838 112.88062 
C 274.379544 112.88062 249.874201 123.031065 231.808829 141.096438 
C 213.743456 159.16181 203.593011 183.667152 203.593011 209.215447 
C 203.593011 234.763742 213.743456 259.269084 231.808829 277.334456 
C 249.874201 295.399829 274.379544 305.550274 299.927838 305.550274 
L 299.927838 305.550274 
z
" clip-path="url(#p2c470db3e3)" style="fill: none; stroke: #ff0000; stroke-width: 2; stroke-linejoin: miter"/>
   </g>
   <g id="patch_37">
    <path d="M 300.413923 322.745116 
C 325.962217 322.745116 350.46756 312.594671 368.532932 294.529298 
C 386.598304 276.463926 396.74875 251.958584 396.74875 226.410289 
C 396.74875 200.861994 386.598304 176.356652 368.532932 158.291279 
C 350.46756 140.225907 325.962217 130.075462 300.413923 130.075462 
C 274.865628 130.075462 250.360286 140.225907 232.294913 158.291279 
C 214.229541 176.356652 204.079096 200.861994 204.079096 226.410289 
C 204.079096 251.958584 214.229541 276.463926 232.294913 294.529298 
C 250.360286 312.594671 274.865628 322.745116 300.413923 322.745116 
L 300.413923 322.745116 
z
" clip-path="url(#p2c470db3e3)" style="fill: none; stroke: #ff0000; stroke-width: 2; stroke-linejoin: miter"/>
   </g>
   <g id="patch_38">
    <path d="M 364.117312 379.924676 
C 389.665607 379.924676 414.170949 369.774231 432.236321 351.708858 
C 450.301694 333.643486 460.452139 309.138144 460.452139 283.589849 
C 460.452139 258.041554 450.301694 233.536212 432.236321 215.47084 
C 414.170949 197.405467 389.665607 187.255022 364.117312 187.255022 
C 338.569017 187.255022 314.063675 197.405467 295.998302 215.47084 
C 277.93293 233.536212 267.782485 258.041554 267.782485 283.589849 
C 267.782485 309.138144 277.93293 333.643486 295.998302 351.708858 
C 314.063675 369.774231 338.569017 379.924676 364.117312 379.924676 
L 364.117312 379.924676 
z
" clip-path="url(#p2c470db3e3)" style="fill: none; stroke: #ff0000; stroke-width: 2; stroke-linejoin: miter"/>
   </g>
   <g id="patch_39">
    <path d="M 417.562519 372.640098 
C 443.110814 372.640098 467.616156 362.489653 485.681529 344.42428 
C 503.746901 326.358908 513.897346 301.853565 513.897346 276.305271 
C 513.897346 250.756976 503.746901 226.251634 485.681529 208.186261 
C 467.616156 190.120889 443.110814 179.970444 417.562519 179.970444 
C 392.014225 179.970444 367.508882 190.120889 349.44351 208.186261 
C 331.378138 226.251634 321.227692 250.756976 321.227692 276.305271 
C 321.227692 301.853565 331.378138 326.358908 349.44351 344.42428 
C 367.508882 362.489653 392.014225 372.640098 417.562519 372.640098 
L 417.562519 372.640098 
z
" clip-path="url(#p2c470db3e3)" style="fill: none; stroke: #ff0000; stroke-width: 2; stroke-linejoin: miter"/>
   </g>
   <g id="line2d_1">
    <path d="M 317.111573 228.043234 
L 302.939392 161.983457 
" clip-path="url(#p2c470db3e3)" style="fill: none; stroke: #000000; stroke-width: 2; stroke-linecap: square"/>
   </g>
   <g id="line2d_2">
    <path d="M 317.111573 228.043234 
L 313.483691 249.399925 
" clip-path="url(#p2c470db3e3)" style="fill: none; stroke: #000000; stroke-width: 2; stroke-linecap: square"/>
   </g>
   <g id="line2d_3">
    <path d="M 317.111573 228.043234 
L 299.927838 209.215447 
" clip-path="url(#p2c470db3e3)" style="fill: none; stroke: #000000; stroke-width: 2; stroke-linecap: square"/>
   </g>
   <g id="line2d_4">
    <path d="M 317.111573 228.043234 
L 300.413923 226.410289 
" clip-path="url(#p2c470db3e3)" style="fill: none; stroke: #000000; stroke-width: 2; stroke-linecap: square"/>
   </g>
   <g id="line2d_5">
    <path d="M 317.111573 228.043234 
L 364.117312 283.589849 
" clip-path="url(#p2c470db3e3)" style="fill: none; stroke: #000000; stroke-width: 2; stroke-linecap: square"/>
   </g>
   <g id="line2d_6">
    <path d="M 302.939392 161.983457 
L 313.483691 249.399925 
" clip-path="url(#p2c470db3e3)" style="fill: none; stroke: #000000; stroke-width: 2; stroke-linecap: square"/>
   </g>
   <g id="line2d_7">
    <path d="M 302.939392 161.983457 
L 373.439155 142.619637 
" clip-path="url(#p2c470db3e3)" style="fill: none; stroke: #000000; stroke-width: 2; stroke-linecap: square"/>
   </g>
   <g id="line2d_8">
    <path d="M 302.939392 161.983457 
L 299.927838 209.215447 
" clip-path="url(#p2c470db3e3)" style="fill: none; stroke: #000000; stroke-width: 2; stroke-linecap: square"/>
   </g>
   <g id="line2d_9">
    <path d="M 302.939392 161.983457 
L 300.413923 226.410289 
" clip-path="url(#p2c470db3e3)" style="fill: none; stroke: #000000; stroke-width: 2; stroke-linecap: square"/>
   </g>
   <g id="line2d_10">
    <path d="M 226.675762 96.435665 
L 180.820737 91.7494 
" clip-path="url(#p2c470db3e3)" style="fill: none; stroke: #000000; stroke-width: 2; stroke-linecap: square"/>
   </g>
   <g id="line2d_11">
    <path d="M 226.675762 96.435665 
L 180.115973 112.060127 
" clip-path="url(#p2c470db3e3)" style="fill: none; stroke: #000000; stroke-width: 2; stroke-linecap: square"/>
   </g>
   <g id="line2d_12">
    <path d="M 180.820737 91.7494 
L 180.115973 112.060127 
" clip-path="url(#p2c470db3e3)" style="fill: none; stroke: #000000; stroke-width: 2; stroke-linecap: square"/>
   </g>
   <g id="line2d_13">
    <path d="M 180.115973 112.060127 
L 108.730282 159.982325 
" clip-path="url(#p2c470db3e3)" style="fill: none; stroke: #000000; stroke-width: 2; stroke-linecap: square"/>
   </g>
   <g id="line2d_14">
    <path d="M 108.730282 159.982325 
L 78.608965 203.982758 
" clip-path="url(#p2c470db3e3)" style="fill: none; stroke: #000000; stroke-width: 2; stroke-linecap: square"/>
   </g>
   <g id="line2d_15">
    <path d="M 78.608965 203.982758 
L 100.011627 276.612742 
" clip-path="url(#p2c470db3e3)" style="fill: none; stroke: #000000; stroke-width: 2; stroke-linecap: square"/>
   </g>
   <g id="line2d_16">
    <path d="M 100.011627 276.612742 
L 115.232703 300.548478 
" clip-path="url(#p2c470db3e3)" style="fill: none; stroke: #000000; stroke-width: 2; stroke-linecap: square"/>
   </g>
   <g id="line2d_17">
    <path d="M 115.232703 300.548478 
L 207.098234 329.5506 
" clip-path="url(#p2c470db3e3)" style="fill: none; stroke: #000000; stroke-width: 2; stroke-linecap: square"/>
   </g>
   <g id="line2d_18">
    <path d="M 207.098234 329.5506 
L 260.068319 320.926041 
" clip-path="url(#p2c470db3e3)" style="fill: none; stroke: #000000; stroke-width: 2; stroke-linecap: square"/>
   </g>
   <g id="line2d_19">
    <path d="M 260.068319 320.926041 
L 313.483691 249.399925 
" clip-path="url(#p2c470db3e3)" style="fill: none; stroke: #000000; stroke-width: 2; stroke-linecap: square"/>
   </g>
   <g id="line2d_20">
    <path d="M 313.483691 249.399925 
L 299.927838 209.215447 
" clip-path="url(#p2c470db3e3)" style="fill: none; stroke: #000000; stroke-width: 2; stroke-linecap: square"/>
   </g>
   <g id="line2d_21">
    <path d="M 313.483691 249.399925 
L 300.413923 226.410289 
" clip-path="url(#p2c470db3e3)" style="fill: none; stroke: #000000; stroke-width: 2; stroke-linecap: square"/>
   </g>
   <g id="line2d_22">
    <path d="M 313.483691 249.399925 
L 364.117312 283.589849 
" clip-path="url(#p2c470db3e3)" style="fill: none; stroke: #000000; stroke-width: 2; stroke-linecap: square"/>
   </g>
   <g id="line2d_23">
    <path d="M 442.820909 212.132033 
L 417.210143 153.139385 
" clip-path="url(#p2c470db3e3)" style="fill: none; stroke: #000000; stroke-width: 2; stroke-linecap: square"/>
   </g>
   <g id="line2d_24">
    <path d="M 442.820909 212.132033 
L 417.562519 276.305271 
" clip-path="url(#p2c470db3e3)" style="fill: none; stroke: #000000; stroke-width: 2; stroke-linecap: square"/>
   </g>
   <g id="line2d_25">
    <path d="M 417.210143 153.139385 
L 373.439155 142.619637 
" clip-path="url(#p2c470db3e3)" style="fill: none; stroke: #000000; stroke-width: 2; stroke-linecap: square"/>
   </g>
   <g id="line2d_26">
    <path d="M 299.927838 209.215447 
L 300.413923 226.410289 
" clip-path="url(#p2c470db3e3)" style="fill: none; stroke: #000000; stroke-width: 2; stroke-linecap: square"/>
   </g>
   <g id="line2d_27">
    <path d="M 300.413923 226.410289 
L 364.117312 283.589849 
" clip-path="url(#p2c470db3e3)" style="fill: none; stroke: #000000; stroke-width: 2; stroke-linecap: square"/>
   </g>
   <g id="line2d_28">
    <path d="M 364.117312 283.589849 
L 417.562519 276.305271 
" clip-path="url(#p2c470db3e3)" style="fill: none; stroke: #000000; stroke-width: 2; stroke-linecap: square"/>
   </g>
   <g id="PathCollection_2">
    <defs>
     <path id="mc2631951fa" d="M 0 3 
C 0.795609 3 1.55874 2.683901 2.12132 2.12132 
C 2.683901 1.55874 3 0.795609 3 0 
C 3 -0.795609 2.683901 -1.55874 2.12132 -2.12132 
C 1.55874 -2.683901 0.795609 -3 0 -3 
C -0.795609 -3 -1.55874 -2.683901 -2.12132 -2.12132 
C -2.683901 -1.55874 -3 -0.795609 -3 0 
C -3 0.795609 -2.683901 1.55874 -2.12132 2.12132 
C -1.55874 2.683901 -0.795609 3 0 3 
z
" style="stroke: #0000ff"/>
    </defs>
    <g clip-path="url(#p2c470db3e3)">
     <use xlink:href="#mc2631951fa" x="317.111573" y="228.043234" style="fill: #0000ff; stroke: #0000ff"/>
     <use xlink:href="#mc2631951fa" x="302.939392" y="161.983457" style="fill: #0000ff; stroke: #0000ff"/>
     <use xlink:href="#mc2631951fa" x="226.675762" y="96.435665" style="fill: #0000ff; stroke: #0000ff"/>
     <use xlink:href="#mc2631951fa" x="180.820737" y="91.7494" style="fill: #0000ff; stroke: #0000ff"/>
     <use xlink:href="#mc2631951fa" x="180.115973" y="112.060127" style="fill: #0000ff; stroke: #0000ff"/>
     <use xlink:href="#mc2631951fa" x="108.730282" y="159.982325" style="fill: #0000ff; stroke: #0000ff"/>
     <use xlink:href="#mc2631951fa" x="78.608965" y="203.982758" style="fill: #0000ff; stroke: #0000ff"/>
     <use xlink:href="#mc2631951fa" x="100.011627" y="276.612742" style="fill: #0000ff; stroke: #0000ff"/>
     <use xlink:href="#mc2631951fa" x="115.232703" y="300.548478" style="fill: #0000ff; stroke: #0000ff"/>
     <use xlink:href="#mc2631951fa" x="207.098234" y="329.5506" style="fill: #0000ff; stroke: #0000ff"/>
     <use xlink:href="#mc2631951fa" x="260.068319" y="320.926041" style="fill: #0000ff; stroke: #0000ff"/>
     <use xlink:href="#mc2631951fa" x="313.483691" y="249.399925" style="fill: #0000ff; stroke: #0000ff"/>
     <use xlink:href="#mc2631951fa" x="442.820909" y="212.132033" style="fill: #0000ff; stroke: #0000ff"/>
     <use xlink:href="#mc2631951fa" x="417.210143" y="153.139385" style="fill: #0000ff; stroke: #0000ff"/>
     <use xlink:href="#mc2631951fa" x="373.439155" y="142.619637" style="fill: #0000ff; stroke: #0000ff"/>
     <use xlink:href="#mc2631951fa" x="299.927838" y="209.215447" style="fill: #0000ff; stroke: #0000ff"/>
     <use xlink:href="#mc2631951fa" x="300.413923" y="226.410289" style="fill: #0000ff; stroke: #0000ff"/>
     <use xlink:href="#mc2631951fa" x="364.117312" y="283.589849" style="fill: #0000ff; stroke: #0000ff"/>
     <use xlink:href="#mc2631951fa" x="417.562519" y="276.305271" style="fill: #0000ff; stroke: #0000ff"/>
    </g>
   </g>
  </g>
  <g id="axes_2">
   <g id="patch_40">
    <path d="M 558.570126 414.1 
L 1065.6 414.1 
L 1065.6 7.2 
L 558.570126 7.2 
z
" style="fill: #ffffff"/>
   </g>
   <g id="matplotlib.axis_1">
    <g id="xtick_1">
     <g id="line2d_29">
      <defs>
       <path id="m7c694db428" d="M 0 0 
L 0 3.5 
" style="stroke: #000000; stroke-width: 0.8"/>
      </defs>
      <g>
       <use xlink:href="#m7c694db428" x="571.913018" y="414.1" style="stroke: #000000; stroke-width: 0.8"/>
      </g>
     </g>
    </g>
    <g id="xtick_2">
     <g id="line2d_30">
      <g>
       <use xlink:href="#m7c694db428" x="598.598801" y="414.1" style="stroke: #000000; stroke-width: 0.8"/>
      </g>
     </g>
    </g>
    <g id="xtick_3">
     <g id="line2d_31">
      <g>
       <use xlink:href="#m7c694db428" x="625.284584" y="414.1" style="stroke: #000000; stroke-width: 0.8"/>
      </g>
     </g>
    </g>
    <g id="xtick_4">
     <g id="line2d_32">
      <g>
       <use xlink:href="#m7c694db428" x="651.970366" y="414.1" style="stroke: #000000; stroke-width: 0.8"/>
      </g>
     </g>
    </g>
    <g id="xtick_5">
     <g id="line2d_33">
      <g>
       <use xlink:href="#m7c694db428" x="678.656149" y="414.1" style="stroke: #000000; stroke-width: 0.8"/>
      </g>
     </g>
    </g>
    <g id="xtick_6">
     <g id="line2d_34">
      <g>
       <use xlink:href="#m7c694db428" x="705.341932" y="414.1" style="stroke: #000000; stroke-width: 0.8"/>
      </g>
     </g>
    </g>
    <g id="xtick_7">
     <g id="line2d_35">
      <g>
       <use xlink:href="#m7c694db428" x="732.027715" y="414.1" style="stroke: #000000; stroke-width: 0.8"/>
      </g>
     </g>
    </g>
    <g id="xtick_8">
     <g id="line2d_36">
      <g>
       <use xlink:href="#m7c694db428" x="758.713498" y="414.1" style="stroke: #000000; stroke-width: 0.8"/>
      </g>
     </g>
    </g>
    <g id="xtick_9">
     <g id="line2d_37">
      <g>
       <use xlink:href="#m7c694db428" x="785.39928" y="414.1" style="stroke: #000000; stroke-width: 0.8"/>
      </g>
     </g>
    </g>
    <g id="xtick_10">
     <g id="line2d_38">
      <g>
       <use xlink:href="#m7c694db428" x="812.085063" y="414.1" style="stroke: #000000; stroke-width: 0.8"/>
      </g>
     </g>
    </g>
    <g id="xtick_11">
     <g id="line2d_39">
      <g>
       <use xlink:href="#m7c694db428" x="838.770846" y="414.1" style="stroke: #000000; stroke-width: 0.8"/>
      </g>
     </g>
    </g>
    <g id="xtick_12">
     <g id="line2d_40">
      <g>
       <use xlink:href="#m7c694db428" x="865.456629" y="414.1" style="stroke: #000000; stroke-width: 0.8"/>
      </g>
     </g>
    </g>
    <g id="xtick_13">
     <g id="line2d_41">
      <g>
       <use xlink:href="#m7c694db428" x="892.142412" y="414.1" style="stroke: #000000; stroke-width: 0.8"/>
      </g>
     </g>
    </g>
    <g id="xtick_14">
     <g id="line2d_42">
      <g>
       <use xlink:href="#m7c694db428" x="918.828195" y="414.1" style="stroke: #000000; stroke-width: 0.8"/>
      </g>
     </g>
    </g>
    <g id="xtick_15">
     <g id="line2d_43">
      <g>
       <use xlink:href="#m7c694db428" x="945.513977" y="414.1" style="stroke: #000000; stroke-width: 0.8"/>
      </g>
     </g>
    </g>
    <g id="xtick_16">
     <g id="line2d_44">
      <g>
       <use xlink:href="#m7c694db428" x="972.19976" y="414.1" style="stroke: #000000; stroke-width: 0.8"/>
      </g>
     </g>
    </g>
    <g id="xtick_17">
     <g id="line2d_45">
      <g>
       <use xlink:href="#m7c694db428" x="998.885543" y="414.1" style="stroke: #000000; stroke-width: 0.8"/>
      </g>
     </g>
    </g>
    <g id="xtick_18">
     <g id="line2d_46">
      <g>
       <use xlink:href="#m7c694db428" x="1025.571326" y="414.1" style="stroke: #000000; stroke-width: 0.8"/>
      </g>
     </g>
    </g>
    <g id="xtick_19">
     <g id="line2d_47">
      <g>
       <use xlink:href="#m7c694db428" x="1052.257109" y="414.1" style="stroke: #000000; stroke-width: 0.8"/>
      </g>
     </g>
    </g>
   </g>
   <g id="matplotlib.axis_2">
    <g id="ytick_1">
     <g id="line2d_48">
      <defs>
       <path id="m133afa5731" d="M 0 0 
L -3.5 0 
" style="stroke: #000000; stroke-width: 0.8"/>
      </defs>
      <g>
       <use xlink:href="#m133afa5731" x="558.570126" y="70.815583" style="stroke: #000000; stroke-width: 0.8"/>
      </g>
     </g>
     <g id="text_1">
      <!-- $r_{18}$ -->
      <g transform="translate(524.970126 78.414021) scale(0.2 -0.2)">
       <defs>
        <path id="DejaVuSans-Oblique-72" d="M 2853 2969 
Q 2766 3016 2653 3041 
Q 2541 3066 2413 3066 
Q 1953 3066 1609 2717 
Q 1266 2369 1153 1784 
L 800 0 
L 225 0 
L 909 3500 
L 1484 3500 
L 1375 2956 
Q 1603 3259 1920 3421 
Q 2238 3584 2597 3584 
Q 2691 3584 2781 3573 
Q 2872 3563 2963 3538 
L 2853 2969 
z
" transform="scale(0.015625)"/>
        <path id="DejaVuSans-31" d="M 794 531 
L 1825 531 
L 1825 4091 
L 703 3866 
L 703 4441 
L 1819 4666 
L 2450 4666 
L 2450 531 
L 3481 531 
L 3481 0 
L 794 0 
L 794 531 
z
" transform="scale(0.015625)"/>
        <path id="DejaVuSans-38" d="M 2034 2216 
Q 1584 2216 1326 1975 
Q 1069 1734 1069 1313 
Q 1069 891 1326 650 
Q 1584 409 2034 409 
Q 2484 409 2743 651 
Q 3003 894 3003 1313 
Q 3003 1734 2745 1975 
Q 2488 2216 2034 2216 
z
M 1403 2484 
Q 997 2584 770 2862 
Q 544 3141 544 3541 
Q 544 4100 942 4425 
Q 1341 4750 2034 4750 
Q 2731 4750 3128 4425 
Q 3525 4100 3525 3541 
Q 3525 3141 3298 2862 
Q 3072 2584 2669 2484 
Q 3125 2378 3379 2068 
Q 3634 1759 3634 1313 
Q 3634 634 3220 271 
Q 2806 -91 2034 -91 
Q 1263 -91 848 271 
Q 434 634 434 1313 
Q 434 1759 690 2068 
Q 947 2378 1403 2484 
z
M 1172 3481 
Q 1172 3119 1398 2916 
Q 1625 2713 2034 2713 
Q 2441 2713 2670 2916 
Q 2900 3119 2900 3481 
Q 2900 3844 2670 4047 
Q 2441 4250 2034 4250 
Q 1625 4250 1398 4047 
Q 1172 3844 1172 3481 
z
" transform="scale(0.015625)"/>
       </defs>
       <use xlink:href="#DejaVuSans-Oblique-72"/>
       <use xlink:href="#DejaVuSans-31" transform="translate(41.113281 -16.40625) scale(0.7)"/>
       <use xlink:href="#DejaVuSans-38" transform="translate(85.649414 -16.40625) scale(0.7)"/>
      </g>
     </g>
    </g>
   </g>
   <g id="line2d_49">
    <path d="M 598.598801 414.1 
L 598.598801 341.680163 
L 625.284584 341.680163 
L 625.284584 414.1 
" clip-path="url(#p64d0772747)" style="fill: none; stroke: #ff0000; stroke-width: 5; stroke-linecap: square"/>
   </g>
   <g id="line2d_50">
    <path d="M 571.913018 414.1 
L 571.913018 249.846779 
L 611.941692 249.846779 
L 611.941692 341.680163 
" clip-path="url(#p64d0772747)" style="fill: none; stroke: #ff0000; stroke-width: 5; stroke-linecap: square"/>
   </g>
   <g id="line2d_51">
    <path d="M 651.970366 414.1 
L 651.970366 313.020995 
L 678.656149 313.020995 
L 678.656149 414.1 
" clip-path="url(#p64d0772747)" style="fill: none; stroke: #ff0000; stroke-width: 5; stroke-linecap: square"/>
   </g>
   <g id="line2d_52">
    <path d="M 705.341932 414.1 
L 705.341932 224.086462 
L 732.027715 224.086462 
L 732.027715 414.1 
" clip-path="url(#p64d0772747)" style="fill: none; stroke: #ff0000; stroke-width: 5; stroke-linecap: square"/>
   </g>
   <g id="line2d_53">
    <path d="M 665.313258 313.020995 
L 665.313258 144.28327 
L 718.684823 144.28327 
L 718.684823 224.086462 
" clip-path="url(#p64d0772747)" style="fill: none; stroke: #ff0000; stroke-width: 5; stroke-linecap: square"/>
   </g>
   <g id="line2d_54">
    <path d="M 591.927355 249.846779 
L 591.927355 107.716708 
L 691.999041 107.716708 
L 691.999041 144.28327 
" clip-path="url(#p64d0772747)" style="fill: none; stroke: #ff0000; stroke-width: 5; stroke-linecap: square"/>
   </g>
   <g id="line2d_55">
    <path d="M 758.713498 414.1 
L 758.713498 222.858095 
L 785.39928 222.858095 
L 785.39928 414.1 
" clip-path="url(#p64d0772747)" style="fill: none; stroke: #ff0000; stroke-width: 5; stroke-linecap: square"/>
   </g>
   <g id="line2d_56">
    <path d="M 892.142412 414.1 
L 892.142412 354.314891 
L 918.828195 354.314891 
L 918.828195 414.1 
" clip-path="url(#p64d0772747)" style="fill: none; stroke: #ff0000; stroke-width: 5; stroke-linecap: square"/>
   </g>
   <g id="line2d_57">
    <path d="M 865.456629 414.1 
L 865.456629 352.802549 
L 905.485303 352.802549 
L 905.485303 354.314891 
" clip-path="url(#p64d0772747)" style="fill: none; stroke: #ff0000; stroke-width: 5; stroke-linecap: square"/>
   </g>
   <g id="line2d_58">
    <path d="M 838.770846 414.1 
L 838.770846 336.906263 
L 885.470966 336.906263 
L 885.470966 352.802549 
" clip-path="url(#p64d0772747)" style="fill: none; stroke: #ff0000; stroke-width: 5; stroke-linecap: square"/>
   </g>
   <g id="line2d_59">
    <path d="M 812.085063 414.1 
L 812.085063 245.44935 
L 862.120906 245.44935 
L 862.120906 336.906263 
" clip-path="url(#p64d0772747)" style="fill: none; stroke: #ff0000; stroke-width: 5; stroke-linecap: square"/>
   </g>
   <g id="line2d_60">
    <path d="M 945.513977 414.1 
L 945.513977 221.88972 
L 972.19976 221.88972 
L 972.19976 414.1 
" clip-path="url(#p64d0772747)" style="fill: none; stroke: #ff0000; stroke-width: 5; stroke-linecap: square"/>
   </g>
   <g id="line2d_61">
    <path d="M 837.102985 245.44935 
L 837.102985 196.387606 
L 958.856869 196.387606 
L 958.856869 221.88972 
" clip-path="url(#p64d0772747)" style="fill: none; stroke: #ff0000; stroke-width: 5; stroke-linecap: square"/>
   </g>
   <g id="line2d_62">
    <path d="M 1025.571326 414.1 
L 1025.571326 253.682782 
L 1052.257109 253.682782 
L 1052.257109 414.1 
" clip-path="url(#p64d0772747)" style="fill: none; stroke: #ff0000; stroke-width: 5; stroke-linecap: square"/>
   </g>
   <g id="line2d_63">
    <path d="M 998.885543 414.1 
L 998.885543 184.927061 
L 1038.914217 184.927061 
L 1038.914217 253.682782 
" clip-path="url(#p64d0772747)" style="fill: none; stroke: #ff0000; stroke-width: 5; stroke-linecap: square"/>
   </g>
   <g id="line2d_64">
    <path d="M 897.979927 196.387606 
L 897.979927 168.346113 
L 1018.89988 168.346113 
L 1018.89988 184.927061 
" clip-path="url(#p64d0772747)" style="fill: none; stroke: #ff0000; stroke-width: 5; stroke-linecap: square"/>
   </g>
   <g id="line2d_65">
    <path d="M 772.056389 222.858095 
L 772.056389 95.989663 
L 958.439903 95.989663 
L 958.439903 168.346113 
" clip-path="url(#p64d0772747)" style="fill: none; stroke: #ff0000; stroke-width: 5; stroke-linecap: square"/>
   </g>
   <g id="line2d_66">
    <path d="M 641.963198 107.716708 
L 641.963198 70.815583 
L 865.248146 70.815583 
L 865.248146 95.989663 
" clip-path="url(#p64d0772747)" style="fill: none; stroke: #ff0000; stroke-width: 5; stroke-linecap: square"/>
   </g>
   <g id="line2d_67">
    <path d="M 753.605672 70.815583 
L 753.605672 70.815583 
" clip-path="url(#p64d0772747)" style="fill: none; stroke: #ff0000; stroke-width: 5; stroke-linecap: square"/>
   </g>
   <g id="patch_41">
    <path d="M 558.570126 414.1 
L 558.570126 7.2 
" style="fill: none; stroke: #000000; stroke-width: 0.8; stroke-linejoin: miter; stroke-linecap: square"/>
   </g>
   <g id="patch_42">
    <path d="M 1065.6 414.1 
L 1065.6 7.2 
" style="fill: none; stroke: #000000; stroke-width: 0.8; stroke-linejoin: miter; stroke-linecap: square"/>
   </g>
   <g id="patch_43">
    <path d="M 558.570126 414.1 
L 1065.6 414.1 
" style="fill: none; stroke: #000000; stroke-width: 0.8; stroke-linejoin: miter; stroke-linecap: square"/>
   </g>
   <g id="patch_44">
    <path d="M 558.570126 7.2 
L 1065.6 7.2 
" style="fill: none; stroke: #000000; stroke-width: 0.8; stroke-linejoin: miter; stroke-linecap: square"/>
   </g>
   <g id="PathCollection_3">
    <defs>
     <path id="m651d357f94" d="M 0 6.123724 
C 1.624031 6.123724 3.181764 5.47849 4.330127 4.330127 
C 5.47849 3.181764 6.123724 1.624031 6.123724 0 
C 6.123724 -1.624031 5.47849 -3.181764 4.330127 -4.330127 
C 3.181764 -5.47849 1.624031 -6.123724 0 -6.123724 
C -1.624031 -6.123724 -3.181764 -5.47849 -4.330127 -4.330127 
C -5.47849 -3.181764 -6.123724 -1.624031 -6.123724 0 
C -6.123724 1.624031 -5.47849 3.181764 -4.330127 4.330127 
C -3.181764 5.47849 -1.624031 6.123724 0 6.123724 
z
" style="stroke: #0000ff"/>
    </defs>
    <g clip-path="url(#p64d0772747)">
     <use xlink:href="#m651d357f94" x="571.913018" y="414.1" style="fill: #0000ff; stroke: #0000ff"/>
     <use xlink:href="#m651d357f94" x="598.598801" y="414.1" style="fill: #0000ff; stroke: #0000ff"/>
     <use xlink:href="#m651d357f94" x="625.284584" y="414.1" style="fill: #0000ff; stroke: #0000ff"/>
     <use xlink:href="#m651d357f94" x="651.970366" y="414.1" style="fill: #0000ff; stroke: #0000ff"/>
     <use xlink:href="#m651d357f94" x="678.656149" y="414.1" style="fill: #0000ff; stroke: #0000ff"/>
     <use xlink:href="#m651d357f94" x="705.341932" y="414.1" style="fill: #0000ff; stroke: #0000ff"/>
     <use xlink:href="#m651d357f94" x="732.027715" y="414.1" style="fill: #0000ff; stroke: #0000ff"/>
     <use xlink:href="#m651d357f94" x="758.713498" y="414.1" style="fill: #0000ff; stroke: #0000ff"/>
     <use xlink:href="#m651d357f94" x="785.39928" y="414.1" style="fill: #0000ff; stroke: #0000ff"/>
     <use xlink:href="#m651d357f94" x="812.085063" y="414.1" style="fill: #0000ff; stroke: #0000ff"/>
     <use xlink:href="#m651d357f94" x="838.770846" y="414.1" style="fill: #0000ff; stroke: #0000ff"/>
     <use xlink:href="#m651d357f94" x="865.456629" y="414.1" style="fill: #0000ff; stroke: #0000ff"/>
     <use xlink:href="#m651d357f94" x="892.142412" y="414.1" style="fill: #0000ff; stroke: #0000ff"/>
     <use xlink:href="#m651d357f94" x="918.828195" y="414.1" style="fill: #0000ff; stroke: #0000ff"/>
     <use xlink:href="#m651d357f94" x="945.513977" y="414.1" style="fill: #0000ff; stroke: #0000ff"/>
     <use xlink:href="#m651d357f94" x="972.19976" y="414.1" style="fill: #0000ff; stroke: #0000ff"/>
     <use xlink:href="#m651d357f94" x="998.885543" y="414.1" style="fill: #0000ff; stroke: #0000ff"/>
     <use xlink:href="#m651d357f94" x="1025.571326" y="414.1" style="fill: #0000ff; stroke: #0000ff"/>
     <use xlink:href="#m651d357f94" x="1052.257109" y="414.1" style="fill: #0000ff; stroke: #0000ff"/>
    </g>
   </g>
  </g>
 </g>
 <defs>
  <clipPath id="p2c470db3e3">
   <rect x="7.2" y="20.340435" width="507.029874" height="380.619131"/>
  </clipPath>
  <clipPath id="p64d0772747">
   <rect x="558.570126" y="7.2" width="507.029874" height="406.9"/>
  </clipPath>
 </defs>
</svg>
