<?xml version="1.0" encoding="utf-8" standalone="no"?>
<!DOCTYPE svg PUBLIC "-//W3C//DTD SVG 1.1//EN"
  "http://www.w3.org/Graphics/SVG/1.1/DTD/svg11.dtd">
<svg xmlns:xlink="http://www.w3.org/1999/xlink" width="1072.8pt" height="424.8pt" viewBox="0 0 1072.8 424.8" xmlns="http://www.w3.org/2000/svg" version="1.1">
 <metadata>
  <rdf:RDF xmlns:dc="http://purl.org/dc/elements/1.1/" xmlns:cc="http://creativecommons.org/ns#" xmlns:rdf="http://www.w3.org/1999/02/22-rdf-syntax-ns#">
   <cc:Work>
    <dc:type rdf:resource="http://purl.org/dc/dcmitype/StillImage"/>
    <dc:date>2023-10-24T09:47:28.974654</dc:date>
    <dc:format>image/svg+xml</dc:format>
    <dc:creator>
     <cc:Agent>
      <dc:title>Matplotlib v3.7.2, https://matplotlib.org/</dc:title>
     </cc:Agent>
    </dc:creator>
   </cc:Work>
  </rdf:RDF>
 </metadata>
 <defs>
  <style type="text/css">*{stroke-linejoin: round; stroke-linecap: butt}</style>
 </defs>
 <g id="figure_1">
  <g id="patch_1">
   <path d="M 0 424.8 
L 1072.8 424.8 
L 1072.8 -0 
L 0 -0 
z
" style="fill: #ffffff"/>
  </g>
  <g id="axes_1">
   <g id="PathCollection_1">
    <defs>
     <path id="m2ef4a57dda" d="M 0 3 
C 0.795609 3 1.55874 2.683901 2.12132 2.12132 
C 2.683901 1.55874 3 0.795609 3 0 
C 3 -0.795609 2.683901 -1.55874 2.12132 -2.12132 
C 1.55874 -2.683901 0.795609 -3 0 -3 
C -0.795609 -3 -1.55874 -2.683901 -2.12132 -2.12132 
C -2.683901 -1.55874 -3 -0.795609 -3 0 
C -3 0.795609 -2.683901 1.55874 -2.12132 2.12132 
C -1.55874 2.683901 -0.795609 3 0 3 
z
" style="stroke: #1f77b4; stroke-opacity: 0"/>
    </defs>
    <g clip-path="url(#p1ffd4205ca)">
     <use xlink:href="#m2ef4a57dda" x="7.2" y="401.022904" style="fill: #1f77b4; fill-opacity: 0; stroke: #1f77b4; stroke-opacity: 0"/>
     <use xlink:href="#m2ef4a57dda" x="514.398624" y="20.277096" style="fill: #1f77b4; fill-opacity: 0; stroke: #1f77b4; stroke-opacity: 0"/>
    </g>
   </g>
   <g id="patch_2">
    <path d="M 317.214718 282.006342 
C 331.524366 282.006342 345.249855 276.321058 355.368304 266.202609 
C 365.486753 256.08416 371.172037 242.358671 371.172037 228.049023 
C 371.172037 213.739374 365.486753 200.013886 355.368304 189.895437 
C 345.249855 179.776987 331.524366 174.091704 317.214718 174.091704 
C 302.90507 174.091704 289.179581 179.776987 279.061132 189.895437 
C 268.942682 200.013886 263.257399 213.739374 263.257399 228.049023 
C 263.257399 242.358671 268.942682 256.08416 279.061132 266.202609 
C 289.179581 276.321058 302.90507 282.006342 317.214718 282.006342 
z
" clip-path="url(#p1ffd4205ca)" style="fill: #ff0000; opacity: 0.2"/>
   </g>
   <g id="patch_3">
    <path d="M 303.03782 215.924579 
C 317.347468 215.924579 331.072957 210.239296 341.191406 200.120846 
C 351.309855 190.002397 356.995139 176.276909 356.995139 161.96726 
C 356.995139 147.657612 351.309855 133.932123 341.191406 123.813674 
C 331.072957 113.695225 317.347468 108.009941 303.03782 108.009941 
C 288.728172 108.009941 275.002683 113.695225 264.884234 123.813674 
C 254.765785 133.932123 249.080501 147.657612 249.080501 161.96726 
C 249.080501 176.276909 254.765785 190.002397 264.884234 200.120846 
C 275.002683 210.239296 288.728172 215.924579 303.03782 215.924579 
z
" clip-path="url(#p1ffd4205ca)" style="fill: #ff0000; opacity: 0.2"/>
   </g>
   <g id="patch_4">
    <path d="M 226.748808 150.354971 
C 241.058456 150.354971 254.783945 144.669687 264.902394 134.551238 
C 275.020844 124.432789 280.706127 110.7073 280.706127 96.397652 
C 280.706127 82.088004 275.020844 68.362515 264.902394 58.244066 
C 254.783945 48.125616 241.058456 42.440333 226.748808 42.440333 
C 212.43916 42.440333 198.713671 48.125616 188.595222 58.244066 
C 178.476773 68.362515 172.791489 82.088004 172.791489 96.397652 
C 172.791489 110.7073 178.476773 124.432789 188.595222 134.551238 
C 198.713671 144.669687 212.43916 150.354971 226.748808 150.354971 
z
" clip-path="url(#p1ffd4205ca)" style="fill: #ff0000; opacity: 0.2"/>
   </g>
   <g id="patch_5">
    <path d="M 180.878521 145.667146 
C 195.18817 145.667146 208.913658 139.981862 219.032108 129.863413 
C 229.150557 119.744964 234.83584 106.019475 234.83584 91.709827 
C 234.83584 77.400179 229.150557 63.67469 219.032108 53.556241 
C 208.913658 43.437792 195.18817 37.752508 180.878521 37.752508 
C 166.568873 37.752508 152.843385 43.437792 142.724935 53.556241 
C 132.606486 63.67469 126.921202 77.400179 126.921202 91.709827 
C 126.921202 106.019475 132.606486 119.744964 142.724935 129.863413 
C 152.843385 139.981862 166.568873 145.667146 180.878521 145.667146 
z
" clip-path="url(#p1ffd4205ca)" style="fill: #ff0000; opacity: 0.2"/>
   </g>
   <g id="patch_6">
    <path d="M 180.173523 165.984633 
C 194.483171 165.984633 208.20866 160.29935 218.327109 150.180901 
C 228.445558 140.062451 234.130842 126.336963 234.130842 112.027314 
C 234.130842 97.717666 228.445558 83.992178 218.327109 73.873728 
C 208.20866 63.755279 194.483171 58.069995 180.173523 58.069995 
C 165.863875 58.069995 152.138386 63.755279 142.019937 73.873728 
C 131.901487 83.992178 126.216204 97.717666 126.216204 112.027314 
C 126.216204 126.336963 131.901487 140.062451 142.019937 150.180901 
C 152.138386 160.29935 165.863875 165.984633 180.173523 165.984633 
z
" clip-path="url(#p1ffd4205ca)" style="fill: #ff0000; opacity: 0.2"/>
   </g>
   <g id="patch_7">
    <path d="M 108.764074 213.922781 
C 123.073722 213.922781 136.799211 208.237497 146.91766 198.119048 
C 157.036109 188.000599 162.721393 174.27511 162.721393 159.965462 
C 162.721393 145.655814 157.036109 131.930325 146.91766 121.811876 
C 136.799211 111.693426 123.073722 106.008143 108.764074 106.008143 
C 94.454426 106.008143 80.728937 111.693426 70.610488 121.811876 
C 60.492038 131.930325 54.806755 145.655814 54.806755 159.965462 
C 54.806755 174.27511 60.492038 188.000599 70.610488 198.119048 
C 80.728937 208.237497 94.454426 213.922781 108.764074 213.922781 
z
" clip-path="url(#p1ffd4205ca)" style="fill: #ff0000; opacity: 0.2"/>
   </g>
   <g id="patch_8">
    <path d="M 78.632731 257.937858 
C 92.94238 257.937858 106.667868 252.252575 116.786317 242.134125 
C 126.904767 232.015676 132.59005 218.290188 132.59005 203.980539 
C 132.59005 189.670891 126.904767 175.945402 116.786317 165.826953 
C 106.667868 155.708504 92.94238 150.02322 78.632731 150.02322 
C 64.323083 150.02322 50.597595 155.708504 40.479145 165.826953 
C 30.360696 175.945402 24.675412 189.670891 24.675412 203.980539 
C 24.675412 218.290188 30.360696 232.015676 40.479145 242.134125 
C 50.597595 252.252575 64.323083 257.937858 78.632731 257.937858 
z
" clip-path="url(#p1ffd4205ca)" style="fill: #ff0000; opacity: 0.2"/>
   </g>
   <g id="patch_9">
    <path d="M 100.042517 330.592014 
C 114.352165 330.592014 128.077653 324.906731 138.196103 314.788281 
C 148.314552 304.669832 153.999835 290.944344 153.999835 276.634695 
C 153.999835 262.325047 148.314552 248.599558 138.196103 238.481109 
C 128.077653 228.36266 114.352165 222.677376 100.042517 222.677376 
C 85.732868 222.677376 72.00738 228.36266 61.88893 238.481109 
C 51.770481 248.599558 46.085198 262.325047 46.085198 276.634695 
C 46.085198 290.944344 51.770481 304.669832 61.88893 314.788281 
C 72.00738 324.906731 85.732868 330.592014 100.042517 330.592014 
z
" clip-path="url(#p1ffd4205ca)" style="fill: #ff0000; opacity: 0.2"/>
   </g>
   <g id="patch_10">
    <path d="M 115.268659 354.535717 
C 129.578307 354.535717 143.303795 348.850434 153.422245 338.731984 
C 163.540694 328.613535 169.225978 314.888047 169.225978 300.578398 
C 169.225978 286.26875 163.540694 272.543262 153.422245 262.424812 
C 143.303795 252.306363 129.578307 246.621079 115.268659 246.621079 
C 100.95901 246.621079 87.233522 252.306363 77.115073 262.424812 
C 66.996623 272.543262 61.31134 286.26875 61.31134 300.578398 
C 61.31134 314.888047 66.996623 328.613535 77.115073 338.731984 
C 87.233522 348.850434 100.95901 354.535717 115.268659 354.535717 
z
" clip-path="url(#p1ffd4205ca)" style="fill: #ff0000; opacity: 0.2"/>
   </g>
   <g id="patch_11">
    <path d="M 207.164764 383.547492 
C 221.474413 383.547492 235.199901 377.862208 245.318351 367.743759 
C 255.4368 357.62531 261.122083 343.899821 261.122083 329.590173 
C 261.122083 315.280525 255.4368 301.555036 245.318351 291.436587 
C 235.199901 281.318138 221.474413 275.632854 207.164764 275.632854 
C 192.855116 275.632854 179.129628 281.318138 169.011178 291.436587 
C 158.892729 301.555036 153.207446 315.280525 153.207446 329.590173 
C 153.207446 343.899821 158.892729 357.62531 169.011178 367.743759 
C 179.129628 377.862208 192.855116 383.547492 207.164764 383.547492 
z
" clip-path="url(#p1ffd4205ca)" style="fill: #ff0000; opacity: 0.2"/>
   </g>
   <g id="patch_12">
    <path d="M 260.152478 374.920062 
C 274.462127 374.920062 288.187615 369.234778 298.306065 359.116329 
C 308.424514 348.99788 314.109797 335.272391 314.109797 320.962743 
C 314.109797 306.653095 308.424514 292.927606 298.306065 282.809157 
C 288.187615 272.690708 274.462127 267.005424 260.152478 267.005424 
C 245.84283 267.005424 232.117342 272.690708 221.998892 282.809157 
C 211.880443 292.927606 206.19516 306.653095 206.19516 320.962743 
C 206.19516 335.272391 211.880443 348.99788 221.998892 359.116329 
C 232.117342 369.234778 245.84283 374.920062 260.152478 374.920062 
z
" clip-path="url(#p1ffd4205ca)" style="fill: #ff0000; opacity: 0.2"/>
   </g>
   <g id="patch_13">
    <path d="M 313.585628 303.370141 
C 327.895276 303.370141 341.620765 297.684857 351.739214 287.566408 
C 361.857664 277.447959 367.542947 263.72247 367.542947 249.412822 
C 367.542947 235.103174 361.857664 221.377685 351.739214 211.259236 
C 341.620765 201.140786 327.895276 195.455503 313.585628 195.455503 
C 299.27598 195.455503 285.550491 201.140786 275.432042 211.259236 
C 265.313593 221.377685 259.628309 235.103174 259.628309 249.412822 
C 259.628309 263.72247 265.313593 277.447959 275.432042 287.566408 
C 285.550491 297.684857 299.27598 303.370141 313.585628 303.370141 
z
" clip-path="url(#p1ffd4205ca)" style="fill: #ff0000; opacity: 0.2"/>
   </g>
   <g id="patch_14">
    <path d="M 442.965892 266.089845 
C 457.27554 266.089845 471.001029 260.404562 481.119478 250.286112 
C 491.237928 240.167663 496.923211 226.442175 496.923211 212.132526 
C 496.923211 197.822878 491.237928 184.097389 481.119478 173.97894 
C 471.001029 163.860491 457.27554 158.175207 442.965892 158.175207 
C 428.656244 158.175207 414.930755 163.860491 404.812306 173.97894 
C 394.693857 184.097389 389.008573 197.822878 389.008573 212.132526 
C 389.008573 226.442175 394.693857 240.167663 404.812306 250.286112 
C 414.930755 260.404562 428.656244 266.089845 442.965892 266.089845 
z
" clip-path="url(#p1ffd4205ca)" style="fill: #ff0000; opacity: 0.2"/>
   </g>
   <g id="patch_15">
    <path d="M 417.346602 207.077563 
C 431.656251 207.077563 445.381739 201.39228 455.500189 191.273831 
C 465.618638 181.155381 471.303921 167.429893 471.303921 153.120244 
C 471.303921 138.810596 465.618638 125.085108 455.500189 114.966658 
C 445.381739 104.848209 431.656251 99.162925 417.346602 99.162925 
C 403.036954 99.162925 389.311466 104.848209 379.193016 114.966658 
C 369.074567 125.085108 363.389283 138.810596 363.389283 153.120244 
C 363.389283 167.429893 369.074567 181.155381 379.193016 191.273831 
C 389.311466 201.39228 403.036954 207.077563 417.346602 207.077563 
z
" clip-path="url(#p1ffd4205ca)" style="fill: #ff0000; opacity: 0.2"/>
   </g>
   <g id="patch_16">
    <path d="M 373.561047 196.554314 
C 387.870695 196.554314 401.596184 190.86903 411.714633 180.750581 
C 421.833082 170.632132 427.518366 156.906643 427.518366 142.596995 
C 427.518366 128.287347 421.833082 114.561858 411.714633 104.443409 
C 401.596184 94.32496 387.870695 88.639676 373.561047 88.639676 
C 359.251399 88.639676 345.52591 94.32496 335.407461 104.443409 
C 325.289011 114.561858 319.603728 128.287347 319.603728 142.596995 
C 319.603728 156.906643 325.289011 170.632132 335.407461 180.750581 
C 345.52591 190.86903 359.251399 196.554314 373.561047 196.554314 
z
" clip-path="url(#p1ffd4205ca)" style="fill: #ff0000; opacity: 0.2"/>
   </g>
   <g id="patch_17">
    <path d="M 300.025264 263.172288 
C 314.334912 263.172288 328.060401 257.487005 338.17885 247.368556 
C 348.2973 237.250106 353.982583 223.524618 353.982583 209.21497 
C 353.982583 194.905321 348.2973 181.179833 338.17885 171.061383 
C 328.060401 160.942934 314.334912 155.257651 300.025264 155.257651 
C 285.715616 155.257651 271.990127 160.942934 261.871678 171.061383 
C 251.753229 181.179833 246.067945 194.905321 246.067945 209.21497 
C 246.067945 223.524618 251.753229 237.250106 261.871678 247.368556 
C 271.990127 257.487005 285.715616 263.172288 300.025264 263.172288 
z
" clip-path="url(#p1ffd4205ca)" style="fill: #ff0000; opacity: 0.2"/>
   </g>
   <g id="patch_18">
    <path d="M 300.51151 280.372853 
C 314.821158 280.372853 328.546647 274.68757 338.665096 264.56912 
C 348.783546 254.450671 354.468829 240.725182 354.468829 226.415534 
C 354.468829 212.105886 348.783546 198.380397 338.665096 188.261948 
C 328.546647 178.143499 314.821158 172.458215 300.51151 172.458215 
C 286.201862 172.458215 272.476373 178.143499 262.357924 188.261948 
C 252.239475 198.380397 246.554191 212.105886 246.554191 226.415534 
C 246.554191 240.725182 252.239475 254.450671 262.357924 264.56912 
C 272.476373 274.68757 286.201862 280.372853 300.51151 280.372853 
z
" clip-path="url(#p1ffd4205ca)" style="fill: #ff0000; opacity: 0.2"/>
   </g>
   <g id="patch_19">
    <path d="M 364.236101 337.571444 
C 378.54575 337.571444 392.271238 331.88616 402.389687 321.767711 
C 412.508137 311.649262 418.19342 297.923773 418.19342 283.614125 
C 418.19342 269.304477 412.508137 255.578988 402.389687 245.460539 
C 392.271238 235.342089 378.54575 229.656806 364.236101 229.656806 
C 349.926453 229.656806 336.200964 235.342089 326.082515 245.460539 
C 315.964066 255.578988 310.278782 269.304477 310.278782 283.614125 
C 310.278782 297.923773 315.964066 311.649262 326.082515 321.767711 
C 336.200964 331.88616 349.926453 337.571444 364.236101 337.571444 
z
" clip-path="url(#p1ffd4205ca)" style="fill: #ff0000; opacity: 0.2"/>
   </g>
   <g id="patch_20">
    <path d="M 417.699097 330.284441 
C 432.008745 330.284441 445.734233 324.599158 455.852683 314.480708 
C 465.971132 304.362259 471.656415 290.63677 471.656415 276.327122 
C 471.656415 262.017474 465.971132 248.291985 455.852683 238.173536 
C 445.734233 228.055087 432.008745 222.369803 417.699097 222.369803 
C 403.389448 222.369803 389.66396 228.055087 379.54551 238.173536 
C 369.427061 248.291985 363.741778 262.017474 363.741778 276.327122 
C 363.741778 290.63677 369.427061 304.362259 379.54551 314.480708 
C 389.66396 324.599158 403.389448 330.284441 417.699097 330.284441 
z
" clip-path="url(#p1ffd4205ca)" style="fill: #ff0000; opacity: 0.2"/>
   </g>
   <g id="patch_21">
    <path d="M 317.214718 282.006342 
C 331.524366 282.006342 345.249855 276.321058 355.368304 266.202609 
C 365.486753 256.08416 371.172037 242.358671 371.172037 228.049023 
C 371.172037 213.739374 365.486753 200.013886 355.368304 189.895437 
C 345.249855 179.776987 331.524366 174.091704 317.214718 174.091704 
C 302.90507 174.091704 289.179581 179.776987 279.061132 189.895437 
C 268.942682 200.013886 263.257399 213.739374 263.257399 228.049023 
C 263.257399 242.358671 268.942682 256.08416 279.061132 266.202609 
C 289.179581 276.321058 302.90507 282.006342 317.214718 282.006342 
L 317.214718 282.006342 
z
" clip-path="url(#p1ffd4205ca)" style="fill: none; stroke: #ff0000; stroke-width: 2; stroke-linejoin: miter"/>
   </g>
   <g id="patch_22">
    <path d="M 303.03782 215.924579 
C 317.347468 215.924579 331.072957 210.239296 341.191406 200.120846 
C 351.309855 190.002397 356.995139 176.276909 356.995139 161.96726 
C 356.995139 147.657612 351.309855 133.932123 341.191406 123.813674 
C 331.072957 113.695225 317.347468 108.009941 303.03782 108.009941 
C 288.728172 108.009941 275.002683 113.695225 264.884234 123.813674 
C 254.765785 133.932123 249.080501 147.657612 249.080501 161.96726 
C 249.080501 176.276909 254.765785 190.002397 264.884234 200.120846 
C 275.002683 210.239296 288.728172 215.924579 303.03782 215.924579 
L 303.03782 215.924579 
z
" clip-path="url(#p1ffd4205ca)" style="fill: none; stroke: #ff0000; stroke-width: 2; stroke-linejoin: miter"/>
   </g>
   <g id="patch_23">
    <path d="M 226.748808 150.354971 
C 241.058456 150.354971 254.783945 144.669687 264.902394 134.551238 
C 275.020844 124.432789 280.706127 110.7073 280.706127 96.397652 
C 280.706127 82.088004 275.020844 68.362515 264.902394 58.244066 
C 254.783945 48.125616 241.058456 42.440333 226.748808 42.440333 
C 212.43916 42.440333 198.713671 48.125616 188.595222 58.244066 
C 178.476773 68.362515 172.791489 82.088004 172.791489 96.397652 
C 172.791489 110.7073 178.476773 124.432789 188.595222 134.551238 
C 198.713671 144.669687 212.43916 150.354971 226.748808 150.354971 
L 226.748808 150.354971 
z
" clip-path="url(#p1ffd4205ca)" style="fill: none; stroke: #ff0000; stroke-width: 2; stroke-linejoin: miter"/>
   </g>
   <g id="patch_24">
    <path d="M 180.878521 145.667146 
C 195.18817 145.667146 208.913658 139.981862 219.032108 129.863413 
C 229.150557 119.744964 234.83584 106.019475 234.83584 91.709827 
C 234.83584 77.400179 229.150557 63.67469 219.032108 53.556241 
C 208.913658 43.437792 195.18817 37.752508 180.878521 37.752508 
C 166.568873 37.752508 152.843385 43.437792 142.724935 53.556241 
C 132.606486 63.67469 126.921202 77.400179 126.921202 91.709827 
C 126.921202 106.019475 132.606486 119.744964 142.724935 129.863413 
C 152.843385 139.981862 166.568873 145.667146 180.878521 145.667146 
L 180.878521 145.667146 
z
" clip-path="url(#p1ffd4205ca)" style="fill: none; stroke: #ff0000; stroke-width: 2; stroke-linejoin: miter"/>
   </g>
   <g id="patch_25">
    <path d="M 180.173523 165.984633 
C 194.483171 165.984633 208.20866 160.29935 218.327109 150.180901 
C 228.445558 140.062451 234.130842 126.336963 234.130842 112.027314 
C 234.130842 97.717666 228.445558 83.992178 218.327109 73.873728 
C 208.20866 63.755279 194.483171 58.069995 180.173523 58.069995 
C 165.863875 58.069995 152.138386 63.755279 142.019937 73.873728 
C 131.901487 83.992178 126.216204 97.717666 126.216204 112.027314 
C 126.216204 126.336963 131.901487 140.062451 142.019937 150.180901 
C 152.138386 160.29935 165.863875 165.984633 180.173523 165.984633 
L 180.173523 165.984633 
z
" clip-path="url(#p1ffd4205ca)" style="fill: none; stroke: #ff0000; stroke-width: 2; stroke-linejoin: miter"/>
   </g>
   <g id="patch_26">
    <path d="M 108.764074 213.922781 
C 123.073722 213.922781 136.799211 208.237497 146.91766 198.119048 
C 157.036109 188.000599 162.721393 174.27511 162.721393 159.965462 
C 162.721393 145.655814 157.036109 131.930325 146.91766 121.811876 
C 136.799211 111.693426 123.073722 106.008143 108.764074 106.008143 
C 94.454426 106.008143 80.728937 111.693426 70.610488 121.811876 
C 60.492038 131.930325 54.806755 145.655814 54.806755 159.965462 
C 54.806755 174.27511 60.492038 188.000599 70.610488 198.119048 
C 80.728937 208.237497 94.454426 213.922781 108.764074 213.922781 
L 108.764074 213.922781 
z
" clip-path="url(#p1ffd4205ca)" style="fill: none; stroke: #ff0000; stroke-width: 2; stroke-linejoin: miter"/>
   </g>
   <g id="patch_27">
    <path d="M 78.632731 257.937858 
C 92.94238 257.937858 106.667868 252.252575 116.786317 242.134125 
C 126.904767 232.015676 132.59005 218.290188 132.59005 203.980539 
C 132.59005 189.670891 126.904767 175.945402 116.786317 165.826953 
C 106.667868 155.708504 92.94238 150.02322 78.632731 150.02322 
C 64.323083 150.02322 50.597595 155.708504 40.479145 165.826953 
C 30.360696 175.945402 24.675412 189.670891 24.675412 203.980539 
C 24.675412 218.290188 30.360696 232.015676 40.479145 242.134125 
C 50.597595 252.252575 64.323083 257.937858 78.632731 257.937858 
L 78.632731 257.937858 
z
" clip-path="url(#p1ffd4205ca)" style="fill: none; stroke: #ff0000; stroke-width: 2; stroke-linejoin: miter"/>
   </g>
   <g id="patch_28">
    <path d="M 100.042517 330.592014 
C 114.352165 330.592014 128.077653 324.906731 138.196103 314.788281 
C 148.314552 304.669832 153.999835 290.944344 153.999835 276.634695 
C 153.999835 262.325047 148.314552 248.599558 138.196103 238.481109 
C 128.077653 228.36266 114.352165 222.677376 100.042517 222.677376 
C 85.732868 222.677376 72.00738 228.36266 61.88893 238.481109 
C 51.770481 248.599558 46.085198 262.325047 46.085198 276.634695 
C 46.085198 290.944344 51.770481 304.669832 61.88893 314.788281 
C 72.00738 324.906731 85.732868 330.592014 100.042517 330.592014 
L 100.042517 330.592014 
z
" clip-path="url(#p1ffd4205ca)" style="fill: none; stroke: #ff0000; stroke-width: 2; stroke-linejoin: miter"/>
   </g>
   <g id="patch_29">
    <path d="M 115.268659 354.535717 
C 129.578307 354.535717 143.303795 348.850434 153.422245 338.731984 
C 163.540694 328.613535 169.225978 314.888047 169.225978 300.578398 
C 169.225978 286.26875 163.540694 272.543262 153.422245 262.424812 
C 143.303795 252.306363 129.578307 246.621079 115.268659 246.621079 
C 100.95901 246.621079 87.233522 252.306363 77.115073 262.424812 
C 66.996623 272.543262 61.31134 286.26875 61.31134 300.578398 
C 61.31134 314.888047 66.996623 328.613535 77.115073 338.731984 
C 87.233522 348.850434 100.95901 354.535717 115.268659 354.535717 
L 115.268659 354.535717 
z
" clip-path="url(#p1ffd4205ca)" style="fill: none; stroke: #ff0000; stroke-width: 2; stroke-linejoin: miter"/>
   </g>
   <g id="patch_30">
    <path d="M 207.164764 383.547492 
C 221.474413 383.547492 235.199901 377.862208 245.318351 367.743759 
C 255.4368 357.62531 261.122083 343.899821 261.122083 329.590173 
C 261.122083 315.280525 255.4368 301.555036 245.318351 291.436587 
C 235.199901 281.318138 221.474413 275.632854 207.164764 275.632854 
C 192.855116 275.632854 179.129628 281.318138 169.011178 291.436587 
C 158.892729 301.555036 153.207446 315.280525 153.207446 329.590173 
C 153.207446 343.899821 158.892729 357.62531 169.011178 367.743759 
C 179.129628 377.862208 192.855116 383.547492 207.164764 383.547492 
L 207.164764 383.547492 
z
" clip-path="url(#p1ffd4205ca)" style="fill: none; stroke: #ff0000; stroke-width: 2; stroke-linejoin: miter"/>
   </g>
   <g id="patch_31">
    <path d="M 260.152478 374.920062 
C 274.462127 374.920062 288.187615 369.234778 298.306065 359.116329 
C 308.424514 348.99788 314.109797 335.272391 314.109797 320.962743 
C 314.109797 306.653095 308.424514 292.927606 298.306065 282.809157 
C 288.187615 272.690708 274.462127 267.005424 260.152478 267.005424 
C 245.84283 267.005424 232.117342 272.690708 221.998892 282.809157 
C 211.880443 292.927606 206.19516 306.653095 206.19516 320.962743 
C 206.19516 335.272391 211.880443 348.99788 221.998892 359.116329 
C 232.117342 369.234778 245.84283 374.920062 260.152478 374.920062 
L 260.152478 374.920062 
z
" clip-path="url(#p1ffd4205ca)" style="fill: none; stroke: #ff0000; stroke-width: 2; stroke-linejoin: miter"/>
   </g>
   <g id="patch_32">
    <path d="M 313.585628 303.370141 
C 327.895276 303.370141 341.620765 297.684857 351.739214 287.566408 
C 361.857664 277.447959 367.542947 263.72247 367.542947 249.412822 
C 367.542947 235.103174 361.857664 221.377685 351.739214 211.259236 
C 341.620765 201.140786 327.895276 195.455503 313.585628 195.455503 
C 299.27598 195.455503 285.550491 201.140786 275.432042 211.259236 
C 265.313593 221.377685 259.628309 235.103174 259.628309 249.412822 
C 259.628309 263.72247 265.313593 277.447959 275.432042 287.566408 
C 285.550491 297.684857 299.27598 303.370141 313.585628 303.370141 
L 313.585628 303.370141 
z
" clip-path="url(#p1ffd4205ca)" style="fill: none; stroke: #ff0000; stroke-width: 2; stroke-linejoin: miter"/>
   </g>
   <g id="patch_33">
    <path d="M 442.965892 266.089845 
C 457.27554 266.089845 471.001029 260.404562 481.119478 250.286112 
C 491.237928 240.167663 496.923211 226.442175 496.923211 212.132526 
C 496.923211 197.822878 491.237928 184.097389 481.119478 173.97894 
C 471.001029 163.860491 457.27554 158.175207 442.965892 158.175207 
C 428.656244 158.175207 414.930755 163.860491 404.812306 173.97894 
C 394.693857 184.097389 389.008573 197.822878 389.008573 212.132526 
C 389.008573 226.442175 394.693857 240.167663 404.812306 250.286112 
C 414.930755 260.404562 428.656244 266.089845 442.965892 266.089845 
L 442.965892 266.089845 
z
" clip-path="url(#p1ffd4205ca)" style="fill: none; stroke: #ff0000; stroke-width: 2; stroke-linejoin: miter"/>
   </g>
   <g id="patch_34">
    <path d="M 417.346602 207.077563 
C 431.656251 207.077563 445.381739 201.39228 455.500189 191.273831 
C 465.618638 181.155381 471.303921 167.429893 471.303921 153.120244 
C 471.303921 138.810596 465.618638 125.085108 455.500189 114.966658 
C 445.381739 104.848209 431.656251 99.162925 417.346602 99.162925 
C 403.036954 99.162925 389.311466 104.848209 379.193016 114.966658 
C 369.074567 125.085108 363.389283 138.810596 363.389283 153.120244 
C 363.389283 167.429893 369.074567 181.155381 379.193016 191.273831 
C 389.311466 201.39228 403.036954 207.077563 417.346602 207.077563 
L 417.346602 207.077563 
z
" clip-path="url(#p1ffd4205ca)" style="fill: none; stroke: #ff0000; stroke-width: 2; stroke-linejoin: miter"/>
   </g>
   <g id="patch_35">
    <path d="M 373.561047 196.554314 
C 387.870695 196.554314 401.596184 190.86903 411.714633 180.750581 
C 421.833082 170.632132 427.518366 156.906643 427.518366 142.596995 
C 427.518366 128.287347 421.833082 114.561858 411.714633 104.443409 
C 401.596184 94.32496 387.870695 88.639676 373.561047 88.639676 
C 359.251399 88.639676 345.52591 94.32496 335.407461 104.443409 
C 325.289011 114.561858 319.603728 128.287347 319.603728 142.596995 
C 319.603728 156.906643 325.289011 170.632132 335.407461 180.750581 
C 345.52591 190.86903 359.251399 196.554314 373.561047 196.554314 
L 373.561047 196.554314 
z
" clip-path="url(#p1ffd4205ca)" style="fill: none; stroke: #ff0000; stroke-width: 2; stroke-linejoin: miter"/>
   </g>
   <g id="patch_36">
    <path d="M 300.025264 263.172288 
C 314.334912 263.172288 328.060401 257.487005 338.17885 247.368556 
C 348.2973 237.250106 353.982583 223.524618 353.982583 209.21497 
C 353.982583 194.905321 348.2973 181.179833 338.17885 171.061383 
C 328.060401 160.942934 314.334912 155.257651 300.025264 155.257651 
C 285.715616 155.257651 271.990127 160.942934 261.871678 171.061383 
C 251.753229 181.179833 246.067945 194.905321 246.067945 209.21497 
C 246.067945 223.524618 251.753229 237.250106 261.871678 247.368556 
C 271.990127 257.487005 285.715616 263.172288 300.025264 263.172288 
L 300.025264 263.172288 
z
" clip-path="url(#p1ffd4205ca)" style="fill: none; stroke: #ff0000; stroke-width: 2; stroke-linejoin: miter"/>
   </g>
   <g id="patch_37">
    <path d="M 300.51151 280.372853 
C 314.821158 280.372853 328.546647 274.68757 338.665096 264.56912 
C 348.783546 254.450671 354.468829 240.725182 354.468829 226.415534 
C 354.468829 212.105886 348.783546 198.380397 338.665096 188.261948 
C 328.546647 178.143499 314.821158 172.458215 300.51151 172.458215 
C 286.201862 172.458215 272.476373 178.143499 262.357924 188.261948 
C 252.239475 198.380397 246.554191 212.105886 246.554191 226.415534 
C 246.554191 240.725182 252.239475 254.450671 262.357924 264.56912 
C 272.476373 274.68757 286.201862 280.372853 300.51151 280.372853 
L 300.51151 280.372853 
z
" clip-path="url(#p1ffd4205ca)" style="fill: none; stroke: #ff0000; stroke-width: 2; stroke-linejoin: miter"/>
   </g>
   <g id="patch_38">
    <path d="M 364.236101 337.571444 
C 378.54575 337.571444 392.271238 331.88616 402.389687 321.767711 
C 412.508137 311.649262 418.19342 297.923773 418.19342 283.614125 
C 418.19342 269.304477 412.508137 255.578988 402.389687 245.460539 
C 392.271238 235.342089 378.54575 229.656806 364.236101 229.656806 
C 349.926453 229.656806 336.200964 235.342089 326.082515 245.460539 
C 315.964066 255.578988 310.278782 269.304477 310.278782 283.614125 
C 310.278782 297.923773 315.964066 311.649262 326.082515 321.767711 
C 336.200964 331.88616 349.926453 337.571444 364.236101 337.571444 
L 364.236101 337.571444 
z
" clip-path="url(#p1ffd4205ca)" style="fill: none; stroke: #ff0000; stroke-width: 2; stroke-linejoin: miter"/>
   </g>
   <g id="patch_39">
    <path d="M 417.699097 330.284441 
C 432.008745 330.284441 445.734233 324.599158 455.852683 314.480708 
C 465.971132 304.362259 471.656415 290.63677 471.656415 276.327122 
C 471.656415 262.017474 465.971132 248.291985 455.852683 238.173536 
C 445.734233 228.055087 432.008745 222.369803 417.699097 222.369803 
C 403.389448 222.369803 389.66396 228.055087 379.54551 238.173536 
C 369.427061 248.291985 363.741778 262.017474 363.741778 276.327122 
C 363.741778 290.63677 369.427061 304.362259 379.54551 314.480708 
C 389.66396 324.599158 403.389448 330.284441 417.699097 330.284441 
L 417.699097 330.284441 
z
" clip-path="url(#p1ffd4205ca)" style="fill: none; stroke: #ff0000; stroke-width: 2; stroke-linejoin: miter"/>
   </g>
   <g id="line2d_1">
    <path d="M 317.214718 228.049023 
L 313.585628 249.412822 
" clip-path="url(#p1ffd4205ca)" style="fill: none; stroke: #000000; stroke-width: 2; stroke-linecap: square"/>
   </g>
   <g id="line2d_2">
    <path d="M 317.214718 228.049023 
L 300.025264 209.21497 
" clip-path="url(#p1ffd4205ca)" style="fill: none; stroke: #000000; stroke-width: 2; stroke-linecap: square"/>
   </g>
   <g id="line2d_3">
    <path d="M 317.214718 228.049023 
L 300.51151 226.415534 
" clip-path="url(#p1ffd4205ca)" style="fill: none; stroke: #000000; stroke-width: 2; stroke-linecap: square"/>
   </g>
   <g id="line2d_4">
    <path d="M 303.03782 161.96726 
L 300.025264 209.21497 
" clip-path="url(#p1ffd4205ca)" style="fill: none; stroke: #000000; stroke-width: 2; stroke-linecap: square"/>
   </g>
   <g id="line2d_5">
    <path d="M 226.748808 96.397652 
L 180.878521 91.709827 
" clip-path="url(#p1ffd4205ca)" style="fill: none; stroke: #000000; stroke-width: 2; stroke-linecap: square"/>
   </g>
   <g id="line2d_6">
    <path d="M 226.748808 96.397652 
L 180.173523 112.027314 
" clip-path="url(#p1ffd4205ca)" style="fill: none; stroke: #000000; stroke-width: 2; stroke-linecap: square"/>
   </g>
   <g id="line2d_7">
    <path d="M 180.878521 91.709827 
L 180.173523 112.027314 
" clip-path="url(#p1ffd4205ca)" style="fill: none; stroke: #000000; stroke-width: 2; stroke-linecap: square"/>
   </g>
   <g id="line2d_8">
    <path d="M 108.764074 159.965462 
L 78.632731 203.980539 
" clip-path="url(#p1ffd4205ca)" style="fill: none; stroke: #000000; stroke-width: 2; stroke-linecap: square"/>
   </g>
   <g id="line2d_9">
    <path d="M 100.042517 276.634695 
L 115.268659 300.578398 
" clip-path="url(#p1ffd4205ca)" style="fill: none; stroke: #000000; stroke-width: 2; stroke-linecap: square"/>
   </g>
   <g id="line2d_10">
    <path d="M 207.164764 329.590173 
L 260.152478 320.962743 
" clip-path="url(#p1ffd4205ca)" style="fill: none; stroke: #000000; stroke-width: 2; stroke-linecap: square"/>
   </g>
   <g id="line2d_11">
    <path d="M 313.585628 249.412822 
L 300.025264 209.21497 
" clip-path="url(#p1ffd4205ca)" style="fill: none; stroke: #000000; stroke-width: 2; stroke-linecap: square"/>
   </g>
   <g id="line2d_12">
    <path d="M 313.585628 249.412822 
L 300.51151 226.415534 
" clip-path="url(#p1ffd4205ca)" style="fill: none; stroke: #000000; stroke-width: 2; stroke-linecap: square"/>
   </g>
   <g id="line2d_13">
    <path d="M 417.346602 153.120244 
L 373.561047 142.596995 
" clip-path="url(#p1ffd4205ca)" style="fill: none; stroke: #000000; stroke-width: 2; stroke-linecap: square"/>
   </g>
   <g id="line2d_14">
    <path d="M 300.025264 209.21497 
L 300.51151 226.415534 
" clip-path="url(#p1ffd4205ca)" style="fill: none; stroke: #000000; stroke-width: 2; stroke-linecap: square"/>
   </g>
   <g id="line2d_15">
    <path d="M 364.236101 283.614125 
L 417.699097 276.327122 
" clip-path="url(#p1ffd4205ca)" style="fill: none; stroke: #000000; stroke-width: 2; stroke-linecap: square"/>
   </g>
   <g id="PathCollection_2">
    <defs>
     <path id="mb0cbf0656a" d="M 0 3 
C 0.795609 3 1.55874 2.683901 2.12132 2.12132 
C 2.683901 1.55874 3 0.795609 3 0 
C 3 -0.795609 2.683901 -1.55874 2.12132 -2.12132 
C 1.55874 -2.683901 0.795609 -3 0 -3 
C -0.795609 -3 -1.55874 -2.683901 -2.12132 -2.12132 
C -2.683901 -1.55874 -3 -0.795609 -3 0 
C -3 0.795609 -2.683901 1.55874 -2.12132 2.12132 
C -1.55874 2.683901 -0.795609 3 0 3 
z
" style="stroke: #0000ff"/>
    </defs>
    <g clip-path="url(#p1ffd4205ca)">
     <use xlink:href="#mb0cbf0656a" x="317.214718" y="228.049023" style="fill: #0000ff; stroke: #0000ff"/>
     <use xlink:href="#mb0cbf0656a" x="303.03782" y="161.96726" style="fill: #0000ff; stroke: #0000ff"/>
     <use xlink:href="#mb0cbf0656a" x="226.748808" y="96.397652" style="fill: #0000ff; stroke: #0000ff"/>
     <use xlink:href="#mb0cbf0656a" x="180.878521" y="91.709827" style="fill: #0000ff; stroke: #0000ff"/>
     <use xlink:href="#mb0cbf0656a" x="180.173523" y="112.027314" style="fill: #0000ff; stroke: #0000ff"/>
     <use xlink:href="#mb0cbf0656a" x="108.764074" y="159.965462" style="fill: #0000ff; stroke: #0000ff"/>
     <use xlink:href="#mb0cbf0656a" x="78.632731" y="203.980539" style="fill: #0000ff; stroke: #0000ff"/>
     <use xlink:href="#mb0cbf0656a" x="100.042517" y="276.634695" style="fill: #0000ff; stroke: #0000ff"/>
     <use xlink:href="#mb0cbf0656a" x="115.268659" y="300.578398" style="fill: #0000ff; stroke: #0000ff"/>
     <use xlink:href="#mb0cbf0656a" x="207.164764" y="329.590173" style="fill: #0000ff; stroke: #0000ff"/>
     <use xlink:href="#mb0cbf0656a" x="260.152478" y="320.962743" style="fill: #0000ff; stroke: #0000ff"/>
     <use xlink:href="#mb0cbf0656a" x="313.585628" y="249.412822" style="fill: #0000ff; stroke: #0000ff"/>
     <use xlink:href="#mb0cbf0656a" x="442.965892" y="212.132526" style="fill: #0000ff; stroke: #0000ff"/>
     <use xlink:href="#mb0cbf0656a" x="417.346602" y="153.120244" style="fill: #0000ff; stroke: #0000ff"/>
     <use xlink:href="#mb0cbf0656a" x="373.561047" y="142.596995" style="fill: #0000ff; stroke: #0000ff"/>
     <use xlink:href="#mb0cbf0656a" x="300.025264" y="209.21497" style="fill: #0000ff; stroke: #0000ff"/>
     <use xlink:href="#mb0cbf0656a" x="300.51151" y="226.415534" style="fill: #0000ff; stroke: #0000ff"/>
     <use xlink:href="#mb0cbf0656a" x="364.236101" y="283.614125" style="fill: #0000ff; stroke: #0000ff"/>
     <use xlink:href="#mb0cbf0656a" x="417.699097" y="276.327122" style="fill: #0000ff; stroke: #0000ff"/>
    </g>
   </g>
  </g>
  <g id="axes_2">
   <g id="patch_40">
    <path d="M 558.401376 414.1 
L 1065.6 414.1 
L 1065.6 7.2 
L 558.401376 7.2 
z
" style="fill: #ffffff"/>
   </g>
   <g id="matplotlib.axis_1">
    <g id="xtick_1">
     <g id="line2d_16">
      <defs>
       <path id="mf733db2cb7" d="M 0 0 
L 0 3.5 
" style="stroke: #000000; stroke-width: 0.8"/>
      </defs>
      <g>
       <use xlink:href="#mf733db2cb7" x="571.748709" y="414.1" style="stroke: #000000; stroke-width: 0.8"/>
      </g>
     </g>
    </g>
    <g id="xtick_2">
     <g id="line2d_17">
      <g>
       <use xlink:href="#mf733db2cb7" x="598.443373" y="414.1" style="stroke: #000000; stroke-width: 0.8"/>
      </g>
     </g>
    </g>
    <g id="xtick_3">
     <g id="line2d_18">
      <g>
       <use xlink:href="#mf733db2cb7" x="625.138037" y="414.1" style="stroke: #000000; stroke-width: 0.8"/>
      </g>
     </g>
    </g>
    <g id="xtick_4">
     <g id="line2d_19">
      <g>
       <use xlink:href="#mf733db2cb7" x="651.832702" y="414.1" style="stroke: #000000; stroke-width: 0.8"/>
      </g>
     </g>
    </g>
    <g id="xtick_5">
     <g id="line2d_20">
      <g>
       <use xlink:href="#mf733db2cb7" x="678.527366" y="414.1" style="stroke: #000000; stroke-width: 0.8"/>
      </g>
     </g>
    </g>
    <g id="xtick_6">
     <g id="line2d_21">
      <g>
       <use xlink:href="#mf733db2cb7" x="705.222031" y="414.1" style="stroke: #000000; stroke-width: 0.8"/>
      </g>
     </g>
    </g>
    <g id="xtick_7">
     <g id="line2d_22">
      <g>
       <use xlink:href="#mf733db2cb7" x="731.916695" y="414.1" style="stroke: #000000; stroke-width: 0.8"/>
      </g>
     </g>
    </g>
    <g id="xtick_8">
     <g id="line2d_23">
      <g>
       <use xlink:href="#mf733db2cb7" x="758.611359" y="414.1" style="stroke: #000000; stroke-width: 0.8"/>
      </g>
     </g>
    </g>
    <g id="xtick_9">
     <g id="line2d_24">
      <g>
       <use xlink:href="#mf733db2cb7" x="785.306024" y="414.1" style="stroke: #000000; stroke-width: 0.8"/>
      </g>
     </g>
    </g>
    <g id="xtick_10">
     <g id="line2d_25">
      <g>
       <use xlink:href="#mf733db2cb7" x="812.000688" y="414.1" style="stroke: #000000; stroke-width: 0.8"/>
      </g>
     </g>
    </g>
    <g id="xtick_11">
     <g id="line2d_26">
      <g>
       <use xlink:href="#mf733db2cb7" x="838.695353" y="414.1" style="stroke: #000000; stroke-width: 0.8"/>
      </g>
     </g>
    </g>
    <g id="xtick_12">
     <g id="line2d_27">
      <g>
       <use xlink:href="#mf733db2cb7" x="865.390017" y="414.1" style="stroke: #000000; stroke-width: 0.8"/>
      </g>
     </g>
    </g>
    <g id="xtick_13">
     <g id="line2d_28">
      <g>
       <use xlink:href="#mf733db2cb7" x="892.084681" y="414.1" style="stroke: #000000; stroke-width: 0.8"/>
      </g>
     </g>
    </g>
    <g id="xtick_14">
     <g id="line2d_29">
      <g>
       <use xlink:href="#mf733db2cb7" x="918.779346" y="414.1" style="stroke: #000000; stroke-width: 0.8"/>
      </g>
     </g>
    </g>
    <g id="xtick_15">
     <g id="line2d_30">
      <g>
       <use xlink:href="#mf733db2cb7" x="945.47401" y="414.1" style="stroke: #000000; stroke-width: 0.8"/>
      </g>
     </g>
    </g>
    <g id="xtick_16">
     <g id="line2d_31">
      <g>
       <use xlink:href="#mf733db2cb7" x="972.168675" y="414.1" style="stroke: #000000; stroke-width: 0.8"/>
      </g>
     </g>
    </g>
    <g id="xtick_17">
     <g id="line2d_32">
      <g>
       <use xlink:href="#mf733db2cb7" x="998.863339" y="414.1" style="stroke: #000000; stroke-width: 0.8"/>
      </g>
     </g>
    </g>
    <g id="xtick_18">
     <g id="line2d_33">
      <g>
       <use xlink:href="#mf733db2cb7" x="1025.558003" y="414.1" style="stroke: #000000; stroke-width: 0.8"/>
      </g>
     </g>
    </g>
    <g id="xtick_19">
     <g id="line2d_34">
      <g>
       <use xlink:href="#mf733db2cb7" x="1052.252668" y="414.1" style="stroke: #000000; stroke-width: 0.8"/>
      </g>
     </g>
    </g>
   </g>
   <g id="matplotlib.axis_2">
    <g id="ytick_1">
     <g id="line2d_35">
      <defs>
       <path id="m93106237e7" d="M 0 0 
L -3.5 0 
" style="stroke: #000000; stroke-width: 0.8"/>
      </defs>
      <g>
       <use xlink:href="#m93106237e7" x="558.401376" y="221.88972" style="stroke: #000000; stroke-width: 0.8"/>
      </g>
     </g>
     <g id="text_1">
      <!-- $r_{11}$ -->
      <g transform="translate(524.801376 229.488157) scale(0.2 -0.2)">
       <defs>
        <path id="DejaVuSans-Oblique-72" d="M 2853 2969 
Q 2766 3016 2653 3041 
Q 2541 3066 2413 3066 
Q 1953 3066 1609 2717 
Q 1266 2369 1153 1784 
L 800 0 
L 225 0 
L 909 3500 
L 1484 3500 
L 1375 2956 
Q 1603 3259 1920 3421 
Q 2238 3584 2597 3584 
Q 2691 3584 2781 3573 
Q 2872 3563 2963 3538 
L 2853 2969 
z
" transform="scale(0.015625)"/>
        <path id="DejaVuSans-31" d="M 794 531 
L 1825 531 
L 1825 4091 
L 703 3866 
L 703 4441 
L 1819 4666 
L 2450 4666 
L 2450 531 
L 3481 531 
L 3481 0 
L 794 0 
L 794 531 
z
" transform="scale(0.015625)"/>
       </defs>
       <use xlink:href="#DejaVuSans-Oblique-72"/>
       <use xlink:href="#DejaVuSans-31" transform="translate(41.113281 -16.40625) scale(0.7)"/>
       <use xlink:href="#DejaVuSans-31" transform="translate(85.649414 -16.40625) scale(0.7)"/>
      </g>
     </g>
    </g>
   </g>
   <g id="line2d_36">
    <path d="M 598.443373 414.1 
L 598.443373 341.680163 
L 625.138037 341.680163 
L 625.138037 414.1 
" clip-path="url(#pe8b3e02a0b)" style="fill: none; stroke: #ff0000; stroke-width: 5; stroke-linecap: square"/>
   </g>
   <g id="line2d_37">
    <path d="M 571.748709 414.1 
L 571.748709 249.846779 
L 611.790705 249.846779 
L 611.790705 341.680163 
" clip-path="url(#pe8b3e02a0b)" style="fill: none; stroke: #ff0000; stroke-width: 5; stroke-linecap: square"/>
   </g>
   <g id="line2d_38">
    <path d="M 651.832702 414.1 
L 651.832702 313.020995 
L 678.527366 313.020995 
L 678.527366 414.1 
" clip-path="url(#pe8b3e02a0b)" style="fill: none; stroke: #ff0000; stroke-width: 5; stroke-linecap: square"/>
   </g>
   <g id="line2d_39">
    <path d="M 705.222031 414.1 
L 705.222031 224.086462 
L 731.916695 224.086462 
L 731.916695 414.1 
" clip-path="url(#pe8b3e02a0b)" style="fill: none; stroke: #ff0000; stroke-width: 5; stroke-linecap: square"/>
   </g>
   <g id="line2d_40">
    <path d="M 758.611359 414.1 
L 758.611359 222.858095 
L 785.306024 222.858095 
L 785.306024 414.1 
" clip-path="url(#pe8b3e02a0b)" style="fill: none; stroke: #ff0000; stroke-width: 5; stroke-linecap: square"/>
   </g>
   <g id="line2d_41">
    <path d="M 892.084681 414.1 
L 892.084681 354.314891 
L 918.779346 354.314891 
L 918.779346 414.1 
" clip-path="url(#pe8b3e02a0b)" style="fill: none; stroke: #ff0000; stroke-width: 5; stroke-linecap: square"/>
   </g>
   <g id="line2d_42">
    <path d="M 865.390017 414.1 
L 865.390017 352.802549 
L 905.432014 352.802549 
L 905.432014 354.314891 
" clip-path="url(#pe8b3e02a0b)" style="fill: none; stroke: #ff0000; stroke-width: 5; stroke-linecap: square"/>
   </g>
   <g id="line2d_43">
    <path d="M 838.695353 414.1 
L 838.695353 336.906263 
L 885.411015 336.906263 
L 885.411015 352.802549 
" clip-path="url(#pe8b3e02a0b)" style="fill: none; stroke: #ff0000; stroke-width: 5; stroke-linecap: square"/>
   </g>
   <g id="line2d_44">
    <path d="M 812.000688 414.1 
L 812.000688 245.44935 
L 862.053184 245.44935 
L 862.053184 336.906263 
" clip-path="url(#pe8b3e02a0b)" style="fill: none; stroke: #ff0000; stroke-width: 5; stroke-linecap: square"/>
   </g>
   <g id="line2d_45">
    <path d="M 945.47401 414.1 
L 945.47401 221.88972 
L 972.168675 221.88972 
L 972.168675 414.1 
" clip-path="url(#pe8b3e02a0b)" style="fill: none; stroke: #ff0000; stroke-width: 5; stroke-linecap: square"/>
   </g>
   <g id="line2d_46">
    <path d="M 1025.558003 414.1 
L 1025.558003 253.682782 
L 1052.252668 253.682782 
L 1052.252668 414.1 
" clip-path="url(#pe8b3e02a0b)" style="fill: none; stroke: #ff0000; stroke-width: 5; stroke-linecap: square"/>
   </g>
   <g id="line2d_47">
    <path d="M 998.863339 414.1 
L 998.863339 221.88972 
" clip-path="url(#pe8b3e02a0b)" style="fill: none; stroke: #ff0000; stroke-width: 5; stroke-linecap: square"/>
   </g>
   <g id="line2d_48">
    <path d="M 591.769707 249.846779 
L 591.769707 221.88972 
" clip-path="url(#pe8b3e02a0b)" style="fill: none; stroke: #ff0000; stroke-width: 5; stroke-linecap: square"/>
   </g>
   <g id="line2d_49">
    <path d="M 665.180034 313.020995 
L 665.180034 221.88972 
" clip-path="url(#pe8b3e02a0b)" style="fill: none; stroke: #ff0000; stroke-width: 5; stroke-linecap: square"/>
   </g>
   <g id="line2d_50">
    <path d="M 718.569363 224.086462 
L 718.569363 221.88972 
" clip-path="url(#pe8b3e02a0b)" style="fill: none; stroke: #ff0000; stroke-width: 5; stroke-linecap: square"/>
   </g>
   <g id="line2d_51">
    <path d="M 771.958692 222.858095 
L 771.958692 221.88972 
" clip-path="url(#pe8b3e02a0b)" style="fill: none; stroke: #ff0000; stroke-width: 5; stroke-linecap: square"/>
   </g>
   <g id="line2d_52">
    <path d="M 837.026936 245.44935 
L 837.026936 221.88972 
" clip-path="url(#pe8b3e02a0b)" style="fill: none; stroke: #ff0000; stroke-width: 5; stroke-linecap: square"/>
   </g>
   <g id="line2d_53">
    <path d="M 958.821342 221.88972 
L 958.821342 221.88972 
" clip-path="url(#pe8b3e02a0b)" style="fill: none; stroke: #ff0000; stroke-width: 5; stroke-linecap: square"/>
   </g>
   <g id="line2d_54">
    <path d="M 1038.905336 253.682782 
L 1038.905336 221.88972 
" clip-path="url(#pe8b3e02a0b)" style="fill: none; stroke: #ff0000; stroke-width: 5; stroke-linecap: square"/>
   </g>
   <g id="patch_41">
    <path d="M 558.401376 414.1 
L 558.401376 7.2 
" style="fill: none; stroke: #000000; stroke-width: 0.8; stroke-linejoin: miter; stroke-linecap: square"/>
   </g>
   <g id="patch_42">
    <path d="M 1065.6 414.1 
L 1065.6 7.2 
" style="fill: none; stroke: #000000; stroke-width: 0.8; stroke-linejoin: miter; stroke-linecap: square"/>
   </g>
   <g id="patch_43">
    <path d="M 558.401376 414.1 
L 1065.6 414.1 
" style="fill: none; stroke: #000000; stroke-width: 0.8; stroke-linejoin: miter; stroke-linecap: square"/>
   </g>
   <g id="patch_44">
    <path d="M 558.401376 7.2 
L 1065.6 7.2 
" style="fill: none; stroke: #000000; stroke-width: 0.8; stroke-linejoin: miter; stroke-linecap: square"/>
   </g>
   <g id="PathCollection_3">
    <defs>
     <path id="mac64f70898" d="M 0 6.123724 
C 1.624031 6.123724 3.181764 5.47849 4.330127 4.330127 
C 5.47849 3.181764 6.123724 1.624031 6.123724 0 
C 6.123724 -1.624031 5.47849 -3.181764 4.330127 -4.330127 
C 3.181764 -5.47849 1.624031 -6.123724 0 -6.123724 
C -1.624031 -6.123724 -3.181764 -5.47849 -4.330127 -4.330127 
C -5.47849 -3.181764 -6.123724 -1.624031 -6.123724 0 
C -6.123724 1.624031 -5.47849 3.181764 -4.330127 4.330127 
C -3.181764 5.47849 -1.624031 6.123724 0 6.123724 
z
" style="stroke: #0000ff"/>
    </defs>
    <g clip-path="url(#pe8b3e02a0b)">
     <use xlink:href="#mac64f70898" x="571.748709" y="414.1" style="fill: #0000ff; stroke: #0000ff"/>
     <use xlink:href="#mac64f70898" x="598.443373" y="414.1" style="fill: #0000ff; stroke: #0000ff"/>
     <use xlink:href="#mac64f70898" x="625.138037" y="414.1" style="fill: #0000ff; stroke: #0000ff"/>
     <use xlink:href="#mac64f70898" x="651.832702" y="414.1" style="fill: #0000ff; stroke: #0000ff"/>
     <use xlink:href="#mac64f70898" x="678.527366" y="414.1" style="fill: #0000ff; stroke: #0000ff"/>
     <use xlink:href="#mac64f70898" x="705.222031" y="414.1" style="fill: #0000ff; stroke: #0000ff"/>
     <use xlink:href="#mac64f70898" x="731.916695" y="414.1" style="fill: #0000ff; stroke: #0000ff"/>
     <use xlink:href="#mac64f70898" x="758.611359" y="414.1" style="fill: #0000ff; stroke: #0000ff"/>
     <use xlink:href="#mac64f70898" x="785.306024" y="414.1" style="fill: #0000ff; stroke: #0000ff"/>
     <use xlink:href="#mac64f70898" x="812.000688" y="414.1" style="fill: #0000ff; stroke: #0000ff"/>
     <use xlink:href="#mac64f70898" x="838.695353" y="414.1" style="fill: #0000ff; stroke: #0000ff"/>
     <use xlink:href="#mac64f70898" x="865.390017" y="414.1" style="fill: #0000ff; stroke: #0000ff"/>
     <use xlink:href="#mac64f70898" x="892.084681" y="414.1" style="fill: #0000ff; stroke: #0000ff"/>
     <use xlink:href="#mac64f70898" x="918.779346" y="414.1" style="fill: #0000ff; stroke: #0000ff"/>
     <use xlink:href="#mac64f70898" x="945.47401" y="414.1" style="fill: #0000ff; stroke: #0000ff"/>
     <use xlink:href="#mac64f70898" x="972.168675" y="414.1" style="fill: #0000ff; stroke: #0000ff"/>
     <use xlink:href="#mac64f70898" x="998.863339" y="414.1" style="fill: #0000ff; stroke: #0000ff"/>
     <use xlink:href="#mac64f70898" x="1025.558003" y="414.1" style="fill: #0000ff; stroke: #0000ff"/>
     <use xlink:href="#mac64f70898" x="1052.252668" y="414.1" style="fill: #0000ff; stroke: #0000ff"/>
    </g>
   </g>
  </g>
 </g>
 <defs>
  <clipPath id="p1ffd4205ca">
   <rect x="7.2" y="20.277096" width="507.198624" height="380.745809"/>
  </clipPath>
  <clipPath id="pe8b3e02a0b">
   <rect x="558.401376" y="7.2" width="507.198624" height="406.9"/>
  </clipPath>
 </defs>
</svg>
