<?xml version="1.0" encoding="utf-8" standalone="no"?>
<!DOCTYPE svg PUBLIC "-//W3C//DTD SVG 1.1//EN"
  "http://www.w3.org/Graphics/SVG/1.1/DTD/svg11.dtd">
<svg xmlns:xlink="http://www.w3.org/1999/xlink" width="1072.8pt" height="424.8pt" viewBox="0 0 1072.8 424.8" xmlns="http://www.w3.org/2000/svg" version="1.1">
 <metadata>
  <rdf:RDF xmlns:dc="http://purl.org/dc/elements/1.1/" xmlns:cc="http://creativecommons.org/ns#" xmlns:rdf="http://www.w3.org/1999/02/22-rdf-syntax-ns#">
   <cc:Work>
    <dc:type rdf:resource="http://purl.org/dc/dcmitype/StillImage"/>
    <dc:date>2023-10-24T09:47:28.020632</dc:date>
    <dc:format>image/svg+xml</dc:format>
    <dc:creator>
     <cc:Agent>
      <dc:title>Matplotlib v3.7.2, https://matplotlib.org/</dc:title>
     </cc:Agent>
    </dc:creator>
   </cc:Work>
  </rdf:RDF>
 </metadata>
 <defs>
  <style type="text/css">*{stroke-linejoin: round; stroke-linecap: butt}</style>
 </defs>
 <g id="figure_1">
  <g id="patch_1">
   <path d="M 0 424.8 
L 1072.8 424.8 
L 1072.8 -0 
L 0 -0 
z
" style="fill: #ffffff"/>
  </g>
  <g id="axes_1">
   <g id="PathCollection_1">
    <defs>
     <path id="m816c6a1865" d="M 0 3 
C 0.795609 3 1.55874 2.683901 2.12132 2.12132 
C 2.683901 1.55874 3 0.795609 3 0 
C 3 -0.795609 2.683901 -1.55874 2.12132 -2.12132 
C 1.55874 -2.683901 0.795609 -3 0 -3 
C -0.795609 -3 -1.55874 -2.683901 -2.12132 -2.12132 
C -2.683901 -1.55874 -3 -0.795609 -3 0 
C -3 0.795609 -2.683901 1.55874 -2.12132 2.12132 
C -1.55874 2.683901 -0.795609 3 0 3 
z
" style="stroke: #1f77b4; stroke-opacity: 0"/>
    </defs>
    <g clip-path="url(#pd571a25c81)">
     <use xlink:href="#m816c6a1865" x="7.2" y="402.629522" style="fill: #1f77b4; fill-opacity: 0; stroke: #1f77b4; stroke-opacity: 0"/>
     <use xlink:href="#m816c6a1865" x="518.679033" y="18.670478" style="fill: #1f77b4; fill-opacity: 0; stroke: #1f77b4; stroke-opacity: 0"/>
    </g>
   </g>
   <g id="patch_2">
    <path d="M 319.83103 275.93906 
C 332.492675 275.93906 344.637437 270.908535 353.590572 261.9554 
C 362.543707 253.002265 367.574232 240.857504 367.574232 228.195859 
C 367.574232 215.534214 362.543707 203.389452 353.590572 194.436317 
C 344.637437 185.483182 332.492675 180.452657 319.83103 180.452657 
C 307.169385 180.452657 295.024624 185.483182 286.071489 194.436317 
C 277.118354 203.389452 272.087829 215.534214 272.087829 228.195859 
C 272.087829 240.857504 277.118354 253.002265 286.071489 261.9554 
C 295.024624 270.908535 307.169385 275.93906 319.83103 275.93906 
z
" clip-path="url(#pd571a25c81)" style="fill: #ff0000; opacity: 0.2"/>
   </g>
   <g id="patch_3">
    <path d="M 305.534489 209.299613 
C 318.196134 209.299613 330.340895 204.269088 339.294031 195.315953 
C 348.247166 186.362818 353.277691 174.218056 353.277691 161.556411 
C 353.277691 148.894766 348.247166 136.750005 339.294031 127.79687 
C 330.340895 118.843735 318.196134 113.81321 305.534489 113.81321 
C 292.872844 113.81321 280.728082 118.843735 271.774947 127.79687 
C 262.821812 136.750005 257.791287 148.894766 257.791287 161.556411 
C 257.791287 174.218056 262.821812 186.362818 271.774947 195.315953 
C 280.728082 204.269088 292.872844 209.299613 305.534489 209.299613 
z
" clip-path="url(#pd571a25c81)" style="fill: #ff0000; opacity: 0.2"/>
   </g>
   <g id="patch_4">
    <path d="M 228.60165 143.176642 
C 241.263295 143.176642 253.408056 138.146117 262.361192 129.192982 
C 271.314327 120.239847 276.344852 108.095085 276.344852 95.43344 
C 276.344852 82.771795 271.314327 70.627034 262.361192 61.673899 
C 253.408056 52.720763 241.263295 47.690239 228.60165 47.690239 
C 215.940005 47.690239 203.795243 52.720763 194.842108 61.673899 
C 185.888973 70.627034 180.858448 82.771795 180.858448 95.43344 
C 180.858448 108.095085 185.888973 120.239847 194.842108 129.192982 
C 203.795243 138.146117 215.940005 143.176642 228.60165 143.176642 
z
" clip-path="url(#pd571a25c81)" style="fill: #ff0000; opacity: 0.2"/>
   </g>
   <g id="patch_5">
    <path d="M 182.344249 138.449255 
C 195.005894 138.449255 207.150656 133.41873 216.103791 124.465595 
C 225.056926 115.51246 230.087451 103.367698 230.087451 90.706053 
C 230.087451 78.044408 225.056926 65.899647 216.103791 56.946512 
C 207.150656 47.993377 195.005894 42.962852 182.344249 42.962852 
C 169.682604 42.962852 157.537843 47.993377 148.584708 56.946512 
C 139.631573 65.899647 134.601048 78.044408 134.601048 90.706053 
C 134.601048 103.367698 139.631573 115.51246 148.584708 124.465595 
C 157.537843 133.41873 169.682604 138.449255 182.344249 138.449255 
z
" clip-path="url(#pd571a25c81)" style="fill: #ff0000; opacity: 0.2"/>
   </g>
   <g id="patch_6">
    <path d="M 181.633301 158.938208 
C 194.294946 158.938208 206.439708 153.907683 215.392843 144.954548 
C 224.345978 136.001413 229.376503 123.856651 229.376503 111.195006 
C 229.376503 98.533361 224.345978 86.3886 215.392843 77.435465 
C 206.439708 68.48233 194.294946 63.451805 181.633301 63.451805 
C 168.971656 63.451805 156.826895 68.48233 147.87376 77.435465 
C 138.920625 86.3886 133.8901 98.533361 133.8901 111.195006 
C 133.8901 123.856651 138.920625 136.001413 147.87376 144.954548 
C 156.826895 153.907683 168.971656 158.938208 181.633301 158.938208 
z
" clip-path="url(#pd571a25c81)" style="fill: #ff0000; opacity: 0.2"/>
   </g>
   <g id="patch_7">
    <path d="M 109.621205 207.280921 
C 122.28285 207.280921 134.427612 202.250396 143.380747 193.297261 
C 152.333882 184.344125 157.364407 172.199364 157.364407 159.537719 
C 157.364407 146.876074 152.333882 134.731313 143.380747 125.778177 
C 134.427612 116.825042 122.28285 111.794517 109.621205 111.794517 
C 96.95956 111.794517 84.814799 116.825042 75.861664 125.778177 
C 66.908529 134.731313 61.878004 146.876074 61.878004 159.537719 
C 61.878004 172.199364 66.908529 184.344125 75.861664 193.297261 
C 84.814799 202.250396 96.95956 207.280921 109.621205 207.280921 
z
" clip-path="url(#pd571a25c81)" style="fill: #ff0000; opacity: 0.2"/>
   </g>
   <g id="patch_8">
    <path d="M 79.235575 251.667455 
C 91.89722 251.667455 104.041981 246.63693 112.995116 237.683795 
C 121.948251 228.73066 126.978776 216.585899 126.978776 203.924254 
C 126.978776 191.262609 121.948251 179.117847 112.995116 170.164712 
C 104.041981 161.211577 91.89722 156.181052 79.235575 156.181052 
C 66.57393 156.181052 54.429168 161.211577 45.476033 170.164712 
C 36.522898 179.117847 31.492373 191.262609 31.492373 203.924254 
C 31.492373 216.585899 36.522898 228.73066 45.476033 237.683795 
C 54.429168 246.63693 66.57393 251.667455 79.235575 251.667455 
z
" clip-path="url(#pd571a25c81)" style="fill: #ff0000; opacity: 0.2"/>
   </g>
   <g id="patch_9">
    <path d="M 100.826044 324.934763 
C 113.487689 324.934763 125.63245 319.904238 134.585585 310.951103 
C 143.538721 301.997968 148.569245 289.853206 148.569245 277.191561 
C 148.569245 264.529916 143.538721 252.385155 134.585585 243.432019 
C 125.63245 234.478884 113.487689 229.448359 100.826044 229.448359 
C 88.164399 229.448359 76.019637 234.478884 67.066502 243.432019 
C 58.113367 252.385155 53.082842 264.529916 53.082842 277.191561 
C 53.082842 289.853206 58.113367 301.997968 67.066502 310.951103 
C 76.019637 319.904238 88.164399 324.934763 100.826044 324.934763 
z
" clip-path="url(#pd571a25c81)" style="fill: #ff0000; opacity: 0.2"/>
   </g>
   <g id="patch_10">
    <path d="M 116.180684 349.080534 
C 128.842329 349.080534 140.987091 344.050009 149.940226 335.096874 
C 158.893361 326.143739 163.923886 313.998978 163.923886 301.337333 
C 163.923886 288.675687 158.893361 276.530926 149.940226 267.577791 
C 140.987091 258.624656 128.842329 253.594131 116.180684 253.594131 
C 103.519039 253.594131 91.374278 258.624656 82.421143 267.577791 
C 73.468008 276.530926 68.437483 288.675687 68.437483 301.337333 
C 68.437483 313.998978 73.468008 326.143739 82.421143 335.096874 
C 91.374278 344.050009 103.519039 349.080534 116.180684 349.080534 
z
" clip-path="url(#pd571a25c81)" style="fill: #ff0000; opacity: 0.2"/>
   </g>
   <g id="patch_11">
    <path d="M 208.85233 378.337148 
C 221.513975 378.337148 233.658737 373.306623 242.611872 364.353488 
C 251.565007 355.400353 256.595532 343.255592 256.595532 330.593947 
C 256.595532 317.932302 251.565007 305.78754 242.611872 296.834405 
C 233.658737 287.88127 221.513975 282.850745 208.85233 282.850745 
C 196.190685 282.850745 184.045924 287.88127 175.092789 296.834405 
C 166.139654 305.78754 161.109129 317.932302 161.109129 330.593947 
C 161.109129 343.255592 166.139654 355.400353 175.092789 364.353488 
C 184.045924 373.306623 196.190685 378.337148 208.85233 378.337148 
z
" clip-path="url(#pd571a25c81)" style="fill: #ff0000; opacity: 0.2"/>
   </g>
   <g id="patch_12">
    <path d="M 262.287224 369.636909 
C 274.94887 369.636909 287.093631 364.606384 296.046766 355.653249 
C 304.999901 346.700114 310.030426 334.555352 310.030426 321.893707 
C 310.030426 309.232062 304.999901 297.087301 296.046766 288.134166 
C 287.093631 279.18103 274.94887 274.150506 262.287224 274.150506 
C 249.625579 274.150506 237.480818 279.18103 228.527683 288.134166 
C 219.574548 297.087301 214.544023 309.232062 214.544023 321.893707 
C 214.544023 334.555352 219.574548 346.700114 228.527683 355.653249 
C 237.480818 364.606384 249.625579 369.636909 262.287224 369.636909 
z
" clip-path="url(#pd571a25c81)" style="fill: #ff0000; opacity: 0.2"/>
   </g>
   <g id="patch_13">
    <path d="M 316.171313 297.483155 
C 328.832958 297.483155 340.97772 292.45263 349.930855 283.499495 
C 358.88399 274.54636 363.914515 262.401599 363.914515 249.739954 
C 363.914515 237.078309 358.88399 224.933547 349.930855 215.980412 
C 340.97772 207.027277 328.832958 201.996752 316.171313 201.996752 
C 303.509668 201.996752 291.364907 207.027277 282.411772 215.980412 
C 273.458637 224.933547 268.428112 237.078309 268.428112 249.739954 
C 268.428112 262.401599 273.458637 274.54636 282.411772 283.499495 
C 291.364907 292.45263 303.509668 297.483155 316.171313 297.483155 
z
" clip-path="url(#pd571a25c81)" style="fill: #ff0000; opacity: 0.2"/>
   </g>
   <g id="patch_14">
    <path d="M 446.643458 259.888239 
C 459.305104 259.888239 471.449865 254.857714 480.403 245.904579 
C 489.356135 236.951444 494.38666 224.806683 494.38666 212.145038 
C 494.38666 199.483393 489.356135 187.338631 480.403 178.385496 
C 471.449865 169.432361 459.305104 164.401836 446.643458 164.401836 
C 433.981813 164.401836 421.837052 169.432361 412.883917 178.385496 
C 403.930782 187.338631 398.900257 199.483393 398.900257 212.145038 
C 398.900257 224.806683 403.930782 236.951444 412.883917 245.904579 
C 421.837052 254.857714 433.981813 259.888239 446.643458 259.888239 
z
" clip-path="url(#pd571a25c81)" style="fill: #ff0000; opacity: 0.2"/>
   </g>
   <g id="patch_15">
    <path d="M 420.807959 200.377934 
C 433.469604 200.377934 445.614366 195.347409 454.567501 186.394274 
C 463.520636 177.441139 468.551161 165.296378 468.551161 152.634733 
C 468.551161 139.973088 463.520636 127.828326 454.567501 118.875191 
C 445.614366 109.922056 433.469604 104.891531 420.807959 104.891531 
C 408.146314 104.891531 396.001553 109.922056 387.048418 118.875191 
C 378.095283 127.828326 373.064758 139.973088 373.064758 152.634733 
C 373.064758 165.296378 378.095283 177.441139 387.048418 186.394274 
C 396.001553 195.347409 408.146314 200.377934 420.807959 200.377934 
z
" clip-path="url(#pd571a25c81)" style="fill: #ff0000; opacity: 0.2"/>
   </g>
   <g id="patch_16">
    <path d="M 376.652884 189.765876 
C 389.314529 189.765876 401.45929 184.735351 410.412425 175.782216 
C 419.36556 166.829081 424.396085 154.684319 424.396085 142.022674 
C 424.396085 129.361029 419.36556 117.216268 410.412425 108.263133 
C 401.45929 99.309998 389.314529 94.279473 376.652884 94.279473 
C 363.991239 94.279473 351.846477 99.309998 342.893342 108.263133 
C 333.940207 117.216268 328.909682 129.361029 328.909682 142.022674 
C 328.909682 154.684319 333.940207 166.829081 342.893342 175.782216 
C 351.846477 184.735351 363.991239 189.765876 376.652884 189.765876 
z
" clip-path="url(#pd571a25c81)" style="fill: #ff0000; opacity: 0.2"/>
   </g>
   <g id="patch_17">
    <path d="M 302.496509 256.94606 
C 315.158154 256.94606 327.302916 251.915536 336.256051 242.9624 
C 345.209186 234.009265 350.239711 221.864504 350.239711 209.202859 
C 350.239711 196.541214 345.209186 184.396452 336.256051 175.443317 
C 327.302916 166.490182 315.158154 161.459657 302.496509 161.459657 
C 289.834864 161.459657 277.690103 166.490182 268.736968 175.443317 
C 259.783833 184.396452 254.753308 196.541214 254.753308 209.202859 
C 254.753308 221.864504 259.783833 234.009265 268.736968 242.9624 
C 277.690103 251.915536 289.834864 256.94606 302.496509 256.94606 
z
" clip-path="url(#pd571a25c81)" style="fill: #ff0000; opacity: 0.2"/>
   </g>
   <g id="patch_18">
    <path d="M 302.986859 274.291786 
C 315.648504 274.291786 327.793265 269.261261 336.7464 260.308126 
C 345.699536 251.354991 350.73006 239.21023 350.73006 226.548585 
C 350.73006 213.886939 345.699536 201.742178 336.7464 192.789043 
C 327.793265 183.835908 315.648504 178.805383 302.986859 178.805383 
C 290.325214 178.805383 278.180452 183.835908 269.227317 192.789043 
C 260.274182 201.742178 255.243657 213.886939 255.243657 226.548585 
C 255.243657 239.21023 260.274182 251.354991 269.227317 260.308126 
C 278.180452 269.261261 290.325214 274.291786 302.986859 274.291786 
z
" clip-path="url(#pd571a25c81)" style="fill: #ff0000; opacity: 0.2"/>
   </g>
   <g id="patch_19">
    <path d="M 367.249242 331.973094 
C 379.910887 331.973094 392.055648 326.942569 401.008783 317.989434 
C 409.961919 309.036299 414.992443 296.891537 414.992443 284.229892 
C 414.992443 271.568247 409.961919 259.423486 401.008783 250.470351 
C 392.055648 241.517215 379.910887 236.486691 367.249242 236.486691 
C 354.587597 236.486691 342.442835 241.517215 333.4897 250.470351 
C 324.536565 259.423486 319.50604 271.568247 319.50604 284.229892 
C 319.50604 296.891537 324.536565 309.036299 333.4897 317.989434 
C 342.442835 326.942569 354.587597 331.973094 367.249242 331.973094 
z
" clip-path="url(#pd571a25c81)" style="fill: #ff0000; opacity: 0.2"/>
   </g>
   <g id="patch_20">
    <path d="M 421.163428 324.624594 
C 433.825073 324.624594 445.969835 319.594069 454.92297 310.640934 
C 463.876105 301.687799 468.90663 289.543037 468.90663 276.881392 
C 468.90663 264.219747 463.876105 252.074986 454.92297 243.121851 
C 445.969835 234.168716 433.825073 229.138191 421.163428 229.138191 
C 408.501783 229.138191 396.357022 234.168716 387.403887 243.121851 
C 378.450752 252.074986 373.420227 264.219747 373.420227 276.881392 
C 373.420227 289.543037 378.450752 301.687799 387.403887 310.640934 
C 396.357022 319.594069 408.501783 324.624594 421.163428 324.624594 
z
" clip-path="url(#pd571a25c81)" style="fill: #ff0000; opacity: 0.2"/>
   </g>
   <g id="patch_21">
    <path d="M 319.83103 275.93906 
C 332.492675 275.93906 344.637437 270.908535 353.590572 261.9554 
C 362.543707 253.002265 367.574232 240.857504 367.574232 228.195859 
C 367.574232 215.534214 362.543707 203.389452 353.590572 194.436317 
C 344.637437 185.483182 332.492675 180.452657 319.83103 180.452657 
C 307.169385 180.452657 295.024624 185.483182 286.071489 194.436317 
C 277.118354 203.389452 272.087829 215.534214 272.087829 228.195859 
C 272.087829 240.857504 277.118354 253.002265 286.071489 261.9554 
C 295.024624 270.908535 307.169385 275.93906 319.83103 275.93906 
L 319.83103 275.93906 
z
" clip-path="url(#pd571a25c81)" style="fill: none; stroke: #ff0000; stroke-width: 2; stroke-linejoin: miter"/>
   </g>
   <g id="patch_22">
    <path d="M 305.534489 209.299613 
C 318.196134 209.299613 330.340895 204.269088 339.294031 195.315953 
C 348.247166 186.362818 353.277691 174.218056 353.277691 161.556411 
C 353.277691 148.894766 348.247166 136.750005 339.294031 127.79687 
C 330.340895 118.843735 318.196134 113.81321 305.534489 113.81321 
C 292.872844 113.81321 280.728082 118.843735 271.774947 127.79687 
C 262.821812 136.750005 257.791287 148.894766 257.791287 161.556411 
C 257.791287 174.218056 262.821812 186.362818 271.774947 195.315953 
C 280.728082 204.269088 292.872844 209.299613 305.534489 209.299613 
L 305.534489 209.299613 
z
" clip-path="url(#pd571a25c81)" style="fill: none; stroke: #ff0000; stroke-width: 2; stroke-linejoin: miter"/>
   </g>
   <g id="patch_23">
    <path d="M 228.60165 143.176642 
C 241.263295 143.176642 253.408056 138.146117 262.361192 129.192982 
C 271.314327 120.239847 276.344852 108.095085 276.344852 95.43344 
C 276.344852 82.771795 271.314327 70.627034 262.361192 61.673899 
C 253.408056 52.720763 241.263295 47.690239 228.60165 47.690239 
C 215.940005 47.690239 203.795243 52.720763 194.842108 61.673899 
C 185.888973 70.627034 180.858448 82.771795 180.858448 95.43344 
C 180.858448 108.095085 185.888973 120.239847 194.842108 129.192982 
C 203.795243 138.146117 215.940005 143.176642 228.60165 143.176642 
L 228.60165 143.176642 
z
" clip-path="url(#pd571a25c81)" style="fill: none; stroke: #ff0000; stroke-width: 2; stroke-linejoin: miter"/>
   </g>
   <g id="patch_24">
    <path d="M 182.344249 138.449255 
C 195.005894 138.449255 207.150656 133.41873 216.103791 124.465595 
C 225.056926 115.51246 230.087451 103.367698 230.087451 90.706053 
C 230.087451 78.044408 225.056926 65.899647 216.103791 56.946512 
C 207.150656 47.993377 195.005894 42.962852 182.344249 42.962852 
C 169.682604 42.962852 157.537843 47.993377 148.584708 56.946512 
C 139.631573 65.899647 134.601048 78.044408 134.601048 90.706053 
C 134.601048 103.367698 139.631573 115.51246 148.584708 124.465595 
C 157.537843 133.41873 169.682604 138.449255 182.344249 138.449255 
L 182.344249 138.449255 
z
" clip-path="url(#pd571a25c81)" style="fill: none; stroke: #ff0000; stroke-width: 2; stroke-linejoin: miter"/>
   </g>
   <g id="patch_25">
    <path d="M 181.633301 158.938208 
C 194.294946 158.938208 206.439708 153.907683 215.392843 144.954548 
C 224.345978 136.001413 229.376503 123.856651 229.376503 111.195006 
C 229.376503 98.533361 224.345978 86.3886 215.392843 77.435465 
C 206.439708 68.48233 194.294946 63.451805 181.633301 63.451805 
C 168.971656 63.451805 156.826895 68.48233 147.87376 77.435465 
C 138.920625 86.3886 133.8901 98.533361 133.8901 111.195006 
C 133.8901 123.856651 138.920625 136.001413 147.87376 144.954548 
C 156.826895 153.907683 168.971656 158.938208 181.633301 158.938208 
L 181.633301 158.938208 
z
" clip-path="url(#pd571a25c81)" style="fill: none; stroke: #ff0000; stroke-width: 2; stroke-linejoin: miter"/>
   </g>
   <g id="patch_26">
    <path d="M 109.621205 207.280921 
C 122.28285 207.280921 134.427612 202.250396 143.380747 193.297261 
C 152.333882 184.344125 157.364407 172.199364 157.364407 159.537719 
C 157.364407 146.876074 152.333882 134.731313 143.380747 125.778177 
C 134.427612 116.825042 122.28285 111.794517 109.621205 111.794517 
C 96.95956 111.794517 84.814799 116.825042 75.861664 125.778177 
C 66.908529 134.731313 61.878004 146.876074 61.878004 159.537719 
C 61.878004 172.199364 66.908529 184.344125 75.861664 193.297261 
C 84.814799 202.250396 96.95956 207.280921 109.621205 207.280921 
L 109.621205 207.280921 
z
" clip-path="url(#pd571a25c81)" style="fill: none; stroke: #ff0000; stroke-width: 2; stroke-linejoin: miter"/>
   </g>
   <g id="patch_27">
    <path d="M 79.235575 251.667455 
C 91.89722 251.667455 104.041981 246.63693 112.995116 237.683795 
C 121.948251 228.73066 126.978776 216.585899 126.978776 203.924254 
C 126.978776 191.262609 121.948251 179.117847 112.995116 170.164712 
C 104.041981 161.211577 91.89722 156.181052 79.235575 156.181052 
C 66.57393 156.181052 54.429168 161.211577 45.476033 170.164712 
C 36.522898 179.117847 31.492373 191.262609 31.492373 203.924254 
C 31.492373 216.585899 36.522898 228.73066 45.476033 237.683795 
C 54.429168 246.63693 66.57393 251.667455 79.235575 251.667455 
L 79.235575 251.667455 
z
" clip-path="url(#pd571a25c81)" style="fill: none; stroke: #ff0000; stroke-width: 2; stroke-linejoin: miter"/>
   </g>
   <g id="patch_28">
    <path d="M 100.826044 324.934763 
C 113.487689 324.934763 125.63245 319.904238 134.585585 310.951103 
C 143.538721 301.997968 148.569245 289.853206 148.569245 277.191561 
C 148.569245 264.529916 143.538721 252.385155 134.585585 243.432019 
C 125.63245 234.478884 113.487689 229.448359 100.826044 229.448359 
C 88.164399 229.448359 76.019637 234.478884 67.066502 243.432019 
C 58.113367 252.385155 53.082842 264.529916 53.082842 277.191561 
C 53.082842 289.853206 58.113367 301.997968 67.066502 310.951103 
C 76.019637 319.904238 88.164399 324.934763 100.826044 324.934763 
L 100.826044 324.934763 
z
" clip-path="url(#pd571a25c81)" style="fill: none; stroke: #ff0000; stroke-width: 2; stroke-linejoin: miter"/>
   </g>
   <g id="patch_29">
    <path d="M 116.180684 349.080534 
C 128.842329 349.080534 140.987091 344.050009 149.940226 335.096874 
C 158.893361 326.143739 163.923886 313.998978 163.923886 301.337333 
C 163.923886 288.675687 158.893361 276.530926 149.940226 267.577791 
C 140.987091 258.624656 128.842329 253.594131 116.180684 253.594131 
C 103.519039 253.594131 91.374278 258.624656 82.421143 267.577791 
C 73.468008 276.530926 68.437483 288.675687 68.437483 301.337333 
C 68.437483 313.998978 73.468008 326.143739 82.421143 335.096874 
C 91.374278 344.050009 103.519039 349.080534 116.180684 349.080534 
L 116.180684 349.080534 
z
" clip-path="url(#pd571a25c81)" style="fill: none; stroke: #ff0000; stroke-width: 2; stroke-linejoin: miter"/>
   </g>
   <g id="patch_30">
    <path d="M 208.85233 378.337148 
C 221.513975 378.337148 233.658737 373.306623 242.611872 364.353488 
C 251.565007 355.400353 256.595532 343.255592 256.595532 330.593947 
C 256.595532 317.932302 251.565007 305.78754 242.611872 296.834405 
C 233.658737 287.88127 221.513975 282.850745 208.85233 282.850745 
C 196.190685 282.850745 184.045924 287.88127 175.092789 296.834405 
C 166.139654 305.78754 161.109129 317.932302 161.109129 330.593947 
C 161.109129 343.255592 166.139654 355.400353 175.092789 364.353488 
C 184.045924 373.306623 196.190685 378.337148 208.85233 378.337148 
L 208.85233 378.337148 
z
" clip-path="url(#pd571a25c81)" style="fill: none; stroke: #ff0000; stroke-width: 2; stroke-linejoin: miter"/>
   </g>
   <g id="patch_31">
    <path d="M 262.287224 369.636909 
C 274.94887 369.636909 287.093631 364.606384 296.046766 355.653249 
C 304.999901 346.700114 310.030426 334.555352 310.030426 321.893707 
C 310.030426 309.232062 304.999901 297.087301 296.046766 288.134166 
C 287.093631 279.18103 274.94887 274.150506 262.287224 274.150506 
C 249.625579 274.150506 237.480818 279.18103 228.527683 288.134166 
C 219.574548 297.087301 214.544023 309.232062 214.544023 321.893707 
C 214.544023 334.555352 219.574548 346.700114 228.527683 355.653249 
C 237.480818 364.606384 249.625579 369.636909 262.287224 369.636909 
L 262.287224 369.636909 
z
" clip-path="url(#pd571a25c81)" style="fill: none; stroke: #ff0000; stroke-width: 2; stroke-linejoin: miter"/>
   </g>
   <g id="patch_32">
    <path d="M 316.171313 297.483155 
C 328.832958 297.483155 340.97772 292.45263 349.930855 283.499495 
C 358.88399 274.54636 363.914515 262.401599 363.914515 249.739954 
C 363.914515 237.078309 358.88399 224.933547 349.930855 215.980412 
C 340.97772 207.027277 328.832958 201.996752 316.171313 201.996752 
C 303.509668 201.996752 291.364907 207.027277 282.411772 215.980412 
C 273.458637 224.933547 268.428112 237.078309 268.428112 249.739954 
C 268.428112 262.401599 273.458637 274.54636 282.411772 283.499495 
C 291.364907 292.45263 303.509668 297.483155 316.171313 297.483155 
L 316.171313 297.483155 
z
" clip-path="url(#pd571a25c81)" style="fill: none; stroke: #ff0000; stroke-width: 2; stroke-linejoin: miter"/>
   </g>
   <g id="patch_33">
    <path d="M 446.643458 259.888239 
C 459.305104 259.888239 471.449865 254.857714 480.403 245.904579 
C 489.356135 236.951444 494.38666 224.806683 494.38666 212.145038 
C 494.38666 199.483393 489.356135 187.338631 480.403 178.385496 
C 471.449865 169.432361 459.305104 164.401836 446.643458 164.401836 
C 433.981813 164.401836 421.837052 169.432361 412.883917 178.385496 
C 403.930782 187.338631 398.900257 199.483393 398.900257 212.145038 
C 398.900257 224.806683 403.930782 236.951444 412.883917 245.904579 
C 421.837052 254.857714 433.981813 259.888239 446.643458 259.888239 
L 446.643458 259.888239 
z
" clip-path="url(#pd571a25c81)" style="fill: none; stroke: #ff0000; stroke-width: 2; stroke-linejoin: miter"/>
   </g>
   <g id="patch_34">
    <path d="M 420.807959 200.377934 
C 433.469604 200.377934 445.614366 195.347409 454.567501 186.394274 
C 463.520636 177.441139 468.551161 165.296378 468.551161 152.634733 
C 468.551161 139.973088 463.520636 127.828326 454.567501 118.875191 
C 445.614366 109.922056 433.469604 104.891531 420.807959 104.891531 
C 408.146314 104.891531 396.001553 109.922056 387.048418 118.875191 
C 378.095283 127.828326 373.064758 139.973088 373.064758 152.634733 
C 373.064758 165.296378 378.095283 177.441139 387.048418 186.394274 
C 396.001553 195.347409 408.146314 200.377934 420.807959 200.377934 
L 420.807959 200.377934 
z
" clip-path="url(#pd571a25c81)" style="fill: none; stroke: #ff0000; stroke-width: 2; stroke-linejoin: miter"/>
   </g>
   <g id="patch_35">
    <path d="M 376.652884 189.765876 
C 389.314529 189.765876 401.45929 184.735351 410.412425 175.782216 
C 419.36556 166.829081 424.396085 154.684319 424.396085 142.022674 
C 424.396085 129.361029 419.36556 117.216268 410.412425 108.263133 
C 401.45929 99.309998 389.314529 94.279473 376.652884 94.279473 
C 363.991239 94.279473 351.846477 99.309998 342.893342 108.263133 
C 333.940207 117.216268 328.909682 129.361029 328.909682 142.022674 
C 328.909682 154.684319 333.940207 166.829081 342.893342 175.782216 
C 351.846477 184.735351 363.991239 189.765876 376.652884 189.765876 
L 376.652884 189.765876 
z
" clip-path="url(#pd571a25c81)" style="fill: none; stroke: #ff0000; stroke-width: 2; stroke-linejoin: miter"/>
   </g>
   <g id="patch_36">
    <path d="M 302.496509 256.94606 
C 315.158154 256.94606 327.302916 251.915536 336.256051 242.9624 
C 345.209186 234.009265 350.239711 221.864504 350.239711 209.202859 
C 350.239711 196.541214 345.209186 184.396452 336.256051 175.443317 
C 327.302916 166.490182 315.158154 161.459657 302.496509 161.459657 
C 289.834864 161.459657 277.690103 166.490182 268.736968 175.443317 
C 259.783833 184.396452 254.753308 196.541214 254.753308 209.202859 
C 254.753308 221.864504 259.783833 234.009265 268.736968 242.9624 
C 277.690103 251.915536 289.834864 256.94606 302.496509 256.94606 
L 302.496509 256.94606 
z
" clip-path="url(#pd571a25c81)" style="fill: none; stroke: #ff0000; stroke-width: 2; stroke-linejoin: miter"/>
   </g>
   <g id="patch_37">
    <path d="M 302.986859 274.291786 
C 315.648504 274.291786 327.793265 269.261261 336.7464 260.308126 
C 345.699536 251.354991 350.73006 239.21023 350.73006 226.548585 
C 350.73006 213.886939 345.699536 201.742178 336.7464 192.789043 
C 327.793265 183.835908 315.648504 178.805383 302.986859 178.805383 
C 290.325214 178.805383 278.180452 183.835908 269.227317 192.789043 
C 260.274182 201.742178 255.243657 213.886939 255.243657 226.548585 
C 255.243657 239.21023 260.274182 251.354991 269.227317 260.308126 
C 278.180452 269.261261 290.325214 274.291786 302.986859 274.291786 
L 302.986859 274.291786 
z
" clip-path="url(#pd571a25c81)" style="fill: none; stroke: #ff0000; stroke-width: 2; stroke-linejoin: miter"/>
   </g>
   <g id="patch_38">
    <path d="M 367.249242 331.973094 
C 379.910887 331.973094 392.055648 326.942569 401.008783 317.989434 
C 409.961919 309.036299 414.992443 296.891537 414.992443 284.229892 
C 414.992443 271.568247 409.961919 259.423486 401.008783 250.470351 
C 392.055648 241.517215 379.910887 236.486691 367.249242 236.486691 
C 354.587597 236.486691 342.442835 241.517215 333.4897 250.470351 
C 324.536565 259.423486 319.50604 271.568247 319.50604 284.229892 
C 319.50604 296.891537 324.536565 309.036299 333.4897 317.989434 
C 342.442835 326.942569 354.587597 331.973094 367.249242 331.973094 
L 367.249242 331.973094 
z
" clip-path="url(#pd571a25c81)" style="fill: none; stroke: #ff0000; stroke-width: 2; stroke-linejoin: miter"/>
   </g>
   <g id="patch_39">
    <path d="M 421.163428 324.624594 
C 433.825073 324.624594 445.969835 319.594069 454.92297 310.640934 
C 463.876105 301.687799 468.90663 289.543037 468.90663 276.881392 
C 468.90663 264.219747 463.876105 252.074986 454.92297 243.121851 
C 445.969835 234.168716 433.825073 229.138191 421.163428 229.138191 
C 408.501783 229.138191 396.357022 234.168716 387.403887 243.121851 
C 378.450752 252.074986 373.420227 264.219747 373.420227 276.881392 
C 373.420227 289.543037 378.450752 301.687799 387.403887 310.640934 
C 396.357022 319.594069 408.501783 324.624594 421.163428 324.624594 
L 421.163428 324.624594 
z
" clip-path="url(#pd571a25c81)" style="fill: none; stroke: #ff0000; stroke-width: 2; stroke-linejoin: miter"/>
   </g>
   <g id="line2d_1">
    <path d="M 319.83103 228.195859 
L 316.171313 249.739954 
" clip-path="url(#pd571a25c81)" style="fill: none; stroke: #000000; stroke-width: 2; stroke-linecap: square"/>
   </g>
   <g id="line2d_2">
    <path d="M 319.83103 228.195859 
L 302.496509 209.202859 
" clip-path="url(#pd571a25c81)" style="fill: none; stroke: #000000; stroke-width: 2; stroke-linecap: square"/>
   </g>
   <g id="line2d_3">
    <path d="M 319.83103 228.195859 
L 302.986859 226.548585 
" clip-path="url(#pd571a25c81)" style="fill: none; stroke: #000000; stroke-width: 2; stroke-linecap: square"/>
   </g>
   <g id="line2d_4">
    <path d="M 305.534489 161.556411 
L 302.496509 209.202859 
" clip-path="url(#pd571a25c81)" style="fill: none; stroke: #000000; stroke-width: 2; stroke-linecap: square"/>
   </g>
   <g id="line2d_5">
    <path d="M 228.60165 95.43344 
L 182.344249 90.706053 
" clip-path="url(#pd571a25c81)" style="fill: none; stroke: #000000; stroke-width: 2; stroke-linecap: square"/>
   </g>
   <g id="line2d_6">
    <path d="M 182.344249 90.706053 
L 181.633301 111.195006 
" clip-path="url(#pd571a25c81)" style="fill: none; stroke: #000000; stroke-width: 2; stroke-linecap: square"/>
   </g>
   <g id="line2d_7">
    <path d="M 100.826044 277.191561 
L 116.180684 301.337333 
" clip-path="url(#pd571a25c81)" style="fill: none; stroke: #000000; stroke-width: 2; stroke-linecap: square"/>
   </g>
   <g id="line2d_8">
    <path d="M 316.171313 249.739954 
L 302.496509 209.202859 
" clip-path="url(#pd571a25c81)" style="fill: none; stroke: #000000; stroke-width: 2; stroke-linecap: square"/>
   </g>
   <g id="line2d_9">
    <path d="M 316.171313 249.739954 
L 302.986859 226.548585 
" clip-path="url(#pd571a25c81)" style="fill: none; stroke: #000000; stroke-width: 2; stroke-linecap: square"/>
   </g>
   <g id="line2d_10">
    <path d="M 420.807959 152.634733 
L 376.652884 142.022674 
" clip-path="url(#pd571a25c81)" style="fill: none; stroke: #000000; stroke-width: 2; stroke-linecap: square"/>
   </g>
   <g id="line2d_11">
    <path d="M 302.496509 209.202859 
L 302.986859 226.548585 
" clip-path="url(#pd571a25c81)" style="fill: none; stroke: #000000; stroke-width: 2; stroke-linecap: square"/>
   </g>
   <g id="PathCollection_2">
    <defs>
     <path id="m8d7d879c11" d="M 0 3 
C 0.795609 3 1.55874 2.683901 2.12132 2.12132 
C 2.683901 1.55874 3 0.795609 3 0 
C 3 -0.795609 2.683901 -1.55874 2.12132 -2.12132 
C 1.55874 -2.683901 0.795609 -3 0 -3 
C -0.795609 -3 -1.55874 -2.683901 -2.12132 -2.12132 
C -2.683901 -1.55874 -3 -0.795609 -3 0 
C -3 0.795609 -2.683901 1.55874 -2.12132 2.12132 
C -1.55874 2.683901 -0.795609 3 0 3 
z
" style="stroke: #0000ff"/>
    </defs>
    <g clip-path="url(#pd571a25c81)">
     <use xlink:href="#m8d7d879c11" x="319.83103" y="228.195859" style="fill: #0000ff; stroke: #0000ff"/>
     <use xlink:href="#m8d7d879c11" x="305.534489" y="161.556411" style="fill: #0000ff; stroke: #0000ff"/>
     <use xlink:href="#m8d7d879c11" x="228.60165" y="95.43344" style="fill: #0000ff; stroke: #0000ff"/>
     <use xlink:href="#m8d7d879c11" x="182.344249" y="90.706053" style="fill: #0000ff; stroke: #0000ff"/>
     <use xlink:href="#m8d7d879c11" x="181.633301" y="111.195006" style="fill: #0000ff; stroke: #0000ff"/>
     <use xlink:href="#m8d7d879c11" x="109.621205" y="159.537719" style="fill: #0000ff; stroke: #0000ff"/>
     <use xlink:href="#m8d7d879c11" x="79.235575" y="203.924254" style="fill: #0000ff; stroke: #0000ff"/>
     <use xlink:href="#m8d7d879c11" x="100.826044" y="277.191561" style="fill: #0000ff; stroke: #0000ff"/>
     <use xlink:href="#m8d7d879c11" x="116.180684" y="301.337333" style="fill: #0000ff; stroke: #0000ff"/>
     <use xlink:href="#m8d7d879c11" x="208.85233" y="330.593947" style="fill: #0000ff; stroke: #0000ff"/>
     <use xlink:href="#m8d7d879c11" x="262.287224" y="321.893707" style="fill: #0000ff; stroke: #0000ff"/>
     <use xlink:href="#m8d7d879c11" x="316.171313" y="249.739954" style="fill: #0000ff; stroke: #0000ff"/>
     <use xlink:href="#m8d7d879c11" x="446.643458" y="212.145038" style="fill: #0000ff; stroke: #0000ff"/>
     <use xlink:href="#m8d7d879c11" x="420.807959" y="152.634733" style="fill: #0000ff; stroke: #0000ff"/>
     <use xlink:href="#m8d7d879c11" x="376.652884" y="142.022674" style="fill: #0000ff; stroke: #0000ff"/>
     <use xlink:href="#m8d7d879c11" x="302.496509" y="209.202859" style="fill: #0000ff; stroke: #0000ff"/>
     <use xlink:href="#m8d7d879c11" x="302.986859" y="226.548585" style="fill: #0000ff; stroke: #0000ff"/>
     <use xlink:href="#m8d7d879c11" x="367.249242" y="284.229892" style="fill: #0000ff; stroke: #0000ff"/>
     <use xlink:href="#m8d7d879c11" x="421.163428" y="276.881392" style="fill: #0000ff; stroke: #0000ff"/>
    </g>
   </g>
  </g>
  <g id="axes_2">
   <g id="patch_40">
    <path d="M 554.120967 414.1 
L 1065.6 414.1 
L 1065.6 7.2 
L 554.120967 7.2 
z
" style="fill: #ffffff"/>
   </g>
   <g id="matplotlib.axis_1">
    <g id="xtick_1">
     <g id="line2d_12">
      <defs>
       <path id="m4401fe0177" d="M 0 0 
L 0 3.5 
" style="stroke: #000000; stroke-width: 0.8"/>
      </defs>
      <g>
       <use xlink:href="#m4401fe0177" x="567.580941" y="414.1" style="stroke: #000000; stroke-width: 0.8"/>
      </g>
     </g>
    </g>
    <g id="xtick_2">
     <g id="line2d_13">
      <g>
       <use xlink:href="#m4401fe0177" x="594.50089" y="414.1" style="stroke: #000000; stroke-width: 0.8"/>
      </g>
     </g>
    </g>
    <g id="xtick_3">
     <g id="line2d_14">
      <g>
       <use xlink:href="#m4401fe0177" x="621.42084" y="414.1" style="stroke: #000000; stroke-width: 0.8"/>
      </g>
     </g>
    </g>
    <g id="xtick_4">
     <g id="line2d_15">
      <g>
       <use xlink:href="#m4401fe0177" x="648.340789" y="414.1" style="stroke: #000000; stroke-width: 0.8"/>
      </g>
     </g>
    </g>
    <g id="xtick_5">
     <g id="line2d_16">
      <g>
       <use xlink:href="#m4401fe0177" x="675.260738" y="414.1" style="stroke: #000000; stroke-width: 0.8"/>
      </g>
     </g>
    </g>
    <g id="xtick_6">
     <g id="line2d_17">
      <g>
       <use xlink:href="#m4401fe0177" x="702.180687" y="414.1" style="stroke: #000000; stroke-width: 0.8"/>
      </g>
     </g>
    </g>
    <g id="xtick_7">
     <g id="line2d_18">
      <g>
       <use xlink:href="#m4401fe0177" x="729.100636" y="414.1" style="stroke: #000000; stroke-width: 0.8"/>
      </g>
     </g>
    </g>
    <g id="xtick_8">
     <g id="line2d_19">
      <g>
       <use xlink:href="#m4401fe0177" x="756.020585" y="414.1" style="stroke: #000000; stroke-width: 0.8"/>
      </g>
     </g>
    </g>
    <g id="xtick_9">
     <g id="line2d_20">
      <g>
       <use xlink:href="#m4401fe0177" x="782.940534" y="414.1" style="stroke: #000000; stroke-width: 0.8"/>
      </g>
     </g>
    </g>
    <g id="xtick_10">
     <g id="line2d_21">
      <g>
       <use xlink:href="#m4401fe0177" x="809.860483" y="414.1" style="stroke: #000000; stroke-width: 0.8"/>
      </g>
     </g>
    </g>
    <g id="xtick_11">
     <g id="line2d_22">
      <g>
       <use xlink:href="#m4401fe0177" x="836.780433" y="414.1" style="stroke: #000000; stroke-width: 0.8"/>
      </g>
     </g>
    </g>
    <g id="xtick_12">
     <g id="line2d_23">
      <g>
       <use xlink:href="#m4401fe0177" x="863.700382" y="414.1" style="stroke: #000000; stroke-width: 0.8"/>
      </g>
     </g>
    </g>
    <g id="xtick_13">
     <g id="line2d_24">
      <g>
       <use xlink:href="#m4401fe0177" x="890.620331" y="414.1" style="stroke: #000000; stroke-width: 0.8"/>
      </g>
     </g>
    </g>
    <g id="xtick_14">
     <g id="line2d_25">
      <g>
       <use xlink:href="#m4401fe0177" x="917.54028" y="414.1" style="stroke: #000000; stroke-width: 0.8"/>
      </g>
     </g>
    </g>
    <g id="xtick_15">
     <g id="line2d_26">
      <g>
       <use xlink:href="#m4401fe0177" x="944.460229" y="414.1" style="stroke: #000000; stroke-width: 0.8"/>
      </g>
     </g>
    </g>
    <g id="xtick_16">
     <g id="line2d_27">
      <g>
       <use xlink:href="#m4401fe0177" x="971.380178" y="414.1" style="stroke: #000000; stroke-width: 0.8"/>
      </g>
     </g>
    </g>
    <g id="xtick_17">
     <g id="line2d_28">
      <g>
       <use xlink:href="#m4401fe0177" x="998.300127" y="414.1" style="stroke: #000000; stroke-width: 0.8"/>
      </g>
     </g>
    </g>
    <g id="xtick_18">
     <g id="line2d_29">
      <g>
       <use xlink:href="#m4401fe0177" x="1025.220076" y="414.1" style="stroke: #000000; stroke-width: 0.8"/>
      </g>
     </g>
    </g>
    <g id="xtick_19">
     <g id="line2d_30">
      <g>
       <use xlink:href="#m4401fe0177" x="1052.140025" y="414.1" style="stroke: #000000; stroke-width: 0.8"/>
      </g>
     </g>
    </g>
   </g>
   <g id="matplotlib.axis_2">
    <g id="ytick_1">
     <g id="line2d_31">
      <defs>
       <path id="mcb54ec469f" d="M 0 0 
L -3.5 0 
" style="stroke: #000000; stroke-width: 0.8"/>
      </defs>
      <g>
       <use xlink:href="#mcb54ec469f" x="554.120967" y="245.44935" style="stroke: #000000; stroke-width: 0.8"/>
      </g>
     </g>
     <g id="text_1">
      <!-- $r_{8}$ -->
      <g transform="translate(529.320967 253.047788) scale(0.2 -0.2)">
       <defs>
        <path id="DejaVuSans-Oblique-72" d="M 2853 2969 
Q 2766 3016 2653 3041 
Q 2541 3066 2413 3066 
Q 1953 3066 1609 2717 
Q 1266 2369 1153 1784 
L 800 0 
L 225 0 
L 909 3500 
L 1484 3500 
L 1375 2956 
Q 1603 3259 1920 3421 
Q 2238 3584 2597 3584 
Q 2691 3584 2781 3573 
Q 2872 3563 2963 3538 
L 2853 2969 
z
" transform="scale(0.015625)"/>
        <path id="DejaVuSans-38" d="M 2034 2216 
Q 1584 2216 1326 1975 
Q 1069 1734 1069 1313 
Q 1069 891 1326 650 
Q 1584 409 2034 409 
Q 2484 409 2743 651 
Q 3003 894 3003 1313 
Q 3003 1734 2745 1975 
Q 2488 2216 2034 2216 
z
M 1403 2484 
Q 997 2584 770 2862 
Q 544 3141 544 3541 
Q 544 4100 942 4425 
Q 1341 4750 2034 4750 
Q 2731 4750 3128 4425 
Q 3525 4100 3525 3541 
Q 3525 3141 3298 2862 
Q 3072 2584 2669 2484 
Q 3125 2378 3379 2068 
Q 3634 1759 3634 1313 
Q 3634 634 3220 271 
Q 2806 -91 2034 -91 
Q 1263 -91 848 271 
Q 434 634 434 1313 
Q 434 1759 690 2068 
Q 947 2378 1403 2484 
z
M 1172 3481 
Q 1172 3119 1398 2916 
Q 1625 2713 2034 2713 
Q 2441 2713 2670 2916 
Q 2900 3119 2900 3481 
Q 2900 3844 2670 4047 
Q 2441 4250 2034 4250 
Q 1625 4250 1398 4047 
Q 1172 3844 1172 3481 
z
" transform="scale(0.015625)"/>
       </defs>
       <use xlink:href="#DejaVuSans-Oblique-72"/>
       <use xlink:href="#DejaVuSans-38" transform="translate(41.113281 -16.40625) scale(0.7)"/>
      </g>
     </g>
    </g>
   </g>
   <g id="line2d_32">
    <path d="M 594.50089 414.1 
L 594.50089 341.680163 
L 621.42084 341.680163 
L 621.42084 414.1 
" clip-path="url(#pebccab9687)" style="fill: none; stroke: #ff0000; stroke-width: 5; stroke-linecap: square"/>
   </g>
   <g id="line2d_33">
    <path d="M 567.580941 414.1 
L 567.580941 249.846779 
L 607.960865 249.846779 
L 607.960865 341.680163 
" clip-path="url(#pebccab9687)" style="fill: none; stroke: #ff0000; stroke-width: 5; stroke-linecap: square"/>
   </g>
   <g id="line2d_34">
    <path d="M 648.340789 414.1 
L 648.340789 313.020995 
L 675.260738 313.020995 
L 675.260738 414.1 
" clip-path="url(#pebccab9687)" style="fill: none; stroke: #ff0000; stroke-width: 5; stroke-linecap: square"/>
   </g>
   <g id="line2d_35">
    <path d="M 890.620331 414.1 
L 890.620331 354.314891 
L 917.54028 354.314891 
L 917.54028 414.1 
" clip-path="url(#pebccab9687)" style="fill: none; stroke: #ff0000; stroke-width: 5; stroke-linecap: square"/>
   </g>
   <g id="line2d_36">
    <path d="M 863.700382 414.1 
L 863.700382 352.802549 
L 904.080305 352.802549 
L 904.080305 354.314891 
" clip-path="url(#pebccab9687)" style="fill: none; stroke: #ff0000; stroke-width: 5; stroke-linecap: square"/>
   </g>
   <g id="line2d_37">
    <path d="M 836.780433 414.1 
L 836.780433 336.906263 
L 883.890343 336.906263 
L 883.890343 352.802549 
" clip-path="url(#pebccab9687)" style="fill: none; stroke: #ff0000; stroke-width: 5; stroke-linecap: square"/>
   </g>
   <g id="line2d_38">
    <path d="M 809.860483 414.1 
L 809.860483 245.44935 
L 860.335388 245.44935 
L 860.335388 336.906263 
" clip-path="url(#pebccab9687)" style="fill: none; stroke: #ff0000; stroke-width: 5; stroke-linecap: square"/>
   </g>
   <g id="line2d_39">
    <path d="M 1025.220076 414.1 
L 1025.220076 253.682782 
L 1052.140025 253.682782 
L 1052.140025 414.1 
" clip-path="url(#pebccab9687)" style="fill: none; stroke: #ff0000; stroke-width: 5; stroke-linecap: square"/>
   </g>
   <g id="line2d_40">
    <path d="M 702.180687 414.1 
L 702.180687 245.44935 
" clip-path="url(#pebccab9687)" style="fill: none; stroke: #ff0000; stroke-width: 5; stroke-linecap: square"/>
   </g>
   <g id="line2d_41">
    <path d="M 729.100636 414.1 
L 729.100636 245.44935 
" clip-path="url(#pebccab9687)" style="fill: none; stroke: #ff0000; stroke-width: 5; stroke-linecap: square"/>
   </g>
   <g id="line2d_42">
    <path d="M 756.020585 414.1 
L 756.020585 245.44935 
" clip-path="url(#pebccab9687)" style="fill: none; stroke: #ff0000; stroke-width: 5; stroke-linecap: square"/>
   </g>
   <g id="line2d_43">
    <path d="M 782.940534 414.1 
L 782.940534 245.44935 
" clip-path="url(#pebccab9687)" style="fill: none; stroke: #ff0000; stroke-width: 5; stroke-linecap: square"/>
   </g>
   <g id="line2d_44">
    <path d="M 944.460229 414.1 
L 944.460229 245.44935 
" clip-path="url(#pebccab9687)" style="fill: none; stroke: #ff0000; stroke-width: 5; stroke-linecap: square"/>
   </g>
   <g id="line2d_45">
    <path d="M 971.380178 414.1 
L 971.380178 245.44935 
" clip-path="url(#pebccab9687)" style="fill: none; stroke: #ff0000; stroke-width: 5; stroke-linecap: square"/>
   </g>
   <g id="line2d_46">
    <path d="M 998.300127 414.1 
L 998.300127 245.44935 
" clip-path="url(#pebccab9687)" style="fill: none; stroke: #ff0000; stroke-width: 5; stroke-linecap: square"/>
   </g>
   <g id="line2d_47">
    <path d="M 587.770903 249.846779 
L 587.770903 245.44935 
" clip-path="url(#pebccab9687)" style="fill: none; stroke: #ff0000; stroke-width: 5; stroke-linecap: square"/>
   </g>
   <g id="line2d_48">
    <path d="M 661.800763 313.020995 
L 661.800763 245.44935 
" clip-path="url(#pebccab9687)" style="fill: none; stroke: #ff0000; stroke-width: 5; stroke-linecap: square"/>
   </g>
   <g id="line2d_49">
    <path d="M 835.097936 245.44935 
L 835.097936 245.44935 
" clip-path="url(#pebccab9687)" style="fill: none; stroke: #ff0000; stroke-width: 5; stroke-linecap: square"/>
   </g>
   <g id="line2d_50">
    <path d="M 1038.680051 253.682782 
L 1038.680051 245.44935 
" clip-path="url(#pebccab9687)" style="fill: none; stroke: #ff0000; stroke-width: 5; stroke-linecap: square"/>
   </g>
   <g id="patch_41">
    <path d="M 554.120967 414.1 
L 554.120967 7.2 
" style="fill: none; stroke: #000000; stroke-width: 0.8; stroke-linejoin: miter; stroke-linecap: square"/>
   </g>
   <g id="patch_42">
    <path d="M 1065.6 414.1 
L 1065.6 7.2 
" style="fill: none; stroke: #000000; stroke-width: 0.8; stroke-linejoin: miter; stroke-linecap: square"/>
   </g>
   <g id="patch_43">
    <path d="M 554.120967 414.1 
L 1065.6 414.1 
" style="fill: none; stroke: #000000; stroke-width: 0.8; stroke-linejoin: miter; stroke-linecap: square"/>
   </g>
   <g id="patch_44">
    <path d="M 554.120967 7.2 
L 1065.6 7.2 
" style="fill: none; stroke: #000000; stroke-width: 0.8; stroke-linejoin: miter; stroke-linecap: square"/>
   </g>
   <g id="PathCollection_3">
    <defs>
     <path id="m95c6ec224d" d="M 0 6.123724 
C 1.624031 6.123724 3.181764 5.47849 4.330127 4.330127 
C 5.47849 3.181764 6.123724 1.624031 6.123724 0 
C 6.123724 -1.624031 5.47849 -3.181764 4.330127 -4.330127 
C 3.181764 -5.47849 1.624031 -6.123724 0 -6.123724 
C -1.624031 -6.123724 -3.181764 -5.47849 -4.330127 -4.330127 
C -5.47849 -3.181764 -6.123724 -1.624031 -6.123724 0 
C -6.123724 1.624031 -5.47849 3.181764 -4.330127 4.330127 
C -3.181764 5.47849 -1.624031 6.123724 0 6.123724 
z
" style="stroke: #0000ff"/>
    </defs>
    <g clip-path="url(#pebccab9687)">
     <use xlink:href="#m95c6ec224d" x="567.580941" y="414.1" style="fill: #0000ff; stroke: #0000ff"/>
     <use xlink:href="#m95c6ec224d" x="594.50089" y="414.1" style="fill: #0000ff; stroke: #0000ff"/>
     <use xlink:href="#m95c6ec224d" x="621.42084" y="414.1" style="fill: #0000ff; stroke: #0000ff"/>
     <use xlink:href="#m95c6ec224d" x="648.340789" y="414.1" style="fill: #0000ff; stroke: #0000ff"/>
     <use xlink:href="#m95c6ec224d" x="675.260738" y="414.1" style="fill: #0000ff; stroke: #0000ff"/>
     <use xlink:href="#m95c6ec224d" x="702.180687" y="414.1" style="fill: #0000ff; stroke: #0000ff"/>
     <use xlink:href="#m95c6ec224d" x="729.100636" y="414.1" style="fill: #0000ff; stroke: #0000ff"/>
     <use xlink:href="#m95c6ec224d" x="756.020585" y="414.1" style="fill: #0000ff; stroke: #0000ff"/>
     <use xlink:href="#m95c6ec224d" x="782.940534" y="414.1" style="fill: #0000ff; stroke: #0000ff"/>
     <use xlink:href="#m95c6ec224d" x="809.860483" y="414.1" style="fill: #0000ff; stroke: #0000ff"/>
     <use xlink:href="#m95c6ec224d" x="836.780433" y="414.1" style="fill: #0000ff; stroke: #0000ff"/>
     <use xlink:href="#m95c6ec224d" x="863.700382" y="414.1" style="fill: #0000ff; stroke: #0000ff"/>
     <use xlink:href="#m95c6ec224d" x="890.620331" y="414.1" style="fill: #0000ff; stroke: #0000ff"/>
     <use xlink:href="#m95c6ec224d" x="917.54028" y="414.1" style="fill: #0000ff; stroke: #0000ff"/>
     <use xlink:href="#m95c6ec224d" x="944.460229" y="414.1" style="fill: #0000ff; stroke: #0000ff"/>
     <use xlink:href="#m95c6ec224d" x="971.380178" y="414.1" style="fill: #0000ff; stroke: #0000ff"/>
     <use xlink:href="#m95c6ec224d" x="998.300127" y="414.1" style="fill: #0000ff; stroke: #0000ff"/>
     <use xlink:href="#m95c6ec224d" x="1025.220076" y="414.1" style="fill: #0000ff; stroke: #0000ff"/>
     <use xlink:href="#m95c6ec224d" x="1052.140025" y="414.1" style="fill: #0000ff; stroke: #0000ff"/>
    </g>
   </g>
  </g>
 </g>
 <defs>
  <clipPath id="pd571a25c81">
   <rect x="7.2" y="18.670478" width="511.479033" height="383.959043"/>
  </clipPath>
  <clipPath id="pebccab9687">
   <rect x="554.120967" y="7.2" width="511.479033" height="406.9"/>
  </clipPath>
 </defs>
</svg>
