<?xml version="1.0" encoding="utf-8" standalone="no"?>
<!DOCTYPE svg PUBLIC "-//W3C//DTD SVG 1.1//EN"
  "http://www.w3.org/Graphics/SVG/1.1/DTD/svg11.dtd">
<svg xmlns:xlink="http://www.w3.org/1999/xlink" width="1072.8pt" height="424.8pt" viewBox="0 0 1072.8 424.8" xmlns="http://www.w3.org/2000/svg" version="1.1">
 <metadata>
  <rdf:RDF xmlns:dc="http://purl.org/dc/elements/1.1/" xmlns:cc="http://creativecommons.org/ns#" xmlns:rdf="http://www.w3.org/1999/02/22-rdf-syntax-ns#">
   <cc:Work>
    <dc:type rdf:resource="http://purl.org/dc/dcmitype/StillImage"/>
    <dc:date>2023-10-24T09:47:30.034476</dc:date>
    <dc:format>image/svg+xml</dc:format>
    <dc:creator>
     <cc:Agent>
      <dc:title>Matplotlib v3.7.2, https://matplotlib.org/</dc:title>
     </cc:Agent>
    </dc:creator>
   </cc:Work>
  </rdf:RDF>
 </metadata>
 <defs>
  <style type="text/css">*{stroke-linejoin: round; stroke-linecap: butt}</style>
 </defs>
 <g id="figure_1">
  <g id="patch_1">
   <path d="M 0 424.8 
L 1072.8 424.8 
L 1072.8 -0 
L 0 -0 
z
" style="fill: #ffffff"/>
  </g>
  <g id="axes_1">
   <g id="PathCollection_1">
    <defs>
     <path id="m35df940359" d="M 0 3 
C 0.795609 3 1.55874 2.683901 2.12132 2.12132 
C 2.683901 1.55874 3 0.795609 3 0 
C 3 -0.795609 2.683901 -1.55874 2.12132 -2.12132 
C 1.55874 -2.683901 0.795609 -3 0 -3 
C -0.795609 -3 -1.55874 -2.683901 -2.12132 -2.12132 
C -2.683901 -1.55874 -3 -0.795609 -3 0 
C -3 0.795609 -2.683901 1.55874 -2.12132 2.12132 
C -1.55874 2.683901 -0.795609 3 0 3 
z
" style="stroke: #1f77b4; stroke-opacity: 0"/>
    </defs>
    <g clip-path="url(#p0943ad8e84)">
     <use xlink:href="#m35df940359" x="7.2" y="400.930007" style="fill: #1f77b4; fill-opacity: 0; stroke: #1f77b4; stroke-opacity: 0"/>
     <use xlink:href="#m35df940359" x="514.151124" y="20.369993" style="fill: #1f77b4; fill-opacity: 0; stroke: #1f77b4; stroke-opacity: 0"/>
    </g>
   </g>
   <g id="patch_2">
    <path d="M 317.063439 296.994962 
C 335.350367 296.994962 352.890772 289.729488 365.821583 276.798677 
C 378.752394 263.867866 386.017868 246.327461 386.017868 228.040532 
C 386.017868 209.753604 378.752394 192.213199 365.821583 179.282388 
C 352.890772 166.351577 335.350367 159.086103 317.063439 159.086103 
C 298.77651 159.086103 281.236105 166.351577 268.305294 179.282388 
C 255.374483 192.213199 248.109009 209.753604 248.109009 228.040532 
C 248.109009 246.327461 255.374483 263.867866 268.305294 276.798677 
C 281.236105 289.729488 298.77651 296.994962 317.063439 296.994962 
z
" clip-path="url(#p0943ad8e84)" style="fill: #ff0000; opacity: 0.2"/>
   </g>
   <g id="patch_3">
    <path d="M 302.893459 230.945446 
C 321.180387 230.945446 338.720792 223.679972 351.651603 210.749161 
C 364.582415 197.81835 371.847888 180.277945 371.847888 161.991016 
C 371.847888 143.704088 364.582415 126.163683 351.651603 113.232872 
C 338.720792 100.30206 321.180387 93.036587 302.893459 93.036587 
C 284.60653 93.036587 267.066125 100.30206 254.135314 113.232872 
C 241.204503 126.163683 233.939029 143.704088 233.939029 161.991016 
C 233.939029 180.277945 241.204503 197.81835 254.135314 210.749161 
C 267.066125 223.679972 284.60653 230.945446 302.893459 230.945446 
z
" clip-path="url(#p0943ad8e84)" style="fill: #ff0000; opacity: 0.2"/>
   </g>
   <g id="patch_4">
    <path d="M 226.641674 165.407834 
C 244.928602 165.407834 262.469007 158.14236 275.399819 145.211549 
C 288.33063 132.280738 295.596103 114.740333 295.596103 96.453404 
C 295.596103 78.166476 288.33063 60.62607 275.399819 47.695259 
C 262.469007 34.764448 244.928602 27.498975 226.641674 27.498975 
C 208.354745 27.498975 190.81434 34.764448 177.883529 47.695259 
C 164.952718 60.62607 157.687244 78.166476 157.687244 96.453404 
C 157.687244 114.740333 164.952718 132.280738 177.883529 145.211549 
C 190.81434 158.14236 208.354745 165.407834 226.641674 165.407834 
z
" clip-path="url(#p0943ad8e84)" style="fill: #ff0000; opacity: 0.2"/>
   </g>
   <g id="patch_5">
    <path d="M 180.793771 160.722296 
C 199.080699 160.722296 216.621104 153.456823 229.551915 140.526011 
C 242.482727 127.5952 249.7482 110.054795 249.7482 91.767867 
C 249.7482 73.480938 242.482727 55.940533 229.551915 43.009722 
C 216.621104 30.078911 199.080699 22.813437 180.793771 22.813437 
C 162.506842 22.813437 144.966437 30.078911 132.035626 43.009722 
C 119.104815 55.940533 111.839341 73.480938 111.839341 91.767867 
C 111.839341 110.054795 119.104815 127.5952 132.035626 140.526011 
C 144.966437 153.456823 162.506842 160.722296 180.793771 160.722296 
z
" clip-path="url(#p0943ad8e84)" style="fill: #ff0000; opacity: 0.2"/>
   </g>
   <g id="patch_6">
    <path d="M 180.089116 181.029869 
C 198.376045 181.029869 215.91645 173.764396 228.847261 160.833584 
C 241.778072 147.902773 249.043546 130.362368 249.043546 112.07544 
C 249.043546 93.788511 241.778072 76.248106 228.847261 63.317295 
C 215.91645 50.386484 198.376045 43.12101 180.089116 43.12101 
C 161.802188 43.12101 144.261783 50.386484 131.330971 63.317295 
C 118.40016 76.248106 111.134687 93.788511 111.134687 112.07544 
C 111.134687 130.362368 118.40016 147.902773 131.330971 160.833584 
C 144.261783 173.764396 161.802188 181.029869 180.089116 181.029869 
z
" clip-path="url(#p0943ad8e84)" style="fill: #ff0000; opacity: 0.2"/>
   </g>
   <g id="patch_7">
    <path d="M 108.714513 228.944624 
C 127.001442 228.944624 144.541847 221.67915 157.472658 208.748339 
C 170.403469 195.817528 177.668943 178.277123 177.668943 159.990195 
C 177.668943 141.703266 170.403469 124.162861 157.472658 111.23205 
C 144.541847 98.301239 127.001442 91.035765 108.714513 91.035765 
C 90.427585 91.035765 72.88718 98.301239 59.956368 111.23205 
C 47.025557 124.162861 39.760084 141.703266 39.760084 159.990195 
C 39.760084 178.277123 47.025557 195.817528 59.956368 208.748339 
C 72.88718 221.67915 90.427585 228.944624 108.714513 228.944624 
z
" clip-path="url(#p0943ad8e84)" style="fill: #ff0000; opacity: 0.2"/>
   </g>
   <g id="patch_8">
    <path d="M 78.597874 272.938223 
C 96.884802 272.938223 114.425208 265.67275 127.356019 252.741938 
C 140.28683 239.811127 147.552303 222.270722 147.552303 203.983794 
C 147.552303 185.696865 140.28683 168.15646 127.356019 155.225649 
C 114.425208 142.294838 96.884802 135.029364 78.597874 135.029364 
C 60.310945 135.029364 42.77054 142.294838 29.839729 155.225649 
C 16.908918 168.15646 9.643444 185.696865 9.643444 203.983794 
C 9.643444 222.270722 16.908918 239.811127 29.839729 252.741938 
C 42.77054 265.67275 60.310945 272.938223 78.597874 272.938223 
z
" clip-path="url(#p0943ad8e84)" style="fill: #ff0000; opacity: 0.2"/>
   </g>
   <g id="patch_9">
    <path d="M 99.997212 345.556926 
C 118.28414 345.556926 135.824545 338.291452 148.755356 325.360641 
C 161.686168 312.42983 168.951641 294.889425 168.951641 276.602496 
C 168.951641 258.315568 161.686168 240.775163 148.755356 227.844352 
C 135.824545 214.913541 118.28414 207.648067 99.997212 207.648067 
C 81.710283 207.648067 64.169878 214.913541 51.239067 227.844352 
C 38.308256 240.775163 31.042782 258.315568 31.042782 276.602496 
C 31.042782 294.889425 38.308256 312.42983 51.239067 325.360641 
C 64.169878 338.291452 81.710283 345.556926 99.997212 345.556926 
z
" clip-path="url(#p0943ad8e84)" style="fill: #ff0000; opacity: 0.2"/>
   </g>
   <g id="patch_10">
    <path d="M 115.215924 369.488945 
C 133.502852 369.488945 151.043258 362.223471 163.974069 349.29266 
C 176.90488 336.361849 184.170353 318.821444 184.170353 300.534516 
C 184.170353 282.247587 176.90488 264.707182 163.974069 251.776371 
C 151.043258 238.84556 133.502852 231.580086 115.215924 231.580086 
C 96.928995 231.580086 79.38859 238.84556 66.457779 251.776371 
C 53.526968 264.707182 46.261494 282.247587 46.261494 300.534516 
C 46.261494 318.821444 53.526968 336.361849 66.457779 349.29266 
C 79.38859 362.223471 96.928995 369.488945 115.215924 369.488945 
z
" clip-path="url(#p0943ad8e84)" style="fill: #ff0000; opacity: 0.2"/>
   </g>
   <g id="patch_11">
    <path d="M 207.067187 398.486563 
C 225.354115 398.486563 242.89452 391.221089 255.825331 378.290278 
C 268.756143 365.359467 276.021616 347.819062 276.021616 329.532133 
C 276.021616 311.245205 268.756143 293.7048 255.825331 280.773989 
C 242.89452 267.843177 225.354115 260.577704 207.067187 260.577704 
C 188.780258 260.577704 171.239853 267.843177 158.309042 280.773989 
C 145.378231 293.7048 138.112757 311.245205 138.112757 329.532133 
C 138.112757 347.819062 145.378231 365.359467 158.309042 378.290278 
C 171.239853 391.221089 188.780258 398.486563 207.067187 398.486563 
z
" clip-path="url(#p0943ad8e84)" style="fill: #ff0000; opacity: 0.2"/>
   </g>
   <g id="patch_12">
    <path d="M 260.029044 389.863343 
C 278.315973 389.863343 295.856378 382.597869 308.787189 369.667058 
C 321.718 356.736247 328.983474 339.195842 328.983474 320.908913 
C 328.983474 302.621985 321.718 285.08158 308.787189 272.150768 
C 295.856378 259.219957 278.315973 251.954484 260.029044 251.954484 
C 241.742116 251.954484 224.201711 259.219957 211.270899 272.150768 
C 198.340088 285.08158 191.074615 302.621985 191.074615 320.908913 
C 191.074615 339.195842 198.340088 356.736247 211.270899 369.667058 
C 224.201711 382.597869 241.742116 389.863343 260.029044 389.863343 
z
" clip-path="url(#p0943ad8e84)" style="fill: #ff0000; opacity: 0.2"/>
   </g>
   <g id="patch_13">
    <path d="M 313.43612 318.348336 
C 331.723048 318.348336 349.263453 311.082862 362.194264 298.152051 
C 375.125076 285.22124 382.390549 267.680835 382.390549 249.393907 
C 382.390549 231.106978 375.125076 213.566573 362.194264 200.635762 
C 349.263453 187.704951 331.723048 180.439477 313.43612 180.439477 
C 295.149191 180.439477 277.608786 187.704951 264.677975 200.635762 
C 251.747164 213.566573 244.48169 231.106978 244.48169 249.393907 
C 244.48169 267.680835 251.747164 285.22124 264.677975 298.152051 
C 277.608786 311.082862 295.149191 318.348336 313.43612 318.348336 
z
" clip-path="url(#p0943ad8e84)" style="fill: #ff0000; opacity: 0.2"/>
   </g>
   <g id="patch_14">
    <path d="M 442.75325 281.086232 
C 461.040178 281.086232 478.580583 273.820759 491.511394 260.889948 
C 504.442205 247.959136 511.707679 230.418731 511.707679 212.131803 
C 511.707679 193.844874 504.442205 176.304469 491.511394 163.373658 
C 478.580583 150.442847 461.040178 143.177373 442.75325 143.177373 
C 424.466321 143.177373 406.925916 150.442847 393.995105 163.373658 
C 381.064294 176.304469 373.79882 193.844874 373.79882 212.131803 
C 373.79882 230.418731 381.064294 247.959136 393.995105 260.889948 
C 406.925916 273.820759 424.466321 281.086232 442.75325 281.086232 
z
" clip-path="url(#p0943ad8e84)" style="fill: #ff0000; opacity: 0.2"/>
   </g>
   <g id="patch_15">
    <path d="M 417.146461 222.102747 
C 435.43339 222.102747 452.973795 214.837273 465.904606 201.906462 
C 478.835417 188.975651 486.100891 171.435246 486.100891 153.148317 
C 486.100891 134.861389 478.835417 117.320984 465.904606 104.390173 
C 452.973795 91.459362 435.43339 84.193888 417.146461 84.193888 
C 398.859533 84.193888 381.319128 91.459362 368.388317 104.390173 
C 355.457506 117.320984 348.192032 134.861389 348.192032 153.148317 
C 348.192032 171.435246 355.457506 188.975651 368.388317 201.906462 
C 381.319128 214.837273 398.859533 222.102747 417.146461 222.102747 
z
" clip-path="url(#p0943ad8e84)" style="fill: #ff0000; opacity: 0.2"/>
   </g>
   <g id="patch_16">
    <path d="M 373.382272 211.584633 
C 391.6692 211.584633 409.209606 204.319159 422.140417 191.388348 
C 435.071228 178.457537 442.336701 160.917132 442.336701 142.630203 
C 442.336701 124.343275 435.071228 106.80287 422.140417 93.872058 
C 409.209606 80.941247 391.6692 73.675774 373.382272 73.675774 
C 355.095343 73.675774 337.554938 80.941247 324.624127 93.872058 
C 311.693316 106.80287 304.427842 124.343275 304.427842 142.630203 
C 304.427842 160.917132 311.693316 178.457537 324.624127 191.388348 
C 337.554938 204.319159 355.095343 211.584633 373.382272 211.584633 
z
" clip-path="url(#p0943ad8e84)" style="fill: #ff0000; opacity: 0.2"/>
   </g>
   <g id="patch_17">
    <path d="M 299.882373 278.170099 
C 318.169301 278.170099 335.709706 270.904626 348.640518 257.973815 
C 361.571329 245.043003 368.836802 227.502598 368.836802 209.21567 
C 368.836802 190.928741 361.571329 173.388336 348.640518 160.457525 
C 335.709706 147.526714 318.169301 140.26124 299.882373 140.26124 
C 281.595444 140.26124 264.055039 147.526714 251.124228 160.457525 
C 238.193417 173.388336 230.927943 190.928741 230.927943 209.21567 
C 230.927943 227.502598 238.193417 245.043003 251.124228 257.973815 
C 264.055039 270.904626 281.595444 278.170099 299.882373 278.170099 
z
" clip-path="url(#p0943ad8e84)" style="fill: #ff0000; opacity: 0.2"/>
   </g>
   <g id="patch_18">
    <path d="M 300.368382 295.362271 
C 318.65531 295.362271 336.195715 288.096797 349.126526 275.165986 
C 362.057338 262.235175 369.322811 244.69477 369.322811 226.407841 
C 369.322811 208.120913 362.057338 190.580507 349.126526 177.649696 
C 336.195715 164.718885 318.65531 157.453412 300.368382 157.453412 
C 282.081453 157.453412 264.541048 164.718885 251.610237 177.649696 
C 238.679426 190.580507 231.413952 208.120913 231.413952 226.407841 
C 231.413952 244.69477 238.679426 262.235175 251.610237 275.165986 
C 264.541048 288.096797 282.081453 295.362271 300.368382 295.362271 
z
" clip-path="url(#p0943ad8e84)" style="fill: #ff0000; opacity: 0.2"/>
   </g>
   <g id="patch_19">
    <path d="M 364.061877 352.53295 
C 382.348805 352.53295 399.88921 345.267476 412.820021 332.336665 
C 425.750833 319.405854 433.016306 301.865449 433.016306 283.57852 
C 433.016306 265.291592 425.750833 247.751187 412.820021 234.820375 
C 399.88921 221.889564 382.348805 214.624091 364.061877 214.624091 
C 345.774948 214.624091 328.234543 221.889564 315.303732 234.820375 
C 302.372921 247.751187 295.107447 265.291592 295.107447 283.57852 
C 295.107447 301.865449 302.372921 319.405854 315.303732 332.336665 
C 328.234543 345.267476 345.774948 352.53295 364.061877 352.53295 
z
" clip-path="url(#p0943ad8e84)" style="fill: #ff0000; opacity: 0.2"/>
   </g>
   <g id="patch_20">
    <path d="M 417.498783 345.249503 
C 435.785712 345.249503 453.326117 337.984029 466.256928 325.053218 
C 479.187739 312.122407 486.453213 294.582002 486.453213 276.295073 
C 486.453213 258.008145 479.187739 240.46774 466.256928 227.536929 
C 453.326117 214.606118 435.785712 207.340644 417.498783 207.340644 
C 399.211855 207.340644 381.67145 214.606118 368.740639 227.536929 
C 355.809828 240.46774 348.544354 258.008145 348.544354 276.295073 
C 348.544354 294.582002 355.809828 312.122407 368.740639 325.053218 
C 381.67145 337.984029 399.211855 345.249503 417.498783 345.249503 
z
" clip-path="url(#p0943ad8e84)" style="fill: #ff0000; opacity: 0.2"/>
   </g>
   <g id="patch_21">
    <path d="M 317.063439 296.994962 
C 335.350367 296.994962 352.890772 289.729488 365.821583 276.798677 
C 378.752394 263.867866 386.017868 246.327461 386.017868 228.040532 
C 386.017868 209.753604 378.752394 192.213199 365.821583 179.282388 
C 352.890772 166.351577 335.350367 159.086103 317.063439 159.086103 
C 298.77651 159.086103 281.236105 166.351577 268.305294 179.282388 
C 255.374483 192.213199 248.109009 209.753604 248.109009 228.040532 
C 248.109009 246.327461 255.374483 263.867866 268.305294 276.798677 
C 281.236105 289.729488 298.77651 296.994962 317.063439 296.994962 
L 317.063439 296.994962 
z
" clip-path="url(#p0943ad8e84)" style="fill: none; stroke: #ff0000; stroke-width: 2; stroke-linejoin: miter"/>
   </g>
   <g id="patch_22">
    <path d="M 302.893459 230.945446 
C 321.180387 230.945446 338.720792 223.679972 351.651603 210.749161 
C 364.582415 197.81835 371.847888 180.277945 371.847888 161.991016 
C 371.847888 143.704088 364.582415 126.163683 351.651603 113.232872 
C 338.720792 100.30206 321.180387 93.036587 302.893459 93.036587 
C 284.60653 93.036587 267.066125 100.30206 254.135314 113.232872 
C 241.204503 126.163683 233.939029 143.704088 233.939029 161.991016 
C 233.939029 180.277945 241.204503 197.81835 254.135314 210.749161 
C 267.066125 223.679972 284.60653 230.945446 302.893459 230.945446 
L 302.893459 230.945446 
z
" clip-path="url(#p0943ad8e84)" style="fill: none; stroke: #ff0000; stroke-width: 2; stroke-linejoin: miter"/>
   </g>
   <g id="patch_23">
    <path d="M 226.641674 165.407834 
C 244.928602 165.407834 262.469007 158.14236 275.399819 145.211549 
C 288.33063 132.280738 295.596103 114.740333 295.596103 96.453404 
C 295.596103 78.166476 288.33063 60.62607 275.399819 47.695259 
C 262.469007 34.764448 244.928602 27.498975 226.641674 27.498975 
C 208.354745 27.498975 190.81434 34.764448 177.883529 47.695259 
C 164.952718 60.62607 157.687244 78.166476 157.687244 96.453404 
C 157.687244 114.740333 164.952718 132.280738 177.883529 145.211549 
C 190.81434 158.14236 208.354745 165.407834 226.641674 165.407834 
L 226.641674 165.407834 
z
" clip-path="url(#p0943ad8e84)" style="fill: none; stroke: #ff0000; stroke-width: 2; stroke-linejoin: miter"/>
   </g>
   <g id="patch_24">
    <path d="M 180.793771 160.722296 
C 199.080699 160.722296 216.621104 153.456823 229.551915 140.526011 
C 242.482727 127.5952 249.7482 110.054795 249.7482 91.767867 
C 249.7482 73.480938 242.482727 55.940533 229.551915 43.009722 
C 216.621104 30.078911 199.080699 22.813437 180.793771 22.813437 
C 162.506842 22.813437 144.966437 30.078911 132.035626 43.009722 
C 119.104815 55.940533 111.839341 73.480938 111.839341 91.767867 
C 111.839341 110.054795 119.104815 127.5952 132.035626 140.526011 
C 144.966437 153.456823 162.506842 160.722296 180.793771 160.722296 
L 180.793771 160.722296 
z
" clip-path="url(#p0943ad8e84)" style="fill: none; stroke: #ff0000; stroke-width: 2; stroke-linejoin: miter"/>
   </g>
   <g id="patch_25">
    <path d="M 180.089116 181.029869 
C 198.376045 181.029869 215.91645 173.764396 228.847261 160.833584 
C 241.778072 147.902773 249.043546 130.362368 249.043546 112.07544 
C 249.043546 93.788511 241.778072 76.248106 228.847261 63.317295 
C 215.91645 50.386484 198.376045 43.12101 180.089116 43.12101 
C 161.802188 43.12101 144.261783 50.386484 131.330971 63.317295 
C 118.40016 76.248106 111.134687 93.788511 111.134687 112.07544 
C 111.134687 130.362368 118.40016 147.902773 131.330971 160.833584 
C 144.261783 173.764396 161.802188 181.029869 180.089116 181.029869 
L 180.089116 181.029869 
z
" clip-path="url(#p0943ad8e84)" style="fill: none; stroke: #ff0000; stroke-width: 2; stroke-linejoin: miter"/>
   </g>
   <g id="patch_26">
    <path d="M 108.714513 228.944624 
C 127.001442 228.944624 144.541847 221.67915 157.472658 208.748339 
C 170.403469 195.817528 177.668943 178.277123 177.668943 159.990195 
C 177.668943 141.703266 170.403469 124.162861 157.472658 111.23205 
C 144.541847 98.301239 127.001442 91.035765 108.714513 91.035765 
C 90.427585 91.035765 72.88718 98.301239 59.956368 111.23205 
C 47.025557 124.162861 39.760084 141.703266 39.760084 159.990195 
C 39.760084 178.277123 47.025557 195.817528 59.956368 208.748339 
C 72.88718 221.67915 90.427585 228.944624 108.714513 228.944624 
L 108.714513 228.944624 
z
" clip-path="url(#p0943ad8e84)" style="fill: none; stroke: #ff0000; stroke-width: 2; stroke-linejoin: miter"/>
   </g>
   <g id="patch_27">
    <path d="M 78.597874 272.938223 
C 96.884802 272.938223 114.425208 265.67275 127.356019 252.741938 
C 140.28683 239.811127 147.552303 222.270722 147.552303 203.983794 
C 147.552303 185.696865 140.28683 168.15646 127.356019 155.225649 
C 114.425208 142.294838 96.884802 135.029364 78.597874 135.029364 
C 60.310945 135.029364 42.77054 142.294838 29.839729 155.225649 
C 16.908918 168.15646 9.643444 185.696865 9.643444 203.983794 
C 9.643444 222.270722 16.908918 239.811127 29.839729 252.741938 
C 42.77054 265.67275 60.310945 272.938223 78.597874 272.938223 
L 78.597874 272.938223 
z
" clip-path="url(#p0943ad8e84)" style="fill: none; stroke: #ff0000; stroke-width: 2; stroke-linejoin: miter"/>
   </g>
   <g id="patch_28">
    <path d="M 99.997212 345.556926 
C 118.28414 345.556926 135.824545 338.291452 148.755356 325.360641 
C 161.686168 312.42983 168.951641 294.889425 168.951641 276.602496 
C 168.951641 258.315568 161.686168 240.775163 148.755356 227.844352 
C 135.824545 214.913541 118.28414 207.648067 99.997212 207.648067 
C 81.710283 207.648067 64.169878 214.913541 51.239067 227.844352 
C 38.308256 240.775163 31.042782 258.315568 31.042782 276.602496 
C 31.042782 294.889425 38.308256 312.42983 51.239067 325.360641 
C 64.169878 338.291452 81.710283 345.556926 99.997212 345.556926 
L 99.997212 345.556926 
z
" clip-path="url(#p0943ad8e84)" style="fill: none; stroke: #ff0000; stroke-width: 2; stroke-linejoin: miter"/>
   </g>
   <g id="patch_29">
    <path d="M 115.215924 369.488945 
C 133.502852 369.488945 151.043258 362.223471 163.974069 349.29266 
C 176.90488 336.361849 184.170353 318.821444 184.170353 300.534516 
C 184.170353 282.247587 176.90488 264.707182 163.974069 251.776371 
C 151.043258 238.84556 133.502852 231.580086 115.215924 231.580086 
C 96.928995 231.580086 79.38859 238.84556 66.457779 251.776371 
C 53.526968 264.707182 46.261494 282.247587 46.261494 300.534516 
C 46.261494 318.821444 53.526968 336.361849 66.457779 349.29266 
C 79.38859 362.223471 96.928995 369.488945 115.215924 369.488945 
L 115.215924 369.488945 
z
" clip-path="url(#p0943ad8e84)" style="fill: none; stroke: #ff0000; stroke-width: 2; stroke-linejoin: miter"/>
   </g>
   <g id="patch_30">
    <path d="M 207.067187 398.486563 
C 225.354115 398.486563 242.89452 391.221089 255.825331 378.290278 
C 268.756143 365.359467 276.021616 347.819062 276.021616 329.532133 
C 276.021616 311.245205 268.756143 293.7048 255.825331 280.773989 
C 242.89452 267.843177 225.354115 260.577704 207.067187 260.577704 
C 188.780258 260.577704 171.239853 267.843177 158.309042 280.773989 
C 145.378231 293.7048 138.112757 311.245205 138.112757 329.532133 
C 138.112757 347.819062 145.378231 365.359467 158.309042 378.290278 
C 171.239853 391.221089 188.780258 398.486563 207.067187 398.486563 
L 207.067187 398.486563 
z
" clip-path="url(#p0943ad8e84)" style="fill: none; stroke: #ff0000; stroke-width: 2; stroke-linejoin: miter"/>
   </g>
   <g id="patch_31">
    <path d="M 260.029044 389.863343 
C 278.315973 389.863343 295.856378 382.597869 308.787189 369.667058 
C 321.718 356.736247 328.983474 339.195842 328.983474 320.908913 
C 328.983474 302.621985 321.718 285.08158 308.787189 272.150768 
C 295.856378 259.219957 278.315973 251.954484 260.029044 251.954484 
C 241.742116 251.954484 224.201711 259.219957 211.270899 272.150768 
C 198.340088 285.08158 191.074615 302.621985 191.074615 320.908913 
C 191.074615 339.195842 198.340088 356.736247 211.270899 369.667058 
C 224.201711 382.597869 241.742116 389.863343 260.029044 389.863343 
L 260.029044 389.863343 
z
" clip-path="url(#p0943ad8e84)" style="fill: none; stroke: #ff0000; stroke-width: 2; stroke-linejoin: miter"/>
   </g>
   <g id="patch_32">
    <path d="M 313.43612 318.348336 
C 331.723048 318.348336 349.263453 311.082862 362.194264 298.152051 
C 375.125076 285.22124 382.390549 267.680835 382.390549 249.393907 
C 382.390549 231.106978 375.125076 213.566573 362.194264 200.635762 
C 349.263453 187.704951 331.723048 180.439477 313.43612 180.439477 
C 295.149191 180.439477 277.608786 187.704951 264.677975 200.635762 
C 251.747164 213.566573 244.48169 231.106978 244.48169 249.393907 
C 244.48169 267.680835 251.747164 285.22124 264.677975 298.152051 
C 277.608786 311.082862 295.149191 318.348336 313.43612 318.348336 
L 313.43612 318.348336 
z
" clip-path="url(#p0943ad8e84)" style="fill: none; stroke: #ff0000; stroke-width: 2; stroke-linejoin: miter"/>
   </g>
   <g id="patch_33">
    <path d="M 442.75325 281.086232 
C 461.040178 281.086232 478.580583 273.820759 491.511394 260.889948 
C 504.442205 247.959136 511.707679 230.418731 511.707679 212.131803 
C 511.707679 193.844874 504.442205 176.304469 491.511394 163.373658 
C 478.580583 150.442847 461.040178 143.177373 442.75325 143.177373 
C 424.466321 143.177373 406.925916 150.442847 393.995105 163.373658 
C 381.064294 176.304469 373.79882 193.844874 373.79882 212.131803 
C 373.79882 230.418731 381.064294 247.959136 393.995105 260.889948 
C 406.925916 273.820759 424.466321 281.086232 442.75325 281.086232 
L 442.75325 281.086232 
z
" clip-path="url(#p0943ad8e84)" style="fill: none; stroke: #ff0000; stroke-width: 2; stroke-linejoin: miter"/>
   </g>
   <g id="patch_34">
    <path d="M 417.146461 222.102747 
C 435.43339 222.102747 452.973795 214.837273 465.904606 201.906462 
C 478.835417 188.975651 486.100891 171.435246 486.100891 153.148317 
C 486.100891 134.861389 478.835417 117.320984 465.904606 104.390173 
C 452.973795 91.459362 435.43339 84.193888 417.146461 84.193888 
C 398.859533 84.193888 381.319128 91.459362 368.388317 104.390173 
C 355.457506 117.320984 348.192032 134.861389 348.192032 153.148317 
C 348.192032 171.435246 355.457506 188.975651 368.388317 201.906462 
C 381.319128 214.837273 398.859533 222.102747 417.146461 222.102747 
L 417.146461 222.102747 
z
" clip-path="url(#p0943ad8e84)" style="fill: none; stroke: #ff0000; stroke-width: 2; stroke-linejoin: miter"/>
   </g>
   <g id="patch_35">
    <path d="M 373.382272 211.584633 
C 391.6692 211.584633 409.209606 204.319159 422.140417 191.388348 
C 435.071228 178.457537 442.336701 160.917132 442.336701 142.630203 
C 442.336701 124.343275 435.071228 106.80287 422.140417 93.872058 
C 409.209606 80.941247 391.6692 73.675774 373.382272 73.675774 
C 355.095343 73.675774 337.554938 80.941247 324.624127 93.872058 
C 311.693316 106.80287 304.427842 124.343275 304.427842 142.630203 
C 304.427842 160.917132 311.693316 178.457537 324.624127 191.388348 
C 337.554938 204.319159 355.095343 211.584633 373.382272 211.584633 
L 373.382272 211.584633 
z
" clip-path="url(#p0943ad8e84)" style="fill: none; stroke: #ff0000; stroke-width: 2; stroke-linejoin: miter"/>
   </g>
   <g id="patch_36">
    <path d="M 299.882373 278.170099 
C 318.169301 278.170099 335.709706 270.904626 348.640518 257.973815 
C 361.571329 245.043003 368.836802 227.502598 368.836802 209.21567 
C 368.836802 190.928741 361.571329 173.388336 348.640518 160.457525 
C 335.709706 147.526714 318.169301 140.26124 299.882373 140.26124 
C 281.595444 140.26124 264.055039 147.526714 251.124228 160.457525 
C 238.193417 173.388336 230.927943 190.928741 230.927943 209.21567 
C 230.927943 227.502598 238.193417 245.043003 251.124228 257.973815 
C 264.055039 270.904626 281.595444 278.170099 299.882373 278.170099 
L 299.882373 278.170099 
z
" clip-path="url(#p0943ad8e84)" style="fill: none; stroke: #ff0000; stroke-width: 2; stroke-linejoin: miter"/>
   </g>
   <g id="patch_37">
    <path d="M 300.368382 295.362271 
C 318.65531 295.362271 336.195715 288.096797 349.126526 275.165986 
C 362.057338 262.235175 369.322811 244.69477 369.322811 226.407841 
C 369.322811 208.120913 362.057338 190.580507 349.126526 177.649696 
C 336.195715 164.718885 318.65531 157.453412 300.368382 157.453412 
C 282.081453 157.453412 264.541048 164.718885 251.610237 177.649696 
C 238.679426 190.580507 231.413952 208.120913 231.413952 226.407841 
C 231.413952 244.69477 238.679426 262.235175 251.610237 275.165986 
C 264.541048 288.096797 282.081453 295.362271 300.368382 295.362271 
L 300.368382 295.362271 
z
" clip-path="url(#p0943ad8e84)" style="fill: none; stroke: #ff0000; stroke-width: 2; stroke-linejoin: miter"/>
   </g>
   <g id="patch_38">
    <path d="M 364.061877 352.53295 
C 382.348805 352.53295 399.88921 345.267476 412.820021 332.336665 
C 425.750833 319.405854 433.016306 301.865449 433.016306 283.57852 
C 433.016306 265.291592 425.750833 247.751187 412.820021 234.820375 
C 399.88921 221.889564 382.348805 214.624091 364.061877 214.624091 
C 345.774948 214.624091 328.234543 221.889564 315.303732 234.820375 
C 302.372921 247.751187 295.107447 265.291592 295.107447 283.57852 
C 295.107447 301.865449 302.372921 319.405854 315.303732 332.336665 
C 328.234543 345.267476 345.774948 352.53295 364.061877 352.53295 
L 364.061877 352.53295 
z
" clip-path="url(#p0943ad8e84)" style="fill: none; stroke: #ff0000; stroke-width: 2; stroke-linejoin: miter"/>
   </g>
   <g id="patch_39">
    <path d="M 417.498783 345.249503 
C 435.785712 345.249503 453.326117 337.984029 466.256928 325.053218 
C 479.187739 312.122407 486.453213 294.582002 486.453213 276.295073 
C 486.453213 258.008145 479.187739 240.46774 466.256928 227.536929 
C 453.326117 214.606118 435.785712 207.340644 417.498783 207.340644 
C 399.211855 207.340644 381.67145 214.606118 368.740639 227.536929 
C 355.809828 240.46774 348.544354 258.008145 348.544354 276.295073 
C 348.544354 294.582002 355.809828 312.122407 368.740639 325.053218 
C 381.67145 337.984029 399.211855 345.249503 417.498783 345.249503 
L 417.498783 345.249503 
z
" clip-path="url(#p0943ad8e84)" style="fill: none; stroke: #ff0000; stroke-width: 2; stroke-linejoin: miter"/>
   </g>
   <g id="line2d_1">
    <path d="M 317.063439 228.040532 
L 302.893459 161.991016 
" clip-path="url(#p0943ad8e84)" style="fill: none; stroke: #000000; stroke-width: 2; stroke-linecap: square"/>
   </g>
   <g id="line2d_2">
    <path d="M 317.063439 228.040532 
L 313.43612 249.393907 
" clip-path="url(#p0943ad8e84)" style="fill: none; stroke: #000000; stroke-width: 2; stroke-linecap: square"/>
   </g>
   <g id="line2d_3">
    <path d="M 317.063439 228.040532 
L 299.882373 209.21567 
" clip-path="url(#p0943ad8e84)" style="fill: none; stroke: #000000; stroke-width: 2; stroke-linecap: square"/>
   </g>
   <g id="line2d_4">
    <path d="M 317.063439 228.040532 
L 300.368382 226.407841 
" clip-path="url(#p0943ad8e84)" style="fill: none; stroke: #000000; stroke-width: 2; stroke-linecap: square"/>
   </g>
   <g id="line2d_5">
    <path d="M 302.893459 161.991016 
L 299.882373 209.21567 
" clip-path="url(#p0943ad8e84)" style="fill: none; stroke: #000000; stroke-width: 2; stroke-linecap: square"/>
   </g>
   <g id="line2d_6">
    <path d="M 302.893459 161.991016 
L 300.368382 226.407841 
" clip-path="url(#p0943ad8e84)" style="fill: none; stroke: #000000; stroke-width: 2; stroke-linecap: square"/>
   </g>
   <g id="line2d_7">
    <path d="M 226.641674 96.453404 
L 180.793771 91.767867 
" clip-path="url(#p0943ad8e84)" style="fill: none; stroke: #000000; stroke-width: 2; stroke-linecap: square"/>
   </g>
   <g id="line2d_8">
    <path d="M 226.641674 96.453404 
L 180.089116 112.07544 
" clip-path="url(#p0943ad8e84)" style="fill: none; stroke: #000000; stroke-width: 2; stroke-linecap: square"/>
   </g>
   <g id="line2d_9">
    <path d="M 180.793771 91.767867 
L 180.089116 112.07544 
" clip-path="url(#p0943ad8e84)" style="fill: none; stroke: #000000; stroke-width: 2; stroke-linecap: square"/>
   </g>
   <g id="line2d_10">
    <path d="M 108.714513 159.990195 
L 78.597874 203.983794 
" clip-path="url(#p0943ad8e84)" style="fill: none; stroke: #000000; stroke-width: 2; stroke-linecap: square"/>
   </g>
   <g id="line2d_11">
    <path d="M 99.997212 276.602496 
L 115.215924 300.534516 
" clip-path="url(#p0943ad8e84)" style="fill: none; stroke: #000000; stroke-width: 2; stroke-linecap: square"/>
   </g>
   <g id="line2d_12">
    <path d="M 207.067187 329.532133 
L 260.029044 320.908913 
" clip-path="url(#p0943ad8e84)" style="fill: none; stroke: #000000; stroke-width: 2; stroke-linecap: square"/>
   </g>
   <g id="line2d_13">
    <path d="M 313.43612 249.393907 
L 299.882373 209.21567 
" clip-path="url(#p0943ad8e84)" style="fill: none; stroke: #000000; stroke-width: 2; stroke-linecap: square"/>
   </g>
   <g id="line2d_14">
    <path d="M 313.43612 249.393907 
L 300.368382 226.407841 
" clip-path="url(#p0943ad8e84)" style="fill: none; stroke: #000000; stroke-width: 2; stroke-linecap: square"/>
   </g>
   <g id="line2d_15">
    <path d="M 313.43612 249.393907 
L 364.061877 283.57852 
" clip-path="url(#p0943ad8e84)" style="fill: none; stroke: #000000; stroke-width: 2; stroke-linecap: square"/>
   </g>
   <g id="line2d_16">
    <path d="M 442.75325 212.131803 
L 417.146461 153.148317 
" clip-path="url(#p0943ad8e84)" style="fill: none; stroke: #000000; stroke-width: 2; stroke-linecap: square"/>
   </g>
   <g id="line2d_17">
    <path d="M 442.75325 212.131803 
L 417.498783 276.295073 
" clip-path="url(#p0943ad8e84)" style="fill: none; stroke: #000000; stroke-width: 2; stroke-linecap: square"/>
   </g>
   <g id="line2d_18">
    <path d="M 417.146461 153.148317 
L 373.382272 142.630203 
" clip-path="url(#p0943ad8e84)" style="fill: none; stroke: #000000; stroke-width: 2; stroke-linecap: square"/>
   </g>
   <g id="line2d_19">
    <path d="M 299.882373 209.21567 
L 300.368382 226.407841 
" clip-path="url(#p0943ad8e84)" style="fill: none; stroke: #000000; stroke-width: 2; stroke-linecap: square"/>
   </g>
   <g id="line2d_20">
    <path d="M 364.061877 283.57852 
L 417.498783 276.295073 
" clip-path="url(#p0943ad8e84)" style="fill: none; stroke: #000000; stroke-width: 2; stroke-linecap: square"/>
   </g>
   <g id="PathCollection_2">
    <defs>
     <path id="m8127f21e05" d="M 0 3 
C 0.795609 3 1.55874 2.683901 2.12132 2.12132 
C 2.683901 1.55874 3 0.795609 3 0 
C 3 -0.795609 2.683901 -1.55874 2.12132 -2.12132 
C 1.55874 -2.683901 0.795609 -3 0 -3 
C -0.795609 -3 -1.55874 -2.683901 -2.12132 -2.12132 
C -2.683901 -1.55874 -3 -0.795609 -3 0 
C -3 0.795609 -2.683901 1.55874 -2.12132 2.12132 
C -1.55874 2.683901 -0.795609 3 0 3 
z
" style="stroke: #0000ff"/>
    </defs>
    <g clip-path="url(#p0943ad8e84)">
     <use xlink:href="#m8127f21e05" x="317.063439" y="228.040532" style="fill: #0000ff; stroke: #0000ff"/>
     <use xlink:href="#m8127f21e05" x="302.893459" y="161.991016" style="fill: #0000ff; stroke: #0000ff"/>
     <use xlink:href="#m8127f21e05" x="226.641674" y="96.453404" style="fill: #0000ff; stroke: #0000ff"/>
     <use xlink:href="#m8127f21e05" x="180.793771" y="91.767867" style="fill: #0000ff; stroke: #0000ff"/>
     <use xlink:href="#m8127f21e05" x="180.089116" y="112.07544" style="fill: #0000ff; stroke: #0000ff"/>
     <use xlink:href="#m8127f21e05" x="108.714513" y="159.990195" style="fill: #0000ff; stroke: #0000ff"/>
     <use xlink:href="#m8127f21e05" x="78.597874" y="203.983794" style="fill: #0000ff; stroke: #0000ff"/>
     <use xlink:href="#m8127f21e05" x="99.997212" y="276.602496" style="fill: #0000ff; stroke: #0000ff"/>
     <use xlink:href="#m8127f21e05" x="115.215924" y="300.534516" style="fill: #0000ff; stroke: #0000ff"/>
     <use xlink:href="#m8127f21e05" x="207.067187" y="329.532133" style="fill: #0000ff; stroke: #0000ff"/>
     <use xlink:href="#m8127f21e05" x="260.029044" y="320.908913" style="fill: #0000ff; stroke: #0000ff"/>
     <use xlink:href="#m8127f21e05" x="313.43612" y="249.393907" style="fill: #0000ff; stroke: #0000ff"/>
     <use xlink:href="#m8127f21e05" x="442.75325" y="212.131803" style="fill: #0000ff; stroke: #0000ff"/>
     <use xlink:href="#m8127f21e05" x="417.146461" y="153.148317" style="fill: #0000ff; stroke: #0000ff"/>
     <use xlink:href="#m8127f21e05" x="373.382272" y="142.630203" style="fill: #0000ff; stroke: #0000ff"/>
     <use xlink:href="#m8127f21e05" x="299.882373" y="209.21567" style="fill: #0000ff; stroke: #0000ff"/>
     <use xlink:href="#m8127f21e05" x="300.368382" y="226.407841" style="fill: #0000ff; stroke: #0000ff"/>
     <use xlink:href="#m8127f21e05" x="364.061877" y="283.57852" style="fill: #0000ff; stroke: #0000ff"/>
     <use xlink:href="#m8127f21e05" x="417.498783" y="276.295073" style="fill: #0000ff; stroke: #0000ff"/>
    </g>
   </g>
  </g>
  <g id="axes_2">
   <g id="patch_40">
    <path d="M 558.648876 414.1 
L 1065.6 414.1 
L 1065.6 7.2 
L 558.648876 7.2 
z
" style="fill: #ffffff"/>
   </g>
   <g id="matplotlib.axis_1">
    <g id="xtick_1">
     <g id="line2d_21">
      <defs>
       <path id="m986c09d5fa" d="M 0 0 
L 0 3.5 
" style="stroke: #000000; stroke-width: 0.8"/>
      </defs>
      <g>
       <use xlink:href="#m986c09d5fa" x="571.989696" y="414.1" style="stroke: #000000; stroke-width: 0.8"/>
      </g>
     </g>
    </g>
    <g id="xtick_2">
     <g id="line2d_22">
      <g>
       <use xlink:href="#m986c09d5fa" x="598.671334" y="414.1" style="stroke: #000000; stroke-width: 0.8"/>
      </g>
     </g>
    </g>
    <g id="xtick_3">
     <g id="line2d_23">
      <g>
       <use xlink:href="#m986c09d5fa" x="625.352972" y="414.1" style="stroke: #000000; stroke-width: 0.8"/>
      </g>
     </g>
    </g>
    <g id="xtick_4">
     <g id="line2d_24">
      <g>
       <use xlink:href="#m986c09d5fa" x="652.03461" y="414.1" style="stroke: #000000; stroke-width: 0.8"/>
      </g>
     </g>
    </g>
    <g id="xtick_5">
     <g id="line2d_25">
      <g>
       <use xlink:href="#m986c09d5fa" x="678.716248" y="414.1" style="stroke: #000000; stroke-width: 0.8"/>
      </g>
     </g>
    </g>
    <g id="xtick_6">
     <g id="line2d_26">
      <g>
       <use xlink:href="#m986c09d5fa" x="705.397886" y="414.1" style="stroke: #000000; stroke-width: 0.8"/>
      </g>
     </g>
    </g>
    <g id="xtick_7">
     <g id="line2d_27">
      <g>
       <use xlink:href="#m986c09d5fa" x="732.079524" y="414.1" style="stroke: #000000; stroke-width: 0.8"/>
      </g>
     </g>
    </g>
    <g id="xtick_8">
     <g id="line2d_28">
      <g>
       <use xlink:href="#m986c09d5fa" x="758.761162" y="414.1" style="stroke: #000000; stroke-width: 0.8"/>
      </g>
     </g>
    </g>
    <g id="xtick_9">
     <g id="line2d_29">
      <g>
       <use xlink:href="#m986c09d5fa" x="785.4428" y="414.1" style="stroke: #000000; stroke-width: 0.8"/>
      </g>
     </g>
    </g>
    <g id="xtick_10">
     <g id="line2d_30">
      <g>
       <use xlink:href="#m986c09d5fa" x="812.124438" y="414.1" style="stroke: #000000; stroke-width: 0.8"/>
      </g>
     </g>
    </g>
    <g id="xtick_11">
     <g id="line2d_31">
      <g>
       <use xlink:href="#m986c09d5fa" x="838.806076" y="414.1" style="stroke: #000000; stroke-width: 0.8"/>
      </g>
     </g>
    </g>
    <g id="xtick_12">
     <g id="line2d_32">
      <g>
       <use xlink:href="#m986c09d5fa" x="865.487714" y="414.1" style="stroke: #000000; stroke-width: 0.8"/>
      </g>
     </g>
    </g>
    <g id="xtick_13">
     <g id="line2d_33">
      <g>
       <use xlink:href="#m986c09d5fa" x="892.169352" y="414.1" style="stroke: #000000; stroke-width: 0.8"/>
      </g>
     </g>
    </g>
    <g id="xtick_14">
     <g id="line2d_34">
      <g>
       <use xlink:href="#m986c09d5fa" x="918.850991" y="414.1" style="stroke: #000000; stroke-width: 0.8"/>
      </g>
     </g>
    </g>
    <g id="xtick_15">
     <g id="line2d_35">
      <g>
       <use xlink:href="#m986c09d5fa" x="945.532629" y="414.1" style="stroke: #000000; stroke-width: 0.8"/>
      </g>
     </g>
    </g>
    <g id="xtick_16">
     <g id="line2d_36">
      <g>
       <use xlink:href="#m986c09d5fa" x="972.214267" y="414.1" style="stroke: #000000; stroke-width: 0.8"/>
      </g>
     </g>
    </g>
    <g id="xtick_17">
     <g id="line2d_37">
      <g>
       <use xlink:href="#m986c09d5fa" x="998.895905" y="414.1" style="stroke: #000000; stroke-width: 0.8"/>
      </g>
     </g>
    </g>
    <g id="xtick_18">
     <g id="line2d_38">
      <g>
       <use xlink:href="#m986c09d5fa" x="1025.577543" y="414.1" style="stroke: #000000; stroke-width: 0.8"/>
      </g>
     </g>
    </g>
    <g id="xtick_19">
     <g id="line2d_39">
      <g>
       <use xlink:href="#m986c09d5fa" x="1052.259181" y="414.1" style="stroke: #000000; stroke-width: 0.8"/>
      </g>
     </g>
    </g>
   </g>
   <g id="matplotlib.axis_2">
    <g id="ytick_1">
     <g id="line2d_40">
      <defs>
       <path id="m229151b40a" d="M 0 0 
L -3.5 0 
" style="stroke: #000000; stroke-width: 0.8"/>
      </defs>
      <g>
       <use xlink:href="#m229151b40a" x="558.648876" y="168.346113" style="stroke: #000000; stroke-width: 0.8"/>
      </g>
     </g>
     <g id="text_1">
      <!-- $r_{14}$ -->
      <g transform="translate(525.048876 175.944551) scale(0.2 -0.2)">
       <defs>
        <path id="DejaVuSans-Oblique-72" d="M 2853 2969 
Q 2766 3016 2653 3041 
Q 2541 3066 2413 3066 
Q 1953 3066 1609 2717 
Q 1266 2369 1153 1784 
L 800 0 
L 225 0 
L 909 3500 
L 1484 3500 
L 1375 2956 
Q 1603 3259 1920 3421 
Q 2238 3584 2597 3584 
Q 2691 3584 2781 3573 
Q 2872 3563 2963 3538 
L 2853 2969 
z
" transform="scale(0.015625)"/>
        <path id="DejaVuSans-31" d="M 794 531 
L 1825 531 
L 1825 4091 
L 703 3866 
L 703 4441 
L 1819 4666 
L 2450 4666 
L 2450 531 
L 3481 531 
L 3481 0 
L 794 0 
L 794 531 
z
" transform="scale(0.015625)"/>
        <path id="DejaVuSans-34" d="M 2419 4116 
L 825 1625 
L 2419 1625 
L 2419 4116 
z
M 2253 4666 
L 3047 4666 
L 3047 1625 
L 3713 1625 
L 3713 1100 
L 3047 1100 
L 3047 0 
L 2419 0 
L 2419 1100 
L 313 1100 
L 313 1709 
L 2253 4666 
z
" transform="scale(0.015625)"/>
       </defs>
       <use xlink:href="#DejaVuSans-Oblique-72"/>
       <use xlink:href="#DejaVuSans-31" transform="translate(41.113281 -16.40625) scale(0.7)"/>
       <use xlink:href="#DejaVuSans-34" transform="translate(85.649414 -16.40625) scale(0.7)"/>
      </g>
     </g>
    </g>
   </g>
   <g id="line2d_41">
    <path d="M 598.671334 414.1 
L 598.671334 341.680163 
L 625.352972 341.680163 
L 625.352972 414.1 
" clip-path="url(#p060bc073a7)" style="fill: none; stroke: #ff0000; stroke-width: 5; stroke-linecap: square"/>
   </g>
   <g id="line2d_42">
    <path d="M 571.989696 414.1 
L 571.989696 249.846779 
L 612.012153 249.846779 
L 612.012153 341.680163 
" clip-path="url(#p060bc073a7)" style="fill: none; stroke: #ff0000; stroke-width: 5; stroke-linecap: square"/>
   </g>
   <g id="line2d_43">
    <path d="M 652.03461 414.1 
L 652.03461 313.020995 
L 678.716248 313.020995 
L 678.716248 414.1 
" clip-path="url(#p060bc073a7)" style="fill: none; stroke: #ff0000; stroke-width: 5; stroke-linecap: square"/>
   </g>
   <g id="line2d_44">
    <path d="M 705.397886 414.1 
L 705.397886 224.086462 
L 732.079524 224.086462 
L 732.079524 414.1 
" clip-path="url(#p060bc073a7)" style="fill: none; stroke: #ff0000; stroke-width: 5; stroke-linecap: square"/>
   </g>
   <g id="line2d_45">
    <path d="M 758.761162 414.1 
L 758.761162 222.858095 
L 785.4428 222.858095 
L 785.4428 414.1 
" clip-path="url(#p060bc073a7)" style="fill: none; stroke: #ff0000; stroke-width: 5; stroke-linecap: square"/>
   </g>
   <g id="line2d_46">
    <path d="M 892.169352 414.1 
L 892.169352 354.314891 
L 918.850991 354.314891 
L 918.850991 414.1 
" clip-path="url(#p060bc073a7)" style="fill: none; stroke: #ff0000; stroke-width: 5; stroke-linecap: square"/>
   </g>
   <g id="line2d_47">
    <path d="M 865.487714 414.1 
L 865.487714 352.802549 
L 905.510172 352.802549 
L 905.510172 354.314891 
" clip-path="url(#p060bc073a7)" style="fill: none; stroke: #ff0000; stroke-width: 5; stroke-linecap: square"/>
   </g>
   <g id="line2d_48">
    <path d="M 838.806076 414.1 
L 838.806076 336.906263 
L 885.498943 336.906263 
L 885.498943 352.802549 
" clip-path="url(#p060bc073a7)" style="fill: none; stroke: #ff0000; stroke-width: 5; stroke-linecap: square"/>
   </g>
   <g id="line2d_49">
    <path d="M 812.124438 414.1 
L 812.124438 245.44935 
L 862.15251 245.44935 
L 862.15251 336.906263 
" clip-path="url(#p060bc073a7)" style="fill: none; stroke: #ff0000; stroke-width: 5; stroke-linecap: square"/>
   </g>
   <g id="line2d_50">
    <path d="M 945.532629 414.1 
L 945.532629 221.88972 
L 972.214267 221.88972 
L 972.214267 414.1 
" clip-path="url(#p060bc073a7)" style="fill: none; stroke: #ff0000; stroke-width: 5; stroke-linecap: square"/>
   </g>
   <g id="line2d_51">
    <path d="M 837.138474 245.44935 
L 837.138474 196.387606 
L 958.873448 196.387606 
L 958.873448 221.88972 
" clip-path="url(#p060bc073a7)" style="fill: none; stroke: #ff0000; stroke-width: 5; stroke-linecap: square"/>
   </g>
   <g id="line2d_52">
    <path d="M 1025.577543 414.1 
L 1025.577543 253.682782 
L 1052.259181 253.682782 
L 1052.259181 414.1 
" clip-path="url(#p060bc073a7)" style="fill: none; stroke: #ff0000; stroke-width: 5; stroke-linecap: square"/>
   </g>
   <g id="line2d_53">
    <path d="M 998.895905 414.1 
L 998.895905 184.927061 
L 1038.918362 184.927061 
L 1038.918362 253.682782 
" clip-path="url(#p060bc073a7)" style="fill: none; stroke: #ff0000; stroke-width: 5; stroke-linecap: square"/>
   </g>
   <g id="line2d_54">
    <path d="M 898.005961 196.387606 
L 898.005961 168.346113 
L 1018.907133 168.346113 
L 1018.907133 184.927061 
" clip-path="url(#p060bc073a7)" style="fill: none; stroke: #ff0000; stroke-width: 5; stroke-linecap: square"/>
   </g>
   <g id="line2d_55">
    <path d="M 592.000924 249.846779 
L 592.000924 168.346113 
" clip-path="url(#p060bc073a7)" style="fill: none; stroke: #ff0000; stroke-width: 5; stroke-linecap: square"/>
   </g>
   <g id="line2d_56">
    <path d="M 665.375429 313.020995 
L 665.375429 168.346113 
" clip-path="url(#p060bc073a7)" style="fill: none; stroke: #ff0000; stroke-width: 5; stroke-linecap: square"/>
   </g>
   <g id="line2d_57">
    <path d="M 718.738705 224.086462 
L 718.738705 168.346113 
" clip-path="url(#p060bc073a7)" style="fill: none; stroke: #ff0000; stroke-width: 5; stroke-linecap: square"/>
   </g>
   <g id="line2d_58">
    <path d="M 772.101981 222.858095 
L 772.101981 168.346113 
" clip-path="url(#p060bc073a7)" style="fill: none; stroke: #ff0000; stroke-width: 5; stroke-linecap: square"/>
   </g>
   <g id="line2d_59">
    <path d="M 958.456547 168.346113 
L 958.456547 168.346113 
" clip-path="url(#p060bc073a7)" style="fill: none; stroke: #ff0000; stroke-width: 5; stroke-linecap: square"/>
   </g>
   <g id="patch_41">
    <path d="M 558.648876 414.1 
L 558.648876 7.2 
" style="fill: none; stroke: #000000; stroke-width: 0.8; stroke-linejoin: miter; stroke-linecap: square"/>
   </g>
   <g id="patch_42">
    <path d="M 1065.6 414.1 
L 1065.6 7.2 
" style="fill: none; stroke: #000000; stroke-width: 0.8; stroke-linejoin: miter; stroke-linecap: square"/>
   </g>
   <g id="patch_43">
    <path d="M 558.648876 414.1 
L 1065.6 414.1 
" style="fill: none; stroke: #000000; stroke-width: 0.8; stroke-linejoin: miter; stroke-linecap: square"/>
   </g>
   <g id="patch_44">
    <path d="M 558.648876 7.2 
L 1065.6 7.2 
" style="fill: none; stroke: #000000; stroke-width: 0.8; stroke-linejoin: miter; stroke-linecap: square"/>
   </g>
   <g id="PathCollection_3">
    <defs>
     <path id="mc3e13119f6" d="M 0 6.123724 
C 1.624031 6.123724 3.181764 5.47849 4.330127 4.330127 
C 5.47849 3.181764 6.123724 1.624031 6.123724 0 
C 6.123724 -1.624031 5.47849 -3.181764 4.330127 -4.330127 
C 3.181764 -5.47849 1.624031 -6.123724 0 -6.123724 
C -1.624031 -6.123724 -3.181764 -5.47849 -4.330127 -4.330127 
C -5.47849 -3.181764 -6.123724 -1.624031 -6.123724 0 
C -6.123724 1.624031 -5.47849 3.181764 -4.330127 4.330127 
C -3.181764 5.47849 -1.624031 6.123724 0 6.123724 
z
" style="stroke: #0000ff"/>
    </defs>
    <g clip-path="url(#p060bc073a7)">
     <use xlink:href="#mc3e13119f6" x="571.989696" y="414.1" style="fill: #0000ff; stroke: #0000ff"/>
     <use xlink:href="#mc3e13119f6" x="598.671334" y="414.1" style="fill: #0000ff; stroke: #0000ff"/>
     <use xlink:href="#mc3e13119f6" x="625.352972" y="414.1" style="fill: #0000ff; stroke: #0000ff"/>
     <use xlink:href="#mc3e13119f6" x="652.03461" y="414.1" style="fill: #0000ff; stroke: #0000ff"/>
     <use xlink:href="#mc3e13119f6" x="678.716248" y="414.1" style="fill: #0000ff; stroke: #0000ff"/>
     <use xlink:href="#mc3e13119f6" x="705.397886" y="414.1" style="fill: #0000ff; stroke: #0000ff"/>
     <use xlink:href="#mc3e13119f6" x="732.079524" y="414.1" style="fill: #0000ff; stroke: #0000ff"/>
     <use xlink:href="#mc3e13119f6" x="758.761162" y="414.1" style="fill: #0000ff; stroke: #0000ff"/>
     <use xlink:href="#mc3e13119f6" x="785.4428" y="414.1" style="fill: #0000ff; stroke: #0000ff"/>
     <use xlink:href="#mc3e13119f6" x="812.124438" y="414.1" style="fill: #0000ff; stroke: #0000ff"/>
     <use xlink:href="#mc3e13119f6" x="838.806076" y="414.1" style="fill: #0000ff; stroke: #0000ff"/>
     <use xlink:href="#mc3e13119f6" x="865.487714" y="414.1" style="fill: #0000ff; stroke: #0000ff"/>
     <use xlink:href="#mc3e13119f6" x="892.169352" y="414.1" style="fill: #0000ff; stroke: #0000ff"/>
     <use xlink:href="#mc3e13119f6" x="918.850991" y="414.1" style="fill: #0000ff; stroke: #0000ff"/>
     <use xlink:href="#mc3e13119f6" x="945.532629" y="414.1" style="fill: #0000ff; stroke: #0000ff"/>
     <use xlink:href="#mc3e13119f6" x="972.214267" y="414.1" style="fill: #0000ff; stroke: #0000ff"/>
     <use xlink:href="#mc3e13119f6" x="998.895905" y="414.1" style="fill: #0000ff; stroke: #0000ff"/>
     <use xlink:href="#mc3e13119f6" x="1025.577543" y="414.1" style="fill: #0000ff; stroke: #0000ff"/>
     <use xlink:href="#mc3e13119f6" x="1052.259181" y="414.1" style="fill: #0000ff; stroke: #0000ff"/>
    </g>
   </g>
  </g>
 </g>
 <defs>
  <clipPath id="p0943ad8e84">
   <rect x="7.2" y="20.369993" width="506.951124" height="380.560014"/>
  </clipPath>
  <clipPath id="p060bc073a7">
   <rect x="558.648876" y="7.2" width="506.951124" height="406.9"/>
  </clipPath>
 </defs>
</svg>
