<?xml version="1.0" encoding="utf-8" standalone="no"?>
<!DOCTYPE svg PUBLIC "-//W3C//DTD SVG 1.1//EN"
  "http://www.w3.org/Graphics/SVG/1.1/DTD/svg11.dtd">
<svg xmlns:xlink="http://www.w3.org/1999/xlink" width="1072.8pt" height="424.8pt" viewBox="0 0 1072.8 424.8" xmlns="http://www.w3.org/2000/svg" version="1.1">
 <metadata>
  <rdf:RDF xmlns:dc="http://purl.org/dc/elements/1.1/" xmlns:cc="http://creativecommons.org/ns#" xmlns:rdf="http://www.w3.org/1999/02/22-rdf-syntax-ns#">
   <cc:Work>
    <dc:type rdf:resource="http://purl.org/dc/dcmitype/StillImage"/>
    <dc:date>2023-10-24T09:47:25.768528</dc:date>
    <dc:format>image/svg+xml</dc:format>
    <dc:creator>
     <cc:Agent>
      <dc:title>Matplotlib v3.7.2, https://matplotlib.org/</dc:title>
     </cc:Agent>
    </dc:creator>
   </cc:Work>
  </rdf:RDF>
 </metadata>
 <defs>
  <style type="text/css">*{stroke-linejoin: round; stroke-linecap: butt}</style>
 </defs>
 <g id="figure_1">
  <g id="patch_1">
   <path d="M 0 424.8 
L 1072.8 424.8 
L 1072.8 -0 
L 0 -0 
z
" style="fill: #ffffff"/>
  </g>
  <g id="axes_1">
   <g id="PathCollection_1">
    <defs>
     <path id="m38883637bd" d="M 0 3 
C 0.795609 3 1.55874 2.683901 2.12132 2.12132 
C 2.683901 1.55874 3 0.795609 3 0 
C 3 -0.795609 2.683901 -1.55874 2.12132 -2.12132 
C 1.55874 -2.683901 0.795609 -3 0 -3 
C -0.795609 -3 -1.55874 -2.683901 -2.12132 -2.12132 
C -2.683901 -1.55874 -3 -0.795609 -3 0 
C -3 0.795609 -2.683901 1.55874 -2.12132 2.12132 
C -1.55874 2.683901 -0.795609 3 0 3 
z
" style="stroke: #1f77b4; stroke-opacity: 0"/>
    </defs>
    <g clip-path="url(#p4854fb902f)">
     <use xlink:href="#m38883637bd" x="7.2" y="402.69286" style="fill: #1f77b4; fill-opacity: 0; stroke: #1f77b4; stroke-opacity: 0"/>
     <use xlink:href="#m38883637bd" x="518.847783" y="18.60714" style="fill: #1f77b4; fill-opacity: 0; stroke: #1f77b4; stroke-opacity: 0"/>
    </g>
   </g>
   <g id="patch_2">
    <path d="M 319.934175 245.131758 
C 324.424093 245.131758 328.73072 243.347895 331.905571 240.173044 
C 335.080423 236.998192 336.864286 232.691565 336.864286 228.201647 
C 336.864286 223.711729 335.080423 219.405103 331.905571 216.230251 
C 328.73072 213.0554 324.424093 211.271536 319.934175 211.271536 
C 315.444257 211.271536 311.13763 213.0554 307.962779 216.230251 
C 304.787927 219.405103 303.004064 223.711729 303.004064 228.201647 
C 303.004064 232.691565 304.787927 236.998192 307.962779 240.173044 
C 311.13763 243.347895 315.444257 245.131758 319.934175 245.131758 
z
" clip-path="url(#p4854fb902f)" style="fill: #ff0000; opacity: 0.2"/>
   </g>
   <g id="patch_3">
    <path d="M 305.632917 178.470325 
C 310.122835 178.470325 314.429462 176.686462 317.604313 173.51161 
C 320.779165 170.336759 322.563028 166.030132 322.563028 161.540214 
C 322.563028 157.050296 320.779165 152.743669 317.604313 149.568818 
C 314.429462 146.393966 310.122835 144.610103 305.632917 144.610103 
C 301.142999 144.610103 296.836372 146.393966 293.661521 149.568818 
C 290.486669 152.743669 288.702806 157.050296 288.702806 161.540214 
C 288.702806 166.030132 290.486669 170.336759 293.661521 173.51161 
C 296.836372 176.686462 301.142999 178.470325 305.632917 178.470325 
z
" clip-path="url(#p4854fb902f)" style="fill: #ff0000; opacity: 0.2"/>
   </g>
   <g id="patch_4">
    <path d="M 228.674696 112.325538 
C 233.164614 112.325538 237.471241 110.541675 240.646092 107.366824 
C 243.820944 104.191972 245.604807 99.885345 245.604807 95.395427 
C 245.604807 90.905509 243.820944 86.598882 240.646092 83.424031 
C 237.471241 80.24918 233.164614 78.465316 228.674696 78.465316 
C 224.184778 78.465316 219.878151 80.24918 216.7033 83.424031 
C 213.528448 86.598882 211.744585 90.905509 211.744585 95.395427 
C 211.744585 99.885345 213.528448 104.191972 216.7033 107.366824 
C 219.878151 110.541675 224.184778 112.325538 228.674696 112.325538 
z
" clip-path="url(#p4854fb902f)" style="fill: #ff0000; opacity: 0.2"/>
   </g>
   <g id="patch_5">
    <path d="M 182.402034 107.596592 
C 186.891952 107.596592 191.198579 105.812728 194.37343 102.637877 
C 197.548282 99.463026 199.332145 95.156399 199.332145 90.666481 
C 199.332145 86.176563 197.548282 81.869936 194.37343 78.695084 
C 191.198579 75.520233 186.891952 73.73637 182.402034 73.73637 
C 177.912116 73.73637 173.605489 75.520233 170.430638 78.695084 
C 167.255786 81.869936 165.471923 86.176563 165.471923 90.666481 
C 165.471923 95.156399 167.255786 99.463026 170.430638 102.637877 
C 173.605489 105.812728 177.912116 107.596592 182.402034 107.596592 
z
" clip-path="url(#p4854fb902f)" style="fill: #ff0000; opacity: 0.2"/>
   </g>
   <g id="patch_6">
    <path d="M 181.690851 128.092305 
C 186.180769 128.092305 190.487396 126.308441 193.662247 123.13359 
C 196.837099 119.958739 198.620962 115.652112 198.620962 111.162194 
C 198.620962 106.672276 196.837099 102.365649 193.662247 99.190797 
C 190.487396 96.015946 186.180769 94.232083 181.690851 94.232083 
C 177.200933 94.232083 172.894306 96.015946 169.719455 99.190797 
C 166.544603 102.365649 164.76074 106.672276 164.76074 111.162194 
C 164.76074 115.652112 166.544603 119.958739 169.719455 123.13359 
C 172.894306 126.308441 177.200933 128.092305 181.690851 128.092305 
z
" clip-path="url(#p4854fb902f)" style="fill: #ff0000; opacity: 0.2"/>
   </g>
   <g id="patch_7">
    <path d="M 109.654997 176.450967 
C 114.144914 176.450967 118.451541 174.667103 121.626393 171.492252 
C 124.801244 168.317401 126.585108 164.010774 126.585108 159.520856 
C 126.585108 155.030938 124.801244 150.724311 121.626393 147.549459 
C 118.451541 144.374608 114.144914 142.590745 109.654997 142.590745 
C 105.165079 142.590745 100.858452 144.374608 97.6836 147.549459 
C 94.508749 150.724311 92.724886 155.030938 92.724886 159.520856 
C 92.724886 164.010774 94.508749 168.317401 97.6836 171.492252 
C 100.858452 174.667103 105.165079 176.450967 109.654997 176.450967 
z
" clip-path="url(#p4854fb902f)" style="fill: #ff0000; opacity: 0.2"/>
   </g>
   <g id="patch_8">
    <path d="M 79.259341 220.852146 
C 83.749259 220.852146 88.055886 219.068282 91.230737 215.893431 
C 94.405589 212.718579 96.189452 208.411952 96.189452 203.922035 
C 96.189452 199.432117 94.405589 195.12549 91.230737 191.950638 
C 88.055886 188.775787 83.749259 186.991924 79.259341 186.991924 
C 74.769423 186.991924 70.462796 188.775787 67.287945 191.950638 
C 64.113093 195.12549 62.32923 199.432117 62.32923 203.922035 
C 62.32923 208.411952 64.113093 212.718579 67.287945 215.893431 
C 70.462796 219.068282 74.769423 220.852146 79.259341 220.852146 
z
" clip-path="url(#p4854fb902f)" style="fill: #ff0000; opacity: 0.2"/>
   </g>
   <g id="patch_9">
    <path d="M 100.856934 294.143626 
C 105.346851 294.143626 109.653478 292.359762 112.82833 289.184911 
C 116.003181 286.01006 117.787045 281.703433 117.787045 277.213515 
C 117.787045 272.723597 116.003181 268.41697 112.82833 265.242118 
C 109.653478 262.067267 105.346851 260.283404 100.856934 260.283404 
C 96.367016 260.283404 92.060389 262.067267 88.885537 265.242118 
C 85.710686 268.41697 83.926823 272.723597 83.926823 277.213515 
C 83.926823 281.703433 85.710686 286.01006 88.885537 289.184911 
C 92.060389 292.359762 96.367016 294.143626 100.856934 294.143626 
z
" clip-path="url(#p4854fb902f)" style="fill: #ff0000; opacity: 0.2"/>
   </g>
   <g id="patch_10">
    <path d="M 116.21664 318.297364 
C 120.706558 318.297364 125.013185 316.5135 128.188036 313.338649 
C 131.362888 310.163797 133.146751 305.857171 133.146751 301.367253 
C 133.146751 296.877335 131.362888 292.570708 128.188036 289.395856 
C 125.013185 286.221005 120.706558 284.437142 116.21664 284.437142 
C 111.726722 284.437142 107.420095 286.221005 104.245244 289.395856 
C 101.070392 292.570708 99.286529 296.877335 99.286529 301.367253 
C 99.286529 305.857171 101.070392 310.163797 104.245244 313.338649 
C 107.420095 316.5135 111.726722 318.297364 116.21664 318.297364 
z
" clip-path="url(#p4854fb902f)" style="fill: #ff0000; opacity: 0.2"/>
   </g>
   <g id="patch_11">
    <path d="M 208.918861 347.56363 
C 213.408779 347.56363 217.715406 345.779767 220.890257 342.604916 
C 224.065108 339.430064 225.848972 335.123437 225.848972 330.633519 
C 225.848972 326.143601 224.065108 321.836974 220.890257 318.662123 
C 217.715406 315.487272 213.408779 313.703408 208.918861 313.703408 
C 204.428943 313.703408 200.122316 315.487272 196.947464 318.662123 
C 193.772613 321.836974 191.98875 326.143601 191.98875 330.633519 
C 191.98875 335.123437 193.772613 339.430064 196.947464 342.604916 
C 200.122316 345.779767 204.428943 347.56363 208.918861 347.56363 
z
" clip-path="url(#p4854fb902f)" style="fill: #ff0000; opacity: 0.2"/>
   </g>
   <g id="patch_12">
    <path d="M 262.371384 338.86052 
C 266.861302 338.86052 271.167929 337.076657 274.342781 333.901806 
C 277.517632 330.726954 279.301495 326.420327 279.301495 321.930409 
C 279.301495 317.440491 277.517632 313.133864 274.342781 309.959013 
C 271.167929 306.784162 266.861302 305.000298 262.371384 305.000298 
C 257.881466 305.000298 253.574839 306.784162 250.399988 309.959013 
C 247.225137 313.133864 245.441273 317.440491 245.441273 321.930409 
C 245.441273 326.420327 247.225137 330.726954 250.399988 333.901806 
C 253.574839 337.076657 257.881466 338.86052 262.371384 338.86052 
z
" clip-path="url(#p4854fb902f)" style="fill: #ff0000; opacity: 0.2"/>
   </g>
   <g id="patch_13">
    <path d="M 316.273251 266.682961 
C 320.763169 266.682961 325.069796 264.899098 328.244647 261.724247 
C 331.419499 258.549395 333.203362 254.242768 333.203362 249.75285 
C 333.203362 245.262932 331.419499 240.956306 328.244647 237.781454 
C 325.069796 234.606603 320.763169 232.822739 316.273251 232.822739 
C 311.783333 232.822739 307.476706 234.606603 304.301855 237.781454 
C 301.127003 240.956306 299.34314 245.262932 299.34314 249.75285 
C 299.34314 254.242768 301.127003 258.549395 304.301855 261.724247 
C 307.476706 264.899098 311.783333 266.682961 316.273251 266.682961 
z
" clip-path="url(#p4854fb902f)" style="fill: #ff0000; opacity: 0.2"/>
   </g>
   <g id="patch_14">
    <path d="M 446.788442 229.075642 
C 451.27836 229.075642 455.584987 227.291779 458.759838 224.116927 
C 461.93469 220.942076 463.718553 216.635449 463.718553 212.145531 
C 463.718553 207.655613 461.93469 203.348986 458.759838 200.174135 
C 455.584987 196.999283 451.27836 195.21542 446.788442 195.21542 
C 442.298524 195.21542 437.991897 196.999283 434.817046 200.174135 
C 431.642194 203.348986 429.858331 207.655613 429.858331 212.145531 
C 429.858331 216.635449 431.642194 220.942076 434.817046 224.116927 
C 437.991897 227.291779 442.298524 229.075642 446.788442 229.075642 
z
" clip-path="url(#p4854fb902f)" style="fill: #ff0000; opacity: 0.2"/>
   </g>
   <g id="patch_15">
    <path d="M 420.944419 169.545703 
C 425.434337 169.545703 429.740964 167.76184 432.915816 164.586988 
C 436.090667 161.412137 437.87453 157.10551 437.87453 152.615592 
C 437.87453 148.125674 436.090667 143.819047 432.915816 140.644196 
C 429.740964 137.469344 425.434337 135.685481 420.944419 135.685481 
C 416.454501 135.685481 412.147874 137.469344 408.973023 140.644196 
C 405.798172 143.819047 404.014308 148.125674 404.014308 152.615592 
C 404.014308 157.10551 405.798172 161.412137 408.973023 164.586988 
C 412.147874 167.76184 416.454501 169.545703 420.944419 169.545703 
z
" clip-path="url(#p4854fb902f)" style="fill: #ff0000; opacity: 0.2"/>
   </g>
   <g id="patch_16">
    <path d="M 376.774776 158.930143 
C 381.264693 158.930143 385.57132 157.14628 388.746172 153.971429 
C 391.921023 150.796577 393.704887 146.48995 393.704887 142.000032 
C 393.704887 137.510114 391.921023 133.203487 388.746172 130.028636 
C 385.57132 126.853785 381.264693 125.069921 376.774776 125.069921 
C 372.284858 125.069921 367.978231 126.853785 364.803379 130.028636 
C 361.628528 133.203487 359.844665 137.510114 359.844665 142.000032 
C 359.844665 146.48995 361.628528 150.796577 364.803379 153.971429 
C 367.978231 157.14628 372.284858 158.930143 376.774776 158.930143 
z
" clip-path="url(#p4854fb902f)" style="fill: #ff0000; opacity: 0.2"/>
   </g>
   <g id="patch_17">
    <path d="M 302.593935 226.132492 
C 307.083853 226.132492 311.39048 224.348629 314.565331 221.173778 
C 317.740183 217.998926 319.524046 213.692299 319.524046 209.202381 
C 319.524046 204.712463 317.740183 200.405837 314.565331 197.230985 
C 311.39048 194.056134 307.083853 192.27227 302.593935 192.27227 
C 298.104017 192.27227 293.79739 194.056134 290.622539 197.230985 
C 287.447687 200.405837 285.663824 204.712463 285.663824 209.202381 
C 285.663824 213.692299 287.447687 217.998926 290.622539 221.173778 
C 293.79739 224.348629 298.104017 226.132492 302.593935 226.132492 
z
" clip-path="url(#p4854fb902f)" style="fill: #ff0000; opacity: 0.2"/>
   </g>
   <g id="patch_18">
    <path d="M 303.084447 243.483941 
C 307.574364 243.483941 311.880991 241.700078 315.055843 238.525226 
C 318.230694 235.350375 320.014558 231.043748 320.014558 226.55383 
C 320.014558 222.063912 318.230694 217.757285 315.055843 214.582434 
C 311.880991 211.407582 307.574364 209.623719 303.084447 209.623719 
C 298.594529 209.623719 294.287902 211.407582 291.11305 214.582434 
C 287.938199 217.757285 286.154336 222.063912 286.154336 226.55383 
C 286.154336 231.043748 287.938199 235.350375 291.11305 238.525226 
C 294.287902 241.700078 298.594529 243.483941 303.084447 243.483941 
z
" clip-path="url(#p4854fb902f)" style="fill: #ff0000; opacity: 0.2"/>
   </g>
   <g id="patch_19">
    <path d="M 367.368031 301.184279 
C 371.857949 301.184279 376.164576 299.400416 379.339428 296.225564 
C 382.514279 293.050713 384.298142 288.744086 384.298142 284.254168 
C 384.298142 279.76425 382.514279 275.457623 379.339428 272.282772 
C 376.164576 269.10792 371.857949 267.324057 367.368031 267.324057 
C 362.878113 267.324057 358.571486 269.10792 355.396635 272.282772 
C 352.221784 275.457623 350.43792 279.76425 350.43792 284.254168 
C 350.43792 288.744086 352.221784 293.050713 355.396635 296.225564 
C 358.571486 299.400416 362.878113 301.184279 367.368031 301.184279 
z
" clip-path="url(#p4854fb902f)" style="fill: #ff0000; opacity: 0.2"/>
   </g>
   <g id="patch_20">
    <path d="M 421.300005 293.833355 
C 425.789923 293.833355 430.09655 292.049491 433.271402 288.87464 
C 436.446253 285.699788 438.230116 281.393162 438.230116 276.903244 
C 438.230116 272.413326 436.446253 268.106699 433.271402 264.931847 
C 430.09655 261.756996 425.789923 259.973133 421.300005 259.973133 
C 416.810087 259.973133 412.503461 261.756996 409.328609 264.931847 
C 406.153758 268.106699 404.369894 272.413326 404.369894 276.903244 
C 404.369894 281.393162 406.153758 285.699788 409.328609 288.87464 
C 412.503461 292.049491 416.810087 293.833355 421.300005 293.833355 
z
" clip-path="url(#p4854fb902f)" style="fill: #ff0000; opacity: 0.2"/>
   </g>
   <g id="patch_21">
    <path d="M 319.934175 245.131758 
C 324.424093 245.131758 328.73072 243.347895 331.905571 240.173044 
C 335.080423 236.998192 336.864286 232.691565 336.864286 228.201647 
C 336.864286 223.711729 335.080423 219.405103 331.905571 216.230251 
C 328.73072 213.0554 324.424093 211.271536 319.934175 211.271536 
C 315.444257 211.271536 311.13763 213.0554 307.962779 216.230251 
C 304.787927 219.405103 303.004064 223.711729 303.004064 228.201647 
C 303.004064 232.691565 304.787927 236.998192 307.962779 240.173044 
C 311.13763 243.347895 315.444257 245.131758 319.934175 245.131758 
L 319.934175 245.131758 
z
" clip-path="url(#p4854fb902f)" style="fill: none; stroke: #ff0000; stroke-width: 2; stroke-linejoin: miter"/>
   </g>
   <g id="patch_22">
    <path d="M 305.632917 178.470325 
C 310.122835 178.470325 314.429462 176.686462 317.604313 173.51161 
C 320.779165 170.336759 322.563028 166.030132 322.563028 161.540214 
C 322.563028 157.050296 320.779165 152.743669 317.604313 149.568818 
C 314.429462 146.393966 310.122835 144.610103 305.632917 144.610103 
C 301.142999 144.610103 296.836372 146.393966 293.661521 149.568818 
C 290.486669 152.743669 288.702806 157.050296 288.702806 161.540214 
C 288.702806 166.030132 290.486669 170.336759 293.661521 173.51161 
C 296.836372 176.686462 301.142999 178.470325 305.632917 178.470325 
L 305.632917 178.470325 
z
" clip-path="url(#p4854fb902f)" style="fill: none; stroke: #ff0000; stroke-width: 2; stroke-linejoin: miter"/>
   </g>
   <g id="patch_23">
    <path d="M 228.674696 112.325538 
C 233.164614 112.325538 237.471241 110.541675 240.646092 107.366824 
C 243.820944 104.191972 245.604807 99.885345 245.604807 95.395427 
C 245.604807 90.905509 243.820944 86.598882 240.646092 83.424031 
C 237.471241 80.24918 233.164614 78.465316 228.674696 78.465316 
C 224.184778 78.465316 219.878151 80.24918 216.7033 83.424031 
C 213.528448 86.598882 211.744585 90.905509 211.744585 95.395427 
C 211.744585 99.885345 213.528448 104.191972 216.7033 107.366824 
C 219.878151 110.541675 224.184778 112.325538 228.674696 112.325538 
L 228.674696 112.325538 
z
" clip-path="url(#p4854fb902f)" style="fill: none; stroke: #ff0000; stroke-width: 2; stroke-linejoin: miter"/>
   </g>
   <g id="patch_24">
    <path d="M 182.402034 107.596592 
C 186.891952 107.596592 191.198579 105.812728 194.37343 102.637877 
C 197.548282 99.463026 199.332145 95.156399 199.332145 90.666481 
C 199.332145 86.176563 197.548282 81.869936 194.37343 78.695084 
C 191.198579 75.520233 186.891952 73.73637 182.402034 73.73637 
C 177.912116 73.73637 173.605489 75.520233 170.430638 78.695084 
C 167.255786 81.869936 165.471923 86.176563 165.471923 90.666481 
C 165.471923 95.156399 167.255786 99.463026 170.430638 102.637877 
C 173.605489 105.812728 177.912116 107.596592 182.402034 107.596592 
L 182.402034 107.596592 
z
" clip-path="url(#p4854fb902f)" style="fill: none; stroke: #ff0000; stroke-width: 2; stroke-linejoin: miter"/>
   </g>
   <g id="patch_25">
    <path d="M 181.690851 128.092305 
C 186.180769 128.092305 190.487396 126.308441 193.662247 123.13359 
C 196.837099 119.958739 198.620962 115.652112 198.620962 111.162194 
C 198.620962 106.672276 196.837099 102.365649 193.662247 99.190797 
C 190.487396 96.015946 186.180769 94.232083 181.690851 94.232083 
C 177.200933 94.232083 172.894306 96.015946 169.719455 99.190797 
C 166.544603 102.365649 164.76074 106.672276 164.76074 111.162194 
C 164.76074 115.652112 166.544603 119.958739 169.719455 123.13359 
C 172.894306 126.308441 177.200933 128.092305 181.690851 128.092305 
L 181.690851 128.092305 
z
" clip-path="url(#p4854fb902f)" style="fill: none; stroke: #ff0000; stroke-width: 2; stroke-linejoin: miter"/>
   </g>
   <g id="patch_26">
    <path d="M 109.654997 176.450967 
C 114.144914 176.450967 118.451541 174.667103 121.626393 171.492252 
C 124.801244 168.317401 126.585108 164.010774 126.585108 159.520856 
C 126.585108 155.030938 124.801244 150.724311 121.626393 147.549459 
C 118.451541 144.374608 114.144914 142.590745 109.654997 142.590745 
C 105.165079 142.590745 100.858452 144.374608 97.6836 147.549459 
C 94.508749 150.724311 92.724886 155.030938 92.724886 159.520856 
C 92.724886 164.010774 94.508749 168.317401 97.6836 171.492252 
C 100.858452 174.667103 105.165079 176.450967 109.654997 176.450967 
L 109.654997 176.450967 
z
" clip-path="url(#p4854fb902f)" style="fill: none; stroke: #ff0000; stroke-width: 2; stroke-linejoin: miter"/>
   </g>
   <g id="patch_27">
    <path d="M 79.259341 220.852146 
C 83.749259 220.852146 88.055886 219.068282 91.230737 215.893431 
C 94.405589 212.718579 96.189452 208.411952 96.189452 203.922035 
C 96.189452 199.432117 94.405589 195.12549 91.230737 191.950638 
C 88.055886 188.775787 83.749259 186.991924 79.259341 186.991924 
C 74.769423 186.991924 70.462796 188.775787 67.287945 191.950638 
C 64.113093 195.12549 62.32923 199.432117 62.32923 203.922035 
C 62.32923 208.411952 64.113093 212.718579 67.287945 215.893431 
C 70.462796 219.068282 74.769423 220.852146 79.259341 220.852146 
L 79.259341 220.852146 
z
" clip-path="url(#p4854fb902f)" style="fill: none; stroke: #ff0000; stroke-width: 2; stroke-linejoin: miter"/>
   </g>
   <g id="patch_28">
    <path d="M 100.856934 294.143626 
C 105.346851 294.143626 109.653478 292.359762 112.82833 289.184911 
C 116.003181 286.01006 117.787045 281.703433 117.787045 277.213515 
C 117.787045 272.723597 116.003181 268.41697 112.82833 265.242118 
C 109.653478 262.067267 105.346851 260.283404 100.856934 260.283404 
C 96.367016 260.283404 92.060389 262.067267 88.885537 265.242118 
C 85.710686 268.41697 83.926823 272.723597 83.926823 277.213515 
C 83.926823 281.703433 85.710686 286.01006 88.885537 289.184911 
C 92.060389 292.359762 96.367016 294.143626 100.856934 294.143626 
L 100.856934 294.143626 
z
" clip-path="url(#p4854fb902f)" style="fill: none; stroke: #ff0000; stroke-width: 2; stroke-linejoin: miter"/>
   </g>
   <g id="patch_29">
    <path d="M 116.21664 318.297364 
C 120.706558 318.297364 125.013185 316.5135 128.188036 313.338649 
C 131.362888 310.163797 133.146751 305.857171 133.146751 301.367253 
C 133.146751 296.877335 131.362888 292.570708 128.188036 289.395856 
C 125.013185 286.221005 120.706558 284.437142 116.21664 284.437142 
C 111.726722 284.437142 107.420095 286.221005 104.245244 289.395856 
C 101.070392 292.570708 99.286529 296.877335 99.286529 301.367253 
C 99.286529 305.857171 101.070392 310.163797 104.245244 313.338649 
C 107.420095 316.5135 111.726722 318.297364 116.21664 318.297364 
L 116.21664 318.297364 
z
" clip-path="url(#p4854fb902f)" style="fill: none; stroke: #ff0000; stroke-width: 2; stroke-linejoin: miter"/>
   </g>
   <g id="patch_30">
    <path d="M 208.918861 347.56363 
C 213.408779 347.56363 217.715406 345.779767 220.890257 342.604916 
C 224.065108 339.430064 225.848972 335.123437 225.848972 330.633519 
C 225.848972 326.143601 224.065108 321.836974 220.890257 318.662123 
C 217.715406 315.487272 213.408779 313.703408 208.918861 313.703408 
C 204.428943 313.703408 200.122316 315.487272 196.947464 318.662123 
C 193.772613 321.836974 191.98875 326.143601 191.98875 330.633519 
C 191.98875 335.123437 193.772613 339.430064 196.947464 342.604916 
C 200.122316 345.779767 204.428943 347.56363 208.918861 347.56363 
L 208.918861 347.56363 
z
" clip-path="url(#p4854fb902f)" style="fill: none; stroke: #ff0000; stroke-width: 2; stroke-linejoin: miter"/>
   </g>
   <g id="patch_31">
    <path d="M 262.371384 338.86052 
C 266.861302 338.86052 271.167929 337.076657 274.342781 333.901806 
C 277.517632 330.726954 279.301495 326.420327 279.301495 321.930409 
C 279.301495 317.440491 277.517632 313.133864 274.342781 309.959013 
C 271.167929 306.784162 266.861302 305.000298 262.371384 305.000298 
C 257.881466 305.000298 253.574839 306.784162 250.399988 309.959013 
C 247.225137 313.133864 245.441273 317.440491 245.441273 321.930409 
C 245.441273 326.420327 247.225137 330.726954 250.399988 333.901806 
C 253.574839 337.076657 257.881466 338.86052 262.371384 338.86052 
L 262.371384 338.86052 
z
" clip-path="url(#p4854fb902f)" style="fill: none; stroke: #ff0000; stroke-width: 2; stroke-linejoin: miter"/>
   </g>
   <g id="patch_32">
    <path d="M 316.273251 266.682961 
C 320.763169 266.682961 325.069796 264.899098 328.244647 261.724247 
C 331.419499 258.549395 333.203362 254.242768 333.203362 249.75285 
C 333.203362 245.262932 331.419499 240.956306 328.244647 237.781454 
C 325.069796 234.606603 320.763169 232.822739 316.273251 232.822739 
C 311.783333 232.822739 307.476706 234.606603 304.301855 237.781454 
C 301.127003 240.956306 299.34314 245.262932 299.34314 249.75285 
C 299.34314 254.242768 301.127003 258.549395 304.301855 261.724247 
C 307.476706 264.899098 311.783333 266.682961 316.273251 266.682961 
L 316.273251 266.682961 
z
" clip-path="url(#p4854fb902f)" style="fill: none; stroke: #ff0000; stroke-width: 2; stroke-linejoin: miter"/>
   </g>
   <g id="patch_33">
    <path d="M 446.788442 229.075642 
C 451.27836 229.075642 455.584987 227.291779 458.759838 224.116927 
C 461.93469 220.942076 463.718553 216.635449 463.718553 212.145531 
C 463.718553 207.655613 461.93469 203.348986 458.759838 200.174135 
C 455.584987 196.999283 451.27836 195.21542 446.788442 195.21542 
C 442.298524 195.21542 437.991897 196.999283 434.817046 200.174135 
C 431.642194 203.348986 429.858331 207.655613 429.858331 212.145531 
C 429.858331 216.635449 431.642194 220.942076 434.817046 224.116927 
C 437.991897 227.291779 442.298524 229.075642 446.788442 229.075642 
L 446.788442 229.075642 
z
" clip-path="url(#p4854fb902f)" style="fill: none; stroke: #ff0000; stroke-width: 2; stroke-linejoin: miter"/>
   </g>
   <g id="patch_34">
    <path d="M 420.944419 169.545703 
C 425.434337 169.545703 429.740964 167.76184 432.915816 164.586988 
C 436.090667 161.412137 437.87453 157.10551 437.87453 152.615592 
C 437.87453 148.125674 436.090667 143.819047 432.915816 140.644196 
C 429.740964 137.469344 425.434337 135.685481 420.944419 135.685481 
C 416.454501 135.685481 412.147874 137.469344 408.973023 140.644196 
C 405.798172 143.819047 404.014308 148.125674 404.014308 152.615592 
C 404.014308 157.10551 405.798172 161.412137 408.973023 164.586988 
C 412.147874 167.76184 416.454501 169.545703 420.944419 169.545703 
L 420.944419 169.545703 
z
" clip-path="url(#p4854fb902f)" style="fill: none; stroke: #ff0000; stroke-width: 2; stroke-linejoin: miter"/>
   </g>
   <g id="patch_35">
    <path d="M 376.774776 158.930143 
C 381.264693 158.930143 385.57132 157.14628 388.746172 153.971429 
C 391.921023 150.796577 393.704887 146.48995 393.704887 142.000032 
C 393.704887 137.510114 391.921023 133.203487 388.746172 130.028636 
C 385.57132 126.853785 381.264693 125.069921 376.774776 125.069921 
C 372.284858 125.069921 367.978231 126.853785 364.803379 130.028636 
C 361.628528 133.203487 359.844665 137.510114 359.844665 142.000032 
C 359.844665 146.48995 361.628528 150.796577 364.803379 153.971429 
C 367.978231 157.14628 372.284858 158.930143 376.774776 158.930143 
L 376.774776 158.930143 
z
" clip-path="url(#p4854fb902f)" style="fill: none; stroke: #ff0000; stroke-width: 2; stroke-linejoin: miter"/>
   </g>
   <g id="patch_36">
    <path d="M 302.593935 226.132492 
C 307.083853 226.132492 311.39048 224.348629 314.565331 221.173778 
C 317.740183 217.998926 319.524046 213.692299 319.524046 209.202381 
C 319.524046 204.712463 317.740183 200.405837 314.565331 197.230985 
C 311.39048 194.056134 307.083853 192.27227 302.593935 192.27227 
C 298.104017 192.27227 293.79739 194.056134 290.622539 197.230985 
C 287.447687 200.405837 285.663824 204.712463 285.663824 209.202381 
C 285.663824 213.692299 287.447687 217.998926 290.622539 221.173778 
C 293.79739 224.348629 298.104017 226.132492 302.593935 226.132492 
L 302.593935 226.132492 
z
" clip-path="url(#p4854fb902f)" style="fill: none; stroke: #ff0000; stroke-width: 2; stroke-linejoin: miter"/>
   </g>
   <g id="patch_37">
    <path d="M 303.084447 243.483941 
C 307.574364 243.483941 311.880991 241.700078 315.055843 238.525226 
C 318.230694 235.350375 320.014558 231.043748 320.014558 226.55383 
C 320.014558 222.063912 318.230694 217.757285 315.055843 214.582434 
C 311.880991 211.407582 307.574364 209.623719 303.084447 209.623719 
C 298.594529 209.623719 294.287902 211.407582 291.11305 214.582434 
C 287.938199 217.757285 286.154336 222.063912 286.154336 226.55383 
C 286.154336 231.043748 287.938199 235.350375 291.11305 238.525226 
C 294.287902 241.700078 298.594529 243.483941 303.084447 243.483941 
L 303.084447 243.483941 
z
" clip-path="url(#p4854fb902f)" style="fill: none; stroke: #ff0000; stroke-width: 2; stroke-linejoin: miter"/>
   </g>
   <g id="patch_38">
    <path d="M 367.368031 301.184279 
C 371.857949 301.184279 376.164576 299.400416 379.339428 296.225564 
C 382.514279 293.050713 384.298142 288.744086 384.298142 284.254168 
C 384.298142 279.76425 382.514279 275.457623 379.339428 272.282772 
C 376.164576 269.10792 371.857949 267.324057 367.368031 267.324057 
C 362.878113 267.324057 358.571486 269.10792 355.396635 272.282772 
C 352.221784 275.457623 350.43792 279.76425 350.43792 284.254168 
C 350.43792 288.744086 352.221784 293.050713 355.396635 296.225564 
C 358.571486 299.400416 362.878113 301.184279 367.368031 301.184279 
L 367.368031 301.184279 
z
" clip-path="url(#p4854fb902f)" style="fill: none; stroke: #ff0000; stroke-width: 2; stroke-linejoin: miter"/>
   </g>
   <g id="patch_39">
    <path d="M 421.300005 293.833355 
C 425.789923 293.833355 430.09655 292.049491 433.271402 288.87464 
C 436.446253 285.699788 438.230116 281.393162 438.230116 276.903244 
C 438.230116 272.413326 436.446253 268.106699 433.271402 264.931847 
C 430.09655 261.756996 425.789923 259.973133 421.300005 259.973133 
C 416.810087 259.973133 412.503461 261.756996 409.328609 264.931847 
C 406.153758 268.106699 404.369894 272.413326 404.369894 276.903244 
C 404.369894 281.393162 406.153758 285.699788 409.328609 288.87464 
C 412.503461 292.049491 416.810087 293.833355 421.300005 293.833355 
L 421.300005 293.833355 
z
" clip-path="url(#p4854fb902f)" style="fill: none; stroke: #ff0000; stroke-width: 2; stroke-linejoin: miter"/>
   </g>
   <g id="line2d_1">
    <path d="M 319.934175 228.201647 
L 303.084447 226.55383 
" clip-path="url(#p4854fb902f)" style="fill: none; stroke: #000000; stroke-width: 2; stroke-linecap: square"/>
   </g>
   <g id="PathCollection_2">
    <defs>
     <path id="mab9408d4c5" d="M 0 3 
C 0.795609 3 1.55874 2.683901 2.12132 2.12132 
C 2.683901 1.55874 3 0.795609 3 0 
C 3 -0.795609 2.683901 -1.55874 2.12132 -2.12132 
C 1.55874 -2.683901 0.795609 -3 0 -3 
C -0.795609 -3 -1.55874 -2.683901 -2.12132 -2.12132 
C -2.683901 -1.55874 -3 -0.795609 -3 0 
C -3 0.795609 -2.683901 1.55874 -2.12132 2.12132 
C -1.55874 2.683901 -0.795609 3 0 3 
z
" style="stroke: #0000ff"/>
    </defs>
    <g clip-path="url(#p4854fb902f)">
     <use xlink:href="#mab9408d4c5" x="319.934175" y="228.201647" style="fill: #0000ff; stroke: #0000ff"/>
     <use xlink:href="#mab9408d4c5" x="305.632917" y="161.540214" style="fill: #0000ff; stroke: #0000ff"/>
     <use xlink:href="#mab9408d4c5" x="228.674696" y="95.395427" style="fill: #0000ff; stroke: #0000ff"/>
     <use xlink:href="#mab9408d4c5" x="182.402034" y="90.666481" style="fill: #0000ff; stroke: #0000ff"/>
     <use xlink:href="#mab9408d4c5" x="181.690851" y="111.162194" style="fill: #0000ff; stroke: #0000ff"/>
     <use xlink:href="#mab9408d4c5" x="109.654997" y="159.520856" style="fill: #0000ff; stroke: #0000ff"/>
     <use xlink:href="#mab9408d4c5" x="79.259341" y="203.922035" style="fill: #0000ff; stroke: #0000ff"/>
     <use xlink:href="#mab9408d4c5" x="100.856934" y="277.213515" style="fill: #0000ff; stroke: #0000ff"/>
     <use xlink:href="#mab9408d4c5" x="116.21664" y="301.367253" style="fill: #0000ff; stroke: #0000ff"/>
     <use xlink:href="#mab9408d4c5" x="208.918861" y="330.633519" style="fill: #0000ff; stroke: #0000ff"/>
     <use xlink:href="#mab9408d4c5" x="262.371384" y="321.930409" style="fill: #0000ff; stroke: #0000ff"/>
     <use xlink:href="#mab9408d4c5" x="316.273251" y="249.75285" style="fill: #0000ff; stroke: #0000ff"/>
     <use xlink:href="#mab9408d4c5" x="446.788442" y="212.145531" style="fill: #0000ff; stroke: #0000ff"/>
     <use xlink:href="#mab9408d4c5" x="420.944419" y="152.615592" style="fill: #0000ff; stroke: #0000ff"/>
     <use xlink:href="#mab9408d4c5" x="376.774776" y="142.000032" style="fill: #0000ff; stroke: #0000ff"/>
     <use xlink:href="#mab9408d4c5" x="302.593935" y="209.202381" style="fill: #0000ff; stroke: #0000ff"/>
     <use xlink:href="#mab9408d4c5" x="303.084447" y="226.55383" style="fill: #0000ff; stroke: #0000ff"/>
     <use xlink:href="#mab9408d4c5" x="367.368031" y="284.254168" style="fill: #0000ff; stroke: #0000ff"/>
     <use xlink:href="#mab9408d4c5" x="421.300005" y="276.903244" style="fill: #0000ff; stroke: #0000ff"/>
    </g>
   </g>
  </g>
  <g id="axes_2">
   <g id="patch_40">
    <path d="M 553.952217 414.1 
L 1065.6 414.1 
L 1065.6 7.2 
L 553.952217 7.2 
z
" style="fill: #ffffff"/>
   </g>
   <g id="matplotlib.axis_1">
    <g id="xtick_1">
     <g id="line2d_2">
      <defs>
       <path id="m15ae83e2b1" d="M 0 0 
L 0 3.5 
" style="stroke: #000000; stroke-width: 0.8"/>
      </defs>
      <g>
       <use xlink:href="#m15ae83e2b1" x="567.416632" y="414.1" style="stroke: #000000; stroke-width: 0.8"/>
      </g>
     </g>
    </g>
    <g id="xtick_2">
     <g id="line2d_3">
      <g>
       <use xlink:href="#m15ae83e2b1" x="594.345463" y="414.1" style="stroke: #000000; stroke-width: 0.8"/>
      </g>
     </g>
    </g>
    <g id="xtick_3">
     <g id="line2d_4">
      <g>
       <use xlink:href="#m15ae83e2b1" x="621.274294" y="414.1" style="stroke: #000000; stroke-width: 0.8"/>
      </g>
     </g>
    </g>
    <g id="xtick_4">
     <g id="line2d_5">
      <g>
       <use xlink:href="#m15ae83e2b1" x="648.203124" y="414.1" style="stroke: #000000; stroke-width: 0.8"/>
      </g>
     </g>
    </g>
    <g id="xtick_5">
     <g id="line2d_6">
      <g>
       <use xlink:href="#m15ae83e2b1" x="675.131955" y="414.1" style="stroke: #000000; stroke-width: 0.8"/>
      </g>
     </g>
    </g>
    <g id="xtick_6">
     <g id="line2d_7">
      <g>
       <use xlink:href="#m15ae83e2b1" x="702.060786" y="414.1" style="stroke: #000000; stroke-width: 0.8"/>
      </g>
     </g>
    </g>
    <g id="xtick_7">
     <g id="line2d_8">
      <g>
       <use xlink:href="#m15ae83e2b1" x="728.989616" y="414.1" style="stroke: #000000; stroke-width: 0.8"/>
      </g>
     </g>
    </g>
    <g id="xtick_8">
     <g id="line2d_9">
      <g>
       <use xlink:href="#m15ae83e2b1" x="755.918447" y="414.1" style="stroke: #000000; stroke-width: 0.8"/>
      </g>
     </g>
    </g>
    <g id="xtick_9">
     <g id="line2d_10">
      <g>
       <use xlink:href="#m15ae83e2b1" x="782.847278" y="414.1" style="stroke: #000000; stroke-width: 0.8"/>
      </g>
     </g>
    </g>
    <g id="xtick_10">
     <g id="line2d_11">
      <g>
       <use xlink:href="#m15ae83e2b1" x="809.776108" y="414.1" style="stroke: #000000; stroke-width: 0.8"/>
      </g>
     </g>
    </g>
    <g id="xtick_11">
     <g id="line2d_12">
      <g>
       <use xlink:href="#m15ae83e2b1" x="836.704939" y="414.1" style="stroke: #000000; stroke-width: 0.8"/>
      </g>
     </g>
    </g>
    <g id="xtick_12">
     <g id="line2d_13">
      <g>
       <use xlink:href="#m15ae83e2b1" x="863.63377" y="414.1" style="stroke: #000000; stroke-width: 0.8"/>
      </g>
     </g>
    </g>
    <g id="xtick_13">
     <g id="line2d_14">
      <g>
       <use xlink:href="#m15ae83e2b1" x="890.5626" y="414.1" style="stroke: #000000; stroke-width: 0.8"/>
      </g>
     </g>
    </g>
    <g id="xtick_14">
     <g id="line2d_15">
      <g>
       <use xlink:href="#m15ae83e2b1" x="917.491431" y="414.1" style="stroke: #000000; stroke-width: 0.8"/>
      </g>
     </g>
    </g>
    <g id="xtick_15">
     <g id="line2d_16">
      <g>
       <use xlink:href="#m15ae83e2b1" x="944.420262" y="414.1" style="stroke: #000000; stroke-width: 0.8"/>
      </g>
     </g>
    </g>
    <g id="xtick_16">
     <g id="line2d_17">
      <g>
       <use xlink:href="#m15ae83e2b1" x="971.349093" y="414.1" style="stroke: #000000; stroke-width: 0.8"/>
      </g>
     </g>
    </g>
    <g id="xtick_17">
     <g id="line2d_18">
      <g>
       <use xlink:href="#m15ae83e2b1" x="998.277923" y="414.1" style="stroke: #000000; stroke-width: 0.8"/>
      </g>
     </g>
    </g>
    <g id="xtick_18">
     <g id="line2d_19">
      <g>
       <use xlink:href="#m15ae83e2b1" x="1025.206754" y="414.1" style="stroke: #000000; stroke-width: 0.8"/>
      </g>
     </g>
    </g>
    <g id="xtick_19">
     <g id="line2d_20">
      <g>
       <use xlink:href="#m15ae83e2b1" x="1052.135585" y="414.1" style="stroke: #000000; stroke-width: 0.8"/>
      </g>
     </g>
    </g>
   </g>
   <g id="matplotlib.axis_2">
    <g id="ytick_1">
     <g id="line2d_21">
      <defs>
       <path id="mec315c6bba" d="M 0 0 
L -3.5 0 
" style="stroke: #000000; stroke-width: 0.8"/>
      </defs>
      <g>
       <use xlink:href="#mec315c6bba" x="553.952217" y="354.314891" style="stroke: #000000; stroke-width: 0.8"/>
      </g>
     </g>
     <g id="text_1">
      <!-- $r_{1}$ -->
      <g transform="translate(529.152217 361.913329) scale(0.2 -0.2)">
       <defs>
        <path id="DejaVuSans-Oblique-72" d="M 2853 2969 
Q 2766 3016 2653 3041 
Q 2541 3066 2413 3066 
Q 1953 3066 1609 2717 
Q 1266 2369 1153 1784 
L 800 0 
L 225 0 
L 909 3500 
L 1484 3500 
L 1375 2956 
Q 1603 3259 1920 3421 
Q 2238 3584 2597 3584 
Q 2691 3584 2781 3573 
Q 2872 3563 2963 3538 
L 2853 2969 
z
" transform="scale(0.015625)"/>
        <path id="DejaVuSans-31" d="M 794 531 
L 1825 531 
L 1825 4091 
L 703 3866 
L 703 4441 
L 1819 4666 
L 2450 4666 
L 2450 531 
L 3481 531 
L 3481 0 
L 794 0 
L 794 531 
z
" transform="scale(0.015625)"/>
       </defs>
       <use xlink:href="#DejaVuSans-Oblique-72"/>
       <use xlink:href="#DejaVuSans-31" transform="translate(41.113281 -16.40625) scale(0.7)"/>
      </g>
     </g>
    </g>
   </g>
   <g id="line2d_22">
    <path d="M 890.5626 414.1 
L 890.5626 354.314891 
L 917.491431 354.314891 
L 917.491431 414.1 
" clip-path="url(#p1e7e7ea0ed)" style="fill: none; stroke: #ff0000; stroke-width: 5; stroke-linecap: square"/>
   </g>
   <g id="line2d_23">
    <path d="M 594.345463 414.1 
L 594.345463 354.314891 
" clip-path="url(#p1e7e7ea0ed)" style="fill: none; stroke: #ff0000; stroke-width: 5; stroke-linecap: square"/>
   </g>
   <g id="line2d_24">
    <path d="M 621.274294 414.1 
L 621.274294 354.314891 
" clip-path="url(#p1e7e7ea0ed)" style="fill: none; stroke: #ff0000; stroke-width: 5; stroke-linecap: square"/>
   </g>
   <g id="line2d_25">
    <path d="M 567.416632 414.1 
L 567.416632 354.314891 
" clip-path="url(#p1e7e7ea0ed)" style="fill: none; stroke: #ff0000; stroke-width: 5; stroke-linecap: square"/>
   </g>
   <g id="line2d_26">
    <path d="M 648.203124 414.1 
L 648.203124 354.314891 
" clip-path="url(#p1e7e7ea0ed)" style="fill: none; stroke: #ff0000; stroke-width: 5; stroke-linecap: square"/>
   </g>
   <g id="line2d_27">
    <path d="M 675.131955 414.1 
L 675.131955 354.314891 
" clip-path="url(#p1e7e7ea0ed)" style="fill: none; stroke: #ff0000; stroke-width: 5; stroke-linecap: square"/>
   </g>
   <g id="line2d_28">
    <path d="M 702.060786 414.1 
L 702.060786 354.314891 
" clip-path="url(#p1e7e7ea0ed)" style="fill: none; stroke: #ff0000; stroke-width: 5; stroke-linecap: square"/>
   </g>
   <g id="line2d_29">
    <path d="M 728.989616 414.1 
L 728.989616 354.314891 
" clip-path="url(#p1e7e7ea0ed)" style="fill: none; stroke: #ff0000; stroke-width: 5; stroke-linecap: square"/>
   </g>
   <g id="line2d_30">
    <path d="M 755.918447 414.1 
L 755.918447 354.314891 
" clip-path="url(#p1e7e7ea0ed)" style="fill: none; stroke: #ff0000; stroke-width: 5; stroke-linecap: square"/>
   </g>
   <g id="line2d_31">
    <path d="M 782.847278 414.1 
L 782.847278 354.314891 
" clip-path="url(#p1e7e7ea0ed)" style="fill: none; stroke: #ff0000; stroke-width: 5; stroke-linecap: square"/>
   </g>
   <g id="line2d_32">
    <path d="M 863.63377 414.1 
L 863.63377 354.314891 
" clip-path="url(#p1e7e7ea0ed)" style="fill: none; stroke: #ff0000; stroke-width: 5; stroke-linecap: square"/>
   </g>
   <g id="line2d_33">
    <path d="M 836.704939 414.1 
L 836.704939 354.314891 
" clip-path="url(#p1e7e7ea0ed)" style="fill: none; stroke: #ff0000; stroke-width: 5; stroke-linecap: square"/>
   </g>
   <g id="line2d_34">
    <path d="M 809.776108 414.1 
L 809.776108 354.314891 
" clip-path="url(#p1e7e7ea0ed)" style="fill: none; stroke: #ff0000; stroke-width: 5; stroke-linecap: square"/>
   </g>
   <g id="line2d_35">
    <path d="M 944.420262 414.1 
L 944.420262 354.314891 
" clip-path="url(#p1e7e7ea0ed)" style="fill: none; stroke: #ff0000; stroke-width: 5; stroke-linecap: square"/>
   </g>
   <g id="line2d_36">
    <path d="M 971.349093 414.1 
L 971.349093 354.314891 
" clip-path="url(#p1e7e7ea0ed)" style="fill: none; stroke: #ff0000; stroke-width: 5; stroke-linecap: square"/>
   </g>
   <g id="line2d_37">
    <path d="M 1025.206754 414.1 
L 1025.206754 354.314891 
" clip-path="url(#p1e7e7ea0ed)" style="fill: none; stroke: #ff0000; stroke-width: 5; stroke-linecap: square"/>
   </g>
   <g id="line2d_38">
    <path d="M 1052.135585 414.1 
L 1052.135585 354.314891 
" clip-path="url(#p1e7e7ea0ed)" style="fill: none; stroke: #ff0000; stroke-width: 5; stroke-linecap: square"/>
   </g>
   <g id="line2d_39">
    <path d="M 998.277923 414.1 
L 998.277923 354.314891 
" clip-path="url(#p1e7e7ea0ed)" style="fill: none; stroke: #ff0000; stroke-width: 5; stroke-linecap: square"/>
   </g>
   <g id="line2d_40">
    <path d="M 904.027016 354.314891 
L 904.027016 354.314891 
" clip-path="url(#p1e7e7ea0ed)" style="fill: none; stroke: #ff0000; stroke-width: 5; stroke-linecap: square"/>
   </g>
   <g id="patch_41">
    <path d="M 553.952217 414.1 
L 553.952217 7.2 
" style="fill: none; stroke: #000000; stroke-width: 0.8; stroke-linejoin: miter; stroke-linecap: square"/>
   </g>
   <g id="patch_42">
    <path d="M 1065.6 414.1 
L 1065.6 7.2 
" style="fill: none; stroke: #000000; stroke-width: 0.8; stroke-linejoin: miter; stroke-linecap: square"/>
   </g>
   <g id="patch_43">
    <path d="M 553.952217 414.1 
L 1065.6 414.1 
" style="fill: none; stroke: #000000; stroke-width: 0.8; stroke-linejoin: miter; stroke-linecap: square"/>
   </g>
   <g id="patch_44">
    <path d="M 553.952217 7.2 
L 1065.6 7.2 
" style="fill: none; stroke: #000000; stroke-width: 0.8; stroke-linejoin: miter; stroke-linecap: square"/>
   </g>
   <g id="PathCollection_3">
    <defs>
     <path id="m9cdecae67b" d="M 0 6.123724 
C 1.624031 6.123724 3.181764 5.47849 4.330127 4.330127 
C 5.47849 3.181764 6.123724 1.624031 6.123724 0 
C 6.123724 -1.624031 5.47849 -3.181764 4.330127 -4.330127 
C 3.181764 -5.47849 1.624031 -6.123724 0 -6.123724 
C -1.624031 -6.123724 -3.181764 -5.47849 -4.330127 -4.330127 
C -5.47849 -3.181764 -6.123724 -1.624031 -6.123724 0 
C -6.123724 1.624031 -5.47849 3.181764 -4.330127 4.330127 
C -3.181764 5.47849 -1.624031 6.123724 0 6.123724 
z
" style="stroke: #0000ff"/>
    </defs>
    <g clip-path="url(#p1e7e7ea0ed)">
     <use xlink:href="#m9cdecae67b" x="567.416632" y="414.1" style="fill: #0000ff; stroke: #0000ff"/>
     <use xlink:href="#m9cdecae67b" x="594.345463" y="414.1" style="fill: #0000ff; stroke: #0000ff"/>
     <use xlink:href="#m9cdecae67b" x="621.274294" y="414.1" style="fill: #0000ff; stroke: #0000ff"/>
     <use xlink:href="#m9cdecae67b" x="648.203124" y="414.1" style="fill: #0000ff; stroke: #0000ff"/>
     <use xlink:href="#m9cdecae67b" x="675.131955" y="414.1" style="fill: #0000ff; stroke: #0000ff"/>
     <use xlink:href="#m9cdecae67b" x="702.060786" y="414.1" style="fill: #0000ff; stroke: #0000ff"/>
     <use xlink:href="#m9cdecae67b" x="728.989616" y="414.1" style="fill: #0000ff; stroke: #0000ff"/>
     <use xlink:href="#m9cdecae67b" x="755.918447" y="414.1" style="fill: #0000ff; stroke: #0000ff"/>
     <use xlink:href="#m9cdecae67b" x="782.847278" y="414.1" style="fill: #0000ff; stroke: #0000ff"/>
     <use xlink:href="#m9cdecae67b" x="809.776108" y="414.1" style="fill: #0000ff; stroke: #0000ff"/>
     <use xlink:href="#m9cdecae67b" x="836.704939" y="414.1" style="fill: #0000ff; stroke: #0000ff"/>
     <use xlink:href="#m9cdecae67b" x="863.63377" y="414.1" style="fill: #0000ff; stroke: #0000ff"/>
     <use xlink:href="#m9cdecae67b" x="890.5626" y="414.1" style="fill: #0000ff; stroke: #0000ff"/>
     <use xlink:href="#m9cdecae67b" x="917.491431" y="414.1" style="fill: #0000ff; stroke: #0000ff"/>
     <use xlink:href="#m9cdecae67b" x="944.420262" y="414.1" style="fill: #0000ff; stroke: #0000ff"/>
     <use xlink:href="#m9cdecae67b" x="971.349093" y="414.1" style="fill: #0000ff; stroke: #0000ff"/>
     <use xlink:href="#m9cdecae67b" x="998.277923" y="414.1" style="fill: #0000ff; stroke: #0000ff"/>
     <use xlink:href="#m9cdecae67b" x="1025.206754" y="414.1" style="fill: #0000ff; stroke: #0000ff"/>
     <use xlink:href="#m9cdecae67b" x="1052.135585" y="414.1" style="fill: #0000ff; stroke: #0000ff"/>
    </g>
   </g>
  </g>
 </g>
 <defs>
  <clipPath id="p4854fb902f">
   <rect x="7.2" y="18.60714" width="511.647783" height="384.085721"/>
  </clipPath>
  <clipPath id="p1e7e7ea0ed">
   <rect x="553.952217" y="7.2" width="511.647783" height="406.9"/>
  </clipPath>
 </defs>
</svg>
