<?xml version="1.0" encoding="utf-8" standalone="no"?>
<!DOCTYPE svg PUBLIC "-//W3C//DTD SVG 1.1//EN"
  "http://www.w3.org/Graphics/SVG/1.1/DTD/svg11.dtd">
<svg xmlns:xlink="http://www.w3.org/1999/xlink" width="1072.8pt" height="424.8pt" viewBox="0 0 1072.8 424.8" xmlns="http://www.w3.org/2000/svg" version="1.1">
 <metadata>
  <rdf:RDF xmlns:dc="http://purl.org/dc/elements/1.1/" xmlns:cc="http://creativecommons.org/ns#" xmlns:rdf="http://www.w3.org/1999/02/22-rdf-syntax-ns#">
   <cc:Work>
    <dc:type rdf:resource="http://purl.org/dc/dcmitype/StillImage"/>
    <dc:date>2023-10-24T09:47:26.068273</dc:date>
    <dc:format>image/svg+xml</dc:format>
    <dc:creator>
     <cc:Agent>
      <dc:title>Matplotlib v3.7.2, https://matplotlib.org/</dc:title>
     </cc:Agent>
    </dc:creator>
   </cc:Work>
  </rdf:RDF>
 </metadata>
 <defs>
  <style type="text/css">*{stroke-linejoin: round; stroke-linecap: butt}</style>
 </defs>
 <g id="figure_1">
  <g id="patch_1">
   <path d="M 0 424.8 
L 1072.8 424.8 
L 1072.8 -0 
L 0 -0 
z
" style="fill: #ffffff"/>
  </g>
  <g id="axes_1">
   <g id="PathCollection_1">
    <defs>
     <path id="me864b03166" d="M 0 3 
C 0.795609 3 1.55874 2.683901 2.12132 2.12132 
C 2.683901 1.55874 3 0.795609 3 0 
C 3 -0.795609 2.683901 -1.55874 2.12132 -2.12132 
C 1.55874 -2.683901 0.795609 -3 0 -3 
C -0.795609 -3 -1.55874 -2.683901 -2.12132 -2.12132 
C -2.683901 -1.55874 -3 -0.795609 -3 0 
C -3 0.795609 -2.683901 1.55874 -2.12132 2.12132 
C -1.55874 2.683901 -0.795609 3 0 3 
z
" style="stroke: #1f77b4; stroke-opacity: 0"/>
    </defs>
    <g clip-path="url(#p1ba4328fe2)">
     <use xlink:href="#me864b03166" x="7.2" y="402.726641" style="fill: #1f77b4; fill-opacity: 0; stroke: #1f77b4; stroke-opacity: 0"/>
     <use xlink:href="#me864b03166" x="518.937783" y="18.573359" style="fill: #1f77b4; fill-opacity: 0; stroke: #1f77b4; stroke-opacity: 0"/>
    </g>
   </g>
   <g id="patch_2">
    <path d="M 319.989186 245.566168 
C 324.593492 245.566168 329.009837 243.736858 332.265573 240.481122 
C 335.521309 237.225386 337.350619 232.809041 337.350619 228.204735 
C 337.350619 223.600429 335.521309 219.184083 332.265573 215.928347 
C 329.009837 212.672611 324.593492 210.843301 319.989186 210.843301 
C 315.38488 210.843301 310.968534 212.672611 307.712798 215.928347 
C 304.457062 219.184083 302.627752 223.600429 302.627752 228.204735 
C 302.627752 232.809041 304.457062 237.225386 307.712798 240.481122 
C 310.968534 243.736858 315.38488 245.566168 319.989186 245.566168 
z
" clip-path="url(#p1ba4328fe2)" style="fill: #ff0000; opacity: 0.2"/>
   </g>
   <g id="patch_3">
    <path d="M 305.685412 178.893009 
C 310.289718 178.893009 314.706064 177.063699 317.9618 173.807963 
C 321.217536 170.552227 323.046846 166.135881 323.046846 161.531575 
C 323.046846 156.927269 321.217536 152.510924 317.9618 149.255188 
C 314.706064 145.999452 310.289718 144.170142 305.685412 144.170142 
C 301.081106 144.170142 296.664761 145.999452 293.409025 149.255188 
C 290.153289 152.510924 288.323979 156.927269 288.323979 161.531575 
C 288.323979 166.135881 290.153289 170.552227 293.409025 173.807963 
C 296.664761 177.063699 301.081106 178.893009 305.685412 178.893009 
z
" clip-path="url(#p1ba4328fe2)" style="fill: #ff0000; opacity: 0.2"/>
   </g>
   <g id="patch_4">
    <path d="M 228.713654 112.736587 
C 233.31796 112.736587 237.734305 110.907277 240.990041 107.651541 
C 244.245777 104.395805 246.075088 99.97946 246.075088 95.375154 
C 246.075088 90.770848 244.245777 86.354502 240.990041 83.098766 
C 237.734305 79.84303 233.31796 78.01372 228.713654 78.01372 
C 224.109348 78.01372 219.693002 79.84303 216.437266 83.098766 
C 213.18153 86.354502 211.35222 90.770848 211.35222 95.375154 
C 211.35222 99.97946 213.18153 104.395805 216.437266 107.651541 
C 219.693002 110.907277 224.109348 112.736587 228.713654 112.736587 
z
" clip-path="url(#p1ba4328fe2)" style="fill: #ff0000; opacity: 0.2"/>
   </g>
   <g id="patch_5">
    <path d="M 182.432852 108.006809 
C 187.037158 108.006809 191.453504 106.177499 194.70924 102.921763 
C 197.964976 99.666027 199.794286 95.249681 199.794286 90.645375 
C 199.794286 86.041069 197.964976 81.624724 194.70924 78.368988 
C 191.453504 75.113252 187.037158 73.283942 182.432852 73.283942 
C 177.828546 73.283942 173.412201 75.113252 170.156465 78.368988 
C 166.900729 81.624724 165.071419 86.041069 165.071419 90.645375 
C 165.071419 95.249681 166.900729 99.666027 170.156465 102.921763 
C 173.412201 106.177499 177.828546 108.006809 182.432852 108.006809 
z
" clip-path="url(#p1ba4328fe2)" style="fill: #ff0000; opacity: 0.2"/>
   </g>
   <g id="patch_6">
    <path d="M 181.721544 128.506127 
C 186.325851 128.506127 190.742196 126.676817 193.997932 123.421081 
C 197.253668 120.165345 199.082978 115.749 199.082978 111.144693 
C 199.082978 106.540387 197.253668 102.124042 193.997932 98.868306 
C 190.742196 95.61257 186.325851 93.78326 181.721544 93.78326 
C 177.117238 93.78326 172.700893 95.61257 169.445157 98.868306 
C 166.189421 102.124042 164.360111 106.540387 164.360111 111.144693 
C 164.360111 115.749 166.189421 120.165345 169.445157 123.421081 
C 172.700893 126.676817 177.117238 128.506127 181.721544 128.506127 
z
" clip-path="url(#p1ba4328fe2)" style="fill: #ff0000; opacity: 0.2"/>
   </g>
   <g id="patch_7">
    <path d="M 109.673019 176.873296 
C 114.277325 176.873296 118.69367 175.043986 121.949406 171.788249 
C 125.205142 168.532513 127.034452 164.116168 127.034452 159.511862 
C 127.034452 154.907556 125.205142 150.491211 121.949406 147.235475 
C 118.69367 143.979739 114.277325 142.150428 109.673019 142.150428 
C 105.068713 142.150428 100.652367 143.979739 97.396631 147.235475 
C 94.140895 150.491211 92.311585 154.907556 92.311585 159.511862 
C 92.311585 164.116168 94.140895 168.532513 97.396631 171.788249 
C 100.652367 175.043986 105.068713 176.873296 109.673019 176.873296 
z
" clip-path="url(#p1ba4328fe2)" style="fill: #ff0000; opacity: 0.2"/>
   </g>
   <g id="patch_8">
    <path d="M 79.272017 221.282285 
C 83.876323 221.282285 88.292668 219.452975 91.548404 216.197239 
C 94.80414 212.941503 96.63345 208.525157 96.63345 203.920851 
C 96.63345 199.316545 94.80414 194.9002 91.548404 191.644464 
C 88.292668 188.388728 83.876323 186.559417 79.272017 186.559417 
C 74.66771 186.559417 70.251365 188.388728 66.995629 191.644464 
C 63.739893 194.9002 61.910583 199.316545 61.910583 203.920851 
C 61.910583 208.525157 63.739893 212.941503 66.995629 216.197239 
C 70.251365 219.452975 74.66771 221.282285 79.272017 221.282285 
z
" clip-path="url(#p1ba4328fe2)" style="fill: #ff0000; opacity: 0.2"/>
   </g>
   <g id="patch_9">
    <path d="M 100.873408 294.586657 
C 105.477714 294.586657 109.894059 292.757347 113.149795 289.501611 
C 116.405531 286.245875 118.234842 281.829529 118.234842 277.225223 
C 118.234842 272.620917 116.405531 268.204572 113.149795 264.948836 
C 109.894059 261.6931 105.477714 259.86379 100.873408 259.86379 
C 96.269102 259.86379 91.852757 261.6931 88.597021 264.948836 
C 85.341284 268.204572 83.511974 272.620917 83.511974 277.225223 
C 83.511974 281.829529 85.341284 286.245875 88.597021 289.501611 
C 91.852757 292.757347 96.269102 294.586657 100.873408 294.586657 
z
" clip-path="url(#p1ba4328fe2)" style="fill: #ff0000; opacity: 0.2"/>
   </g>
   <g id="patch_10">
    <path d="M 116.235816 318.744644 
C 120.840122 318.744644 125.256468 316.915333 128.512204 313.659597 
C 131.76794 310.403861 133.59725 305.987516 133.59725 301.38321 
C 133.59725 296.778904 131.76794 292.362559 128.512204 289.106822 
C 125.256468 285.851086 120.840122 284.021776 116.235816 284.021776 
C 111.63151 284.021776 107.215165 285.851086 103.959429 289.106822 
C 100.703693 292.362559 98.874382 296.778904 98.874382 301.38321 
C 98.874382 305.987516 100.703693 310.403861 103.959429 313.659597 
C 107.215165 316.915333 111.63151 318.744644 116.235816 318.744644 
z
" clip-path="url(#p1ba4328fe2)" style="fill: #ff0000; opacity: 0.2"/>
   </g>
   <g id="patch_11">
    <path d="M 208.954343 348.016058 
C 213.558649 348.016058 217.974995 346.186748 221.230731 342.931012 
C 224.486467 339.675276 226.315777 335.258931 226.315777 330.654625 
C 226.315777 326.050319 224.486467 321.633973 221.230731 318.378237 
C 217.974995 315.122501 213.558649 313.293191 208.954343 313.293191 
C 204.350037 313.293191 199.933692 315.122501 196.677956 318.378237 
C 193.42222 321.633973 191.59291 326.050319 191.59291 330.654625 
C 191.59291 335.258931 193.42222 339.675276 196.677956 342.931012 
C 199.933692 346.186748 204.350037 348.016058 208.954343 348.016058 
z
" clip-path="url(#p1ba4328fe2)" style="fill: #ff0000; opacity: 0.2"/>
   </g>
   <g id="patch_12">
    <path d="M 262.416269 339.311417 
C 267.020576 339.311417 271.436921 337.482107 274.692657 334.226371 
C 277.948393 330.970635 279.777703 326.55429 279.777703 321.949984 
C 279.777703 317.345678 277.948393 312.929332 274.692657 309.673596 
C 271.436921 306.41786 267.020576 304.58855 262.416269 304.58855 
C 257.811963 304.58855 253.395618 306.41786 250.139882 309.673596 
C 246.884146 312.929332 245.054836 317.345678 245.054836 321.949984 
C 245.054836 326.55429 246.884146 330.970635 250.139882 334.226371 
C 253.395618 337.482107 257.811963 339.311417 262.416269 339.311417 
z
" clip-path="url(#p1ba4328fe2)" style="fill: #ff0000; opacity: 0.2"/>
   </g>
   <g id="patch_13">
    <path d="M 316.327618 267.121162 
C 320.931924 267.121162 325.348269 265.291852 328.604005 262.036116 
C 331.859741 258.78038 333.689051 254.364035 333.689051 249.759729 
C 333.689051 245.155423 331.859741 240.739077 328.604005 237.483341 
C 325.348269 234.227605 320.931924 232.398295 316.327618 232.398295 
C 311.723312 232.398295 307.306966 234.227605 304.05123 237.483341 
C 300.795494 240.739077 298.966184 245.155423 298.966184 249.759729 
C 298.966184 254.364035 300.795494 258.78038 304.05123 262.036116 
C 307.306966 265.291852 311.723312 267.121162 316.327618 267.121162 
z
" clip-path="url(#p1ba4328fe2)" style="fill: #ff0000; opacity: 0.2"/>
   </g>
   <g id="patch_14">
    <path d="M 446.865767 229.507228 
C 451.470073 229.507228 455.886418 227.677918 459.142154 224.422182 
C 462.39789 221.166446 464.2272 216.7501 464.2272 212.145794 
C 464.2272 207.541488 462.39789 203.125143 459.142154 199.869407 
C 455.886418 196.613671 451.470073 194.78436 446.865767 194.78436 
C 442.261461 194.78436 437.845115 196.613671 434.589379 199.869407 
C 431.333643 203.125143 429.504333 207.541488 429.504333 212.145794 
C 429.504333 216.7501 431.333643 221.166446 434.589379 224.422182 
C 437.845115 227.677918 442.261461 229.507228 446.865767 229.507228 
z
" clip-path="url(#p1ba4328fe2)" style="fill: #ff0000; opacity: 0.2"/>
   </g>
   <g id="patch_15">
    <path d="M 421.017198 169.966817 
C 425.621504 169.966817 430.037849 168.137507 433.293585 164.881771 
C 436.549321 161.626035 438.378631 157.20969 438.378631 152.605383 
C 438.378631 148.001077 436.549321 143.584732 433.293585 140.328996 
C 430.037849 137.07326 425.621504 135.24395 421.017198 135.24395 
C 416.412892 135.24395 411.996546 137.07326 408.74081 140.328996 
C 405.485074 143.584732 403.655764 148.001077 403.655764 152.605383 
C 403.655764 157.20969 405.485074 161.626035 408.74081 164.881771 
C 411.996546 168.137507 416.412892 169.966817 421.017198 169.966817 
z
" clip-path="url(#p1ba4328fe2)" style="fill: #ff0000; opacity: 0.2"/>
   </g>
   <g id="patch_16">
    <path d="M 376.839785 159.34939 
C 381.444091 159.34939 385.860436 157.52008 389.116172 154.264344 
C 392.371908 151.008608 394.201218 146.592263 394.201218 141.987957 
C 394.201218 137.383651 392.371908 132.967305 389.116172 129.711569 
C 385.860436 126.455833 381.444091 124.626523 376.839785 124.626523 
C 372.235479 124.626523 367.819133 126.455833 364.563397 129.711569 
C 361.307661 132.967305 359.478351 137.383651 359.478351 141.987957 
C 359.478351 146.592263 361.307661 151.008608 364.563397 154.264344 
C 367.819133 157.52008 372.235479 159.34939 376.839785 159.34939 
z
" clip-path="url(#p1ba4328fe2)" style="fill: #ff0000; opacity: 0.2"/>
   </g>
   <g id="patch_17">
    <path d="M 302.645896 226.56356 
C 307.250202 226.56356 311.666547 224.73425 314.922283 221.478514 
C 318.178019 218.222778 320.007329 213.806433 320.007329 209.202127 
C 320.007329 204.597821 318.178019 200.181475 314.922283 196.925739 
C 311.666547 193.670003 307.250202 191.840693 302.645896 191.840693 
C 298.04159 191.840693 293.625244 193.670003 290.369508 196.925739 
C 287.113772 200.181475 285.284462 204.597821 285.284462 209.202127 
C 285.284462 213.806433 287.113772 218.222778 290.369508 221.478514 
C 293.625244 224.73425 298.04159 226.56356 302.645896 226.56356 
z
" clip-path="url(#p1ba4328fe2)" style="fill: #ff0000; opacity: 0.2"/>
   </g>
   <g id="patch_18">
    <path d="M 303.136493 243.918061 
C 307.740799 243.918061 312.157145 242.088751 315.412881 238.833015 
C 318.668617 235.577279 320.497927 231.160933 320.497927 226.556627 
C 320.497927 221.952321 318.668617 217.535976 315.412881 214.28024 
C 312.157145 211.024504 307.740799 209.195194 303.136493 209.195194 
C 298.532187 209.195194 294.115842 211.024504 290.860106 214.28024 
C 287.60437 217.535976 285.77506 221.952321 285.77506 226.556627 
C 285.77506 231.160933 287.60437 235.577279 290.860106 238.833015 
C 294.115842 242.088751 298.532187 243.918061 303.136493 243.918061 
z
" clip-path="url(#p1ba4328fe2)" style="fill: #ff0000; opacity: 0.2"/>
   </g>
   <g id="patch_19">
    <path d="M 367.431386 301.628549 
C 372.035692 301.628549 376.452037 299.799239 379.707773 296.543503 
C 382.963509 293.287767 384.792819 288.871421 384.792819 284.267115 
C 384.792819 279.662809 382.963509 275.246464 379.707773 271.990728 
C 376.452037 268.734992 372.035692 266.905681 367.431386 266.905681 
C 362.82708 266.905681 358.410734 268.734992 355.154998 271.990728 
C 351.899262 275.246464 350.069952 279.662809 350.069952 284.267115 
C 350.069952 288.871421 351.899262 293.287767 355.154998 296.543503 
C 358.410734 299.799239 362.82708 301.628549 367.431386 301.628549 
z
" clip-path="url(#p1ba4328fe2)" style="fill: #ff0000; opacity: 0.2"/>
   </g>
   <g id="patch_20">
    <path d="M 421.372847 294.276331 
C 425.977153 294.276331 430.393498 292.447021 433.649234 289.191285 
C 436.90497 285.935549 438.73428 281.519204 438.73428 276.914898 
C 438.73428 272.310592 436.90497 267.894246 433.649234 264.63851 
C 430.393498 261.382774 425.977153 259.553464 421.372847 259.553464 
C 416.768541 259.553464 412.352195 261.382774 409.096459 264.63851 
C 405.840723 267.894246 404.011413 272.310592 404.011413 276.914898 
C 404.011413 281.519204 405.840723 285.935549 409.096459 289.191285 
C 412.352195 292.447021 416.768541 294.276331 421.372847 294.276331 
z
" clip-path="url(#p1ba4328fe2)" style="fill: #ff0000; opacity: 0.2"/>
   </g>
   <g id="patch_21">
    <path d="M 319.989186 245.566168 
C 324.593492 245.566168 329.009837 243.736858 332.265573 240.481122 
C 335.521309 237.225386 337.350619 232.809041 337.350619 228.204735 
C 337.350619 223.600429 335.521309 219.184083 332.265573 215.928347 
C 329.009837 212.672611 324.593492 210.843301 319.989186 210.843301 
C 315.38488 210.843301 310.968534 212.672611 307.712798 215.928347 
C 304.457062 219.184083 302.627752 223.600429 302.627752 228.204735 
C 302.627752 232.809041 304.457062 237.225386 307.712798 240.481122 
C 310.968534 243.736858 315.38488 245.566168 319.989186 245.566168 
L 319.989186 245.566168 
z
" clip-path="url(#p1ba4328fe2)" style="fill: none; stroke: #ff0000; stroke-width: 2; stroke-linejoin: miter"/>
   </g>
   <g id="patch_22">
    <path d="M 305.685412 178.893009 
C 310.289718 178.893009 314.706064 177.063699 317.9618 173.807963 
C 321.217536 170.552227 323.046846 166.135881 323.046846 161.531575 
C 323.046846 156.927269 321.217536 152.510924 317.9618 149.255188 
C 314.706064 145.999452 310.289718 144.170142 305.685412 144.170142 
C 301.081106 144.170142 296.664761 145.999452 293.409025 149.255188 
C 290.153289 152.510924 288.323979 156.927269 288.323979 161.531575 
C 288.323979 166.135881 290.153289 170.552227 293.409025 173.807963 
C 296.664761 177.063699 301.081106 178.893009 305.685412 178.893009 
L 305.685412 178.893009 
z
" clip-path="url(#p1ba4328fe2)" style="fill: none; stroke: #ff0000; stroke-width: 2; stroke-linejoin: miter"/>
   </g>
   <g id="patch_23">
    <path d="M 228.713654 112.736587 
C 233.31796 112.736587 237.734305 110.907277 240.990041 107.651541 
C 244.245777 104.395805 246.075088 99.97946 246.075088 95.375154 
C 246.075088 90.770848 244.245777 86.354502 240.990041 83.098766 
C 237.734305 79.84303 233.31796 78.01372 228.713654 78.01372 
C 224.109348 78.01372 219.693002 79.84303 216.437266 83.098766 
C 213.18153 86.354502 211.35222 90.770848 211.35222 95.375154 
C 211.35222 99.97946 213.18153 104.395805 216.437266 107.651541 
C 219.693002 110.907277 224.109348 112.736587 228.713654 112.736587 
L 228.713654 112.736587 
z
" clip-path="url(#p1ba4328fe2)" style="fill: none; stroke: #ff0000; stroke-width: 2; stroke-linejoin: miter"/>
   </g>
   <g id="patch_24">
    <path d="M 182.432852 108.006809 
C 187.037158 108.006809 191.453504 106.177499 194.70924 102.921763 
C 197.964976 99.666027 199.794286 95.249681 199.794286 90.645375 
C 199.794286 86.041069 197.964976 81.624724 194.70924 78.368988 
C 191.453504 75.113252 187.037158 73.283942 182.432852 73.283942 
C 177.828546 73.283942 173.412201 75.113252 170.156465 78.368988 
C 166.900729 81.624724 165.071419 86.041069 165.071419 90.645375 
C 165.071419 95.249681 166.900729 99.666027 170.156465 102.921763 
C 173.412201 106.177499 177.828546 108.006809 182.432852 108.006809 
L 182.432852 108.006809 
z
" clip-path="url(#p1ba4328fe2)" style="fill: none; stroke: #ff0000; stroke-width: 2; stroke-linejoin: miter"/>
   </g>
   <g id="patch_25">
    <path d="M 181.721544 128.506127 
C 186.325851 128.506127 190.742196 126.676817 193.997932 123.421081 
C 197.253668 120.165345 199.082978 115.749 199.082978 111.144693 
C 199.082978 106.540387 197.253668 102.124042 193.997932 98.868306 
C 190.742196 95.61257 186.325851 93.78326 181.721544 93.78326 
C 177.117238 93.78326 172.700893 95.61257 169.445157 98.868306 
C 166.189421 102.124042 164.360111 106.540387 164.360111 111.144693 
C 164.360111 115.749 166.189421 120.165345 169.445157 123.421081 
C 172.700893 126.676817 177.117238 128.506127 181.721544 128.506127 
L 181.721544 128.506127 
z
" clip-path="url(#p1ba4328fe2)" style="fill: none; stroke: #ff0000; stroke-width: 2; stroke-linejoin: miter"/>
   </g>
   <g id="patch_26">
    <path d="M 109.673019 176.873296 
C 114.277325 176.873296 118.69367 175.043986 121.949406 171.788249 
C 125.205142 168.532513 127.034452 164.116168 127.034452 159.511862 
C 127.034452 154.907556 125.205142 150.491211 121.949406 147.235475 
C 118.69367 143.979739 114.277325 142.150428 109.673019 142.150428 
C 105.068713 142.150428 100.652367 143.979739 97.396631 147.235475 
C 94.140895 150.491211 92.311585 154.907556 92.311585 159.511862 
C 92.311585 164.116168 94.140895 168.532513 97.396631 171.788249 
C 100.652367 175.043986 105.068713 176.873296 109.673019 176.873296 
L 109.673019 176.873296 
z
" clip-path="url(#p1ba4328fe2)" style="fill: none; stroke: #ff0000; stroke-width: 2; stroke-linejoin: miter"/>
   </g>
   <g id="patch_27">
    <path d="M 79.272017 221.282285 
C 83.876323 221.282285 88.292668 219.452975 91.548404 216.197239 
C 94.80414 212.941503 96.63345 208.525157 96.63345 203.920851 
C 96.63345 199.316545 94.80414 194.9002 91.548404 191.644464 
C 88.292668 188.388728 83.876323 186.559417 79.272017 186.559417 
C 74.66771 186.559417 70.251365 188.388728 66.995629 191.644464 
C 63.739893 194.9002 61.910583 199.316545 61.910583 203.920851 
C 61.910583 208.525157 63.739893 212.941503 66.995629 216.197239 
C 70.251365 219.452975 74.66771 221.282285 79.272017 221.282285 
L 79.272017 221.282285 
z
" clip-path="url(#p1ba4328fe2)" style="fill: none; stroke: #ff0000; stroke-width: 2; stroke-linejoin: miter"/>
   </g>
   <g id="patch_28">
    <path d="M 100.873408 294.586657 
C 105.477714 294.586657 109.894059 292.757347 113.149795 289.501611 
C 116.405531 286.245875 118.234842 281.829529 118.234842 277.225223 
C 118.234842 272.620917 116.405531 268.204572 113.149795 264.948836 
C 109.894059 261.6931 105.477714 259.86379 100.873408 259.86379 
C 96.269102 259.86379 91.852757 261.6931 88.597021 264.948836 
C 85.341284 268.204572 83.511974 272.620917 83.511974 277.225223 
C 83.511974 281.829529 85.341284 286.245875 88.597021 289.501611 
C 91.852757 292.757347 96.269102 294.586657 100.873408 294.586657 
L 100.873408 294.586657 
z
" clip-path="url(#p1ba4328fe2)" style="fill: none; stroke: #ff0000; stroke-width: 2; stroke-linejoin: miter"/>
   </g>
   <g id="patch_29">
    <path d="M 116.235816 318.744644 
C 120.840122 318.744644 125.256468 316.915333 128.512204 313.659597 
C 131.76794 310.403861 133.59725 305.987516 133.59725 301.38321 
C 133.59725 296.778904 131.76794 292.362559 128.512204 289.106822 
C 125.256468 285.851086 120.840122 284.021776 116.235816 284.021776 
C 111.63151 284.021776 107.215165 285.851086 103.959429 289.106822 
C 100.703693 292.362559 98.874382 296.778904 98.874382 301.38321 
C 98.874382 305.987516 100.703693 310.403861 103.959429 313.659597 
C 107.215165 316.915333 111.63151 318.744644 116.235816 318.744644 
L 116.235816 318.744644 
z
" clip-path="url(#p1ba4328fe2)" style="fill: none; stroke: #ff0000; stroke-width: 2; stroke-linejoin: miter"/>
   </g>
   <g id="patch_30">
    <path d="M 208.954343 348.016058 
C 213.558649 348.016058 217.974995 346.186748 221.230731 342.931012 
C 224.486467 339.675276 226.315777 335.258931 226.315777 330.654625 
C 226.315777 326.050319 224.486467 321.633973 221.230731 318.378237 
C 217.974995 315.122501 213.558649 313.293191 208.954343 313.293191 
C 204.350037 313.293191 199.933692 315.122501 196.677956 318.378237 
C 193.42222 321.633973 191.59291 326.050319 191.59291 330.654625 
C 191.59291 335.258931 193.42222 339.675276 196.677956 342.931012 
C 199.933692 346.186748 204.350037 348.016058 208.954343 348.016058 
L 208.954343 348.016058 
z
" clip-path="url(#p1ba4328fe2)" style="fill: none; stroke: #ff0000; stroke-width: 2; stroke-linejoin: miter"/>
   </g>
   <g id="patch_31">
    <path d="M 262.416269 339.311417 
C 267.020576 339.311417 271.436921 337.482107 274.692657 334.226371 
C 277.948393 330.970635 279.777703 326.55429 279.777703 321.949984 
C 279.777703 317.345678 277.948393 312.929332 274.692657 309.673596 
C 271.436921 306.41786 267.020576 304.58855 262.416269 304.58855 
C 257.811963 304.58855 253.395618 306.41786 250.139882 309.673596 
C 246.884146 312.929332 245.054836 317.345678 245.054836 321.949984 
C 245.054836 326.55429 246.884146 330.970635 250.139882 334.226371 
C 253.395618 337.482107 257.811963 339.311417 262.416269 339.311417 
L 262.416269 339.311417 
z
" clip-path="url(#p1ba4328fe2)" style="fill: none; stroke: #ff0000; stroke-width: 2; stroke-linejoin: miter"/>
   </g>
   <g id="patch_32">
    <path d="M 316.327618 267.121162 
C 320.931924 267.121162 325.348269 265.291852 328.604005 262.036116 
C 331.859741 258.78038 333.689051 254.364035 333.689051 249.759729 
C 333.689051 245.155423 331.859741 240.739077 328.604005 237.483341 
C 325.348269 234.227605 320.931924 232.398295 316.327618 232.398295 
C 311.723312 232.398295 307.306966 234.227605 304.05123 237.483341 
C 300.795494 240.739077 298.966184 245.155423 298.966184 249.759729 
C 298.966184 254.364035 300.795494 258.78038 304.05123 262.036116 
C 307.306966 265.291852 311.723312 267.121162 316.327618 267.121162 
L 316.327618 267.121162 
z
" clip-path="url(#p1ba4328fe2)" style="fill: none; stroke: #ff0000; stroke-width: 2; stroke-linejoin: miter"/>
   </g>
   <g id="patch_33">
    <path d="M 446.865767 229.507228 
C 451.470073 229.507228 455.886418 227.677918 459.142154 224.422182 
C 462.39789 221.166446 464.2272 216.7501 464.2272 212.145794 
C 464.2272 207.541488 462.39789 203.125143 459.142154 199.869407 
C 455.886418 196.613671 451.470073 194.78436 446.865767 194.78436 
C 442.261461 194.78436 437.845115 196.613671 434.589379 199.869407 
C 431.333643 203.125143 429.504333 207.541488 429.504333 212.145794 
C 429.504333 216.7501 431.333643 221.166446 434.589379 224.422182 
C 437.845115 227.677918 442.261461 229.507228 446.865767 229.507228 
L 446.865767 229.507228 
z
" clip-path="url(#p1ba4328fe2)" style="fill: none; stroke: #ff0000; stroke-width: 2; stroke-linejoin: miter"/>
   </g>
   <g id="patch_34">
    <path d="M 421.017198 169.966817 
C 425.621504 169.966817 430.037849 168.137507 433.293585 164.881771 
C 436.549321 161.626035 438.378631 157.20969 438.378631 152.605383 
C 438.378631 148.001077 436.549321 143.584732 433.293585 140.328996 
C 430.037849 137.07326 425.621504 135.24395 421.017198 135.24395 
C 416.412892 135.24395 411.996546 137.07326 408.74081 140.328996 
C 405.485074 143.584732 403.655764 148.001077 403.655764 152.605383 
C 403.655764 157.20969 405.485074 161.626035 408.74081 164.881771 
C 411.996546 168.137507 416.412892 169.966817 421.017198 169.966817 
L 421.017198 169.966817 
z
" clip-path="url(#p1ba4328fe2)" style="fill: none; stroke: #ff0000; stroke-width: 2; stroke-linejoin: miter"/>
   </g>
   <g id="patch_35">
    <path d="M 376.839785 159.34939 
C 381.444091 159.34939 385.860436 157.52008 389.116172 154.264344 
C 392.371908 151.008608 394.201218 146.592263 394.201218 141.987957 
C 394.201218 137.383651 392.371908 132.967305 389.116172 129.711569 
C 385.860436 126.455833 381.444091 124.626523 376.839785 124.626523 
C 372.235479 124.626523 367.819133 126.455833 364.563397 129.711569 
C 361.307661 132.967305 359.478351 137.383651 359.478351 141.987957 
C 359.478351 146.592263 361.307661 151.008608 364.563397 154.264344 
C 367.819133 157.52008 372.235479 159.34939 376.839785 159.34939 
L 376.839785 159.34939 
z
" clip-path="url(#p1ba4328fe2)" style="fill: none; stroke: #ff0000; stroke-width: 2; stroke-linejoin: miter"/>
   </g>
   <g id="patch_36">
    <path d="M 302.645896 226.56356 
C 307.250202 226.56356 311.666547 224.73425 314.922283 221.478514 
C 318.178019 218.222778 320.007329 213.806433 320.007329 209.202127 
C 320.007329 204.597821 318.178019 200.181475 314.922283 196.925739 
C 311.666547 193.670003 307.250202 191.840693 302.645896 191.840693 
C 298.04159 191.840693 293.625244 193.670003 290.369508 196.925739 
C 287.113772 200.181475 285.284462 204.597821 285.284462 209.202127 
C 285.284462 213.806433 287.113772 218.222778 290.369508 221.478514 
C 293.625244 224.73425 298.04159 226.56356 302.645896 226.56356 
L 302.645896 226.56356 
z
" clip-path="url(#p1ba4328fe2)" style="fill: none; stroke: #ff0000; stroke-width: 2; stroke-linejoin: miter"/>
   </g>
   <g id="patch_37">
    <path d="M 303.136493 243.918061 
C 307.740799 243.918061 312.157145 242.088751 315.412881 238.833015 
C 318.668617 235.577279 320.497927 231.160933 320.497927 226.556627 
C 320.497927 221.952321 318.668617 217.535976 315.412881 214.28024 
C 312.157145 211.024504 307.740799 209.195194 303.136493 209.195194 
C 298.532187 209.195194 294.115842 211.024504 290.860106 214.28024 
C 287.60437 217.535976 285.77506 221.952321 285.77506 226.556627 
C 285.77506 231.160933 287.60437 235.577279 290.860106 238.833015 
C 294.115842 242.088751 298.532187 243.918061 303.136493 243.918061 
L 303.136493 243.918061 
z
" clip-path="url(#p1ba4328fe2)" style="fill: none; stroke: #ff0000; stroke-width: 2; stroke-linejoin: miter"/>
   </g>
   <g id="patch_38">
    <path d="M 367.431386 301.628549 
C 372.035692 301.628549 376.452037 299.799239 379.707773 296.543503 
C 382.963509 293.287767 384.792819 288.871421 384.792819 284.267115 
C 384.792819 279.662809 382.963509 275.246464 379.707773 271.990728 
C 376.452037 268.734992 372.035692 266.905681 367.431386 266.905681 
C 362.82708 266.905681 358.410734 268.734992 355.154998 271.990728 
C 351.899262 275.246464 350.069952 279.662809 350.069952 284.267115 
C 350.069952 288.871421 351.899262 293.287767 355.154998 296.543503 
C 358.410734 299.799239 362.82708 301.628549 367.431386 301.628549 
L 367.431386 301.628549 
z
" clip-path="url(#p1ba4328fe2)" style="fill: none; stroke: #ff0000; stroke-width: 2; stroke-linejoin: miter"/>
   </g>
   <g id="patch_39">
    <path d="M 421.372847 294.276331 
C 425.977153 294.276331 430.393498 292.447021 433.649234 289.191285 
C 436.90497 285.935549 438.73428 281.519204 438.73428 276.914898 
C 438.73428 272.310592 436.90497 267.894246 433.649234 264.63851 
C 430.393498 261.382774 425.977153 259.553464 421.372847 259.553464 
C 416.768541 259.553464 412.352195 261.382774 409.096459 264.63851 
C 405.840723 267.894246 404.011413 272.310592 404.011413 276.914898 
C 404.011413 281.519204 405.840723 285.935549 409.096459 289.191285 
C 412.352195 292.447021 416.768541 294.276331 421.372847 294.276331 
L 421.372847 294.276331 
z
" clip-path="url(#p1ba4328fe2)" style="fill: none; stroke: #ff0000; stroke-width: 2; stroke-linejoin: miter"/>
   </g>
   <g id="line2d_1">
    <path d="M 319.989186 228.204735 
L 303.136493 226.556627 
" clip-path="url(#p1ba4328fe2)" style="fill: none; stroke: #000000; stroke-width: 2; stroke-linecap: square"/>
   </g>
   <g id="line2d_2">
    <path d="M 302.645896 209.202127 
L 303.136493 226.556627 
" clip-path="url(#p1ba4328fe2)" style="fill: none; stroke: #000000; stroke-width: 2; stroke-linecap: square"/>
   </g>
   <g id="PathCollection_2">
    <defs>
     <path id="m7410e1544d" d="M 0 3 
C 0.795609 3 1.55874 2.683901 2.12132 2.12132 
C 2.683901 1.55874 3 0.795609 3 0 
C 3 -0.795609 2.683901 -1.55874 2.12132 -2.12132 
C 1.55874 -2.683901 0.795609 -3 0 -3 
C -0.795609 -3 -1.55874 -2.683901 -2.12132 -2.12132 
C -2.683901 -1.55874 -3 -0.795609 -3 0 
C -3 0.795609 -2.683901 1.55874 -2.12132 2.12132 
C -1.55874 2.683901 -0.795609 3 0 3 
z
" style="stroke: #0000ff"/>
    </defs>
    <g clip-path="url(#p1ba4328fe2)">
     <use xlink:href="#m7410e1544d" x="319.989186" y="228.204735" style="fill: #0000ff; stroke: #0000ff"/>
     <use xlink:href="#m7410e1544d" x="305.685412" y="161.531575" style="fill: #0000ff; stroke: #0000ff"/>
     <use xlink:href="#m7410e1544d" x="228.713654" y="95.375154" style="fill: #0000ff; stroke: #0000ff"/>
     <use xlink:href="#m7410e1544d" x="182.432852" y="90.645375" style="fill: #0000ff; stroke: #0000ff"/>
     <use xlink:href="#m7410e1544d" x="181.721544" y="111.144693" style="fill: #0000ff; stroke: #0000ff"/>
     <use xlink:href="#m7410e1544d" x="109.673019" y="159.511862" style="fill: #0000ff; stroke: #0000ff"/>
     <use xlink:href="#m7410e1544d" x="79.272017" y="203.920851" style="fill: #0000ff; stroke: #0000ff"/>
     <use xlink:href="#m7410e1544d" x="100.873408" y="277.225223" style="fill: #0000ff; stroke: #0000ff"/>
     <use xlink:href="#m7410e1544d" x="116.235816" y="301.38321" style="fill: #0000ff; stroke: #0000ff"/>
     <use xlink:href="#m7410e1544d" x="208.954343" y="330.654625" style="fill: #0000ff; stroke: #0000ff"/>
     <use xlink:href="#m7410e1544d" x="262.416269" y="321.949984" style="fill: #0000ff; stroke: #0000ff"/>
     <use xlink:href="#m7410e1544d" x="316.327618" y="249.759729" style="fill: #0000ff; stroke: #0000ff"/>
     <use xlink:href="#m7410e1544d" x="446.865767" y="212.145794" style="fill: #0000ff; stroke: #0000ff"/>
     <use xlink:href="#m7410e1544d" x="421.017198" y="152.605383" style="fill: #0000ff; stroke: #0000ff"/>
     <use xlink:href="#m7410e1544d" x="376.839785" y="141.987957" style="fill: #0000ff; stroke: #0000ff"/>
     <use xlink:href="#m7410e1544d" x="302.645896" y="209.202127" style="fill: #0000ff; stroke: #0000ff"/>
     <use xlink:href="#m7410e1544d" x="303.136493" y="226.556627" style="fill: #0000ff; stroke: #0000ff"/>
     <use xlink:href="#m7410e1544d" x="367.431386" y="284.267115" style="fill: #0000ff; stroke: #0000ff"/>
     <use xlink:href="#m7410e1544d" x="421.372847" y="276.914898" style="fill: #0000ff; stroke: #0000ff"/>
    </g>
   </g>
  </g>
  <g id="axes_2">
   <g id="patch_40">
    <path d="M 553.862217 414.1 
L 1065.6 414.1 
L 1065.6 7.2 
L 553.862217 7.2 
z
" style="fill: #ffffff"/>
   </g>
   <g id="matplotlib.axis_1">
    <g id="xtick_1">
     <g id="line2d_3">
      <defs>
       <path id="m5e89a50793" d="M 0 0 
L 0 3.5 
" style="stroke: #000000; stroke-width: 0.8"/>
      </defs>
      <g>
       <use xlink:href="#m5e89a50793" x="567.329001" y="414.1" style="stroke: #000000; stroke-width: 0.8"/>
      </g>
     </g>
    </g>
    <g id="xtick_2">
     <g id="line2d_4">
      <g>
       <use xlink:href="#m5e89a50793" x="594.262568" y="414.1" style="stroke: #000000; stroke-width: 0.8"/>
      </g>
     </g>
    </g>
    <g id="xtick_3">
     <g id="line2d_5">
      <g>
       <use xlink:href="#m5e89a50793" x="621.196136" y="414.1" style="stroke: #000000; stroke-width: 0.8"/>
      </g>
     </g>
    </g>
    <g id="xtick_4">
     <g id="line2d_6">
      <g>
       <use xlink:href="#m5e89a50793" x="648.129703" y="414.1" style="stroke: #000000; stroke-width: 0.8"/>
      </g>
     </g>
    </g>
    <g id="xtick_5">
     <g id="line2d_7">
      <g>
       <use xlink:href="#m5e89a50793" x="675.063271" y="414.1" style="stroke: #000000; stroke-width: 0.8"/>
      </g>
     </g>
    </g>
    <g id="xtick_6">
     <g id="line2d_8">
      <g>
       <use xlink:href="#m5e89a50793" x="701.996838" y="414.1" style="stroke: #000000; stroke-width: 0.8"/>
      </g>
     </g>
    </g>
    <g id="xtick_7">
     <g id="line2d_9">
      <g>
       <use xlink:href="#m5e89a50793" x="728.930406" y="414.1" style="stroke: #000000; stroke-width: 0.8"/>
      </g>
     </g>
    </g>
    <g id="xtick_8">
     <g id="line2d_10">
      <g>
       <use xlink:href="#m5e89a50793" x="755.863973" y="414.1" style="stroke: #000000; stroke-width: 0.8"/>
      </g>
     </g>
    </g>
    <g id="xtick_9">
     <g id="line2d_11">
      <g>
       <use xlink:href="#m5e89a50793" x="782.797541" y="414.1" style="stroke: #000000; stroke-width: 0.8"/>
      </g>
     </g>
    </g>
    <g id="xtick_10">
     <g id="line2d_12">
      <g>
       <use xlink:href="#m5e89a50793" x="809.731108" y="414.1" style="stroke: #000000; stroke-width: 0.8"/>
      </g>
     </g>
    </g>
    <g id="xtick_11">
     <g id="line2d_13">
      <g>
       <use xlink:href="#m5e89a50793" x="836.664676" y="414.1" style="stroke: #000000; stroke-width: 0.8"/>
      </g>
     </g>
    </g>
    <g id="xtick_12">
     <g id="line2d_14">
      <g>
       <use xlink:href="#m5e89a50793" x="863.598243" y="414.1" style="stroke: #000000; stroke-width: 0.8"/>
      </g>
     </g>
    </g>
    <g id="xtick_13">
     <g id="line2d_15">
      <g>
       <use xlink:href="#m5e89a50793" x="890.531811" y="414.1" style="stroke: #000000; stroke-width: 0.8"/>
      </g>
     </g>
    </g>
    <g id="xtick_14">
     <g id="line2d_16">
      <g>
       <use xlink:href="#m5e89a50793" x="917.465379" y="414.1" style="stroke: #000000; stroke-width: 0.8"/>
      </g>
     </g>
    </g>
    <g id="xtick_15">
     <g id="line2d_17">
      <g>
       <use xlink:href="#m5e89a50793" x="944.398946" y="414.1" style="stroke: #000000; stroke-width: 0.8"/>
      </g>
     </g>
    </g>
    <g id="xtick_16">
     <g id="line2d_18">
      <g>
       <use xlink:href="#m5e89a50793" x="971.332514" y="414.1" style="stroke: #000000; stroke-width: 0.8"/>
      </g>
     </g>
    </g>
    <g id="xtick_17">
     <g id="line2d_19">
      <g>
       <use xlink:href="#m5e89a50793" x="998.266081" y="414.1" style="stroke: #000000; stroke-width: 0.8"/>
      </g>
     </g>
    </g>
    <g id="xtick_18">
     <g id="line2d_20">
      <g>
       <use xlink:href="#m5e89a50793" x="1025.199649" y="414.1" style="stroke: #000000; stroke-width: 0.8"/>
      </g>
     </g>
    </g>
    <g id="xtick_19">
     <g id="line2d_21">
      <g>
       <use xlink:href="#m5e89a50793" x="1052.133216" y="414.1" style="stroke: #000000; stroke-width: 0.8"/>
      </g>
     </g>
    </g>
   </g>
   <g id="matplotlib.axis_2">
    <g id="ytick_1">
     <g id="line2d_22">
      <defs>
       <path id="meb0109ea36" d="M 0 0 
L -3.5 0 
" style="stroke: #000000; stroke-width: 0.8"/>
      </defs>
      <g>
       <use xlink:href="#meb0109ea36" x="553.862217" y="352.802549" style="stroke: #000000; stroke-width: 0.8"/>
      </g>
     </g>
     <g id="text_1">
      <!-- $r_{2}$ -->
      <g transform="translate(529.062217 360.400986) scale(0.2 -0.2)">
       <defs>
        <path id="DejaVuSans-Oblique-72" d="M 2853 2969 
Q 2766 3016 2653 3041 
Q 2541 3066 2413 3066 
Q 1953 3066 1609 2717 
Q 1266 2369 1153 1784 
L 800 0 
L 225 0 
L 909 3500 
L 1484 3500 
L 1375 2956 
Q 1603 3259 1920 3421 
Q 2238 3584 2597 3584 
Q 2691 3584 2781 3573 
Q 2872 3563 2963 3538 
L 2853 2969 
z
" transform="scale(0.015625)"/>
        <path id="DejaVuSans-32" d="M 1228 531 
L 3431 531 
L 3431 0 
L 469 0 
L 469 531 
Q 828 903 1448 1529 
Q 2069 2156 2228 2338 
Q 2531 2678 2651 2914 
Q 2772 3150 2772 3378 
Q 2772 3750 2511 3984 
Q 2250 4219 1831 4219 
Q 1534 4219 1204 4116 
Q 875 4013 500 3803 
L 500 4441 
Q 881 4594 1212 4672 
Q 1544 4750 1819 4750 
Q 2544 4750 2975 4387 
Q 3406 4025 3406 3419 
Q 3406 3131 3298 2873 
Q 3191 2616 2906 2266 
Q 2828 2175 2409 1742 
Q 1991 1309 1228 531 
z
" transform="scale(0.015625)"/>
       </defs>
       <use xlink:href="#DejaVuSans-Oblique-72"/>
       <use xlink:href="#DejaVuSans-32" transform="translate(41.113281 -16.40625) scale(0.7)"/>
      </g>
     </g>
    </g>
   </g>
   <g id="line2d_23">
    <path d="M 890.531811 414.1 
L 890.531811 354.314891 
L 917.465379 354.314891 
L 917.465379 414.1 
" clip-path="url(#pd46bed2876)" style="fill: none; stroke: #ff0000; stroke-width: 5; stroke-linecap: square"/>
   </g>
   <g id="line2d_24">
    <path d="M 863.598243 414.1 
L 863.598243 352.802549 
L 903.998595 352.802549 
L 903.998595 354.314891 
" clip-path="url(#pd46bed2876)" style="fill: none; stroke: #ff0000; stroke-width: 5; stroke-linecap: square"/>
   </g>
   <g id="line2d_25">
    <path d="M 594.262568 414.1 
L 594.262568 352.802549 
" clip-path="url(#pd46bed2876)" style="fill: none; stroke: #ff0000; stroke-width: 5; stroke-linecap: square"/>
   </g>
   <g id="line2d_26">
    <path d="M 621.196136 414.1 
L 621.196136 352.802549 
" clip-path="url(#pd46bed2876)" style="fill: none; stroke: #ff0000; stroke-width: 5; stroke-linecap: square"/>
   </g>
   <g id="line2d_27">
    <path d="M 567.329001 414.1 
L 567.329001 352.802549 
" clip-path="url(#pd46bed2876)" style="fill: none; stroke: #ff0000; stroke-width: 5; stroke-linecap: square"/>
   </g>
   <g id="line2d_28">
    <path d="M 648.129703 414.1 
L 648.129703 352.802549 
" clip-path="url(#pd46bed2876)" style="fill: none; stroke: #ff0000; stroke-width: 5; stroke-linecap: square"/>
   </g>
   <g id="line2d_29">
    <path d="M 675.063271 414.1 
L 675.063271 352.802549 
" clip-path="url(#pd46bed2876)" style="fill: none; stroke: #ff0000; stroke-width: 5; stroke-linecap: square"/>
   </g>
   <g id="line2d_30">
    <path d="M 701.996838 414.1 
L 701.996838 352.802549 
" clip-path="url(#pd46bed2876)" style="fill: none; stroke: #ff0000; stroke-width: 5; stroke-linecap: square"/>
   </g>
   <g id="line2d_31">
    <path d="M 728.930406 414.1 
L 728.930406 352.802549 
" clip-path="url(#pd46bed2876)" style="fill: none; stroke: #ff0000; stroke-width: 5; stroke-linecap: square"/>
   </g>
   <g id="line2d_32">
    <path d="M 755.863973 414.1 
L 755.863973 352.802549 
" clip-path="url(#pd46bed2876)" style="fill: none; stroke: #ff0000; stroke-width: 5; stroke-linecap: square"/>
   </g>
   <g id="line2d_33">
    <path d="M 782.797541 414.1 
L 782.797541 352.802549 
" clip-path="url(#pd46bed2876)" style="fill: none; stroke: #ff0000; stroke-width: 5; stroke-linecap: square"/>
   </g>
   <g id="line2d_34">
    <path d="M 836.664676 414.1 
L 836.664676 352.802549 
" clip-path="url(#pd46bed2876)" style="fill: none; stroke: #ff0000; stroke-width: 5; stroke-linecap: square"/>
   </g>
   <g id="line2d_35">
    <path d="M 809.731108 414.1 
L 809.731108 352.802549 
" clip-path="url(#pd46bed2876)" style="fill: none; stroke: #ff0000; stroke-width: 5; stroke-linecap: square"/>
   </g>
   <g id="line2d_36">
    <path d="M 944.398946 414.1 
L 944.398946 352.802549 
" clip-path="url(#pd46bed2876)" style="fill: none; stroke: #ff0000; stroke-width: 5; stroke-linecap: square"/>
   </g>
   <g id="line2d_37">
    <path d="M 971.332514 414.1 
L 971.332514 352.802549 
" clip-path="url(#pd46bed2876)" style="fill: none; stroke: #ff0000; stroke-width: 5; stroke-linecap: square"/>
   </g>
   <g id="line2d_38">
    <path d="M 1025.199649 414.1 
L 1025.199649 352.802549 
" clip-path="url(#pd46bed2876)" style="fill: none; stroke: #ff0000; stroke-width: 5; stroke-linecap: square"/>
   </g>
   <g id="line2d_39">
    <path d="M 1052.133216 414.1 
L 1052.133216 352.802549 
" clip-path="url(#pd46bed2876)" style="fill: none; stroke: #ff0000; stroke-width: 5; stroke-linecap: square"/>
   </g>
   <g id="line2d_40">
    <path d="M 998.266081 414.1 
L 998.266081 352.802549 
" clip-path="url(#pd46bed2876)" style="fill: none; stroke: #ff0000; stroke-width: 5; stroke-linecap: square"/>
   </g>
   <g id="line2d_41">
    <path d="M 883.798419 352.802549 
L 883.798419 352.802549 
" clip-path="url(#pd46bed2876)" style="fill: none; stroke: #ff0000; stroke-width: 5; stroke-linecap: square"/>
   </g>
   <g id="patch_41">
    <path d="M 553.862217 414.1 
L 553.862217 7.2 
" style="fill: none; stroke: #000000; stroke-width: 0.8; stroke-linejoin: miter; stroke-linecap: square"/>
   </g>
   <g id="patch_42">
    <path d="M 1065.6 414.1 
L 1065.6 7.2 
" style="fill: none; stroke: #000000; stroke-width: 0.8; stroke-linejoin: miter; stroke-linecap: square"/>
   </g>
   <g id="patch_43">
    <path d="M 553.862217 414.1 
L 1065.6 414.1 
" style="fill: none; stroke: #000000; stroke-width: 0.8; stroke-linejoin: miter; stroke-linecap: square"/>
   </g>
   <g id="patch_44">
    <path d="M 553.862217 7.2 
L 1065.6 7.2 
" style="fill: none; stroke: #000000; stroke-width: 0.8; stroke-linejoin: miter; stroke-linecap: square"/>
   </g>
   <g id="PathCollection_3">
    <defs>
     <path id="mad5ff1c5af" d="M 0 6.123724 
C 1.624031 6.123724 3.181764 5.47849 4.330127 4.330127 
C 5.47849 3.181764 6.123724 1.624031 6.123724 0 
C 6.123724 -1.624031 5.47849 -3.181764 4.330127 -4.330127 
C 3.181764 -5.47849 1.624031 -6.123724 0 -6.123724 
C -1.624031 -6.123724 -3.181764 -5.47849 -4.330127 -4.330127 
C -5.47849 -3.181764 -6.123724 -1.624031 -6.123724 0 
C -6.123724 1.624031 -5.47849 3.181764 -4.330127 4.330127 
C -3.181764 5.47849 -1.624031 6.123724 0 6.123724 
z
" style="stroke: #0000ff"/>
    </defs>
    <g clip-path="url(#pd46bed2876)">
     <use xlink:href="#mad5ff1c5af" x="567.329001" y="414.1" style="fill: #0000ff; stroke: #0000ff"/>
     <use xlink:href="#mad5ff1c5af" x="594.262568" y="414.1" style="fill: #0000ff; stroke: #0000ff"/>
     <use xlink:href="#mad5ff1c5af" x="621.196136" y="414.1" style="fill: #0000ff; stroke: #0000ff"/>
     <use xlink:href="#mad5ff1c5af" x="648.129703" y="414.1" style="fill: #0000ff; stroke: #0000ff"/>
     <use xlink:href="#mad5ff1c5af" x="675.063271" y="414.1" style="fill: #0000ff; stroke: #0000ff"/>
     <use xlink:href="#mad5ff1c5af" x="701.996838" y="414.1" style="fill: #0000ff; stroke: #0000ff"/>
     <use xlink:href="#mad5ff1c5af" x="728.930406" y="414.1" style="fill: #0000ff; stroke: #0000ff"/>
     <use xlink:href="#mad5ff1c5af" x="755.863973" y="414.1" style="fill: #0000ff; stroke: #0000ff"/>
     <use xlink:href="#mad5ff1c5af" x="782.797541" y="414.1" style="fill: #0000ff; stroke: #0000ff"/>
     <use xlink:href="#mad5ff1c5af" x="809.731108" y="414.1" style="fill: #0000ff; stroke: #0000ff"/>
     <use xlink:href="#mad5ff1c5af" x="836.664676" y="414.1" style="fill: #0000ff; stroke: #0000ff"/>
     <use xlink:href="#mad5ff1c5af" x="863.598243" y="414.1" style="fill: #0000ff; stroke: #0000ff"/>
     <use xlink:href="#mad5ff1c5af" x="890.531811" y="414.1" style="fill: #0000ff; stroke: #0000ff"/>
     <use xlink:href="#mad5ff1c5af" x="917.465379" y="414.1" style="fill: #0000ff; stroke: #0000ff"/>
     <use xlink:href="#mad5ff1c5af" x="944.398946" y="414.1" style="fill: #0000ff; stroke: #0000ff"/>
     <use xlink:href="#mad5ff1c5af" x="971.332514" y="414.1" style="fill: #0000ff; stroke: #0000ff"/>
     <use xlink:href="#mad5ff1c5af" x="998.266081" y="414.1" style="fill: #0000ff; stroke: #0000ff"/>
     <use xlink:href="#mad5ff1c5af" x="1025.199649" y="414.1" style="fill: #0000ff; stroke: #0000ff"/>
     <use xlink:href="#mad5ff1c5af" x="1052.133216" y="414.1" style="fill: #0000ff; stroke: #0000ff"/>
    </g>
   </g>
  </g>
 </g>
 <defs>
  <clipPath id="p1ba4328fe2">
   <rect x="7.2" y="18.573359" width="511.737783" height="384.153283"/>
  </clipPath>
  <clipPath id="pd46bed2876">
   <rect x="553.862217" y="7.2" width="511.737783" height="406.9"/>
  </clipPath>
 </defs>
</svg>
