<?xml version="1.0" encoding="utf-8" standalone="no"?>
<!DOCTYPE svg PUBLIC "-//W3C//DTD SVG 1.1//EN"
  "http://www.w3.org/Graphics/SVG/1.1/DTD/svg11.dtd">
<svg xmlns:xlink="http://www.w3.org/1999/xlink" width="1072.8pt" height="424.8pt" viewBox="0 0 1072.8 424.8" xmlns="http://www.w3.org/2000/svg" version="1.1">
 <metadata>
  <rdf:RDF xmlns:dc="http://purl.org/dc/elements/1.1/" xmlns:cc="http://creativecommons.org/ns#" xmlns:rdf="http://www.w3.org/1999/02/22-rdf-syntax-ns#">
   <cc:Work>
    <dc:type rdf:resource="http://purl.org/dc/dcmitype/StillImage"/>
    <dc:date>2023-10-24T09:47:32.277149</dc:date>
    <dc:format>image/svg+xml</dc:format>
    <dc:creator>
     <cc:Agent>
      <dc:title>Matplotlib v3.7.2, https://matplotlib.org/</dc:title>
     </cc:Agent>
    </dc:creator>
   </cc:Work>
  </rdf:RDF>
 </metadata>
 <defs>
  <style type="text/css">*{stroke-linejoin: round; stroke-linecap: butt}</style>
 </defs>
 <g id="figure_1">
  <g id="patch_1">
   <path d="M 0 424.8 
L 1072.8 424.8 
L 1072.8 -0 
L 0 -0 
z
" style="fill: #ffffff"/>
  </g>
  <g id="axes_1">
   <g id="PathCollection_1">
    <defs>
     <path id="m7d0653782e" d="M 0 3 
C 0.795609 3 1.55874 2.683901 2.12132 2.12132 
C 2.683901 1.55874 3 0.795609 3 0 
C 3 -0.795609 2.683901 -1.55874 2.12132 -2.12132 
C 1.55874 -2.683901 0.795609 -3 0 -3 
C -0.795609 -3 -1.55874 -2.683901 -2.12132 -2.12132 
C -2.683901 -1.55874 -3 -0.795609 -3 0 
C -3 0.795609 -2.683901 1.55874 -2.12132 2.12132 
C -1.55874 2.683901 -0.795609 3 0 3 
z
" style="stroke: #1f77b4; stroke-opacity: 0"/>
    </defs>
    <g clip-path="url(#p07ce89b321)">
     <use xlink:href="#m7d0653782e" x="7.2" y="400.972233" style="fill: #1f77b4; fill-opacity: 0; stroke: #1f77b4; stroke-opacity: 0"/>
     <use xlink:href="#m7d0653782e" x="514.263624" y="20.327767" style="fill: #1f77b4; fill-opacity: 0; stroke: #1f77b4; stroke-opacity: 0"/>
    </g>
   </g>
   <g id="patch_2">
    <path d="M 317.132202 328.61278 
C 343.80325 328.61278 369.385512 318.01626 388.244791 299.156981 
C 407.10407 280.297702 417.70059 254.71544 417.70059 228.044392 
C 417.70059 201.373343 407.10407 175.791082 388.244791 156.931802 
C 369.385512 138.072523 343.80325 127.476004 317.132202 127.476004 
C 290.461154 127.476004 264.878892 138.072523 246.019613 156.931802 
C 227.160334 175.791082 216.563814 201.373343 216.563814 228.044392 
C 216.563814 254.71544 227.160334 280.297702 246.019613 299.156981 
C 264.878892 318.01626 290.461154 328.61278 317.132202 328.61278 
z
" clip-path="url(#p07ce89b321)" style="fill: #ff0000; opacity: 0.2"/>
   </g>
   <g id="patch_3">
    <path d="M 302.959077 262.548606 
C 329.630126 262.548606 355.212388 251.952086 374.071667 233.092807 
C 392.930946 214.233528 403.527466 188.651266 403.527466 161.980218 
C 403.527466 135.30917 392.930946 109.726908 374.071667 90.867629 
C 355.212388 72.00835 329.630126 61.41183 302.959077 61.41183 
C 276.288029 61.41183 250.705767 72.00835 231.846488 90.867629 
C 212.987209 109.726908 202.390689 135.30917 202.390689 161.980218 
C 202.390689 188.651266 212.987209 214.233528 231.846488 233.092807 
C 250.705767 251.952086 276.288029 262.548606 302.959077 262.548606 
z
" clip-path="url(#p07ce89b321)" style="fill: #ff0000; opacity: 0.2"/>
   </g>
   <g id="patch_4">
    <path d="M 226.690371 196.99645 
C 253.36142 196.99645 278.943681 186.39993 297.80296 167.540651 
C 316.66224 148.681372 327.258759 123.09911 327.258759 96.428062 
C 327.258759 69.757014 316.66224 44.174752 297.80296 25.315473 
C 278.943681 6.456194 253.36142 -4.140326 226.690371 -4.140326 
C 200.019323 -4.140326 174.437061 6.456194 155.577782 25.315473 
C 136.718503 44.174752 126.121983 69.757014 126.121983 96.428062 
C 126.121983 123.09911 136.718503 148.681372 155.577782 167.540651 
C 174.437061 186.39993 200.019323 196.99645 226.690371 196.99645 
z
" clip-path="url(#p07ce89b321)" style="fill: #ff0000; opacity: 0.2"/>
   </g>
   <g id="patch_5">
    <path d="M 180.832294 192.309873 
C 207.503342 192.309873 233.085604 181.713353 251.944883 162.854074 
C 270.804162 143.994795 281.400682 118.412533 281.400682 91.741485 
C 281.400682 65.070437 270.804162 39.488175 251.944883 20.628896 
C 233.085604 1.769617 207.503342 -8.826903 180.832294 -8.826903 
C 154.161245 -8.826903 128.578984 1.769617 109.719705 20.628896 
C 90.860425 39.488175 80.263906 65.070437 80.263906 91.741485 
C 80.263906 118.412533 90.860425 143.994795 109.719705 162.854074 
C 128.578984 181.713353 154.161245 192.309873 180.832294 192.309873 
z
" clip-path="url(#p07ce89b321)" style="fill: #ff0000; opacity: 0.2"/>
   </g>
   <g id="patch_6">
    <path d="M 180.127483 212.621953 
C 206.798531 212.621953 232.380793 202.025433 251.240072 183.166154 
C 270.099351 164.306875 280.695871 138.724613 280.695871 112.053565 
C 280.695871 85.382516 270.099351 59.800254 251.240072 40.940975 
C 232.380793 22.081696 206.798531 11.485176 180.127483 11.485176 
C 153.456435 11.485176 127.874173 22.081696 109.014894 40.940975 
C 90.155615 59.800254 79.559095 85.382516 79.559095 112.053565 
C 79.559095 138.724613 90.155615 164.306875 109.014894 183.166154 
C 127.874173 202.025433 153.456435 212.621953 180.127483 212.621953 
z
" clip-path="url(#p07ce89b321)" style="fill: #ff0000; opacity: 0.2"/>
   </g>
   <g id="patch_7">
    <path d="M 108.737041 260.547341 
C 135.408089 260.547341 160.990351 249.950821 179.84963 231.091542 
C 198.708909 212.232263 209.305429 186.650001 209.305429 159.978952 
C 209.305429 133.307904 198.708909 107.725642 179.84963 88.866363 
C 160.990351 70.007084 135.408089 59.410564 108.737041 59.410564 
C 82.065992 59.410564 56.483731 70.007084 37.624452 88.866363 
C 18.765172 107.725642 8.168653 133.307904 8.168653 159.978952 
C 8.168653 186.650001 18.765172 212.232263 37.624452 231.091542 
C 56.483731 249.950821 82.065992 260.547341 108.737041 260.547341 
z
" clip-path="url(#p07ce89b321)" style="fill: #ff0000; opacity: 0.2"/>
   </g>
   <g id="patch_8">
    <path d="M 78.613718 304.550703 
C 105.284767 304.550703 130.867028 293.954183 149.726307 275.094904 
C 168.585587 256.235625 179.182106 230.653363 179.182106 203.982314 
C 179.182106 177.311266 168.585587 151.729004 149.726307 132.869725 
C 130.867028 114.010446 105.284767 103.413926 78.613718 103.413926 
C 51.94267 103.413926 26.360408 114.010446 7.501129 132.869725 
C -11.35815 151.729004 -21.95467 177.311266 -21.95467 203.982314 
C -21.95467 230.653363 -11.35815 256.235625 7.501129 275.094904 
C 26.360408 293.954183 51.94267 304.550703 78.613718 304.550703 
z
" clip-path="url(#p07ce89b321)" style="fill: #ff0000; opacity: 0.2"/>
   </g>
   <g id="patch_9">
    <path d="M 100.017805 377.18552 
C 126.688853 377.18552 152.271115 366.589001 171.130394 347.729722 
C 189.989673 328.870442 200.586193 303.288181 200.586193 276.617132 
C 200.586193 249.946084 189.989673 224.363822 171.130394 205.504543 
C 152.271115 186.645264 126.688853 176.048744 100.017805 176.048744 
C 73.346757 176.048744 47.764495 186.645264 28.905216 205.504543 
C 10.045936 224.363822 -0.550583 249.946084 -0.550583 276.617132 
C -0.550583 303.288181 10.045936 328.870442 28.905216 347.729722 
C 47.764495 366.589001 73.346757 377.18552 100.017805 377.18552 
z
" clip-path="url(#p07ce89b321)" style="fill: #ff0000; opacity: 0.2"/>
   </g>
   <g id="patch_10">
    <path d="M 115.239894 401.12285 
C 141.910943 401.12285 167.493204 390.526331 186.352484 371.667051 
C 205.211763 352.807772 215.808282 327.225511 215.808282 300.554462 
C 215.808282 273.883414 205.211763 248.301152 186.352484 229.441873 
C 167.493204 210.582594 141.910943 199.986074 115.239894 199.986074 
C 88.568846 199.986074 62.986584 210.582594 44.127305 229.441873 
C 25.268026 248.301152 14.671506 273.883414 14.671506 300.554462 
C 14.671506 327.225511 25.268026 352.807772 44.127305 371.667051 
C 62.986584 390.526331 88.568846 401.12285 115.239894 401.12285 
z
" clip-path="url(#p07ce89b321)" style="fill: #ff0000; opacity: 0.2"/>
   </g>
   <g id="patch_11">
    <path d="M 207.11154 430.126903 
C 233.782589 430.126903 259.36485 419.530383 278.224129 400.671104 
C 297.083409 381.811825 307.679928 356.229563 307.679928 329.558515 
C 307.679928 302.887467 297.083409 277.305205 278.224129 258.445926 
C 259.36485 239.586647 233.782589 228.990127 207.11154 228.990127 
C 180.440492 228.990127 154.85823 239.586647 135.998951 258.445926 
C 117.139672 277.305205 106.543152 302.887467 106.543152 329.558515 
C 106.543152 356.229563 117.139672 381.811825 135.998951 400.671104 
C 154.85823 419.530383 180.440492 430.126903 207.11154 430.126903 
z
" clip-path="url(#p07ce89b321)" style="fill: #ff0000; opacity: 0.2"/>
   </g>
   <g id="patch_12">
    <path d="M 260.085151 421.501769 
C 286.756199 421.501769 312.338461 410.90525 331.19774 392.04597 
C 350.057019 373.186691 360.653539 347.60443 360.653539 320.933381 
C 360.653539 294.262333 350.057019 268.680071 331.19774 249.820792 
C 312.338461 230.961513 286.756199 220.364993 260.085151 220.364993 
C 233.414102 220.364993 207.831841 230.961513 188.972561 249.820792 
C 170.113282 268.680071 159.516763 294.262333 159.516763 320.933381 
C 159.516763 347.60443 170.113282 373.186691 188.972561 392.04597 
C 207.831841 410.90525 233.414102 421.501769 260.085151 421.501769 
z
" clip-path="url(#p07ce89b321)" style="fill: #ff0000; opacity: 0.2"/>
   </g>
   <g id="patch_13">
    <path d="M 313.504078 349.970893 
C 340.175126 349.970893 365.757388 339.374373 384.616667 320.515094 
C 403.475946 301.655815 414.072466 276.073553 414.072466 249.402504 
C 414.072466 222.731456 403.475946 197.149194 384.616667 178.289915 
C 365.757388 159.430636 340.175126 148.834116 313.504078 148.834116 
C 286.83303 148.834116 261.250768 159.430636 242.391489 178.289915 
C 223.53221 197.149194 212.93569 222.731456 212.93569 249.402504 
C 212.93569 276.073553 223.53221 301.655815 242.391489 320.515094 
C 261.250768 339.374373 286.83303 349.970893 313.504078 349.970893 
z
" clip-path="url(#p07ce89b321)" style="fill: #ff0000; opacity: 0.2"/>
   </g>
   <g id="patch_14">
    <path d="M 442.849905 312.70052 
C 469.520954 312.70052 495.103215 302.104 513.962495 283.244721 
C 532.821774 264.385442 543.418293 238.80318 543.418293 212.132132 
C 543.418293 185.461083 532.821774 159.878822 513.962495 141.019542 
C 495.103215 122.160263 469.520954 111.563744 442.849905 111.563744 
C 416.178857 111.563744 390.596595 122.160263 371.737316 141.019542 
C 352.878037 159.878822 342.281517 185.461083 342.281517 212.132132 
C 342.281517 238.80318 352.878037 264.385442 371.737316 283.244721 
C 390.596595 302.104 416.178857 312.70052 442.849905 312.70052 
z
" clip-path="url(#p07ce89b321)" style="fill: #ff0000; opacity: 0.2"/>
   </g>
   <g id="patch_15">
    <path d="M 417.237435 253.703945 
C 443.908483 253.703945 469.490745 243.107425 488.350024 224.248146 
C 507.209303 205.388867 517.805823 179.806605 517.805823 153.135557 
C 517.805823 126.464509 507.209303 100.882247 488.350024 82.022968 
C 469.490745 63.163689 443.908483 52.567169 417.237435 52.567169 
C 390.566386 52.567169 364.984124 63.163689 346.124845 82.022968 
C 327.265566 100.882247 316.669046 126.464509 316.669046 153.135557 
C 316.669046 179.806605 327.265566 205.388867 346.124845 224.248146 
C 364.984124 243.107425 390.566386 253.703945 417.237435 253.703945 
z
" clip-path="url(#p07ce89b321)" style="fill: #ff0000; opacity: 0.2"/>
   </g>
   <g id="patch_16">
    <path d="M 373.463533 243.183497 
C 400.134582 243.183497 425.716843 232.586977 444.576122 213.727698 
C 463.435402 194.868419 474.031921 169.286157 474.031921 142.615109 
C 474.031921 115.94406 463.435402 90.361798 444.576122 71.502519 
C 425.716843 52.64324 400.134582 42.04672 373.463533 42.04672 
C 346.792485 42.04672 321.210223 52.64324 302.350944 71.502519 
C 283.491665 90.361798 272.895145 115.94406 272.895145 142.615109 
C 272.895145 169.286157 283.491665 194.868419 302.350944 213.727698 
C 321.210223 232.586977 346.792485 243.183497 373.463533 243.183497 
z
" clip-path="url(#p07ce89b321)" style="fill: #ff0000; opacity: 0.2"/>
   </g>
   <g id="patch_17">
    <path d="M 299.947323 309.78374 
C 326.618372 309.78374 352.200634 299.18722 371.059913 280.327941 
C 389.919192 261.468662 400.515712 235.8864 400.515712 209.215352 
C 400.515712 182.544303 389.919192 156.962041 371.059913 138.102762 
C 352.200634 119.243483 326.618372 108.646963 299.947323 108.646963 
C 273.276275 108.646963 247.694013 119.243483 228.834734 138.102762 
C 209.975455 156.962041 199.378935 182.544303 199.378935 209.215352 
C 199.378935 235.8864 209.975455 261.468662 228.834734 280.327941 
C 247.694013 299.18722 273.276275 309.78374 299.947323 309.78374 
z
" clip-path="url(#p07ce89b321)" style="fill: #ff0000; opacity: 0.2"/>
   </g>
   <g id="patch_18">
    <path d="M 300.43344 326.979726 
C 327.104488 326.979726 352.68675 316.383206 371.546029 297.523927 
C 390.405308 278.664648 401.001828 253.082386 401.001828 226.411338 
C 401.001828 199.74029 390.405308 174.158028 371.546029 155.298749 
C 352.68675 136.43947 327.104488 125.84295 300.43344 125.84295 
C 273.762392 125.84295 248.18013 136.43947 229.320851 155.298749 
C 210.461572 174.158028 199.865052 199.74029 199.865052 226.411338 
C 199.865052 253.082386 210.461572 278.664648 229.320851 297.523927 
C 248.18013 316.383206 273.762392 326.979726 300.43344 326.979726 
z
" clip-path="url(#p07ce89b321)" style="fill: #ff0000; opacity: 0.2"/>
   </g>
   <g id="patch_19">
    <path d="M 364.14107 384.163092 
C 390.812118 384.163092 416.39438 373.566572 435.253659 354.707293 
C 454.112938 335.848014 464.709458 310.265752 464.709458 283.594704 
C 464.709458 256.923656 454.112938 231.341394 435.253659 212.482115 
C 416.39438 193.622836 390.812118 183.026316 364.14107 183.026316 
C 337.470021 183.026316 311.88776 193.622836 293.028481 212.482115 
C 274.169201 231.341394 263.572682 256.923656 263.572682 283.594704 
C 263.572682 310.265752 274.169201 335.848014 293.028481 354.707293 
C 311.88776 373.566572 337.470021 384.163092 364.14107 384.163092 
z
" clip-path="url(#p07ce89b321)" style="fill: #ff0000; opacity: 0.2"/>
   </g>
   <g id="patch_20">
    <path d="M 417.589835 376.878029 
C 444.260883 376.878029 469.843145 366.281509 488.702424 347.42223 
C 507.561703 328.562951 518.158223 302.980689 518.158223 276.309641 
C 518.158223 249.638593 507.561703 224.056331 488.702424 205.197052 
C 469.843145 186.337773 444.260883 175.741253 417.589835 175.741253 
C 390.918787 175.741253 365.336525 186.337773 346.477246 205.197052 
C 327.617967 224.056331 317.021447 249.638593 317.021447 276.309641 
C 317.021447 302.980689 327.617967 328.562951 346.477246 347.42223 
C 365.336525 366.281509 390.918787 376.878029 417.589835 376.878029 
z
" clip-path="url(#p07ce89b321)" style="fill: #ff0000; opacity: 0.2"/>
   </g>
   <g id="patch_21">
    <path d="M 317.132202 328.61278 
C 343.80325 328.61278 369.385512 318.01626 388.244791 299.156981 
C 407.10407 280.297702 417.70059 254.71544 417.70059 228.044392 
C 417.70059 201.373343 407.10407 175.791082 388.244791 156.931802 
C 369.385512 138.072523 343.80325 127.476004 317.132202 127.476004 
C 290.461154 127.476004 264.878892 138.072523 246.019613 156.931802 
C 227.160334 175.791082 216.563814 201.373343 216.563814 228.044392 
C 216.563814 254.71544 227.160334 280.297702 246.019613 299.156981 
C 264.878892 318.01626 290.461154 328.61278 317.132202 328.61278 
L 317.132202 328.61278 
z
" clip-path="url(#p07ce89b321)" style="fill: none; stroke: #ff0000; stroke-width: 2; stroke-linejoin: miter"/>
   </g>
   <g id="patch_22">
    <path d="M 302.959077 262.548606 
C 329.630126 262.548606 355.212388 251.952086 374.071667 233.092807 
C 392.930946 214.233528 403.527466 188.651266 403.527466 161.980218 
C 403.527466 135.30917 392.930946 109.726908 374.071667 90.867629 
C 355.212388 72.00835 329.630126 61.41183 302.959077 61.41183 
C 276.288029 61.41183 250.705767 72.00835 231.846488 90.867629 
C 212.987209 109.726908 202.390689 135.30917 202.390689 161.980218 
C 202.390689 188.651266 212.987209 214.233528 231.846488 233.092807 
C 250.705767 251.952086 276.288029 262.548606 302.959077 262.548606 
L 302.959077 262.548606 
z
" clip-path="url(#p07ce89b321)" style="fill: none; stroke: #ff0000; stroke-width: 2; stroke-linejoin: miter"/>
   </g>
   <g id="patch_23">
    <path d="M 226.690371 196.99645 
C 253.36142 196.99645 278.943681 186.39993 297.80296 167.540651 
C 316.66224 148.681372 327.258759 123.09911 327.258759 96.428062 
C 327.258759 69.757014 316.66224 44.174752 297.80296 25.315473 
C 278.943681 6.456194 253.36142 -4.140326 226.690371 -4.140326 
C 200.019323 -4.140326 174.437061 6.456194 155.577782 25.315473 
C 136.718503 44.174752 126.121983 69.757014 126.121983 96.428062 
C 126.121983 123.09911 136.718503 148.681372 155.577782 167.540651 
C 174.437061 186.39993 200.019323 196.99645 226.690371 196.99645 
L 226.690371 196.99645 
z
" clip-path="url(#p07ce89b321)" style="fill: none; stroke: #ff0000; stroke-width: 2; stroke-linejoin: miter"/>
   </g>
   <g id="patch_24">
    <path d="M 180.832294 192.309873 
C 207.503342 192.309873 233.085604 181.713353 251.944883 162.854074 
C 270.804162 143.994795 281.400682 118.412533 281.400682 91.741485 
C 281.400682 65.070437 270.804162 39.488175 251.944883 20.628896 
C 233.085604 1.769617 207.503342 -8.826903 180.832294 -8.826903 
C 154.161245 -8.826903 128.578984 1.769617 109.719705 20.628896 
C 90.860425 39.488175 80.263906 65.070437 80.263906 91.741485 
C 80.263906 118.412533 90.860425 143.994795 109.719705 162.854074 
C 128.578984 181.713353 154.161245 192.309873 180.832294 192.309873 
L 180.832294 192.309873 
z
" clip-path="url(#p07ce89b321)" style="fill: none; stroke: #ff0000; stroke-width: 2; stroke-linejoin: miter"/>
   </g>
   <g id="patch_25">
    <path d="M 180.127483 212.621953 
C 206.798531 212.621953 232.380793 202.025433 251.240072 183.166154 
C 270.099351 164.306875 280.695871 138.724613 280.695871 112.053565 
C 280.695871 85.382516 270.099351 59.800254 251.240072 40.940975 
C 232.380793 22.081696 206.798531 11.485176 180.127483 11.485176 
C 153.456435 11.485176 127.874173 22.081696 109.014894 40.940975 
C 90.155615 59.800254 79.559095 85.382516 79.559095 112.053565 
C 79.559095 138.724613 90.155615 164.306875 109.014894 183.166154 
C 127.874173 202.025433 153.456435 212.621953 180.127483 212.621953 
L 180.127483 212.621953 
z
" clip-path="url(#p07ce89b321)" style="fill: none; stroke: #ff0000; stroke-width: 2; stroke-linejoin: miter"/>
   </g>
   <g id="patch_26">
    <path d="M 108.737041 260.547341 
C 135.408089 260.547341 160.990351 249.950821 179.84963 231.091542 
C 198.708909 212.232263 209.305429 186.650001 209.305429 159.978952 
C 209.305429 133.307904 198.708909 107.725642 179.84963 88.866363 
C 160.990351 70.007084 135.408089 59.410564 108.737041 59.410564 
C 82.065992 59.410564 56.483731 70.007084 37.624452 88.866363 
C 18.765172 107.725642 8.168653 133.307904 8.168653 159.978952 
C 8.168653 186.650001 18.765172 212.232263 37.624452 231.091542 
C 56.483731 249.950821 82.065992 260.547341 108.737041 260.547341 
L 108.737041 260.547341 
z
" clip-path="url(#p07ce89b321)" style="fill: none; stroke: #ff0000; stroke-width: 2; stroke-linejoin: miter"/>
   </g>
   <g id="patch_27">
    <path d="M 78.613718 304.550703 
C 105.284767 304.550703 130.867028 293.954183 149.726307 275.094904 
C 168.585587 256.235625 179.182106 230.653363 179.182106 203.982314 
C 179.182106 177.311266 168.585587 151.729004 149.726307 132.869725 
C 130.867028 114.010446 105.284767 103.413926 78.613718 103.413926 
C 51.94267 103.413926 26.360408 114.010446 7.501129 132.869725 
C -11.35815 151.729004 -21.95467 177.311266 -21.95467 203.982314 
C -21.95467 230.653363 -11.35815 256.235625 7.501129 275.094904 
C 26.360408 293.954183 51.94267 304.550703 78.613718 304.550703 
L 78.613718 304.550703 
z
" clip-path="url(#p07ce89b321)" style="fill: none; stroke: #ff0000; stroke-width: 2; stroke-linejoin: miter"/>
   </g>
   <g id="patch_28">
    <path d="M 100.017805 377.18552 
C 126.688853 377.18552 152.271115 366.589001 171.130394 347.729722 
C 189.989673 328.870442 200.586193 303.288181 200.586193 276.617132 
C 200.586193 249.946084 189.989673 224.363822 171.130394 205.504543 
C 152.271115 186.645264 126.688853 176.048744 100.017805 176.048744 
C 73.346757 176.048744 47.764495 186.645264 28.905216 205.504543 
C 10.045936 224.363822 -0.550583 249.946084 -0.550583 276.617132 
C -0.550583 303.288181 10.045936 328.870442 28.905216 347.729722 
C 47.764495 366.589001 73.346757 377.18552 100.017805 377.18552 
L 100.017805 377.18552 
z
" clip-path="url(#p07ce89b321)" style="fill: none; stroke: #ff0000; stroke-width: 2; stroke-linejoin: miter"/>
   </g>
   <g id="patch_29">
    <path d="M 115.239894 401.12285 
C 141.910943 401.12285 167.493204 390.526331 186.352484 371.667051 
C 205.211763 352.807772 215.808282 327.225511 215.808282 300.554462 
C 215.808282 273.883414 205.211763 248.301152 186.352484 229.441873 
C 167.493204 210.582594 141.910943 199.986074 115.239894 199.986074 
C 88.568846 199.986074 62.986584 210.582594 44.127305 229.441873 
C 25.268026 248.301152 14.671506 273.883414 14.671506 300.554462 
C 14.671506 327.225511 25.268026 352.807772 44.127305 371.667051 
C 62.986584 390.526331 88.568846 401.12285 115.239894 401.12285 
L 115.239894 401.12285 
z
" clip-path="url(#p07ce89b321)" style="fill: none; stroke: #ff0000; stroke-width: 2; stroke-linejoin: miter"/>
   </g>
   <g id="patch_30">
    <path d="M 207.11154 430.126903 
C 233.782589 430.126903 259.36485 419.530383 278.224129 400.671104 
C 297.083409 381.811825 307.679928 356.229563 307.679928 329.558515 
C 307.679928 302.887467 297.083409 277.305205 278.224129 258.445926 
C 259.36485 239.586647 233.782589 228.990127 207.11154 228.990127 
C 180.440492 228.990127 154.85823 239.586647 135.998951 258.445926 
C 117.139672 277.305205 106.543152 302.887467 106.543152 329.558515 
C 106.543152 356.229563 117.139672 381.811825 135.998951 400.671104 
C 154.85823 419.530383 180.440492 430.126903 207.11154 430.126903 
" clip-path="url(#p07ce89b321)" style="fill: none; stroke: #ff0000; stroke-width: 2; stroke-linejoin: miter"/>
   </g>
   <g id="patch_31">
    <path d="M 260.085151 421.501769 
C 286.756199 421.501769 312.338461 410.90525 331.19774 392.04597 
C 350.057019 373.186691 360.653539 347.60443 360.653539 320.933381 
C 360.653539 294.262333 350.057019 268.680071 331.19774 249.820792 
C 312.338461 230.961513 286.756199 220.364993 260.085151 220.364993 
C 233.414102 220.364993 207.831841 230.961513 188.972561 249.820792 
C 170.113282 268.680071 159.516763 294.262333 159.516763 320.933381 
C 159.516763 347.60443 170.113282 373.186691 188.972561 392.04597 
C 207.831841 410.90525 233.414102 421.501769 260.085151 421.501769 
L 260.085151 421.501769 
z
" clip-path="url(#p07ce89b321)" style="fill: none; stroke: #ff0000; stroke-width: 2; stroke-linejoin: miter"/>
   </g>
   <g id="patch_32">
    <path d="M 313.504078 349.970893 
C 340.175126 349.970893 365.757388 339.374373 384.616667 320.515094 
C 403.475946 301.655815 414.072466 276.073553 414.072466 249.402504 
C 414.072466 222.731456 403.475946 197.149194 384.616667 178.289915 
C 365.757388 159.430636 340.175126 148.834116 313.504078 148.834116 
C 286.83303 148.834116 261.250768 159.430636 242.391489 178.289915 
C 223.53221 197.149194 212.93569 222.731456 212.93569 249.402504 
C 212.93569 276.073553 223.53221 301.655815 242.391489 320.515094 
C 261.250768 339.374373 286.83303 349.970893 313.504078 349.970893 
L 313.504078 349.970893 
z
" clip-path="url(#p07ce89b321)" style="fill: none; stroke: #ff0000; stroke-width: 2; stroke-linejoin: miter"/>
   </g>
   <g id="patch_33">
    <path d="M 442.849905 312.70052 
C 469.520954 312.70052 495.103215 302.104 513.962495 283.244721 
C 532.821774 264.385442 543.418293 238.80318 543.418293 212.132132 
C 543.418293 185.461083 532.821774 159.878822 513.962495 141.019542 
C 495.103215 122.160263 469.520954 111.563744 442.849905 111.563744 
C 416.178857 111.563744 390.596595 122.160263 371.737316 141.019542 
C 352.878037 159.878822 342.281517 185.461083 342.281517 212.132132 
C 342.281517 238.80318 352.878037 264.385442 371.737316 283.244721 
C 390.596595 302.104 416.178857 312.70052 442.849905 312.70052 
L 442.849905 312.70052 
z
" clip-path="url(#p07ce89b321)" style="fill: none; stroke: #ff0000; stroke-width: 2; stroke-linejoin: miter"/>
   </g>
   <g id="patch_34">
    <path d="M 417.237435 253.703945 
C 443.908483 253.703945 469.490745 243.107425 488.350024 224.248146 
C 507.209303 205.388867 517.805823 179.806605 517.805823 153.135557 
C 517.805823 126.464509 507.209303 100.882247 488.350024 82.022968 
C 469.490745 63.163689 443.908483 52.567169 417.237435 52.567169 
C 390.566386 52.567169 364.984124 63.163689 346.124845 82.022968 
C 327.265566 100.882247 316.669046 126.464509 316.669046 153.135557 
C 316.669046 179.806605 327.265566 205.388867 346.124845 224.248146 
C 364.984124 243.107425 390.566386 253.703945 417.237435 253.703945 
L 417.237435 253.703945 
z
" clip-path="url(#p07ce89b321)" style="fill: none; stroke: #ff0000; stroke-width: 2; stroke-linejoin: miter"/>
   </g>
   <g id="patch_35">
    <path d="M 373.463533 243.183497 
C 400.134582 243.183497 425.716843 232.586977 444.576122 213.727698 
C 463.435402 194.868419 474.031921 169.286157 474.031921 142.615109 
C 474.031921 115.94406 463.435402 90.361798 444.576122 71.502519 
C 425.716843 52.64324 400.134582 42.04672 373.463533 42.04672 
C 346.792485 42.04672 321.210223 52.64324 302.350944 71.502519 
C 283.491665 90.361798 272.895145 115.94406 272.895145 142.615109 
C 272.895145 169.286157 283.491665 194.868419 302.350944 213.727698 
C 321.210223 232.586977 346.792485 243.183497 373.463533 243.183497 
L 373.463533 243.183497 
z
" clip-path="url(#p07ce89b321)" style="fill: none; stroke: #ff0000; stroke-width: 2; stroke-linejoin: miter"/>
   </g>
   <g id="patch_36">
    <path d="M 299.947323 309.78374 
C 326.618372 309.78374 352.200634 299.18722 371.059913 280.327941 
C 389.919192 261.468662 400.515712 235.8864 400.515712 209.215352 
C 400.515712 182.544303 389.919192 156.962041 371.059913 138.102762 
C 352.200634 119.243483 326.618372 108.646963 299.947323 108.646963 
C 273.276275 108.646963 247.694013 119.243483 228.834734 138.102762 
C 209.975455 156.962041 199.378935 182.544303 199.378935 209.215352 
C 199.378935 235.8864 209.975455 261.468662 228.834734 280.327941 
C 247.694013 299.18722 273.276275 309.78374 299.947323 309.78374 
L 299.947323 309.78374 
z
" clip-path="url(#p07ce89b321)" style="fill: none; stroke: #ff0000; stroke-width: 2; stroke-linejoin: miter"/>
   </g>
   <g id="patch_37">
    <path d="M 300.43344 326.979726 
C 327.104488 326.979726 352.68675 316.383206 371.546029 297.523927 
C 390.405308 278.664648 401.001828 253.082386 401.001828 226.411338 
C 401.001828 199.74029 390.405308 174.158028 371.546029 155.298749 
C 352.68675 136.43947 327.104488 125.84295 300.43344 125.84295 
C 273.762392 125.84295 248.18013 136.43947 229.320851 155.298749 
C 210.461572 174.158028 199.865052 199.74029 199.865052 226.411338 
C 199.865052 253.082386 210.461572 278.664648 229.320851 297.523927 
C 248.18013 316.383206 273.762392 326.979726 300.43344 326.979726 
L 300.43344 326.979726 
z
" clip-path="url(#p07ce89b321)" style="fill: none; stroke: #ff0000; stroke-width: 2; stroke-linejoin: miter"/>
   </g>
   <g id="patch_38">
    <path d="M 364.14107 384.163092 
C 390.812118 384.163092 416.39438 373.566572 435.253659 354.707293 
C 454.112938 335.848014 464.709458 310.265752 464.709458 283.594704 
C 464.709458 256.923656 454.112938 231.341394 435.253659 212.482115 
C 416.39438 193.622836 390.812118 183.026316 364.14107 183.026316 
C 337.470021 183.026316 311.88776 193.622836 293.028481 212.482115 
C 274.169201 231.341394 263.572682 256.923656 263.572682 283.594704 
C 263.572682 310.265752 274.169201 335.848014 293.028481 354.707293 
C 311.88776 373.566572 337.470021 384.163092 364.14107 384.163092 
L 364.14107 384.163092 
z
" clip-path="url(#p07ce89b321)" style="fill: none; stroke: #ff0000; stroke-width: 2; stroke-linejoin: miter"/>
   </g>
   <g id="patch_39">
    <path d="M 417.589835 376.878029 
C 444.260883 376.878029 469.843145 366.281509 488.702424 347.42223 
C 507.561703 328.562951 518.158223 302.980689 518.158223 276.309641 
C 518.158223 249.638593 507.561703 224.056331 488.702424 205.197052 
C 469.843145 186.337773 444.260883 175.741253 417.589835 175.741253 
C 390.918787 175.741253 365.336525 186.337773 346.477246 205.197052 
C 327.617967 224.056331 317.021447 249.638593 317.021447 276.309641 
C 317.021447 302.980689 327.617967 328.562951 346.477246 347.42223 
C 365.336525 366.281509 390.918787 376.878029 417.589835 376.878029 
L 417.589835 376.878029 
z
" clip-path="url(#p07ce89b321)" style="fill: none; stroke: #ff0000; stroke-width: 2; stroke-linejoin: miter"/>
   </g>
   <g id="line2d_1">
    <path d="M 317.132202 228.044392 
L 302.959077 161.980218 
" clip-path="url(#p07ce89b321)" style="fill: none; stroke: #000000; stroke-width: 2; stroke-linecap: square"/>
   </g>
   <g id="line2d_2">
    <path d="M 317.132202 228.044392 
L 313.504078 249.402504 
" clip-path="url(#p07ce89b321)" style="fill: none; stroke: #000000; stroke-width: 2; stroke-linecap: square"/>
   </g>
   <g id="line2d_3">
    <path d="M 317.132202 228.044392 
L 299.947323 209.215352 
" clip-path="url(#p07ce89b321)" style="fill: none; stroke: #000000; stroke-width: 2; stroke-linecap: square"/>
   </g>
   <g id="line2d_4">
    <path d="M 317.132202 228.044392 
L 300.43344 226.411338 
" clip-path="url(#p07ce89b321)" style="fill: none; stroke: #000000; stroke-width: 2; stroke-linecap: square"/>
   </g>
   <g id="line2d_5">
    <path d="M 317.132202 228.044392 
L 364.14107 283.594704 
" clip-path="url(#p07ce89b321)" style="fill: none; stroke: #000000; stroke-width: 2; stroke-linecap: square"/>
   </g>
   <g id="line2d_6">
    <path d="M 302.959077 161.980218 
L 226.690371 96.428062 
" clip-path="url(#p07ce89b321)" style="fill: none; stroke: #000000; stroke-width: 2; stroke-linecap: square"/>
   </g>
   <g id="line2d_7">
    <path d="M 302.959077 161.980218 
L 313.504078 249.402504 
" clip-path="url(#p07ce89b321)" style="fill: none; stroke: #000000; stroke-width: 2; stroke-linecap: square"/>
   </g>
   <g id="line2d_8">
    <path d="M 302.959077 161.980218 
L 373.463533 142.615109 
" clip-path="url(#p07ce89b321)" style="fill: none; stroke: #000000; stroke-width: 2; stroke-linecap: square"/>
   </g>
   <g id="line2d_9">
    <path d="M 302.959077 161.980218 
L 299.947323 209.215352 
" clip-path="url(#p07ce89b321)" style="fill: none; stroke: #000000; stroke-width: 2; stroke-linecap: square"/>
   </g>
   <g id="line2d_10">
    <path d="M 302.959077 161.980218 
L 300.43344 226.411338 
" clip-path="url(#p07ce89b321)" style="fill: none; stroke: #000000; stroke-width: 2; stroke-linecap: square"/>
   </g>
   <g id="line2d_11">
    <path d="M 226.690371 96.428062 
L 180.832294 91.741485 
" clip-path="url(#p07ce89b321)" style="fill: none; stroke: #000000; stroke-width: 2; stroke-linecap: square"/>
   </g>
   <g id="line2d_12">
    <path d="M 226.690371 96.428062 
L 180.127483 112.053565 
" clip-path="url(#p07ce89b321)" style="fill: none; stroke: #000000; stroke-width: 2; stroke-linecap: square"/>
   </g>
   <g id="line2d_13">
    <path d="M 180.832294 91.741485 
L 180.127483 112.053565 
" clip-path="url(#p07ce89b321)" style="fill: none; stroke: #000000; stroke-width: 2; stroke-linecap: square"/>
   </g>
   <g id="line2d_14">
    <path d="M 180.832294 91.741485 
L 108.737041 159.978952 
" clip-path="url(#p07ce89b321)" style="fill: none; stroke: #000000; stroke-width: 2; stroke-linecap: square"/>
   </g>
   <g id="line2d_15">
    <path d="M 180.127483 112.053565 
L 108.737041 159.978952 
" clip-path="url(#p07ce89b321)" style="fill: none; stroke: #000000; stroke-width: 2; stroke-linecap: square"/>
   </g>
   <g id="line2d_16">
    <path d="M 108.737041 159.978952 
L 78.613718 203.982314 
" clip-path="url(#p07ce89b321)" style="fill: none; stroke: #000000; stroke-width: 2; stroke-linecap: square"/>
   </g>
   <g id="line2d_17">
    <path d="M 78.613718 203.982314 
L 100.017805 276.617132 
" clip-path="url(#p07ce89b321)" style="fill: none; stroke: #000000; stroke-width: 2; stroke-linecap: square"/>
   </g>
   <g id="line2d_18">
    <path d="M 100.017805 276.617132 
L 115.239894 300.554462 
" clip-path="url(#p07ce89b321)" style="fill: none; stroke: #000000; stroke-width: 2; stroke-linecap: square"/>
   </g>
   <g id="line2d_19">
    <path d="M 115.239894 300.554462 
L 207.11154 329.558515 
" clip-path="url(#p07ce89b321)" style="fill: none; stroke: #000000; stroke-width: 2; stroke-linecap: square"/>
   </g>
   <g id="line2d_20">
    <path d="M 207.11154 329.558515 
L 260.085151 320.933381 
" clip-path="url(#p07ce89b321)" style="fill: none; stroke: #000000; stroke-width: 2; stroke-linecap: square"/>
   </g>
   <g id="line2d_21">
    <path d="M 260.085151 320.933381 
L 313.504078 249.402504 
" clip-path="url(#p07ce89b321)" style="fill: none; stroke: #000000; stroke-width: 2; stroke-linecap: square"/>
   </g>
   <g id="line2d_22">
    <path d="M 313.504078 249.402504 
L 299.947323 209.215352 
" clip-path="url(#p07ce89b321)" style="fill: none; stroke: #000000; stroke-width: 2; stroke-linecap: square"/>
   </g>
   <g id="line2d_23">
    <path d="M 313.504078 249.402504 
L 300.43344 226.411338 
" clip-path="url(#p07ce89b321)" style="fill: none; stroke: #000000; stroke-width: 2; stroke-linecap: square"/>
   </g>
   <g id="line2d_24">
    <path d="M 313.504078 249.402504 
L 364.14107 283.594704 
" clip-path="url(#p07ce89b321)" style="fill: none; stroke: #000000; stroke-width: 2; stroke-linecap: square"/>
   </g>
   <g id="line2d_25">
    <path d="M 442.849905 212.132132 
L 417.237435 153.135557 
" clip-path="url(#p07ce89b321)" style="fill: none; stroke: #000000; stroke-width: 2; stroke-linecap: square"/>
   </g>
   <g id="line2d_26">
    <path d="M 442.849905 212.132132 
L 373.463533 142.615109 
" clip-path="url(#p07ce89b321)" style="fill: none; stroke: #000000; stroke-width: 2; stroke-linecap: square"/>
   </g>
   <g id="line2d_27">
    <path d="M 442.849905 212.132132 
L 417.589835 276.309641 
" clip-path="url(#p07ce89b321)" style="fill: none; stroke: #000000; stroke-width: 2; stroke-linecap: square"/>
   </g>
   <g id="line2d_28">
    <path d="M 417.237435 153.135557 
L 373.463533 142.615109 
" clip-path="url(#p07ce89b321)" style="fill: none; stroke: #000000; stroke-width: 2; stroke-linecap: square"/>
   </g>
   <g id="line2d_29">
    <path d="M 373.463533 142.615109 
L 299.947323 209.215352 
" clip-path="url(#p07ce89b321)" style="fill: none; stroke: #000000; stroke-width: 2; stroke-linecap: square"/>
   </g>
   <g id="line2d_30">
    <path d="M 299.947323 209.215352 
L 300.43344 226.411338 
" clip-path="url(#p07ce89b321)" style="fill: none; stroke: #000000; stroke-width: 2; stroke-linecap: square"/>
   </g>
   <g id="line2d_31">
    <path d="M 299.947323 209.215352 
L 364.14107 283.594704 
" clip-path="url(#p07ce89b321)" style="fill: none; stroke: #000000; stroke-width: 2; stroke-linecap: square"/>
   </g>
   <g id="line2d_32">
    <path d="M 300.43344 226.411338 
L 364.14107 283.594704 
" clip-path="url(#p07ce89b321)" style="fill: none; stroke: #000000; stroke-width: 2; stroke-linecap: square"/>
   </g>
   <g id="line2d_33">
    <path d="M 364.14107 283.594704 
L 417.589835 276.309641 
" clip-path="url(#p07ce89b321)" style="fill: none; stroke: #000000; stroke-width: 2; stroke-linecap: square"/>
   </g>
   <g id="PathCollection_2">
    <defs>
     <path id="m3a842af87a" d="M 0 3 
C 0.795609 3 1.55874 2.683901 2.12132 2.12132 
C 2.683901 1.55874 3 0.795609 3 0 
C 3 -0.795609 2.683901 -1.55874 2.12132 -2.12132 
C 1.55874 -2.683901 0.795609 -3 0 -3 
C -0.795609 -3 -1.55874 -2.683901 -2.12132 -2.12132 
C -2.683901 -1.55874 -3 -0.795609 -3 0 
C -3 0.795609 -2.683901 1.55874 -2.12132 2.12132 
C -1.55874 2.683901 -0.795609 3 0 3 
z
" style="stroke: #0000ff"/>
    </defs>
    <g clip-path="url(#p07ce89b321)">
     <use xlink:href="#m3a842af87a" x="317.132202" y="228.044392" style="fill: #0000ff; stroke: #0000ff"/>
     <use xlink:href="#m3a842af87a" x="302.959077" y="161.980218" style="fill: #0000ff; stroke: #0000ff"/>
     <use xlink:href="#m3a842af87a" x="226.690371" y="96.428062" style="fill: #0000ff; stroke: #0000ff"/>
     <use xlink:href="#m3a842af87a" x="180.832294" y="91.741485" style="fill: #0000ff; stroke: #0000ff"/>
     <use xlink:href="#m3a842af87a" x="180.127483" y="112.053565" style="fill: #0000ff; stroke: #0000ff"/>
     <use xlink:href="#m3a842af87a" x="108.737041" y="159.978952" style="fill: #0000ff; stroke: #0000ff"/>
     <use xlink:href="#m3a842af87a" x="78.613718" y="203.982314" style="fill: #0000ff; stroke: #0000ff"/>
     <use xlink:href="#m3a842af87a" x="100.017805" y="276.617132" style="fill: #0000ff; stroke: #0000ff"/>
     <use xlink:href="#m3a842af87a" x="115.239894" y="300.554462" style="fill: #0000ff; stroke: #0000ff"/>
     <use xlink:href="#m3a842af87a" x="207.11154" y="329.558515" style="fill: #0000ff; stroke: #0000ff"/>
     <use xlink:href="#m3a842af87a" x="260.085151" y="320.933381" style="fill: #0000ff; stroke: #0000ff"/>
     <use xlink:href="#m3a842af87a" x="313.504078" y="249.402504" style="fill: #0000ff; stroke: #0000ff"/>
     <use xlink:href="#m3a842af87a" x="442.849905" y="212.132132" style="fill: #0000ff; stroke: #0000ff"/>
     <use xlink:href="#m3a842af87a" x="417.237435" y="153.135557" style="fill: #0000ff; stroke: #0000ff"/>
     <use xlink:href="#m3a842af87a" x="373.463533" y="142.615109" style="fill: #0000ff; stroke: #0000ff"/>
     <use xlink:href="#m3a842af87a" x="299.947323" y="209.215352" style="fill: #0000ff; stroke: #0000ff"/>
     <use xlink:href="#m3a842af87a" x="300.43344" y="226.411338" style="fill: #0000ff; stroke: #0000ff"/>
     <use xlink:href="#m3a842af87a" x="364.14107" y="283.594704" style="fill: #0000ff; stroke: #0000ff"/>
     <use xlink:href="#m3a842af87a" x="417.589835" y="276.309641" style="fill: #0000ff; stroke: #0000ff"/>
    </g>
   </g>
  </g>
  <g id="axes_2">
   <g id="patch_40">
    <path d="M 558.536376 414.1 
L 1065.6 414.1 
L 1065.6 7.2 
L 558.536376 7.2 
z
" style="fill: #ffffff"/>
   </g>
   <g id="matplotlib.axis_1">
    <g id="xtick_1">
     <g id="line2d_34">
      <defs>
       <path id="mb74009a033" d="M 0 0 
L 0 3.5 
" style="stroke: #000000; stroke-width: 0.8"/>
      </defs>
      <g>
       <use xlink:href="#mb74009a033" x="571.880156" y="414.1" style="stroke: #000000; stroke-width: 0.8"/>
      </g>
     </g>
    </g>
    <g id="xtick_2">
     <g id="line2d_35">
      <g>
       <use xlink:href="#mb74009a033" x="598.567715" y="414.1" style="stroke: #000000; stroke-width: 0.8"/>
      </g>
     </g>
    </g>
    <g id="xtick_3">
     <g id="line2d_36">
      <g>
       <use xlink:href="#mb74009a033" x="625.255274" y="414.1" style="stroke: #000000; stroke-width: 0.8"/>
      </g>
     </g>
    </g>
    <g id="xtick_4">
     <g id="line2d_37">
      <g>
       <use xlink:href="#mb74009a033" x="651.942833" y="414.1" style="stroke: #000000; stroke-width: 0.8"/>
      </g>
     </g>
    </g>
    <g id="xtick_5">
     <g id="line2d_38">
      <g>
       <use xlink:href="#mb74009a033" x="678.630393" y="414.1" style="stroke: #000000; stroke-width: 0.8"/>
      </g>
     </g>
    </g>
    <g id="xtick_6">
     <g id="line2d_39">
      <g>
       <use xlink:href="#mb74009a033" x="705.317952" y="414.1" style="stroke: #000000; stroke-width: 0.8"/>
      </g>
     </g>
    </g>
    <g id="xtick_7">
     <g id="line2d_40">
      <g>
       <use xlink:href="#mb74009a033" x="732.005511" y="414.1" style="stroke: #000000; stroke-width: 0.8"/>
      </g>
     </g>
    </g>
    <g id="xtick_8">
     <g id="line2d_41">
      <g>
       <use xlink:href="#mb74009a033" x="758.69307" y="414.1" style="stroke: #000000; stroke-width: 0.8"/>
      </g>
     </g>
    </g>
    <g id="xtick_9">
     <g id="line2d_42">
      <g>
       <use xlink:href="#mb74009a033" x="785.380629" y="414.1" style="stroke: #000000; stroke-width: 0.8"/>
      </g>
     </g>
    </g>
    <g id="xtick_10">
     <g id="line2d_43">
      <g>
       <use xlink:href="#mb74009a033" x="812.068188" y="414.1" style="stroke: #000000; stroke-width: 0.8"/>
      </g>
     </g>
    </g>
    <g id="xtick_11">
     <g id="line2d_44">
      <g>
       <use xlink:href="#mb74009a033" x="838.755747" y="414.1" style="stroke: #000000; stroke-width: 0.8"/>
      </g>
     </g>
    </g>
    <g id="xtick_12">
     <g id="line2d_45">
      <g>
       <use xlink:href="#mb74009a033" x="865.443306" y="414.1" style="stroke: #000000; stroke-width: 0.8"/>
      </g>
     </g>
    </g>
    <g id="xtick_13">
     <g id="line2d_46">
      <g>
       <use xlink:href="#mb74009a033" x="892.130866" y="414.1" style="stroke: #000000; stroke-width: 0.8"/>
      </g>
     </g>
    </g>
    <g id="xtick_14">
     <g id="line2d_47">
      <g>
       <use xlink:href="#mb74009a033" x="918.818425" y="414.1" style="stroke: #000000; stroke-width: 0.8"/>
      </g>
     </g>
    </g>
    <g id="xtick_15">
     <g id="line2d_48">
      <g>
       <use xlink:href="#mb74009a033" x="945.505984" y="414.1" style="stroke: #000000; stroke-width: 0.8"/>
      </g>
     </g>
    </g>
    <g id="xtick_16">
     <g id="line2d_49">
      <g>
       <use xlink:href="#mb74009a033" x="972.193543" y="414.1" style="stroke: #000000; stroke-width: 0.8"/>
      </g>
     </g>
    </g>
    <g id="xtick_17">
     <g id="line2d_50">
      <g>
       <use xlink:href="#mb74009a033" x="998.881102" y="414.1" style="stroke: #000000; stroke-width: 0.8"/>
      </g>
     </g>
    </g>
    <g id="xtick_18">
     <g id="line2d_51">
      <g>
       <use xlink:href="#mb74009a033" x="1025.568661" y="414.1" style="stroke: #000000; stroke-width: 0.8"/>
      </g>
     </g>
    </g>
    <g id="xtick_19">
     <g id="line2d_52">
      <g>
       <use xlink:href="#mb74009a033" x="1052.25622" y="414.1" style="stroke: #000000; stroke-width: 0.8"/>
      </g>
     </g>
    </g>
   </g>
   <g id="matplotlib.axis_2">
    <g id="ytick_1">
     <g id="line2d_53">
      <defs>
       <path id="mda8725baed" d="M 0 0 
L -3.5 0 
" style="stroke: #000000; stroke-width: 0.8"/>
      </defs>
      <g>
       <use xlink:href="#mda8725baed" x="558.536376" y="28.405194" style="stroke: #000000; stroke-width: 0.8"/>
      </g>
     </g>
     <g id="text_1">
      <!-- $r_{19}$ -->
      <g transform="translate(524.936376 36.003632) scale(0.2 -0.2)">
       <defs>
        <path id="DejaVuSans-Oblique-72" d="M 2853 2969 
Q 2766 3016 2653 3041 
Q 2541 3066 2413 3066 
Q 1953 3066 1609 2717 
Q 1266 2369 1153 1784 
L 800 0 
L 225 0 
L 909 3500 
L 1484 3500 
L 1375 2956 
Q 1603 3259 1920 3421 
Q 2238 3584 2597 3584 
Q 2691 3584 2781 3573 
Q 2872 3563 2963 3538 
L 2853 2969 
z
" transform="scale(0.015625)"/>
        <path id="DejaVuSans-31" d="M 794 531 
L 1825 531 
L 1825 4091 
L 703 3866 
L 703 4441 
L 1819 4666 
L 2450 4666 
L 2450 531 
L 3481 531 
L 3481 0 
L 794 0 
L 794 531 
z
" transform="scale(0.015625)"/>
        <path id="DejaVuSans-39" d="M 703 97 
L 703 672 
Q 941 559 1184 500 
Q 1428 441 1663 441 
Q 2288 441 2617 861 
Q 2947 1281 2994 2138 
Q 2813 1869 2534 1725 
Q 2256 1581 1919 1581 
Q 1219 1581 811 2004 
Q 403 2428 403 3163 
Q 403 3881 828 4315 
Q 1253 4750 1959 4750 
Q 2769 4750 3195 4129 
Q 3622 3509 3622 2328 
Q 3622 1225 3098 567 
Q 2575 -91 1691 -91 
Q 1453 -91 1209 -44 
Q 966 3 703 97 
z
M 1959 2075 
Q 2384 2075 2632 2365 
Q 2881 2656 2881 3163 
Q 2881 3666 2632 3958 
Q 2384 4250 1959 4250 
Q 1534 4250 1286 3958 
Q 1038 3666 1038 3163 
Q 1038 2656 1286 2365 
Q 1534 2075 1959 2075 
z
" transform="scale(0.015625)"/>
       </defs>
       <use xlink:href="#DejaVuSans-Oblique-72"/>
       <use xlink:href="#DejaVuSans-31" transform="translate(41.113281 -16.40625) scale(0.7)"/>
       <use xlink:href="#DejaVuSans-39" transform="translate(85.649414 -16.40625) scale(0.7)"/>
      </g>
     </g>
    </g>
   </g>
   <g id="line2d_54">
    <path d="M 598.567715 414.1 
L 598.567715 341.680163 
L 625.255274 341.680163 
L 625.255274 414.1 
" clip-path="url(#p21c9b3e4a5)" style="fill: none; stroke: #ff0000; stroke-width: 5; stroke-linecap: square"/>
   </g>
   <g id="line2d_55">
    <path d="M 571.880156 414.1 
L 571.880156 249.846779 
L 611.911495 249.846779 
L 611.911495 341.680163 
" clip-path="url(#p21c9b3e4a5)" style="fill: none; stroke: #ff0000; stroke-width: 5; stroke-linecap: square"/>
   </g>
   <g id="line2d_56">
    <path d="M 651.942833 414.1 
L 651.942833 313.020995 
L 678.630393 313.020995 
L 678.630393 414.1 
" clip-path="url(#p21c9b3e4a5)" style="fill: none; stroke: #ff0000; stroke-width: 5; stroke-linecap: square"/>
   </g>
   <g id="line2d_57">
    <path d="M 705.317952 414.1 
L 705.317952 224.086462 
L 732.005511 224.086462 
L 732.005511 414.1 
" clip-path="url(#p21c9b3e4a5)" style="fill: none; stroke: #ff0000; stroke-width: 5; stroke-linecap: square"/>
   </g>
   <g id="line2d_58">
    <path d="M 665.286613 313.020995 
L 665.286613 144.28327 
L 718.661731 144.28327 
L 718.661731 224.086462 
" clip-path="url(#p21c9b3e4a5)" style="fill: none; stroke: #ff0000; stroke-width: 5; stroke-linecap: square"/>
   </g>
   <g id="line2d_59">
    <path d="M 591.895825 249.846779 
L 591.895825 107.716708 
L 691.974172 107.716708 
L 691.974172 144.28327 
" clip-path="url(#p21c9b3e4a5)" style="fill: none; stroke: #ff0000; stroke-width: 5; stroke-linecap: square"/>
   </g>
   <g id="line2d_60">
    <path d="M 758.69307 414.1 
L 758.69307 222.858095 
L 785.380629 222.858095 
L 785.380629 414.1 
" clip-path="url(#p21c9b3e4a5)" style="fill: none; stroke: #ff0000; stroke-width: 5; stroke-linecap: square"/>
   </g>
   <g id="line2d_61">
    <path d="M 892.130866 414.1 
L 892.130866 354.314891 
L 918.818425 354.314891 
L 918.818425 414.1 
" clip-path="url(#p21c9b3e4a5)" style="fill: none; stroke: #ff0000; stroke-width: 5; stroke-linecap: square"/>
   </g>
   <g id="line2d_62">
    <path d="M 865.443306 414.1 
L 865.443306 352.802549 
L 905.474645 352.802549 
L 905.474645 354.314891 
" clip-path="url(#p21c9b3e4a5)" style="fill: none; stroke: #ff0000; stroke-width: 5; stroke-linecap: square"/>
   </g>
   <g id="line2d_63">
    <path d="M 838.755747 414.1 
L 838.755747 336.906263 
L 885.458976 336.906263 
L 885.458976 352.802549 
" clip-path="url(#p21c9b3e4a5)" style="fill: none; stroke: #ff0000; stroke-width: 5; stroke-linecap: square"/>
   </g>
   <g id="line2d_64">
    <path d="M 812.068188 414.1 
L 812.068188 245.44935 
L 862.107362 245.44935 
L 862.107362 336.906263 
" clip-path="url(#p21c9b3e4a5)" style="fill: none; stroke: #ff0000; stroke-width: 5; stroke-linecap: square"/>
   </g>
   <g id="line2d_65">
    <path d="M 945.505984 414.1 
L 945.505984 221.88972 
L 972.193543 221.88972 
L 972.193543 414.1 
" clip-path="url(#p21c9b3e4a5)" style="fill: none; stroke: #ff0000; stroke-width: 5; stroke-linecap: square"/>
   </g>
   <g id="line2d_66">
    <path d="M 837.087775 245.44935 
L 837.087775 196.387606 
L 958.849763 196.387606 
L 958.849763 221.88972 
" clip-path="url(#p21c9b3e4a5)" style="fill: none; stroke: #ff0000; stroke-width: 5; stroke-linecap: square"/>
   </g>
   <g id="line2d_67">
    <path d="M 1025.568661 414.1 
L 1025.568661 253.682782 
L 1052.25622 253.682782 
L 1052.25622 414.1 
" clip-path="url(#p21c9b3e4a5)" style="fill: none; stroke: #ff0000; stroke-width: 5; stroke-linecap: square"/>
   </g>
   <g id="line2d_68">
    <path d="M 998.881102 414.1 
L 998.881102 184.927061 
L 1038.912441 184.927061 
L 1038.912441 253.682782 
" clip-path="url(#p21c9b3e4a5)" style="fill: none; stroke: #ff0000; stroke-width: 5; stroke-linecap: square"/>
   </g>
   <g id="line2d_69">
    <path d="M 897.968769 196.387606 
L 897.968769 168.346113 
L 1018.896772 168.346113 
L 1018.896772 184.927061 
" clip-path="url(#p21c9b3e4a5)" style="fill: none; stroke: #ff0000; stroke-width: 5; stroke-linecap: square"/>
   </g>
   <g id="line2d_70">
    <path d="M 772.03685 222.858095 
L 772.03685 95.989663 
L 958.43277 95.989663 
L 958.43277 168.346113 
" clip-path="url(#p21c9b3e4a5)" style="fill: none; stroke: #ff0000; stroke-width: 5; stroke-linecap: square"/>
   </g>
   <g id="line2d_71">
    <path d="M 641.934999 107.716708 
L 641.934999 70.815583 
L 865.23481 70.815583 
L 865.23481 95.989663 
" clip-path="url(#p21c9b3e4a5)" style="fill: none; stroke: #ff0000; stroke-width: 5; stroke-linecap: square"/>
   </g>
   <g id="line2d_72">
    <path d="M 753.584904 70.815583 
L 753.584904 28.405194 
" clip-path="url(#p21c9b3e4a5)" style="fill: none; stroke: #ff0000; stroke-width: 5; stroke-linecap: square"/>
   </g>
   <g id="patch_41">
    <path d="M 558.536376 414.1 
L 558.536376 7.2 
" style="fill: none; stroke: #000000; stroke-width: 0.8; stroke-linejoin: miter; stroke-linecap: square"/>
   </g>
   <g id="patch_42">
    <path d="M 1065.6 414.1 
L 1065.6 7.2 
" style="fill: none; stroke: #000000; stroke-width: 0.8; stroke-linejoin: miter; stroke-linecap: square"/>
   </g>
   <g id="patch_43">
    <path d="M 558.536376 414.1 
L 1065.6 414.1 
" style="fill: none; stroke: #000000; stroke-width: 0.8; stroke-linejoin: miter; stroke-linecap: square"/>
   </g>
   <g id="patch_44">
    <path d="M 558.536376 7.2 
L 1065.6 7.2 
" style="fill: none; stroke: #000000; stroke-width: 0.8; stroke-linejoin: miter; stroke-linecap: square"/>
   </g>
   <g id="PathCollection_3">
    <defs>
     <path id="mca5c1c0143" d="M 0 6.123724 
C 1.624031 6.123724 3.181764 5.47849 4.330127 4.330127 
C 5.47849 3.181764 6.123724 1.624031 6.123724 0 
C 6.123724 -1.624031 5.47849 -3.181764 4.330127 -4.330127 
C 3.181764 -5.47849 1.624031 -6.123724 0 -6.123724 
C -1.624031 -6.123724 -3.181764 -5.47849 -4.330127 -4.330127 
C -5.47849 -3.181764 -6.123724 -1.624031 -6.123724 0 
C -6.123724 1.624031 -5.47849 3.181764 -4.330127 4.330127 
C -3.181764 5.47849 -1.624031 6.123724 0 6.123724 
z
" style="stroke: #0000ff"/>
    </defs>
    <g clip-path="url(#p21c9b3e4a5)">
     <use xlink:href="#mca5c1c0143" x="571.880156" y="414.1" style="fill: #0000ff; stroke: #0000ff"/>
     <use xlink:href="#mca5c1c0143" x="598.567715" y="414.1" style="fill: #0000ff; stroke: #0000ff"/>
     <use xlink:href="#mca5c1c0143" x="625.255274" y="414.1" style="fill: #0000ff; stroke: #0000ff"/>
     <use xlink:href="#mca5c1c0143" x="651.942833" y="414.1" style="fill: #0000ff; stroke: #0000ff"/>
     <use xlink:href="#mca5c1c0143" x="678.630393" y="414.1" style="fill: #0000ff; stroke: #0000ff"/>
     <use xlink:href="#mca5c1c0143" x="705.317952" y="414.1" style="fill: #0000ff; stroke: #0000ff"/>
     <use xlink:href="#mca5c1c0143" x="732.005511" y="414.1" style="fill: #0000ff; stroke: #0000ff"/>
     <use xlink:href="#mca5c1c0143" x="758.69307" y="414.1" style="fill: #0000ff; stroke: #0000ff"/>
     <use xlink:href="#mca5c1c0143" x="785.380629" y="414.1" style="fill: #0000ff; stroke: #0000ff"/>
     <use xlink:href="#mca5c1c0143" x="812.068188" y="414.1" style="fill: #0000ff; stroke: #0000ff"/>
     <use xlink:href="#mca5c1c0143" x="838.755747" y="414.1" style="fill: #0000ff; stroke: #0000ff"/>
     <use xlink:href="#mca5c1c0143" x="865.443306" y="414.1" style="fill: #0000ff; stroke: #0000ff"/>
     <use xlink:href="#mca5c1c0143" x="892.130866" y="414.1" style="fill: #0000ff; stroke: #0000ff"/>
     <use xlink:href="#mca5c1c0143" x="918.818425" y="414.1" style="fill: #0000ff; stroke: #0000ff"/>
     <use xlink:href="#mca5c1c0143" x="945.505984" y="414.1" style="fill: #0000ff; stroke: #0000ff"/>
     <use xlink:href="#mca5c1c0143" x="972.193543" y="414.1" style="fill: #0000ff; stroke: #0000ff"/>
     <use xlink:href="#mca5c1c0143" x="998.881102" y="414.1" style="fill: #0000ff; stroke: #0000ff"/>
     <use xlink:href="#mca5c1c0143" x="1025.568661" y="414.1" style="fill: #0000ff; stroke: #0000ff"/>
     <use xlink:href="#mca5c1c0143" x="1052.25622" y="414.1" style="fill: #0000ff; stroke: #0000ff"/>
    </g>
   </g>
  </g>
 </g>
 <defs>
  <clipPath id="p07ce89b321">
   <rect x="7.2" y="20.327767" width="507.063624" height="380.644466"/>
  </clipPath>
  <clipPath id="p21c9b3e4a5">
   <rect x="558.536376" y="7.2" width="507.063624" height="406.9"/>
  </clipPath>
 </defs>
</svg>
