<?xml version="1.0" encoding="utf-8" standalone="no"?>
<!DOCTYPE svg PUBLIC "-//W3C//DTD SVG 1.1//EN"
  "http://www.w3.org/Graphics/SVG/1.1/DTD/svg11.dtd">
<svg xmlns:xlink="http://www.w3.org/1999/xlink" width="1072.8pt" height="424.8pt" viewBox="0 0 1072.8 424.8" xmlns="http://www.w3.org/2000/svg" version="1.1">
 <metadata>
  <rdf:RDF xmlns:dc="http://purl.org/dc/elements/1.1/" xmlns:cc="http://creativecommons.org/ns#" xmlns:rdf="http://www.w3.org/1999/02/22-rdf-syntax-ns#">
   <cc:Work>
    <dc:type rdf:resource="http://purl.org/dc/dcmitype/StillImage"/>
    <dc:date>2023-10-24T09:47:29.716415</dc:date>
    <dc:format>image/svg+xml</dc:format>
    <dc:creator>
     <cc:Agent>
      <dc:title>Matplotlib v3.7.2, https://matplotlib.org/</dc:title>
     </cc:Agent>
    </dc:creator>
   </cc:Work>
  </rdf:RDF>
 </metadata>
 <defs>
  <style type="text/css">*{stroke-linejoin: round; stroke-linecap: butt}</style>
 </defs>
 <g id="figure_1">
  <g id="patch_1">
   <path d="M 0 424.8 
L 1072.8 424.8 
L 1072.8 -0 
L 0 -0 
z
" style="fill: #ffffff"/>
  </g>
  <g id="axes_1">
   <g id="PathCollection_1">
    <defs>
     <path id="m6314682c6d" d="M 0 3 
C 0.795609 3 1.55874 2.683901 2.12132 2.12132 
C 2.683901 1.55874 3 0.795609 3 0 
C 3 -0.795609 2.683901 -1.55874 2.12132 -2.12132 
C 1.55874 -2.683901 0.795609 -3 0 -3 
C -0.795609 -3 -1.55874 -2.683901 -2.12132 -2.12132 
C -2.683901 -1.55874 -3 -0.795609 -3 0 
C -3 0.795609 -2.683901 1.55874 -2.12132 2.12132 
C -1.55874 2.683901 -0.795609 3 0 3 
z
" style="stroke: #1f77b4; stroke-opacity: 0"/>
    </defs>
    <g clip-path="url(#pca6c778b15)">
     <use xlink:href="#m6314682c6d" x="7.2" y="400.993346" style="fill: #1f77b4; fill-opacity: 0; stroke: #1f77b4; stroke-opacity: 0"/>
     <use xlink:href="#m6314682c6d" x="514.319874" y="20.306654" style="fill: #1f77b4; fill-opacity: 0; stroke: #1f77b4; stroke-opacity: 0"/>
    </g>
   </g>
   <g id="patch_2">
    <path d="M 317.166584 292.369819 
C 334.225374 292.369819 350.587778 285.592289 362.650165 273.529902 
C 374.712551 261.467516 381.490081 245.105112 381.490081 228.046321 
C 381.490081 210.98753 374.712551 194.625127 362.650165 182.56274 
C 350.587778 170.500353 334.225374 163.722824 317.166584 163.722824 
C 300.107793 163.722824 283.745389 170.500353 271.683002 182.56274 
C 259.620616 194.625127 252.843086 210.98753 252.843086 228.046321 
C 252.843086 245.105112 259.620616 261.467516 271.683002 273.529902 
C 283.745389 285.592289 300.107793 292.369819 317.166584 292.369819 
z
" clip-path="url(#pca6c778b15)" style="fill: #ff0000; opacity: 0.2"/>
   </g>
   <g id="patch_3">
    <path d="M 302.991887 226.298316 
C 320.050678 226.298316 336.413081 219.520787 348.475468 207.4584 
C 360.537855 195.396013 367.315384 179.03361 367.315384 161.974819 
C 367.315384 144.916028 360.537855 128.553625 348.475468 116.491238 
C 336.413081 104.428851 320.050678 97.651322 302.991887 97.651322 
C 285.933096 97.651322 269.570692 104.428851 257.508306 116.491238 
C 245.445919 128.553625 238.66839 144.916028 238.66839 161.974819 
C 238.66839 179.03361 245.445919 195.396013 257.508306 207.4584 
C 269.570692 219.520787 285.933096 226.298316 302.991887 226.298316 
z
" clip-path="url(#pca6c778b15)" style="fill: #ff0000; opacity: 0.2"/>
   </g>
   <g id="patch_4">
    <path d="M 226.71472 160.738888 
C 243.773511 160.738888 260.135914 153.961359 272.198301 141.898972 
C 284.260688 129.836586 291.038217 113.474182 291.038217 96.415391 
C 291.038217 79.3566 284.260688 62.994197 272.198301 50.93181 
C 260.135914 38.869423 243.773511 32.091894 226.71472 32.091894 
C 209.655929 32.091894 193.293526 38.869423 181.231139 50.93181 
C 169.168752 62.994197 162.391223 79.3566 162.391223 96.415391 
C 162.391223 113.474182 169.168752 129.836586 181.231139 141.898972 
C 193.293526 153.961359 209.655929 160.738888 226.71472 160.738888 
z
" clip-path="url(#pca6c778b15)" style="fill: #ff0000; opacity: 0.2"/>
   </g>
   <g id="patch_5">
    <path d="M 180.851555 156.051791 
C 197.910346 156.051791 214.27275 149.274262 226.335136 137.211875 
C 238.397523 125.149489 245.175053 108.787085 245.175053 91.728294 
C 245.175053 74.669503 238.397523 58.3071 226.335136 46.244713 
C 214.27275 34.182326 197.910346 27.404797 180.851555 27.404797 
C 163.792764 27.404797 147.430361 34.182326 135.367974 46.244713 
C 123.305587 58.3071 116.528058 74.669503 116.528058 91.728294 
C 116.528058 108.787085 123.305587 125.149489 135.367974 137.211875 
C 147.430361 149.274262 163.792764 156.051791 180.851555 156.051791 
z
" clip-path="url(#pca6c778b15)" style="fill: #ff0000; opacity: 0.2"/>
   </g>
   <g id="patch_6">
    <path d="M 180.146666 176.366124 
C 197.205457 176.366124 213.567861 169.588595 225.630247 157.526208 
C 237.692634 145.463821 244.470163 129.101418 244.470163 112.042627 
C 244.470163 94.983836 237.692634 78.621433 225.630247 66.559046 
C 213.567861 54.496659 197.205457 47.71913 180.146666 47.71913 
C 163.087875 47.71913 146.725472 54.496659 134.663085 66.559046 
C 122.600698 78.621433 115.823169 94.983836 115.823169 112.042627 
C 115.823169 129.101418 122.600698 145.463821 134.663085 157.526208 
C 146.725472 169.588595 163.087875 176.366124 180.146666 176.366124 
z
" clip-path="url(#pca6c778b15)" style="fill: #ff0000; opacity: 0.2"/>
   </g>
   <g id="patch_7">
    <path d="M 108.748305 224.296829 
C 125.807095 224.296829 142.169499 217.519299 154.231886 205.456912 
C 166.294272 193.394526 173.071802 177.032122 173.071802 159.973331 
C 173.071802 142.91454 166.294272 126.552137 154.231886 114.48975 
C 142.169499 102.427364 125.807095 95.649834 108.748305 95.649834 
C 91.689514 95.649834 75.32711 102.427364 63.264723 114.48975 
C 51.202337 126.552137 44.424807 142.91454 44.424807 159.973331 
C 44.424807 177.032122 51.202337 193.394526 63.264723 205.456912 
C 75.32711 217.519299 91.689514 224.296829 108.748305 224.296829 
z
" clip-path="url(#pca6c778b15)" style="fill: #ff0000; opacity: 0.2"/>
   </g>
   <g id="patch_8">
    <path d="M 78.62164 268.305072 
C 95.680431 268.305072 112.042835 261.527543 124.105221 249.465156 
C 136.167608 237.402769 142.945138 221.040366 142.945138 203.981575 
C 142.945138 186.922784 136.167608 170.56038 124.105221 158.497994 
C 112.042835 146.435607 95.680431 139.658078 78.62164 139.658078 
C 61.562849 139.658078 45.200446 146.435607 33.138059 158.497994 
C 21.075673 170.56038 14.298143 186.922784 14.298143 203.981575 
C 14.298143 221.040366 21.075673 237.402769 33.138059 249.465156 
C 45.200446 261.527543 61.562849 268.305072 78.62164 268.305072 
z
" clip-path="url(#pca6c778b15)" style="fill: #ff0000; opacity: 0.2"/>
   </g>
   <g id="patch_9">
    <path d="M 100.028101 340.947947 
C 117.086892 340.947947 133.449296 334.170418 145.511682 322.108031 
C 157.574069 310.045645 164.351599 293.683241 164.351599 276.62445 
C 164.351599 259.565659 157.574069 243.203256 145.511682 231.140869 
C 133.449296 219.078482 117.086892 212.300953 100.028101 212.300953 
C 82.96931 212.300953 66.606907 219.078482 54.54452 231.140869 
C 42.482134 243.203256 35.704604 259.565659 35.704604 276.62445 
C 35.704604 293.683241 42.482134 310.045645 54.54452 322.108031 
C 66.606907 334.170418 82.96931 340.947947 100.028101 340.947947 
z
" clip-path="url(#pca6c778b15)" style="fill: #ff0000; opacity: 0.2"/>
   </g>
   <g id="patch_10">
    <path d="M 115.251879 364.887933 
C 132.31067 364.887933 148.673074 358.110403 160.735461 346.048017 
C 172.797847 333.98563 179.575377 317.623227 179.575377 300.564436 
C 179.575377 283.505645 172.797847 267.143241 160.735461 255.080855 
C 148.673074 243.018468 132.31067 236.240938 115.251879 236.240938 
C 98.193089 236.240938 81.830685 243.018468 69.768298 255.080855 
C 57.705912 267.143241 50.928382 283.505645 50.928382 300.564436 
C 50.928382 317.623227 57.705912 333.98563 69.768298 346.048017 
C 81.830685 358.110403 98.193089 364.887933 115.251879 364.887933 
z
" clip-path="url(#pca6c778b15)" style="fill: #ff0000; opacity: 0.2"/>
   </g>
   <g id="patch_11">
    <path d="M 207.133717 393.895203 
C 224.192508 393.895203 240.554911 387.117674 252.617298 375.055287 
C 264.679685 362.9929 271.457214 346.630497 271.457214 329.571706 
C 271.457214 312.512915 264.679685 296.150511 252.617298 284.088125 
C 240.554911 272.025738 224.192508 265.248209 207.133717 265.248209 
C 190.074926 265.248209 173.712523 272.025738 161.650136 284.088125 
C 149.587749 296.150511 142.81022 312.512915 142.81022 329.571706 
C 142.81022 346.630497 149.587749 362.9929 161.650136 375.055287 
C 173.712523 387.117674 190.074926 393.895203 207.133717 393.895203 
z
" clip-path="url(#pca6c778b15)" style="fill: #ff0000; opacity: 0.2"/>
   </g>
   <g id="patch_12">
    <path d="M 260.113204 385.269113 
C 277.171995 385.269113 293.534398 378.491583 305.596785 366.429196 
C 317.659172 354.36681 324.436701 338.004406 324.436701 320.945615 
C 324.436701 303.886824 317.659172 287.524421 305.596785 275.462034 
C 293.534398 263.399647 277.171995 256.622118 260.113204 256.622118 
C 243.054413 256.622118 226.69201 263.399647 214.629623 275.462034 
C 202.567236 287.524421 195.789707 303.886824 195.789707 320.945615 
C 195.789707 338.004406 202.567236 354.36681 214.629623 366.429196 
C 226.69201 378.491583 243.054413 385.269113 260.113204 385.269113 
z
" clip-path="url(#pca6c778b15)" style="fill: #ff0000; opacity: 0.2"/>
   </g>
   <g id="patch_13">
    <path d="M 313.538057 313.730301 
C 330.596848 313.730301 346.959252 306.952771 359.021638 294.890385 
C 371.084025 282.827998 377.861555 266.465594 377.861555 249.406803 
C 377.861555 232.348013 371.084025 215.985609 359.021638 203.923222 
C 346.959252 191.860836 330.596848 185.083306 313.538057 185.083306 
C 296.479266 185.083306 280.116863 191.860836 268.054476 203.923222 
C 255.992089 215.985609 249.21456 232.348013 249.21456 249.406803 
C 249.21456 266.465594 255.992089 282.827998 268.054476 294.890385 
C 280.116863 306.952771 296.479266 313.730301 313.538057 313.730301 
z
" clip-path="url(#pca6c778b15)" style="fill: #ff0000; opacity: 0.2"/>
   </g>
   <g id="patch_14">
    <path d="M 442.898233 276.455793 
C 459.957024 276.455793 476.319428 269.678264 488.381814 257.615877 
C 500.444201 245.55349 507.22173 229.191087 507.22173 212.132296 
C 507.22173 195.073505 500.444201 178.711102 488.381814 166.648715 
C 476.319428 154.586328 459.957024 147.808799 442.898233 147.808799 
C 425.839442 147.808799 409.477039 154.586328 397.414652 166.648715 
C 385.352265 178.711102 378.574736 195.073505 378.574736 212.132296 
C 378.574736 229.191087 385.352265 245.55349 397.414652 257.615877 
C 409.477039 269.678264 425.839442 276.455793 442.898233 276.455793 
z
" clip-path="url(#pca6c778b15)" style="fill: #ff0000; opacity: 0.2"/>
   </g>
   <g id="patch_15">
    <path d="M 417.282921 217.452674 
C 434.341712 217.452674 450.704116 210.675145 462.766502 198.612758 
C 474.828889 186.550371 481.606418 170.187968 481.606418 153.129177 
C 481.606418 136.070386 474.828889 119.707982 462.766502 107.645596 
C 450.704116 95.583209 434.341712 88.805679 417.282921 88.805679 
C 400.22413 88.805679 383.861727 95.583209 371.79934 107.645596 
C 359.736953 119.707982 352.959424 136.070386 352.959424 153.129177 
C 352.959424 170.187968 359.736953 186.550371 371.79934 198.612758 
C 383.861727 210.675145 400.22413 217.452674 417.282921 217.452674 
z
" clip-path="url(#pca6c778b15)" style="fill: #ff0000; opacity: 0.2"/>
   </g>
   <g id="patch_16">
    <path d="M 373.504164 206.931059 
C 390.562955 206.931059 406.925358 200.153529 418.987745 188.091142 
C 431.050132 176.028756 437.827661 159.666352 437.827661 142.607561 
C 437.827661 125.54877 431.050132 109.186367 418.987745 97.12398 
C 406.925358 85.061593 390.562955 78.284064 373.504164 78.284064 
C 356.445373 78.284064 340.082969 85.061593 328.020583 97.12398 
C 315.958196 109.186367 309.180667 125.54877 309.180667 142.607561 
C 309.180667 159.666352 315.958196 176.028756 328.020583 188.091142 
C 340.082969 200.153529 356.445373 206.931059 373.504164 206.931059 
z
" clip-path="url(#pca6c778b15)" style="fill: #ff0000; opacity: 0.2"/>
   </g>
   <g id="patch_17">
    <path d="M 299.979799 273.53869 
C 317.03859 273.53869 333.400993 266.76116 345.46338 254.698773 
C 357.525767 242.636387 364.303296 226.273983 364.303296 209.215192 
C 364.303296 192.156401 357.525767 175.793998 345.46338 163.731611 
C 333.400993 151.669225 317.03859 144.891695 299.979799 144.891695 
C 282.921008 144.891695 266.558604 151.669225 254.496218 163.731611 
C 242.433831 175.793998 235.656301 192.156401 235.656301 209.215192 
C 235.656301 226.273983 242.433831 242.636387 254.496218 254.698773 
C 266.558604 266.76116 282.921008 273.53869 299.979799 273.53869 
z
" clip-path="url(#pca6c778b15)" style="fill: #ff0000; opacity: 0.2"/>
   </g>
   <g id="patch_18">
    <path d="M 300.465969 290.736584 
C 317.52476 290.736584 333.887164 283.959054 345.94955 271.896668 
C 358.011937 259.834281 364.789467 243.471877 364.789467 226.413086 
C 364.789467 209.354296 358.011937 192.991892 345.94955 180.929505 
C 333.887164 168.867119 317.52476 162.089589 300.465969 162.089589 
C 283.407178 162.089589 267.044775 168.867119 254.982388 180.929505 
C 242.920002 192.991892 236.142472 209.354296 236.142472 226.413086 
C 236.142472 243.471877 242.920002 259.834281 254.982388 271.896668 
C 267.044775 283.959054 283.407178 290.736584 300.465969 290.736584 
z
" clip-path="url(#pca6c778b15)" style="fill: #ff0000; opacity: 0.2"/>
   </g>
   <g id="patch_19">
    <path d="M 364.180666 347.926293 
C 381.239457 347.926293 397.601861 341.148764 409.664247 329.086377 
C 421.726634 317.02399 428.504163 300.661587 428.504163 283.602796 
C 428.504163 266.544005 421.726634 250.181602 409.664247 238.119215 
C 397.601861 226.056828 381.239457 219.279299 364.180666 219.279299 
C 347.121875 219.279299 330.759472 226.056828 318.697085 238.119215 
C 306.634698 250.181602 299.857169 266.544005 299.857169 283.602796 
C 299.857169 300.661587 306.634698 317.02399 318.697085 329.086377 
C 330.759472 341.148764 347.121875 347.926293 364.180666 347.926293 
z
" clip-path="url(#pca6c778b15)" style="fill: #ff0000; opacity: 0.2"/>
   </g>
   <g id="patch_20">
    <path d="M 417.635361 340.640422 
C 434.694151 340.640422 451.056555 333.862893 463.118942 321.800506 
C 475.181328 309.738119 481.958858 293.375716 481.958858 276.316925 
C 481.958858 259.258134 475.181328 242.89573 463.118942 230.833344 
C 451.056555 218.770957 434.694151 211.993428 417.635361 211.993428 
C 400.57657 211.993428 384.214166 218.770957 372.151779 230.833344 
C 360.089393 242.89573 353.311863 259.258134 353.311863 276.316925 
C 353.311863 293.375716 360.089393 309.738119 372.151779 321.800506 
C 384.214166 333.862893 400.57657 340.640422 417.635361 340.640422 
z
" clip-path="url(#pca6c778b15)" style="fill: #ff0000; opacity: 0.2"/>
   </g>
   <g id="patch_21">
    <path d="M 317.166584 292.369819 
C 334.225374 292.369819 350.587778 285.592289 362.650165 273.529902 
C 374.712551 261.467516 381.490081 245.105112 381.490081 228.046321 
C 381.490081 210.98753 374.712551 194.625127 362.650165 182.56274 
C 350.587778 170.500353 334.225374 163.722824 317.166584 163.722824 
C 300.107793 163.722824 283.745389 170.500353 271.683002 182.56274 
C 259.620616 194.625127 252.843086 210.98753 252.843086 228.046321 
C 252.843086 245.105112 259.620616 261.467516 271.683002 273.529902 
C 283.745389 285.592289 300.107793 292.369819 317.166584 292.369819 
L 317.166584 292.369819 
z
" clip-path="url(#pca6c778b15)" style="fill: none; stroke: #ff0000; stroke-width: 2; stroke-linejoin: miter"/>
   </g>
   <g id="patch_22">
    <path d="M 302.991887 226.298316 
C 320.050678 226.298316 336.413081 219.520787 348.475468 207.4584 
C 360.537855 195.396013 367.315384 179.03361 367.315384 161.974819 
C 367.315384 144.916028 360.537855 128.553625 348.475468 116.491238 
C 336.413081 104.428851 320.050678 97.651322 302.991887 97.651322 
C 285.933096 97.651322 269.570692 104.428851 257.508306 116.491238 
C 245.445919 128.553625 238.66839 144.916028 238.66839 161.974819 
C 238.66839 179.03361 245.445919 195.396013 257.508306 207.4584 
C 269.570692 219.520787 285.933096 226.298316 302.991887 226.298316 
L 302.991887 226.298316 
z
" clip-path="url(#pca6c778b15)" style="fill: none; stroke: #ff0000; stroke-width: 2; stroke-linejoin: miter"/>
   </g>
   <g id="patch_23">
    <path d="M 226.71472 160.738888 
C 243.773511 160.738888 260.135914 153.961359 272.198301 141.898972 
C 284.260688 129.836586 291.038217 113.474182 291.038217 96.415391 
C 291.038217 79.3566 284.260688 62.994197 272.198301 50.93181 
C 260.135914 38.869423 243.773511 32.091894 226.71472 32.091894 
C 209.655929 32.091894 193.293526 38.869423 181.231139 50.93181 
C 169.168752 62.994197 162.391223 79.3566 162.391223 96.415391 
C 162.391223 113.474182 169.168752 129.836586 181.231139 141.898972 
C 193.293526 153.961359 209.655929 160.738888 226.71472 160.738888 
L 226.71472 160.738888 
z
" clip-path="url(#pca6c778b15)" style="fill: none; stroke: #ff0000; stroke-width: 2; stroke-linejoin: miter"/>
   </g>
   <g id="patch_24">
    <path d="M 180.851555 156.051791 
C 197.910346 156.051791 214.27275 149.274262 226.335136 137.211875 
C 238.397523 125.149489 245.175053 108.787085 245.175053 91.728294 
C 245.175053 74.669503 238.397523 58.3071 226.335136 46.244713 
C 214.27275 34.182326 197.910346 27.404797 180.851555 27.404797 
C 163.792764 27.404797 147.430361 34.182326 135.367974 46.244713 
C 123.305587 58.3071 116.528058 74.669503 116.528058 91.728294 
C 116.528058 108.787085 123.305587 125.149489 135.367974 137.211875 
C 147.430361 149.274262 163.792764 156.051791 180.851555 156.051791 
L 180.851555 156.051791 
z
" clip-path="url(#pca6c778b15)" style="fill: none; stroke: #ff0000; stroke-width: 2; stroke-linejoin: miter"/>
   </g>
   <g id="patch_25">
    <path d="M 180.146666 176.366124 
C 197.205457 176.366124 213.567861 169.588595 225.630247 157.526208 
C 237.692634 145.463821 244.470163 129.101418 244.470163 112.042627 
C 244.470163 94.983836 237.692634 78.621433 225.630247 66.559046 
C 213.567861 54.496659 197.205457 47.71913 180.146666 47.71913 
C 163.087875 47.71913 146.725472 54.496659 134.663085 66.559046 
C 122.600698 78.621433 115.823169 94.983836 115.823169 112.042627 
C 115.823169 129.101418 122.600698 145.463821 134.663085 157.526208 
C 146.725472 169.588595 163.087875 176.366124 180.146666 176.366124 
L 180.146666 176.366124 
z
" clip-path="url(#pca6c778b15)" style="fill: none; stroke: #ff0000; stroke-width: 2; stroke-linejoin: miter"/>
   </g>
   <g id="patch_26">
    <path d="M 108.748305 224.296829 
C 125.807095 224.296829 142.169499 217.519299 154.231886 205.456912 
C 166.294272 193.394526 173.071802 177.032122 173.071802 159.973331 
C 173.071802 142.91454 166.294272 126.552137 154.231886 114.48975 
C 142.169499 102.427364 125.807095 95.649834 108.748305 95.649834 
C 91.689514 95.649834 75.32711 102.427364 63.264723 114.48975 
C 51.202337 126.552137 44.424807 142.91454 44.424807 159.973331 
C 44.424807 177.032122 51.202337 193.394526 63.264723 205.456912 
C 75.32711 217.519299 91.689514 224.296829 108.748305 224.296829 
L 108.748305 224.296829 
z
" clip-path="url(#pca6c778b15)" style="fill: none; stroke: #ff0000; stroke-width: 2; stroke-linejoin: miter"/>
   </g>
   <g id="patch_27">
    <path d="M 78.62164 268.305072 
C 95.680431 268.305072 112.042835 261.527543 124.105221 249.465156 
C 136.167608 237.402769 142.945138 221.040366 142.945138 203.981575 
C 142.945138 186.922784 136.167608 170.56038 124.105221 158.497994 
C 112.042835 146.435607 95.680431 139.658078 78.62164 139.658078 
C 61.562849 139.658078 45.200446 146.435607 33.138059 158.497994 
C 21.075673 170.56038 14.298143 186.922784 14.298143 203.981575 
C 14.298143 221.040366 21.075673 237.402769 33.138059 249.465156 
C 45.200446 261.527543 61.562849 268.305072 78.62164 268.305072 
L 78.62164 268.305072 
z
" clip-path="url(#pca6c778b15)" style="fill: none; stroke: #ff0000; stroke-width: 2; stroke-linejoin: miter"/>
   </g>
   <g id="patch_28">
    <path d="M 100.028101 340.947947 
C 117.086892 340.947947 133.449296 334.170418 145.511682 322.108031 
C 157.574069 310.045645 164.351599 293.683241 164.351599 276.62445 
C 164.351599 259.565659 157.574069 243.203256 145.511682 231.140869 
C 133.449296 219.078482 117.086892 212.300953 100.028101 212.300953 
C 82.96931 212.300953 66.606907 219.078482 54.54452 231.140869 
C 42.482134 243.203256 35.704604 259.565659 35.704604 276.62445 
C 35.704604 293.683241 42.482134 310.045645 54.54452 322.108031 
C 66.606907 334.170418 82.96931 340.947947 100.028101 340.947947 
L 100.028101 340.947947 
z
" clip-path="url(#pca6c778b15)" style="fill: none; stroke: #ff0000; stroke-width: 2; stroke-linejoin: miter"/>
   </g>
   <g id="patch_29">
    <path d="M 115.251879 364.887933 
C 132.31067 364.887933 148.673074 358.110403 160.735461 346.048017 
C 172.797847 333.98563 179.575377 317.623227 179.575377 300.564436 
C 179.575377 283.505645 172.797847 267.143241 160.735461 255.080855 
C 148.673074 243.018468 132.31067 236.240938 115.251879 236.240938 
C 98.193089 236.240938 81.830685 243.018468 69.768298 255.080855 
C 57.705912 267.143241 50.928382 283.505645 50.928382 300.564436 
C 50.928382 317.623227 57.705912 333.98563 69.768298 346.048017 
C 81.830685 358.110403 98.193089 364.887933 115.251879 364.887933 
L 115.251879 364.887933 
z
" clip-path="url(#pca6c778b15)" style="fill: none; stroke: #ff0000; stroke-width: 2; stroke-linejoin: miter"/>
   </g>
   <g id="patch_30">
    <path d="M 207.133717 393.895203 
C 224.192508 393.895203 240.554911 387.117674 252.617298 375.055287 
C 264.679685 362.9929 271.457214 346.630497 271.457214 329.571706 
C 271.457214 312.512915 264.679685 296.150511 252.617298 284.088125 
C 240.554911 272.025738 224.192508 265.248209 207.133717 265.248209 
C 190.074926 265.248209 173.712523 272.025738 161.650136 284.088125 
C 149.587749 296.150511 142.81022 312.512915 142.81022 329.571706 
C 142.81022 346.630497 149.587749 362.9929 161.650136 375.055287 
C 173.712523 387.117674 190.074926 393.895203 207.133717 393.895203 
L 207.133717 393.895203 
z
" clip-path="url(#pca6c778b15)" style="fill: none; stroke: #ff0000; stroke-width: 2; stroke-linejoin: miter"/>
   </g>
   <g id="patch_31">
    <path d="M 260.113204 385.269113 
C 277.171995 385.269113 293.534398 378.491583 305.596785 366.429196 
C 317.659172 354.36681 324.436701 338.004406 324.436701 320.945615 
C 324.436701 303.886824 317.659172 287.524421 305.596785 275.462034 
C 293.534398 263.399647 277.171995 256.622118 260.113204 256.622118 
C 243.054413 256.622118 226.69201 263.399647 214.629623 275.462034 
C 202.567236 287.524421 195.789707 303.886824 195.789707 320.945615 
C 195.789707 338.004406 202.567236 354.36681 214.629623 366.429196 
C 226.69201 378.491583 243.054413 385.269113 260.113204 385.269113 
L 260.113204 385.269113 
z
" clip-path="url(#pca6c778b15)" style="fill: none; stroke: #ff0000; stroke-width: 2; stroke-linejoin: miter"/>
   </g>
   <g id="patch_32">
    <path d="M 313.538057 313.730301 
C 330.596848 313.730301 346.959252 306.952771 359.021638 294.890385 
C 371.084025 282.827998 377.861555 266.465594 377.861555 249.406803 
C 377.861555 232.348013 371.084025 215.985609 359.021638 203.923222 
C 346.959252 191.860836 330.596848 185.083306 313.538057 185.083306 
C 296.479266 185.083306 280.116863 191.860836 268.054476 203.923222 
C 255.992089 215.985609 249.21456 232.348013 249.21456 249.406803 
C 249.21456 266.465594 255.992089 282.827998 268.054476 294.890385 
C 280.116863 306.952771 296.479266 313.730301 313.538057 313.730301 
L 313.538057 313.730301 
z
" clip-path="url(#pca6c778b15)" style="fill: none; stroke: #ff0000; stroke-width: 2; stroke-linejoin: miter"/>
   </g>
   <g id="patch_33">
    <path d="M 442.898233 276.455793 
C 459.957024 276.455793 476.319428 269.678264 488.381814 257.615877 
C 500.444201 245.55349 507.22173 229.191087 507.22173 212.132296 
C 507.22173 195.073505 500.444201 178.711102 488.381814 166.648715 
C 476.319428 154.586328 459.957024 147.808799 442.898233 147.808799 
C 425.839442 147.808799 409.477039 154.586328 397.414652 166.648715 
C 385.352265 178.711102 378.574736 195.073505 378.574736 212.132296 
C 378.574736 229.191087 385.352265 245.55349 397.414652 257.615877 
C 409.477039 269.678264 425.839442 276.455793 442.898233 276.455793 
L 442.898233 276.455793 
z
" clip-path="url(#pca6c778b15)" style="fill: none; stroke: #ff0000; stroke-width: 2; stroke-linejoin: miter"/>
   </g>
   <g id="patch_34">
    <path d="M 417.282921 217.452674 
C 434.341712 217.452674 450.704116 210.675145 462.766502 198.612758 
C 474.828889 186.550371 481.606418 170.187968 481.606418 153.129177 
C 481.606418 136.070386 474.828889 119.707982 462.766502 107.645596 
C 450.704116 95.583209 434.341712 88.805679 417.282921 88.805679 
C 400.22413 88.805679 383.861727 95.583209 371.79934 107.645596 
C 359.736953 119.707982 352.959424 136.070386 352.959424 153.129177 
C 352.959424 170.187968 359.736953 186.550371 371.79934 198.612758 
C 383.861727 210.675145 400.22413 217.452674 417.282921 217.452674 
L 417.282921 217.452674 
z
" clip-path="url(#pca6c778b15)" style="fill: none; stroke: #ff0000; stroke-width: 2; stroke-linejoin: miter"/>
   </g>
   <g id="patch_35">
    <path d="M 373.504164 206.931059 
C 390.562955 206.931059 406.925358 200.153529 418.987745 188.091142 
C 431.050132 176.028756 437.827661 159.666352 437.827661 142.607561 
C 437.827661 125.54877 431.050132 109.186367 418.987745 97.12398 
C 406.925358 85.061593 390.562955 78.284064 373.504164 78.284064 
C 356.445373 78.284064 340.082969 85.061593 328.020583 97.12398 
C 315.958196 109.186367 309.180667 125.54877 309.180667 142.607561 
C 309.180667 159.666352 315.958196 176.028756 328.020583 188.091142 
C 340.082969 200.153529 356.445373 206.931059 373.504164 206.931059 
L 373.504164 206.931059 
z
" clip-path="url(#pca6c778b15)" style="fill: none; stroke: #ff0000; stroke-width: 2; stroke-linejoin: miter"/>
   </g>
   <g id="patch_36">
    <path d="M 299.979799 273.53869 
C 317.03859 273.53869 333.400993 266.76116 345.46338 254.698773 
C 357.525767 242.636387 364.303296 226.273983 364.303296 209.215192 
C 364.303296 192.156401 357.525767 175.793998 345.46338 163.731611 
C 333.400993 151.669225 317.03859 144.891695 299.979799 144.891695 
C 282.921008 144.891695 266.558604 151.669225 254.496218 163.731611 
C 242.433831 175.793998 235.656301 192.156401 235.656301 209.215192 
C 235.656301 226.273983 242.433831 242.636387 254.496218 254.698773 
C 266.558604 266.76116 282.921008 273.53869 299.979799 273.53869 
L 299.979799 273.53869 
z
" clip-path="url(#pca6c778b15)" style="fill: none; stroke: #ff0000; stroke-width: 2; stroke-linejoin: miter"/>
   </g>
   <g id="patch_37">
    <path d="M 300.465969 290.736584 
C 317.52476 290.736584 333.887164 283.959054 345.94955 271.896668 
C 358.011937 259.834281 364.789467 243.471877 364.789467 226.413086 
C 364.789467 209.354296 358.011937 192.991892 345.94955 180.929505 
C 333.887164 168.867119 317.52476 162.089589 300.465969 162.089589 
C 283.407178 162.089589 267.044775 168.867119 254.982388 180.929505 
C 242.920002 192.991892 236.142472 209.354296 236.142472 226.413086 
C 236.142472 243.471877 242.920002 259.834281 254.982388 271.896668 
C 267.044775 283.959054 283.407178 290.736584 300.465969 290.736584 
L 300.465969 290.736584 
z
" clip-path="url(#pca6c778b15)" style="fill: none; stroke: #ff0000; stroke-width: 2; stroke-linejoin: miter"/>
   </g>
   <g id="patch_38">
    <path d="M 364.180666 347.926293 
C 381.239457 347.926293 397.601861 341.148764 409.664247 329.086377 
C 421.726634 317.02399 428.504163 300.661587 428.504163 283.602796 
C 428.504163 266.544005 421.726634 250.181602 409.664247 238.119215 
C 397.601861 226.056828 381.239457 219.279299 364.180666 219.279299 
C 347.121875 219.279299 330.759472 226.056828 318.697085 238.119215 
C 306.634698 250.181602 299.857169 266.544005 299.857169 283.602796 
C 299.857169 300.661587 306.634698 317.02399 318.697085 329.086377 
C 330.759472 341.148764 347.121875 347.926293 364.180666 347.926293 
L 364.180666 347.926293 
z
" clip-path="url(#pca6c778b15)" style="fill: none; stroke: #ff0000; stroke-width: 2; stroke-linejoin: miter"/>
   </g>
   <g id="patch_39">
    <path d="M 417.635361 340.640422 
C 434.694151 340.640422 451.056555 333.862893 463.118942 321.800506 
C 475.181328 309.738119 481.958858 293.375716 481.958858 276.316925 
C 481.958858 259.258134 475.181328 242.89573 463.118942 230.833344 
C 451.056555 218.770957 434.694151 211.993428 417.635361 211.993428 
C 400.57657 211.993428 384.214166 218.770957 372.151779 230.833344 
C 360.089393 242.89573 353.311863 259.258134 353.311863 276.316925 
C 353.311863 293.375716 360.089393 309.738119 372.151779 321.800506 
C 384.214166 333.862893 400.57657 340.640422 417.635361 340.640422 
L 417.635361 340.640422 
z
" clip-path="url(#pca6c778b15)" style="fill: none; stroke: #ff0000; stroke-width: 2; stroke-linejoin: miter"/>
   </g>
   <g id="line2d_1">
    <path d="M 317.166584 228.046321 
L 313.538057 249.406803 
" clip-path="url(#pca6c778b15)" style="fill: none; stroke: #000000; stroke-width: 2; stroke-linecap: square"/>
   </g>
   <g id="line2d_2">
    <path d="M 317.166584 228.046321 
L 299.979799 209.215192 
" clip-path="url(#pca6c778b15)" style="fill: none; stroke: #000000; stroke-width: 2; stroke-linecap: square"/>
   </g>
   <g id="line2d_3">
    <path d="M 317.166584 228.046321 
L 300.465969 226.413086 
" clip-path="url(#pca6c778b15)" style="fill: none; stroke: #000000; stroke-width: 2; stroke-linecap: square"/>
   </g>
   <g id="line2d_4">
    <path d="M 302.991887 161.974819 
L 299.979799 209.215192 
" clip-path="url(#pca6c778b15)" style="fill: none; stroke: #000000; stroke-width: 2; stroke-linecap: square"/>
   </g>
   <g id="line2d_5">
    <path d="M 226.71472 96.415391 
L 180.851555 91.728294 
" clip-path="url(#pca6c778b15)" style="fill: none; stroke: #000000; stroke-width: 2; stroke-linecap: square"/>
   </g>
   <g id="line2d_6">
    <path d="M 226.71472 96.415391 
L 180.146666 112.042627 
" clip-path="url(#pca6c778b15)" style="fill: none; stroke: #000000; stroke-width: 2; stroke-linecap: square"/>
   </g>
   <g id="line2d_7">
    <path d="M 180.851555 91.728294 
L 180.146666 112.042627 
" clip-path="url(#pca6c778b15)" style="fill: none; stroke: #000000; stroke-width: 2; stroke-linecap: square"/>
   </g>
   <g id="line2d_8">
    <path d="M 108.748305 159.973331 
L 78.62164 203.981575 
" clip-path="url(#pca6c778b15)" style="fill: none; stroke: #000000; stroke-width: 2; stroke-linecap: square"/>
   </g>
   <g id="line2d_9">
    <path d="M 100.028101 276.62445 
L 115.251879 300.564436 
" clip-path="url(#pca6c778b15)" style="fill: none; stroke: #000000; stroke-width: 2; stroke-linecap: square"/>
   </g>
   <g id="line2d_10">
    <path d="M 207.133717 329.571706 
L 260.113204 320.945615 
" clip-path="url(#pca6c778b15)" style="fill: none; stroke: #000000; stroke-width: 2; stroke-linecap: square"/>
   </g>
   <g id="line2d_11">
    <path d="M 313.538057 249.406803 
L 299.979799 209.215192 
" clip-path="url(#pca6c778b15)" style="fill: none; stroke: #000000; stroke-width: 2; stroke-linecap: square"/>
   </g>
   <g id="line2d_12">
    <path d="M 313.538057 249.406803 
L 300.465969 226.413086 
" clip-path="url(#pca6c778b15)" style="fill: none; stroke: #000000; stroke-width: 2; stroke-linecap: square"/>
   </g>
   <g id="line2d_13">
    <path d="M 313.538057 249.406803 
L 364.180666 283.602796 
" clip-path="url(#pca6c778b15)" style="fill: none; stroke: #000000; stroke-width: 2; stroke-linecap: square"/>
   </g>
   <g id="line2d_14">
    <path d="M 442.898233 212.132296 
L 417.282921 153.129177 
" clip-path="url(#pca6c778b15)" style="fill: none; stroke: #000000; stroke-width: 2; stroke-linecap: square"/>
   </g>
   <g id="line2d_15">
    <path d="M 417.282921 153.129177 
L 373.504164 142.607561 
" clip-path="url(#pca6c778b15)" style="fill: none; stroke: #000000; stroke-width: 2; stroke-linecap: square"/>
   </g>
   <g id="line2d_16">
    <path d="M 299.979799 209.215192 
L 300.465969 226.413086 
" clip-path="url(#pca6c778b15)" style="fill: none; stroke: #000000; stroke-width: 2; stroke-linecap: square"/>
   </g>
   <g id="line2d_17">
    <path d="M 364.180666 283.602796 
L 417.635361 276.316925 
" clip-path="url(#pca6c778b15)" style="fill: none; stroke: #000000; stroke-width: 2; stroke-linecap: square"/>
   </g>
   <g id="PathCollection_2">
    <defs>
     <path id="m807f77cd7d" d="M 0 3 
C 0.795609 3 1.55874 2.683901 2.12132 2.12132 
C 2.683901 1.55874 3 0.795609 3 0 
C 3 -0.795609 2.683901 -1.55874 2.12132 -2.12132 
C 1.55874 -2.683901 0.795609 -3 0 -3 
C -0.795609 -3 -1.55874 -2.683901 -2.12132 -2.12132 
C -2.683901 -1.55874 -3 -0.795609 -3 0 
C -3 0.795609 -2.683901 1.55874 -2.12132 2.12132 
C -1.55874 2.683901 -0.795609 3 0 3 
z
" style="stroke: #0000ff"/>
    </defs>
    <g clip-path="url(#pca6c778b15)">
     <use xlink:href="#m807f77cd7d" x="317.166584" y="228.046321" style="fill: #0000ff; stroke: #0000ff"/>
     <use xlink:href="#m807f77cd7d" x="302.991887" y="161.974819" style="fill: #0000ff; stroke: #0000ff"/>
     <use xlink:href="#m807f77cd7d" x="226.71472" y="96.415391" style="fill: #0000ff; stroke: #0000ff"/>
     <use xlink:href="#m807f77cd7d" x="180.851555" y="91.728294" style="fill: #0000ff; stroke: #0000ff"/>
     <use xlink:href="#m807f77cd7d" x="180.146666" y="112.042627" style="fill: #0000ff; stroke: #0000ff"/>
     <use xlink:href="#m807f77cd7d" x="108.748305" y="159.973331" style="fill: #0000ff; stroke: #0000ff"/>
     <use xlink:href="#m807f77cd7d" x="78.62164" y="203.981575" style="fill: #0000ff; stroke: #0000ff"/>
     <use xlink:href="#m807f77cd7d" x="100.028101" y="276.62445" style="fill: #0000ff; stroke: #0000ff"/>
     <use xlink:href="#m807f77cd7d" x="115.251879" y="300.564436" style="fill: #0000ff; stroke: #0000ff"/>
     <use xlink:href="#m807f77cd7d" x="207.133717" y="329.571706" style="fill: #0000ff; stroke: #0000ff"/>
     <use xlink:href="#m807f77cd7d" x="260.113204" y="320.945615" style="fill: #0000ff; stroke: #0000ff"/>
     <use xlink:href="#m807f77cd7d" x="313.538057" y="249.406803" style="fill: #0000ff; stroke: #0000ff"/>
     <use xlink:href="#m807f77cd7d" x="442.898233" y="212.132296" style="fill: #0000ff; stroke: #0000ff"/>
     <use xlink:href="#m807f77cd7d" x="417.282921" y="153.129177" style="fill: #0000ff; stroke: #0000ff"/>
     <use xlink:href="#m807f77cd7d" x="373.504164" y="142.607561" style="fill: #0000ff; stroke: #0000ff"/>
     <use xlink:href="#m807f77cd7d" x="299.979799" y="209.215192" style="fill: #0000ff; stroke: #0000ff"/>
     <use xlink:href="#m807f77cd7d" x="300.465969" y="226.413086" style="fill: #0000ff; stroke: #0000ff"/>
     <use xlink:href="#m807f77cd7d" x="364.180666" y="283.602796" style="fill: #0000ff; stroke: #0000ff"/>
     <use xlink:href="#m807f77cd7d" x="417.635361" y="276.316925" style="fill: #0000ff; stroke: #0000ff"/>
    </g>
   </g>
  </g>
  <g id="axes_2">
   <g id="patch_40">
    <path d="M 558.480126 414.1 
L 1065.6 414.1 
L 1065.6 7.2 
L 558.480126 7.2 
z
" style="fill: #ffffff"/>
   </g>
   <g id="matplotlib.axis_1">
    <g id="xtick_1">
     <g id="line2d_18">
      <defs>
       <path id="m509337e7b7" d="M 0 0 
L 0 3.5 
" style="stroke: #000000; stroke-width: 0.8"/>
      </defs>
      <g>
       <use xlink:href="#m509337e7b7" x="571.825386" y="414.1" style="stroke: #000000; stroke-width: 0.8"/>
      </g>
     </g>
    </g>
    <g id="xtick_2">
     <g id="line2d_19">
      <g>
       <use xlink:href="#m509337e7b7" x="598.515906" y="414.1" style="stroke: #000000; stroke-width: 0.8"/>
      </g>
     </g>
    </g>
    <g id="xtick_3">
     <g id="line2d_20">
      <g>
       <use xlink:href="#m509337e7b7" x="625.206426" y="414.1" style="stroke: #000000; stroke-width: 0.8"/>
      </g>
     </g>
    </g>
    <g id="xtick_4">
     <g id="line2d_21">
      <g>
       <use xlink:href="#m509337e7b7" x="651.896945" y="414.1" style="stroke: #000000; stroke-width: 0.8"/>
      </g>
     </g>
    </g>
    <g id="xtick_5">
     <g id="line2d_22">
      <g>
       <use xlink:href="#m509337e7b7" x="678.587465" y="414.1" style="stroke: #000000; stroke-width: 0.8"/>
      </g>
     </g>
    </g>
    <g id="xtick_6">
     <g id="line2d_23">
      <g>
       <use xlink:href="#m509337e7b7" x="705.277985" y="414.1" style="stroke: #000000; stroke-width: 0.8"/>
      </g>
     </g>
    </g>
    <g id="xtick_7">
     <g id="line2d_24">
      <g>
       <use xlink:href="#m509337e7b7" x="731.968504" y="414.1" style="stroke: #000000; stroke-width: 0.8"/>
      </g>
     </g>
    </g>
    <g id="xtick_8">
     <g id="line2d_25">
      <g>
       <use xlink:href="#m509337e7b7" x="758.659024" y="414.1" style="stroke: #000000; stroke-width: 0.8"/>
      </g>
     </g>
    </g>
    <g id="xtick_9">
     <g id="line2d_26">
      <g>
       <use xlink:href="#m509337e7b7" x="785.349544" y="414.1" style="stroke: #000000; stroke-width: 0.8"/>
      </g>
     </g>
    </g>
    <g id="xtick_10">
     <g id="line2d_27">
      <g>
       <use xlink:href="#m509337e7b7" x="812.040063" y="414.1" style="stroke: #000000; stroke-width: 0.8"/>
      </g>
     </g>
    </g>
    <g id="xtick_11">
     <g id="line2d_28">
      <g>
       <use xlink:href="#m509337e7b7" x="838.730583" y="414.1" style="stroke: #000000; stroke-width: 0.8"/>
      </g>
     </g>
    </g>
    <g id="xtick_12">
     <g id="line2d_29">
      <g>
       <use xlink:href="#m509337e7b7" x="865.421103" y="414.1" style="stroke: #000000; stroke-width: 0.8"/>
      </g>
     </g>
    </g>
    <g id="xtick_13">
     <g id="line2d_30">
      <g>
       <use xlink:href="#m509337e7b7" x="892.111622" y="414.1" style="stroke: #000000; stroke-width: 0.8"/>
      </g>
     </g>
    </g>
    <g id="xtick_14">
     <g id="line2d_31">
      <g>
       <use xlink:href="#m509337e7b7" x="918.802142" y="414.1" style="stroke: #000000; stroke-width: 0.8"/>
      </g>
     </g>
    </g>
    <g id="xtick_15">
     <g id="line2d_32">
      <g>
       <use xlink:href="#m509337e7b7" x="945.492662" y="414.1" style="stroke: #000000; stroke-width: 0.8"/>
      </g>
     </g>
    </g>
    <g id="xtick_16">
     <g id="line2d_33">
      <g>
       <use xlink:href="#m509337e7b7" x="972.183181" y="414.1" style="stroke: #000000; stroke-width: 0.8"/>
      </g>
     </g>
    </g>
    <g id="xtick_17">
     <g id="line2d_34">
      <g>
       <use xlink:href="#m509337e7b7" x="998.873701" y="414.1" style="stroke: #000000; stroke-width: 0.8"/>
      </g>
     </g>
    </g>
    <g id="xtick_18">
     <g id="line2d_35">
      <g>
       <use xlink:href="#m509337e7b7" x="1025.564221" y="414.1" style="stroke: #000000; stroke-width: 0.8"/>
      </g>
     </g>
    </g>
    <g id="xtick_19">
     <g id="line2d_36">
      <g>
       <use xlink:href="#m509337e7b7" x="1052.25474" y="414.1" style="stroke: #000000; stroke-width: 0.8"/>
      </g>
     </g>
    </g>
   </g>
   <g id="matplotlib.axis_2">
    <g id="ytick_1">
     <g id="line2d_37">
      <defs>
       <path id="m4e27bfbb93" d="M 0 0 
L -3.5 0 
" style="stroke: #000000; stroke-width: 0.8"/>
      </defs>
      <g>
       <use xlink:href="#m4e27bfbb93" x="558.480126" y="184.927061" style="stroke: #000000; stroke-width: 0.8"/>
      </g>
     </g>
     <g id="text_1">
      <!-- $r_{13}$ -->
      <g transform="translate(524.880126 192.525499) scale(0.2 -0.2)">
       <defs>
        <path id="DejaVuSans-Oblique-72" d="M 2853 2969 
Q 2766 3016 2653 3041 
Q 2541 3066 2413 3066 
Q 1953 3066 1609 2717 
Q 1266 2369 1153 1784 
L 800 0 
L 225 0 
L 909 3500 
L 1484 3500 
L 1375 2956 
Q 1603 3259 1920 3421 
Q 2238 3584 2597 3584 
Q 2691 3584 2781 3573 
Q 2872 3563 2963 3538 
L 2853 2969 
z
" transform="scale(0.015625)"/>
        <path id="DejaVuSans-31" d="M 794 531 
L 1825 531 
L 1825 4091 
L 703 3866 
L 703 4441 
L 1819 4666 
L 2450 4666 
L 2450 531 
L 3481 531 
L 3481 0 
L 794 0 
L 794 531 
z
" transform="scale(0.015625)"/>
        <path id="DejaVuSans-33" d="M 2597 2516 
Q 3050 2419 3304 2112 
Q 3559 1806 3559 1356 
Q 3559 666 3084 287 
Q 2609 -91 1734 -91 
Q 1441 -91 1130 -33 
Q 819 25 488 141 
L 488 750 
Q 750 597 1062 519 
Q 1375 441 1716 441 
Q 2309 441 2620 675 
Q 2931 909 2931 1356 
Q 2931 1769 2642 2001 
Q 2353 2234 1838 2234 
L 1294 2234 
L 1294 2753 
L 1863 2753 
Q 2328 2753 2575 2939 
Q 2822 3125 2822 3475 
Q 2822 3834 2567 4026 
Q 2313 4219 1838 4219 
Q 1578 4219 1281 4162 
Q 984 4106 628 3988 
L 628 4550 
Q 988 4650 1302 4700 
Q 1616 4750 1894 4750 
Q 2613 4750 3031 4423 
Q 3450 4097 3450 3541 
Q 3450 3153 3228 2886 
Q 3006 2619 2597 2516 
z
" transform="scale(0.015625)"/>
       </defs>
       <use xlink:href="#DejaVuSans-Oblique-72"/>
       <use xlink:href="#DejaVuSans-31" transform="translate(41.113281 -16.40625) scale(0.7)"/>
       <use xlink:href="#DejaVuSans-33" transform="translate(85.649414 -16.40625) scale(0.7)"/>
      </g>
     </g>
    </g>
   </g>
   <g id="line2d_38">
    <path d="M 598.515906 414.1 
L 598.515906 341.680163 
L 625.206426 341.680163 
L 625.206426 414.1 
" clip-path="url(#p16e2cac64c)" style="fill: none; stroke: #ff0000; stroke-width: 5; stroke-linecap: square"/>
   </g>
   <g id="line2d_39">
    <path d="M 571.825386 414.1 
L 571.825386 249.846779 
L 611.861166 249.846779 
L 611.861166 341.680163 
" clip-path="url(#p16e2cac64c)" style="fill: none; stroke: #ff0000; stroke-width: 5; stroke-linecap: square"/>
   </g>
   <g id="line2d_40">
    <path d="M 651.896945 414.1 
L 651.896945 313.020995 
L 678.587465 313.020995 
L 678.587465 414.1 
" clip-path="url(#p16e2cac64c)" style="fill: none; stroke: #ff0000; stroke-width: 5; stroke-linecap: square"/>
   </g>
   <g id="line2d_41">
    <path d="M 705.277985 414.1 
L 705.277985 224.086462 
L 731.968504 224.086462 
L 731.968504 414.1 
" clip-path="url(#p16e2cac64c)" style="fill: none; stroke: #ff0000; stroke-width: 5; stroke-linecap: square"/>
   </g>
   <g id="line2d_42">
    <path d="M 758.659024 414.1 
L 758.659024 222.858095 
L 785.349544 222.858095 
L 785.349544 414.1 
" clip-path="url(#p16e2cac64c)" style="fill: none; stroke: #ff0000; stroke-width: 5; stroke-linecap: square"/>
   </g>
   <g id="line2d_43">
    <path d="M 892.111622 414.1 
L 892.111622 354.314891 
L 918.802142 354.314891 
L 918.802142 414.1 
" clip-path="url(#p16e2cac64c)" style="fill: none; stroke: #ff0000; stroke-width: 5; stroke-linecap: square"/>
   </g>
   <g id="line2d_44">
    <path d="M 865.421103 414.1 
L 865.421103 352.802549 
L 905.456882 352.802549 
L 905.456882 354.314891 
" clip-path="url(#p16e2cac64c)" style="fill: none; stroke: #ff0000; stroke-width: 5; stroke-linecap: square"/>
   </g>
   <g id="line2d_45">
    <path d="M 838.730583 414.1 
L 838.730583 336.906263 
L 885.438992 336.906263 
L 885.438992 352.802549 
" clip-path="url(#p16e2cac64c)" style="fill: none; stroke: #ff0000; stroke-width: 5; stroke-linecap: square"/>
   </g>
   <g id="line2d_46">
    <path d="M 812.040063 414.1 
L 812.040063 245.44935 
L 862.084788 245.44935 
L 862.084788 336.906263 
" clip-path="url(#p16e2cac64c)" style="fill: none; stroke: #ff0000; stroke-width: 5; stroke-linecap: square"/>
   </g>
   <g id="line2d_47">
    <path d="M 945.492662 414.1 
L 945.492662 221.88972 
L 972.183181 221.88972 
L 972.183181 414.1 
" clip-path="url(#p16e2cac64c)" style="fill: none; stroke: #ff0000; stroke-width: 5; stroke-linecap: square"/>
   </g>
   <g id="line2d_48">
    <path d="M 837.062425 245.44935 
L 837.062425 196.387606 
L 958.837921 196.387606 
L 958.837921 221.88972 
" clip-path="url(#p16e2cac64c)" style="fill: none; stroke: #ff0000; stroke-width: 5; stroke-linecap: square"/>
   </g>
   <g id="line2d_49">
    <path d="M 1025.564221 414.1 
L 1025.564221 253.682782 
L 1052.25474 253.682782 
L 1052.25474 414.1 
" clip-path="url(#p16e2cac64c)" style="fill: none; stroke: #ff0000; stroke-width: 5; stroke-linecap: square"/>
   </g>
   <g id="line2d_50">
    <path d="M 998.873701 414.1 
L 998.873701 184.927061 
L 1038.90948 184.927061 
L 1038.90948 253.682782 
" clip-path="url(#p16e2cac64c)" style="fill: none; stroke: #ff0000; stroke-width: 5; stroke-linecap: square"/>
   </g>
   <g id="line2d_51">
    <path d="M 591.843276 249.846779 
L 591.843276 184.927061 
" clip-path="url(#p16e2cac64c)" style="fill: none; stroke: #ff0000; stroke-width: 5; stroke-linecap: square"/>
   </g>
   <g id="line2d_52">
    <path d="M 665.242205 313.020995 
L 665.242205 184.927061 
" clip-path="url(#p16e2cac64c)" style="fill: none; stroke: #ff0000; stroke-width: 5; stroke-linecap: square"/>
   </g>
   <g id="line2d_53">
    <path d="M 718.623244 224.086462 
L 718.623244 184.927061 
" clip-path="url(#p16e2cac64c)" style="fill: none; stroke: #ff0000; stroke-width: 5; stroke-linecap: square"/>
   </g>
   <g id="line2d_54">
    <path d="M 772.004284 222.858095 
L 772.004284 184.927061 
" clip-path="url(#p16e2cac64c)" style="fill: none; stroke: #ff0000; stroke-width: 5; stroke-linecap: square"/>
   </g>
   <g id="line2d_55">
    <path d="M 897.950173 196.387606 
L 897.950173 184.927061 
" clip-path="url(#p16e2cac64c)" style="fill: none; stroke: #ff0000; stroke-width: 5; stroke-linecap: square"/>
   </g>
   <g id="line2d_56">
    <path d="M 1018.891591 184.927061 
L 1018.891591 184.927061 
" clip-path="url(#p16e2cac64c)" style="fill: none; stroke: #ff0000; stroke-width: 5; stroke-linecap: square"/>
   </g>
   <g id="patch_41">
    <path d="M 558.480126 414.1 
L 558.480126 7.2 
" style="fill: none; stroke: #000000; stroke-width: 0.8; stroke-linejoin: miter; stroke-linecap: square"/>
   </g>
   <g id="patch_42">
    <path d="M 1065.6 414.1 
L 1065.6 7.2 
" style="fill: none; stroke: #000000; stroke-width: 0.8; stroke-linejoin: miter; stroke-linecap: square"/>
   </g>
   <g id="patch_43">
    <path d="M 558.480126 414.1 
L 1065.6 414.1 
" style="fill: none; stroke: #000000; stroke-width: 0.8; stroke-linejoin: miter; stroke-linecap: square"/>
   </g>
   <g id="patch_44">
    <path d="M 558.480126 7.2 
L 1065.6 7.2 
" style="fill: none; stroke: #000000; stroke-width: 0.8; stroke-linejoin: miter; stroke-linecap: square"/>
   </g>
   <g id="PathCollection_3">
    <defs>
     <path id="mc6b0524b6f" d="M 0 6.123724 
C 1.624031 6.123724 3.181764 5.47849 4.330127 4.330127 
C 5.47849 3.181764 6.123724 1.624031 6.123724 0 
C 6.123724 -1.624031 5.47849 -3.181764 4.330127 -4.330127 
C 3.181764 -5.47849 1.624031 -6.123724 0 -6.123724 
C -1.624031 -6.123724 -3.181764 -5.47849 -4.330127 -4.330127 
C -5.47849 -3.181764 -6.123724 -1.624031 -6.123724 0 
C -6.123724 1.624031 -5.47849 3.181764 -4.330127 4.330127 
C -3.181764 5.47849 -1.624031 6.123724 0 6.123724 
z
" style="stroke: #0000ff"/>
    </defs>
    <g clip-path="url(#p16e2cac64c)">
     <use xlink:href="#mc6b0524b6f" x="571.825386" y="414.1" style="fill: #0000ff; stroke: #0000ff"/>
     <use xlink:href="#mc6b0524b6f" x="598.515906" y="414.1" style="fill: #0000ff; stroke: #0000ff"/>
     <use xlink:href="#mc6b0524b6f" x="625.206426" y="414.1" style="fill: #0000ff; stroke: #0000ff"/>
     <use xlink:href="#mc6b0524b6f" x="651.896945" y="414.1" style="fill: #0000ff; stroke: #0000ff"/>
     <use xlink:href="#mc6b0524b6f" x="678.587465" y="414.1" style="fill: #0000ff; stroke: #0000ff"/>
     <use xlink:href="#mc6b0524b6f" x="705.277985" y="414.1" style="fill: #0000ff; stroke: #0000ff"/>
     <use xlink:href="#mc6b0524b6f" x="731.968504" y="414.1" style="fill: #0000ff; stroke: #0000ff"/>
     <use xlink:href="#mc6b0524b6f" x="758.659024" y="414.1" style="fill: #0000ff; stroke: #0000ff"/>
     <use xlink:href="#mc6b0524b6f" x="785.349544" y="414.1" style="fill: #0000ff; stroke: #0000ff"/>
     <use xlink:href="#mc6b0524b6f" x="812.040063" y="414.1" style="fill: #0000ff; stroke: #0000ff"/>
     <use xlink:href="#mc6b0524b6f" x="838.730583" y="414.1" style="fill: #0000ff; stroke: #0000ff"/>
     <use xlink:href="#mc6b0524b6f" x="865.421103" y="414.1" style="fill: #0000ff; stroke: #0000ff"/>
     <use xlink:href="#mc6b0524b6f" x="892.111622" y="414.1" style="fill: #0000ff; stroke: #0000ff"/>
     <use xlink:href="#mc6b0524b6f" x="918.802142" y="414.1" style="fill: #0000ff; stroke: #0000ff"/>
     <use xlink:href="#mc6b0524b6f" x="945.492662" y="414.1" style="fill: #0000ff; stroke: #0000ff"/>
     <use xlink:href="#mc6b0524b6f" x="972.183181" y="414.1" style="fill: #0000ff; stroke: #0000ff"/>
     <use xlink:href="#mc6b0524b6f" x="998.873701" y="414.1" style="fill: #0000ff; stroke: #0000ff"/>
     <use xlink:href="#mc6b0524b6f" x="1025.564221" y="414.1" style="fill: #0000ff; stroke: #0000ff"/>
     <use xlink:href="#mc6b0524b6f" x="1052.25474" y="414.1" style="fill: #0000ff; stroke: #0000ff"/>
    </g>
   </g>
  </g>
 </g>
 <defs>
  <clipPath id="pca6c778b15">
   <rect x="7.2" y="20.306654" width="507.119874" height="380.686692"/>
  </clipPath>
  <clipPath id="p16e2cac64c">
   <rect x="558.480126" y="7.2" width="507.119874" height="406.9"/>
  </clipPath>
 </defs>
</svg>
