<?xml version="1.0" encoding="utf-8" standalone="no"?>
<!DOCTYPE svg PUBLIC "-//W3C//DTD SVG 1.1//EN"
  "http://www.w3.org/Graphics/SVG/1.1/DTD/svg11.dtd">
<svg xmlns:xlink="http://www.w3.org/1999/xlink" width="1072.8pt" height="424.8pt" viewBox="0 0 1072.8 424.8" xmlns="http://www.w3.org/2000/svg" version="1.1">
 <metadata>
  <rdf:RDF xmlns:dc="http://purl.org/dc/elements/1.1/" xmlns:cc="http://creativecommons.org/ns#" xmlns:rdf="http://www.w3.org/1999/02/22-rdf-syntax-ns#">
   <cc:Work>
    <dc:type rdf:resource="http://purl.org/dc/dcmitype/StillImage"/>
    <dc:date>2023-10-24T09:47:31.662966</dc:date>
    <dc:format>image/svg+xml</dc:format>
    <dc:creator>
     <cc:Agent>
      <dc:title>Matplotlib v3.7.2, https://matplotlib.org/</dc:title>
     </cc:Agent>
    </dc:creator>
   </cc:Work>
  </rdf:RDF>
 </metadata>
 <defs>
  <style type="text/css">*{stroke-linejoin: round; stroke-linecap: butt}</style>
 </defs>
 <g id="figure_1">
  <g id="patch_1">
   <path d="M 0 424.8 
L 1072.8 424.8 
L 1072.8 -0 
L 0 -0 
z
" style="fill: #ffffff"/>
  </g>
  <g id="axes_1">
   <g id="PathCollection_1">
    <defs>
     <path id="mbe4494b121" d="M 0 3 
C 0.795609 3 1.55874 2.683901 2.12132 2.12132 
C 2.683901 1.55874 3 0.795609 3 0 
C 3 -0.795609 2.683901 -1.55874 2.12132 -2.12132 
C 1.55874 -2.683901 0.795609 -3 0 -3 
C -0.795609 -3 -1.55874 -2.683901 -2.12132 -2.12132 
C -2.683901 -1.55874 -3 -0.795609 -3 0 
C -3 0.795609 -2.683901 1.55874 -2.12132 2.12132 
C -1.55874 2.683901 -0.795609 3 0 3 
z
" style="stroke: #1f77b4; stroke-opacity: 0"/>
    </defs>
    <g clip-path="url(#pcb71bedf36)">
     <use xlink:href="#mbe4494b121" x="7.2" y="402.646412" style="fill: #1f77b4; fill-opacity: 0; stroke: #1f77b4; stroke-opacity: 0"/>
     <use xlink:href="#mbe4494b121" x="518.724033" y="18.653588" style="fill: #1f77b4; fill-opacity: 0; stroke: #1f77b4; stroke-opacity: 0"/>
    </g>
   </g>
   <g id="patch_2">
    <path d="M 319.858536 236.66041 
C 322.102952 236.66041 324.255744 235.768694 325.842786 234.181653 
C 327.429828 232.594611 328.321544 230.441818 328.321544 228.197402 
C 328.321544 225.952986 327.429828 223.800194 325.842786 222.213152 
C 324.255744 220.62611 322.102952 219.734394 319.858536 219.734394 
C 317.61412 219.734394 315.461327 220.62611 313.874285 222.213152 
C 312.287243 223.800194 311.395527 225.952986 311.395527 228.197402 
C 311.395527 230.441818 312.287243 232.594611 313.874285 234.181653 
C 315.461327 235.768694 317.61412 236.66041 319.858536 236.66041 
z
" clip-path="url(#pcb71bedf36)" style="fill: #ff0000; opacity: 0.2"/>
   </g>
   <g id="patch_3">
    <path d="M 305.560736 170.0151 
C 307.805152 170.0151 309.957945 169.123384 311.544987 167.536342 
C 313.132029 165.949301 314.023745 163.796508 314.023745 161.552092 
C 314.023745 159.307676 313.132029 157.154883 311.544987 155.567842 
C 309.957945 153.9808 307.805152 153.089084 305.560736 153.089084 
C 303.316321 153.089084 301.163528 153.9808 299.576486 155.567842 
C 297.989444 157.154883 297.097728 159.307676 297.097728 161.552092 
C 297.097728 163.796508 297.989444 165.949301 299.576486 167.536342 
C 301.163528 169.123384 303.316321 170.0151 305.560736 170.0151 
z
" clip-path="url(#pcb71bedf36)" style="fill: #ff0000; opacity: 0.2"/>
   </g>
   <g id="patch_4">
    <path d="M 228.621129 103.886311 
C 230.865545 103.886311 233.018338 102.994596 234.605379 101.407554 
C 236.192421 99.820512 237.084137 97.667719 237.084137 95.423303 
C 237.084137 93.178887 236.192421 91.026095 234.605379 89.439053 
C 233.018338 87.852011 230.865545 86.960295 228.621129 86.960295 
C 226.376713 86.960295 224.22392 87.852011 222.636879 89.439053 
C 221.049837 91.026095 220.158121 93.178887 220.158121 95.423303 
C 220.158121 97.667719 221.049837 99.820512 222.636879 101.407554 
C 224.22392 102.994596 226.376713 103.886311 228.621129 103.886311 
z
" clip-path="url(#pcb71bedf36)" style="fill: #ff0000; opacity: 0.2"/>
   </g>
   <g id="patch_5">
    <path d="M 182.359659 99.158509 
C 184.604075 99.158509 186.756867 98.266793 188.343909 96.679751 
C 189.930951 95.092709 190.822667 92.939916 190.822667 90.695501 
C 190.822667 88.451085 189.930951 86.298292 188.343909 84.71125 
C 186.756867 83.124208 184.604075 82.232492 182.359659 82.232492 
C 180.115243 82.232492 177.96245 83.124208 176.375408 84.71125 
C 174.788366 86.298292 173.896651 88.451085 173.896651 90.695501 
C 173.896651 92.939916 174.788366 95.092709 176.375408 96.679751 
C 177.96245 98.266793 180.115243 99.158509 182.359659 99.158509 
z
" clip-path="url(#pcb71bedf36)" style="fill: #ff0000; opacity: 0.2"/>
   </g>
   <g id="patch_6">
    <path d="M 181.648648 119.649264 
C 183.893064 119.649264 186.045856 118.757548 187.632898 117.170507 
C 189.21994 115.583465 190.111656 113.430672 190.111656 111.186256 
C 190.111656 108.94184 189.21994 106.789048 187.632898 105.202006 
C 186.045856 103.614964 183.893064 102.723248 181.648648 102.723248 
C 179.404232 102.723248 177.251439 103.614964 175.664397 105.202006 
C 174.077356 106.789048 173.18564 108.94184 173.18564 111.186256 
C 173.18564 113.430672 174.077356 115.583465 175.664397 117.170507 
C 177.251439 118.757548 179.404232 119.649264 181.648648 119.649264 
z
" clip-path="url(#pcb71bedf36)" style="fill: #ff0000; opacity: 0.2"/>
   </g>
   <g id="patch_7">
    <path d="M 109.630216 167.99623 
C 111.874632 167.99623 114.027425 167.104514 115.614467 165.517473 
C 117.201508 163.930431 118.093224 161.777638 118.093224 159.533222 
C 118.093224 157.288806 117.201508 155.136013 115.614467 153.548972 
C 114.027425 151.96193 111.874632 151.070214 109.630216 151.070214 
C 107.3858 151.070214 105.233008 151.96193 103.645966 153.548972 
C 102.058924 155.136013 101.167208 157.288806 101.167208 159.533222 
C 101.167208 161.777638 102.058924 163.930431 103.645966 165.517473 
C 105.233008 167.104514 107.3858 167.99623 109.630216 167.99623 
z
" clip-path="url(#pcb71bedf36)" style="fill: #ff0000; opacity: 0.2"/>
   </g>
   <g id="patch_8">
    <path d="M 79.241912 212.38667 
C 81.486328 212.38667 83.639121 211.494954 85.226163 209.907912 
C 86.813205 208.32087 87.704921 206.168078 87.704921 203.923662 
C 87.704921 201.679246 86.813205 199.526453 85.226163 197.939411 
C 83.639121 196.35237 81.486328 195.460654 79.241912 195.460654 
C 76.997496 195.460654 74.844704 196.35237 73.257662 197.939411 
C 71.67062 199.526453 70.778904 201.679246 70.778904 203.923662 
C 70.778904 206.168078 71.67062 208.32087 73.257662 209.907912 
C 74.844704 211.494954 76.997496 212.38667 79.241912 212.38667 
z
" clip-path="url(#pcb71bedf36)" style="fill: #ff0000; opacity: 0.2"/>
   </g>
   <g id="patch_9">
    <path d="M 100.834281 285.660423 
C 103.078697 285.660423 105.23149 284.768708 106.818532 283.181666 
C 108.405573 281.594624 109.297289 279.441831 109.297289 277.197415 
C 109.297289 274.952999 108.405573 272.800207 106.818532 271.213165 
C 105.23149 269.626123 103.078697 268.734407 100.834281 268.734407 
C 98.589865 268.734407 96.437072 269.626123 94.850031 271.213165 
C 93.262989 272.800207 92.371273 274.952999 92.371273 277.197415 
C 92.371273 279.441831 93.262989 281.594624 94.850031 283.181666 
C 96.437072 284.768708 98.589865 285.660423 100.834281 285.660423 
z
" clip-path="url(#pcb71bedf36)" style="fill: #ff0000; opacity: 0.2"/>
   </g>
   <g id="patch_10">
    <path d="M 116.190272 309.808319 
C 118.434688 309.808319 120.587481 308.916603 122.174523 307.329562 
C 123.761565 305.74252 124.653281 303.589727 124.653281 301.345311 
C 124.653281 299.100895 123.761565 296.948103 122.174523 295.361061 
C 120.587481 293.774019 118.434688 292.882303 116.190272 292.882303 
C 113.945856 292.882303 111.793064 293.774019 110.206022 295.361061 
C 108.61898 296.948103 107.727264 299.100895 107.727264 301.345311 
C 107.727264 303.589727 108.61898 305.74252 110.206022 307.329562 
C 111.793064 308.916603 113.945856 309.808319 116.190272 309.808319 
z
" clip-path="url(#pcb71bedf36)" style="fill: #ff0000; opacity: 0.2"/>
   </g>
   <g id="patch_11">
    <path d="M 208.870072 339.067508 
C 211.114488 339.067508 213.26728 338.175792 214.854322 336.58875 
C 216.441364 335.001708 217.33308 332.848915 217.33308 330.604499 
C 217.33308 328.360084 216.441364 326.207291 214.854322 324.620249 
C 213.26728 323.033207 211.114488 322.141491 208.870072 322.141491 
C 206.625656 322.141491 204.472863 323.033207 202.885821 324.620249 
C 201.29878 326.207291 200.407064 328.360084 200.407064 330.604499 
C 200.407064 332.848915 201.29878 335.001708 202.885821 336.58875 
C 204.472863 338.175792 206.625656 339.067508 208.870072 339.067508 
z
" clip-path="url(#pcb71bedf36)" style="fill: #ff0000; opacity: 0.2"/>
   </g>
   <g id="patch_12">
    <path d="M 262.309667 330.366502 
C 264.554083 330.366502 266.706876 329.474787 268.293918 327.887745 
C 269.880959 326.300703 270.772675 324.14791 270.772675 321.903494 
C 270.772675 319.659078 269.880959 317.506286 268.293918 315.919244 
C 266.706876 314.332202 264.554083 313.440486 262.309667 313.440486 
C 260.065251 313.440486 257.912458 314.332202 256.325417 315.919244 
C 254.738375 317.506286 253.846659 319.659078 253.846659 321.903494 
C 253.846659 324.14791 254.738375 326.300703 256.325417 327.887745 
C 257.912458 329.474787 260.065251 330.366502 262.309667 330.366502 
z
" clip-path="url(#pcb71bedf36)" style="fill: #ff0000; opacity: 0.2"/>
   </g>
   <g id="patch_13">
    <path d="M 316.198497 258.206401 
C 318.442913 258.206401 320.595705 257.314685 322.182747 255.727643 
C 323.769789 254.140601 324.661505 251.987809 324.661505 249.743393 
C 324.661505 247.498977 323.769789 245.346184 322.182747 243.759142 
C 320.595705 242.172101 318.442913 241.280385 316.198497 241.280385 
C 313.954081 241.280385 311.801288 242.172101 310.214246 243.759142 
C 308.627204 245.346184 307.735489 247.498977 307.735489 249.743393 
C 307.735489 251.987809 308.627204 254.140601 310.214246 255.727643 
C 311.801288 257.314685 313.954081 258.206401 316.198497 258.206401 
z
" clip-path="url(#pcb71bedf36)" style="fill: #ff0000; opacity: 0.2"/>
   </g>
   <g id="patch_14">
    <path d="M 446.682121 220.608177 
C 448.926537 220.608177 451.079329 219.716461 452.666371 218.12942 
C 454.253413 216.542378 455.145129 214.389585 455.145129 212.145169 
C 455.145129 209.900753 454.253413 207.747961 452.666371 206.160919 
C 451.079329 204.573877 448.926537 203.682161 446.682121 203.682161 
C 444.437705 203.682161 442.284912 204.573877 440.69787 206.160919 
C 439.110829 207.747961 438.219113 209.900753 438.219113 212.145169 
C 438.219113 214.389585 439.110829 216.542378 440.69787 218.12942 
C 442.284912 219.716461 444.437705 220.608177 446.682121 220.608177 
z
" clip-path="url(#pcb71bedf36)" style="fill: #ff0000; opacity: 0.2"/>
   </g>
   <g id="patch_15">
    <path d="M 420.844349 161.092636 
C 423.088765 161.092636 425.241557 160.200921 426.828599 158.613879 
C 428.415641 157.026837 429.307357 154.874044 429.307357 152.629628 
C 429.307357 150.385212 428.415641 148.23242 426.828599 146.645378 
C 425.241557 145.058336 423.088765 144.16662 420.844349 144.16662 
C 418.599933 144.16662 416.44714 145.058336 414.860098 146.645378 
C 413.273057 148.23242 412.381341 150.385212 412.381341 152.629628 
C 412.381341 154.874044 413.273057 157.026837 414.860098 158.613879 
C 416.44714 160.200921 418.599933 161.092636 420.844349 161.092636 
z
" clip-path="url(#pcb71bedf36)" style="fill: #ff0000; opacity: 0.2"/>
   </g>
   <g id="patch_16">
    <path d="M 376.685388 150.479644 
C 378.929804 150.479644 381.082597 149.587928 382.669639 148.000887 
C 384.25668 146.413845 385.148396 144.261052 385.148396 142.016636 
C 385.148396 139.77222 384.25668 137.619428 382.669639 136.032386 
C 381.082597 134.445344 378.929804 133.553628 376.685388 133.553628 
C 374.440972 133.553628 372.288179 134.445344 370.701138 136.032386 
C 369.114096 137.619428 368.22238 139.77222 368.22238 142.016636 
C 368.22238 144.261052 369.114096 146.413845 370.701138 148.000887 
C 372.288179 149.587928 374.440972 150.479644 376.685388 150.479644 
z
" clip-path="url(#pcb71bedf36)" style="fill: #ff0000; opacity: 0.2"/>
   </g>
   <g id="patch_17">
    <path d="M 302.522489 217.66574 
C 304.766905 217.66574 306.919698 216.774024 308.50674 215.186982 
C 310.093782 213.59994 310.985498 211.447148 310.985498 209.202732 
C 310.985498 206.958316 310.093782 204.805523 308.50674 203.218481 
C 306.919698 201.631439 304.766905 200.739723 302.522489 200.739723 
C 300.278073 200.739723 298.125281 201.631439 296.538239 203.218481 
C 294.951197 204.805523 294.059481 206.958316 294.059481 209.202732 
C 294.059481 211.447148 294.951197 213.59994 296.538239 215.186982 
C 298.125281 216.774024 300.278073 217.66574 302.522489 217.66574 
z
" clip-path="url(#pcb71bedf36)" style="fill: #ff0000; opacity: 0.2"/>
   </g>
   <g id="patch_18">
    <path d="M 303.012882 235.012991 
C 305.257298 235.012991 307.410091 234.121275 308.997133 232.534234 
C 310.584174 230.947192 311.47589 228.794399 311.47589 226.549983 
C 311.47589 224.305567 310.584174 222.152775 308.997133 220.565733 
C 307.410091 218.978691 305.257298 218.086975 303.012882 218.086975 
C 300.768466 218.086975 298.615674 218.978691 297.028632 220.565733 
C 295.44159 222.152775 294.549874 224.305567 294.549874 226.549983 
C 294.549874 228.794399 295.44159 230.947192 297.028632 232.534234 
C 298.615674 234.121275 300.768466 235.012991 303.012882 235.012991 
z
" clip-path="url(#pcb71bedf36)" style="fill: #ff0000; opacity: 0.2"/>
   </g>
   <g id="patch_19">
    <path d="M 367.280919 292.699374 
C 369.525335 292.699374 371.678128 291.807658 373.26517 290.220616 
C 374.852211 288.633574 375.743927 286.480782 375.743927 284.236366 
C 375.743927 281.99195 374.852211 279.839157 373.26517 278.252115 
C 371.678128 276.665074 369.525335 275.773358 367.280919 275.773358 
C 365.036503 275.773358 362.88371 276.665074 361.296669 278.252115 
C 359.709627 279.839157 358.817911 281.99195 358.817911 284.236366 
C 358.817911 286.480782 359.709627 288.633574 361.296669 290.220616 
C 362.88371 291.807658 365.036503 292.699374 367.280919 292.699374 
z
" clip-path="url(#pcb71bedf36)" style="fill: #ff0000; opacity: 0.2"/>
   </g>
   <g id="patch_20">
    <path d="M 421.199849 285.350227 
C 423.444265 285.350227 425.597058 284.458511 427.184099 282.87147 
C 428.771141 281.284428 429.662857 279.131635 429.662857 276.887219 
C 429.662857 274.642803 428.771141 272.490011 427.184099 270.902969 
C 425.597058 269.315927 423.444265 268.424211 421.199849 268.424211 
C 418.955433 268.424211 416.80264 269.315927 415.215598 270.902969 
C 413.628557 272.490011 412.736841 274.642803 412.736841 276.887219 
C 412.736841 279.131635 413.628557 281.284428 415.215598 282.87147 
C 416.80264 284.458511 418.955433 285.350227 421.199849 285.350227 
z
" clip-path="url(#pcb71bedf36)" style="fill: #ff0000; opacity: 0.2"/>
   </g>
   <g id="patch_21">
    <path d="M 319.858536 236.66041 
C 322.102952 236.66041 324.255744 235.768694 325.842786 234.181653 
C 327.429828 232.594611 328.321544 230.441818 328.321544 228.197402 
C 328.321544 225.952986 327.429828 223.800194 325.842786 222.213152 
C 324.255744 220.62611 322.102952 219.734394 319.858536 219.734394 
C 317.61412 219.734394 315.461327 220.62611 313.874285 222.213152 
C 312.287243 223.800194 311.395527 225.952986 311.395527 228.197402 
C 311.395527 230.441818 312.287243 232.594611 313.874285 234.181653 
C 315.461327 235.768694 317.61412 236.66041 319.858536 236.66041 
L 319.858536 236.66041 
z
" clip-path="url(#pcb71bedf36)" style="fill: none; stroke: #ff0000; stroke-width: 2; stroke-linejoin: miter"/>
   </g>
   <g id="patch_22">
    <path d="M 305.560736 170.0151 
C 307.805152 170.0151 309.957945 169.123384 311.544987 167.536342 
C 313.132029 165.949301 314.023745 163.796508 314.023745 161.552092 
C 314.023745 159.307676 313.132029 157.154883 311.544987 155.567842 
C 309.957945 153.9808 307.805152 153.089084 305.560736 153.089084 
C 303.316321 153.089084 301.163528 153.9808 299.576486 155.567842 
C 297.989444 157.154883 297.097728 159.307676 297.097728 161.552092 
C 297.097728 163.796508 297.989444 165.949301 299.576486 167.536342 
C 301.163528 169.123384 303.316321 170.0151 305.560736 170.0151 
L 305.560736 170.0151 
z
" clip-path="url(#pcb71bedf36)" style="fill: none; stroke: #ff0000; stroke-width: 2; stroke-linejoin: miter"/>
   </g>
   <g id="patch_23">
    <path d="M 228.621129 103.886311 
C 230.865545 103.886311 233.018338 102.994596 234.605379 101.407554 
C 236.192421 99.820512 237.084137 97.667719 237.084137 95.423303 
C 237.084137 93.178887 236.192421 91.026095 234.605379 89.439053 
C 233.018338 87.852011 230.865545 86.960295 228.621129 86.960295 
C 226.376713 86.960295 224.22392 87.852011 222.636879 89.439053 
C 221.049837 91.026095 220.158121 93.178887 220.158121 95.423303 
C 220.158121 97.667719 221.049837 99.820512 222.636879 101.407554 
C 224.22392 102.994596 226.376713 103.886311 228.621129 103.886311 
L 228.621129 103.886311 
z
" clip-path="url(#pcb71bedf36)" style="fill: none; stroke: #ff0000; stroke-width: 2; stroke-linejoin: miter"/>
   </g>
   <g id="patch_24">
    <path d="M 182.359659 99.158509 
C 184.604075 99.158509 186.756867 98.266793 188.343909 96.679751 
C 189.930951 95.092709 190.822667 92.939916 190.822667 90.695501 
C 190.822667 88.451085 189.930951 86.298292 188.343909 84.71125 
C 186.756867 83.124208 184.604075 82.232492 182.359659 82.232492 
C 180.115243 82.232492 177.96245 83.124208 176.375408 84.71125 
C 174.788366 86.298292 173.896651 88.451085 173.896651 90.695501 
C 173.896651 92.939916 174.788366 95.092709 176.375408 96.679751 
C 177.96245 98.266793 180.115243 99.158509 182.359659 99.158509 
L 182.359659 99.158509 
z
" clip-path="url(#pcb71bedf36)" style="fill: none; stroke: #ff0000; stroke-width: 2; stroke-linejoin: miter"/>
   </g>
   <g id="patch_25">
    <path d="M 181.648648 119.649264 
C 183.893064 119.649264 186.045856 118.757548 187.632898 117.170507 
C 189.21994 115.583465 190.111656 113.430672 190.111656 111.186256 
C 190.111656 108.94184 189.21994 106.789048 187.632898 105.202006 
C 186.045856 103.614964 183.893064 102.723248 181.648648 102.723248 
C 179.404232 102.723248 177.251439 103.614964 175.664397 105.202006 
C 174.077356 106.789048 173.18564 108.94184 173.18564 111.186256 
C 173.18564 113.430672 174.077356 115.583465 175.664397 117.170507 
C 177.251439 118.757548 179.404232 119.649264 181.648648 119.649264 
L 181.648648 119.649264 
z
" clip-path="url(#pcb71bedf36)" style="fill: none; stroke: #ff0000; stroke-width: 2; stroke-linejoin: miter"/>
   </g>
   <g id="patch_26">
    <path d="M 109.630216 167.99623 
C 111.874632 167.99623 114.027425 167.104514 115.614467 165.517473 
C 117.201508 163.930431 118.093224 161.777638 118.093224 159.533222 
C 118.093224 157.288806 117.201508 155.136013 115.614467 153.548972 
C 114.027425 151.96193 111.874632 151.070214 109.630216 151.070214 
C 107.3858 151.070214 105.233008 151.96193 103.645966 153.548972 
C 102.058924 155.136013 101.167208 157.288806 101.167208 159.533222 
C 101.167208 161.777638 102.058924 163.930431 103.645966 165.517473 
C 105.233008 167.104514 107.3858 167.99623 109.630216 167.99623 
L 109.630216 167.99623 
z
" clip-path="url(#pcb71bedf36)" style="fill: none; stroke: #ff0000; stroke-width: 2; stroke-linejoin: miter"/>
   </g>
   <g id="patch_27">
    <path d="M 79.241912 212.38667 
C 81.486328 212.38667 83.639121 211.494954 85.226163 209.907912 
C 86.813205 208.32087 87.704921 206.168078 87.704921 203.923662 
C 87.704921 201.679246 86.813205 199.526453 85.226163 197.939411 
C 83.639121 196.35237 81.486328 195.460654 79.241912 195.460654 
C 76.997496 195.460654 74.844704 196.35237 73.257662 197.939411 
C 71.67062 199.526453 70.778904 201.679246 70.778904 203.923662 
C 70.778904 206.168078 71.67062 208.32087 73.257662 209.907912 
C 74.844704 211.494954 76.997496 212.38667 79.241912 212.38667 
L 79.241912 212.38667 
z
" clip-path="url(#pcb71bedf36)" style="fill: none; stroke: #ff0000; stroke-width: 2; stroke-linejoin: miter"/>
   </g>
   <g id="patch_28">
    <path d="M 100.834281 285.660423 
C 103.078697 285.660423 105.23149 284.768708 106.818532 283.181666 
C 108.405573 281.594624 109.297289 279.441831 109.297289 277.197415 
C 109.297289 274.952999 108.405573 272.800207 106.818532 271.213165 
C 105.23149 269.626123 103.078697 268.734407 100.834281 268.734407 
C 98.589865 268.734407 96.437072 269.626123 94.850031 271.213165 
C 93.262989 272.800207 92.371273 274.952999 92.371273 277.197415 
C 92.371273 279.441831 93.262989 281.594624 94.850031 283.181666 
C 96.437072 284.768708 98.589865 285.660423 100.834281 285.660423 
L 100.834281 285.660423 
z
" clip-path="url(#pcb71bedf36)" style="fill: none; stroke: #ff0000; stroke-width: 2; stroke-linejoin: miter"/>
   </g>
   <g id="patch_29">
    <path d="M 116.190272 309.808319 
C 118.434688 309.808319 120.587481 308.916603 122.174523 307.329562 
C 123.761565 305.74252 124.653281 303.589727 124.653281 301.345311 
C 124.653281 299.100895 123.761565 296.948103 122.174523 295.361061 
C 120.587481 293.774019 118.434688 292.882303 116.190272 292.882303 
C 113.945856 292.882303 111.793064 293.774019 110.206022 295.361061 
C 108.61898 296.948103 107.727264 299.100895 107.727264 301.345311 
C 107.727264 303.589727 108.61898 305.74252 110.206022 307.329562 
C 111.793064 308.916603 113.945856 309.808319 116.190272 309.808319 
L 116.190272 309.808319 
z
" clip-path="url(#pcb71bedf36)" style="fill: none; stroke: #ff0000; stroke-width: 2; stroke-linejoin: miter"/>
   </g>
   <g id="patch_30">
    <path d="M 208.870072 339.067508 
C 211.114488 339.067508 213.26728 338.175792 214.854322 336.58875 
C 216.441364 335.001708 217.33308 332.848915 217.33308 330.604499 
C 217.33308 328.360084 216.441364 326.207291 214.854322 324.620249 
C 213.26728 323.033207 211.114488 322.141491 208.870072 322.141491 
C 206.625656 322.141491 204.472863 323.033207 202.885821 324.620249 
C 201.29878 326.207291 200.407064 328.360084 200.407064 330.604499 
C 200.407064 332.848915 201.29878 335.001708 202.885821 336.58875 
C 204.472863 338.175792 206.625656 339.067508 208.870072 339.067508 
L 208.870072 339.067508 
z
" clip-path="url(#pcb71bedf36)" style="fill: none; stroke: #ff0000; stroke-width: 2; stroke-linejoin: miter"/>
   </g>
   <g id="patch_31">
    <path d="M 262.309667 330.366502 
C 264.554083 330.366502 266.706876 329.474787 268.293918 327.887745 
C 269.880959 326.300703 270.772675 324.14791 270.772675 321.903494 
C 270.772675 319.659078 269.880959 317.506286 268.293918 315.919244 
C 266.706876 314.332202 264.554083 313.440486 262.309667 313.440486 
C 260.065251 313.440486 257.912458 314.332202 256.325417 315.919244 
C 254.738375 317.506286 253.846659 319.659078 253.846659 321.903494 
C 253.846659 324.14791 254.738375 326.300703 256.325417 327.887745 
C 257.912458 329.474787 260.065251 330.366502 262.309667 330.366502 
L 262.309667 330.366502 
z
" clip-path="url(#pcb71bedf36)" style="fill: none; stroke: #ff0000; stroke-width: 2; stroke-linejoin: miter"/>
   </g>
   <g id="patch_32">
    <path d="M 316.198497 258.206401 
C 318.442913 258.206401 320.595705 257.314685 322.182747 255.727643 
C 323.769789 254.140601 324.661505 251.987809 324.661505 249.743393 
C 324.661505 247.498977 323.769789 245.346184 322.182747 243.759142 
C 320.595705 242.172101 318.442913 241.280385 316.198497 241.280385 
C 313.954081 241.280385 311.801288 242.172101 310.214246 243.759142 
C 308.627204 245.346184 307.735489 247.498977 307.735489 249.743393 
C 307.735489 251.987809 308.627204 254.140601 310.214246 255.727643 
C 311.801288 257.314685 313.954081 258.206401 316.198497 258.206401 
L 316.198497 258.206401 
z
" clip-path="url(#pcb71bedf36)" style="fill: none; stroke: #ff0000; stroke-width: 2; stroke-linejoin: miter"/>
   </g>
   <g id="patch_33">
    <path d="M 446.682121 220.608177 
C 448.926537 220.608177 451.079329 219.716461 452.666371 218.12942 
C 454.253413 216.542378 455.145129 214.389585 455.145129 212.145169 
C 455.145129 209.900753 454.253413 207.747961 452.666371 206.160919 
C 451.079329 204.573877 448.926537 203.682161 446.682121 203.682161 
C 444.437705 203.682161 442.284912 204.573877 440.69787 206.160919 
C 439.110829 207.747961 438.219113 209.900753 438.219113 212.145169 
C 438.219113 214.389585 439.110829 216.542378 440.69787 218.12942 
C 442.284912 219.716461 444.437705 220.608177 446.682121 220.608177 
L 446.682121 220.608177 
z
" clip-path="url(#pcb71bedf36)" style="fill: none; stroke: #ff0000; stroke-width: 2; stroke-linejoin: miter"/>
   </g>
   <g id="patch_34">
    <path d="M 420.844349 161.092636 
C 423.088765 161.092636 425.241557 160.200921 426.828599 158.613879 
C 428.415641 157.026837 429.307357 154.874044 429.307357 152.629628 
C 429.307357 150.385212 428.415641 148.23242 426.828599 146.645378 
C 425.241557 145.058336 423.088765 144.16662 420.844349 144.16662 
C 418.599933 144.16662 416.44714 145.058336 414.860098 146.645378 
C 413.273057 148.23242 412.381341 150.385212 412.381341 152.629628 
C 412.381341 154.874044 413.273057 157.026837 414.860098 158.613879 
C 416.44714 160.200921 418.599933 161.092636 420.844349 161.092636 
L 420.844349 161.092636 
z
" clip-path="url(#pcb71bedf36)" style="fill: none; stroke: #ff0000; stroke-width: 2; stroke-linejoin: miter"/>
   </g>
   <g id="patch_35">
    <path d="M 376.685388 150.479644 
C 378.929804 150.479644 381.082597 149.587928 382.669639 148.000887 
C 384.25668 146.413845 385.148396 144.261052 385.148396 142.016636 
C 385.148396 139.77222 384.25668 137.619428 382.669639 136.032386 
C 381.082597 134.445344 378.929804 133.553628 376.685388 133.553628 
C 374.440972 133.553628 372.288179 134.445344 370.701138 136.032386 
C 369.114096 137.619428 368.22238 139.77222 368.22238 142.016636 
C 368.22238 144.261052 369.114096 146.413845 370.701138 148.000887 
C 372.288179 149.587928 374.440972 150.479644 376.685388 150.479644 
L 376.685388 150.479644 
z
" clip-path="url(#pcb71bedf36)" style="fill: none; stroke: #ff0000; stroke-width: 2; stroke-linejoin: miter"/>
   </g>
   <g id="patch_36">
    <path d="M 302.522489 217.66574 
C 304.766905 217.66574 306.919698 216.774024 308.50674 215.186982 
C 310.093782 213.59994 310.985498 211.447148 310.985498 209.202732 
C 310.985498 206.958316 310.093782 204.805523 308.50674 203.218481 
C 306.919698 201.631439 304.766905 200.739723 302.522489 200.739723 
C 300.278073 200.739723 298.125281 201.631439 296.538239 203.218481 
C 294.951197 204.805523 294.059481 206.958316 294.059481 209.202732 
C 294.059481 211.447148 294.951197 213.59994 296.538239 215.186982 
C 298.125281 216.774024 300.278073 217.66574 302.522489 217.66574 
L 302.522489 217.66574 
z
" clip-path="url(#pcb71bedf36)" style="fill: none; stroke: #ff0000; stroke-width: 2; stroke-linejoin: miter"/>
   </g>
   <g id="patch_37">
    <path d="M 303.012882 235.012991 
C 305.257298 235.012991 307.410091 234.121275 308.997133 232.534234 
C 310.584174 230.947192 311.47589 228.794399 311.47589 226.549983 
C 311.47589 224.305567 310.584174 222.152775 308.997133 220.565733 
C 307.410091 218.978691 305.257298 218.086975 303.012882 218.086975 
C 300.768466 218.086975 298.615674 218.978691 297.028632 220.565733 
C 295.44159 222.152775 294.549874 224.305567 294.549874 226.549983 
C 294.549874 228.794399 295.44159 230.947192 297.028632 232.534234 
C 298.615674 234.121275 300.768466 235.012991 303.012882 235.012991 
L 303.012882 235.012991 
z
" clip-path="url(#pcb71bedf36)" style="fill: none; stroke: #ff0000; stroke-width: 2; stroke-linejoin: miter"/>
   </g>
   <g id="patch_38">
    <path d="M 367.280919 292.699374 
C 369.525335 292.699374 371.678128 291.807658 373.26517 290.220616 
C 374.852211 288.633574 375.743927 286.480782 375.743927 284.236366 
C 375.743927 281.99195 374.852211 279.839157 373.26517 278.252115 
C 371.678128 276.665074 369.525335 275.773358 367.280919 275.773358 
C 365.036503 275.773358 362.88371 276.665074 361.296669 278.252115 
C 359.709627 279.839157 358.817911 281.99195 358.817911 284.236366 
C 358.817911 286.480782 359.709627 288.633574 361.296669 290.220616 
C 362.88371 291.807658 365.036503 292.699374 367.280919 292.699374 
L 367.280919 292.699374 
z
" clip-path="url(#pcb71bedf36)" style="fill: none; stroke: #ff0000; stroke-width: 2; stroke-linejoin: miter"/>
   </g>
   <g id="patch_39">
    <path d="M 421.199849 285.350227 
C 423.444265 285.350227 425.597058 284.458511 427.184099 282.87147 
C 428.771141 281.284428 429.662857 279.131635 429.662857 276.887219 
C 429.662857 274.642803 428.771141 272.490011 427.184099 270.902969 
C 425.597058 269.315927 423.444265 268.424211 421.199849 268.424211 
C 418.955433 268.424211 416.80264 269.315927 415.215598 270.902969 
C 413.628557 272.490011 412.736841 274.642803 412.736841 276.887219 
C 412.736841 279.131635 413.628557 281.284428 415.215598 282.87147 
C 416.80264 284.458511 418.955433 285.350227 421.199849 285.350227 
L 421.199849 285.350227 
z
" clip-path="url(#pcb71bedf36)" style="fill: none; stroke: #ff0000; stroke-width: 2; stroke-linejoin: miter"/>
   </g>
   <g id="PathCollection_2">
    <defs>
     <path id="mddc1ddc5ed" d="M 0 3 
C 0.795609 3 1.55874 2.683901 2.12132 2.12132 
C 2.683901 1.55874 3 0.795609 3 0 
C 3 -0.795609 2.683901 -1.55874 2.12132 -2.12132 
C 1.55874 -2.683901 0.795609 -3 0 -3 
C -0.795609 -3 -1.55874 -2.683901 -2.12132 -2.12132 
C -2.683901 -1.55874 -3 -0.795609 -3 0 
C -3 0.795609 -2.683901 1.55874 -2.12132 2.12132 
C -1.55874 2.683901 -0.795609 3 0 3 
z
" style="stroke: #0000ff"/>
    </defs>
    <g clip-path="url(#pcb71bedf36)">
     <use xlink:href="#mddc1ddc5ed" x="319.858536" y="228.197402" style="fill: #0000ff; stroke: #0000ff"/>
     <use xlink:href="#mddc1ddc5ed" x="305.560736" y="161.552092" style="fill: #0000ff; stroke: #0000ff"/>
     <use xlink:href="#mddc1ddc5ed" x="228.621129" y="95.423303" style="fill: #0000ff; stroke: #0000ff"/>
     <use xlink:href="#mddc1ddc5ed" x="182.359659" y="90.695501" style="fill: #0000ff; stroke: #0000ff"/>
     <use xlink:href="#mddc1ddc5ed" x="181.648648" y="111.186256" style="fill: #0000ff; stroke: #0000ff"/>
     <use xlink:href="#mddc1ddc5ed" x="109.630216" y="159.533222" style="fill: #0000ff; stroke: #0000ff"/>
     <use xlink:href="#mddc1ddc5ed" x="79.241912" y="203.923662" style="fill: #0000ff; stroke: #0000ff"/>
     <use xlink:href="#mddc1ddc5ed" x="100.834281" y="277.197415" style="fill: #0000ff; stroke: #0000ff"/>
     <use xlink:href="#mddc1ddc5ed" x="116.190272" y="301.345311" style="fill: #0000ff; stroke: #0000ff"/>
     <use xlink:href="#mddc1ddc5ed" x="208.870072" y="330.604499" style="fill: #0000ff; stroke: #0000ff"/>
     <use xlink:href="#mddc1ddc5ed" x="262.309667" y="321.903494" style="fill: #0000ff; stroke: #0000ff"/>
     <use xlink:href="#mddc1ddc5ed" x="316.198497" y="249.743393" style="fill: #0000ff; stroke: #0000ff"/>
     <use xlink:href="#mddc1ddc5ed" x="446.682121" y="212.145169" style="fill: #0000ff; stroke: #0000ff"/>
     <use xlink:href="#mddc1ddc5ed" x="420.844349" y="152.629628" style="fill: #0000ff; stroke: #0000ff"/>
     <use xlink:href="#mddc1ddc5ed" x="376.685388" y="142.016636" style="fill: #0000ff; stroke: #0000ff"/>
     <use xlink:href="#mddc1ddc5ed" x="302.522489" y="209.202732" style="fill: #0000ff; stroke: #0000ff"/>
     <use xlink:href="#mddc1ddc5ed" x="303.012882" y="226.549983" style="fill: #0000ff; stroke: #0000ff"/>
     <use xlink:href="#mddc1ddc5ed" x="367.280919" y="284.236366" style="fill: #0000ff; stroke: #0000ff"/>
     <use xlink:href="#mddc1ddc5ed" x="421.199849" y="276.887219" style="fill: #0000ff; stroke: #0000ff"/>
    </g>
   </g>
  </g>
  <g id="axes_2">
   <g id="patch_40">
    <path d="M 554.075967 414.1 
L 1065.6 414.1 
L 1065.6 7.2 
L 554.075967 7.2 
z
" style="fill: #ffffff"/>
   </g>
   <g id="matplotlib.axis_1">
    <g id="xtick_1">
     <g id="line2d_1">
      <defs>
       <path id="md25c2aa8ef" d="M 0 0 
L 0 3.5 
" style="stroke: #000000; stroke-width: 0.8"/>
      </defs>
      <g>
       <use xlink:href="#md25c2aa8ef" x="567.537126" y="414.1" style="stroke: #000000; stroke-width: 0.8"/>
      </g>
     </g>
    </g>
    <g id="xtick_2">
     <g id="line2d_2">
      <g>
       <use xlink:href="#md25c2aa8ef" x="594.459443" y="414.1" style="stroke: #000000; stroke-width: 0.8"/>
      </g>
     </g>
    </g>
    <g id="xtick_3">
     <g id="line2d_3">
      <g>
       <use xlink:href="#md25c2aa8ef" x="621.381761" y="414.1" style="stroke: #000000; stroke-width: 0.8"/>
      </g>
     </g>
    </g>
    <g id="xtick_4">
     <g id="line2d_4">
      <g>
       <use xlink:href="#md25c2aa8ef" x="648.304078" y="414.1" style="stroke: #000000; stroke-width: 0.8"/>
      </g>
     </g>
    </g>
    <g id="xtick_5">
     <g id="line2d_5">
      <g>
       <use xlink:href="#md25c2aa8ef" x="675.226396" y="414.1" style="stroke: #000000; stroke-width: 0.8"/>
      </g>
     </g>
    </g>
    <g id="xtick_6">
     <g id="line2d_6">
      <g>
       <use xlink:href="#md25c2aa8ef" x="702.148713" y="414.1" style="stroke: #000000; stroke-width: 0.8"/>
      </g>
     </g>
    </g>
    <g id="xtick_7">
     <g id="line2d_7">
      <g>
       <use xlink:href="#md25c2aa8ef" x="729.071031" y="414.1" style="stroke: #000000; stroke-width: 0.8"/>
      </g>
     </g>
    </g>
    <g id="xtick_8">
     <g id="line2d_8">
      <g>
       <use xlink:href="#md25c2aa8ef" x="755.993348" y="414.1" style="stroke: #000000; stroke-width: 0.8"/>
      </g>
     </g>
    </g>
    <g id="xtick_9">
     <g id="line2d_9">
      <g>
       <use xlink:href="#md25c2aa8ef" x="782.915666" y="414.1" style="stroke: #000000; stroke-width: 0.8"/>
      </g>
     </g>
    </g>
    <g id="xtick_10">
     <g id="line2d_10">
      <g>
       <use xlink:href="#md25c2aa8ef" x="809.837983" y="414.1" style="stroke: #000000; stroke-width: 0.8"/>
      </g>
     </g>
    </g>
    <g id="xtick_11">
     <g id="line2d_11">
      <g>
       <use xlink:href="#md25c2aa8ef" x="836.760301" y="414.1" style="stroke: #000000; stroke-width: 0.8"/>
      </g>
     </g>
    </g>
    <g id="xtick_12">
     <g id="line2d_12">
      <g>
       <use xlink:href="#md25c2aa8ef" x="863.682618" y="414.1" style="stroke: #000000; stroke-width: 0.8"/>
      </g>
     </g>
    </g>
    <g id="xtick_13">
     <g id="line2d_13">
      <g>
       <use xlink:href="#md25c2aa8ef" x="890.604936" y="414.1" style="stroke: #000000; stroke-width: 0.8"/>
      </g>
     </g>
    </g>
    <g id="xtick_14">
     <g id="line2d_14">
      <g>
       <use xlink:href="#md25c2aa8ef" x="917.527254" y="414.1" style="stroke: #000000; stroke-width: 0.8"/>
      </g>
     </g>
    </g>
    <g id="xtick_15">
     <g id="line2d_15">
      <g>
       <use xlink:href="#md25c2aa8ef" x="944.449571" y="414.1" style="stroke: #000000; stroke-width: 0.8"/>
      </g>
     </g>
    </g>
    <g id="xtick_16">
     <g id="line2d_16">
      <g>
       <use xlink:href="#md25c2aa8ef" x="971.371889" y="414.1" style="stroke: #000000; stroke-width: 0.8"/>
      </g>
     </g>
    </g>
    <g id="xtick_17">
     <g id="line2d_17">
      <g>
       <use xlink:href="#md25c2aa8ef" x="998.294206" y="414.1" style="stroke: #000000; stroke-width: 0.8"/>
      </g>
     </g>
    </g>
    <g id="xtick_18">
     <g id="line2d_18">
      <g>
       <use xlink:href="#md25c2aa8ef" x="1025.216524" y="414.1" style="stroke: #000000; stroke-width: 0.8"/>
      </g>
     </g>
    </g>
    <g id="xtick_19">
     <g id="line2d_19">
      <g>
       <use xlink:href="#md25c2aa8ef" x="1052.138841" y="414.1" style="stroke: #000000; stroke-width: 0.8"/>
      </g>
     </g>
    </g>
   </g>
   <g id="matplotlib.axis_2">
    <g id="ytick_1">
     <g id="line2d_20">
      <defs>
       <path id="m167a51864b" d="M 0 0 
L -3.5 0 
" style="stroke: #000000; stroke-width: 0.8"/>
      </defs>
      <g>
       <use xlink:href="#m167a51864b" x="554.075967" y="384.207446" style="stroke: #000000; stroke-width: 0.8"/>
      </g>
     </g>
     <g id="text_1">
      <!-- $r_{0}$ -->
      <g transform="translate(529.275967 391.805883) scale(0.2 -0.2)">
       <defs>
        <path id="DejaVuSans-Oblique-72" d="M 2853 2969 
Q 2766 3016 2653 3041 
Q 2541 3066 2413 3066 
Q 1953 3066 1609 2717 
Q 1266 2369 1153 1784 
L 800 0 
L 225 0 
L 909 3500 
L 1484 3500 
L 1375 2956 
Q 1603 3259 1920 3421 
Q 2238 3584 2597 3584 
Q 2691 3584 2781 3573 
Q 2872 3563 2963 3538 
L 2853 2969 
z
" transform="scale(0.015625)"/>
        <path id="DejaVuSans-30" d="M 2034 4250 
Q 1547 4250 1301 3770 
Q 1056 3291 1056 2328 
Q 1056 1369 1301 889 
Q 1547 409 2034 409 
Q 2525 409 2770 889 
Q 3016 1369 3016 2328 
Q 3016 3291 2770 3770 
Q 2525 4250 2034 4250 
z
M 2034 4750 
Q 2819 4750 3233 4129 
Q 3647 3509 3647 2328 
Q 3647 1150 3233 529 
Q 2819 -91 2034 -91 
Q 1250 -91 836 529 
Q 422 1150 422 2328 
Q 422 3509 836 4129 
Q 1250 4750 2034 4750 
z
" transform="scale(0.015625)"/>
       </defs>
       <use xlink:href="#DejaVuSans-Oblique-72"/>
       <use xlink:href="#DejaVuSans-30" transform="translate(41.113281 -16.40625) scale(0.7)"/>
      </g>
     </g>
    </g>
   </g>
   <g id="line2d_21">
    <path d="M 567.537126 414.1 
L 567.537126 384.207446 
" clip-path="url(#p61791f0863)" style="fill: none; stroke: #ff0000; stroke-width: 5; stroke-linecap: square"/>
   </g>
   <g id="line2d_22">
    <path d="M 594.459443 414.1 
L 594.459443 384.207446 
" clip-path="url(#p61791f0863)" style="fill: none; stroke: #ff0000; stroke-width: 5; stroke-linecap: square"/>
   </g>
   <g id="line2d_23">
    <path d="M 621.381761 414.1 
L 621.381761 384.207446 
" clip-path="url(#p61791f0863)" style="fill: none; stroke: #ff0000; stroke-width: 5; stroke-linecap: square"/>
   </g>
   <g id="line2d_24">
    <path d="M 648.304078 414.1 
L 648.304078 384.207446 
" clip-path="url(#p61791f0863)" style="fill: none; stroke: #ff0000; stroke-width: 5; stroke-linecap: square"/>
   </g>
   <g id="line2d_25">
    <path d="M 675.226396 414.1 
L 675.226396 384.207446 
" clip-path="url(#p61791f0863)" style="fill: none; stroke: #ff0000; stroke-width: 5; stroke-linecap: square"/>
   </g>
   <g id="line2d_26">
    <path d="M 702.148713 414.1 
L 702.148713 384.207446 
" clip-path="url(#p61791f0863)" style="fill: none; stroke: #ff0000; stroke-width: 5; stroke-linecap: square"/>
   </g>
   <g id="line2d_27">
    <path d="M 729.071031 414.1 
L 729.071031 384.207446 
" clip-path="url(#p61791f0863)" style="fill: none; stroke: #ff0000; stroke-width: 5; stroke-linecap: square"/>
   </g>
   <g id="line2d_28">
    <path d="M 755.993348 414.1 
L 755.993348 384.207446 
" clip-path="url(#p61791f0863)" style="fill: none; stroke: #ff0000; stroke-width: 5; stroke-linecap: square"/>
   </g>
   <g id="line2d_29">
    <path d="M 782.915666 414.1 
L 782.915666 384.207446 
" clip-path="url(#p61791f0863)" style="fill: none; stroke: #ff0000; stroke-width: 5; stroke-linecap: square"/>
   </g>
   <g id="line2d_30">
    <path d="M 809.837983 414.1 
L 809.837983 384.207446 
" clip-path="url(#p61791f0863)" style="fill: none; stroke: #ff0000; stroke-width: 5; stroke-linecap: square"/>
   </g>
   <g id="line2d_31">
    <path d="M 836.760301 414.1 
L 836.760301 384.207446 
" clip-path="url(#p61791f0863)" style="fill: none; stroke: #ff0000; stroke-width: 5; stroke-linecap: square"/>
   </g>
   <g id="line2d_32">
    <path d="M 863.682618 414.1 
L 863.682618 384.207446 
" clip-path="url(#p61791f0863)" style="fill: none; stroke: #ff0000; stroke-width: 5; stroke-linecap: square"/>
   </g>
   <g id="line2d_33">
    <path d="M 890.604936 414.1 
L 890.604936 384.207446 
" clip-path="url(#p61791f0863)" style="fill: none; stroke: #ff0000; stroke-width: 5; stroke-linecap: square"/>
   </g>
   <g id="line2d_34">
    <path d="M 917.527254 414.1 
L 917.527254 384.207446 
" clip-path="url(#p61791f0863)" style="fill: none; stroke: #ff0000; stroke-width: 5; stroke-linecap: square"/>
   </g>
   <g id="line2d_35">
    <path d="M 944.449571 414.1 
L 944.449571 384.207446 
" clip-path="url(#p61791f0863)" style="fill: none; stroke: #ff0000; stroke-width: 5; stroke-linecap: square"/>
   </g>
   <g id="line2d_36">
    <path d="M 971.371889 414.1 
L 971.371889 384.207446 
" clip-path="url(#p61791f0863)" style="fill: none; stroke: #ff0000; stroke-width: 5; stroke-linecap: square"/>
   </g>
   <g id="line2d_37">
    <path d="M 998.294206 414.1 
L 998.294206 384.207446 
" clip-path="url(#p61791f0863)" style="fill: none; stroke: #ff0000; stroke-width: 5; stroke-linecap: square"/>
   </g>
   <g id="line2d_38">
    <path d="M 1025.216524 414.1 
L 1025.216524 384.207446 
" clip-path="url(#p61791f0863)" style="fill: none; stroke: #ff0000; stroke-width: 5; stroke-linecap: square"/>
   </g>
   <g id="line2d_39">
    <path d="M 1052.138841 414.1 
L 1052.138841 384.207446 
" clip-path="url(#p61791f0863)" style="fill: none; stroke: #ff0000; stroke-width: 5; stroke-linecap: square"/>
   </g>
   <g id="patch_41">
    <path d="M 554.075967 414.1 
L 554.075967 7.2 
" style="fill: none; stroke: #000000; stroke-width: 0.8; stroke-linejoin: miter; stroke-linecap: square"/>
   </g>
   <g id="patch_42">
    <path d="M 1065.6 414.1 
L 1065.6 7.2 
" style="fill: none; stroke: #000000; stroke-width: 0.8; stroke-linejoin: miter; stroke-linecap: square"/>
   </g>
   <g id="patch_43">
    <path d="M 554.075967 414.1 
L 1065.6 414.1 
" style="fill: none; stroke: #000000; stroke-width: 0.8; stroke-linejoin: miter; stroke-linecap: square"/>
   </g>
   <g id="patch_44">
    <path d="M 554.075967 7.2 
L 1065.6 7.2 
" style="fill: none; stroke: #000000; stroke-width: 0.8; stroke-linejoin: miter; stroke-linecap: square"/>
   </g>
   <g id="PathCollection_3">
    <defs>
     <path id="m0e8100ba4b" d="M 0 6.123724 
C 1.624031 6.123724 3.181764 5.47849 4.330127 4.330127 
C 5.47849 3.181764 6.123724 1.624031 6.123724 0 
C 6.123724 -1.624031 5.47849 -3.181764 4.330127 -4.330127 
C 3.181764 -5.47849 1.624031 -6.123724 0 -6.123724 
C -1.624031 -6.123724 -3.181764 -5.47849 -4.330127 -4.330127 
C -5.47849 -3.181764 -6.123724 -1.624031 -6.123724 0 
C -6.123724 1.624031 -5.47849 3.181764 -4.330127 4.330127 
C -3.181764 5.47849 -1.624031 6.123724 0 6.123724 
z
" style="stroke: #0000ff"/>
    </defs>
    <g clip-path="url(#p61791f0863)">
     <use xlink:href="#m0e8100ba4b" x="567.537126" y="414.1" style="fill: #0000ff; stroke: #0000ff"/>
     <use xlink:href="#m0e8100ba4b" x="594.459443" y="414.1" style="fill: #0000ff; stroke: #0000ff"/>
     <use xlink:href="#m0e8100ba4b" x="621.381761" y="414.1" style="fill: #0000ff; stroke: #0000ff"/>
     <use xlink:href="#m0e8100ba4b" x="648.304078" y="414.1" style="fill: #0000ff; stroke: #0000ff"/>
     <use xlink:href="#m0e8100ba4b" x="675.226396" y="414.1" style="fill: #0000ff; stroke: #0000ff"/>
     <use xlink:href="#m0e8100ba4b" x="702.148713" y="414.1" style="fill: #0000ff; stroke: #0000ff"/>
     <use xlink:href="#m0e8100ba4b" x="729.071031" y="414.1" style="fill: #0000ff; stroke: #0000ff"/>
     <use xlink:href="#m0e8100ba4b" x="755.993348" y="414.1" style="fill: #0000ff; stroke: #0000ff"/>
     <use xlink:href="#m0e8100ba4b" x="782.915666" y="414.1" style="fill: #0000ff; stroke: #0000ff"/>
     <use xlink:href="#m0e8100ba4b" x="809.837983" y="414.1" style="fill: #0000ff; stroke: #0000ff"/>
     <use xlink:href="#m0e8100ba4b" x="836.760301" y="414.1" style="fill: #0000ff; stroke: #0000ff"/>
     <use xlink:href="#m0e8100ba4b" x="863.682618" y="414.1" style="fill: #0000ff; stroke: #0000ff"/>
     <use xlink:href="#m0e8100ba4b" x="890.604936" y="414.1" style="fill: #0000ff; stroke: #0000ff"/>
     <use xlink:href="#m0e8100ba4b" x="917.527254" y="414.1" style="fill: #0000ff; stroke: #0000ff"/>
     <use xlink:href="#m0e8100ba4b" x="944.449571" y="414.1" style="fill: #0000ff; stroke: #0000ff"/>
     <use xlink:href="#m0e8100ba4b" x="971.371889" y="414.1" style="fill: #0000ff; stroke: #0000ff"/>
     <use xlink:href="#m0e8100ba4b" x="998.294206" y="414.1" style="fill: #0000ff; stroke: #0000ff"/>
     <use xlink:href="#m0e8100ba4b" x="1025.216524" y="414.1" style="fill: #0000ff; stroke: #0000ff"/>
     <use xlink:href="#m0e8100ba4b" x="1052.138841" y="414.1" style="fill: #0000ff; stroke: #0000ff"/>
    </g>
   </g>
  </g>
 </g>
 <defs>
  <clipPath id="pcb71bedf36">
   <rect x="7.2" y="18.653588" width="511.524033" height="383.992824"/>
  </clipPath>
  <clipPath id="p61791f0863">
   <rect x="554.075967" y="7.2" width="511.524033" height="406.9"/>
  </clipPath>
 </defs>
</svg>
