<?xml version="1.0" encoding="utf-8" standalone="no"?>
<!DOCTYPE svg PUBLIC "-//W3C//DTD SVG 1.1//EN"
  "http://www.w3.org/Graphics/SVG/1.1/DTD/svg11.dtd">
<svg xmlns:xlink="http://www.w3.org/1999/xlink" width="516.6pt" height="342.296339pt" viewBox="0 0 516.6 342.296339" xmlns="http://www.w3.org/2000/svg" version="1.1">
 <metadata>
  <rdf:RDF xmlns:dc="http://purl.org/dc/elements/1.1/" xmlns:cc="http://creativecommons.org/ns#" xmlns:rdf="http://www.w3.org/1999/02/22-rdf-syntax-ns#">
   <cc:Work>
    <dc:type rdf:resource="http://purl.org/dc/dcmitype/StillImage"/>
    <dc:date>2023-10-24T10:09:39.579737</dc:date>
    <dc:format>image/svg+xml</dc:format>
    <dc:creator>
     <cc:Agent>
      <dc:title>Matplotlib v3.7.2, https://matplotlib.org/</dc:title>
     </cc:Agent>
    </dc:creator>
   </cc:Work>
  </rdf:RDF>
 </metadata>
 <defs>
  <style type="text/css">*{stroke-linejoin: round; stroke-linecap: butt}</style>
 </defs>
 <g id="figure_1">
  <g id="patch_1">
   <path d="M 0 342.296339 
L 516.6 342.296339 
L 516.6 0 
L 0 0 
z
" style="fill: #ffffff"/>
  </g>
  <g id="axes_1">
   <g id="PathCollection_1">
    <defs>
     <path id="m89a7699aef" d="M 0 3 
C 0.795609 3 1.55874 2.683901 2.12132 2.12132 
C 2.683901 1.55874 3 0.795609 3 0 
C 3 -0.795609 2.683901 -1.55874 2.12132 -2.12132 
C 1.55874 -2.683901 0.795609 -3 0 -3 
C -0.795609 -3 -1.55874 -2.683901 -2.12132 -2.12132 
C -2.683901 -1.55874 -3 -0.795609 -3 0 
C -3 0.795609 -2.683901 1.55874 -2.12132 2.12132 
C -1.55874 2.683901 -0.795609 3 0 3 
z
" style="stroke: #0000ff"/>
    </defs>
    <g clip-path="url(#p6fdc5b40dd)">
     <use xlink:href="#m89a7699aef" x="328.994079" y="192.950865" style="fill: #0000ff; stroke: #0000ff"/>
     <use xlink:href="#m89a7699aef" x="311.229025" y="110.143886" style="fill: #0000ff; stroke: #0000ff"/>
     <use xlink:href="#m89a7699aef" x="215.631354" y="27.978687" style="fill: #0000ff; stroke: #0000ff"/>
     <use xlink:href="#m89a7699aef" x="158.151352" y="22.104379" style="fill: #0000ff; stroke: #0000ff"/>
     <use xlink:href="#m89a7699aef" x="157.267919" y="47.564199" style="fill: #0000ff; stroke: #0000ff"/>
     <use xlink:href="#m89a7699aef" x="67.784823" y="107.635435" style="fill: #0000ff; stroke: #0000ff"/>
     <use xlink:href="#m89a7699aef" x="30.027273" y="162.790676" style="fill: #0000ff; stroke: #0000ff"/>
     <use xlink:href="#m89a7699aef" x="56.855849" y="253.833514" style="fill: #0000ff; stroke: #0000ff"/>
     <use xlink:href="#m89a7699aef" x="75.93571" y="283.83734" style="fill: #0000ff; stroke: #0000ff"/>
     <use xlink:href="#m89a7699aef" x="191.090612" y="320.19196" style="fill: #0000ff; stroke: #0000ff"/>
     <use xlink:href="#m89a7699aef" x="257.489454" y="309.380938" style="fill: #0000ff; stroke: #0000ff"/>
     <use xlink:href="#m89a7699aef" x="324.446471" y="219.721816" style="fill: #0000ff; stroke: #0000ff"/>
     <use xlink:href="#m89a7699aef" x="486.572727" y="173.005922" style="fill: #0000ff; stroke: #0000ff"/>
     <use xlink:href="#m89a7699aef" x="454.469225" y="99.057701" style="fill: #0000ff; stroke: #0000ff"/>
     <use xlink:href="#m89a7699aef" x="399.601597" y="85.871029" style="fill: #0000ff; stroke: #0000ff"/>
     <use xlink:href="#m89a7699aef" x="307.453995" y="169.349935" style="fill: #0000ff; stroke: #0000ff"/>
     <use xlink:href="#m89a7699aef" x="308.063309" y="190.903942" style="fill: #0000ff; stroke: #0000ff"/>
     <use xlink:href="#m89a7699aef" x="387.916519" y="262.579429" style="fill: #0000ff; stroke: #0000ff"/>
     <use xlink:href="#m89a7699aef" x="454.910935" y="253.448094" style="fill: #0000ff; stroke: #0000ff"/>
    </g>
   </g>
  </g>
 </g>
 <defs>
  <clipPath id="p6fdc5b40dd">
   <rect x="7.2" y="7.2" width="502.2" height="327.896339"/>
  </clipPath>
 </defs>
</svg>
