<?xml version="1.0" encoding="utf-8" standalone="no"?>
<!DOCTYPE svg PUBLIC "-//W3C//DTD SVG 1.1//EN"
  "http://www.w3.org/Graphics/SVG/1.1/DTD/svg11.dtd">
<svg xmlns:xlink="http://www.w3.org/1999/xlink" width="1072.8pt" height="424.8pt" viewBox="0 0 1072.8 424.8" xmlns="http://www.w3.org/2000/svg" version="1.1">
 <metadata>
  <rdf:RDF xmlns:dc="http://purl.org/dc/elements/1.1/" xmlns:cc="http://creativecommons.org/ns#" xmlns:rdf="http://www.w3.org/1999/02/22-rdf-syntax-ns#">
   <cc:Work>
    <dc:type rdf:resource="http://purl.org/dc/dcmitype/StillImage"/>
    <dc:date>2023-10-24T09:47:30.357034</dc:date>
    <dc:format>image/svg+xml</dc:format>
    <dc:creator>
     <cc:Agent>
      <dc:title>Matplotlib v3.7.2, https://matplotlib.org/</dc:title>
     </cc:Agent>
    </dc:creator>
   </cc:Work>
  </rdf:RDF>
 </metadata>
 <defs>
  <style type="text/css">*{stroke-linejoin: round; stroke-linecap: butt}</style>
 </defs>
 <g id="figure_1">
  <g id="patch_1">
   <path d="M 0 424.8 
L 1072.8 424.8 
L 1072.8 -0 
L 0 -0 
z
" style="fill: #ffffff"/>
  </g>
  <g id="axes_1">
   <g id="PathCollection_1">
    <defs>
     <path id="m5eae5a9753" d="M 0 3 
C 0.795609 3 1.55874 2.683901 2.12132 2.12132 
C 2.683901 1.55874 3 0.795609 3 0 
C 3 -0.795609 2.683901 -1.55874 2.12132 -2.12132 
C 1.55874 -2.683901 0.795609 -3 0 -3 
C -0.795609 -3 -1.55874 -2.683901 -2.12132 -2.12132 
C -2.683901 -1.55874 -3 -0.795609 -3 0 
C -3 0.795609 -2.683901 1.55874 -2.12132 2.12132 
C -1.55874 2.683901 -0.795609 3 0 3 
z
" style="stroke: #1f77b4; stroke-opacity: 0"/>
    </defs>
    <g clip-path="url(#pcebfbec441)">
     <use xlink:href="#m5eae5a9753" x="7.2" y="401.006014" style="fill: #1f77b4; fill-opacity: 0; stroke: #1f77b4; stroke-opacity: 0"/>
     <use xlink:href="#m5eae5a9753" x="514.353624" y="20.293986" style="fill: #1f77b4; fill-opacity: 0; stroke: #1f77b4; stroke-opacity: 0"/>
    </g>
   </g>
   <g id="patch_2">
    <path d="M 317.187213 303.78378 
C 337.272714 303.78378 356.53827 295.803726 370.740865 281.601131 
C 384.943459 267.398537 392.923514 248.132981 392.923514 228.047479 
C 392.923514 207.961977 384.943459 188.696421 370.740865 174.493827 
C 356.53827 160.291232 337.272714 152.311178 317.187213 152.311178 
C 297.101711 152.311178 277.836155 160.291232 263.63356 174.493827 
C 249.430966 188.696421 241.450911 207.961977 241.450911 228.047479 
C 241.450911 248.132981 249.430966 267.398537 263.63356 281.601131 
C 277.836155 295.803726 297.101711 303.78378 317.187213 303.78378 
z
" clip-path="url(#pcebfbec441)" style="fill: #ff0000; opacity: 0.2"/>
   </g>
   <g id="patch_3">
    <path d="M 303.011572 237.707881 
C 323.097074 237.707881 342.36263 229.727826 356.565225 215.525232 
C 370.767819 201.322637 378.747874 182.057081 378.747874 161.97158 
C 378.747874 141.886078 370.767819 122.620522 356.565225 108.417927 
C 342.36263 94.215333 323.097074 86.235278 303.011572 86.235278 
C 282.926071 86.235278 263.660515 94.215333 249.45792 108.417927 
C 235.255326 122.620522 227.275271 141.886078 227.275271 161.97158 
C 227.275271 182.057081 235.255326 201.322637 249.45792 215.525232 
C 263.660515 229.727826 282.926071 237.707881 303.011572 237.707881 
z
" clip-path="url(#pcebfbec441)" style="fill: #ff0000; opacity: 0.2"/>
   </g>
   <g id="patch_4">
    <path d="M 226.729329 172.14409 
C 246.814831 172.14409 266.080387 164.164035 280.282981 149.961441 
C 294.485576 135.758846 302.46563 116.49329 302.46563 96.407789 
C 302.46563 76.322287 294.485576 57.056731 280.282981 42.854136 
C 266.080387 28.651542 246.814831 20.671487 226.729329 20.671487 
C 206.643827 20.671487 187.378272 28.651542 173.175677 42.854136 
C 158.973082 57.056731 150.993028 76.322287 150.993028 96.407789 
C 150.993028 116.49329 158.973082 135.758846 173.175677 149.961441 
C 187.378272 164.164035 206.643827 172.14409 226.729329 172.14409 
z
" clip-path="url(#pcebfbec441)" style="fill: #ff0000; opacity: 0.2"/>
   </g>
   <g id="patch_5">
    <path d="M 180.863112 167.456681 
C 200.948614 167.456681 220.21417 159.476626 234.416764 145.274032 
C 248.619359 131.071437 256.599413 111.805882 256.599413 91.72038 
C 256.599413 71.634878 248.619359 52.369322 234.416764 38.166727 
C 220.21417 23.964133 200.948614 15.984078 180.863112 15.984078 
C 160.77761 15.984078 141.512055 23.964133 127.30946 38.166727 
C 113.106865 52.369322 105.126811 71.634878 105.126811 91.72038 
C 105.126811 111.805882 113.106865 131.071437 127.30946 145.274032 
C 141.512055 159.476626 160.77761 167.456681 180.863112 167.456681 
z
" clip-path="url(#pcebfbec441)" style="fill: #ff0000; opacity: 0.2"/>
   </g>
   <g id="patch_6">
    <path d="M 180.158176 187.772366 
C 200.243678 187.772366 219.509234 179.792311 233.711828 165.589717 
C 247.914423 151.387122 255.894477 132.121566 255.894477 112.036064 
C 255.894477 91.950563 247.914423 72.685007 233.711828 58.482412 
C 219.509234 44.279818 200.243678 36.299763 180.158176 36.299763 
C 160.072674 36.299763 140.807119 44.279818 126.604524 58.482412 
C 112.401929 72.685007 104.421875 91.950563 104.421875 112.036064 
C 104.421875 132.121566 112.401929 151.387122 126.604524 165.589717 
C 140.807119 179.792311 160.072674 187.772366 180.158176 187.772366 
z
" clip-path="url(#pcebfbec441)" style="fill: #ff0000; opacity: 0.2"/>
   </g>
   <g id="patch_7">
    <path d="M 108.755063 235.70626 
C 128.840565 235.70626 148.10612 227.726206 162.308715 213.523611 
C 176.51131 199.321016 184.491364 180.055461 184.491364 159.969959 
C 184.491364 139.884457 176.51131 120.618901 162.308715 106.416307 
C 148.10612 92.213712 128.840565 84.233657 108.755063 84.233657 
C 88.669561 84.233657 69.404005 92.213712 55.201411 106.416307 
C 40.998816 120.618901 33.018762 139.884457 33.018762 159.969959 
C 33.018762 180.055461 40.998816 199.321016 55.201411 213.523611 
C 69.404005 227.726206 88.669561 235.70626 108.755063 235.70626 
z
" clip-path="url(#pcebfbec441)" style="fill: #ff0000; opacity: 0.2"/>
   </g>
   <g id="patch_8">
    <path d="M 78.626394 279.717432 
C 98.711895 279.717432 117.977451 271.737378 132.180046 257.534783 
C 146.38264 243.332189 154.362695 224.066633 154.362695 203.981131 
C 154.362695 183.895629 146.38264 164.630073 132.180046 150.427479 
C 117.977451 136.224884 98.711895 128.24483 78.626394 128.24483 
C 58.540892 128.24483 39.275336 136.224884 25.072741 150.427479 
C 10.870147 164.630073 2.890092 183.895629 2.890092 203.981131 
C 2.890092 224.066633 10.870147 243.332189 25.072741 257.534783 
C 39.275336 271.737378 58.540892 279.717432 78.626394 279.717432 
z
" clip-path="url(#pcebfbec441)" style="fill: #ff0000; opacity: 0.2"/>
   </g>
   <g id="patch_9">
    <path d="M 100.034279 352.365142 
C 120.119781 352.365142 139.385337 344.385088 153.587932 330.182493 
C 167.790526 315.979899 175.770581 296.714343 175.770581 276.628841 
C 175.770581 256.543339 167.790526 237.277783 153.587932 223.075189 
C 139.385337 208.872594 120.119781 200.89254 100.034279 200.89254 
C 79.948777 200.89254 60.683222 208.872594 46.480627 223.075189 
C 32.278032 237.277783 24.297978 256.543339 24.297978 276.628841 
C 24.297978 296.714343 32.278032 315.979899 46.480627 330.182493 
C 60.683222 344.385088 79.948777 352.365142 100.034279 352.365142 
z
" clip-path="url(#pcebfbec441)" style="fill: #ff0000; opacity: 0.2"/>
   </g>
   <g id="patch_10">
    <path d="M 115.259071 376.306721 
C 135.344572 376.306721 154.610128 368.326666 168.812723 354.124072 
C 183.015317 339.921477 190.995372 320.655922 190.995372 300.57042 
C 190.995372 280.484918 183.015317 261.219362 168.812723 247.016767 
C 154.610128 232.814173 135.344572 224.834118 115.259071 224.834118 
C 95.173569 224.834118 75.908013 232.814173 61.705418 247.016767 
C 47.502824 261.219362 39.522769 280.484918 39.522769 300.57042 
C 39.522769 320.655922 47.502824 339.921477 61.705418 354.124072 
C 75.908013 368.326666 95.173569 376.306721 115.259071 376.306721 
z
" clip-path="url(#pcebfbec441)" style="fill: #ff0000; opacity: 0.2"/>
   </g>
   <g id="patch_11">
    <path d="M 207.147023 405.315922 
C 227.232525 405.315922 246.498081 397.335867 260.700675 383.133273 
C 274.90327 368.930678 282.883324 349.665122 282.883324 329.57962 
C 282.883324 309.494118 274.90327 290.228563 260.700675 276.025968 
C 246.498081 261.823374 227.232525 253.843319 207.147023 253.843319 
C 187.061521 253.843319 167.795965 261.823374 153.593371 276.025968 
C 139.390776 290.228563 131.410722 309.494118 131.410722 329.57962 
C 131.410722 349.665122 139.390776 368.930678 153.593371 383.133273 
C 167.795965 397.335867 187.061521 405.315922 207.147023 405.315922 
z
" clip-path="url(#pcebfbec441)" style="fill: #ff0000; opacity: 0.2"/>
   </g>
   <g id="patch_12">
    <path d="M 260.130036 396.689257 
C 280.215538 396.689257 299.481094 388.709203 313.683688 374.506608 
C 327.886283 360.304013 335.866337 341.038458 335.866337 320.952956 
C 335.866337 300.867454 327.886283 281.601898 313.683688 267.399304 
C 299.481094 253.196709 280.215538 245.216654 260.130036 245.216654 
C 240.044534 245.216654 220.778978 253.196709 206.576384 267.399304 
C 192.373789 281.601898 184.393735 300.867454 184.393735 320.952956 
C 184.393735 341.038458 192.373789 360.304013 206.576384 374.506608 
C 220.778978 388.709203 240.044534 396.689257 260.130036 396.689257 
z
" clip-path="url(#pcebfbec441)" style="fill: #ff0000; opacity: 0.2"/>
   </g>
   <g id="patch_13">
    <path d="M 313.558445 325.145684 
C 333.643947 325.145684 352.909502 317.16563 367.112097 302.963035 
C 381.314692 288.76044 389.294746 269.494885 389.294746 249.409383 
C 389.294746 229.323881 381.314692 210.058325 367.112097 195.855731 
C 352.909502 181.653136 333.643947 173.673081 313.558445 173.673081 
C 293.472943 173.673081 274.207387 181.653136 260.004793 195.855731 
C 245.802198 210.058325 237.822143 229.323881 237.822143 249.409383 
C 237.822143 269.494885 245.802198 288.76044 260.004793 302.963035 
C 274.207387 317.16563 293.472943 325.145684 313.558445 325.145684 
z
" clip-path="url(#pcebfbec441)" style="fill: #ff0000; opacity: 0.2"/>
   </g>
   <g id="patch_14">
    <path d="M 442.92723 287.868696 
C 463.012732 287.868696 482.278288 279.888642 496.480882 265.686047 
C 510.683477 251.483452 518.663531 232.217897 518.663531 212.132395 
C 518.663531 192.046893 510.683477 172.781337 496.480882 158.578743 
C 482.278288 144.376148 463.012732 136.396093 442.92723 136.396093 
C 422.841728 136.396093 403.576172 144.376148 389.373578 158.578743 
C 375.170983 172.781337 367.190929 192.046893 367.190929 212.132395 
C 367.190929 232.217897 375.170983 251.483452 389.373578 265.686047 
C 403.576172 279.888642 422.841728 287.868696 442.92723 287.868696 
z
" clip-path="url(#pcebfbec441)" style="fill: #ff0000; opacity: 0.2"/>
   </g>
   <g id="patch_15">
    <path d="M 417.310213 228.86165 
C 437.395715 228.86165 456.661271 220.881595 470.863865 206.679001 
C 485.06646 192.476406 493.046514 173.21085 493.046514 153.125349 
C 493.046514 133.039847 485.06646 113.774291 470.863865 99.571696 
C 456.661271 85.369102 437.395715 77.389047 417.310213 77.389047 
C 397.224711 77.389047 377.959156 85.369102 363.756561 99.571696 
C 349.553966 113.774291 341.573912 133.039847 341.573912 153.125349 
C 341.573912 173.21085 349.553966 192.476406 363.756561 206.679001 
C 377.959156 220.881595 397.224711 228.86165 417.310213 228.86165 
z
" clip-path="url(#pcebfbec441)" style="fill: #ff0000; opacity: 0.2"/>
   </g>
   <g id="patch_16">
    <path d="M 373.528542 218.339334 
C 393.614044 218.339334 412.8796 210.35928 427.082195 196.156685 
C 441.284789 181.95409 449.264844 162.688535 449.264844 142.603033 
C 449.264844 122.517531 441.284789 103.251975 427.082195 89.049381 
C 412.8796 74.846786 393.614044 66.866732 373.528542 66.866732 
C 353.44304 66.866732 334.177485 74.846786 319.97489 89.049381 
C 305.772295 103.251975 297.792241 122.517531 297.792241 142.603033 
C 297.792241 162.688535 305.772295 181.95409 319.97489 196.156685 
C 334.177485 210.35928 353.44304 218.339334 373.528542 218.339334 
z
" clip-path="url(#pcebfbec441)" style="fill: #ff0000; opacity: 0.2"/>
   </g>
   <g id="patch_17">
    <path d="M 299.999284 284.951398 
C 320.084786 284.951398 339.350342 276.971344 353.552936 262.768749 
C 367.755531 248.566154 375.735585 229.300599 375.735585 209.215097 
C 375.735585 189.129595 367.755531 169.864039 353.552936 155.661445 
C 339.350342 141.45885 320.084786 133.478796 299.999284 133.478796 
C 279.913782 133.478796 260.648226 141.45885 246.445632 155.661445 
C 232.243037 169.864039 224.262983 189.129595 224.262983 209.215097 
C 224.262983 229.300599 232.243037 248.566154 246.445632 262.768749 
C 260.648226 276.971344 279.913782 284.951398 299.999284 284.951398 
z
" clip-path="url(#pcebfbec441)" style="fill: #ff0000; opacity: 0.2"/>
   </g>
   <g id="patch_18">
    <path d="M 300.485487 302.150437 
C 320.570989 302.150437 339.836545 294.170382 354.039139 279.967788 
C 368.241734 265.765193 376.221788 246.499637 376.221788 226.414135 
C 376.221788 206.328634 368.241734 187.063078 354.039139 172.860483 
C 339.836545 158.657889 320.570989 150.677834 300.485487 150.677834 
C 280.399985 150.677834 261.134429 158.657889 246.931835 172.860483 
C 232.72924 187.063078 224.749186 206.328634 224.749186 226.414135 
C 224.749186 246.499637 232.72924 265.765193 246.931835 279.967788 
C 261.134429 294.170382 280.399985 302.150437 300.485487 302.150437 
z
" clip-path="url(#pcebfbec441)" style="fill: #ff0000; opacity: 0.2"/>
   </g>
   <g id="patch_19">
    <path d="M 364.204424 359.343953 
C 384.289926 359.343953 403.555482 351.363898 417.758076 337.161303 
C 431.960671 322.958709 439.940725 303.693153 439.940725 283.607651 
C 439.940725 263.522149 431.960671 244.256594 417.758076 230.053999 
C 403.555482 215.851404 384.289926 207.87135 364.204424 207.87135 
C 344.118922 207.87135 324.853366 215.851404 310.650772 230.053999 
C 296.448177 244.256594 288.468123 263.522149 288.468123 283.607651 
C 288.468123 303.693153 296.448177 322.958709 310.650772 337.161303 
C 324.853366 351.363898 344.118922 359.343953 364.204424 359.343953 
z
" clip-path="url(#pcebfbec441)" style="fill: #ff0000; opacity: 0.2"/>
   </g>
   <g id="patch_20">
    <path d="M 417.662676 352.057596 
C 437.748178 352.057596 457.013734 344.077542 471.216328 329.874947 
C 485.418923 315.672353 493.398977 296.406797 493.398977 276.321295 
C 493.398977 256.235793 485.418923 236.970237 471.216328 222.767643 
C 457.013734 208.565048 437.748178 200.584994 417.662676 200.584994 
C 397.577174 200.584994 378.311618 208.565048 364.109024 222.767643 
C 349.906429 236.970237 341.926375 256.235793 341.926375 276.321295 
C 341.926375 296.406797 349.906429 315.672353 364.109024 329.874947 
C 378.311618 344.077542 397.577174 352.057596 417.662676 352.057596 
z
" clip-path="url(#pcebfbec441)" style="fill: #ff0000; opacity: 0.2"/>
   </g>
   <g id="patch_21">
    <path d="M 317.187213 303.78378 
C 337.272714 303.78378 356.53827 295.803726 370.740865 281.601131 
C 384.943459 267.398537 392.923514 248.132981 392.923514 228.047479 
C 392.923514 207.961977 384.943459 188.696421 370.740865 174.493827 
C 356.53827 160.291232 337.272714 152.311178 317.187213 152.311178 
C 297.101711 152.311178 277.836155 160.291232 263.63356 174.493827 
C 249.430966 188.696421 241.450911 207.961977 241.450911 228.047479 
C 241.450911 248.132981 249.430966 267.398537 263.63356 281.601131 
C 277.836155 295.803726 297.101711 303.78378 317.187213 303.78378 
L 317.187213 303.78378 
z
" clip-path="url(#pcebfbec441)" style="fill: none; stroke: #ff0000; stroke-width: 2; stroke-linejoin: miter"/>
   </g>
   <g id="patch_22">
    <path d="M 303.011572 237.707881 
C 323.097074 237.707881 342.36263 229.727826 356.565225 215.525232 
C 370.767819 201.322637 378.747874 182.057081 378.747874 161.97158 
C 378.747874 141.886078 370.767819 122.620522 356.565225 108.417927 
C 342.36263 94.215333 323.097074 86.235278 303.011572 86.235278 
C 282.926071 86.235278 263.660515 94.215333 249.45792 108.417927 
C 235.255326 122.620522 227.275271 141.886078 227.275271 161.97158 
C 227.275271 182.057081 235.255326 201.322637 249.45792 215.525232 
C 263.660515 229.727826 282.926071 237.707881 303.011572 237.707881 
L 303.011572 237.707881 
z
" clip-path="url(#pcebfbec441)" style="fill: none; stroke: #ff0000; stroke-width: 2; stroke-linejoin: miter"/>
   </g>
   <g id="patch_23">
    <path d="M 226.729329 172.14409 
C 246.814831 172.14409 266.080387 164.164035 280.282981 149.961441 
C 294.485576 135.758846 302.46563 116.49329 302.46563 96.407789 
C 302.46563 76.322287 294.485576 57.056731 280.282981 42.854136 
C 266.080387 28.651542 246.814831 20.671487 226.729329 20.671487 
C 206.643827 20.671487 187.378272 28.651542 173.175677 42.854136 
C 158.973082 57.056731 150.993028 76.322287 150.993028 96.407789 
C 150.993028 116.49329 158.973082 135.758846 173.175677 149.961441 
C 187.378272 164.164035 206.643827 172.14409 226.729329 172.14409 
L 226.729329 172.14409 
z
" clip-path="url(#pcebfbec441)" style="fill: none; stroke: #ff0000; stroke-width: 2; stroke-linejoin: miter"/>
   </g>
   <g id="patch_24">
    <path d="M 180.863112 167.456681 
C 200.948614 167.456681 220.21417 159.476626 234.416764 145.274032 
C 248.619359 131.071437 256.599413 111.805882 256.599413 91.72038 
C 256.599413 71.634878 248.619359 52.369322 234.416764 38.166727 
C 220.21417 23.964133 200.948614 15.984078 180.863112 15.984078 
C 160.77761 15.984078 141.512055 23.964133 127.30946 38.166727 
C 113.106865 52.369322 105.126811 71.634878 105.126811 91.72038 
C 105.126811 111.805882 113.106865 131.071437 127.30946 145.274032 
C 141.512055 159.476626 160.77761 167.456681 180.863112 167.456681 
L 180.863112 167.456681 
z
" clip-path="url(#pcebfbec441)" style="fill: none; stroke: #ff0000; stroke-width: 2; stroke-linejoin: miter"/>
   </g>
   <g id="patch_25">
    <path d="M 180.158176 187.772366 
C 200.243678 187.772366 219.509234 179.792311 233.711828 165.589717 
C 247.914423 151.387122 255.894477 132.121566 255.894477 112.036064 
C 255.894477 91.950563 247.914423 72.685007 233.711828 58.482412 
C 219.509234 44.279818 200.243678 36.299763 180.158176 36.299763 
C 160.072674 36.299763 140.807119 44.279818 126.604524 58.482412 
C 112.401929 72.685007 104.421875 91.950563 104.421875 112.036064 
C 104.421875 132.121566 112.401929 151.387122 126.604524 165.589717 
C 140.807119 179.792311 160.072674 187.772366 180.158176 187.772366 
L 180.158176 187.772366 
z
" clip-path="url(#pcebfbec441)" style="fill: none; stroke: #ff0000; stroke-width: 2; stroke-linejoin: miter"/>
   </g>
   <g id="patch_26">
    <path d="M 108.755063 235.70626 
C 128.840565 235.70626 148.10612 227.726206 162.308715 213.523611 
C 176.51131 199.321016 184.491364 180.055461 184.491364 159.969959 
C 184.491364 139.884457 176.51131 120.618901 162.308715 106.416307 
C 148.10612 92.213712 128.840565 84.233657 108.755063 84.233657 
C 88.669561 84.233657 69.404005 92.213712 55.201411 106.416307 
C 40.998816 120.618901 33.018762 139.884457 33.018762 159.969959 
C 33.018762 180.055461 40.998816 199.321016 55.201411 213.523611 
C 69.404005 227.726206 88.669561 235.70626 108.755063 235.70626 
L 108.755063 235.70626 
z
" clip-path="url(#pcebfbec441)" style="fill: none; stroke: #ff0000; stroke-width: 2; stroke-linejoin: miter"/>
   </g>
   <g id="patch_27">
    <path d="M 78.626394 279.717432 
C 98.711895 279.717432 117.977451 271.737378 132.180046 257.534783 
C 146.38264 243.332189 154.362695 224.066633 154.362695 203.981131 
C 154.362695 183.895629 146.38264 164.630073 132.180046 150.427479 
C 117.977451 136.224884 98.711895 128.24483 78.626394 128.24483 
C 58.540892 128.24483 39.275336 136.224884 25.072741 150.427479 
C 10.870147 164.630073 2.890092 183.895629 2.890092 203.981131 
C 2.890092 224.066633 10.870147 243.332189 25.072741 257.534783 
C 39.275336 271.737378 58.540892 279.717432 78.626394 279.717432 
L 78.626394 279.717432 
z
" clip-path="url(#pcebfbec441)" style="fill: none; stroke: #ff0000; stroke-width: 2; stroke-linejoin: miter"/>
   </g>
   <g id="patch_28">
    <path d="M 100.034279 352.365142 
C 120.119781 352.365142 139.385337 344.385088 153.587932 330.182493 
C 167.790526 315.979899 175.770581 296.714343 175.770581 276.628841 
C 175.770581 256.543339 167.790526 237.277783 153.587932 223.075189 
C 139.385337 208.872594 120.119781 200.89254 100.034279 200.89254 
C 79.948777 200.89254 60.683222 208.872594 46.480627 223.075189 
C 32.278032 237.277783 24.297978 256.543339 24.297978 276.628841 
C 24.297978 296.714343 32.278032 315.979899 46.480627 330.182493 
C 60.683222 344.385088 79.948777 352.365142 100.034279 352.365142 
L 100.034279 352.365142 
z
" clip-path="url(#pcebfbec441)" style="fill: none; stroke: #ff0000; stroke-width: 2; stroke-linejoin: miter"/>
   </g>
   <g id="patch_29">
    <path d="M 115.259071 376.306721 
C 135.344572 376.306721 154.610128 368.326666 168.812723 354.124072 
C 183.015317 339.921477 190.995372 320.655922 190.995372 300.57042 
C 190.995372 280.484918 183.015317 261.219362 168.812723 247.016767 
C 154.610128 232.814173 135.344572 224.834118 115.259071 224.834118 
C 95.173569 224.834118 75.908013 232.814173 61.705418 247.016767 
C 47.502824 261.219362 39.522769 280.484918 39.522769 300.57042 
C 39.522769 320.655922 47.502824 339.921477 61.705418 354.124072 
C 75.908013 368.326666 95.173569 376.306721 115.259071 376.306721 
L 115.259071 376.306721 
z
" clip-path="url(#pcebfbec441)" style="fill: none; stroke: #ff0000; stroke-width: 2; stroke-linejoin: miter"/>
   </g>
   <g id="patch_30">
    <path d="M 207.147023 405.315922 
C 227.232525 405.315922 246.498081 397.335867 260.700675 383.133273 
C 274.90327 368.930678 282.883324 349.665122 282.883324 329.57962 
C 282.883324 309.494118 274.90327 290.228563 260.700675 276.025968 
C 246.498081 261.823374 227.232525 253.843319 207.147023 253.843319 
C 187.061521 253.843319 167.795965 261.823374 153.593371 276.025968 
C 139.390776 290.228563 131.410722 309.494118 131.410722 329.57962 
C 131.410722 349.665122 139.390776 368.930678 153.593371 383.133273 
C 167.795965 397.335867 187.061521 405.315922 207.147023 405.315922 
L 207.147023 405.315922 
z
" clip-path="url(#pcebfbec441)" style="fill: none; stroke: #ff0000; stroke-width: 2; stroke-linejoin: miter"/>
   </g>
   <g id="patch_31">
    <path d="M 260.130036 396.689257 
C 280.215538 396.689257 299.481094 388.709203 313.683688 374.506608 
C 327.886283 360.304013 335.866337 341.038458 335.866337 320.952956 
C 335.866337 300.867454 327.886283 281.601898 313.683688 267.399304 
C 299.481094 253.196709 280.215538 245.216654 260.130036 245.216654 
C 240.044534 245.216654 220.778978 253.196709 206.576384 267.399304 
C 192.373789 281.601898 184.393735 300.867454 184.393735 320.952956 
C 184.393735 341.038458 192.373789 360.304013 206.576384 374.506608 
C 220.778978 388.709203 240.044534 396.689257 260.130036 396.689257 
L 260.130036 396.689257 
z
" clip-path="url(#pcebfbec441)" style="fill: none; stroke: #ff0000; stroke-width: 2; stroke-linejoin: miter"/>
   </g>
   <g id="patch_32">
    <path d="M 313.558445 325.145684 
C 333.643947 325.145684 352.909502 317.16563 367.112097 302.963035 
C 381.314692 288.76044 389.294746 269.494885 389.294746 249.409383 
C 389.294746 229.323881 381.314692 210.058325 367.112097 195.855731 
C 352.909502 181.653136 333.643947 173.673081 313.558445 173.673081 
C 293.472943 173.673081 274.207387 181.653136 260.004793 195.855731 
C 245.802198 210.058325 237.822143 229.323881 237.822143 249.409383 
C 237.822143 269.494885 245.802198 288.76044 260.004793 302.963035 
C 274.207387 317.16563 293.472943 325.145684 313.558445 325.145684 
L 313.558445 325.145684 
z
" clip-path="url(#pcebfbec441)" style="fill: none; stroke: #ff0000; stroke-width: 2; stroke-linejoin: miter"/>
   </g>
   <g id="patch_33">
    <path d="M 442.92723 287.868696 
C 463.012732 287.868696 482.278288 279.888642 496.480882 265.686047 
C 510.683477 251.483452 518.663531 232.217897 518.663531 212.132395 
C 518.663531 192.046893 510.683477 172.781337 496.480882 158.578743 
C 482.278288 144.376148 463.012732 136.396093 442.92723 136.396093 
C 422.841728 136.396093 403.576172 144.376148 389.373578 158.578743 
C 375.170983 172.781337 367.190929 192.046893 367.190929 212.132395 
C 367.190929 232.217897 375.170983 251.483452 389.373578 265.686047 
C 403.576172 279.888642 422.841728 287.868696 442.92723 287.868696 
L 442.92723 287.868696 
z
" clip-path="url(#pcebfbec441)" style="fill: none; stroke: #ff0000; stroke-width: 2; stroke-linejoin: miter"/>
   </g>
   <g id="patch_34">
    <path d="M 417.310213 228.86165 
C 437.395715 228.86165 456.661271 220.881595 470.863865 206.679001 
C 485.06646 192.476406 493.046514 173.21085 493.046514 153.125349 
C 493.046514 133.039847 485.06646 113.774291 470.863865 99.571696 
C 456.661271 85.369102 437.395715 77.389047 417.310213 77.389047 
C 397.224711 77.389047 377.959156 85.369102 363.756561 99.571696 
C 349.553966 113.774291 341.573912 133.039847 341.573912 153.125349 
C 341.573912 173.21085 349.553966 192.476406 363.756561 206.679001 
C 377.959156 220.881595 397.224711 228.86165 417.310213 228.86165 
L 417.310213 228.86165 
z
" clip-path="url(#pcebfbec441)" style="fill: none; stroke: #ff0000; stroke-width: 2; stroke-linejoin: miter"/>
   </g>
   <g id="patch_35">
    <path d="M 373.528542 218.339334 
C 393.614044 218.339334 412.8796 210.35928 427.082195 196.156685 
C 441.284789 181.95409 449.264844 162.688535 449.264844 142.603033 
C 449.264844 122.517531 441.284789 103.251975 427.082195 89.049381 
C 412.8796 74.846786 393.614044 66.866732 373.528542 66.866732 
C 353.44304 66.866732 334.177485 74.846786 319.97489 89.049381 
C 305.772295 103.251975 297.792241 122.517531 297.792241 142.603033 
C 297.792241 162.688535 305.772295 181.95409 319.97489 196.156685 
C 334.177485 210.35928 353.44304 218.339334 373.528542 218.339334 
L 373.528542 218.339334 
z
" clip-path="url(#pcebfbec441)" style="fill: none; stroke: #ff0000; stroke-width: 2; stroke-linejoin: miter"/>
   </g>
   <g id="patch_36">
    <path d="M 299.999284 284.951398 
C 320.084786 284.951398 339.350342 276.971344 353.552936 262.768749 
C 367.755531 248.566154 375.735585 229.300599 375.735585 209.215097 
C 375.735585 189.129595 367.755531 169.864039 353.552936 155.661445 
C 339.350342 141.45885 320.084786 133.478796 299.999284 133.478796 
C 279.913782 133.478796 260.648226 141.45885 246.445632 155.661445 
C 232.243037 169.864039 224.262983 189.129595 224.262983 209.215097 
C 224.262983 229.300599 232.243037 248.566154 246.445632 262.768749 
C 260.648226 276.971344 279.913782 284.951398 299.999284 284.951398 
L 299.999284 284.951398 
z
" clip-path="url(#pcebfbec441)" style="fill: none; stroke: #ff0000; stroke-width: 2; stroke-linejoin: miter"/>
   </g>
   <g id="patch_37">
    <path d="M 300.485487 302.150437 
C 320.570989 302.150437 339.836545 294.170382 354.039139 279.967788 
C 368.241734 265.765193 376.221788 246.499637 376.221788 226.414135 
C 376.221788 206.328634 368.241734 187.063078 354.039139 172.860483 
C 339.836545 158.657889 320.570989 150.677834 300.485487 150.677834 
C 280.399985 150.677834 261.134429 158.657889 246.931835 172.860483 
C 232.72924 187.063078 224.749186 206.328634 224.749186 226.414135 
C 224.749186 246.499637 232.72924 265.765193 246.931835 279.967788 
C 261.134429 294.170382 280.399985 302.150437 300.485487 302.150437 
L 300.485487 302.150437 
z
" clip-path="url(#pcebfbec441)" style="fill: none; stroke: #ff0000; stroke-width: 2; stroke-linejoin: miter"/>
   </g>
   <g id="patch_38">
    <path d="M 364.204424 359.343953 
C 384.289926 359.343953 403.555482 351.363898 417.758076 337.161303 
C 431.960671 322.958709 439.940725 303.693153 439.940725 283.607651 
C 439.940725 263.522149 431.960671 244.256594 417.758076 230.053999 
C 403.555482 215.851404 384.289926 207.87135 364.204424 207.87135 
C 344.118922 207.87135 324.853366 215.851404 310.650772 230.053999 
C 296.448177 244.256594 288.468123 263.522149 288.468123 283.607651 
C 288.468123 303.693153 296.448177 322.958709 310.650772 337.161303 
C 324.853366 351.363898 344.118922 359.343953 364.204424 359.343953 
L 364.204424 359.343953 
z
" clip-path="url(#pcebfbec441)" style="fill: none; stroke: #ff0000; stroke-width: 2; stroke-linejoin: miter"/>
   </g>
   <g id="patch_39">
    <path d="M 417.662676 352.057596 
C 437.748178 352.057596 457.013734 344.077542 471.216328 329.874947 
C 485.418923 315.672353 493.398977 296.406797 493.398977 276.321295 
C 493.398977 256.235793 485.418923 236.970237 471.216328 222.767643 
C 457.013734 208.565048 437.748178 200.584994 417.662676 200.584994 
C 397.577174 200.584994 378.311618 208.565048 364.109024 222.767643 
C 349.906429 236.970237 341.926375 256.235793 341.926375 276.321295 
C 341.926375 296.406797 349.906429 315.672353 364.109024 329.874947 
C 378.311618 344.077542 397.577174 352.057596 417.662676 352.057596 
L 417.662676 352.057596 
z
" clip-path="url(#pcebfbec441)" style="fill: none; stroke: #ff0000; stroke-width: 2; stroke-linejoin: miter"/>
   </g>
   <g id="line2d_1">
    <path d="M 317.187213 228.047479 
L 303.011572 161.97158 
" clip-path="url(#pcebfbec441)" style="fill: none; stroke: #000000; stroke-width: 2; stroke-linecap: square"/>
   </g>
   <g id="line2d_2">
    <path d="M 317.187213 228.047479 
L 313.558445 249.409383 
" clip-path="url(#pcebfbec441)" style="fill: none; stroke: #000000; stroke-width: 2; stroke-linecap: square"/>
   </g>
   <g id="line2d_3">
    <path d="M 317.187213 228.047479 
L 299.999284 209.215097 
" clip-path="url(#pcebfbec441)" style="fill: none; stroke: #000000; stroke-width: 2; stroke-linecap: square"/>
   </g>
   <g id="line2d_4">
    <path d="M 317.187213 228.047479 
L 300.485487 226.414135 
" clip-path="url(#pcebfbec441)" style="fill: none; stroke: #000000; stroke-width: 2; stroke-linecap: square"/>
   </g>
   <g id="line2d_5">
    <path d="M 317.187213 228.047479 
L 364.204424 283.607651 
" clip-path="url(#pcebfbec441)" style="fill: none; stroke: #000000; stroke-width: 2; stroke-linecap: square"/>
   </g>
   <g id="line2d_6">
    <path d="M 303.011572 161.97158 
L 373.528542 142.603033 
" clip-path="url(#pcebfbec441)" style="fill: none; stroke: #000000; stroke-width: 2; stroke-linecap: square"/>
   </g>
   <g id="line2d_7">
    <path d="M 303.011572 161.97158 
L 299.999284 209.215097 
" clip-path="url(#pcebfbec441)" style="fill: none; stroke: #000000; stroke-width: 2; stroke-linecap: square"/>
   </g>
   <g id="line2d_8">
    <path d="M 303.011572 161.97158 
L 300.485487 226.414135 
" clip-path="url(#pcebfbec441)" style="fill: none; stroke: #000000; stroke-width: 2; stroke-linecap: square"/>
   </g>
   <g id="line2d_9">
    <path d="M 226.729329 96.407789 
L 180.863112 91.72038 
" clip-path="url(#pcebfbec441)" style="fill: none; stroke: #000000; stroke-width: 2; stroke-linecap: square"/>
   </g>
   <g id="line2d_10">
    <path d="M 226.729329 96.407789 
L 180.158176 112.036064 
" clip-path="url(#pcebfbec441)" style="fill: none; stroke: #000000; stroke-width: 2; stroke-linecap: square"/>
   </g>
   <g id="line2d_11">
    <path d="M 180.863112 91.72038 
L 180.158176 112.036064 
" clip-path="url(#pcebfbec441)" style="fill: none; stroke: #000000; stroke-width: 2; stroke-linecap: square"/>
   </g>
   <g id="line2d_12">
    <path d="M 108.755063 159.969959 
L 78.626394 203.981131 
" clip-path="url(#pcebfbec441)" style="fill: none; stroke: #000000; stroke-width: 2; stroke-linecap: square"/>
   </g>
   <g id="line2d_13">
    <path d="M 78.626394 203.981131 
L 100.034279 276.628841 
" clip-path="url(#pcebfbec441)" style="fill: none; stroke: #000000; stroke-width: 2; stroke-linecap: square"/>
   </g>
   <g id="line2d_14">
    <path d="M 100.034279 276.628841 
L 115.259071 300.57042 
" clip-path="url(#pcebfbec441)" style="fill: none; stroke: #000000; stroke-width: 2; stroke-linecap: square"/>
   </g>
   <g id="line2d_15">
    <path d="M 207.147023 329.57962 
L 260.130036 320.952956 
" clip-path="url(#pcebfbec441)" style="fill: none; stroke: #000000; stroke-width: 2; stroke-linecap: square"/>
   </g>
   <g id="line2d_16">
    <path d="M 313.558445 249.409383 
L 299.999284 209.215097 
" clip-path="url(#pcebfbec441)" style="fill: none; stroke: #000000; stroke-width: 2; stroke-linecap: square"/>
   </g>
   <g id="line2d_17">
    <path d="M 313.558445 249.409383 
L 300.485487 226.414135 
" clip-path="url(#pcebfbec441)" style="fill: none; stroke: #000000; stroke-width: 2; stroke-linecap: square"/>
   </g>
   <g id="line2d_18">
    <path d="M 313.558445 249.409383 
L 364.204424 283.607651 
" clip-path="url(#pcebfbec441)" style="fill: none; stroke: #000000; stroke-width: 2; stroke-linecap: square"/>
   </g>
   <g id="line2d_19">
    <path d="M 442.92723 212.132395 
L 417.310213 153.125349 
" clip-path="url(#pcebfbec441)" style="fill: none; stroke: #000000; stroke-width: 2; stroke-linecap: square"/>
   </g>
   <g id="line2d_20">
    <path d="M 442.92723 212.132395 
L 417.662676 276.321295 
" clip-path="url(#pcebfbec441)" style="fill: none; stroke: #000000; stroke-width: 2; stroke-linecap: square"/>
   </g>
   <g id="line2d_21">
    <path d="M 417.310213 153.125349 
L 373.528542 142.603033 
" clip-path="url(#pcebfbec441)" style="fill: none; stroke: #000000; stroke-width: 2; stroke-linecap: square"/>
   </g>
   <g id="line2d_22">
    <path d="M 299.999284 209.215097 
L 300.485487 226.414135 
" clip-path="url(#pcebfbec441)" style="fill: none; stroke: #000000; stroke-width: 2; stroke-linecap: square"/>
   </g>
   <g id="line2d_23">
    <path d="M 364.204424 283.607651 
L 417.662676 276.321295 
" clip-path="url(#pcebfbec441)" style="fill: none; stroke: #000000; stroke-width: 2; stroke-linecap: square"/>
   </g>
   <g id="PathCollection_2">
    <defs>
     <path id="mc5f4336984" d="M 0 3 
C 0.795609 3 1.55874 2.683901 2.12132 2.12132 
C 2.683901 1.55874 3 0.795609 3 0 
C 3 -0.795609 2.683901 -1.55874 2.12132 -2.12132 
C 1.55874 -2.683901 0.795609 -3 0 -3 
C -0.795609 -3 -1.55874 -2.683901 -2.12132 -2.12132 
C -2.683901 -1.55874 -3 -0.795609 -3 0 
C -3 0.795609 -2.683901 1.55874 -2.12132 2.12132 
C -1.55874 2.683901 -0.795609 3 0 3 
z
" style="stroke: #0000ff"/>
    </defs>
    <g clip-path="url(#pcebfbec441)">
     <use xlink:href="#mc5f4336984" x="317.187213" y="228.047479" style="fill: #0000ff; stroke: #0000ff"/>
     <use xlink:href="#mc5f4336984" x="303.011572" y="161.97158" style="fill: #0000ff; stroke: #0000ff"/>
     <use xlink:href="#mc5f4336984" x="226.729329" y="96.407789" style="fill: #0000ff; stroke: #0000ff"/>
     <use xlink:href="#mc5f4336984" x="180.863112" y="91.72038" style="fill: #0000ff; stroke: #0000ff"/>
     <use xlink:href="#mc5f4336984" x="180.158176" y="112.036064" style="fill: #0000ff; stroke: #0000ff"/>
     <use xlink:href="#mc5f4336984" x="108.755063" y="159.969959" style="fill: #0000ff; stroke: #0000ff"/>
     <use xlink:href="#mc5f4336984" x="78.626394" y="203.981131" style="fill: #0000ff; stroke: #0000ff"/>
     <use xlink:href="#mc5f4336984" x="100.034279" y="276.628841" style="fill: #0000ff; stroke: #0000ff"/>
     <use xlink:href="#mc5f4336984" x="115.259071" y="300.57042" style="fill: #0000ff; stroke: #0000ff"/>
     <use xlink:href="#mc5f4336984" x="207.147023" y="329.57962" style="fill: #0000ff; stroke: #0000ff"/>
     <use xlink:href="#mc5f4336984" x="260.130036" y="320.952956" style="fill: #0000ff; stroke: #0000ff"/>
     <use xlink:href="#mc5f4336984" x="313.558445" y="249.409383" style="fill: #0000ff; stroke: #0000ff"/>
     <use xlink:href="#mc5f4336984" x="442.92723" y="212.132395" style="fill: #0000ff; stroke: #0000ff"/>
     <use xlink:href="#mc5f4336984" x="417.310213" y="153.125349" style="fill: #0000ff; stroke: #0000ff"/>
     <use xlink:href="#mc5f4336984" x="373.528542" y="142.603033" style="fill: #0000ff; stroke: #0000ff"/>
     <use xlink:href="#mc5f4336984" x="299.999284" y="209.215097" style="fill: #0000ff; stroke: #0000ff"/>
     <use xlink:href="#mc5f4336984" x="300.485487" y="226.414135" style="fill: #0000ff; stroke: #0000ff"/>
     <use xlink:href="#mc5f4336984" x="364.204424" y="283.607651" style="fill: #0000ff; stroke: #0000ff"/>
     <use xlink:href="#mc5f4336984" x="417.662676" y="276.321295" style="fill: #0000ff; stroke: #0000ff"/>
    </g>
   </g>
  </g>
  <g id="axes_2">
   <g id="patch_40">
    <path d="M 558.446376 414.1 
L 1065.6 414.1 
L 1065.6 7.2 
L 558.446376 7.2 
z
" style="fill: #ffffff"/>
   </g>
   <g id="matplotlib.axis_1">
    <g id="xtick_1">
     <g id="line2d_24">
      <defs>
       <path id="m7f3ae33e55" d="M 0 0 
L 0 3.5 
" style="stroke: #000000; stroke-width: 0.8"/>
      </defs>
      <g>
       <use xlink:href="#m7f3ae33e55" x="571.792524" y="414.1" style="stroke: #000000; stroke-width: 0.8"/>
      </g>
     </g>
    </g>
    <g id="xtick_2">
     <g id="line2d_25">
      <g>
       <use xlink:href="#m7f3ae33e55" x="598.48482" y="414.1" style="stroke: #000000; stroke-width: 0.8"/>
      </g>
     </g>
    </g>
    <g id="xtick_3">
     <g id="line2d_26">
      <g>
       <use xlink:href="#m7f3ae33e55" x="625.177116" y="414.1" style="stroke: #000000; stroke-width: 0.8"/>
      </g>
     </g>
    </g>
    <g id="xtick_4">
     <g id="line2d_27">
      <g>
       <use xlink:href="#m7f3ae33e55" x="651.869412" y="414.1" style="stroke: #000000; stroke-width: 0.8"/>
      </g>
     </g>
    </g>
    <g id="xtick_5">
     <g id="line2d_28">
      <g>
       <use xlink:href="#m7f3ae33e55" x="678.561708" y="414.1" style="stroke: #000000; stroke-width: 0.8"/>
      </g>
     </g>
    </g>
    <g id="xtick_6">
     <g id="line2d_29">
      <g>
       <use xlink:href="#m7f3ae33e55" x="705.254004" y="414.1" style="stroke: #000000; stroke-width: 0.8"/>
      </g>
     </g>
    </g>
    <g id="xtick_7">
     <g id="line2d_30">
      <g>
       <use xlink:href="#m7f3ae33e55" x="731.9463" y="414.1" style="stroke: #000000; stroke-width: 0.8"/>
      </g>
     </g>
    </g>
    <g id="xtick_8">
     <g id="line2d_31">
      <g>
       <use xlink:href="#m7f3ae33e55" x="758.638596" y="414.1" style="stroke: #000000; stroke-width: 0.8"/>
      </g>
     </g>
    </g>
    <g id="xtick_9">
     <g id="line2d_32">
      <g>
       <use xlink:href="#m7f3ae33e55" x="785.330892" y="414.1" style="stroke: #000000; stroke-width: 0.8"/>
      </g>
     </g>
    </g>
    <g id="xtick_10">
     <g id="line2d_33">
      <g>
       <use xlink:href="#m7f3ae33e55" x="812.023188" y="414.1" style="stroke: #000000; stroke-width: 0.8"/>
      </g>
     </g>
    </g>
    <g id="xtick_11">
     <g id="line2d_34">
      <g>
       <use xlink:href="#m7f3ae33e55" x="838.715484" y="414.1" style="stroke: #000000; stroke-width: 0.8"/>
      </g>
     </g>
    </g>
    <g id="xtick_12">
     <g id="line2d_35">
      <g>
       <use xlink:href="#m7f3ae33e55" x="865.40778" y="414.1" style="stroke: #000000; stroke-width: 0.8"/>
      </g>
     </g>
    </g>
    <g id="xtick_13">
     <g id="line2d_36">
      <g>
       <use xlink:href="#m7f3ae33e55" x="892.100076" y="414.1" style="stroke: #000000; stroke-width: 0.8"/>
      </g>
     </g>
    </g>
    <g id="xtick_14">
     <g id="line2d_37">
      <g>
       <use xlink:href="#m7f3ae33e55" x="918.792372" y="414.1" style="stroke: #000000; stroke-width: 0.8"/>
      </g>
     </g>
    </g>
    <g id="xtick_15">
     <g id="line2d_38">
      <g>
       <use xlink:href="#m7f3ae33e55" x="945.484668" y="414.1" style="stroke: #000000; stroke-width: 0.8"/>
      </g>
     </g>
    </g>
    <g id="xtick_16">
     <g id="line2d_39">
      <g>
       <use xlink:href="#m7f3ae33e55" x="972.176964" y="414.1" style="stroke: #000000; stroke-width: 0.8"/>
      </g>
     </g>
    </g>
    <g id="xtick_17">
     <g id="line2d_40">
      <g>
       <use xlink:href="#m7f3ae33e55" x="998.86926" y="414.1" style="stroke: #000000; stroke-width: 0.8"/>
      </g>
     </g>
    </g>
    <g id="xtick_18">
     <g id="line2d_41">
      <g>
       <use xlink:href="#m7f3ae33e55" x="1025.561556" y="414.1" style="stroke: #000000; stroke-width: 0.8"/>
      </g>
     </g>
    </g>
    <g id="xtick_19">
     <g id="line2d_42">
      <g>
       <use xlink:href="#m7f3ae33e55" x="1052.253852" y="414.1" style="stroke: #000000; stroke-width: 0.8"/>
      </g>
     </g>
    </g>
   </g>
   <g id="matplotlib.axis_2">
    <g id="ytick_1">
     <g id="line2d_43">
      <defs>
       <path id="m4bf8576630" d="M 0 0 
L -3.5 0 
" style="stroke: #000000; stroke-width: 0.8"/>
      </defs>
      <g>
       <use xlink:href="#m4bf8576630" x="558.446376" y="144.28327" style="stroke: #000000; stroke-width: 0.8"/>
      </g>
     </g>
     <g id="text_1">
      <!-- $r_{15}$ -->
      <g transform="translate(524.846376 151.881707) scale(0.2 -0.2)">
       <defs>
        <path id="DejaVuSans-Oblique-72" d="M 2853 2969 
Q 2766 3016 2653 3041 
Q 2541 3066 2413 3066 
Q 1953 3066 1609 2717 
Q 1266 2369 1153 1784 
L 800 0 
L 225 0 
L 909 3500 
L 1484 3500 
L 1375 2956 
Q 1603 3259 1920 3421 
Q 2238 3584 2597 3584 
Q 2691 3584 2781 3573 
Q 2872 3563 2963 3538 
L 2853 2969 
z
" transform="scale(0.015625)"/>
        <path id="DejaVuSans-31" d="M 794 531 
L 1825 531 
L 1825 4091 
L 703 3866 
L 703 4441 
L 1819 4666 
L 2450 4666 
L 2450 531 
L 3481 531 
L 3481 0 
L 794 0 
L 794 531 
z
" transform="scale(0.015625)"/>
        <path id="DejaVuSans-35" d="M 691 4666 
L 3169 4666 
L 3169 4134 
L 1269 4134 
L 1269 2991 
Q 1406 3038 1543 3061 
Q 1681 3084 1819 3084 
Q 2600 3084 3056 2656 
Q 3513 2228 3513 1497 
Q 3513 744 3044 326 
Q 2575 -91 1722 -91 
Q 1428 -91 1123 -41 
Q 819 9 494 109 
L 494 744 
Q 775 591 1075 516 
Q 1375 441 1709 441 
Q 2250 441 2565 725 
Q 2881 1009 2881 1497 
Q 2881 1984 2565 2268 
Q 2250 2553 1709 2553 
Q 1456 2553 1204 2497 
Q 953 2441 691 2322 
L 691 4666 
z
" transform="scale(0.015625)"/>
       </defs>
       <use xlink:href="#DejaVuSans-Oblique-72"/>
       <use xlink:href="#DejaVuSans-31" transform="translate(41.113281 -16.40625) scale(0.7)"/>
       <use xlink:href="#DejaVuSans-35" transform="translate(85.649414 -16.40625) scale(0.7)"/>
      </g>
     </g>
    </g>
   </g>
   <g id="line2d_44">
    <path d="M 598.48482 414.1 
L 598.48482 341.680163 
L 625.177116 341.680163 
L 625.177116 414.1 
" clip-path="url(#p9788c6ed94)" style="fill: none; stroke: #ff0000; stroke-width: 5; stroke-linecap: square"/>
   </g>
   <g id="line2d_45">
    <path d="M 571.792524 414.1 
L 571.792524 249.846779 
L 611.830968 249.846779 
L 611.830968 341.680163 
" clip-path="url(#p9788c6ed94)" style="fill: none; stroke: #ff0000; stroke-width: 5; stroke-linecap: square"/>
   </g>
   <g id="line2d_46">
    <path d="M 651.869412 414.1 
L 651.869412 313.020995 
L 678.561708 313.020995 
L 678.561708 414.1 
" clip-path="url(#p9788c6ed94)" style="fill: none; stroke: #ff0000; stroke-width: 5; stroke-linecap: square"/>
   </g>
   <g id="line2d_47">
    <path d="M 705.254004 414.1 
L 705.254004 224.086462 
L 731.9463 224.086462 
L 731.9463 414.1 
" clip-path="url(#p9788c6ed94)" style="fill: none; stroke: #ff0000; stroke-width: 5; stroke-linecap: square"/>
   </g>
   <g id="line2d_48">
    <path d="M 665.21556 313.020995 
L 665.21556 144.28327 
L 718.600152 144.28327 
L 718.600152 224.086462 
" clip-path="url(#p9788c6ed94)" style="fill: none; stroke: #ff0000; stroke-width: 5; stroke-linecap: square"/>
   </g>
   <g id="line2d_49">
    <path d="M 758.638596 414.1 
L 758.638596 222.858095 
L 785.330892 222.858095 
L 785.330892 414.1 
" clip-path="url(#p9788c6ed94)" style="fill: none; stroke: #ff0000; stroke-width: 5; stroke-linecap: square"/>
   </g>
   <g id="line2d_50">
    <path d="M 892.100076 414.1 
L 892.100076 354.314891 
L 918.792372 354.314891 
L 918.792372 414.1 
" clip-path="url(#p9788c6ed94)" style="fill: none; stroke: #ff0000; stroke-width: 5; stroke-linecap: square"/>
   </g>
   <g id="line2d_51">
    <path d="M 865.40778 414.1 
L 865.40778 352.802549 
L 905.446224 352.802549 
L 905.446224 354.314891 
" clip-path="url(#p9788c6ed94)" style="fill: none; stroke: #ff0000; stroke-width: 5; stroke-linecap: square"/>
   </g>
   <g id="line2d_52">
    <path d="M 838.715484 414.1 
L 838.715484 336.906263 
L 885.427002 336.906263 
L 885.427002 352.802549 
" clip-path="url(#p9788c6ed94)" style="fill: none; stroke: #ff0000; stroke-width: 5; stroke-linecap: square"/>
   </g>
   <g id="line2d_53">
    <path d="M 812.023188 414.1 
L 812.023188 245.44935 
L 862.071243 245.44935 
L 862.071243 336.906263 
" clip-path="url(#p9788c6ed94)" style="fill: none; stroke: #ff0000; stroke-width: 5; stroke-linecap: square"/>
   </g>
   <g id="line2d_54">
    <path d="M 945.484668 414.1 
L 945.484668 221.88972 
L 972.176964 221.88972 
L 972.176964 414.1 
" clip-path="url(#p9788c6ed94)" style="fill: none; stroke: #ff0000; stroke-width: 5; stroke-linecap: square"/>
   </g>
   <g id="line2d_55">
    <path d="M 837.047216 245.44935 
L 837.047216 196.387606 
L 958.830816 196.387606 
L 958.830816 221.88972 
" clip-path="url(#p9788c6ed94)" style="fill: none; stroke: #ff0000; stroke-width: 5; stroke-linecap: square"/>
   </g>
   <g id="line2d_56">
    <path d="M 1025.561556 414.1 
L 1025.561556 253.682782 
L 1052.253852 253.682782 
L 1052.253852 414.1 
" clip-path="url(#p9788c6ed94)" style="fill: none; stroke: #ff0000; stroke-width: 5; stroke-linecap: square"/>
   </g>
   <g id="line2d_57">
    <path d="M 998.86926 414.1 
L 998.86926 184.927061 
L 1038.907704 184.927061 
L 1038.907704 253.682782 
" clip-path="url(#p9788c6ed94)" style="fill: none; stroke: #ff0000; stroke-width: 5; stroke-linecap: square"/>
   </g>
   <g id="line2d_58">
    <path d="M 897.939016 196.387606 
L 897.939016 168.346113 
L 1018.888482 168.346113 
L 1018.888482 184.927061 
" clip-path="url(#p9788c6ed94)" style="fill: none; stroke: #ff0000; stroke-width: 5; stroke-linecap: square"/>
   </g>
   <g id="line2d_59">
    <path d="M 591.811746 249.846779 
L 591.811746 144.28327 
" clip-path="url(#p9788c6ed94)" style="fill: none; stroke: #ff0000; stroke-width: 5; stroke-linecap: square"/>
   </g>
   <g id="line2d_60">
    <path d="M 691.907856 144.28327 
L 691.907856 144.28327 
" clip-path="url(#p9788c6ed94)" style="fill: none; stroke: #ff0000; stroke-width: 5; stroke-linecap: square"/>
   </g>
   <g id="line2d_61">
    <path d="M 771.984744 222.858095 
L 771.984744 144.28327 
" clip-path="url(#p9788c6ed94)" style="fill: none; stroke: #ff0000; stroke-width: 5; stroke-linecap: square"/>
   </g>
   <g id="line2d_62">
    <path d="M 958.413749 168.346113 
L 958.413749 144.28327 
" clip-path="url(#p9788c6ed94)" style="fill: none; stroke: #ff0000; stroke-width: 5; stroke-linecap: square"/>
   </g>
   <g id="patch_41">
    <path d="M 558.446376 414.1 
L 558.446376 7.2 
" style="fill: none; stroke: #000000; stroke-width: 0.8; stroke-linejoin: miter; stroke-linecap: square"/>
   </g>
   <g id="patch_42">
    <path d="M 1065.6 414.1 
L 1065.6 7.2 
" style="fill: none; stroke: #000000; stroke-width: 0.8; stroke-linejoin: miter; stroke-linecap: square"/>
   </g>
   <g id="patch_43">
    <path d="M 558.446376 414.1 
L 1065.6 414.1 
" style="fill: none; stroke: #000000; stroke-width: 0.8; stroke-linejoin: miter; stroke-linecap: square"/>
   </g>
   <g id="patch_44">
    <path d="M 558.446376 7.2 
L 1065.6 7.2 
" style="fill: none; stroke: #000000; stroke-width: 0.8; stroke-linejoin: miter; stroke-linecap: square"/>
   </g>
   <g id="PathCollection_3">
    <defs>
     <path id="m0e3be9aa78" d="M 0 6.123724 
C 1.624031 6.123724 3.181764 5.47849 4.330127 4.330127 
C 5.47849 3.181764 6.123724 1.624031 6.123724 0 
C 6.123724 -1.624031 5.47849 -3.181764 4.330127 -4.330127 
C 3.181764 -5.47849 1.624031 -6.123724 0 -6.123724 
C -1.624031 -6.123724 -3.181764 -5.47849 -4.330127 -4.330127 
C -5.47849 -3.181764 -6.123724 -1.624031 -6.123724 0 
C -6.123724 1.624031 -5.47849 3.181764 -4.330127 4.330127 
C -3.181764 5.47849 -1.624031 6.123724 0 6.123724 
z
" style="stroke: #0000ff"/>
    </defs>
    <g clip-path="url(#p9788c6ed94)">
     <use xlink:href="#m0e3be9aa78" x="571.792524" y="414.1" style="fill: #0000ff; stroke: #0000ff"/>
     <use xlink:href="#m0e3be9aa78" x="598.48482" y="414.1" style="fill: #0000ff; stroke: #0000ff"/>
     <use xlink:href="#m0e3be9aa78" x="625.177116" y="414.1" style="fill: #0000ff; stroke: #0000ff"/>
     <use xlink:href="#m0e3be9aa78" x="651.869412" y="414.1" style="fill: #0000ff; stroke: #0000ff"/>
     <use xlink:href="#m0e3be9aa78" x="678.561708" y="414.1" style="fill: #0000ff; stroke: #0000ff"/>
     <use xlink:href="#m0e3be9aa78" x="705.254004" y="414.1" style="fill: #0000ff; stroke: #0000ff"/>
     <use xlink:href="#m0e3be9aa78" x="731.9463" y="414.1" style="fill: #0000ff; stroke: #0000ff"/>
     <use xlink:href="#m0e3be9aa78" x="758.638596" y="414.1" style="fill: #0000ff; stroke: #0000ff"/>
     <use xlink:href="#m0e3be9aa78" x="785.330892" y="414.1" style="fill: #0000ff; stroke: #0000ff"/>
     <use xlink:href="#m0e3be9aa78" x="812.023188" y="414.1" style="fill: #0000ff; stroke: #0000ff"/>
     <use xlink:href="#m0e3be9aa78" x="838.715484" y="414.1" style="fill: #0000ff; stroke: #0000ff"/>
     <use xlink:href="#m0e3be9aa78" x="865.40778" y="414.1" style="fill: #0000ff; stroke: #0000ff"/>
     <use xlink:href="#m0e3be9aa78" x="892.100076" y="414.1" style="fill: #0000ff; stroke: #0000ff"/>
     <use xlink:href="#m0e3be9aa78" x="918.792372" y="414.1" style="fill: #0000ff; stroke: #0000ff"/>
     <use xlink:href="#m0e3be9aa78" x="945.484668" y="414.1" style="fill: #0000ff; stroke: #0000ff"/>
     <use xlink:href="#m0e3be9aa78" x="972.176964" y="414.1" style="fill: #0000ff; stroke: #0000ff"/>
     <use xlink:href="#m0e3be9aa78" x="998.86926" y="414.1" style="fill: #0000ff; stroke: #0000ff"/>
     <use xlink:href="#m0e3be9aa78" x="1025.561556" y="414.1" style="fill: #0000ff; stroke: #0000ff"/>
     <use xlink:href="#m0e3be9aa78" x="1052.253852" y="414.1" style="fill: #0000ff; stroke: #0000ff"/>
    </g>
   </g>
  </g>
 </g>
 <defs>
  <clipPath id="pcebfbec441">
   <rect x="7.2" y="20.293986" width="507.153624" height="380.712028"/>
  </clipPath>
  <clipPath id="p9788c6ed94">
   <rect x="558.446376" y="7.2" width="507.153624" height="406.9"/>
  </clipPath>
 </defs>
</svg>
