<?xml version="1.0" encoding="utf-8" standalone="no"?>
<!DOCTYPE svg PUBLIC "-//W3C//DTD SVG 1.1//EN"
  "http://www.w3.org/Graphics/SVG/1.1/DTD/svg11.dtd">
<svg xmlns:xlink="http://www.w3.org/1999/xlink" width="1072.8pt" height="424.8pt" viewBox="0 0 1072.8 424.8" xmlns="http://www.w3.org/2000/svg" version="1.1">
 <metadata>
  <rdf:RDF xmlns:dc="http://purl.org/dc/elements/1.1/" xmlns:cc="http://creativecommons.org/ns#" xmlns:rdf="http://www.w3.org/1999/02/22-rdf-syntax-ns#">
   <cc:Work>
    <dc:type rdf:resource="http://purl.org/dc/dcmitype/StillImage"/>
    <dc:date>2023-10-24T09:47:28.335991</dc:date>
    <dc:format>image/svg+xml</dc:format>
    <dc:creator>
     <cc:Agent>
      <dc:title>Matplotlib v3.7.2, https://matplotlib.org/</dc:title>
     </cc:Agent>
    </dc:creator>
   </cc:Work>
  </rdf:RDF>
 </metadata>
 <defs>
  <style type="text/css">*{stroke-linejoin: round; stroke-linecap: butt}</style>
 </defs>
 <g id="figure_1">
  <g id="patch_1">
   <path d="M 0 424.8 
L 1072.8 424.8 
L 1072.8 -0 
L 0 -0 
z
" style="fill: #ffffff"/>
  </g>
  <g id="axes_1">
   <g id="PathCollection_1">
    <defs>
     <path id="mf3491a5a54" d="M 0 3 
C 0.795609 3 1.55874 2.683901 2.12132 2.12132 
C 2.683901 1.55874 3 0.795609 3 0 
C 3 -0.795609 2.683901 -1.55874 2.12132 -2.12132 
C 1.55874 -2.683901 0.795609 -3 0 -3 
C -0.795609 -3 -1.55874 -2.683901 -2.12132 -2.12132 
C -2.683901 -1.55874 -3 -0.795609 -3 0 
C -3 0.795609 -2.683901 1.55874 -2.12132 2.12132 
C -1.55874 2.683901 -0.795609 3 0 3 
z
" style="stroke: #1f77b4; stroke-opacity: 0"/>
    </defs>
    <g clip-path="url(#p61f0ad2b68)">
     <use xlink:href="#mf3491a5a54" x="7.2" y="402.642189" style="fill: #1f77b4; fill-opacity: 0; stroke: #1f77b4; stroke-opacity: 0"/>
     <use xlink:href="#mf3491a5a54" x="518.712783" y="18.657811" style="fill: #1f77b4; fill-opacity: 0; stroke: #1f77b4; stroke-opacity: 0"/>
    </g>
   </g>
   <g id="patch_2">
    <path d="M 319.851659 281.991373 
C 334.118089 281.991373 347.802124 276.323261 357.890014 266.235371 
C 367.977903 256.147481 373.646016 242.463447 373.646016 228.197016 
C 373.646016 213.930586 367.977903 200.246551 357.890014 190.158662 
C 347.802124 180.070772 334.118089 174.402659 319.851659 174.402659 
C 305.585229 174.402659 291.901194 180.070772 281.813305 190.158662 
C 271.725415 200.246551 266.057302 213.930586 266.057302 228.197016 
C 266.057302 242.463447 271.725415 256.147481 281.813305 266.235371 
C 291.901194 276.323261 305.585229 281.991373 319.851659 281.991373 
z
" clip-path="url(#p61f0ad2b68)" style="fill: #ff0000; opacity: 0.2"/>
   </g>
   <g id="patch_3">
    <path d="M 305.554175 215.347529 
C 319.820605 215.347529 333.50464 209.679416 343.592529 199.591526 
C 353.680419 189.503637 359.348532 175.819602 359.348532 161.553172 
C 359.348532 147.286742 353.680419 133.602707 343.592529 123.514817 
C 333.50464 113.426928 319.820605 107.758815 305.554175 107.758815 
C 291.287744 107.758815 277.60371 113.426928 267.51582 123.514817 
C 257.42793 133.602707 251.759818 147.286742 251.759818 161.553172 
C 251.759818 175.819602 257.42793 189.503637 267.51582 199.591526 
C 277.60371 209.679416 291.287744 215.347529 305.554175 215.347529 
z
" clip-path="url(#p61f0ad2b68)" style="fill: #ff0000; opacity: 0.2"/>
   </g>
   <g id="patch_4">
    <path d="M 228.616259 149.220195 
C 242.882689 149.220195 256.566724 143.552082 266.654614 133.464192 
C 276.742503 123.376303 282.410616 109.692268 282.410616 95.425838 
C 282.410616 81.159407 276.742503 67.475372 266.654614 57.387483 
C 256.566724 47.299593 242.882689 41.63148 228.616259 41.63148 
C 214.349829 41.63148 200.665794 47.299593 190.577905 57.387483 
C 180.490015 67.475372 174.821902 81.159407 174.821902 95.425838 
C 174.821902 109.692268 180.490015 123.376303 190.577905 133.464192 
C 200.665794 143.552082 214.349829 149.220195 228.616259 149.220195 
z
" clip-path="url(#p61f0ad2b68)" style="fill: #ff0000; opacity: 0.2"/>
   </g>
   <g id="patch_5">
    <path d="M 182.355806 144.492496 
C 196.622237 144.492496 210.306271 138.824383 220.394161 128.736493 
C 230.482051 118.648604 236.150163 104.964569 236.150163 90.698139 
C 236.150163 76.431708 230.482051 62.747674 220.394161 52.659784 
C 210.306271 42.571894 196.622237 36.903782 182.355806 36.903782 
C 168.089376 36.903782 154.405341 42.571894 144.317452 52.659784 
C 134.229562 62.747674 128.561449 76.431708 128.561449 90.698139 
C 128.561449 104.964569 134.229562 118.648604 144.317452 128.736493 
C 154.405341 138.824383 168.089376 144.492496 182.355806 144.492496 
z
" clip-path="url(#p61f0ad2b68)" style="fill: #ff0000; opacity: 0.2"/>
   </g>
   <g id="patch_6">
    <path d="M 181.644811 164.982801 
C 195.911241 164.982801 209.595276 159.314688 219.683166 149.226798 
C 229.771055 139.138909 235.439168 125.454874 235.439168 111.188444 
C 235.439168 96.922014 229.771055 83.237979 219.683166 73.150089 
C 209.595276 63.0622 195.911241 57.394087 181.644811 57.394087 
C 167.378381 57.394087 153.694346 63.0622 143.606456 73.150089 
C 133.518567 83.237979 127.850454 96.922014 127.850454 111.188444 
C 127.850454 125.454874 133.518567 139.138909 143.606456 149.226798 
C 153.694346 159.314688 167.378381 164.982801 181.644811 164.982801 
z
" clip-path="url(#p61f0ad2b68)" style="fill: #ff0000; opacity: 0.2"/>
   </g>
   <g id="patch_7">
    <path d="M 109.627963 213.328703 
C 123.894394 213.328703 137.578429 207.660591 147.666318 197.572701 
C 157.754208 187.484811 163.422321 173.800777 163.422321 159.534346 
C 163.422321 145.267916 157.754208 131.583881 147.666318 121.495992 
C 137.578429 111.408102 123.894394 105.739989 109.627963 105.739989 
C 95.361533 105.739989 81.677498 111.408102 71.589609 121.495992 
C 61.501719 131.583881 55.833606 145.267916 55.833606 159.534346 
C 55.833606 173.800777 61.501719 187.484811 71.589609 197.572701 
C 81.677498 207.660591 95.361533 213.328703 109.627963 213.328703 
z
" clip-path="url(#p61f0ad2b68)" style="fill: #ff0000; opacity: 0.2"/>
   </g>
   <g id="patch_8">
    <path d="M 79.240328 257.718167 
C 93.506758 257.718167 107.190793 252.050054 117.278683 241.962164 
C 127.366572 231.874275 133.034685 218.19024 133.034685 203.92381 
C 133.034685 189.65738 127.366572 175.973345 117.278683 165.885455 
C 107.190793 155.797566 93.506758 150.129453 79.240328 150.129453 
C 64.973898 150.129453 51.289863 155.797566 41.201973 165.885455 
C 31.114084 175.973345 25.445971 189.65738 25.445971 203.92381 
C 25.445971 218.19024 31.114084 231.874275 41.201973 241.962164 
C 51.289863 252.050054 64.973898 257.718167 79.240328 257.718167 
z
" clip-path="url(#p61f0ad2b68)" style="fill: #ff0000; opacity: 0.2"/>
   </g>
   <g id="patch_9">
    <path d="M 100.832222 330.990309 
C 115.098652 330.990309 128.782687 325.322196 138.870576 315.234306 
C 148.958466 305.146417 154.626579 291.462382 154.626579 277.195952 
C 154.626579 262.929522 148.958466 249.245487 138.870576 239.157597 
C 128.782687 229.069708 115.098652 223.401595 100.832222 223.401595 
C 86.565792 223.401595 72.881757 229.069708 62.793867 239.157597 
C 52.705978 249.245487 47.037865 262.929522 47.037865 277.195952 
C 47.037865 291.462382 52.705978 305.146417 62.793867 315.234306 
C 72.881757 325.322196 86.565792 330.990309 100.832222 330.990309 
z
" clip-path="url(#p61f0ad2b68)" style="fill: #ff0000; opacity: 0.2"/>
   </g>
   <g id="patch_10">
    <path d="M 116.187875 355.137674 
C 130.454306 355.137674 144.13834 349.469561 154.22623 339.381671 
C 164.31412 329.293782 169.982232 315.609747 169.982232 301.343317 
C 169.982232 287.076886 164.31412 273.392851 154.22623 263.304962 
C 144.13834 253.217072 130.454306 247.548959 116.187875 247.548959 
C 101.921445 247.548959 88.23741 253.217072 78.149521 263.304962 
C 68.061631 273.392851 62.393518 287.076886 62.393518 301.343317 
C 62.393518 315.609747 68.061631 329.293782 78.149521 339.381671 
C 88.23741 349.469561 101.921445 355.137674 116.187875 355.137674 
z
" clip-path="url(#p61f0ad2b68)" style="fill: #ff0000; opacity: 0.2"/>
   </g>
   <g id="patch_11">
    <path d="M 208.865636 384.396218 
C 223.132067 384.396218 236.816102 378.728106 246.903991 368.640216 
C 256.991881 358.552326 262.659993 344.868292 262.659993 330.601861 
C 262.659993 316.335431 256.991881 302.651396 246.903991 292.563507 
C 236.816102 282.475617 223.132067 276.807504 208.865636 276.807504 
C 194.599206 276.807504 180.915171 282.475617 170.827282 292.563507 
C 160.739392 302.651396 155.071279 316.335431 155.071279 330.601861 
C 155.071279 344.868292 160.739392 358.552326 170.827282 368.640216 
C 180.915171 378.728106 194.599206 384.396218 208.865636 384.396218 
z
" clip-path="url(#p61f0ad2b68)" style="fill: #ff0000; opacity: 0.2"/>
   </g>
   <g id="patch_12">
    <path d="M 262.304056 375.695405 
C 276.570487 375.695405 290.254522 370.027292 300.342411 359.939402 
C 310.430301 349.851513 316.098413 336.167478 316.098413 321.901048 
C 316.098413 307.634617 310.430301 293.950582 300.342411 283.862693 
C 290.254522 273.774803 276.570487 268.10669 262.304056 268.10669 
C 248.037626 268.10669 234.353591 273.774803 224.265702 283.862693 
C 214.177812 293.950582 208.509699 307.634617 208.509699 321.901048 
C 208.509699 336.167478 214.177812 349.851513 224.265702 359.939402 
C 234.353591 370.027292 248.037626 375.695405 262.304056 375.695405 
z
" clip-path="url(#p61f0ad2b68)" style="fill: #ff0000; opacity: 0.2"/>
   </g>
   <g id="patch_13">
    <path d="M 316.191701 303.53689 
C 330.458131 303.53689 344.142166 297.868777 354.230055 287.780888 
C 364.317945 277.692998 369.986058 264.008963 369.986058 249.742533 
C 369.986058 235.476103 364.317945 221.792068 354.230055 211.704178 
C 344.142166 201.616289 330.458131 195.948176 316.191701 195.948176 
C 301.925271 195.948176 288.241236 201.616289 278.153346 211.704178 
C 268.065457 221.792068 262.397344 235.476103 262.397344 249.742533 
C 262.397344 264.008963 268.065457 277.692998 278.153346 287.780888 
C 288.241236 297.868777 301.925271 303.53689 316.191701 303.53689 
z
" clip-path="url(#p61f0ad2b68)" style="fill: #ff0000; opacity: 0.2"/>
   </g>
   <g id="patch_14">
    <path d="M 446.672455 265.939493 
C 460.938885 265.939493 474.62292 260.271381 484.71081 250.183491 
C 494.798699 240.095602 500.466812 226.411567 500.466812 212.145136 
C 500.466812 197.878706 494.798699 184.194671 484.71081 174.106782 
C 474.62292 164.018892 460.938885 158.350779 446.672455 158.350779 
C 432.406025 158.350779 418.72199 164.018892 408.634101 174.106782 
C 398.546211 184.194671 392.878098 197.878706 392.878098 212.145136 
C 392.878098 226.411567 398.546211 240.095602 408.634101 250.183491 
C 418.72199 260.271381 432.406025 265.939493 446.672455 265.939493 
z
" clip-path="url(#p61f0ad2b68)" style="fill: #ff0000; opacity: 0.2"/>
   </g>
   <g id="patch_15">
    <path d="M 420.835251 206.425262 
C 435.101682 206.425262 448.785716 200.757149 458.873606 190.669259 
C 468.961496 180.58137 474.629608 166.897335 474.629608 152.630904 
C 474.629608 138.364474 468.961496 124.680439 458.873606 114.59255 
C 448.785716 104.50466 435.101682 98.836547 420.835251 98.836547 
C 406.568821 98.836547 392.884786 104.50466 382.796897 114.59255 
C 372.709007 124.680439 367.040894 138.364474 367.040894 152.630904 
C 367.040894 166.897335 372.709007 180.58137 382.796897 190.669259 
C 392.884786 200.757149 406.568821 206.425262 420.835251 206.425262 
z
" clip-path="url(#p61f0ad2b68)" style="fill: #ff0000; opacity: 0.2"/>
   </g>
   <g id="patch_16">
    <path d="M 376.677262 195.812503 
C 390.943692 195.812503 404.627727 190.14439 414.715617 180.0565 
C 424.803506 169.968611 430.471619 156.284576 430.471619 142.018146 
C 430.471619 127.751716 424.803506 114.067681 414.715617 103.979791 
C 404.627727 93.891902 390.943692 88.223789 376.677262 88.223789 
C 362.410832 88.223789 348.726797 93.891902 338.638907 103.979791 
C 328.551018 114.067681 322.882905 127.751716 322.882905 142.018146 
C 322.882905 156.284576 328.551018 169.968611 338.638907 180.0565 
C 348.726797 190.14439 362.410832 195.812503 376.677262 195.812503 
z
" clip-path="url(#p61f0ad2b68)" style="fill: #ff0000; opacity: 0.2"/>
   </g>
   <g id="patch_17">
    <path d="M 302.515994 262.99712 
C 316.782425 262.99712 330.466459 257.329008 340.554349 247.241118 
C 350.642239 237.153228 356.310351 223.469194 356.310351 209.202763 
C 356.310351 194.936333 350.642239 181.252298 340.554349 171.164409 
C 330.466459 161.076519 316.782425 155.408406 302.515994 155.408406 
C 288.249564 155.408406 274.565529 161.076519 264.47764 171.164409 
C 254.38975 181.252298 248.721637 194.936333 248.721637 209.202763 
C 248.721637 223.469194 254.38975 237.153228 264.47764 247.241118 
C 274.565529 257.329008 288.249564 262.99712 302.515994 262.99712 
z
" clip-path="url(#p61f0ad2b68)" style="fill: #ff0000; opacity: 0.2"/>
   </g>
   <g id="patch_18">
    <path d="M 303.006376 280.343991 
C 317.272807 280.343991 330.956842 274.675878 341.044731 264.587988 
C 351.132621 254.500099 356.800733 240.816064 356.800733 226.549634 
C 356.800733 212.283203 351.132621 198.599169 341.044731 188.511279 
C 330.956842 178.423389 317.272807 172.755277 303.006376 172.755277 
C 288.739946 172.755277 275.055911 178.423389 264.968022 188.511279 
C 254.880132 198.599169 249.212019 212.283203 249.212019 226.549634 
C 249.212019 240.816064 254.880132 254.500099 264.968022 264.587988 
C 275.055911 274.675878 288.739946 280.343991 303.006376 280.343991 
z
" clip-path="url(#p61f0ad2b68)" style="fill: #ff0000; opacity: 0.2"/>
   </g>
   <g id="patch_19">
    <path d="M 367.273 338.029104 
C 381.53943 338.029104 395.223465 332.360992 405.311354 322.273102 
C 415.399244 312.185212 421.067357 298.501178 421.067357 284.234747 
C 421.067357 269.968317 415.399244 256.284282 405.311354 246.196393 
C 395.223465 236.108503 381.53943 230.44039 367.273 230.44039 
C 353.00657 230.44039 339.322535 236.108503 329.234645 246.196393 
C 319.146756 256.284282 313.478643 269.968317 313.478643 284.234747 
C 313.478643 298.501178 319.146756 312.185212 329.234645 322.273102 
C 339.322535 332.360992 353.00657 338.029104 367.273 338.029104 
z
" clip-path="url(#p61f0ad2b68)" style="fill: #ff0000; opacity: 0.2"/>
   </g>
   <g id="patch_20">
    <path d="M 421.190744 330.68012 
C 435.457174 330.68012 449.141209 325.012007 459.229098 314.924117 
C 469.316988 304.836228 474.985101 291.152193 474.985101 276.885762 
C 474.985101 262.619332 469.316988 248.935297 459.229098 238.847408 
C 449.141209 228.759518 435.457174 223.091405 421.190744 223.091405 
C 406.924313 223.091405 393.240279 228.759518 383.152389 238.847408 
C 373.064499 248.935297 367.396387 262.619332 367.396387 276.885762 
C 367.396387 291.152193 373.064499 304.836228 383.152389 314.924117 
C 393.240279 325.012007 406.924313 330.68012 421.190744 330.68012 
z
" clip-path="url(#p61f0ad2b68)" style="fill: #ff0000; opacity: 0.2"/>
   </g>
   <g id="patch_21">
    <path d="M 319.851659 281.991373 
C 334.118089 281.991373 347.802124 276.323261 357.890014 266.235371 
C 367.977903 256.147481 373.646016 242.463447 373.646016 228.197016 
C 373.646016 213.930586 367.977903 200.246551 357.890014 190.158662 
C 347.802124 180.070772 334.118089 174.402659 319.851659 174.402659 
C 305.585229 174.402659 291.901194 180.070772 281.813305 190.158662 
C 271.725415 200.246551 266.057302 213.930586 266.057302 228.197016 
C 266.057302 242.463447 271.725415 256.147481 281.813305 266.235371 
C 291.901194 276.323261 305.585229 281.991373 319.851659 281.991373 
L 319.851659 281.991373 
z
" clip-path="url(#p61f0ad2b68)" style="fill: none; stroke: #ff0000; stroke-width: 2; stroke-linejoin: miter"/>
   </g>
   <g id="patch_22">
    <path d="M 305.554175 215.347529 
C 319.820605 215.347529 333.50464 209.679416 343.592529 199.591526 
C 353.680419 189.503637 359.348532 175.819602 359.348532 161.553172 
C 359.348532 147.286742 353.680419 133.602707 343.592529 123.514817 
C 333.50464 113.426928 319.820605 107.758815 305.554175 107.758815 
C 291.287744 107.758815 277.60371 113.426928 267.51582 123.514817 
C 257.42793 133.602707 251.759818 147.286742 251.759818 161.553172 
C 251.759818 175.819602 257.42793 189.503637 267.51582 199.591526 
C 277.60371 209.679416 291.287744 215.347529 305.554175 215.347529 
L 305.554175 215.347529 
z
" clip-path="url(#p61f0ad2b68)" style="fill: none; stroke: #ff0000; stroke-width: 2; stroke-linejoin: miter"/>
   </g>
   <g id="patch_23">
    <path d="M 228.616259 149.220195 
C 242.882689 149.220195 256.566724 143.552082 266.654614 133.464192 
C 276.742503 123.376303 282.410616 109.692268 282.410616 95.425838 
C 282.410616 81.159407 276.742503 67.475372 266.654614 57.387483 
C 256.566724 47.299593 242.882689 41.63148 228.616259 41.63148 
C 214.349829 41.63148 200.665794 47.299593 190.577905 57.387483 
C 180.490015 67.475372 174.821902 81.159407 174.821902 95.425838 
C 174.821902 109.692268 180.490015 123.376303 190.577905 133.464192 
C 200.665794 143.552082 214.349829 149.220195 228.616259 149.220195 
L 228.616259 149.220195 
z
" clip-path="url(#p61f0ad2b68)" style="fill: none; stroke: #ff0000; stroke-width: 2; stroke-linejoin: miter"/>
   </g>
   <g id="patch_24">
    <path d="M 182.355806 144.492496 
C 196.622237 144.492496 210.306271 138.824383 220.394161 128.736493 
C 230.482051 118.648604 236.150163 104.964569 236.150163 90.698139 
C 236.150163 76.431708 230.482051 62.747674 220.394161 52.659784 
C 210.306271 42.571894 196.622237 36.903782 182.355806 36.903782 
C 168.089376 36.903782 154.405341 42.571894 144.317452 52.659784 
C 134.229562 62.747674 128.561449 76.431708 128.561449 90.698139 
C 128.561449 104.964569 134.229562 118.648604 144.317452 128.736493 
C 154.405341 138.824383 168.089376 144.492496 182.355806 144.492496 
L 182.355806 144.492496 
z
" clip-path="url(#p61f0ad2b68)" style="fill: none; stroke: #ff0000; stroke-width: 2; stroke-linejoin: miter"/>
   </g>
   <g id="patch_25">
    <path d="M 181.644811 164.982801 
C 195.911241 164.982801 209.595276 159.314688 219.683166 149.226798 
C 229.771055 139.138909 235.439168 125.454874 235.439168 111.188444 
C 235.439168 96.922014 229.771055 83.237979 219.683166 73.150089 
C 209.595276 63.0622 195.911241 57.394087 181.644811 57.394087 
C 167.378381 57.394087 153.694346 63.0622 143.606456 73.150089 
C 133.518567 83.237979 127.850454 96.922014 127.850454 111.188444 
C 127.850454 125.454874 133.518567 139.138909 143.606456 149.226798 
C 153.694346 159.314688 167.378381 164.982801 181.644811 164.982801 
L 181.644811 164.982801 
z
" clip-path="url(#p61f0ad2b68)" style="fill: none; stroke: #ff0000; stroke-width: 2; stroke-linejoin: miter"/>
   </g>
   <g id="patch_26">
    <path d="M 109.627963 213.328703 
C 123.894394 213.328703 137.578429 207.660591 147.666318 197.572701 
C 157.754208 187.484811 163.422321 173.800777 163.422321 159.534346 
C 163.422321 145.267916 157.754208 131.583881 147.666318 121.495992 
C 137.578429 111.408102 123.894394 105.739989 109.627963 105.739989 
C 95.361533 105.739989 81.677498 111.408102 71.589609 121.495992 
C 61.501719 131.583881 55.833606 145.267916 55.833606 159.534346 
C 55.833606 173.800777 61.501719 187.484811 71.589609 197.572701 
C 81.677498 207.660591 95.361533 213.328703 109.627963 213.328703 
L 109.627963 213.328703 
z
" clip-path="url(#p61f0ad2b68)" style="fill: none; stroke: #ff0000; stroke-width: 2; stroke-linejoin: miter"/>
   </g>
   <g id="patch_27">
    <path d="M 79.240328 257.718167 
C 93.506758 257.718167 107.190793 252.050054 117.278683 241.962164 
C 127.366572 231.874275 133.034685 218.19024 133.034685 203.92381 
C 133.034685 189.65738 127.366572 175.973345 117.278683 165.885455 
C 107.190793 155.797566 93.506758 150.129453 79.240328 150.129453 
C 64.973898 150.129453 51.289863 155.797566 41.201973 165.885455 
C 31.114084 175.973345 25.445971 189.65738 25.445971 203.92381 
C 25.445971 218.19024 31.114084 231.874275 41.201973 241.962164 
C 51.289863 252.050054 64.973898 257.718167 79.240328 257.718167 
L 79.240328 257.718167 
z
" clip-path="url(#p61f0ad2b68)" style="fill: none; stroke: #ff0000; stroke-width: 2; stroke-linejoin: miter"/>
   </g>
   <g id="patch_28">
    <path d="M 100.832222 330.990309 
C 115.098652 330.990309 128.782687 325.322196 138.870576 315.234306 
C 148.958466 305.146417 154.626579 291.462382 154.626579 277.195952 
C 154.626579 262.929522 148.958466 249.245487 138.870576 239.157597 
C 128.782687 229.069708 115.098652 223.401595 100.832222 223.401595 
C 86.565792 223.401595 72.881757 229.069708 62.793867 239.157597 
C 52.705978 249.245487 47.037865 262.929522 47.037865 277.195952 
C 47.037865 291.462382 52.705978 305.146417 62.793867 315.234306 
C 72.881757 325.322196 86.565792 330.990309 100.832222 330.990309 
L 100.832222 330.990309 
z
" clip-path="url(#p61f0ad2b68)" style="fill: none; stroke: #ff0000; stroke-width: 2; stroke-linejoin: miter"/>
   </g>
   <g id="patch_29">
    <path d="M 116.187875 355.137674 
C 130.454306 355.137674 144.13834 349.469561 154.22623 339.381671 
C 164.31412 329.293782 169.982232 315.609747 169.982232 301.343317 
C 169.982232 287.076886 164.31412 273.392851 154.22623 263.304962 
C 144.13834 253.217072 130.454306 247.548959 116.187875 247.548959 
C 101.921445 247.548959 88.23741 253.217072 78.149521 263.304962 
C 68.061631 273.392851 62.393518 287.076886 62.393518 301.343317 
C 62.393518 315.609747 68.061631 329.293782 78.149521 339.381671 
C 88.23741 349.469561 101.921445 355.137674 116.187875 355.137674 
L 116.187875 355.137674 
z
" clip-path="url(#p61f0ad2b68)" style="fill: none; stroke: #ff0000; stroke-width: 2; stroke-linejoin: miter"/>
   </g>
   <g id="patch_30">
    <path d="M 208.865636 384.396218 
C 223.132067 384.396218 236.816102 378.728106 246.903991 368.640216 
C 256.991881 358.552326 262.659993 344.868292 262.659993 330.601861 
C 262.659993 316.335431 256.991881 302.651396 246.903991 292.563507 
C 236.816102 282.475617 223.132067 276.807504 208.865636 276.807504 
C 194.599206 276.807504 180.915171 282.475617 170.827282 292.563507 
C 160.739392 302.651396 155.071279 316.335431 155.071279 330.601861 
C 155.071279 344.868292 160.739392 358.552326 170.827282 368.640216 
C 180.915171 378.728106 194.599206 384.396218 208.865636 384.396218 
L 208.865636 384.396218 
z
" clip-path="url(#p61f0ad2b68)" style="fill: none; stroke: #ff0000; stroke-width: 2; stroke-linejoin: miter"/>
   </g>
   <g id="patch_31">
    <path d="M 262.304056 375.695405 
C 276.570487 375.695405 290.254522 370.027292 300.342411 359.939402 
C 310.430301 349.851513 316.098413 336.167478 316.098413 321.901048 
C 316.098413 307.634617 310.430301 293.950582 300.342411 283.862693 
C 290.254522 273.774803 276.570487 268.10669 262.304056 268.10669 
C 248.037626 268.10669 234.353591 273.774803 224.265702 283.862693 
C 214.177812 293.950582 208.509699 307.634617 208.509699 321.901048 
C 208.509699 336.167478 214.177812 349.851513 224.265702 359.939402 
C 234.353591 370.027292 248.037626 375.695405 262.304056 375.695405 
L 262.304056 375.695405 
z
" clip-path="url(#p61f0ad2b68)" style="fill: none; stroke: #ff0000; stroke-width: 2; stroke-linejoin: miter"/>
   </g>
   <g id="patch_32">
    <path d="M 316.191701 303.53689 
C 330.458131 303.53689 344.142166 297.868777 354.230055 287.780888 
C 364.317945 277.692998 369.986058 264.008963 369.986058 249.742533 
C 369.986058 235.476103 364.317945 221.792068 354.230055 211.704178 
C 344.142166 201.616289 330.458131 195.948176 316.191701 195.948176 
C 301.925271 195.948176 288.241236 201.616289 278.153346 211.704178 
C 268.065457 221.792068 262.397344 235.476103 262.397344 249.742533 
C 262.397344 264.008963 268.065457 277.692998 278.153346 287.780888 
C 288.241236 297.868777 301.925271 303.53689 316.191701 303.53689 
L 316.191701 303.53689 
z
" clip-path="url(#p61f0ad2b68)" style="fill: none; stroke: #ff0000; stroke-width: 2; stroke-linejoin: miter"/>
   </g>
   <g id="patch_33">
    <path d="M 446.672455 265.939493 
C 460.938885 265.939493 474.62292 260.271381 484.71081 250.183491 
C 494.798699 240.095602 500.466812 226.411567 500.466812 212.145136 
C 500.466812 197.878706 494.798699 184.194671 484.71081 174.106782 
C 474.62292 164.018892 460.938885 158.350779 446.672455 158.350779 
C 432.406025 158.350779 418.72199 164.018892 408.634101 174.106782 
C 398.546211 184.194671 392.878098 197.878706 392.878098 212.145136 
C 392.878098 226.411567 398.546211 240.095602 408.634101 250.183491 
C 418.72199 260.271381 432.406025 265.939493 446.672455 265.939493 
L 446.672455 265.939493 
z
" clip-path="url(#p61f0ad2b68)" style="fill: none; stroke: #ff0000; stroke-width: 2; stroke-linejoin: miter"/>
   </g>
   <g id="patch_34">
    <path d="M 420.835251 206.425262 
C 435.101682 206.425262 448.785716 200.757149 458.873606 190.669259 
C 468.961496 180.58137 474.629608 166.897335 474.629608 152.630904 
C 474.629608 138.364474 468.961496 124.680439 458.873606 114.59255 
C 448.785716 104.50466 435.101682 98.836547 420.835251 98.836547 
C 406.568821 98.836547 392.884786 104.50466 382.796897 114.59255 
C 372.709007 124.680439 367.040894 138.364474 367.040894 152.630904 
C 367.040894 166.897335 372.709007 180.58137 382.796897 190.669259 
C 392.884786 200.757149 406.568821 206.425262 420.835251 206.425262 
L 420.835251 206.425262 
z
" clip-path="url(#p61f0ad2b68)" style="fill: none; stroke: #ff0000; stroke-width: 2; stroke-linejoin: miter"/>
   </g>
   <g id="patch_35">
    <path d="M 376.677262 195.812503 
C 390.943692 195.812503 404.627727 190.14439 414.715617 180.0565 
C 424.803506 169.968611 430.471619 156.284576 430.471619 142.018146 
C 430.471619 127.751716 424.803506 114.067681 414.715617 103.979791 
C 404.627727 93.891902 390.943692 88.223789 376.677262 88.223789 
C 362.410832 88.223789 348.726797 93.891902 338.638907 103.979791 
C 328.551018 114.067681 322.882905 127.751716 322.882905 142.018146 
C 322.882905 156.284576 328.551018 169.968611 338.638907 180.0565 
C 348.726797 190.14439 362.410832 195.812503 376.677262 195.812503 
L 376.677262 195.812503 
z
" clip-path="url(#p61f0ad2b68)" style="fill: none; stroke: #ff0000; stroke-width: 2; stroke-linejoin: miter"/>
   </g>
   <g id="patch_36">
    <path d="M 302.515994 262.99712 
C 316.782425 262.99712 330.466459 257.329008 340.554349 247.241118 
C 350.642239 237.153228 356.310351 223.469194 356.310351 209.202763 
C 356.310351 194.936333 350.642239 181.252298 340.554349 171.164409 
C 330.466459 161.076519 316.782425 155.408406 302.515994 155.408406 
C 288.249564 155.408406 274.565529 161.076519 264.47764 171.164409 
C 254.38975 181.252298 248.721637 194.936333 248.721637 209.202763 
C 248.721637 223.469194 254.38975 237.153228 264.47764 247.241118 
C 274.565529 257.329008 288.249564 262.99712 302.515994 262.99712 
L 302.515994 262.99712 
z
" clip-path="url(#p61f0ad2b68)" style="fill: none; stroke: #ff0000; stroke-width: 2; stroke-linejoin: miter"/>
   </g>
   <g id="patch_37">
    <path d="M 303.006376 280.343991 
C 317.272807 280.343991 330.956842 274.675878 341.044731 264.587988 
C 351.132621 254.500099 356.800733 240.816064 356.800733 226.549634 
C 356.800733 212.283203 351.132621 198.599169 341.044731 188.511279 
C 330.956842 178.423389 317.272807 172.755277 303.006376 172.755277 
C 288.739946 172.755277 275.055911 178.423389 264.968022 188.511279 
C 254.880132 198.599169 249.212019 212.283203 249.212019 226.549634 
C 249.212019 240.816064 254.880132 254.500099 264.968022 264.587988 
C 275.055911 274.675878 288.739946 280.343991 303.006376 280.343991 
L 303.006376 280.343991 
z
" clip-path="url(#p61f0ad2b68)" style="fill: none; stroke: #ff0000; stroke-width: 2; stroke-linejoin: miter"/>
   </g>
   <g id="patch_38">
    <path d="M 367.273 338.029104 
C 381.53943 338.029104 395.223465 332.360992 405.311354 322.273102 
C 415.399244 312.185212 421.067357 298.501178 421.067357 284.234747 
C 421.067357 269.968317 415.399244 256.284282 405.311354 246.196393 
C 395.223465 236.108503 381.53943 230.44039 367.273 230.44039 
C 353.00657 230.44039 339.322535 236.108503 329.234645 246.196393 
C 319.146756 256.284282 313.478643 269.968317 313.478643 284.234747 
C 313.478643 298.501178 319.146756 312.185212 329.234645 322.273102 
C 339.322535 332.360992 353.00657 338.029104 367.273 338.029104 
L 367.273 338.029104 
z
" clip-path="url(#p61f0ad2b68)" style="fill: none; stroke: #ff0000; stroke-width: 2; stroke-linejoin: miter"/>
   </g>
   <g id="patch_39">
    <path d="M 421.190744 330.68012 
C 435.457174 330.68012 449.141209 325.012007 459.229098 314.924117 
C 469.316988 304.836228 474.985101 291.152193 474.985101 276.885762 
C 474.985101 262.619332 469.316988 248.935297 459.229098 238.847408 
C 449.141209 228.759518 435.457174 223.091405 421.190744 223.091405 
C 406.924313 223.091405 393.240279 228.759518 383.152389 238.847408 
C 373.064499 248.935297 367.396387 262.619332 367.396387 276.885762 
C 367.396387 291.152193 373.064499 304.836228 383.152389 314.924117 
C 393.240279 325.012007 406.924313 330.68012 421.190744 330.68012 
L 421.190744 330.68012 
z
" clip-path="url(#p61f0ad2b68)" style="fill: none; stroke: #ff0000; stroke-width: 2; stroke-linejoin: miter"/>
   </g>
   <g id="line2d_1">
    <path d="M 319.851659 228.197016 
L 316.191701 249.742533 
" clip-path="url(#p61f0ad2b68)" style="fill: none; stroke: #000000; stroke-width: 2; stroke-linecap: square"/>
   </g>
   <g id="line2d_2">
    <path d="M 319.851659 228.197016 
L 302.515994 209.202763 
" clip-path="url(#p61f0ad2b68)" style="fill: none; stroke: #000000; stroke-width: 2; stroke-linecap: square"/>
   </g>
   <g id="line2d_3">
    <path d="M 319.851659 228.197016 
L 303.006376 226.549634 
" clip-path="url(#p61f0ad2b68)" style="fill: none; stroke: #000000; stroke-width: 2; stroke-linecap: square"/>
   </g>
   <g id="line2d_4">
    <path d="M 305.554175 161.553172 
L 302.515994 209.202763 
" clip-path="url(#p61f0ad2b68)" style="fill: none; stroke: #000000; stroke-width: 2; stroke-linecap: square"/>
   </g>
   <g id="line2d_5">
    <path d="M 228.616259 95.425838 
L 182.355806 90.698139 
" clip-path="url(#p61f0ad2b68)" style="fill: none; stroke: #000000; stroke-width: 2; stroke-linecap: square"/>
   </g>
   <g id="line2d_6">
    <path d="M 228.616259 95.425838 
L 181.644811 111.188444 
" clip-path="url(#p61f0ad2b68)" style="fill: none; stroke: #000000; stroke-width: 2; stroke-linecap: square"/>
   </g>
   <g id="line2d_7">
    <path d="M 182.355806 90.698139 
L 181.644811 111.188444 
" clip-path="url(#p61f0ad2b68)" style="fill: none; stroke: #000000; stroke-width: 2; stroke-linecap: square"/>
   </g>
   <g id="line2d_8">
    <path d="M 109.627963 159.534346 
L 79.240328 203.92381 
" clip-path="url(#p61f0ad2b68)" style="fill: none; stroke: #000000; stroke-width: 2; stroke-linecap: square"/>
   </g>
   <g id="line2d_9">
    <path d="M 100.832222 277.195952 
L 116.187875 301.343317 
" clip-path="url(#p61f0ad2b68)" style="fill: none; stroke: #000000; stroke-width: 2; stroke-linecap: square"/>
   </g>
   <g id="line2d_10">
    <path d="M 316.191701 249.742533 
L 302.515994 209.202763 
" clip-path="url(#p61f0ad2b68)" style="fill: none; stroke: #000000; stroke-width: 2; stroke-linecap: square"/>
   </g>
   <g id="line2d_11">
    <path d="M 316.191701 249.742533 
L 303.006376 226.549634 
" clip-path="url(#p61f0ad2b68)" style="fill: none; stroke: #000000; stroke-width: 2; stroke-linecap: square"/>
   </g>
   <g id="line2d_12">
    <path d="M 420.835251 152.630904 
L 376.677262 142.018146 
" clip-path="url(#p61f0ad2b68)" style="fill: none; stroke: #000000; stroke-width: 2; stroke-linecap: square"/>
   </g>
   <g id="line2d_13">
    <path d="M 302.515994 209.202763 
L 303.006376 226.549634 
" clip-path="url(#p61f0ad2b68)" style="fill: none; stroke: #000000; stroke-width: 2; stroke-linecap: square"/>
   </g>
   <g id="PathCollection_2">
    <defs>
     <path id="mf50d51503e" d="M 0 3 
C 0.795609 3 1.55874 2.683901 2.12132 2.12132 
C 2.683901 1.55874 3 0.795609 3 0 
C 3 -0.795609 2.683901 -1.55874 2.12132 -2.12132 
C 1.55874 -2.683901 0.795609 -3 0 -3 
C -0.795609 -3 -1.55874 -2.683901 -2.12132 -2.12132 
C -2.683901 -1.55874 -3 -0.795609 -3 0 
C -3 0.795609 -2.683901 1.55874 -2.12132 2.12132 
C -1.55874 2.683901 -0.795609 3 0 3 
z
" style="stroke: #0000ff"/>
    </defs>
    <g clip-path="url(#p61f0ad2b68)">
     <use xlink:href="#mf50d51503e" x="319.851659" y="228.197016" style="fill: #0000ff; stroke: #0000ff"/>
     <use xlink:href="#mf50d51503e" x="305.554175" y="161.553172" style="fill: #0000ff; stroke: #0000ff"/>
     <use xlink:href="#mf50d51503e" x="228.616259" y="95.425838" style="fill: #0000ff; stroke: #0000ff"/>
     <use xlink:href="#mf50d51503e" x="182.355806" y="90.698139" style="fill: #0000ff; stroke: #0000ff"/>
     <use xlink:href="#mf50d51503e" x="181.644811" y="111.188444" style="fill: #0000ff; stroke: #0000ff"/>
     <use xlink:href="#mf50d51503e" x="109.627963" y="159.534346" style="fill: #0000ff; stroke: #0000ff"/>
     <use xlink:href="#mf50d51503e" x="79.240328" y="203.92381" style="fill: #0000ff; stroke: #0000ff"/>
     <use xlink:href="#mf50d51503e" x="100.832222" y="277.195952" style="fill: #0000ff; stroke: #0000ff"/>
     <use xlink:href="#mf50d51503e" x="116.187875" y="301.343317" style="fill: #0000ff; stroke: #0000ff"/>
     <use xlink:href="#mf50d51503e" x="208.865636" y="330.601861" style="fill: #0000ff; stroke: #0000ff"/>
     <use xlink:href="#mf50d51503e" x="262.304056" y="321.901048" style="fill: #0000ff; stroke: #0000ff"/>
     <use xlink:href="#mf50d51503e" x="316.191701" y="249.742533" style="fill: #0000ff; stroke: #0000ff"/>
     <use xlink:href="#mf50d51503e" x="446.672455" y="212.145136" style="fill: #0000ff; stroke: #0000ff"/>
     <use xlink:href="#mf50d51503e" x="420.835251" y="152.630904" style="fill: #0000ff; stroke: #0000ff"/>
     <use xlink:href="#mf50d51503e" x="376.677262" y="142.018146" style="fill: #0000ff; stroke: #0000ff"/>
     <use xlink:href="#mf50d51503e" x="302.515994" y="209.202763" style="fill: #0000ff; stroke: #0000ff"/>
     <use xlink:href="#mf50d51503e" x="303.006376" y="226.549634" style="fill: #0000ff; stroke: #0000ff"/>
     <use xlink:href="#mf50d51503e" x="367.273" y="284.234747" style="fill: #0000ff; stroke: #0000ff"/>
     <use xlink:href="#mf50d51503e" x="421.190744" y="276.885762" style="fill: #0000ff; stroke: #0000ff"/>
    </g>
   </g>
  </g>
  <g id="axes_2">
   <g id="patch_40">
    <path d="M 554.087217 414.1 
L 1065.6 414.1 
L 1065.6 7.2 
L 554.087217 7.2 
z
" style="fill: #ffffff"/>
   </g>
   <g id="matplotlib.axis_1">
    <g id="xtick_1">
     <g id="line2d_14">
      <defs>
       <path id="m7b2b643273" d="M 0 0 
L 0 3.5 
" style="stroke: #000000; stroke-width: 0.8"/>
      </defs>
      <g>
       <use xlink:href="#m7b2b643273" x="567.54808" y="414.1" style="stroke: #000000; stroke-width: 0.8"/>
      </g>
     </g>
    </g>
    <g id="xtick_2">
     <g id="line2d_15">
      <g>
       <use xlink:href="#m7b2b643273" x="594.469805" y="414.1" style="stroke: #000000; stroke-width: 0.8"/>
      </g>
     </g>
    </g>
    <g id="xtick_3">
     <g id="line2d_16">
      <g>
       <use xlink:href="#m7b2b643273" x="621.39153" y="414.1" style="stroke: #000000; stroke-width: 0.8"/>
      </g>
     </g>
    </g>
    <g id="xtick_4">
     <g id="line2d_17">
      <g>
       <use xlink:href="#m7b2b643273" x="648.313256" y="414.1" style="stroke: #000000; stroke-width: 0.8"/>
      </g>
     </g>
    </g>
    <g id="xtick_5">
     <g id="line2d_18">
      <g>
       <use xlink:href="#m7b2b643273" x="675.234981" y="414.1" style="stroke: #000000; stroke-width: 0.8"/>
      </g>
     </g>
    </g>
    <g id="xtick_6">
     <g id="line2d_19">
      <g>
       <use xlink:href="#m7b2b643273" x="702.156707" y="414.1" style="stroke: #000000; stroke-width: 0.8"/>
      </g>
     </g>
    </g>
    <g id="xtick_7">
     <g id="line2d_20">
      <g>
       <use xlink:href="#m7b2b643273" x="729.078432" y="414.1" style="stroke: #000000; stroke-width: 0.8"/>
      </g>
     </g>
    </g>
    <g id="xtick_8">
     <g id="line2d_21">
      <g>
       <use xlink:href="#m7b2b643273" x="756.000158" y="414.1" style="stroke: #000000; stroke-width: 0.8"/>
      </g>
     </g>
    </g>
    <g id="xtick_9">
     <g id="line2d_22">
      <g>
       <use xlink:href="#m7b2b643273" x="782.921883" y="414.1" style="stroke: #000000; stroke-width: 0.8"/>
      </g>
     </g>
    </g>
    <g id="xtick_10">
     <g id="line2d_23">
      <g>
       <use xlink:href="#m7b2b643273" x="809.843608" y="414.1" style="stroke: #000000; stroke-width: 0.8"/>
      </g>
     </g>
    </g>
    <g id="xtick_11">
     <g id="line2d_24">
      <g>
       <use xlink:href="#m7b2b643273" x="836.765334" y="414.1" style="stroke: #000000; stroke-width: 0.8"/>
      </g>
     </g>
    </g>
    <g id="xtick_12">
     <g id="line2d_25">
      <g>
       <use xlink:href="#m7b2b643273" x="863.687059" y="414.1" style="stroke: #000000; stroke-width: 0.8"/>
      </g>
     </g>
    </g>
    <g id="xtick_13">
     <g id="line2d_26">
      <g>
       <use xlink:href="#m7b2b643273" x="890.608785" y="414.1" style="stroke: #000000; stroke-width: 0.8"/>
      </g>
     </g>
    </g>
    <g id="xtick_14">
     <g id="line2d_27">
      <g>
       <use xlink:href="#m7b2b643273" x="917.53051" y="414.1" style="stroke: #000000; stroke-width: 0.8"/>
      </g>
     </g>
    </g>
    <g id="xtick_15">
     <g id="line2d_28">
      <g>
       <use xlink:href="#m7b2b643273" x="944.452236" y="414.1" style="stroke: #000000; stroke-width: 0.8"/>
      </g>
     </g>
    </g>
    <g id="xtick_16">
     <g id="line2d_29">
      <g>
       <use xlink:href="#m7b2b643273" x="971.373961" y="414.1" style="stroke: #000000; stroke-width: 0.8"/>
      </g>
     </g>
    </g>
    <g id="xtick_17">
     <g id="line2d_30">
      <g>
       <use xlink:href="#m7b2b643273" x="998.295686" y="414.1" style="stroke: #000000; stroke-width: 0.8"/>
      </g>
     </g>
    </g>
    <g id="xtick_18">
     <g id="line2d_31">
      <g>
       <use xlink:href="#m7b2b643273" x="1025.217412" y="414.1" style="stroke: #000000; stroke-width: 0.8"/>
      </g>
     </g>
    </g>
    <g id="xtick_19">
     <g id="line2d_32">
      <g>
       <use xlink:href="#m7b2b643273" x="1052.139137" y="414.1" style="stroke: #000000; stroke-width: 0.8"/>
      </g>
     </g>
    </g>
   </g>
   <g id="matplotlib.axis_2">
    <g id="ytick_1">
     <g id="line2d_33">
      <defs>
       <path id="m3649adac2e" d="M 0 0 
L -3.5 0 
" style="stroke: #000000; stroke-width: 0.8"/>
      </defs>
      <g>
       <use xlink:href="#m3649adac2e" x="554.087217" y="224.086462" style="stroke: #000000; stroke-width: 0.8"/>
      </g>
     </g>
     <g id="text_1">
      <!-- $r_{9}$ -->
      <g transform="translate(529.287217 231.684899) scale(0.2 -0.2)">
       <defs>
        <path id="DejaVuSans-Oblique-72" d="M 2853 2969 
Q 2766 3016 2653 3041 
Q 2541 3066 2413 3066 
Q 1953 3066 1609 2717 
Q 1266 2369 1153 1784 
L 800 0 
L 225 0 
L 909 3500 
L 1484 3500 
L 1375 2956 
Q 1603 3259 1920 3421 
Q 2238 3584 2597 3584 
Q 2691 3584 2781 3573 
Q 2872 3563 2963 3538 
L 2853 2969 
z
" transform="scale(0.015625)"/>
        <path id="DejaVuSans-39" d="M 703 97 
L 703 672 
Q 941 559 1184 500 
Q 1428 441 1663 441 
Q 2288 441 2617 861 
Q 2947 1281 2994 2138 
Q 2813 1869 2534 1725 
Q 2256 1581 1919 1581 
Q 1219 1581 811 2004 
Q 403 2428 403 3163 
Q 403 3881 828 4315 
Q 1253 4750 1959 4750 
Q 2769 4750 3195 4129 
Q 3622 3509 3622 2328 
Q 3622 1225 3098 567 
Q 2575 -91 1691 -91 
Q 1453 -91 1209 -44 
Q 966 3 703 97 
z
M 1959 2075 
Q 2384 2075 2632 2365 
Q 2881 2656 2881 3163 
Q 2881 3666 2632 3958 
Q 2384 4250 1959 4250 
Q 1534 4250 1286 3958 
Q 1038 3666 1038 3163 
Q 1038 2656 1286 2365 
Q 1534 2075 1959 2075 
z
" transform="scale(0.015625)"/>
       </defs>
       <use xlink:href="#DejaVuSans-Oblique-72"/>
       <use xlink:href="#DejaVuSans-39" transform="translate(41.113281 -16.40625) scale(0.7)"/>
      </g>
     </g>
    </g>
   </g>
   <g id="line2d_34">
    <path d="M 594.469805 414.1 
L 594.469805 341.680163 
L 621.39153 341.680163 
L 621.39153 414.1 
" clip-path="url(#p71e229fe2c)" style="fill: none; stroke: #ff0000; stroke-width: 5; stroke-linecap: square"/>
   </g>
   <g id="line2d_35">
    <path d="M 567.54808 414.1 
L 567.54808 249.846779 
L 607.930668 249.846779 
L 607.930668 341.680163 
" clip-path="url(#p71e229fe2c)" style="fill: none; stroke: #ff0000; stroke-width: 5; stroke-linecap: square"/>
   </g>
   <g id="line2d_36">
    <path d="M 648.313256 414.1 
L 648.313256 313.020995 
L 675.234981 313.020995 
L 675.234981 414.1 
" clip-path="url(#p71e229fe2c)" style="fill: none; stroke: #ff0000; stroke-width: 5; stroke-linecap: square"/>
   </g>
   <g id="line2d_37">
    <path d="M 702.156707 414.1 
L 702.156707 224.086462 
L 729.078432 224.086462 
L 729.078432 414.1 
" clip-path="url(#p71e229fe2c)" style="fill: none; stroke: #ff0000; stroke-width: 5; stroke-linecap: square"/>
   </g>
   <g id="line2d_38">
    <path d="M 890.608785 414.1 
L 890.608785 354.314891 
L 917.53051 354.314891 
L 917.53051 414.1 
" clip-path="url(#p71e229fe2c)" style="fill: none; stroke: #ff0000; stroke-width: 5; stroke-linecap: square"/>
   </g>
   <g id="line2d_39">
    <path d="M 863.687059 414.1 
L 863.687059 352.802549 
L 904.069647 352.802549 
L 904.069647 354.314891 
" clip-path="url(#p71e229fe2c)" style="fill: none; stroke: #ff0000; stroke-width: 5; stroke-linecap: square"/>
   </g>
   <g id="line2d_40">
    <path d="M 836.765334 414.1 
L 836.765334 336.906263 
L 883.878353 336.906263 
L 883.878353 352.802549 
" clip-path="url(#p71e229fe2c)" style="fill: none; stroke: #ff0000; stroke-width: 5; stroke-linecap: square"/>
   </g>
   <g id="line2d_41">
    <path d="M 809.843608 414.1 
L 809.843608 245.44935 
L 860.321844 245.44935 
L 860.321844 336.906263 
" clip-path="url(#p71e229fe2c)" style="fill: none; stroke: #ff0000; stroke-width: 5; stroke-linecap: square"/>
   </g>
   <g id="line2d_42">
    <path d="M 1025.217412 414.1 
L 1025.217412 253.682782 
L 1052.139137 253.682782 
L 1052.139137 414.1 
" clip-path="url(#p71e229fe2c)" style="fill: none; stroke: #ff0000; stroke-width: 5; stroke-linecap: square"/>
   </g>
   <g id="line2d_43">
    <path d="M 756.000158 414.1 
L 756.000158 224.086462 
" clip-path="url(#p71e229fe2c)" style="fill: none; stroke: #ff0000; stroke-width: 5; stroke-linecap: square"/>
   </g>
   <g id="line2d_44">
    <path d="M 782.921883 414.1 
L 782.921883 224.086462 
" clip-path="url(#p71e229fe2c)" style="fill: none; stroke: #ff0000; stroke-width: 5; stroke-linecap: square"/>
   </g>
   <g id="line2d_45">
    <path d="M 944.452236 414.1 
L 944.452236 224.086462 
" clip-path="url(#p71e229fe2c)" style="fill: none; stroke: #ff0000; stroke-width: 5; stroke-linecap: square"/>
   </g>
   <g id="line2d_46">
    <path d="M 971.373961 414.1 
L 971.373961 224.086462 
" clip-path="url(#p71e229fe2c)" style="fill: none; stroke: #ff0000; stroke-width: 5; stroke-linecap: square"/>
   </g>
   <g id="line2d_47">
    <path d="M 998.295686 414.1 
L 998.295686 224.086462 
" clip-path="url(#p71e229fe2c)" style="fill: none; stroke: #ff0000; stroke-width: 5; stroke-linecap: square"/>
   </g>
   <g id="line2d_48">
    <path d="M 587.739374 249.846779 
L 587.739374 224.086462 
" clip-path="url(#p71e229fe2c)" style="fill: none; stroke: #ff0000; stroke-width: 5; stroke-linecap: square"/>
   </g>
   <g id="line2d_49">
    <path d="M 661.774119 313.020995 
L 661.774119 224.086462 
" clip-path="url(#p71e229fe2c)" style="fill: none; stroke: #ff0000; stroke-width: 5; stroke-linecap: square"/>
   </g>
   <g id="line2d_50">
    <path d="M 715.617569 224.086462 
L 715.617569 224.086462 
" clip-path="url(#p71e229fe2c)" style="fill: none; stroke: #ff0000; stroke-width: 5; stroke-linecap: square"/>
   </g>
   <g id="line2d_51">
    <path d="M 835.082726 245.44935 
L 835.082726 224.086462 
" clip-path="url(#p71e229fe2c)" style="fill: none; stroke: #ff0000; stroke-width: 5; stroke-linecap: square"/>
   </g>
   <g id="line2d_52">
    <path d="M 1038.678275 253.682782 
L 1038.678275 224.086462 
" clip-path="url(#p71e229fe2c)" style="fill: none; stroke: #ff0000; stroke-width: 5; stroke-linecap: square"/>
   </g>
   <g id="patch_41">
    <path d="M 554.087217 414.1 
L 554.087217 7.2 
" style="fill: none; stroke: #000000; stroke-width: 0.8; stroke-linejoin: miter; stroke-linecap: square"/>
   </g>
   <g id="patch_42">
    <path d="M 1065.6 414.1 
L 1065.6 7.2 
" style="fill: none; stroke: #000000; stroke-width: 0.8; stroke-linejoin: miter; stroke-linecap: square"/>
   </g>
   <g id="patch_43">
    <path d="M 554.087217 414.1 
L 1065.6 414.1 
" style="fill: none; stroke: #000000; stroke-width: 0.8; stroke-linejoin: miter; stroke-linecap: square"/>
   </g>
   <g id="patch_44">
    <path d="M 554.087217 7.2 
L 1065.6 7.2 
" style="fill: none; stroke: #000000; stroke-width: 0.8; stroke-linejoin: miter; stroke-linecap: square"/>
   </g>
   <g id="PathCollection_3">
    <defs>
     <path id="m4a48909b3a" d="M 0 6.123724 
C 1.624031 6.123724 3.181764 5.47849 4.330127 4.330127 
C 5.47849 3.181764 6.123724 1.624031 6.123724 0 
C 6.123724 -1.624031 5.47849 -3.181764 4.330127 -4.330127 
C 3.181764 -5.47849 1.624031 -6.123724 0 -6.123724 
C -1.624031 -6.123724 -3.181764 -5.47849 -4.330127 -4.330127 
C -5.47849 -3.181764 -6.123724 -1.624031 -6.123724 0 
C -6.123724 1.624031 -5.47849 3.181764 -4.330127 4.330127 
C -3.181764 5.47849 -1.624031 6.123724 0 6.123724 
z
" style="stroke: #0000ff"/>
    </defs>
    <g clip-path="url(#p71e229fe2c)">
     <use xlink:href="#m4a48909b3a" x="567.54808" y="414.1" style="fill: #0000ff; stroke: #0000ff"/>
     <use xlink:href="#m4a48909b3a" x="594.469805" y="414.1" style="fill: #0000ff; stroke: #0000ff"/>
     <use xlink:href="#m4a48909b3a" x="621.39153" y="414.1" style="fill: #0000ff; stroke: #0000ff"/>
     <use xlink:href="#m4a48909b3a" x="648.313256" y="414.1" style="fill: #0000ff; stroke: #0000ff"/>
     <use xlink:href="#m4a48909b3a" x="675.234981" y="414.1" style="fill: #0000ff; stroke: #0000ff"/>
     <use xlink:href="#m4a48909b3a" x="702.156707" y="414.1" style="fill: #0000ff; stroke: #0000ff"/>
     <use xlink:href="#m4a48909b3a" x="729.078432" y="414.1" style="fill: #0000ff; stroke: #0000ff"/>
     <use xlink:href="#m4a48909b3a" x="756.000158" y="414.1" style="fill: #0000ff; stroke: #0000ff"/>
     <use xlink:href="#m4a48909b3a" x="782.921883" y="414.1" style="fill: #0000ff; stroke: #0000ff"/>
     <use xlink:href="#m4a48909b3a" x="809.843608" y="414.1" style="fill: #0000ff; stroke: #0000ff"/>
     <use xlink:href="#m4a48909b3a" x="836.765334" y="414.1" style="fill: #0000ff; stroke: #0000ff"/>
     <use xlink:href="#m4a48909b3a" x="863.687059" y="414.1" style="fill: #0000ff; stroke: #0000ff"/>
     <use xlink:href="#m4a48909b3a" x="890.608785" y="414.1" style="fill: #0000ff; stroke: #0000ff"/>
     <use xlink:href="#m4a48909b3a" x="917.53051" y="414.1" style="fill: #0000ff; stroke: #0000ff"/>
     <use xlink:href="#m4a48909b3a" x="944.452236" y="414.1" style="fill: #0000ff; stroke: #0000ff"/>
     <use xlink:href="#m4a48909b3a" x="971.373961" y="414.1" style="fill: #0000ff; stroke: #0000ff"/>
     <use xlink:href="#m4a48909b3a" x="998.295686" y="414.1" style="fill: #0000ff; stroke: #0000ff"/>
     <use xlink:href="#m4a48909b3a" x="1025.217412" y="414.1" style="fill: #0000ff; stroke: #0000ff"/>
     <use xlink:href="#m4a48909b3a" x="1052.139137" y="414.1" style="fill: #0000ff; stroke: #0000ff"/>
    </g>
   </g>
  </g>
 </g>
 <defs>
  <clipPath id="p61f0ad2b68">
   <rect x="7.2" y="18.657811" width="511.512783" height="383.984379"/>
  </clipPath>
  <clipPath id="p71e229fe2c">
   <rect x="554.087217" y="7.2" width="511.512783" height="406.9"/>
  </clipPath>
 </defs>
</svg>
