<?xml version="1.0" encoding="utf-8" standalone="no"?>
<!DOCTYPE svg PUBLIC "-//W3C//DTD SVG 1.1//EN"
  "http://www.w3.org/Graphics/SVG/1.1/DTD/svg11.dtd">
<svg xmlns:xlink="http://www.w3.org/1999/xlink" width="1072.8pt" height="424.8pt" viewBox="0 0 1072.8 424.8" xmlns="http://www.w3.org/2000/svg" version="1.1">
 <metadata>
  <rdf:RDF xmlns:dc="http://purl.org/dc/elements/1.1/" xmlns:cc="http://creativecommons.org/ns#" xmlns:rdf="http://www.w3.org/1999/02/22-rdf-syntax-ns#">
   <cc:Work>
    <dc:type rdf:resource="http://purl.org/dc/dcmitype/StillImage"/>
    <dc:date>2023-10-24T09:47:26.985694</dc:date>
    <dc:format>image/svg+xml</dc:format>
    <dc:creator>
     <cc:Agent>
      <dc:title>Matplotlib v3.7.2, https://matplotlib.org/</dc:title>
     </cc:Agent>
    </dc:creator>
   </cc:Work>
  </rdf:RDF>
 </metadata>
 <defs>
  <style type="text/css">*{stroke-linejoin: round; stroke-linecap: butt}</style>
 </defs>
 <g id="figure_1">
  <g id="patch_1">
   <path d="M 0 424.8 
L 1072.8 424.8 
L 1072.8 -0 
L 0 -0 
z
" style="fill: #ffffff"/>
  </g>
  <g id="axes_1">
   <g id="PathCollection_1">
    <defs>
     <path id="m3397f16139" d="M 0 3 
C 0.795609 3 1.55874 2.683901 2.12132 2.12132 
C 2.683901 1.55874 3 0.795609 3 0 
C 3 -0.795609 2.683901 -1.55874 2.12132 -2.12132 
C 1.55874 -2.683901 0.795609 -3 0 -3 
C -0.795609 -3 -1.55874 -2.683901 -2.12132 -2.12132 
C -2.683901 -1.55874 -3 -0.795609 -3 0 
C -3 0.795609 -2.683901 1.55874 -2.12132 2.12132 
C -1.55874 2.683901 -0.795609 3 0 3 
z
" style="stroke: #1f77b4; stroke-opacity: 0"/>
    </defs>
    <g clip-path="url(#pdf3aa77ae2)">
     <use xlink:href="#m3397f16139" x="7.2" y="402.67597" style="fill: #1f77b4; fill-opacity: 0; stroke: #1f77b4; stroke-opacity: 0"/>
     <use xlink:href="#m3397f16139" x="518.802783" y="18.62403" style="fill: #1f77b4; fill-opacity: 0; stroke: #1f77b4; stroke-opacity: 0"/>
    </g>
   </g>
   <g id="patch_2">
    <path d="M 319.90667 256.821416 
C 327.497131 256.821416 334.777728 253.805694 340.144994 248.438428 
C 345.51226 243.071161 348.527982 235.790564 348.527982 228.200104 
C 348.527982 220.609643 345.51226 213.329046 340.144994 207.96178 
C 334.777728 202.594514 327.497131 199.578791 319.90667 199.578791 
C 312.316209 199.578791 305.035612 202.594514 299.668346 207.96178 
C 294.30108 213.329046 291.285358 220.609643 291.285358 228.200104 
C 291.285358 235.790564 294.30108 243.071161 299.668346 248.438428 
C 305.035612 253.805694 312.316209 256.821416 319.90667 256.821416 
z
" clip-path="url(#pdf3aa77ae2)" style="fill: #ff0000; opacity: 0.2"/>
   </g>
   <g id="patch_3">
    <path d="M 305.60667 190.165845 
C 313.19713 190.165845 320.477727 187.150123 325.844994 181.782857 
C 331.21226 176.415591 334.227982 169.134994 334.227982 161.544533 
C 334.227982 153.954073 331.21226 146.673476 325.844994 141.306209 
C 320.477727 135.938943 313.19713 132.923221 305.60667 132.923221 
C 298.016209 132.923221 290.735612 135.938943 285.368346 141.306209 
C 280.001079 146.673476 276.985357 153.954073 276.985357 161.544533 
C 276.985357 169.134994 280.001079 176.415591 285.368346 181.782857 
C 290.735612 187.150123 298.016209 190.165845 305.60667 190.165845 
z
" clip-path="url(#pdf3aa77ae2)" style="fill: #ff0000; opacity: 0.2"/>
   </g>
   <g id="patch_4">
    <path d="M 228.655217 124.026876 
C 236.245678 124.026876 243.526275 121.011154 248.893541 115.643888 
C 254.260807 110.276622 257.276529 102.996025 257.276529 95.405564 
C 257.276529 87.815103 254.260807 80.534506 248.893541 75.16724 
C 243.526275 69.799974 236.245678 66.784252 228.655217 66.784252 
C 221.064756 66.784252 213.784159 69.799974 208.416893 75.16724 
C 203.049627 80.534506 200.033905 87.815103 200.033905 95.405564 
C 200.033905 102.996025 203.049627 110.276622 208.416893 115.643888 
C 213.784159 121.011154 221.064756 124.026876 228.655217 124.026876 
z
" clip-path="url(#pdf3aa77ae2)" style="fill: #ff0000; opacity: 0.2"/>
   </g>
   <g id="patch_5">
    <path d="M 182.386625 119.298346 
C 189.977085 119.298346 197.257682 116.282624 202.624949 110.915357 
C 207.992215 105.548091 211.007937 98.267494 211.007937 90.677033 
C 211.007937 83.086573 207.992215 75.805976 202.624949 70.438709 
C 197.257682 65.071443 189.977085 62.055721 182.386625 62.055721 
C 174.796164 62.055721 167.515567 65.071443 162.148301 70.438709 
C 156.781035 75.805976 153.765313 83.086573 153.765313 90.677033 
C 153.765313 98.267494 156.781035 105.548091 162.148301 110.915357 
C 167.515567 116.282624 174.796164 119.298346 182.386625 119.298346 
z
" clip-path="url(#pdf3aa77ae2)" style="fill: #ff0000; opacity: 0.2"/>
   </g>
   <g id="patch_6">
    <path d="M 181.675504 139.792256 
C 189.265965 139.792256 196.546562 136.776534 201.913828 131.409268 
C 207.281095 126.042001 210.296817 118.761404 210.296817 111.170944 
C 210.296817 103.580483 207.281095 96.299886 201.913828 90.93262 
C 196.546562 85.565353 189.265965 82.549631 181.675504 82.549631 
C 174.085044 82.549631 166.804447 85.565353 161.437181 90.93262 
C 156.069914 96.299886 153.054192 103.580483 153.054192 111.170944 
C 153.054192 118.761404 156.069914 126.042001 161.437181 131.409268 
C 166.804447 136.776534 174.085044 139.792256 181.675504 139.792256 
z
" clip-path="url(#pdf3aa77ae2)" style="fill: #ff0000; opacity: 0.2"/>
   </g>
   <g id="patch_7">
    <path d="M 109.645986 188.146665 
C 117.236446 188.146665 124.517043 185.130943 129.884309 179.763677 
C 135.251576 174.39641 138.267298 167.115813 138.267298 159.525353 
C 138.267298 151.934892 135.251576 144.654295 129.884309 139.287029 
C 124.517043 133.919762 117.236446 130.90404 109.645986 130.90404 
C 102.055525 130.90404 94.774928 133.919762 89.407662 139.287029 
C 84.040395 144.654295 81.024673 151.934892 81.024673 159.525353 
C 81.024673 167.115813 84.040395 174.39641 89.407662 179.763677 
C 94.774928 185.130943 102.055525 188.146665 109.645986 188.146665 
z
" clip-path="url(#pdf3aa77ae2)" style="fill: #ff0000; opacity: 0.2"/>
   </g>
   <g id="patch_8">
    <path d="M 79.253003 232.543939 
C 86.843464 232.543939 94.124061 229.528217 99.491327 224.16095 
C 104.858594 218.793684 107.874316 211.513087 107.874316 203.922626 
C 107.874316 196.332166 104.858594 189.051569 99.491327 183.684302 
C 94.124061 178.317036 86.843464 175.301314 79.253003 175.301314 
C 71.662543 175.301314 64.381946 178.317036 59.014679 183.684302 
C 53.647413 189.051569 50.631691 196.332166 50.631691 203.922626 
C 50.631691 211.513087 53.647413 218.793684 59.014679 224.16095 
C 64.381946 229.528217 71.662543 232.543939 79.253003 232.543939 
z
" clip-path="url(#pdf3aa77ae2)" style="fill: #ff0000; opacity: 0.2"/>
   </g>
   <g id="patch_9">
    <path d="M 100.848696 305.828973 
C 108.439157 305.828973 115.719754 302.813251 121.08702 297.445984 
C 126.454287 292.078718 129.470009 284.798121 129.470009 277.20766 
C 129.470009 269.6172 126.454287 262.336603 121.08702 256.969336 
C 115.719754 251.60207 108.439157 248.586348 100.848696 248.586348 
C 93.258236 248.586348 85.977639 251.60207 80.610372 256.969336 
C 75.243106 262.336603 72.227384 269.6172 72.227384 277.20766 
C 72.227384 284.798121 75.243106 292.078718 80.610372 297.445984 
C 85.977639 302.813251 93.258236 305.828973 100.848696 305.828973 
z
" clip-path="url(#pdf3aa77ae2)" style="fill: #ff0000; opacity: 0.2"/>
   </g>
   <g id="patch_10">
    <path d="M 116.207052 329.980586 
C 123.797512 329.980586 131.078109 326.964864 136.445376 321.597598 
C 141.812642 316.230332 144.828364 308.949735 144.828364 301.359274 
C 144.828364 293.768813 141.812642 286.488216 136.445376 281.12095 
C 131.078109 275.753684 123.797512 272.737962 116.207052 272.737962 
C 108.616591 272.737962 101.335994 275.753684 95.968728 281.12095 
C 90.601461 286.488216 87.585739 293.768813 87.585739 301.359274 
C 87.585739 308.949735 90.601461 316.230332 95.968728 321.597598 
C 101.335994 326.964864 108.616591 329.980586 116.207052 329.980586 
z
" clip-path="url(#pdf3aa77ae2)" style="fill: #ff0000; opacity: 0.2"/>
   </g>
   <g id="patch_11">
    <path d="M 208.901119 359.244279 
C 216.49158 359.244279 223.772177 356.228557 229.139443 350.861291 
C 234.506709 345.494024 237.522431 338.213427 237.522431 330.622967 
C 237.522431 323.032506 234.506709 315.751909 229.139443 310.384643 
C 223.772177 305.017376 216.49158 302.001654 208.901119 302.001654 
C 201.310659 302.001654 194.030062 305.017376 188.662795 310.384643 
C 183.295529 315.751909 180.279807 323.032506 180.279807 330.622967 
C 180.279807 338.213427 183.295529 345.494024 188.662795 350.861291 
C 194.030062 356.228557 201.310659 359.244279 208.901119 359.244279 
z
" clip-path="url(#pdf3aa77ae2)" style="fill: #ff0000; opacity: 0.2"/>
   </g>
   <g id="patch_12">
    <path d="M 262.348942 350.541934 
C 269.939402 350.541934 277.219999 347.526212 282.587266 342.158946 
C 287.954532 336.79168 290.970254 329.511083 290.970254 321.920622 
C 290.970254 314.330161 287.954532 307.049564 282.587266 301.682298 
C 277.219999 296.315032 269.939402 293.29931 262.348942 293.29931 
C 254.758481 293.29931 247.477884 296.315032 242.110618 301.682298 
C 236.743351 307.049564 233.727629 314.330161 233.727629 321.920622 
C 233.727629 329.511083 236.743351 336.79168 242.110618 342.158946 
C 247.477884 347.526212 254.758481 350.541934 262.348942 350.541934 
z
" clip-path="url(#pdf3aa77ae2)" style="fill: #ff0000; opacity: 0.2"/>
   </g>
   <g id="patch_13">
    <path d="M 316.246068 278.370723 
C 323.836528 278.370723 331.117125 275.355001 336.484391 269.987735 
C 341.851658 264.620469 344.86738 257.339872 344.86738 249.749411 
C 344.86738 242.158951 341.851658 234.878354 336.484391 229.511087 
C 331.117125 224.143821 323.836528 221.128099 316.246068 221.128099 
C 308.655607 221.128099 301.37501 224.143821 296.007744 229.511087 
C 290.640477 234.878354 287.624755 242.158951 287.624755 249.749411 
C 287.624755 257.339872 290.640477 264.620469 296.007744 269.987735 
C 301.37501 275.355001 308.655607 278.370723 316.246068 278.370723 
z
" clip-path="url(#pdf3aa77ae2)" style="fill: #ff0000; opacity: 0.2"/>
   </g>
   <g id="patch_14">
    <path d="M 446.74978 240.766712 
C 454.340241 240.766712 461.620838 237.75099 466.988104 232.383723 
C 472.35537 227.016457 475.371092 219.73586 475.371092 212.145399 
C 475.371092 204.554939 472.35537 197.274342 466.988104 191.907076 
C 461.620838 186.539809 454.340241 183.524087 446.74978 183.524087 
C 439.159319 183.524087 431.878722 186.539809 426.511456 191.907076 
C 421.14419 197.274342 418.128468 204.554939 418.128468 212.145399 
C 418.128468 219.73586 421.14419 227.016457 426.511456 232.383723 
C 431.878722 237.75099 439.159319 240.766712 446.74978 240.766712 
z
" clip-path="url(#pdf3aa77ae2)" style="fill: #ff0000; opacity: 0.2"/>
   </g>
   <g id="patch_15">
    <path d="M 420.90803 181.242008 
C 428.498491 181.242008 435.779088 178.226286 441.146354 172.85902 
C 446.51362 167.491754 449.529342 160.211157 449.529342 152.620696 
C 449.529342 145.030235 446.51362 137.749638 441.146354 132.382372 
C 435.779088 127.015106 428.498491 123.999384 420.90803 123.999384 
C 413.317569 123.999384 406.036972 127.015106 400.669706 132.382372 
C 395.30244 137.749638 392.286718 145.030235 392.286718 152.620696 
C 392.286718 160.211157 395.30244 167.491754 400.669706 172.85902 
C 406.036972 178.226286 413.317569 181.242008 420.90803 181.242008 
z
" clip-path="url(#pdf3aa77ae2)" style="fill: #ff0000; opacity: 0.2"/>
   </g>
   <g id="patch_16">
    <path d="M 376.742271 170.627382 
C 384.332732 170.627382 391.613329 167.61166 396.980595 162.244394 
C 402.347861 156.877128 405.363583 149.596531 405.363583 142.00607 
C 405.363583 134.415609 402.347861 127.135012 396.980595 121.767746 
C 391.613329 116.40048 384.332732 113.384758 376.742271 113.384758 
C 369.15181 113.384758 361.871213 116.40048 356.503947 121.767746 
C 351.136681 127.135012 348.120959 134.415609 348.120959 142.00607 
C 348.120959 149.596531 351.136681 156.877128 356.503947 162.244394 
C 361.871213 167.61166 369.15181 170.627382 376.742271 170.627382 
z
" clip-path="url(#pdf3aa77ae2)" style="fill: #ff0000; opacity: 0.2"/>
   </g>
   <g id="patch_17">
    <path d="M 302.567955 237.823821 
C 310.158416 237.823821 317.439013 234.808099 322.806279 229.440833 
C 328.173545 224.073566 331.189267 216.792969 331.189267 209.202509 
C 331.189267 201.612048 328.173545 194.331451 322.806279 188.964185 
C 317.439013 183.596919 310.158416 180.581197 302.567955 180.581197 
C 294.977494 180.581197 287.696897 183.596919 282.329631 188.964185 
C 276.962365 194.331451 273.946643 201.612048 273.946643 209.202509 
C 273.946643 216.792969 276.962365 224.073566 282.329631 229.440833 
C 287.696897 234.808099 294.977494 237.823821 302.567955 237.823821 
z
" clip-path="url(#pdf3aa77ae2)" style="fill: #ff0000; opacity: 0.2"/>
   </g>
   <g id="patch_18">
    <path d="M 303.058423 255.173743 
C 310.648884 255.173743 317.929481 252.158021 323.296747 246.790755 
C 328.664013 241.423489 331.679735 234.142892 331.679735 226.552431 
C 331.679735 218.96197 328.664013 211.681373 323.296747 206.314107 
C 317.929481 200.946841 310.648884 197.931119 303.058423 197.931119 
C 295.467962 197.931119 288.187365 200.946841 282.820099 206.314107 
C 277.452833 211.681373 274.437111 218.96197 274.437111 226.552431 
C 274.437111 234.142892 277.452833 241.423489 282.820099 246.790755 
C 288.187365 252.158021 295.467962 255.173743 303.058423 255.173743 
z
" clip-path="url(#pdf3aa77ae2)" style="fill: #ff0000; opacity: 0.2"/>
   </g>
   <g id="patch_19">
    <path d="M 367.336354 312.869007 
C 374.926815 312.869007 382.207412 309.853285 387.574678 304.486018 
C 392.941944 299.118752 395.957666 291.838155 395.957666 284.247694 
C 395.957666 276.657234 392.941944 269.376637 387.574678 264.00937 
C 382.207412 258.642104 374.926815 255.626382 367.336354 255.626382 
C 359.745893 255.626382 352.465296 258.642104 347.09803 264.00937 
C 341.730764 269.376637 338.715042 276.657234 338.715042 284.247694 
C 338.715042 291.838155 341.730764 299.118752 347.09803 304.486018 
C 352.465296 309.853285 359.745893 312.869007 367.336354 312.869007 
z
" clip-path="url(#pdf3aa77ae2)" style="fill: #ff0000; opacity: 0.2"/>
   </g>
   <g id="patch_20">
    <path d="M 421.263585 305.518729 
C 428.854046 305.518729 436.134643 302.503007 441.501909 297.135741 
C 446.869175 291.768474 449.884897 284.487877 449.884897 276.897417 
C 449.884897 269.306956 446.869175 262.026359 441.501909 256.659093 
C 436.134643 251.291826 428.854046 248.276104 421.263585 248.276104 
C 413.673124 248.276104 406.392527 251.291826 401.025261 256.659093 
C 395.657995 262.026359 392.642273 269.306956 392.642273 276.897417 
C 392.642273 284.487877 395.657995 291.768474 401.025261 297.135741 
C 406.392527 302.503007 413.673124 305.518729 421.263585 305.518729 
z
" clip-path="url(#pdf3aa77ae2)" style="fill: #ff0000; opacity: 0.2"/>
   </g>
   <g id="patch_21">
    <path d="M 319.90667 256.821416 
C 327.497131 256.821416 334.777728 253.805694 340.144994 248.438428 
C 345.51226 243.071161 348.527982 235.790564 348.527982 228.200104 
C 348.527982 220.609643 345.51226 213.329046 340.144994 207.96178 
C 334.777728 202.594514 327.497131 199.578791 319.90667 199.578791 
C 312.316209 199.578791 305.035612 202.594514 299.668346 207.96178 
C 294.30108 213.329046 291.285358 220.609643 291.285358 228.200104 
C 291.285358 235.790564 294.30108 243.071161 299.668346 248.438428 
C 305.035612 253.805694 312.316209 256.821416 319.90667 256.821416 
L 319.90667 256.821416 
z
" clip-path="url(#pdf3aa77ae2)" style="fill: none; stroke: #ff0000; stroke-width: 2; stroke-linejoin: miter"/>
   </g>
   <g id="patch_22">
    <path d="M 305.60667 190.165845 
C 313.19713 190.165845 320.477727 187.150123 325.844994 181.782857 
C 331.21226 176.415591 334.227982 169.134994 334.227982 161.544533 
C 334.227982 153.954073 331.21226 146.673476 325.844994 141.306209 
C 320.477727 135.938943 313.19713 132.923221 305.60667 132.923221 
C 298.016209 132.923221 290.735612 135.938943 285.368346 141.306209 
C 280.001079 146.673476 276.985357 153.954073 276.985357 161.544533 
C 276.985357 169.134994 280.001079 176.415591 285.368346 181.782857 
C 290.735612 187.150123 298.016209 190.165845 305.60667 190.165845 
L 305.60667 190.165845 
z
" clip-path="url(#pdf3aa77ae2)" style="fill: none; stroke: #ff0000; stroke-width: 2; stroke-linejoin: miter"/>
   </g>
   <g id="patch_23">
    <path d="M 228.655217 124.026876 
C 236.245678 124.026876 243.526275 121.011154 248.893541 115.643888 
C 254.260807 110.276622 257.276529 102.996025 257.276529 95.405564 
C 257.276529 87.815103 254.260807 80.534506 248.893541 75.16724 
C 243.526275 69.799974 236.245678 66.784252 228.655217 66.784252 
C 221.064756 66.784252 213.784159 69.799974 208.416893 75.16724 
C 203.049627 80.534506 200.033905 87.815103 200.033905 95.405564 
C 200.033905 102.996025 203.049627 110.276622 208.416893 115.643888 
C 213.784159 121.011154 221.064756 124.026876 228.655217 124.026876 
L 228.655217 124.026876 
z
" clip-path="url(#pdf3aa77ae2)" style="fill: none; stroke: #ff0000; stroke-width: 2; stroke-linejoin: miter"/>
   </g>
   <g id="patch_24">
    <path d="M 182.386625 119.298346 
C 189.977085 119.298346 197.257682 116.282624 202.624949 110.915357 
C 207.992215 105.548091 211.007937 98.267494 211.007937 90.677033 
C 211.007937 83.086573 207.992215 75.805976 202.624949 70.438709 
C 197.257682 65.071443 189.977085 62.055721 182.386625 62.055721 
C 174.796164 62.055721 167.515567 65.071443 162.148301 70.438709 
C 156.781035 75.805976 153.765313 83.086573 153.765313 90.677033 
C 153.765313 98.267494 156.781035 105.548091 162.148301 110.915357 
C 167.515567 116.282624 174.796164 119.298346 182.386625 119.298346 
L 182.386625 119.298346 
z
" clip-path="url(#pdf3aa77ae2)" style="fill: none; stroke: #ff0000; stroke-width: 2; stroke-linejoin: miter"/>
   </g>
   <g id="patch_25">
    <path d="M 181.675504 139.792256 
C 189.265965 139.792256 196.546562 136.776534 201.913828 131.409268 
C 207.281095 126.042001 210.296817 118.761404 210.296817 111.170944 
C 210.296817 103.580483 207.281095 96.299886 201.913828 90.93262 
C 196.546562 85.565353 189.265965 82.549631 181.675504 82.549631 
C 174.085044 82.549631 166.804447 85.565353 161.437181 90.93262 
C 156.069914 96.299886 153.054192 103.580483 153.054192 111.170944 
C 153.054192 118.761404 156.069914 126.042001 161.437181 131.409268 
C 166.804447 136.776534 174.085044 139.792256 181.675504 139.792256 
L 181.675504 139.792256 
z
" clip-path="url(#pdf3aa77ae2)" style="fill: none; stroke: #ff0000; stroke-width: 2; stroke-linejoin: miter"/>
   </g>
   <g id="patch_26">
    <path d="M 109.645986 188.146665 
C 117.236446 188.146665 124.517043 185.130943 129.884309 179.763677 
C 135.251576 174.39641 138.267298 167.115813 138.267298 159.525353 
C 138.267298 151.934892 135.251576 144.654295 129.884309 139.287029 
C 124.517043 133.919762 117.236446 130.90404 109.645986 130.90404 
C 102.055525 130.90404 94.774928 133.919762 89.407662 139.287029 
C 84.040395 144.654295 81.024673 151.934892 81.024673 159.525353 
C 81.024673 167.115813 84.040395 174.39641 89.407662 179.763677 
C 94.774928 185.130943 102.055525 188.146665 109.645986 188.146665 
L 109.645986 188.146665 
z
" clip-path="url(#pdf3aa77ae2)" style="fill: none; stroke: #ff0000; stroke-width: 2; stroke-linejoin: miter"/>
   </g>
   <g id="patch_27">
    <path d="M 79.253003 232.543939 
C 86.843464 232.543939 94.124061 229.528217 99.491327 224.16095 
C 104.858594 218.793684 107.874316 211.513087 107.874316 203.922626 
C 107.874316 196.332166 104.858594 189.051569 99.491327 183.684302 
C 94.124061 178.317036 86.843464 175.301314 79.253003 175.301314 
C 71.662543 175.301314 64.381946 178.317036 59.014679 183.684302 
C 53.647413 189.051569 50.631691 196.332166 50.631691 203.922626 
C 50.631691 211.513087 53.647413 218.793684 59.014679 224.16095 
C 64.381946 229.528217 71.662543 232.543939 79.253003 232.543939 
L 79.253003 232.543939 
z
" clip-path="url(#pdf3aa77ae2)" style="fill: none; stroke: #ff0000; stroke-width: 2; stroke-linejoin: miter"/>
   </g>
   <g id="patch_28">
    <path d="M 100.848696 305.828973 
C 108.439157 305.828973 115.719754 302.813251 121.08702 297.445984 
C 126.454287 292.078718 129.470009 284.798121 129.470009 277.20766 
C 129.470009 269.6172 126.454287 262.336603 121.08702 256.969336 
C 115.719754 251.60207 108.439157 248.586348 100.848696 248.586348 
C 93.258236 248.586348 85.977639 251.60207 80.610372 256.969336 
C 75.243106 262.336603 72.227384 269.6172 72.227384 277.20766 
C 72.227384 284.798121 75.243106 292.078718 80.610372 297.445984 
C 85.977639 302.813251 93.258236 305.828973 100.848696 305.828973 
L 100.848696 305.828973 
z
" clip-path="url(#pdf3aa77ae2)" style="fill: none; stroke: #ff0000; stroke-width: 2; stroke-linejoin: miter"/>
   </g>
   <g id="patch_29">
    <path d="M 116.207052 329.980586 
C 123.797512 329.980586 131.078109 326.964864 136.445376 321.597598 
C 141.812642 316.230332 144.828364 308.949735 144.828364 301.359274 
C 144.828364 293.768813 141.812642 286.488216 136.445376 281.12095 
C 131.078109 275.753684 123.797512 272.737962 116.207052 272.737962 
C 108.616591 272.737962 101.335994 275.753684 95.968728 281.12095 
C 90.601461 286.488216 87.585739 293.768813 87.585739 301.359274 
C 87.585739 308.949735 90.601461 316.230332 95.968728 321.597598 
C 101.335994 326.964864 108.616591 329.980586 116.207052 329.980586 
L 116.207052 329.980586 
z
" clip-path="url(#pdf3aa77ae2)" style="fill: none; stroke: #ff0000; stroke-width: 2; stroke-linejoin: miter"/>
   </g>
   <g id="patch_30">
    <path d="M 208.901119 359.244279 
C 216.49158 359.244279 223.772177 356.228557 229.139443 350.861291 
C 234.506709 345.494024 237.522431 338.213427 237.522431 330.622967 
C 237.522431 323.032506 234.506709 315.751909 229.139443 310.384643 
C 223.772177 305.017376 216.49158 302.001654 208.901119 302.001654 
C 201.310659 302.001654 194.030062 305.017376 188.662795 310.384643 
C 183.295529 315.751909 180.279807 323.032506 180.279807 330.622967 
C 180.279807 338.213427 183.295529 345.494024 188.662795 350.861291 
C 194.030062 356.228557 201.310659 359.244279 208.901119 359.244279 
L 208.901119 359.244279 
z
" clip-path="url(#pdf3aa77ae2)" style="fill: none; stroke: #ff0000; stroke-width: 2; stroke-linejoin: miter"/>
   </g>
   <g id="patch_31">
    <path d="M 262.348942 350.541934 
C 269.939402 350.541934 277.219999 347.526212 282.587266 342.158946 
C 287.954532 336.79168 290.970254 329.511083 290.970254 321.920622 
C 290.970254 314.330161 287.954532 307.049564 282.587266 301.682298 
C 277.219999 296.315032 269.939402 293.29931 262.348942 293.29931 
C 254.758481 293.29931 247.477884 296.315032 242.110618 301.682298 
C 236.743351 307.049564 233.727629 314.330161 233.727629 321.920622 
C 233.727629 329.511083 236.743351 336.79168 242.110618 342.158946 
C 247.477884 347.526212 254.758481 350.541934 262.348942 350.541934 
L 262.348942 350.541934 
z
" clip-path="url(#pdf3aa77ae2)" style="fill: none; stroke: #ff0000; stroke-width: 2; stroke-linejoin: miter"/>
   </g>
   <g id="patch_32">
    <path d="M 316.246068 278.370723 
C 323.836528 278.370723 331.117125 275.355001 336.484391 269.987735 
C 341.851658 264.620469 344.86738 257.339872 344.86738 249.749411 
C 344.86738 242.158951 341.851658 234.878354 336.484391 229.511087 
C 331.117125 224.143821 323.836528 221.128099 316.246068 221.128099 
C 308.655607 221.128099 301.37501 224.143821 296.007744 229.511087 
C 290.640477 234.878354 287.624755 242.158951 287.624755 249.749411 
C 287.624755 257.339872 290.640477 264.620469 296.007744 269.987735 
C 301.37501 275.355001 308.655607 278.370723 316.246068 278.370723 
L 316.246068 278.370723 
z
" clip-path="url(#pdf3aa77ae2)" style="fill: none; stroke: #ff0000; stroke-width: 2; stroke-linejoin: miter"/>
   </g>
   <g id="patch_33">
    <path d="M 446.74978 240.766712 
C 454.340241 240.766712 461.620838 237.75099 466.988104 232.383723 
C 472.35537 227.016457 475.371092 219.73586 475.371092 212.145399 
C 475.371092 204.554939 472.35537 197.274342 466.988104 191.907076 
C 461.620838 186.539809 454.340241 183.524087 446.74978 183.524087 
C 439.159319 183.524087 431.878722 186.539809 426.511456 191.907076 
C 421.14419 197.274342 418.128468 204.554939 418.128468 212.145399 
C 418.128468 219.73586 421.14419 227.016457 426.511456 232.383723 
C 431.878722 237.75099 439.159319 240.766712 446.74978 240.766712 
L 446.74978 240.766712 
z
" clip-path="url(#pdf3aa77ae2)" style="fill: none; stroke: #ff0000; stroke-width: 2; stroke-linejoin: miter"/>
   </g>
   <g id="patch_34">
    <path d="M 420.90803 181.242008 
C 428.498491 181.242008 435.779088 178.226286 441.146354 172.85902 
C 446.51362 167.491754 449.529342 160.211157 449.529342 152.620696 
C 449.529342 145.030235 446.51362 137.749638 441.146354 132.382372 
C 435.779088 127.015106 428.498491 123.999384 420.90803 123.999384 
C 413.317569 123.999384 406.036972 127.015106 400.669706 132.382372 
C 395.30244 137.749638 392.286718 145.030235 392.286718 152.620696 
C 392.286718 160.211157 395.30244 167.491754 400.669706 172.85902 
C 406.036972 178.226286 413.317569 181.242008 420.90803 181.242008 
L 420.90803 181.242008 
z
" clip-path="url(#pdf3aa77ae2)" style="fill: none; stroke: #ff0000; stroke-width: 2; stroke-linejoin: miter"/>
   </g>
   <g id="patch_35">
    <path d="M 376.742271 170.627382 
C 384.332732 170.627382 391.613329 167.61166 396.980595 162.244394 
C 402.347861 156.877128 405.363583 149.596531 405.363583 142.00607 
C 405.363583 134.415609 402.347861 127.135012 396.980595 121.767746 
C 391.613329 116.40048 384.332732 113.384758 376.742271 113.384758 
C 369.15181 113.384758 361.871213 116.40048 356.503947 121.767746 
C 351.136681 127.135012 348.120959 134.415609 348.120959 142.00607 
C 348.120959 149.596531 351.136681 156.877128 356.503947 162.244394 
C 361.871213 167.61166 369.15181 170.627382 376.742271 170.627382 
L 376.742271 170.627382 
z
" clip-path="url(#pdf3aa77ae2)" style="fill: none; stroke: #ff0000; stroke-width: 2; stroke-linejoin: miter"/>
   </g>
   <g id="patch_36">
    <path d="M 302.567955 237.823821 
C 310.158416 237.823821 317.439013 234.808099 322.806279 229.440833 
C 328.173545 224.073566 331.189267 216.792969 331.189267 209.202509 
C 331.189267 201.612048 328.173545 194.331451 322.806279 188.964185 
C 317.439013 183.596919 310.158416 180.581197 302.567955 180.581197 
C 294.977494 180.581197 287.696897 183.596919 282.329631 188.964185 
C 276.962365 194.331451 273.946643 201.612048 273.946643 209.202509 
C 273.946643 216.792969 276.962365 224.073566 282.329631 229.440833 
C 287.696897 234.808099 294.977494 237.823821 302.567955 237.823821 
L 302.567955 237.823821 
z
" clip-path="url(#pdf3aa77ae2)" style="fill: none; stroke: #ff0000; stroke-width: 2; stroke-linejoin: miter"/>
   </g>
   <g id="patch_37">
    <path d="M 303.058423 255.173743 
C 310.648884 255.173743 317.929481 252.158021 323.296747 246.790755 
C 328.664013 241.423489 331.679735 234.142892 331.679735 226.552431 
C 331.679735 218.96197 328.664013 211.681373 323.296747 206.314107 
C 317.929481 200.946841 310.648884 197.931119 303.058423 197.931119 
C 295.467962 197.931119 288.187365 200.946841 282.820099 206.314107 
C 277.452833 211.681373 274.437111 218.96197 274.437111 226.552431 
C 274.437111 234.142892 277.452833 241.423489 282.820099 246.790755 
C 288.187365 252.158021 295.467962 255.173743 303.058423 255.173743 
L 303.058423 255.173743 
z
" clip-path="url(#pdf3aa77ae2)" style="fill: none; stroke: #ff0000; stroke-width: 2; stroke-linejoin: miter"/>
   </g>
   <g id="patch_38">
    <path d="M 367.336354 312.869007 
C 374.926815 312.869007 382.207412 309.853285 387.574678 304.486018 
C 392.941944 299.118752 395.957666 291.838155 395.957666 284.247694 
C 395.957666 276.657234 392.941944 269.376637 387.574678 264.00937 
C 382.207412 258.642104 374.926815 255.626382 367.336354 255.626382 
C 359.745893 255.626382 352.465296 258.642104 347.09803 264.00937 
C 341.730764 269.376637 338.715042 276.657234 338.715042 284.247694 
C 338.715042 291.838155 341.730764 299.118752 347.09803 304.486018 
C 352.465296 309.853285 359.745893 312.869007 367.336354 312.869007 
L 367.336354 312.869007 
z
" clip-path="url(#pdf3aa77ae2)" style="fill: none; stroke: #ff0000; stroke-width: 2; stroke-linejoin: miter"/>
   </g>
   <g id="patch_39">
    <path d="M 421.263585 305.518729 
C 428.854046 305.518729 436.134643 302.503007 441.501909 297.135741 
C 446.869175 291.768474 449.884897 284.487877 449.884897 276.897417 
C 449.884897 269.306956 446.869175 262.026359 441.501909 256.659093 
C 436.134643 251.291826 428.854046 248.276104 421.263585 248.276104 
C 413.673124 248.276104 406.392527 251.291826 401.025261 256.659093 
C 395.657995 262.026359 392.642273 269.306956 392.642273 276.897417 
C 392.642273 284.487877 395.657995 291.768474 401.025261 297.135741 
C 406.392527 302.503007 413.673124 305.518729 421.263585 305.518729 
L 421.263585 305.518729 
z
" clip-path="url(#pdf3aa77ae2)" style="fill: none; stroke: #ff0000; stroke-width: 2; stroke-linejoin: miter"/>
   </g>
   <g id="line2d_1">
    <path d="M 319.90667 228.200104 
L 316.246068 249.749411 
" clip-path="url(#pdf3aa77ae2)" style="fill: none; stroke: #000000; stroke-width: 2; stroke-linecap: square"/>
   </g>
   <g id="line2d_2">
    <path d="M 319.90667 228.200104 
L 302.567955 209.202509 
" clip-path="url(#pdf3aa77ae2)" style="fill: none; stroke: #000000; stroke-width: 2; stroke-linecap: square"/>
   </g>
   <g id="line2d_3">
    <path d="M 319.90667 228.200104 
L 303.058423 226.552431 
" clip-path="url(#pdf3aa77ae2)" style="fill: none; stroke: #000000; stroke-width: 2; stroke-linecap: square"/>
   </g>
   <g id="line2d_4">
    <path d="M 182.386625 90.677033 
L 181.675504 111.170944 
" clip-path="url(#pdf3aa77ae2)" style="fill: none; stroke: #000000; stroke-width: 2; stroke-linecap: square"/>
   </g>
   <g id="line2d_5">
    <path d="M 100.848696 277.20766 
L 116.207052 301.359274 
" clip-path="url(#pdf3aa77ae2)" style="fill: none; stroke: #000000; stroke-width: 2; stroke-linecap: square"/>
   </g>
   <g id="line2d_6">
    <path d="M 316.246068 249.749411 
L 303.058423 226.552431 
" clip-path="url(#pdf3aa77ae2)" style="fill: none; stroke: #000000; stroke-width: 2; stroke-linecap: square"/>
   </g>
   <g id="line2d_7">
    <path d="M 302.567955 209.202509 
L 303.058423 226.552431 
" clip-path="url(#pdf3aa77ae2)" style="fill: none; stroke: #000000; stroke-width: 2; stroke-linecap: square"/>
   </g>
   <g id="PathCollection_2">
    <defs>
     <path id="mb804ee909a" d="M 0 3 
C 0.795609 3 1.55874 2.683901 2.12132 2.12132 
C 2.683901 1.55874 3 0.795609 3 0 
C 3 -0.795609 2.683901 -1.55874 2.12132 -2.12132 
C 1.55874 -2.683901 0.795609 -3 0 -3 
C -0.795609 -3 -1.55874 -2.683901 -2.12132 -2.12132 
C -2.683901 -1.55874 -3 -0.795609 -3 0 
C -3 0.795609 -2.683901 1.55874 -2.12132 2.12132 
C -1.55874 2.683901 -0.795609 3 0 3 
z
" style="stroke: #0000ff"/>
    </defs>
    <g clip-path="url(#pdf3aa77ae2)">
     <use xlink:href="#mb804ee909a" x="319.90667" y="228.200104" style="fill: #0000ff; stroke: #0000ff"/>
     <use xlink:href="#mb804ee909a" x="305.60667" y="161.544533" style="fill: #0000ff; stroke: #0000ff"/>
     <use xlink:href="#mb804ee909a" x="228.655217" y="95.405564" style="fill: #0000ff; stroke: #0000ff"/>
     <use xlink:href="#mb804ee909a" x="182.386625" y="90.677033" style="fill: #0000ff; stroke: #0000ff"/>
     <use xlink:href="#mb804ee909a" x="181.675504" y="111.170944" style="fill: #0000ff; stroke: #0000ff"/>
     <use xlink:href="#mb804ee909a" x="109.645986" y="159.525353" style="fill: #0000ff; stroke: #0000ff"/>
     <use xlink:href="#mb804ee909a" x="79.253003" y="203.922626" style="fill: #0000ff; stroke: #0000ff"/>
     <use xlink:href="#mb804ee909a" x="100.848696" y="277.20766" style="fill: #0000ff; stroke: #0000ff"/>
     <use xlink:href="#mb804ee909a" x="116.207052" y="301.359274" style="fill: #0000ff; stroke: #0000ff"/>
     <use xlink:href="#mb804ee909a" x="208.901119" y="330.622967" style="fill: #0000ff; stroke: #0000ff"/>
     <use xlink:href="#mb804ee909a" x="262.348942" y="321.920622" style="fill: #0000ff; stroke: #0000ff"/>
     <use xlink:href="#mb804ee909a" x="316.246068" y="249.749411" style="fill: #0000ff; stroke: #0000ff"/>
     <use xlink:href="#mb804ee909a" x="446.74978" y="212.145399" style="fill: #0000ff; stroke: #0000ff"/>
     <use xlink:href="#mb804ee909a" x="420.90803" y="152.620696" style="fill: #0000ff; stroke: #0000ff"/>
     <use xlink:href="#mb804ee909a" x="376.742271" y="142.00607" style="fill: #0000ff; stroke: #0000ff"/>
     <use xlink:href="#mb804ee909a" x="302.567955" y="209.202509" style="fill: #0000ff; stroke: #0000ff"/>
     <use xlink:href="#mb804ee909a" x="303.058423" y="226.552431" style="fill: #0000ff; stroke: #0000ff"/>
     <use xlink:href="#mb804ee909a" x="367.336354" y="284.247694" style="fill: #0000ff; stroke: #0000ff"/>
     <use xlink:href="#mb804ee909a" x="421.263585" y="276.897417" style="fill: #0000ff; stroke: #0000ff"/>
    </g>
   </g>
  </g>
  <g id="axes_2">
   <g id="patch_40">
    <path d="M 553.997217 414.1 
L 1065.6 414.1 
L 1065.6 7.2 
L 553.997217 7.2 
z
" style="fill: #ffffff"/>
   </g>
   <g id="matplotlib.axis_1">
    <g id="xtick_1">
     <g id="line2d_8">
      <defs>
       <path id="mbab341c77f" d="M 0 0 
L 0 3.5 
" style="stroke: #000000; stroke-width: 0.8"/>
      </defs>
      <g>
       <use xlink:href="#mbab341c77f" x="567.460448" y="414.1" style="stroke: #000000; stroke-width: 0.8"/>
      </g>
     </g>
    </g>
    <g id="xtick_2">
     <g id="line2d_9">
      <g>
       <use xlink:href="#mbab341c77f" x="594.38691" y="414.1" style="stroke: #000000; stroke-width: 0.8"/>
      </g>
     </g>
    </g>
    <g id="xtick_3">
     <g id="line2d_10">
      <g>
       <use xlink:href="#mbab341c77f" x="621.313372" y="414.1" style="stroke: #000000; stroke-width: 0.8"/>
      </g>
     </g>
    </g>
    <g id="xtick_4">
     <g id="line2d_11">
      <g>
       <use xlink:href="#mbab341c77f" x="648.239835" y="414.1" style="stroke: #000000; stroke-width: 0.8"/>
      </g>
     </g>
    </g>
    <g id="xtick_5">
     <g id="line2d_12">
      <g>
       <use xlink:href="#mbab341c77f" x="675.166297" y="414.1" style="stroke: #000000; stroke-width: 0.8"/>
      </g>
     </g>
    </g>
    <g id="xtick_6">
     <g id="line2d_13">
      <g>
       <use xlink:href="#mbab341c77f" x="702.092759" y="414.1" style="stroke: #000000; stroke-width: 0.8"/>
      </g>
     </g>
    </g>
    <g id="xtick_7">
     <g id="line2d_14">
      <g>
       <use xlink:href="#mbab341c77f" x="729.019222" y="414.1" style="stroke: #000000; stroke-width: 0.8"/>
      </g>
     </g>
    </g>
    <g id="xtick_8">
     <g id="line2d_15">
      <g>
       <use xlink:href="#mbab341c77f" x="755.945684" y="414.1" style="stroke: #000000; stroke-width: 0.8"/>
      </g>
     </g>
    </g>
    <g id="xtick_9">
     <g id="line2d_16">
      <g>
       <use xlink:href="#mbab341c77f" x="782.872146" y="414.1" style="stroke: #000000; stroke-width: 0.8"/>
      </g>
     </g>
    </g>
    <g id="xtick_10">
     <g id="line2d_17">
      <g>
       <use xlink:href="#mbab341c77f" x="809.798608" y="414.1" style="stroke: #000000; stroke-width: 0.8"/>
      </g>
     </g>
    </g>
    <g id="xtick_11">
     <g id="line2d_18">
      <g>
       <use xlink:href="#mbab341c77f" x="836.725071" y="414.1" style="stroke: #000000; stroke-width: 0.8"/>
      </g>
     </g>
    </g>
    <g id="xtick_12">
     <g id="line2d_19">
      <g>
       <use xlink:href="#mbab341c77f" x="863.651533" y="414.1" style="stroke: #000000; stroke-width: 0.8"/>
      </g>
     </g>
    </g>
    <g id="xtick_13">
     <g id="line2d_20">
      <g>
       <use xlink:href="#mbab341c77f" x="890.577995" y="414.1" style="stroke: #000000; stroke-width: 0.8"/>
      </g>
     </g>
    </g>
    <g id="xtick_14">
     <g id="line2d_21">
      <g>
       <use xlink:href="#mbab341c77f" x="917.504457" y="414.1" style="stroke: #000000; stroke-width: 0.8"/>
      </g>
     </g>
    </g>
    <g id="xtick_15">
     <g id="line2d_22">
      <g>
       <use xlink:href="#mbab341c77f" x="944.43092" y="414.1" style="stroke: #000000; stroke-width: 0.8"/>
      </g>
     </g>
    </g>
    <g id="xtick_16">
     <g id="line2d_23">
      <g>
       <use xlink:href="#mbab341c77f" x="971.357382" y="414.1" style="stroke: #000000; stroke-width: 0.8"/>
      </g>
     </g>
    </g>
    <g id="xtick_17">
     <g id="line2d_24">
      <g>
       <use xlink:href="#mbab341c77f" x="998.283844" y="414.1" style="stroke: #000000; stroke-width: 0.8"/>
      </g>
     </g>
    </g>
    <g id="xtick_18">
     <g id="line2d_25">
      <g>
       <use xlink:href="#mbab341c77f" x="1025.210307" y="414.1" style="stroke: #000000; stroke-width: 0.8"/>
      </g>
     </g>
    </g>
    <g id="xtick_19">
     <g id="line2d_26">
      <g>
       <use xlink:href="#mbab341c77f" x="1052.136769" y="414.1" style="stroke: #000000; stroke-width: 0.8"/>
      </g>
     </g>
    </g>
   </g>
   <g id="matplotlib.axis_2">
    <g id="ytick_1">
     <g id="line2d_27">
      <defs>
       <path id="m675791bf8e" d="M 0 0 
L -3.5 0 
" style="stroke: #000000; stroke-width: 0.8"/>
      </defs>
      <g>
       <use xlink:href="#m675791bf8e" x="553.997217" y="313.020995" style="stroke: #000000; stroke-width: 0.8"/>
      </g>
     </g>
     <g id="text_1">
      <!-- $r_{5}$ -->
      <g transform="translate(529.197217 320.619432) scale(0.2 -0.2)">
       <defs>
        <path id="DejaVuSans-Oblique-72" d="M 2853 2969 
Q 2766 3016 2653 3041 
Q 2541 3066 2413 3066 
Q 1953 3066 1609 2717 
Q 1266 2369 1153 1784 
L 800 0 
L 225 0 
L 909 3500 
L 1484 3500 
L 1375 2956 
Q 1603 3259 1920 3421 
Q 2238 3584 2597 3584 
Q 2691 3584 2781 3573 
Q 2872 3563 2963 3538 
L 2853 2969 
z
" transform="scale(0.015625)"/>
        <path id="DejaVuSans-35" d="M 691 4666 
L 3169 4666 
L 3169 4134 
L 1269 4134 
L 1269 2991 
Q 1406 3038 1543 3061 
Q 1681 3084 1819 3084 
Q 2600 3084 3056 2656 
Q 3513 2228 3513 1497 
Q 3513 744 3044 326 
Q 2575 -91 1722 -91 
Q 1428 -91 1123 -41 
Q 819 9 494 109 
L 494 744 
Q 775 591 1075 516 
Q 1375 441 1709 441 
Q 2250 441 2565 725 
Q 2881 1009 2881 1497 
Q 2881 1984 2565 2268 
Q 2250 2553 1709 2553 
Q 1456 2553 1204 2497 
Q 953 2441 691 2322 
L 691 4666 
z
" transform="scale(0.015625)"/>
       </defs>
       <use xlink:href="#DejaVuSans-Oblique-72"/>
       <use xlink:href="#DejaVuSans-35" transform="translate(41.113281 -16.40625) scale(0.7)"/>
      </g>
     </g>
    </g>
   </g>
   <g id="line2d_28">
    <path d="M 594.38691 414.1 
L 594.38691 341.680163 
L 621.313372 341.680163 
L 621.313372 414.1 
" clip-path="url(#pccbb72ff53)" style="fill: none; stroke: #ff0000; stroke-width: 5; stroke-linecap: square"/>
   </g>
   <g id="line2d_29">
    <path d="M 648.239835 414.1 
L 648.239835 313.020995 
L 675.166297 313.020995 
L 675.166297 414.1 
" clip-path="url(#pccbb72ff53)" style="fill: none; stroke: #ff0000; stroke-width: 5; stroke-linecap: square"/>
   </g>
   <g id="line2d_30">
    <path d="M 890.577995 414.1 
L 890.577995 354.314891 
L 917.504457 354.314891 
L 917.504457 414.1 
" clip-path="url(#pccbb72ff53)" style="fill: none; stroke: #ff0000; stroke-width: 5; stroke-linecap: square"/>
   </g>
   <g id="line2d_31">
    <path d="M 863.651533 414.1 
L 863.651533 352.802549 
L 904.041226 352.802549 
L 904.041226 354.314891 
" clip-path="url(#pccbb72ff53)" style="fill: none; stroke: #ff0000; stroke-width: 5; stroke-linecap: square"/>
   </g>
   <g id="line2d_32">
    <path d="M 836.725071 414.1 
L 836.725071 336.906263 
L 883.84638 336.906263 
L 883.84638 352.802549 
" clip-path="url(#pccbb72ff53)" style="fill: none; stroke: #ff0000; stroke-width: 5; stroke-linecap: square"/>
   </g>
   <g id="line2d_33">
    <path d="M 567.460448 414.1 
L 567.460448 313.020995 
" clip-path="url(#pccbb72ff53)" style="fill: none; stroke: #ff0000; stroke-width: 5; stroke-linecap: square"/>
   </g>
   <g id="line2d_34">
    <path d="M 702.092759 414.1 
L 702.092759 313.020995 
" clip-path="url(#pccbb72ff53)" style="fill: none; stroke: #ff0000; stroke-width: 5; stroke-linecap: square"/>
   </g>
   <g id="line2d_35">
    <path d="M 729.019222 414.1 
L 729.019222 313.020995 
" clip-path="url(#pccbb72ff53)" style="fill: none; stroke: #ff0000; stroke-width: 5; stroke-linecap: square"/>
   </g>
   <g id="line2d_36">
    <path d="M 755.945684 414.1 
L 755.945684 313.020995 
" clip-path="url(#pccbb72ff53)" style="fill: none; stroke: #ff0000; stroke-width: 5; stroke-linecap: square"/>
   </g>
   <g id="line2d_37">
    <path d="M 782.872146 414.1 
L 782.872146 313.020995 
" clip-path="url(#pccbb72ff53)" style="fill: none; stroke: #ff0000; stroke-width: 5; stroke-linecap: square"/>
   </g>
   <g id="line2d_38">
    <path d="M 809.798608 414.1 
L 809.798608 313.020995 
" clip-path="url(#pccbb72ff53)" style="fill: none; stroke: #ff0000; stroke-width: 5; stroke-linecap: square"/>
   </g>
   <g id="line2d_39">
    <path d="M 944.43092 414.1 
L 944.43092 313.020995 
" clip-path="url(#pccbb72ff53)" style="fill: none; stroke: #ff0000; stroke-width: 5; stroke-linecap: square"/>
   </g>
   <g id="line2d_40">
    <path d="M 971.357382 414.1 
L 971.357382 313.020995 
" clip-path="url(#pccbb72ff53)" style="fill: none; stroke: #ff0000; stroke-width: 5; stroke-linecap: square"/>
   </g>
   <g id="line2d_41">
    <path d="M 1025.210307 414.1 
L 1025.210307 313.020995 
" clip-path="url(#pccbb72ff53)" style="fill: none; stroke: #ff0000; stroke-width: 5; stroke-linecap: square"/>
   </g>
   <g id="line2d_42">
    <path d="M 1052.136769 414.1 
L 1052.136769 313.020995 
" clip-path="url(#pccbb72ff53)" style="fill: none; stroke: #ff0000; stroke-width: 5; stroke-linecap: square"/>
   </g>
   <g id="line2d_43">
    <path d="M 998.283844 414.1 
L 998.283844 313.020995 
" clip-path="url(#pccbb72ff53)" style="fill: none; stroke: #ff0000; stroke-width: 5; stroke-linecap: square"/>
   </g>
   <g id="line2d_44">
    <path d="M 607.850141 341.680163 
L 607.850141 313.020995 
" clip-path="url(#pccbb72ff53)" style="fill: none; stroke: #ff0000; stroke-width: 5; stroke-linecap: square"/>
   </g>
   <g id="line2d_45">
    <path d="M 661.703066 313.020995 
L 661.703066 313.020995 
" clip-path="url(#pccbb72ff53)" style="fill: none; stroke: #ff0000; stroke-width: 5; stroke-linecap: square"/>
   </g>
   <g id="line2d_46">
    <path d="M 860.285725 336.906263 
L 860.285725 313.020995 
" clip-path="url(#pccbb72ff53)" style="fill: none; stroke: #ff0000; stroke-width: 5; stroke-linecap: square"/>
   </g>
   <g id="patch_41">
    <path d="M 553.997217 414.1 
L 553.997217 7.2 
" style="fill: none; stroke: #000000; stroke-width: 0.8; stroke-linejoin: miter; stroke-linecap: square"/>
   </g>
   <g id="patch_42">
    <path d="M 1065.6 414.1 
L 1065.6 7.2 
" style="fill: none; stroke: #000000; stroke-width: 0.8; stroke-linejoin: miter; stroke-linecap: square"/>
   </g>
   <g id="patch_43">
    <path d="M 553.997217 414.1 
L 1065.6 414.1 
" style="fill: none; stroke: #000000; stroke-width: 0.8; stroke-linejoin: miter; stroke-linecap: square"/>
   </g>
   <g id="patch_44">
    <path d="M 553.997217 7.2 
L 1065.6 7.2 
" style="fill: none; stroke: #000000; stroke-width: 0.8; stroke-linejoin: miter; stroke-linecap: square"/>
   </g>
   <g id="PathCollection_3">
    <defs>
     <path id="me657c67ea1" d="M 0 6.123724 
C 1.624031 6.123724 3.181764 5.47849 4.330127 4.330127 
C 5.47849 3.181764 6.123724 1.624031 6.123724 0 
C 6.123724 -1.624031 5.47849 -3.181764 4.330127 -4.330127 
C 3.181764 -5.47849 1.624031 -6.123724 0 -6.123724 
C -1.624031 -6.123724 -3.181764 -5.47849 -4.330127 -4.330127 
C -5.47849 -3.181764 -6.123724 -1.624031 -6.123724 0 
C -6.123724 1.624031 -5.47849 3.181764 -4.330127 4.330127 
C -3.181764 5.47849 -1.624031 6.123724 0 6.123724 
z
" style="stroke: #0000ff"/>
    </defs>
    <g clip-path="url(#pccbb72ff53)">
     <use xlink:href="#me657c67ea1" x="567.460448" y="414.1" style="fill: #0000ff; stroke: #0000ff"/>
     <use xlink:href="#me657c67ea1" x="594.38691" y="414.1" style="fill: #0000ff; stroke: #0000ff"/>
     <use xlink:href="#me657c67ea1" x="621.313372" y="414.1" style="fill: #0000ff; stroke: #0000ff"/>
     <use xlink:href="#me657c67ea1" x="648.239835" y="414.1" style="fill: #0000ff; stroke: #0000ff"/>
     <use xlink:href="#me657c67ea1" x="675.166297" y="414.1" style="fill: #0000ff; stroke: #0000ff"/>
     <use xlink:href="#me657c67ea1" x="702.092759" y="414.1" style="fill: #0000ff; stroke: #0000ff"/>
     <use xlink:href="#me657c67ea1" x="729.019222" y="414.1" style="fill: #0000ff; stroke: #0000ff"/>
     <use xlink:href="#me657c67ea1" x="755.945684" y="414.1" style="fill: #0000ff; stroke: #0000ff"/>
     <use xlink:href="#me657c67ea1" x="782.872146" y="414.1" style="fill: #0000ff; stroke: #0000ff"/>
     <use xlink:href="#me657c67ea1" x="809.798608" y="414.1" style="fill: #0000ff; stroke: #0000ff"/>
     <use xlink:href="#me657c67ea1" x="836.725071" y="414.1" style="fill: #0000ff; stroke: #0000ff"/>
     <use xlink:href="#me657c67ea1" x="863.651533" y="414.1" style="fill: #0000ff; stroke: #0000ff"/>
     <use xlink:href="#me657c67ea1" x="890.577995" y="414.1" style="fill: #0000ff; stroke: #0000ff"/>
     <use xlink:href="#me657c67ea1" x="917.504457" y="414.1" style="fill: #0000ff; stroke: #0000ff"/>
     <use xlink:href="#me657c67ea1" x="944.43092" y="414.1" style="fill: #0000ff; stroke: #0000ff"/>
     <use xlink:href="#me657c67ea1" x="971.357382" y="414.1" style="fill: #0000ff; stroke: #0000ff"/>
     <use xlink:href="#me657c67ea1" x="998.283844" y="414.1" style="fill: #0000ff; stroke: #0000ff"/>
     <use xlink:href="#me657c67ea1" x="1025.210307" y="414.1" style="fill: #0000ff; stroke: #0000ff"/>
     <use xlink:href="#me657c67ea1" x="1052.136769" y="414.1" style="fill: #0000ff; stroke: #0000ff"/>
    </g>
   </g>
  </g>
 </g>
 <defs>
  <clipPath id="pdf3aa77ae2">
   <rect x="7.2" y="18.62403" width="511.602783" height="384.05194"/>
  </clipPath>
  <clipPath id="pccbb72ff53">
   <rect x="553.997217" y="7.2" width="511.602783" height="406.9"/>
  </clipPath>
 </defs>
</svg>
