<?xml version="1.0" encoding="utf-8" standalone="no"?>
<!DOCTYPE svg PUBLIC "-//W3C//DTD SVG 1.1//EN"
  "http://www.w3.org/Graphics/SVG/1.1/DTD/svg11.dtd">
<svg xmlns:xlink="http://www.w3.org/1999/xlink" width="1072.8pt" height="424.8pt" viewBox="0 0 1072.8 424.8" xmlns="http://www.w3.org/2000/svg" version="1.1">
 <metadata>
  <rdf:RDF xmlns:dc="http://purl.org/dc/elements/1.1/" xmlns:cc="http://creativecommons.org/ns#" xmlns:rdf="http://www.w3.org/1999/02/22-rdf-syntax-ns#">
   <cc:Work>
    <dc:type rdf:resource="http://purl.org/dc/dcmitype/StillImage"/>
    <dc:date>2023-10-24T09:47:26.681391</dc:date>
    <dc:format>image/svg+xml</dc:format>
    <dc:creator>
     <cc:Agent>
      <dc:title>Matplotlib v3.7.2, https://matplotlib.org/</dc:title>
     </cc:Agent>
    </dc:creator>
   </cc:Work>
  </rdf:RDF>
 </metadata>
 <defs>
  <style type="text/css">*{stroke-linejoin: round; stroke-linecap: butt}</style>
 </defs>
 <g id="figure_1">
  <g id="patch_1">
   <path d="M 0 424.8 
L 1072.8 424.8 
L 1072.8 -0 
L 0 -0 
z
" style="fill: #ffffff"/>
  </g>
  <g id="axes_1">
   <g id="PathCollection_1">
    <defs>
     <path id="m730df43b87" d="M 0 3 
C 0.795609 3 1.55874 2.683901 2.12132 2.12132 
C 2.683901 1.55874 3 0.795609 3 0 
C 3 -0.795609 2.683901 -1.55874 2.12132 -2.12132 
C 1.55874 -2.683901 0.795609 -3 0 -3 
C -0.795609 -3 -1.55874 -2.683901 -2.12132 -2.12132 
C -2.683901 -1.55874 -3 -0.795609 -3 0 
C -3 0.795609 -2.683901 1.55874 -2.12132 2.12132 
C -1.55874 2.683901 -0.795609 3 0 3 
z
" style="stroke: #1f77b4; stroke-opacity: 0"/>
    </defs>
    <g clip-path="url(#pfd303e66da)">
     <use xlink:href="#m730df43b87" x="7.2" y="402.599963" style="fill: #1f77b4; fill-opacity: 0; stroke: #1f77b4; stroke-opacity: 0"/>
     <use xlink:href="#m730df43b87" x="518.600283" y="18.700037" style="fill: #1f77b4; fill-opacity: 0; stroke: #1f77b4; stroke-opacity: 0"/>
    </g>
   </g>
   <g id="patch_2">
    <path d="M 319.782896 250.042517 
C 325.577414 250.042517 331.135383 247.74033 335.232726 243.642988 
C 339.330069 239.545645 341.632256 233.987675 341.632256 228.193157 
C 341.632256 222.398639 339.330069 216.84067 335.232726 212.743327 
C 331.135383 208.645984 325.577414 206.343797 319.782896 206.343797 
C 313.988378 206.343797 308.430408 208.645984 304.333065 212.743327 
C 300.235723 216.84067 297.933536 222.398639 297.933536 228.193157 
C 297.933536 233.987675 300.235723 239.545645 304.333065 243.642988 
C 308.430408 247.74033 313.988378 250.042517 319.782896 250.042517 
z
" clip-path="url(#pfd303e66da)" style="fill: #ff0000; opacity: 0.2"/>
   </g>
   <g id="patch_3">
    <path d="M 305.488556 183.41333 
C 311.283074 183.41333 316.841043 181.111143 320.938386 177.0138 
C 325.035729 172.916457 327.337916 167.358488 327.337916 161.56397 
C 327.337916 155.769452 325.035729 150.211482 320.938386 146.114139 
C 316.841043 142.016797 311.283074 139.71461 305.488556 139.71461 
C 299.694038 139.71461 294.136068 142.016797 290.038725 146.114139 
C 285.941382 150.211482 283.639196 155.769452 283.639196 161.56397 
C 283.639196 167.358488 285.941382 172.916457 290.038725 177.0138 
C 294.136068 181.111143 299.694038 183.41333 305.488556 183.41333 
z
" clip-path="url(#pfd303e66da)" style="fill: #ff0000; opacity: 0.2"/>
   </g>
   <g id="patch_4">
    <path d="M 228.567562 117.300539 
C 234.36208 117.300539 239.920049 114.998353 244.017392 110.90101 
C 248.114735 106.803667 250.416922 101.245697 250.416922 95.451179 
C 250.416922 89.656662 248.114735 84.098692 244.017392 80.001349 
C 239.920049 75.904006 234.36208 73.60182 228.567562 73.60182 
C 222.773044 73.60182 217.215074 75.904006 213.117731 80.001349 
C 209.020388 84.098692 206.718202 89.656662 206.718202 95.451179 
C 206.718202 101.245697 209.020388 106.803667 213.117731 110.90101 
C 217.215074 114.998353 222.773044 117.300539 228.567562 117.300539 
z
" clip-path="url(#pfd303e66da)" style="fill: #ff0000; opacity: 0.2"/>
   </g>
   <g id="patch_5">
    <path d="M 182.317283 112.57388 
C 188.111801 112.57388 193.669771 110.271694 197.767114 106.174351 
C 201.864457 102.077008 204.166643 96.519038 204.166643 90.72452 
C 204.166643 84.930002 201.864457 79.372033 197.767114 75.27469 
C 193.669771 71.177347 188.111801 68.875161 182.317283 68.875161 
C 176.522765 68.875161 170.964796 71.177347 166.867453 75.27469 
C 162.77011 79.372033 160.467924 84.930002 160.467924 90.72452 
C 160.467924 96.519038 162.77011 102.077008 166.867453 106.174351 
C 170.964796 110.271694 176.522765 112.57388 182.317283 112.57388 
z
" clip-path="url(#pfd303e66da)" style="fill: #ff0000; opacity: 0.2"/>
   </g>
   <g id="patch_6">
    <path d="M 181.606444 133.059679 
C 187.400962 133.059679 192.958932 130.757492 197.056275 126.660149 
C 201.153618 122.562806 203.455804 117.004837 203.455804 111.210319 
C 203.455804 105.415801 201.153618 99.857831 197.056275 95.760489 
C 192.958932 91.663146 187.400962 89.360959 181.606444 89.360959 
C 175.811927 89.360959 170.253957 91.663146 166.156614 95.760489 
C 162.059271 99.857831 159.757085 105.415801 159.757085 111.210319 
C 159.757085 117.004837 162.059271 122.562806 166.156614 126.660149 
C 170.253957 130.757492 175.811927 133.059679 181.606444 133.059679 
z
" clip-path="url(#pfd303e66da)" style="fill: #ff0000; opacity: 0.2"/>
   </g>
   <g id="patch_7">
    <path d="M 109.605436 181.394948 
C 115.399954 181.394948 120.957923 179.092762 125.055266 174.995419 
C 129.152609 170.898076 131.454796 165.340106 131.454796 159.545589 
C 131.454796 153.751071 129.152609 148.193101 125.055266 144.095758 
C 120.957923 139.998415 115.399954 137.696229 109.605436 137.696229 
C 103.810918 137.696229 98.252948 139.998415 94.155605 144.095758 
C 90.058263 148.193101 87.756076 153.751071 87.756076 159.545589 
C 87.756076 165.340106 90.058263 170.898076 94.155605 174.995419 
C 98.252948 179.092762 103.810918 181.394948 109.605436 181.394948 
z
" clip-path="url(#pfd303e66da)" style="fill: #ff0000; opacity: 0.2"/>
   </g>
   <g id="patch_8">
    <path d="M 79.224484 225.774649 
C 85.019002 225.774649 90.576971 223.472462 94.674314 219.37512 
C 98.771657 215.277777 101.073843 209.719807 101.073843 203.925289 
C 101.073843 198.130771 98.771657 192.572802 94.674314 188.475459 
C 90.576971 184.378116 85.019002 182.075929 79.224484 182.075929 
C 73.429966 182.075929 67.871996 184.378116 63.774653 188.475459 
C 59.67731 192.572802 57.375124 198.130771 57.375124 203.925289 
C 57.375124 209.719807 59.67731 215.277777 63.774653 219.37512 
C 67.871996 223.472462 73.429966 225.774649 79.224484 225.774649 
z
" clip-path="url(#pfd303e66da)" style="fill: #ff0000; opacity: 0.2"/>
   </g>
   <g id="patch_9">
    <path d="M 100.811629 299.030676 
C 106.606147 299.030676 112.164116 296.728489 116.261459 292.631146 
C 120.358802 288.533803 122.660988 282.975834 122.660988 277.181316 
C 122.660988 271.386798 120.358802 265.828828 116.261459 261.731485 
C 112.164116 257.634143 106.606147 255.331956 100.811629 255.331956 
C 95.017111 255.331956 89.459141 257.634143 85.361798 261.731485 
C 81.264455 265.828828 78.962269 271.386798 78.962269 277.181316 
C 78.962269 282.975834 81.264455 288.533803 85.361798 292.631146 
C 89.459141 296.728489 95.017111 299.030676 100.811629 299.030676 
z
" clip-path="url(#pfd303e66da)" style="fill: #ff0000; opacity: 0.2"/>
   </g>
   <g id="patch_10">
    <path d="M 116.163905 323.17273 
C 121.958423 323.17273 127.516393 320.870543 131.613735 316.7732 
C 135.711078 312.675857 138.013265 307.117888 138.013265 301.32337 
C 138.013265 295.528852 135.711078 289.970882 131.613735 285.873539 
C 127.516393 281.776196 121.958423 279.47401 116.163905 279.47401 
C 110.369387 279.47401 104.811418 281.776196 100.714075 285.873539 
C 96.616732 289.970882 94.314545 295.528852 94.314545 301.32337 
C 94.314545 307.117888 96.616732 312.675857 100.714075 316.7732 
C 104.811418 320.870543 110.369387 323.17273 116.163905 323.17273 
z
" clip-path="url(#pfd303e66da)" style="fill: #ff0000; opacity: 0.2"/>
   </g>
   <g id="patch_11">
    <path d="M 208.821283 352.424839 
C 214.615801 352.424839 220.17377 350.122653 224.271113 346.02531 
C 228.368456 341.927967 230.670643 336.369998 230.670643 330.57548 
C 230.670643 324.780962 228.368456 319.222992 224.271113 315.125649 
C 220.17377 311.028306 214.615801 308.72612 208.821283 308.72612 
C 203.026765 308.72612 197.468795 311.028306 193.371452 315.125649 
C 189.27411 319.222992 186.971923 324.780962 186.971923 330.57548 
C 186.971923 336.369998 189.27411 341.927967 193.371452 346.02531 
C 197.468795 350.122653 203.026765 352.424839 208.821283 352.424839 
z
" clip-path="url(#pfd303e66da)" style="fill: #ff0000; opacity: 0.2"/>
   </g>
   <g id="patch_12">
    <path d="M 262.24795 343.725939 
C 268.042468 343.725939 273.600437 341.423753 277.69778 337.32641 
C 281.795123 333.229067 284.09731 327.671097 284.09731 321.876579 
C 284.09731 316.082062 281.795123 310.524092 277.69778 306.426749 
C 273.600437 302.329406 268.042468 300.02722 262.24795 300.02722 
C 256.453432 300.02722 250.895462 302.329406 246.798119 306.426749 
C 242.700777 310.524092 240.39859 316.082062 240.39859 321.876579 
C 240.39859 327.671097 242.700777 333.229067 246.798119 337.32641 
C 250.895462 341.423753 256.453432 343.725939 262.24795 343.725939 
z
" clip-path="url(#pfd303e66da)" style="fill: #ff0000; opacity: 0.2"/>
   </g>
   <g id="patch_13">
    <path d="M 316.123742 271.583295 
C 321.91826 271.583295 327.47623 269.281109 331.573573 265.183766 
C 335.670916 261.086423 337.973102 255.528453 337.973102 249.733935 
C 337.973102 243.939417 335.670916 238.381448 331.573573 234.284105 
C 327.47623 230.186762 321.91826 227.884575 316.123742 227.884575 
C 310.329225 227.884575 304.771255 230.186762 300.673912 234.284105 
C 296.576569 238.381448 294.274383 243.939417 294.274383 249.733935 
C 294.274383 255.528453 296.576569 261.086423 300.673912 265.183766 
C 304.771255 269.281109 310.329225 271.583295 316.123742 271.583295 
z
" clip-path="url(#pfd303e66da)" style="fill: #ff0000; opacity: 0.2"/>
   </g>
   <g id="patch_14">
    <path d="M 446.575799 233.994167 
C 452.370317 233.994167 457.928287 231.691981 462.02563 227.594638 
C 466.122973 223.497295 468.425159 217.939326 468.425159 212.144808 
C 468.425159 206.35029 466.122973 200.79232 462.02563 196.694977 
C 457.928287 192.597634 452.370317 190.295448 446.575799 190.295448 
C 440.781282 190.295448 435.223312 192.597634 431.125969 196.694977 
C 427.028626 200.79232 424.72644 206.35029 424.72644 212.144808 
C 424.72644 217.939326 427.028626 223.497295 431.125969 227.594638 
C 435.223312 231.691981 440.781282 233.994167 446.575799 233.994167 
z
" clip-path="url(#pfd303e66da)" style="fill: #ff0000; opacity: 0.2"/>
   </g>
   <g id="patch_15">
    <path d="M 420.744278 174.493025 
C 426.538796 174.493025 432.096766 172.190838 436.194109 168.093495 
C 440.291452 163.996152 442.593638 158.438183 442.593638 152.643665 
C 442.593638 146.849147 440.291452 141.291177 436.194109 137.193834 
C 432.096766 133.096492 426.538796 130.794305 420.744278 130.794305 
C 414.94976 130.794305 409.391791 133.096492 405.294448 137.193834 
C 401.197105 141.291177 398.894918 146.849147 398.894918 152.643665 
C 398.894918 158.438183 401.197105 163.996152 405.294448 168.093495 
C 409.391791 172.190838 414.94976 174.493025 420.744278 174.493025 
z
" clip-path="url(#pfd303e66da)" style="fill: #ff0000; opacity: 0.2"/>
   </g>
   <g id="patch_16">
    <path d="M 376.596001 163.8826 
C 382.390519 163.8826 387.948488 161.580414 392.045831 157.483071 
C 396.143174 153.385728 398.44536 147.827758 398.44536 142.03324 
C 398.44536 136.238722 396.143174 130.680753 392.045831 126.58341 
C 387.948488 122.486067 382.390519 120.183881 376.596001 120.183881 
C 370.801483 120.183881 365.243513 122.486067 361.14617 126.58341 
C 357.048827 130.680753 354.746641 136.238722 354.746641 142.03324 
C 354.746641 147.827758 357.048827 153.385728 361.14617 157.483071 
C 365.243513 161.580414 370.801483 163.8826 376.596001 163.8826 
z
" clip-path="url(#pfd303e66da)" style="fill: #ff0000; opacity: 0.2"/>
   </g>
   <g id="patch_17">
    <path d="M 302.451044 231.052441 
C 308.245562 231.052441 313.803531 228.750255 317.900874 224.652912 
C 321.998217 220.555569 324.300404 214.9976 324.300404 209.203082 
C 324.300404 203.408564 321.998217 197.850594 317.900874 193.753251 
C 313.803531 189.655908 308.245562 187.353722 302.451044 187.353722 
C 296.656526 187.353722 291.098556 189.655908 287.001213 193.753251 
C 282.90387 197.850594 280.601684 203.408564 280.601684 209.203082 
C 280.601684 214.9976 282.90387 220.555569 287.001213 224.652912 
C 291.098556 228.750255 296.656526 231.052441 302.451044 231.052441 
z
" clip-path="url(#pfd303e66da)" style="fill: #ff0000; opacity: 0.2"/>
   </g>
   <g id="patch_18">
    <path d="M 302.941318 248.395496 
C 308.735836 248.395496 314.293805 246.09331 318.391148 241.995967 
C 322.488491 237.898624 324.790678 232.340655 324.790678 226.546137 
C 324.790678 220.751619 322.488491 215.193649 318.391148 211.096306 
C 314.293805 206.998963 308.735836 204.696777 302.941318 204.696777 
C 297.1468 204.696777 291.58883 206.998963 287.491488 211.096306 
C 283.394145 215.193649 281.091958 220.751619 281.091958 226.546137 
C 281.091958 232.340655 283.394145 237.898624 287.491488 241.995967 
C 291.58883 246.09331 297.1468 248.395496 302.941318 248.395496 
z
" clip-path="url(#pfd303e66da)" style="fill: #ff0000; opacity: 0.2"/>
   </g>
   <g id="patch_19">
    <path d="M 367.193807 306.067923 
C 372.988325 306.067923 378.546294 303.765737 382.643637 299.668394 
C 386.74098 295.571051 389.043167 290.013081 389.043167 284.218563 
C 389.043167 278.424045 386.74098 272.866076 382.643637 268.768733 
C 378.546294 264.67139 372.988325 262.369204 367.193807 262.369204 
C 361.399289 262.369204 355.841319 264.67139 351.743976 268.768733 
C 347.646633 272.866076 345.344447 278.424045 345.344447 284.218563 
C 345.344447 290.013081 347.646633 295.571051 351.743976 299.668394 
C 355.841319 303.765737 361.399289 306.067923 367.193807 306.067923 
z
" clip-path="url(#pfd303e66da)" style="fill: #ff0000; opacity: 0.2"/>
   </g>
   <g id="patch_20">
    <path d="M 421.099692 298.720555 
C 426.89421 298.720555 432.45218 296.418368 436.549523 292.321025 
C 440.646866 288.223682 442.949052 282.665713 442.949052 276.871195 
C 442.949052 271.076677 440.646866 265.518707 436.549523 261.421364 
C 432.45218 257.324021 426.89421 255.021835 421.099692 255.021835 
C 415.305174 255.021835 409.747205 257.324021 405.649862 261.421364 
C 401.552519 265.518707 399.250333 271.076677 399.250333 276.871195 
C 399.250333 282.665713 401.552519 288.223682 405.649862 292.321025 
C 409.747205 296.418368 415.305174 298.720555 421.099692 298.720555 
z
" clip-path="url(#pfd303e66da)" style="fill: #ff0000; opacity: 0.2"/>
   </g>
   <g id="patch_21">
    <path d="M 319.782896 250.042517 
C 325.577414 250.042517 331.135383 247.74033 335.232726 243.642988 
C 339.330069 239.545645 341.632256 233.987675 341.632256 228.193157 
C 341.632256 222.398639 339.330069 216.84067 335.232726 212.743327 
C 331.135383 208.645984 325.577414 206.343797 319.782896 206.343797 
C 313.988378 206.343797 308.430408 208.645984 304.333065 212.743327 
C 300.235723 216.84067 297.933536 222.398639 297.933536 228.193157 
C 297.933536 233.987675 300.235723 239.545645 304.333065 243.642988 
C 308.430408 247.74033 313.988378 250.042517 319.782896 250.042517 
L 319.782896 250.042517 
z
" clip-path="url(#pfd303e66da)" style="fill: none; stroke: #ff0000; stroke-width: 2; stroke-linejoin: miter"/>
   </g>
   <g id="patch_22">
    <path d="M 305.488556 183.41333 
C 311.283074 183.41333 316.841043 181.111143 320.938386 177.0138 
C 325.035729 172.916457 327.337916 167.358488 327.337916 161.56397 
C 327.337916 155.769452 325.035729 150.211482 320.938386 146.114139 
C 316.841043 142.016797 311.283074 139.71461 305.488556 139.71461 
C 299.694038 139.71461 294.136068 142.016797 290.038725 146.114139 
C 285.941382 150.211482 283.639196 155.769452 283.639196 161.56397 
C 283.639196 167.358488 285.941382 172.916457 290.038725 177.0138 
C 294.136068 181.111143 299.694038 183.41333 305.488556 183.41333 
L 305.488556 183.41333 
z
" clip-path="url(#pfd303e66da)" style="fill: none; stroke: #ff0000; stroke-width: 2; stroke-linejoin: miter"/>
   </g>
   <g id="patch_23">
    <path d="M 228.567562 117.300539 
C 234.36208 117.300539 239.920049 114.998353 244.017392 110.90101 
C 248.114735 106.803667 250.416922 101.245697 250.416922 95.451179 
C 250.416922 89.656662 248.114735 84.098692 244.017392 80.001349 
C 239.920049 75.904006 234.36208 73.60182 228.567562 73.60182 
C 222.773044 73.60182 217.215074 75.904006 213.117731 80.001349 
C 209.020388 84.098692 206.718202 89.656662 206.718202 95.451179 
C 206.718202 101.245697 209.020388 106.803667 213.117731 110.90101 
C 217.215074 114.998353 222.773044 117.300539 228.567562 117.300539 
L 228.567562 117.300539 
z
" clip-path="url(#pfd303e66da)" style="fill: none; stroke: #ff0000; stroke-width: 2; stroke-linejoin: miter"/>
   </g>
   <g id="patch_24">
    <path d="M 182.317283 112.57388 
C 188.111801 112.57388 193.669771 110.271694 197.767114 106.174351 
C 201.864457 102.077008 204.166643 96.519038 204.166643 90.72452 
C 204.166643 84.930002 201.864457 79.372033 197.767114 75.27469 
C 193.669771 71.177347 188.111801 68.875161 182.317283 68.875161 
C 176.522765 68.875161 170.964796 71.177347 166.867453 75.27469 
C 162.77011 79.372033 160.467924 84.930002 160.467924 90.72452 
C 160.467924 96.519038 162.77011 102.077008 166.867453 106.174351 
C 170.964796 110.271694 176.522765 112.57388 182.317283 112.57388 
L 182.317283 112.57388 
z
" clip-path="url(#pfd303e66da)" style="fill: none; stroke: #ff0000; stroke-width: 2; stroke-linejoin: miter"/>
   </g>
   <g id="patch_25">
    <path d="M 181.606444 133.059679 
C 187.400962 133.059679 192.958932 130.757492 197.056275 126.660149 
C 201.153618 122.562806 203.455804 117.004837 203.455804 111.210319 
C 203.455804 105.415801 201.153618 99.857831 197.056275 95.760489 
C 192.958932 91.663146 187.400962 89.360959 181.606444 89.360959 
C 175.811927 89.360959 170.253957 91.663146 166.156614 95.760489 
C 162.059271 99.857831 159.757085 105.415801 159.757085 111.210319 
C 159.757085 117.004837 162.059271 122.562806 166.156614 126.660149 
C 170.253957 130.757492 175.811927 133.059679 181.606444 133.059679 
L 181.606444 133.059679 
z
" clip-path="url(#pfd303e66da)" style="fill: none; stroke: #ff0000; stroke-width: 2; stroke-linejoin: miter"/>
   </g>
   <g id="patch_26">
    <path d="M 109.605436 181.394948 
C 115.399954 181.394948 120.957923 179.092762 125.055266 174.995419 
C 129.152609 170.898076 131.454796 165.340106 131.454796 159.545589 
C 131.454796 153.751071 129.152609 148.193101 125.055266 144.095758 
C 120.957923 139.998415 115.399954 137.696229 109.605436 137.696229 
C 103.810918 137.696229 98.252948 139.998415 94.155605 144.095758 
C 90.058263 148.193101 87.756076 153.751071 87.756076 159.545589 
C 87.756076 165.340106 90.058263 170.898076 94.155605 174.995419 
C 98.252948 179.092762 103.810918 181.394948 109.605436 181.394948 
L 109.605436 181.394948 
z
" clip-path="url(#pfd303e66da)" style="fill: none; stroke: #ff0000; stroke-width: 2; stroke-linejoin: miter"/>
   </g>
   <g id="patch_27">
    <path d="M 79.224484 225.774649 
C 85.019002 225.774649 90.576971 223.472462 94.674314 219.37512 
C 98.771657 215.277777 101.073843 209.719807 101.073843 203.925289 
C 101.073843 198.130771 98.771657 192.572802 94.674314 188.475459 
C 90.576971 184.378116 85.019002 182.075929 79.224484 182.075929 
C 73.429966 182.075929 67.871996 184.378116 63.774653 188.475459 
C 59.67731 192.572802 57.375124 198.130771 57.375124 203.925289 
C 57.375124 209.719807 59.67731 215.277777 63.774653 219.37512 
C 67.871996 223.472462 73.429966 225.774649 79.224484 225.774649 
L 79.224484 225.774649 
z
" clip-path="url(#pfd303e66da)" style="fill: none; stroke: #ff0000; stroke-width: 2; stroke-linejoin: miter"/>
   </g>
   <g id="patch_28">
    <path d="M 100.811629 299.030676 
C 106.606147 299.030676 112.164116 296.728489 116.261459 292.631146 
C 120.358802 288.533803 122.660988 282.975834 122.660988 277.181316 
C 122.660988 271.386798 120.358802 265.828828 116.261459 261.731485 
C 112.164116 257.634143 106.606147 255.331956 100.811629 255.331956 
C 95.017111 255.331956 89.459141 257.634143 85.361798 261.731485 
C 81.264455 265.828828 78.962269 271.386798 78.962269 277.181316 
C 78.962269 282.975834 81.264455 288.533803 85.361798 292.631146 
C 89.459141 296.728489 95.017111 299.030676 100.811629 299.030676 
L 100.811629 299.030676 
z
" clip-path="url(#pfd303e66da)" style="fill: none; stroke: #ff0000; stroke-width: 2; stroke-linejoin: miter"/>
   </g>
   <g id="patch_29">
    <path d="M 116.163905 323.17273 
C 121.958423 323.17273 127.516393 320.870543 131.613735 316.7732 
C 135.711078 312.675857 138.013265 307.117888 138.013265 301.32337 
C 138.013265 295.528852 135.711078 289.970882 131.613735 285.873539 
C 127.516393 281.776196 121.958423 279.47401 116.163905 279.47401 
C 110.369387 279.47401 104.811418 281.776196 100.714075 285.873539 
C 96.616732 289.970882 94.314545 295.528852 94.314545 301.32337 
C 94.314545 307.117888 96.616732 312.675857 100.714075 316.7732 
C 104.811418 320.870543 110.369387 323.17273 116.163905 323.17273 
L 116.163905 323.17273 
z
" clip-path="url(#pfd303e66da)" style="fill: none; stroke: #ff0000; stroke-width: 2; stroke-linejoin: miter"/>
   </g>
   <g id="patch_30">
    <path d="M 208.821283 352.424839 
C 214.615801 352.424839 220.17377 350.122653 224.271113 346.02531 
C 228.368456 341.927967 230.670643 336.369998 230.670643 330.57548 
C 230.670643 324.780962 228.368456 319.222992 224.271113 315.125649 
C 220.17377 311.028306 214.615801 308.72612 208.821283 308.72612 
C 203.026765 308.72612 197.468795 311.028306 193.371452 315.125649 
C 189.27411 319.222992 186.971923 324.780962 186.971923 330.57548 
C 186.971923 336.369998 189.27411 341.927967 193.371452 346.02531 
C 197.468795 350.122653 203.026765 352.424839 208.821283 352.424839 
L 208.821283 352.424839 
z
" clip-path="url(#pfd303e66da)" style="fill: none; stroke: #ff0000; stroke-width: 2; stroke-linejoin: miter"/>
   </g>
   <g id="patch_31">
    <path d="M 262.24795 343.725939 
C 268.042468 343.725939 273.600437 341.423753 277.69778 337.32641 
C 281.795123 333.229067 284.09731 327.671097 284.09731 321.876579 
C 284.09731 316.082062 281.795123 310.524092 277.69778 306.426749 
C 273.600437 302.329406 268.042468 300.02722 262.24795 300.02722 
C 256.453432 300.02722 250.895462 302.329406 246.798119 306.426749 
C 242.700777 310.524092 240.39859 316.082062 240.39859 321.876579 
C 240.39859 327.671097 242.700777 333.229067 246.798119 337.32641 
C 250.895462 341.423753 256.453432 343.725939 262.24795 343.725939 
L 262.24795 343.725939 
z
" clip-path="url(#pfd303e66da)" style="fill: none; stroke: #ff0000; stroke-width: 2; stroke-linejoin: miter"/>
   </g>
   <g id="patch_32">
    <path d="M 316.123742 271.583295 
C 321.91826 271.583295 327.47623 269.281109 331.573573 265.183766 
C 335.670916 261.086423 337.973102 255.528453 337.973102 249.733935 
C 337.973102 243.939417 335.670916 238.381448 331.573573 234.284105 
C 327.47623 230.186762 321.91826 227.884575 316.123742 227.884575 
C 310.329225 227.884575 304.771255 230.186762 300.673912 234.284105 
C 296.576569 238.381448 294.274383 243.939417 294.274383 249.733935 
C 294.274383 255.528453 296.576569 261.086423 300.673912 265.183766 
C 304.771255 269.281109 310.329225 271.583295 316.123742 271.583295 
L 316.123742 271.583295 
z
" clip-path="url(#pfd303e66da)" style="fill: none; stroke: #ff0000; stroke-width: 2; stroke-linejoin: miter"/>
   </g>
   <g id="patch_33">
    <path d="M 446.575799 233.994167 
C 452.370317 233.994167 457.928287 231.691981 462.02563 227.594638 
C 466.122973 223.497295 468.425159 217.939326 468.425159 212.144808 
C 468.425159 206.35029 466.122973 200.79232 462.02563 196.694977 
C 457.928287 192.597634 452.370317 190.295448 446.575799 190.295448 
C 440.781282 190.295448 435.223312 192.597634 431.125969 196.694977 
C 427.028626 200.79232 424.72644 206.35029 424.72644 212.144808 
C 424.72644 217.939326 427.028626 223.497295 431.125969 227.594638 
C 435.223312 231.691981 440.781282 233.994167 446.575799 233.994167 
L 446.575799 233.994167 
z
" clip-path="url(#pfd303e66da)" style="fill: none; stroke: #ff0000; stroke-width: 2; stroke-linejoin: miter"/>
   </g>
   <g id="patch_34">
    <path d="M 420.744278 174.493025 
C 426.538796 174.493025 432.096766 172.190838 436.194109 168.093495 
C 440.291452 163.996152 442.593638 158.438183 442.593638 152.643665 
C 442.593638 146.849147 440.291452 141.291177 436.194109 137.193834 
C 432.096766 133.096492 426.538796 130.794305 420.744278 130.794305 
C 414.94976 130.794305 409.391791 133.096492 405.294448 137.193834 
C 401.197105 141.291177 398.894918 146.849147 398.894918 152.643665 
C 398.894918 158.438183 401.197105 163.996152 405.294448 168.093495 
C 409.391791 172.190838 414.94976 174.493025 420.744278 174.493025 
L 420.744278 174.493025 
z
" clip-path="url(#pfd303e66da)" style="fill: none; stroke: #ff0000; stroke-width: 2; stroke-linejoin: miter"/>
   </g>
   <g id="patch_35">
    <path d="M 376.596001 163.8826 
C 382.390519 163.8826 387.948488 161.580414 392.045831 157.483071 
C 396.143174 153.385728 398.44536 147.827758 398.44536 142.03324 
C 398.44536 136.238722 396.143174 130.680753 392.045831 126.58341 
C 387.948488 122.486067 382.390519 120.183881 376.596001 120.183881 
C 370.801483 120.183881 365.243513 122.486067 361.14617 126.58341 
C 357.048827 130.680753 354.746641 136.238722 354.746641 142.03324 
C 354.746641 147.827758 357.048827 153.385728 361.14617 157.483071 
C 365.243513 161.580414 370.801483 163.8826 376.596001 163.8826 
L 376.596001 163.8826 
z
" clip-path="url(#pfd303e66da)" style="fill: none; stroke: #ff0000; stroke-width: 2; stroke-linejoin: miter"/>
   </g>
   <g id="patch_36">
    <path d="M 302.451044 231.052441 
C 308.245562 231.052441 313.803531 228.750255 317.900874 224.652912 
C 321.998217 220.555569 324.300404 214.9976 324.300404 209.203082 
C 324.300404 203.408564 321.998217 197.850594 317.900874 193.753251 
C 313.803531 189.655908 308.245562 187.353722 302.451044 187.353722 
C 296.656526 187.353722 291.098556 189.655908 287.001213 193.753251 
C 282.90387 197.850594 280.601684 203.408564 280.601684 209.203082 
C 280.601684 214.9976 282.90387 220.555569 287.001213 224.652912 
C 291.098556 228.750255 296.656526 231.052441 302.451044 231.052441 
L 302.451044 231.052441 
z
" clip-path="url(#pfd303e66da)" style="fill: none; stroke: #ff0000; stroke-width: 2; stroke-linejoin: miter"/>
   </g>
   <g id="patch_37">
    <path d="M 302.941318 248.395496 
C 308.735836 248.395496 314.293805 246.09331 318.391148 241.995967 
C 322.488491 237.898624 324.790678 232.340655 324.790678 226.546137 
C 324.790678 220.751619 322.488491 215.193649 318.391148 211.096306 
C 314.293805 206.998963 308.735836 204.696777 302.941318 204.696777 
C 297.1468 204.696777 291.58883 206.998963 287.491488 211.096306 
C 283.394145 215.193649 281.091958 220.751619 281.091958 226.546137 
C 281.091958 232.340655 283.394145 237.898624 287.491488 241.995967 
C 291.58883 246.09331 297.1468 248.395496 302.941318 248.395496 
L 302.941318 248.395496 
z
" clip-path="url(#pfd303e66da)" style="fill: none; stroke: #ff0000; stroke-width: 2; stroke-linejoin: miter"/>
   </g>
   <g id="patch_38">
    <path d="M 367.193807 306.067923 
C 372.988325 306.067923 378.546294 303.765737 382.643637 299.668394 
C 386.74098 295.571051 389.043167 290.013081 389.043167 284.218563 
C 389.043167 278.424045 386.74098 272.866076 382.643637 268.768733 
C 378.546294 264.67139 372.988325 262.369204 367.193807 262.369204 
C 361.399289 262.369204 355.841319 264.67139 351.743976 268.768733 
C 347.646633 272.866076 345.344447 278.424045 345.344447 284.218563 
C 345.344447 290.013081 347.646633 295.571051 351.743976 299.668394 
C 355.841319 303.765737 361.399289 306.067923 367.193807 306.067923 
L 367.193807 306.067923 
z
" clip-path="url(#pfd303e66da)" style="fill: none; stroke: #ff0000; stroke-width: 2; stroke-linejoin: miter"/>
   </g>
   <g id="patch_39">
    <path d="M 421.099692 298.720555 
C 426.89421 298.720555 432.45218 296.418368 436.549523 292.321025 
C 440.646866 288.223682 442.949052 282.665713 442.949052 276.871195 
C 442.949052 271.076677 440.646866 265.518707 436.549523 261.421364 
C 432.45218 257.324021 426.89421 255.021835 421.099692 255.021835 
C 415.305174 255.021835 409.747205 257.324021 405.649862 261.421364 
C 401.552519 265.518707 399.250333 271.076677 399.250333 276.871195 
C 399.250333 282.665713 401.552519 288.223682 405.649862 292.321025 
C 409.747205 296.418368 415.305174 298.720555 421.099692 298.720555 
L 421.099692 298.720555 
z
" clip-path="url(#pfd303e66da)" style="fill: none; stroke: #ff0000; stroke-width: 2; stroke-linejoin: miter"/>
   </g>
   <g id="line2d_1">
    <path d="M 319.782896 228.193157 
L 316.123742 249.733935 
" clip-path="url(#pfd303e66da)" style="fill: none; stroke: #000000; stroke-width: 2; stroke-linecap: square"/>
   </g>
   <g id="line2d_2">
    <path d="M 319.782896 228.193157 
L 302.941318 226.546137 
" clip-path="url(#pfd303e66da)" style="fill: none; stroke: #000000; stroke-width: 2; stroke-linecap: square"/>
   </g>
   <g id="line2d_3">
    <path d="M 182.317283 90.72452 
L 181.606444 111.210319 
" clip-path="url(#pfd303e66da)" style="fill: none; stroke: #000000; stroke-width: 2; stroke-linecap: square"/>
   </g>
   <g id="line2d_4">
    <path d="M 302.451044 209.203082 
L 302.941318 226.546137 
" clip-path="url(#pfd303e66da)" style="fill: none; stroke: #000000; stroke-width: 2; stroke-linecap: square"/>
   </g>
   <g id="PathCollection_2">
    <defs>
     <path id="m70f595b8a4" d="M 0 3 
C 0.795609 3 1.55874 2.683901 2.12132 2.12132 
C 2.683901 1.55874 3 0.795609 3 0 
C 3 -0.795609 2.683901 -1.55874 2.12132 -2.12132 
C 1.55874 -2.683901 0.795609 -3 0 -3 
C -0.795609 -3 -1.55874 -2.683901 -2.12132 -2.12132 
C -2.683901 -1.55874 -3 -0.795609 -3 0 
C -3 0.795609 -2.683901 1.55874 -2.12132 2.12132 
C -1.55874 2.683901 -0.795609 3 0 3 
z
" style="stroke: #0000ff"/>
    </defs>
    <g clip-path="url(#pfd303e66da)">
     <use xlink:href="#m70f595b8a4" x="319.782896" y="228.193157" style="fill: #0000ff; stroke: #0000ff"/>
     <use xlink:href="#m70f595b8a4" x="305.488556" y="161.56397" style="fill: #0000ff; stroke: #0000ff"/>
     <use xlink:href="#m70f595b8a4" x="228.567562" y="95.451179" style="fill: #0000ff; stroke: #0000ff"/>
     <use xlink:href="#m70f595b8a4" x="182.317283" y="90.72452" style="fill: #0000ff; stroke: #0000ff"/>
     <use xlink:href="#m70f595b8a4" x="181.606444" y="111.210319" style="fill: #0000ff; stroke: #0000ff"/>
     <use xlink:href="#m70f595b8a4" x="109.605436" y="159.545589" style="fill: #0000ff; stroke: #0000ff"/>
     <use xlink:href="#m70f595b8a4" x="79.224484" y="203.925289" style="fill: #0000ff; stroke: #0000ff"/>
     <use xlink:href="#m70f595b8a4" x="100.811629" y="277.181316" style="fill: #0000ff; stroke: #0000ff"/>
     <use xlink:href="#m70f595b8a4" x="116.163905" y="301.32337" style="fill: #0000ff; stroke: #0000ff"/>
     <use xlink:href="#m70f595b8a4" x="208.821283" y="330.57548" style="fill: #0000ff; stroke: #0000ff"/>
     <use xlink:href="#m70f595b8a4" x="262.24795" y="321.876579" style="fill: #0000ff; stroke: #0000ff"/>
     <use xlink:href="#m70f595b8a4" x="316.123742" y="249.733935" style="fill: #0000ff; stroke: #0000ff"/>
     <use xlink:href="#m70f595b8a4" x="446.575799" y="212.144808" style="fill: #0000ff; stroke: #0000ff"/>
     <use xlink:href="#m70f595b8a4" x="420.744278" y="152.643665" style="fill: #0000ff; stroke: #0000ff"/>
     <use xlink:href="#m70f595b8a4" x="376.596001" y="142.03324" style="fill: #0000ff; stroke: #0000ff"/>
     <use xlink:href="#m70f595b8a4" x="302.451044" y="209.203082" style="fill: #0000ff; stroke: #0000ff"/>
     <use xlink:href="#m70f595b8a4" x="302.941318" y="226.546137" style="fill: #0000ff; stroke: #0000ff"/>
     <use xlink:href="#m70f595b8a4" x="367.193807" y="284.218563" style="fill: #0000ff; stroke: #0000ff"/>
     <use xlink:href="#m70f595b8a4" x="421.099692" y="276.871195" style="fill: #0000ff; stroke: #0000ff"/>
    </g>
   </g>
  </g>
  <g id="axes_2">
   <g id="patch_40">
    <path d="M 554.199717 414.1 
L 1065.6 414.1 
L 1065.6 7.2 
L 554.199717 7.2 
z
" style="fill: #ffffff"/>
   </g>
   <g id="matplotlib.axis_1">
    <g id="xtick_1">
     <g id="line2d_5">
      <defs>
       <path id="m88f7c69798" d="M 0 0 
L 0 3.5 
" style="stroke: #000000; stroke-width: 0.8"/>
      </defs>
      <g>
       <use xlink:href="#m88f7c69798" x="567.657619" y="414.1" style="stroke: #000000; stroke-width: 0.8"/>
      </g>
     </g>
    </g>
    <g id="xtick_2">
     <g id="line2d_6">
      <g>
       <use xlink:href="#m88f7c69798" x="594.573423" y="414.1" style="stroke: #000000; stroke-width: 0.8"/>
      </g>
     </g>
    </g>
    <g id="xtick_3">
     <g id="line2d_7">
      <g>
       <use xlink:href="#m88f7c69798" x="621.489228" y="414.1" style="stroke: #000000; stroke-width: 0.8"/>
      </g>
     </g>
    </g>
    <g id="xtick_4">
     <g id="line2d_8">
      <g>
       <use xlink:href="#m88f7c69798" x="648.405032" y="414.1" style="stroke: #000000; stroke-width: 0.8"/>
      </g>
     </g>
    </g>
    <g id="xtick_5">
     <g id="line2d_9">
      <g>
       <use xlink:href="#m88f7c69798" x="675.320837" y="414.1" style="stroke: #000000; stroke-width: 0.8"/>
      </g>
     </g>
    </g>
    <g id="xtick_6">
     <g id="line2d_10">
      <g>
       <use xlink:href="#m88f7c69798" x="702.236641" y="414.1" style="stroke: #000000; stroke-width: 0.8"/>
      </g>
     </g>
    </g>
    <g id="xtick_7">
     <g id="line2d_11">
      <g>
       <use xlink:href="#m88f7c69798" x="729.152445" y="414.1" style="stroke: #000000; stroke-width: 0.8"/>
      </g>
     </g>
    </g>
    <g id="xtick_8">
     <g id="line2d_12">
      <g>
       <use xlink:href="#m88f7c69798" x="756.06825" y="414.1" style="stroke: #000000; stroke-width: 0.8"/>
      </g>
     </g>
    </g>
    <g id="xtick_9">
     <g id="line2d_13">
      <g>
       <use xlink:href="#m88f7c69798" x="782.984054" y="414.1" style="stroke: #000000; stroke-width: 0.8"/>
      </g>
     </g>
    </g>
    <g id="xtick_10">
     <g id="line2d_14">
      <g>
       <use xlink:href="#m88f7c69798" x="809.899858" y="414.1" style="stroke: #000000; stroke-width: 0.8"/>
      </g>
     </g>
    </g>
    <g id="xtick_11">
     <g id="line2d_15">
      <g>
       <use xlink:href="#m88f7c69798" x="836.815663" y="414.1" style="stroke: #000000; stroke-width: 0.8"/>
      </g>
     </g>
    </g>
    <g id="xtick_12">
     <g id="line2d_16">
      <g>
       <use xlink:href="#m88f7c69798" x="863.731467" y="414.1" style="stroke: #000000; stroke-width: 0.8"/>
      </g>
     </g>
    </g>
    <g id="xtick_13">
     <g id="line2d_17">
      <g>
       <use xlink:href="#m88f7c69798" x="890.647272" y="414.1" style="stroke: #000000; stroke-width: 0.8"/>
      </g>
     </g>
    </g>
    <g id="xtick_14">
     <g id="line2d_18">
      <g>
       <use xlink:href="#m88f7c69798" x="917.563076" y="414.1" style="stroke: #000000; stroke-width: 0.8"/>
      </g>
     </g>
    </g>
    <g id="xtick_15">
     <g id="line2d_19">
      <g>
       <use xlink:href="#m88f7c69798" x="944.47888" y="414.1" style="stroke: #000000; stroke-width: 0.8"/>
      </g>
     </g>
    </g>
    <g id="xtick_16">
     <g id="line2d_20">
      <g>
       <use xlink:href="#m88f7c69798" x="971.394685" y="414.1" style="stroke: #000000; stroke-width: 0.8"/>
      </g>
     </g>
    </g>
    <g id="xtick_17">
     <g id="line2d_21">
      <g>
       <use xlink:href="#m88f7c69798" x="998.310489" y="414.1" style="stroke: #000000; stroke-width: 0.8"/>
      </g>
     </g>
    </g>
    <g id="xtick_18">
     <g id="line2d_22">
      <g>
       <use xlink:href="#m88f7c69798" x="1025.226293" y="414.1" style="stroke: #000000; stroke-width: 0.8"/>
      </g>
     </g>
    </g>
    <g id="xtick_19">
     <g id="line2d_23">
      <g>
       <use xlink:href="#m88f7c69798" x="1052.142098" y="414.1" style="stroke: #000000; stroke-width: 0.8"/>
      </g>
     </g>
    </g>
   </g>
   <g id="matplotlib.axis_2">
    <g id="ytick_1">
     <g id="line2d_24">
      <defs>
       <path id="m4e2261dade" d="M 0 0 
L -3.5 0 
" style="stroke: #000000; stroke-width: 0.8"/>
      </defs>
      <g>
       <use xlink:href="#m4e2261dade" x="554.199717" y="336.906263" style="stroke: #000000; stroke-width: 0.8"/>
      </g>
     </g>
     <g id="text_1">
      <!-- $r_{4}$ -->
      <g transform="translate(529.399717 344.5047) scale(0.2 -0.2)">
       <defs>
        <path id="DejaVuSans-Oblique-72" d="M 2853 2969 
Q 2766 3016 2653 3041 
Q 2541 3066 2413 3066 
Q 1953 3066 1609 2717 
Q 1266 2369 1153 1784 
L 800 0 
L 225 0 
L 909 3500 
L 1484 3500 
L 1375 2956 
Q 1603 3259 1920 3421 
Q 2238 3584 2597 3584 
Q 2691 3584 2781 3573 
Q 2872 3563 2963 3538 
L 2853 2969 
z
" transform="scale(0.015625)"/>
        <path id="DejaVuSans-34" d="M 2419 4116 
L 825 1625 
L 2419 1625 
L 2419 4116 
z
M 2253 4666 
L 3047 4666 
L 3047 1625 
L 3713 1625 
L 3713 1100 
L 3047 1100 
L 3047 0 
L 2419 0 
L 2419 1100 
L 313 1100 
L 313 1709 
L 2253 4666 
z
" transform="scale(0.015625)"/>
       </defs>
       <use xlink:href="#DejaVuSans-Oblique-72"/>
       <use xlink:href="#DejaVuSans-34" transform="translate(41.113281 -16.40625) scale(0.7)"/>
      </g>
     </g>
    </g>
   </g>
   <g id="line2d_25">
    <path d="M 594.573423 414.1 
L 594.573423 341.680163 
L 621.489228 341.680163 
L 621.489228 414.1 
" clip-path="url(#p554f1b26c5)" style="fill: none; stroke: #ff0000; stroke-width: 5; stroke-linecap: square"/>
   </g>
   <g id="line2d_26">
    <path d="M 890.647272 414.1 
L 890.647272 354.314891 
L 917.563076 354.314891 
L 917.563076 414.1 
" clip-path="url(#p554f1b26c5)" style="fill: none; stroke: #ff0000; stroke-width: 5; stroke-linecap: square"/>
   </g>
   <g id="line2d_27">
    <path d="M 863.731467 414.1 
L 863.731467 352.802549 
L 904.105174 352.802549 
L 904.105174 354.314891 
" clip-path="url(#p554f1b26c5)" style="fill: none; stroke: #ff0000; stroke-width: 5; stroke-linecap: square"/>
   </g>
   <g id="line2d_28">
    <path d="M 836.815663 414.1 
L 836.815663 336.906263 
L 883.91832 336.906263 
L 883.91832 352.802549 
" clip-path="url(#p554f1b26c5)" style="fill: none; stroke: #ff0000; stroke-width: 5; stroke-linecap: square"/>
   </g>
   <g id="line2d_29">
    <path d="M 567.657619 414.1 
L 567.657619 336.906263 
" clip-path="url(#p554f1b26c5)" style="fill: none; stroke: #ff0000; stroke-width: 5; stroke-linecap: square"/>
   </g>
   <g id="line2d_30">
    <path d="M 648.405032 414.1 
L 648.405032 336.906263 
" clip-path="url(#p554f1b26c5)" style="fill: none; stroke: #ff0000; stroke-width: 5; stroke-linecap: square"/>
   </g>
   <g id="line2d_31">
    <path d="M 675.320837 414.1 
L 675.320837 336.906263 
" clip-path="url(#p554f1b26c5)" style="fill: none; stroke: #ff0000; stroke-width: 5; stroke-linecap: square"/>
   </g>
   <g id="line2d_32">
    <path d="M 702.236641 414.1 
L 702.236641 336.906263 
" clip-path="url(#p554f1b26c5)" style="fill: none; stroke: #ff0000; stroke-width: 5; stroke-linecap: square"/>
   </g>
   <g id="line2d_33">
    <path d="M 729.152445 414.1 
L 729.152445 336.906263 
" clip-path="url(#p554f1b26c5)" style="fill: none; stroke: #ff0000; stroke-width: 5; stroke-linecap: square"/>
   </g>
   <g id="line2d_34">
    <path d="M 756.06825 414.1 
L 756.06825 336.906263 
" clip-path="url(#p554f1b26c5)" style="fill: none; stroke: #ff0000; stroke-width: 5; stroke-linecap: square"/>
   </g>
   <g id="line2d_35">
    <path d="M 782.984054 414.1 
L 782.984054 336.906263 
" clip-path="url(#p554f1b26c5)" style="fill: none; stroke: #ff0000; stroke-width: 5; stroke-linecap: square"/>
   </g>
   <g id="line2d_36">
    <path d="M 809.899858 414.1 
L 809.899858 336.906263 
" clip-path="url(#p554f1b26c5)" style="fill: none; stroke: #ff0000; stroke-width: 5; stroke-linecap: square"/>
   </g>
   <g id="line2d_37">
    <path d="M 944.47888 414.1 
L 944.47888 336.906263 
" clip-path="url(#p554f1b26c5)" style="fill: none; stroke: #ff0000; stroke-width: 5; stroke-linecap: square"/>
   </g>
   <g id="line2d_38">
    <path d="M 971.394685 414.1 
L 971.394685 336.906263 
" clip-path="url(#p554f1b26c5)" style="fill: none; stroke: #ff0000; stroke-width: 5; stroke-linecap: square"/>
   </g>
   <g id="line2d_39">
    <path d="M 1025.226293 414.1 
L 1025.226293 336.906263 
" clip-path="url(#p554f1b26c5)" style="fill: none; stroke: #ff0000; stroke-width: 5; stroke-linecap: square"/>
   </g>
   <g id="line2d_40">
    <path d="M 1052.142098 414.1 
L 1052.142098 336.906263 
" clip-path="url(#p554f1b26c5)" style="fill: none; stroke: #ff0000; stroke-width: 5; stroke-linecap: square"/>
   </g>
   <g id="line2d_41">
    <path d="M 998.310489 414.1 
L 998.310489 336.906263 
" clip-path="url(#p554f1b26c5)" style="fill: none; stroke: #ff0000; stroke-width: 5; stroke-linecap: square"/>
   </g>
   <g id="line2d_42">
    <path d="M 608.031326 341.680163 
L 608.031326 336.906263 
" clip-path="url(#p554f1b26c5)" style="fill: none; stroke: #ff0000; stroke-width: 5; stroke-linecap: square"/>
   </g>
   <g id="line2d_43">
    <path d="M 860.366992 336.906263 
L 860.366992 336.906263 
" clip-path="url(#p554f1b26c5)" style="fill: none; stroke: #ff0000; stroke-width: 5; stroke-linecap: square"/>
   </g>
   <g id="patch_41">
    <path d="M 554.199717 414.1 
L 554.199717 7.2 
" style="fill: none; stroke: #000000; stroke-width: 0.8; stroke-linejoin: miter; stroke-linecap: square"/>
   </g>
   <g id="patch_42">
    <path d="M 1065.6 414.1 
L 1065.6 7.2 
" style="fill: none; stroke: #000000; stroke-width: 0.8; stroke-linejoin: miter; stroke-linecap: square"/>
   </g>
   <g id="patch_43">
    <path d="M 554.199717 414.1 
L 1065.6 414.1 
" style="fill: none; stroke: #000000; stroke-width: 0.8; stroke-linejoin: miter; stroke-linecap: square"/>
   </g>
   <g id="patch_44">
    <path d="M 554.199717 7.2 
L 1065.6 7.2 
" style="fill: none; stroke: #000000; stroke-width: 0.8; stroke-linejoin: miter; stroke-linecap: square"/>
   </g>
   <g id="PathCollection_3">
    <defs>
     <path id="mb85a0dc840" d="M 0 6.123724 
C 1.624031 6.123724 3.181764 5.47849 4.330127 4.330127 
C 5.47849 3.181764 6.123724 1.624031 6.123724 0 
C 6.123724 -1.624031 5.47849 -3.181764 4.330127 -4.330127 
C 3.181764 -5.47849 1.624031 -6.123724 0 -6.123724 
C -1.624031 -6.123724 -3.181764 -5.47849 -4.330127 -4.330127 
C -5.47849 -3.181764 -6.123724 -1.624031 -6.123724 0 
C -6.123724 1.624031 -5.47849 3.181764 -4.330127 4.330127 
C -3.181764 5.47849 -1.624031 6.123724 0 6.123724 
z
" style="stroke: #0000ff"/>
    </defs>
    <g clip-path="url(#p554f1b26c5)">
     <use xlink:href="#mb85a0dc840" x="567.657619" y="414.1" style="fill: #0000ff; stroke: #0000ff"/>
     <use xlink:href="#mb85a0dc840" x="594.573423" y="414.1" style="fill: #0000ff; stroke: #0000ff"/>
     <use xlink:href="#mb85a0dc840" x="621.489228" y="414.1" style="fill: #0000ff; stroke: #0000ff"/>
     <use xlink:href="#mb85a0dc840" x="648.405032" y="414.1" style="fill: #0000ff; stroke: #0000ff"/>
     <use xlink:href="#mb85a0dc840" x="675.320837" y="414.1" style="fill: #0000ff; stroke: #0000ff"/>
     <use xlink:href="#mb85a0dc840" x="702.236641" y="414.1" style="fill: #0000ff; stroke: #0000ff"/>
     <use xlink:href="#mb85a0dc840" x="729.152445" y="414.1" style="fill: #0000ff; stroke: #0000ff"/>
     <use xlink:href="#mb85a0dc840" x="756.06825" y="414.1" style="fill: #0000ff; stroke: #0000ff"/>
     <use xlink:href="#mb85a0dc840" x="782.984054" y="414.1" style="fill: #0000ff; stroke: #0000ff"/>
     <use xlink:href="#mb85a0dc840" x="809.899858" y="414.1" style="fill: #0000ff; stroke: #0000ff"/>
     <use xlink:href="#mb85a0dc840" x="836.815663" y="414.1" style="fill: #0000ff; stroke: #0000ff"/>
     <use xlink:href="#mb85a0dc840" x="863.731467" y="414.1" style="fill: #0000ff; stroke: #0000ff"/>
     <use xlink:href="#mb85a0dc840" x="890.647272" y="414.1" style="fill: #0000ff; stroke: #0000ff"/>
     <use xlink:href="#mb85a0dc840" x="917.563076" y="414.1" style="fill: #0000ff; stroke: #0000ff"/>
     <use xlink:href="#mb85a0dc840" x="944.47888" y="414.1" style="fill: #0000ff; stroke: #0000ff"/>
     <use xlink:href="#mb85a0dc840" x="971.394685" y="414.1" style="fill: #0000ff; stroke: #0000ff"/>
     <use xlink:href="#mb85a0dc840" x="998.310489" y="414.1" style="fill: #0000ff; stroke: #0000ff"/>
     <use xlink:href="#mb85a0dc840" x="1025.226293" y="414.1" style="fill: #0000ff; stroke: #0000ff"/>
     <use xlink:href="#mb85a0dc840" x="1052.142098" y="414.1" style="fill: #0000ff; stroke: #0000ff"/>
    </g>
   </g>
  </g>
 </g>
 <defs>
  <clipPath id="pfd303e66da">
   <rect x="7.2" y="18.700037" width="511.400283" height="383.899927"/>
  </clipPath>
  <clipPath id="p554f1b26c5">
   <rect x="554.199717" y="7.2" width="511.400283" height="406.9"/>
  </clipPath>
 </defs>
</svg>
