<?xml version="1.0" encoding="utf-8" standalone="no"?>
<!DOCTYPE svg PUBLIC "-//W3C//DTD SVG 1.1//EN"
  "http://www.w3.org/Graphics/SVG/1.1/DTD/svg11.dtd">
<svg xmlns:xlink="http://www.w3.org/1999/xlink" width="1072.8pt" height="424.8pt" viewBox="0 0 1072.8 424.8" xmlns="http://www.w3.org/2000/svg" version="1.1">
 <metadata>
  <rdf:RDF xmlns:dc="http://purl.org/dc/elements/1.1/" xmlns:cc="http://creativecommons.org/ns#" xmlns:rdf="http://www.w3.org/1999/02/22-rdf-syntax-ns#">
   <cc:Work>
    <dc:type rdf:resource="http://purl.org/dc/dcmitype/StillImage"/>
    <dc:date>2023-10-24T09:47:29.394329</dc:date>
    <dc:format>image/svg+xml</dc:format>
    <dc:creator>
     <cc:Agent>
      <dc:title>Matplotlib v3.7.2, https://matplotlib.org/</dc:title>
     </cc:Agent>
    </dc:creator>
   </cc:Work>
  </rdf:RDF>
 </metadata>
 <defs>
  <style type="text/css">*{stroke-linejoin: round; stroke-linecap: butt}</style>
 </defs>
 <g id="figure_1">
  <g id="patch_1">
   <path d="M 0 424.8 
L 1072.8 424.8 
L 1072.8 -0 
L 0 -0 
z
" style="fill: #ffffff"/>
  </g>
  <g id="axes_1">
   <g id="PathCollection_1">
    <defs>
     <path id="m0419de9e28" d="M 0 3 
C 0.795609 3 1.55874 2.683901 2.12132 2.12132 
C 2.683901 1.55874 3 0.795609 3 0 
C 3 -0.795609 2.683901 -1.55874 2.12132 -2.12132 
C 1.55874 -2.683901 0.795609 -3 0 -3 
C -0.795609 -3 -1.55874 -2.683901 -2.12132 -2.12132 
C -2.683901 -1.55874 -3 -0.795609 -3 0 
C -3 0.795609 -2.683901 1.55874 -2.12132 2.12132 
C -1.55874 2.683901 -0.795609 3 0 3 
z
" style="stroke: #1f77b4; stroke-opacity: 0"/>
    </defs>
    <g clip-path="url(#pfd7c45de78)">
     <use xlink:href="#m0419de9e28" x="7.2" y="401.056685" style="fill: #1f77b4; fill-opacity: 0; stroke: #1f77b4; stroke-opacity: 0"/>
     <use xlink:href="#m0419de9e28" x="514.488624" y="20.243315" style="fill: #1f77b4; fill-opacity: 0; stroke: #1f77b4; stroke-opacity: 0"/>
    </g>
   </g>
   <g id="patch_2">
    <path d="M 317.269729 289.179234 
C 333.480831 289.179234 349.030152 282.738494 360.493132 271.275514 
C 371.956113 259.812533 378.396852 244.263213 378.396852 228.05211 
C 378.396852 211.841007 371.956113 196.291687 360.493132 184.828706 
C 349.030152 173.365726 333.480831 166.924986 317.269729 166.924986 
C 301.058626 166.924986 285.509306 173.365726 274.046325 184.828706 
C 262.583344 196.291687 256.142605 211.841007 256.142605 228.05211 
C 256.142605 244.263213 262.583344 259.812533 274.046325 271.275514 
C 285.509306 282.738494 301.058626 289.179234 317.269729 289.179234 
z
" clip-path="url(#pfd7c45de78)" style="fill: #ff0000; opacity: 0.2"/>
   </g>
   <g id="patch_3">
    <path d="M 303.090315 223.085746 
C 319.301418 223.085746 334.850738 216.645006 346.313719 205.182025 
C 357.776699 193.719045 364.217439 178.169724 364.217439 161.958622 
C 364.217439 145.747519 357.776699 130.198199 346.313719 118.735218 
C 334.850738 107.272237 319.301418 100.831498 303.090315 100.831498 
C 286.879212 100.831498 271.329892 107.272237 259.866911 118.735218 
C 248.403931 130.198199 241.963191 145.747519 241.963191 161.958622 
C 241.963191 178.169724 248.403931 193.719045 259.866911 205.182025 
C 271.329892 216.645006 286.879212 223.085746 303.090315 223.085746 
z
" clip-path="url(#pfd7c45de78)" style="fill: #ff0000; opacity: 0.2"/>
   </g>
   <g id="patch_4">
    <path d="M 226.787766 157.504502 
C 242.998869 157.504502 258.548189 151.063763 270.01117 139.600782 
C 281.47415 128.137801 287.91489 112.588481 287.91489 96.377378 
C 287.91489 80.166276 281.47415 64.616955 270.01117 53.153975 
C 258.548189 41.690994 242.998869 35.250255 226.787766 35.250255 
C 210.576663 35.250255 195.027343 41.690994 183.564362 53.153975 
C 172.101382 64.616955 165.660642 80.166276 165.660642 96.377378 
C 165.660642 112.588481 172.101382 128.137801 183.564362 139.600782 
C 195.027343 151.063763 210.576663 157.504502 226.787766 157.504502 
z
" clip-path="url(#pfd7c45de78)" style="fill: #ff0000; opacity: 0.2"/>
   </g>
   <g id="patch_5">
    <path d="M 180.90934 152.815845 
C 197.120443 152.815845 212.669763 146.375106 224.132744 134.912125 
C 235.595724 123.449145 242.036464 107.899824 242.036464 91.688722 
C 242.036464 75.477619 235.595724 59.928299 224.132744 48.465318 
C 212.669763 37.002337 197.120443 30.561598 180.90934 30.561598 
C 164.698237 30.561598 149.148917 37.002337 137.685936 48.465318 
C 126.222955 59.928299 119.782216 75.477619 119.782216 91.688722 
C 119.782216 107.899824 126.222955 123.449145 137.685936 134.912125 
C 149.148917 146.375106 164.698237 152.815845 180.90934 152.815845 
z
" clip-path="url(#pfd7c45de78)" style="fill: #ff0000; opacity: 0.2"/>
   </g>
   <g id="patch_6">
    <path d="M 180.204216 173.136938 
C 196.415319 173.136938 211.964639 166.696199 223.42762 155.233218 
C 234.890601 143.770237 241.33134 128.220917 241.33134 112.009814 
C 241.33134 95.798712 234.890601 80.249391 223.42762 68.786411 
C 211.964639 57.32343 196.415319 50.882691 180.204216 50.882691 
C 163.993113 50.882691 148.443793 57.32343 136.980812 68.786411 
C 125.517832 80.249391 119.077092 95.798712 119.077092 112.009814 
C 119.077092 128.220917 125.517832 143.770237 136.980812 155.233218 
C 148.443793 166.696199 163.993113 173.136938 180.204216 173.136938 
z
" clip-path="url(#pfd7c45de78)" style="fill: #ff0000; opacity: 0.2"/>
   </g>
   <g id="patch_7">
    <path d="M 108.782096 221.083592 
C 124.993199 221.083592 140.542519 214.642853 152.0055 203.179872 
C 163.46848 191.716891 169.90922 176.167571 169.90922 159.956468 
C 169.90922 143.745365 163.46848 128.196045 152.0055 116.733064 
C 140.542519 105.270084 124.993199 98.829344 108.782096 98.829344 
C 92.570993 98.829344 77.021673 105.270084 65.558692 116.733064 
C 54.095712 128.196045 47.654972 143.745365 47.654972 159.956468 
C 47.654972 176.167571 54.095712 191.716891 65.558692 203.179872 
C 77.021673 214.642853 92.570993 221.083592 108.782096 221.083592 
z
" clip-path="url(#pfd7c45de78)" style="fill: #ff0000; opacity: 0.2"/>
   </g>
   <g id="patch_8">
    <path d="M 78.645407 265.10648 
C 94.856509 265.10648 110.40583 258.66574 121.86881 247.20276 
C 133.331791 235.739779 139.77253 220.190459 139.77253 203.979356 
C 139.77253 187.768253 133.331791 172.218933 121.86881 160.755952 
C 110.40583 149.292971 94.856509 142.852232 78.645407 142.852232 
C 62.434304 142.852232 46.884984 149.292971 35.422003 160.755952 
C 23.959022 172.218933 17.518283 187.768253 17.518283 203.979356 
C 17.518283 220.190459 23.959022 235.739779 35.422003 247.20276 
C 46.884984 258.66574 62.434304 265.10648 78.645407 265.10648 
z
" clip-path="url(#pfd7c45de78)" style="fill: #ff0000; opacity: 0.2"/>
   </g>
   <g id="patch_9">
    <path d="M 100.058991 337.773528 
C 116.270094 337.773528 131.819414 331.332788 143.282395 319.869808 
C 154.745375 308.406827 161.186115 292.857507 161.186115 276.646404 
C 161.186115 260.435301 154.745375 244.885981 143.282395 233.423 
C 131.819414 221.96002 116.270094 215.51928 100.058991 215.51928 
C 83.847888 215.51928 68.298568 221.96002 56.835587 233.423 
C 45.372607 244.885981 38.931867 260.435301 38.931867 276.646404 
C 38.931867 292.857507 45.372607 308.406827 56.835587 319.869808 
C 68.298568 331.332788 83.847888 337.773528 100.058991 337.773528 
z
" clip-path="url(#pfd7c45de78)" style="fill: #ff0000; opacity: 0.2"/>
   </g>
   <g id="patch_10">
    <path d="M 115.287835 361.721479 
C 131.498938 361.721479 147.048258 355.28074 158.511239 343.817759 
C 169.974219 332.354779 176.414959 316.805458 176.414959 300.594356 
C 176.414959 284.383253 169.974219 268.833933 158.511239 257.370952 
C 147.048258 245.907971 131.498938 239.467232 115.287835 239.467232 
C 99.076732 239.467232 83.527412 245.907971 72.064431 257.370952 
C 60.601451 268.833933 54.160711 284.383253 54.160711 300.594356 
C 54.160711 316.805458 60.601451 332.354779 72.064431 343.817759 
C 83.527412 355.28074 99.076732 361.721479 115.287835 361.721479 
z
" clip-path="url(#pfd7c45de78)" style="fill: #ff0000; opacity: 0.2"/>
   </g>
   <g id="patch_11">
    <path d="M 207.200247 390.738402 
C 223.41135 390.738402 238.96067 384.297663 250.423651 372.834682 
C 261.886632 361.371701 268.327371 345.822381 268.327371 329.611278 
C 268.327371 313.400176 261.886632 297.850855 250.423651 286.387875 
C 238.96067 274.924894 223.41135 268.484155 207.200247 268.484155 
C 190.989145 268.484155 175.439824 274.924894 163.976844 286.387875 
C 152.513863 297.850855 146.073123 313.400176 146.073123 329.611278 
C 146.073123 345.822381 152.513863 361.371701 163.976844 372.834682 
C 175.439824 384.297663 190.989145 390.738402 207.200247 390.738402 
z
" clip-path="url(#pfd7c45de78)" style="fill: #ff0000; opacity: 0.2"/>
   </g>
   <g id="patch_12">
    <path d="M 260.197364 382.109441 
C 276.408466 382.109441 291.957787 375.668702 303.420767 364.205721 
C 314.883748 352.742741 321.324487 337.19342 321.324487 320.982317 
C 321.324487 304.771215 314.883748 289.221894 303.420767 277.758914 
C 291.957787 266.295933 276.408466 259.855194 260.197364 259.855194 
C 243.986261 259.855194 228.436941 266.295933 216.97396 277.758914 
C 205.510979 289.221894 199.07024 304.771215 199.07024 320.982317 
C 199.07024 337.19342 205.510979 352.742741 216.97396 364.205721 
C 228.436941 375.668702 243.986261 382.109441 260.197364 382.109441 
z
" clip-path="url(#pfd7c45de78)" style="fill: #ff0000; opacity: 0.2"/>
   </g>
   <g id="patch_13">
    <path d="M 313.639995 310.546824 
C 329.851097 310.546824 345.400418 304.106085 356.863398 292.643104 
C 368.326379 281.180123 374.767119 265.630803 374.767119 249.4197 
C 374.767119 233.208597 368.326379 217.659277 356.863398 206.196296 
C 345.400418 194.733316 329.851097 188.292576 313.639995 188.292576 
C 297.428892 188.292576 281.879572 194.733316 270.416591 206.196296 
C 258.95361 217.659277 252.512871 233.208597 252.512871 249.4197 
C 252.512871 265.630803 258.95361 281.180123 270.416591 292.643104 
C 281.879572 304.106085 297.428892 310.546824 313.639995 310.546824 
z
" clip-path="url(#pfd7c45de78)" style="fill: #ff0000; opacity: 0.2"/>
   </g>
   <g id="patch_14">
    <path d="M 443.043217 273.259913 
C 459.25432 273.259913 474.80364 266.819174 486.266621 255.356193 
C 497.729601 243.893212 504.170341 228.343892 504.170341 212.132789 
C 504.170341 195.921687 497.729601 180.372366 486.266621 168.909386 
C 474.80364 157.446405 459.25432 151.005666 443.043217 151.005666 
C 426.832114 151.005666 411.282794 157.446405 399.819813 168.909386 
C 388.356832 180.372366 381.916093 195.921687 381.916093 212.132789 
C 381.916093 228.343892 388.356832 243.893212 399.819813 255.356193 
C 411.282794 266.819174 426.832114 273.259913 443.043217 273.259913 
z
" clip-path="url(#pfd7c45de78)" style="fill: #ff0000; opacity: 0.2"/>
   </g>
   <g id="patch_15">
    <path d="M 417.419381 214.23716 
C 433.630484 214.23716 449.179804 207.79642 460.642785 196.33344 
C 472.105765 184.870459 478.546505 169.321139 478.546505 153.110036 
C 478.546505 136.898933 472.105765 121.349613 460.642785 109.886632 
C 449.179804 98.423652 433.630484 91.982912 417.419381 91.982912 
C 401.208278 91.982912 385.658958 98.423652 374.195977 109.886632 
C 362.732997 121.349613 356.292257 136.898933 356.292257 153.110036 
C 356.292257 169.321139 362.732997 184.870459 374.195977 196.33344 
C 385.658958 207.79642 401.208278 214.23716 417.419381 214.23716 
z
" clip-path="url(#pfd7c45de78)" style="fill: #ff0000; opacity: 0.2"/>
   </g>
   <g id="patch_16">
    <path d="M 373.626056 203.712043 
C 389.837159 203.712043 405.386479 197.271304 416.84946 185.808323 
C 428.31244 174.345342 434.75318 158.796022 434.75318 142.584919 
C 434.75318 126.373817 428.31244 110.824496 416.84946 99.361516 
C 405.386479 87.898535 389.837159 81.457796 373.626056 81.457796 
C 357.414953 81.457796 341.865633 87.898535 330.402652 99.361516 
C 318.939671 110.824496 312.498932 126.373817 312.498932 142.584919 
C 312.498932 158.796022 318.939671 174.345342 330.402652 185.808323 
C 341.865633 197.271304 357.414953 203.712043 373.626056 203.712043 
z
" clip-path="url(#pfd7c45de78)" style="fill: #ff0000; opacity: 0.2"/>
   </g>
   <g id="patch_17">
    <path d="M 300.077225 270.341839 
C 316.288327 270.341839 331.837648 263.901099 343.300628 252.438119 
C 354.763609 240.975138 361.204348 225.425818 361.204348 209.214715 
C 361.204348 193.003612 354.763609 177.454292 343.300628 165.991311 
C 331.837648 154.528331 316.288327 148.087591 300.077225 148.087591 
C 283.866122 148.087591 268.316802 154.528331 256.853821 165.991311 
C 245.39084 177.454292 238.950101 193.003612 238.950101 209.214715 
C 238.950101 225.425818 245.39084 240.975138 256.853821 252.438119 
C 268.316802 263.901099 283.866122 270.341839 300.077225 270.341839 
z
" clip-path="url(#pfd7c45de78)" style="fill: #ff0000; opacity: 0.2"/>
   </g>
   <g id="patch_18">
    <path d="M 300.563557 287.545456 
C 316.77466 287.545456 332.32398 281.104716 343.786961 269.641735 
C 355.249941 258.178755 361.690681 242.629434 361.690681 226.418332 
C 361.690681 210.207229 355.249941 194.657909 343.786961 183.194928 
C 332.32398 171.731947 316.77466 165.291208 300.563557 165.291208 
C 284.352454 165.291208 268.803134 171.731947 257.340153 183.194928 
C 245.877173 194.657909 239.436433 210.207229 239.436433 226.418332 
C 239.436433 242.629434 245.877173 258.178755 257.340153 269.641735 
C 268.803134 281.104716 284.352454 287.545456 300.563557 287.545456 
z
" clip-path="url(#pfd7c45de78)" style="fill: #ff0000; opacity: 0.2"/>
   </g>
   <g id="patch_19">
    <path d="M 364.299456 344.754196 
C 380.510558 344.754196 396.059879 338.313456 407.522859 326.850476 
C 418.98584 315.387495 425.426579 299.838175 425.426579 283.627072 
C 425.426579 267.415969 418.98584 251.866649 407.522859 240.403668 
C 396.059879 228.940688 380.510558 222.499948 364.299456 222.499948 
C 348.088353 222.499948 332.539033 228.940688 321.076052 240.403668 
C 309.613071 251.866649 303.172332 267.415969 303.172332 283.627072 
C 303.172332 299.838175 309.613071 315.387495 321.076052 326.850476 
C 332.539033 338.313456 348.088353 344.754196 364.299456 344.754196 
z
" clip-path="url(#pfd7c45de78)" style="fill: #ff0000; opacity: 0.2"/>
   </g>
   <g id="patch_20">
    <path d="M 417.771938 337.4659 
C 433.98304 337.4659 449.532361 331.025161 460.995341 319.56218 
C 472.458322 308.099199 478.899061 292.549879 478.899061 276.338776 
C 478.899061 260.127674 472.458322 244.578353 460.995341 233.115373 
C 449.532361 221.652392 433.98304 215.211652 417.771938 215.211652 
C 401.560835 215.211652 386.011515 221.652392 374.548534 233.115373 
C 363.085553 244.578353 356.644814 260.127674 356.644814 276.338776 
C 356.644814 292.549879 363.085553 308.099199 374.548534 319.56218 
C 386.011515 331.025161 401.560835 337.4659 417.771938 337.4659 
z
" clip-path="url(#pfd7c45de78)" style="fill: #ff0000; opacity: 0.2"/>
   </g>
   <g id="patch_21">
    <path d="M 317.269729 289.179234 
C 333.480831 289.179234 349.030152 282.738494 360.493132 271.275514 
C 371.956113 259.812533 378.396852 244.263213 378.396852 228.05211 
C 378.396852 211.841007 371.956113 196.291687 360.493132 184.828706 
C 349.030152 173.365726 333.480831 166.924986 317.269729 166.924986 
C 301.058626 166.924986 285.509306 173.365726 274.046325 184.828706 
C 262.583344 196.291687 256.142605 211.841007 256.142605 228.05211 
C 256.142605 244.263213 262.583344 259.812533 274.046325 271.275514 
C 285.509306 282.738494 301.058626 289.179234 317.269729 289.179234 
L 317.269729 289.179234 
z
" clip-path="url(#pfd7c45de78)" style="fill: none; stroke: #ff0000; stroke-width: 2; stroke-linejoin: miter"/>
   </g>
   <g id="patch_22">
    <path d="M 303.090315 223.085746 
C 319.301418 223.085746 334.850738 216.645006 346.313719 205.182025 
C 357.776699 193.719045 364.217439 178.169724 364.217439 161.958622 
C 364.217439 145.747519 357.776699 130.198199 346.313719 118.735218 
C 334.850738 107.272237 319.301418 100.831498 303.090315 100.831498 
C 286.879212 100.831498 271.329892 107.272237 259.866911 118.735218 
C 248.403931 130.198199 241.963191 145.747519 241.963191 161.958622 
C 241.963191 178.169724 248.403931 193.719045 259.866911 205.182025 
C 271.329892 216.645006 286.879212 223.085746 303.090315 223.085746 
L 303.090315 223.085746 
z
" clip-path="url(#pfd7c45de78)" style="fill: none; stroke: #ff0000; stroke-width: 2; stroke-linejoin: miter"/>
   </g>
   <g id="patch_23">
    <path d="M 226.787766 157.504502 
C 242.998869 157.504502 258.548189 151.063763 270.01117 139.600782 
C 281.47415 128.137801 287.91489 112.588481 287.91489 96.377378 
C 287.91489 80.166276 281.47415 64.616955 270.01117 53.153975 
C 258.548189 41.690994 242.998869 35.250255 226.787766 35.250255 
C 210.576663 35.250255 195.027343 41.690994 183.564362 53.153975 
C 172.101382 64.616955 165.660642 80.166276 165.660642 96.377378 
C 165.660642 112.588481 172.101382 128.137801 183.564362 139.600782 
C 195.027343 151.063763 210.576663 157.504502 226.787766 157.504502 
L 226.787766 157.504502 
z
" clip-path="url(#pfd7c45de78)" style="fill: none; stroke: #ff0000; stroke-width: 2; stroke-linejoin: miter"/>
   </g>
   <g id="patch_24">
    <path d="M 180.90934 152.815845 
C 197.120443 152.815845 212.669763 146.375106 224.132744 134.912125 
C 235.595724 123.449145 242.036464 107.899824 242.036464 91.688722 
C 242.036464 75.477619 235.595724 59.928299 224.132744 48.465318 
C 212.669763 37.002337 197.120443 30.561598 180.90934 30.561598 
C 164.698237 30.561598 149.148917 37.002337 137.685936 48.465318 
C 126.222955 59.928299 119.782216 75.477619 119.782216 91.688722 
C 119.782216 107.899824 126.222955 123.449145 137.685936 134.912125 
C 149.148917 146.375106 164.698237 152.815845 180.90934 152.815845 
L 180.90934 152.815845 
z
" clip-path="url(#pfd7c45de78)" style="fill: none; stroke: #ff0000; stroke-width: 2; stroke-linejoin: miter"/>
   </g>
   <g id="patch_25">
    <path d="M 180.204216 173.136938 
C 196.415319 173.136938 211.964639 166.696199 223.42762 155.233218 
C 234.890601 143.770237 241.33134 128.220917 241.33134 112.009814 
C 241.33134 95.798712 234.890601 80.249391 223.42762 68.786411 
C 211.964639 57.32343 196.415319 50.882691 180.204216 50.882691 
C 163.993113 50.882691 148.443793 57.32343 136.980812 68.786411 
C 125.517832 80.249391 119.077092 95.798712 119.077092 112.009814 
C 119.077092 128.220917 125.517832 143.770237 136.980812 155.233218 
C 148.443793 166.696199 163.993113 173.136938 180.204216 173.136938 
L 180.204216 173.136938 
z
" clip-path="url(#pfd7c45de78)" style="fill: none; stroke: #ff0000; stroke-width: 2; stroke-linejoin: miter"/>
   </g>
   <g id="patch_26">
    <path d="M 108.782096 221.083592 
C 124.993199 221.083592 140.542519 214.642853 152.0055 203.179872 
C 163.46848 191.716891 169.90922 176.167571 169.90922 159.956468 
C 169.90922 143.745365 163.46848 128.196045 152.0055 116.733064 
C 140.542519 105.270084 124.993199 98.829344 108.782096 98.829344 
C 92.570993 98.829344 77.021673 105.270084 65.558692 116.733064 
C 54.095712 128.196045 47.654972 143.745365 47.654972 159.956468 
C 47.654972 176.167571 54.095712 191.716891 65.558692 203.179872 
C 77.021673 214.642853 92.570993 221.083592 108.782096 221.083592 
L 108.782096 221.083592 
z
" clip-path="url(#pfd7c45de78)" style="fill: none; stroke: #ff0000; stroke-width: 2; stroke-linejoin: miter"/>
   </g>
   <g id="patch_27">
    <path d="M 78.645407 265.10648 
C 94.856509 265.10648 110.40583 258.66574 121.86881 247.20276 
C 133.331791 235.739779 139.77253 220.190459 139.77253 203.979356 
C 139.77253 187.768253 133.331791 172.218933 121.86881 160.755952 
C 110.40583 149.292971 94.856509 142.852232 78.645407 142.852232 
C 62.434304 142.852232 46.884984 149.292971 35.422003 160.755952 
C 23.959022 172.218933 17.518283 187.768253 17.518283 203.979356 
C 17.518283 220.190459 23.959022 235.739779 35.422003 247.20276 
C 46.884984 258.66574 62.434304 265.10648 78.645407 265.10648 
L 78.645407 265.10648 
z
" clip-path="url(#pfd7c45de78)" style="fill: none; stroke: #ff0000; stroke-width: 2; stroke-linejoin: miter"/>
   </g>
   <g id="patch_28">
    <path d="M 100.058991 337.773528 
C 116.270094 337.773528 131.819414 331.332788 143.282395 319.869808 
C 154.745375 308.406827 161.186115 292.857507 161.186115 276.646404 
C 161.186115 260.435301 154.745375 244.885981 143.282395 233.423 
C 131.819414 221.96002 116.270094 215.51928 100.058991 215.51928 
C 83.847888 215.51928 68.298568 221.96002 56.835587 233.423 
C 45.372607 244.885981 38.931867 260.435301 38.931867 276.646404 
C 38.931867 292.857507 45.372607 308.406827 56.835587 319.869808 
C 68.298568 331.332788 83.847888 337.773528 100.058991 337.773528 
L 100.058991 337.773528 
z
" clip-path="url(#pfd7c45de78)" style="fill: none; stroke: #ff0000; stroke-width: 2; stroke-linejoin: miter"/>
   </g>
   <g id="patch_29">
    <path d="M 115.287835 361.721479 
C 131.498938 361.721479 147.048258 355.28074 158.511239 343.817759 
C 169.974219 332.354779 176.414959 316.805458 176.414959 300.594356 
C 176.414959 284.383253 169.974219 268.833933 158.511239 257.370952 
C 147.048258 245.907971 131.498938 239.467232 115.287835 239.467232 
C 99.076732 239.467232 83.527412 245.907971 72.064431 257.370952 
C 60.601451 268.833933 54.160711 284.383253 54.160711 300.594356 
C 54.160711 316.805458 60.601451 332.354779 72.064431 343.817759 
C 83.527412 355.28074 99.076732 361.721479 115.287835 361.721479 
L 115.287835 361.721479 
z
" clip-path="url(#pfd7c45de78)" style="fill: none; stroke: #ff0000; stroke-width: 2; stroke-linejoin: miter"/>
   </g>
   <g id="patch_30">
    <path d="M 207.200247 390.738402 
C 223.41135 390.738402 238.96067 384.297663 250.423651 372.834682 
C 261.886632 361.371701 268.327371 345.822381 268.327371 329.611278 
C 268.327371 313.400176 261.886632 297.850855 250.423651 286.387875 
C 238.96067 274.924894 223.41135 268.484155 207.200247 268.484155 
C 190.989145 268.484155 175.439824 274.924894 163.976844 286.387875 
C 152.513863 297.850855 146.073123 313.400176 146.073123 329.611278 
C 146.073123 345.822381 152.513863 361.371701 163.976844 372.834682 
C 175.439824 384.297663 190.989145 390.738402 207.200247 390.738402 
L 207.200247 390.738402 
z
" clip-path="url(#pfd7c45de78)" style="fill: none; stroke: #ff0000; stroke-width: 2; stroke-linejoin: miter"/>
   </g>
   <g id="patch_31">
    <path d="M 260.197364 382.109441 
C 276.408466 382.109441 291.957787 375.668702 303.420767 364.205721 
C 314.883748 352.742741 321.324487 337.19342 321.324487 320.982317 
C 321.324487 304.771215 314.883748 289.221894 303.420767 277.758914 
C 291.957787 266.295933 276.408466 259.855194 260.197364 259.855194 
C 243.986261 259.855194 228.436941 266.295933 216.97396 277.758914 
C 205.510979 289.221894 199.07024 304.771215 199.07024 320.982317 
C 199.07024 337.19342 205.510979 352.742741 216.97396 364.205721 
C 228.436941 375.668702 243.986261 382.109441 260.197364 382.109441 
L 260.197364 382.109441 
z
" clip-path="url(#pfd7c45de78)" style="fill: none; stroke: #ff0000; stroke-width: 2; stroke-linejoin: miter"/>
   </g>
   <g id="patch_32">
    <path d="M 313.639995 310.546824 
C 329.851097 310.546824 345.400418 304.106085 356.863398 292.643104 
C 368.326379 281.180123 374.767119 265.630803 374.767119 249.4197 
C 374.767119 233.208597 368.326379 217.659277 356.863398 206.196296 
C 345.400418 194.733316 329.851097 188.292576 313.639995 188.292576 
C 297.428892 188.292576 281.879572 194.733316 270.416591 206.196296 
C 258.95361 217.659277 252.512871 233.208597 252.512871 249.4197 
C 252.512871 265.630803 258.95361 281.180123 270.416591 292.643104 
C 281.879572 304.106085 297.428892 310.546824 313.639995 310.546824 
L 313.639995 310.546824 
z
" clip-path="url(#pfd7c45de78)" style="fill: none; stroke: #ff0000; stroke-width: 2; stroke-linejoin: miter"/>
   </g>
   <g id="patch_33">
    <path d="M 443.043217 273.259913 
C 459.25432 273.259913 474.80364 266.819174 486.266621 255.356193 
C 497.729601 243.893212 504.170341 228.343892 504.170341 212.132789 
C 504.170341 195.921687 497.729601 180.372366 486.266621 168.909386 
C 474.80364 157.446405 459.25432 151.005666 443.043217 151.005666 
C 426.832114 151.005666 411.282794 157.446405 399.819813 168.909386 
C 388.356832 180.372366 381.916093 195.921687 381.916093 212.132789 
C 381.916093 228.343892 388.356832 243.893212 399.819813 255.356193 
C 411.282794 266.819174 426.832114 273.259913 443.043217 273.259913 
L 443.043217 273.259913 
z
" clip-path="url(#pfd7c45de78)" style="fill: none; stroke: #ff0000; stroke-width: 2; stroke-linejoin: miter"/>
   </g>
   <g id="patch_34">
    <path d="M 417.419381 214.23716 
C 433.630484 214.23716 449.179804 207.79642 460.642785 196.33344 
C 472.105765 184.870459 478.546505 169.321139 478.546505 153.110036 
C 478.546505 136.898933 472.105765 121.349613 460.642785 109.886632 
C 449.179804 98.423652 433.630484 91.982912 417.419381 91.982912 
C 401.208278 91.982912 385.658958 98.423652 374.195977 109.886632 
C 362.732997 121.349613 356.292257 136.898933 356.292257 153.110036 
C 356.292257 169.321139 362.732997 184.870459 374.195977 196.33344 
C 385.658958 207.79642 401.208278 214.23716 417.419381 214.23716 
L 417.419381 214.23716 
z
" clip-path="url(#pfd7c45de78)" style="fill: none; stroke: #ff0000; stroke-width: 2; stroke-linejoin: miter"/>
   </g>
   <g id="patch_35">
    <path d="M 373.626056 203.712043 
C 389.837159 203.712043 405.386479 197.271304 416.84946 185.808323 
C 428.31244 174.345342 434.75318 158.796022 434.75318 142.584919 
C 434.75318 126.373817 428.31244 110.824496 416.84946 99.361516 
C 405.386479 87.898535 389.837159 81.457796 373.626056 81.457796 
C 357.414953 81.457796 341.865633 87.898535 330.402652 99.361516 
C 318.939671 110.824496 312.498932 126.373817 312.498932 142.584919 
C 312.498932 158.796022 318.939671 174.345342 330.402652 185.808323 
C 341.865633 197.271304 357.414953 203.712043 373.626056 203.712043 
L 373.626056 203.712043 
z
" clip-path="url(#pfd7c45de78)" style="fill: none; stroke: #ff0000; stroke-width: 2; stroke-linejoin: miter"/>
   </g>
   <g id="patch_36">
    <path d="M 300.077225 270.341839 
C 316.288327 270.341839 331.837648 263.901099 343.300628 252.438119 
C 354.763609 240.975138 361.204348 225.425818 361.204348 209.214715 
C 361.204348 193.003612 354.763609 177.454292 343.300628 165.991311 
C 331.837648 154.528331 316.288327 148.087591 300.077225 148.087591 
C 283.866122 148.087591 268.316802 154.528331 256.853821 165.991311 
C 245.39084 177.454292 238.950101 193.003612 238.950101 209.214715 
C 238.950101 225.425818 245.39084 240.975138 256.853821 252.438119 
C 268.316802 263.901099 283.866122 270.341839 300.077225 270.341839 
L 300.077225 270.341839 
z
" clip-path="url(#pfd7c45de78)" style="fill: none; stroke: #ff0000; stroke-width: 2; stroke-linejoin: miter"/>
   </g>
   <g id="patch_37">
    <path d="M 300.563557 287.545456 
C 316.77466 287.545456 332.32398 281.104716 343.786961 269.641735 
C 355.249941 258.178755 361.690681 242.629434 361.690681 226.418332 
C 361.690681 210.207229 355.249941 194.657909 343.786961 183.194928 
C 332.32398 171.731947 316.77466 165.291208 300.563557 165.291208 
C 284.352454 165.291208 268.803134 171.731947 257.340153 183.194928 
C 245.877173 194.657909 239.436433 210.207229 239.436433 226.418332 
C 239.436433 242.629434 245.877173 258.178755 257.340153 269.641735 
C 268.803134 281.104716 284.352454 287.545456 300.563557 287.545456 
L 300.563557 287.545456 
z
" clip-path="url(#pfd7c45de78)" style="fill: none; stroke: #ff0000; stroke-width: 2; stroke-linejoin: miter"/>
   </g>
   <g id="patch_38">
    <path d="M 364.299456 344.754196 
C 380.510558 344.754196 396.059879 338.313456 407.522859 326.850476 
C 418.98584 315.387495 425.426579 299.838175 425.426579 283.627072 
C 425.426579 267.415969 418.98584 251.866649 407.522859 240.403668 
C 396.059879 228.940688 380.510558 222.499948 364.299456 222.499948 
C 348.088353 222.499948 332.539033 228.940688 321.076052 240.403668 
C 309.613071 251.866649 303.172332 267.415969 303.172332 283.627072 
C 303.172332 299.838175 309.613071 315.387495 321.076052 326.850476 
C 332.539033 338.313456 348.088353 344.754196 364.299456 344.754196 
L 364.299456 344.754196 
z
" clip-path="url(#pfd7c45de78)" style="fill: none; stroke: #ff0000; stroke-width: 2; stroke-linejoin: miter"/>
   </g>
   <g id="patch_39">
    <path d="M 417.771938 337.4659 
C 433.98304 337.4659 449.532361 331.025161 460.995341 319.56218 
C 472.458322 308.099199 478.899061 292.549879 478.899061 276.338776 
C 478.899061 260.127674 472.458322 244.578353 460.995341 233.115373 
C 449.532361 221.652392 433.98304 215.211652 417.771938 215.211652 
C 401.560835 215.211652 386.011515 221.652392 374.548534 233.115373 
C 363.085553 244.578353 356.644814 260.127674 356.644814 276.338776 
C 356.644814 292.549879 363.085553 308.099199 374.548534 319.56218 
C 386.011515 331.025161 401.560835 337.4659 417.771938 337.4659 
L 417.771938 337.4659 
z
" clip-path="url(#pfd7c45de78)" style="fill: none; stroke: #ff0000; stroke-width: 2; stroke-linejoin: miter"/>
   </g>
   <g id="line2d_1">
    <path d="M 317.269729 228.05211 
L 313.639995 249.4197 
" clip-path="url(#pfd7c45de78)" style="fill: none; stroke: #000000; stroke-width: 2; stroke-linecap: square"/>
   </g>
   <g id="line2d_2">
    <path d="M 317.269729 228.05211 
L 300.077225 209.214715 
" clip-path="url(#pfd7c45de78)" style="fill: none; stroke: #000000; stroke-width: 2; stroke-linecap: square"/>
   </g>
   <g id="line2d_3">
    <path d="M 317.269729 228.05211 
L 300.563557 226.418332 
" clip-path="url(#pfd7c45de78)" style="fill: none; stroke: #000000; stroke-width: 2; stroke-linecap: square"/>
   </g>
   <g id="line2d_4">
    <path d="M 303.090315 161.958622 
L 300.077225 209.214715 
" clip-path="url(#pfd7c45de78)" style="fill: none; stroke: #000000; stroke-width: 2; stroke-linecap: square"/>
   </g>
   <g id="line2d_5">
    <path d="M 226.787766 96.377378 
L 180.90934 91.688722 
" clip-path="url(#pfd7c45de78)" style="fill: none; stroke: #000000; stroke-width: 2; stroke-linecap: square"/>
   </g>
   <g id="line2d_6">
    <path d="M 226.787766 96.377378 
L 180.204216 112.009814 
" clip-path="url(#pfd7c45de78)" style="fill: none; stroke: #000000; stroke-width: 2; stroke-linecap: square"/>
   </g>
   <g id="line2d_7">
    <path d="M 180.90934 91.688722 
L 180.204216 112.009814 
" clip-path="url(#pfd7c45de78)" style="fill: none; stroke: #000000; stroke-width: 2; stroke-linecap: square"/>
   </g>
   <g id="line2d_8">
    <path d="M 108.782096 159.956468 
L 78.645407 203.979356 
" clip-path="url(#pfd7c45de78)" style="fill: none; stroke: #000000; stroke-width: 2; stroke-linecap: square"/>
   </g>
   <g id="line2d_9">
    <path d="M 100.058991 276.646404 
L 115.287835 300.594356 
" clip-path="url(#pfd7c45de78)" style="fill: none; stroke: #000000; stroke-width: 2; stroke-linecap: square"/>
   </g>
   <g id="line2d_10">
    <path d="M 207.200247 329.611278 
L 260.197364 320.982317 
" clip-path="url(#pfd7c45de78)" style="fill: none; stroke: #000000; stroke-width: 2; stroke-linecap: square"/>
   </g>
   <g id="line2d_11">
    <path d="M 313.639995 249.4197 
L 300.077225 209.214715 
" clip-path="url(#pfd7c45de78)" style="fill: none; stroke: #000000; stroke-width: 2; stroke-linecap: square"/>
   </g>
   <g id="line2d_12">
    <path d="M 313.639995 249.4197 
L 300.563557 226.418332 
" clip-path="url(#pfd7c45de78)" style="fill: none; stroke: #000000; stroke-width: 2; stroke-linecap: square"/>
   </g>
   <g id="line2d_13">
    <path d="M 313.639995 249.4197 
L 364.299456 283.627072 
" clip-path="url(#pfd7c45de78)" style="fill: none; stroke: #000000; stroke-width: 2; stroke-linecap: square"/>
   </g>
   <g id="line2d_14">
    <path d="M 417.419381 153.110036 
L 373.626056 142.584919 
" clip-path="url(#pfd7c45de78)" style="fill: none; stroke: #000000; stroke-width: 2; stroke-linecap: square"/>
   </g>
   <g id="line2d_15">
    <path d="M 300.077225 209.214715 
L 300.563557 226.418332 
" clip-path="url(#pfd7c45de78)" style="fill: none; stroke: #000000; stroke-width: 2; stroke-linecap: square"/>
   </g>
   <g id="line2d_16">
    <path d="M 364.299456 283.627072 
L 417.771938 276.338776 
" clip-path="url(#pfd7c45de78)" style="fill: none; stroke: #000000; stroke-width: 2; stroke-linecap: square"/>
   </g>
   <g id="PathCollection_2">
    <defs>
     <path id="m572578d275" d="M 0 3 
C 0.795609 3 1.55874 2.683901 2.12132 2.12132 
C 2.683901 1.55874 3 0.795609 3 0 
C 3 -0.795609 2.683901 -1.55874 2.12132 -2.12132 
C 1.55874 -2.683901 0.795609 -3 0 -3 
C -0.795609 -3 -1.55874 -2.683901 -2.12132 -2.12132 
C -2.683901 -1.55874 -3 -0.795609 -3 0 
C -3 0.795609 -2.683901 1.55874 -2.12132 2.12132 
C -1.55874 2.683901 -0.795609 3 0 3 
z
" style="stroke: #0000ff"/>
    </defs>
    <g clip-path="url(#pfd7c45de78)">
     <use xlink:href="#m572578d275" x="317.269729" y="228.05211" style="fill: #0000ff; stroke: #0000ff"/>
     <use xlink:href="#m572578d275" x="303.090315" y="161.958622" style="fill: #0000ff; stroke: #0000ff"/>
     <use xlink:href="#m572578d275" x="226.787766" y="96.377378" style="fill: #0000ff; stroke: #0000ff"/>
     <use xlink:href="#m572578d275" x="180.90934" y="91.688722" style="fill: #0000ff; stroke: #0000ff"/>
     <use xlink:href="#m572578d275" x="180.204216" y="112.009814" style="fill: #0000ff; stroke: #0000ff"/>
     <use xlink:href="#m572578d275" x="108.782096" y="159.956468" style="fill: #0000ff; stroke: #0000ff"/>
     <use xlink:href="#m572578d275" x="78.645407" y="203.979356" style="fill: #0000ff; stroke: #0000ff"/>
     <use xlink:href="#m572578d275" x="100.058991" y="276.646404" style="fill: #0000ff; stroke: #0000ff"/>
     <use xlink:href="#m572578d275" x="115.287835" y="300.594356" style="fill: #0000ff; stroke: #0000ff"/>
     <use xlink:href="#m572578d275" x="207.200247" y="329.611278" style="fill: #0000ff; stroke: #0000ff"/>
     <use xlink:href="#m572578d275" x="260.197364" y="320.982317" style="fill: #0000ff; stroke: #0000ff"/>
     <use xlink:href="#m572578d275" x="313.639995" y="249.4197" style="fill: #0000ff; stroke: #0000ff"/>
     <use xlink:href="#m572578d275" x="443.043217" y="212.132789" style="fill: #0000ff; stroke: #0000ff"/>
     <use xlink:href="#m572578d275" x="417.419381" y="153.110036" style="fill: #0000ff; stroke: #0000ff"/>
     <use xlink:href="#m572578d275" x="373.626056" y="142.584919" style="fill: #0000ff; stroke: #0000ff"/>
     <use xlink:href="#m572578d275" x="300.077225" y="209.214715" style="fill: #0000ff; stroke: #0000ff"/>
     <use xlink:href="#m572578d275" x="300.563557" y="226.418332" style="fill: #0000ff; stroke: #0000ff"/>
     <use xlink:href="#m572578d275" x="364.299456" y="283.627072" style="fill: #0000ff; stroke: #0000ff"/>
     <use xlink:href="#m572578d275" x="417.771938" y="276.338776" style="fill: #0000ff; stroke: #0000ff"/>
    </g>
   </g>
  </g>
  <g id="axes_2">
   <g id="patch_40">
    <path d="M 558.311376 414.1 
L 1065.6 414.1 
L 1065.6 7.2 
L 558.311376 7.2 
z
" style="fill: #ffffff"/>
   </g>
   <g id="matplotlib.axis_1">
    <g id="xtick_1">
     <g id="line2d_17">
      <defs>
       <path id="md4bcc2b9a7" d="M 0 0 
L 0 3.5 
" style="stroke: #000000; stroke-width: 0.8"/>
      </defs>
      <g>
       <use xlink:href="#md4bcc2b9a7" x="571.661077" y="414.1" style="stroke: #000000; stroke-width: 0.8"/>
      </g>
     </g>
    </g>
    <g id="xtick_2">
     <g id="line2d_18">
      <g>
       <use xlink:href="#md4bcc2b9a7" x="598.360478" y="414.1" style="stroke: #000000; stroke-width: 0.8"/>
      </g>
     </g>
    </g>
    <g id="xtick_3">
     <g id="line2d_19">
      <g>
       <use xlink:href="#md4bcc2b9a7" x="625.05988" y="414.1" style="stroke: #000000; stroke-width: 0.8"/>
      </g>
     </g>
    </g>
    <g id="xtick_4">
     <g id="line2d_20">
      <g>
       <use xlink:href="#md4bcc2b9a7" x="651.759281" y="414.1" style="stroke: #000000; stroke-width: 0.8"/>
      </g>
     </g>
    </g>
    <g id="xtick_5">
     <g id="line2d_21">
      <g>
       <use xlink:href="#md4bcc2b9a7" x="678.458682" y="414.1" style="stroke: #000000; stroke-width: 0.8"/>
      </g>
     </g>
    </g>
    <g id="xtick_6">
     <g id="line2d_22">
      <g>
       <use xlink:href="#md4bcc2b9a7" x="705.158083" y="414.1" style="stroke: #000000; stroke-width: 0.8"/>
      </g>
     </g>
    </g>
    <g id="xtick_7">
     <g id="line2d_23">
      <g>
       <use xlink:href="#md4bcc2b9a7" x="731.857485" y="414.1" style="stroke: #000000; stroke-width: 0.8"/>
      </g>
     </g>
    </g>
    <g id="xtick_8">
     <g id="line2d_24">
      <g>
       <use xlink:href="#md4bcc2b9a7" x="758.556886" y="414.1" style="stroke: #000000; stroke-width: 0.8"/>
      </g>
     </g>
    </g>
    <g id="xtick_9">
     <g id="line2d_25">
      <g>
       <use xlink:href="#md4bcc2b9a7" x="785.256287" y="414.1" style="stroke: #000000; stroke-width: 0.8"/>
      </g>
     </g>
    </g>
    <g id="xtick_10">
     <g id="line2d_26">
      <g>
       <use xlink:href="#md4bcc2b9a7" x="811.955688" y="414.1" style="stroke: #000000; stroke-width: 0.8"/>
      </g>
     </g>
    </g>
    <g id="xtick_11">
     <g id="line2d_27">
      <g>
       <use xlink:href="#md4bcc2b9a7" x="838.655089" y="414.1" style="stroke: #000000; stroke-width: 0.8"/>
      </g>
     </g>
    </g>
    <g id="xtick_12">
     <g id="line2d_28">
      <g>
       <use xlink:href="#md4bcc2b9a7" x="865.354491" y="414.1" style="stroke: #000000; stroke-width: 0.8"/>
      </g>
     </g>
    </g>
    <g id="xtick_13">
     <g id="line2d_29">
      <g>
       <use xlink:href="#md4bcc2b9a7" x="892.053892" y="414.1" style="stroke: #000000; stroke-width: 0.8"/>
      </g>
     </g>
    </g>
    <g id="xtick_14">
     <g id="line2d_30">
      <g>
       <use xlink:href="#md4bcc2b9a7" x="918.753293" y="414.1" style="stroke: #000000; stroke-width: 0.8"/>
      </g>
     </g>
    </g>
    <g id="xtick_15">
     <g id="line2d_31">
      <g>
       <use xlink:href="#md4bcc2b9a7" x="945.452694" y="414.1" style="stroke: #000000; stroke-width: 0.8"/>
      </g>
     </g>
    </g>
    <g id="xtick_16">
     <g id="line2d_32">
      <g>
       <use xlink:href="#md4bcc2b9a7" x="972.152096" y="414.1" style="stroke: #000000; stroke-width: 0.8"/>
      </g>
     </g>
    </g>
    <g id="xtick_17">
     <g id="line2d_33">
      <g>
       <use xlink:href="#md4bcc2b9a7" x="998.851497" y="414.1" style="stroke: #000000; stroke-width: 0.8"/>
      </g>
     </g>
    </g>
    <g id="xtick_18">
     <g id="line2d_34">
      <g>
       <use xlink:href="#md4bcc2b9a7" x="1025.550898" y="414.1" style="stroke: #000000; stroke-width: 0.8"/>
      </g>
     </g>
    </g>
    <g id="xtick_19">
     <g id="line2d_35">
      <g>
       <use xlink:href="#md4bcc2b9a7" x="1052.250299" y="414.1" style="stroke: #000000; stroke-width: 0.8"/>
      </g>
     </g>
    </g>
   </g>
   <g id="matplotlib.axis_2">
    <g id="ytick_1">
     <g id="line2d_36">
      <defs>
       <path id="m4831a6ad79" d="M 0 0 
L -3.5 0 
" style="stroke: #000000; stroke-width: 0.8"/>
      </defs>
      <g>
       <use xlink:href="#m4831a6ad79" x="558.311376" y="196.387606" style="stroke: #000000; stroke-width: 0.8"/>
      </g>
     </g>
     <g id="text_1">
      <!-- $r_{12}$ -->
      <g transform="translate(524.711376 203.986043) scale(0.2 -0.2)">
       <defs>
        <path id="DejaVuSans-Oblique-72" d="M 2853 2969 
Q 2766 3016 2653 3041 
Q 2541 3066 2413 3066 
Q 1953 3066 1609 2717 
Q 1266 2369 1153 1784 
L 800 0 
L 225 0 
L 909 3500 
L 1484 3500 
L 1375 2956 
Q 1603 3259 1920 3421 
Q 2238 3584 2597 3584 
Q 2691 3584 2781 3573 
Q 2872 3563 2963 3538 
L 2853 2969 
z
" transform="scale(0.015625)"/>
        <path id="DejaVuSans-31" d="M 794 531 
L 1825 531 
L 1825 4091 
L 703 3866 
L 703 4441 
L 1819 4666 
L 2450 4666 
L 2450 531 
L 3481 531 
L 3481 0 
L 794 0 
L 794 531 
z
" transform="scale(0.015625)"/>
        <path id="DejaVuSans-32" d="M 1228 531 
L 3431 531 
L 3431 0 
L 469 0 
L 469 531 
Q 828 903 1448 1529 
Q 2069 2156 2228 2338 
Q 2531 2678 2651 2914 
Q 2772 3150 2772 3378 
Q 2772 3750 2511 3984 
Q 2250 4219 1831 4219 
Q 1534 4219 1204 4116 
Q 875 4013 500 3803 
L 500 4441 
Q 881 4594 1212 4672 
Q 1544 4750 1819 4750 
Q 2544 4750 2975 4387 
Q 3406 4025 3406 3419 
Q 3406 3131 3298 2873 
Q 3191 2616 2906 2266 
Q 2828 2175 2409 1742 
Q 1991 1309 1228 531 
z
" transform="scale(0.015625)"/>
       </defs>
       <use xlink:href="#DejaVuSans-Oblique-72"/>
       <use xlink:href="#DejaVuSans-31" transform="translate(41.113281 -16.40625) scale(0.7)"/>
       <use xlink:href="#DejaVuSans-32" transform="translate(85.649414 -16.40625) scale(0.7)"/>
      </g>
     </g>
    </g>
   </g>
   <g id="line2d_37">
    <path d="M 598.360478 414.1 
L 598.360478 341.680163 
L 625.05988 341.680163 
L 625.05988 414.1 
" clip-path="url(#p292dd3f5de)" style="fill: none; stroke: #ff0000; stroke-width: 5; stroke-linecap: square"/>
   </g>
   <g id="line2d_38">
    <path d="M 571.661077 414.1 
L 571.661077 249.846779 
L 611.710179 249.846779 
L 611.710179 341.680163 
" clip-path="url(#p292dd3f5de)" style="fill: none; stroke: #ff0000; stroke-width: 5; stroke-linecap: square"/>
   </g>
   <g id="line2d_39">
    <path d="M 651.759281 414.1 
L 651.759281 313.020995 
L 678.458682 313.020995 
L 678.458682 414.1 
" clip-path="url(#p292dd3f5de)" style="fill: none; stroke: #ff0000; stroke-width: 5; stroke-linecap: square"/>
   </g>
   <g id="line2d_40">
    <path d="M 705.158083 414.1 
L 705.158083 224.086462 
L 731.857485 224.086462 
L 731.857485 414.1 
" clip-path="url(#p292dd3f5de)" style="fill: none; stroke: #ff0000; stroke-width: 5; stroke-linecap: square"/>
   </g>
   <g id="line2d_41">
    <path d="M 758.556886 414.1 
L 758.556886 222.858095 
L 785.256287 222.858095 
L 785.256287 414.1 
" clip-path="url(#p292dd3f5de)" style="fill: none; stroke: #ff0000; stroke-width: 5; stroke-linecap: square"/>
   </g>
   <g id="line2d_42">
    <path d="M 892.053892 414.1 
L 892.053892 354.314891 
L 918.753293 354.314891 
L 918.753293 414.1 
" clip-path="url(#p292dd3f5de)" style="fill: none; stroke: #ff0000; stroke-width: 5; stroke-linecap: square"/>
   </g>
   <g id="line2d_43">
    <path d="M 865.354491 414.1 
L 865.354491 352.802549 
L 905.403593 352.802549 
L 905.403593 354.314891 
" clip-path="url(#p292dd3f5de)" style="fill: none; stroke: #ff0000; stroke-width: 5; stroke-linecap: square"/>
   </g>
   <g id="line2d_44">
    <path d="M 838.655089 414.1 
L 838.655089 336.906263 
L 885.379042 336.906263 
L 885.379042 352.802549 
" clip-path="url(#p292dd3f5de)" style="fill: none; stroke: #ff0000; stroke-width: 5; stroke-linecap: square"/>
   </g>
   <g id="line2d_45">
    <path d="M 811.955688 414.1 
L 811.955688 245.44935 
L 862.017066 245.44935 
L 862.017066 336.906263 
" clip-path="url(#p292dd3f5de)" style="fill: none; stroke: #ff0000; stroke-width: 5; stroke-linecap: square"/>
   </g>
   <g id="line2d_46">
    <path d="M 945.452694 414.1 
L 945.452694 221.88972 
L 972.152096 221.88972 
L 972.152096 414.1 
" clip-path="url(#p292dd3f5de)" style="fill: none; stroke: #ff0000; stroke-width: 5; stroke-linecap: square"/>
   </g>
   <g id="line2d_47">
    <path d="M 836.986377 245.44935 
L 836.986377 196.387606 
L 958.802395 196.387606 
L 958.802395 221.88972 
" clip-path="url(#p292dd3f5de)" style="fill: none; stroke: #ff0000; stroke-width: 5; stroke-linecap: square"/>
   </g>
   <g id="line2d_48">
    <path d="M 1025.550898 414.1 
L 1025.550898 253.682782 
L 1052.250299 253.682782 
L 1052.250299 414.1 
" clip-path="url(#p292dd3f5de)" style="fill: none; stroke: #ff0000; stroke-width: 5; stroke-linecap: square"/>
   </g>
   <g id="line2d_49">
    <path d="M 998.851497 414.1 
L 998.851497 196.387606 
" clip-path="url(#p292dd3f5de)" style="fill: none; stroke: #ff0000; stroke-width: 5; stroke-linecap: square"/>
   </g>
   <g id="line2d_50">
    <path d="M 591.685628 249.846779 
L 591.685628 196.387606 
" clip-path="url(#p292dd3f5de)" style="fill: none; stroke: #ff0000; stroke-width: 5; stroke-linecap: square"/>
   </g>
   <g id="line2d_51">
    <path d="M 665.108981 313.020995 
L 665.108981 196.387606 
" clip-path="url(#p292dd3f5de)" style="fill: none; stroke: #ff0000; stroke-width: 5; stroke-linecap: square"/>
   </g>
   <g id="line2d_52">
    <path d="M 718.507784 224.086462 
L 718.507784 196.387606 
" clip-path="url(#p292dd3f5de)" style="fill: none; stroke: #ff0000; stroke-width: 5; stroke-linecap: square"/>
   </g>
   <g id="line2d_53">
    <path d="M 771.906586 222.858095 
L 771.906586 196.387606 
" clip-path="url(#p292dd3f5de)" style="fill: none; stroke: #ff0000; stroke-width: 5; stroke-linecap: square"/>
   </g>
   <g id="line2d_54">
    <path d="M 897.894386 196.387606 
L 897.894386 196.387606 
" clip-path="url(#p292dd3f5de)" style="fill: none; stroke: #ff0000; stroke-width: 5; stroke-linecap: square"/>
   </g>
   <g id="line2d_55">
    <path d="M 1038.900599 253.682782 
L 1038.900599 196.387606 
" clip-path="url(#p292dd3f5de)" style="fill: none; stroke: #ff0000; stroke-width: 5; stroke-linecap: square"/>
   </g>
   <g id="patch_41">
    <path d="M 558.311376 414.1 
L 558.311376 7.2 
" style="fill: none; stroke: #000000; stroke-width: 0.8; stroke-linejoin: miter; stroke-linecap: square"/>
   </g>
   <g id="patch_42">
    <path d="M 1065.6 414.1 
L 1065.6 7.2 
" style="fill: none; stroke: #000000; stroke-width: 0.8; stroke-linejoin: miter; stroke-linecap: square"/>
   </g>
   <g id="patch_43">
    <path d="M 558.311376 414.1 
L 1065.6 414.1 
" style="fill: none; stroke: #000000; stroke-width: 0.8; stroke-linejoin: miter; stroke-linecap: square"/>
   </g>
   <g id="patch_44">
    <path d="M 558.311376 7.2 
L 1065.6 7.2 
" style="fill: none; stroke: #000000; stroke-width: 0.8; stroke-linejoin: miter; stroke-linecap: square"/>
   </g>
   <g id="PathCollection_3">
    <defs>
     <path id="mb3e82733d2" d="M 0 6.123724 
C 1.624031 6.123724 3.181764 5.47849 4.330127 4.330127 
C 5.47849 3.181764 6.123724 1.624031 6.123724 0 
C 6.123724 -1.624031 5.47849 -3.181764 4.330127 -4.330127 
C 3.181764 -5.47849 1.624031 -6.123724 0 -6.123724 
C -1.624031 -6.123724 -3.181764 -5.47849 -4.330127 -4.330127 
C -5.47849 -3.181764 -6.123724 -1.624031 -6.123724 0 
C -6.123724 1.624031 -5.47849 3.181764 -4.330127 4.330127 
C -3.181764 5.47849 -1.624031 6.123724 0 6.123724 
z
" style="stroke: #0000ff"/>
    </defs>
    <g clip-path="url(#p292dd3f5de)">
     <use xlink:href="#mb3e82733d2" x="571.661077" y="414.1" style="fill: #0000ff; stroke: #0000ff"/>
     <use xlink:href="#mb3e82733d2" x="598.360478" y="414.1" style="fill: #0000ff; stroke: #0000ff"/>
     <use xlink:href="#mb3e82733d2" x="625.05988" y="414.1" style="fill: #0000ff; stroke: #0000ff"/>
     <use xlink:href="#mb3e82733d2" x="651.759281" y="414.1" style="fill: #0000ff; stroke: #0000ff"/>
     <use xlink:href="#mb3e82733d2" x="678.458682" y="414.1" style="fill: #0000ff; stroke: #0000ff"/>
     <use xlink:href="#mb3e82733d2" x="705.158083" y="414.1" style="fill: #0000ff; stroke: #0000ff"/>
     <use xlink:href="#mb3e82733d2" x="731.857485" y="414.1" style="fill: #0000ff; stroke: #0000ff"/>
     <use xlink:href="#mb3e82733d2" x="758.556886" y="414.1" style="fill: #0000ff; stroke: #0000ff"/>
     <use xlink:href="#mb3e82733d2" x="785.256287" y="414.1" style="fill: #0000ff; stroke: #0000ff"/>
     <use xlink:href="#mb3e82733d2" x="811.955688" y="414.1" style="fill: #0000ff; stroke: #0000ff"/>
     <use xlink:href="#mb3e82733d2" x="838.655089" y="414.1" style="fill: #0000ff; stroke: #0000ff"/>
     <use xlink:href="#mb3e82733d2" x="865.354491" y="414.1" style="fill: #0000ff; stroke: #0000ff"/>
     <use xlink:href="#mb3e82733d2" x="892.053892" y="414.1" style="fill: #0000ff; stroke: #0000ff"/>
     <use xlink:href="#mb3e82733d2" x="918.753293" y="414.1" style="fill: #0000ff; stroke: #0000ff"/>
     <use xlink:href="#mb3e82733d2" x="945.452694" y="414.1" style="fill: #0000ff; stroke: #0000ff"/>
     <use xlink:href="#mb3e82733d2" x="972.152096" y="414.1" style="fill: #0000ff; stroke: #0000ff"/>
     <use xlink:href="#mb3e82733d2" x="998.851497" y="414.1" style="fill: #0000ff; stroke: #0000ff"/>
     <use xlink:href="#mb3e82733d2" x="1025.550898" y="414.1" style="fill: #0000ff; stroke: #0000ff"/>
     <use xlink:href="#mb3e82733d2" x="1052.250299" y="414.1" style="fill: #0000ff; stroke: #0000ff"/>
    </g>
   </g>
  </g>
 </g>
 <defs>
  <clipPath id="pfd7c45de78">
   <rect x="7.2" y="20.243315" width="507.288624" height="380.81337"/>
  </clipPath>
  <clipPath id="p292dd3f5de">
   <rect x="558.311376" y="7.2" width="507.288624" height="406.9"/>
  </clipPath>
 </defs>
</svg>
