<?xml version="1.0" encoding="utf-8" standalone="no"?>
<!DOCTYPE svg PUBLIC "-//W3C//DTD SVG 1.1//EN"
  "http://www.w3.org/Graphics/SVG/1.1/DTD/svg11.dtd">
<svg xmlns:xlink="http://www.w3.org/1999/xlink" width="1072.8pt" height="424.8pt" viewBox="0 0 1072.8 424.8" xmlns="http://www.w3.org/2000/svg" version="1.1">
 <metadata>
  <rdf:RDF xmlns:dc="http://purl.org/dc/elements/1.1/" xmlns:cc="http://creativecommons.org/ns#" xmlns:rdf="http://www.w3.org/1999/02/22-rdf-syntax-ns#">
   <cc:Work>
    <dc:type rdf:resource="http://purl.org/dc/dcmitype/StillImage"/>
    <dc:date>2023-10-24T09:47:31.008142</dc:date>
    <dc:format>image/svg+xml</dc:format>
    <dc:creator>
     <cc:Agent>
      <dc:title>Matplotlib v3.7.2, https://matplotlib.org/</dc:title>
     </cc:Agent>
    </dc:creator>
   </cc:Work>
  </rdf:RDF>
 </metadata>
 <defs>
  <style type="text/css">*{stroke-linejoin: round; stroke-linecap: butt}</style>
 </defs>
 <g id="figure_1">
  <g id="patch_1">
   <path d="M 0 424.8 
L 1072.8 424.8 
L 1072.8 -0 
L 0 -0 
z
" style="fill: #ffffff"/>
  </g>
  <g id="axes_1">
   <g id="PathCollection_1">
    <defs>
     <path id="mfa65de377d" d="M 0 3 
C 0.795609 3 1.55874 2.683901 2.12132 2.12132 
C 2.683901 1.55874 3 0.795609 3 0 
C 3 -0.795609 2.683901 -1.55874 2.12132 -2.12132 
C 1.55874 -2.683901 0.795609 -3 0 -3 
C -0.795609 -3 -1.55874 -2.683901 -2.12132 -2.12132 
C -2.683901 -1.55874 -3 -0.795609 -3 0 
C -3 0.795609 -2.683901 1.55874 -2.12132 2.12132 
C -1.55874 2.683901 -0.795609 3 0 3 
z
" style="stroke: #1f77b4; stroke-opacity: 0"/>
    </defs>
    <g clip-path="url(#pcfd430d012)">
     <use xlink:href="#mfa65de377d" x="7.2" y="401.006014" style="fill: #1f77b4; fill-opacity: 0; stroke: #1f77b4; stroke-opacity: 0"/>
     <use xlink:href="#mfa65de377d" x="514.353624" y="20.293986" style="fill: #1f77b4; fill-opacity: 0; stroke: #1f77b4; stroke-opacity: 0"/>
    </g>
   </g>
   <g id="patch_2">
    <path d="M 317.187213 317.339571 
C 340.867752 317.339571 363.581586 307.931193 380.326256 291.186523 
C 397.070927 274.441853 406.479305 251.728019 406.479305 228.047479 
C 406.479305 204.366939 397.070927 181.653105 380.326256 164.908435 
C 363.581586 148.163765 340.867752 138.755387 317.187213 138.755387 
C 293.506673 138.755387 270.792839 148.163765 254.048169 164.908435 
C 237.303499 181.653105 227.895121 204.366939 227.895121 228.047479 
C 227.895121 251.728019 237.303499 274.441853 254.048169 291.186523 
C 270.792839 307.931193 293.506673 317.339571 317.187213 317.339571 
z
" clip-path="url(#pcfd430d012)" style="fill: #ff0000; opacity: 0.2"/>
   </g>
   <g id="patch_3">
    <path d="M 303.011572 251.263672 
C 326.692112 251.263672 349.405946 241.855293 366.150616 225.110623 
C 382.895286 208.365953 392.303665 185.652119 392.303665 161.97158 
C 392.303665 138.29104 382.895286 115.577206 366.150616 98.832536 
C 349.405946 82.087866 326.692112 72.679487 303.011572 72.679487 
C 279.331033 72.679487 256.617199 82.087866 239.872529 98.832536 
C 223.127859 115.577206 213.71948 138.29104 213.71948 161.97158 
C 213.71948 185.652119 223.127859 208.365953 239.872529 225.110623 
C 256.617199 241.855293 279.331033 251.263672 303.011572 251.263672 
z
" clip-path="url(#pcfd430d012)" style="fill: #ff0000; opacity: 0.2"/>
   </g>
   <g id="patch_4">
    <path d="M 226.729329 185.699881 
C 250.409869 185.699881 273.123703 176.291503 289.868373 159.546832 
C 306.613043 142.802162 316.021421 120.088328 316.021421 96.407789 
C 316.021421 72.727249 306.613043 50.013415 289.868373 33.268745 
C 273.123703 16.524075 250.409869 7.115697 226.729329 7.115697 
C 203.04879 7.115697 180.334955 16.524075 163.590285 33.268745 
C 146.845615 50.013415 137.437237 72.727249 137.437237 96.407789 
C 137.437237 120.088328 146.845615 142.802162 163.590285 159.546832 
C 180.334955 176.291503 203.04879 185.699881 226.729329 185.699881 
z
" clip-path="url(#pcfd430d012)" style="fill: #ff0000; opacity: 0.2"/>
   </g>
   <g id="patch_5">
    <path d="M 180.863112 181.012472 
C 204.543652 181.012472 227.257486 171.604094 244.002156 154.859423 
C 260.746826 138.114753 270.155204 115.400919 270.155204 91.72038 
C 270.155204 68.03984 260.746826 45.326006 244.002156 28.581336 
C 227.257486 11.836666 204.543652 2.428288 180.863112 2.428288 
C 157.182573 2.428288 134.468739 11.836666 117.724068 28.581336 
C 100.979398 45.326006 91.57102 68.03984 91.57102 91.72038 
C 91.57102 115.400919 100.979398 138.114753 117.724068 154.859423 
C 134.468739 171.604094 157.182573 181.012472 180.863112 181.012472 
z
" clip-path="url(#pcfd430d012)" style="fill: #ff0000; opacity: 0.2"/>
   </g>
   <g id="patch_6">
    <path d="M 180.158176 201.328157 
C 203.838716 201.328157 226.55255 191.919778 243.29722 175.175108 
C 260.04189 158.430438 269.450268 135.716604 269.450268 112.036064 
C 269.450268 88.355525 260.04189 65.641691 243.29722 48.897021 
C 226.55255 32.152351 203.838716 22.743972 180.158176 22.743972 
C 156.477637 22.743972 133.763803 32.152351 117.019132 48.897021 
C 100.274462 65.641691 90.866084 88.355525 90.866084 112.036064 
C 90.866084 135.716604 100.274462 158.430438 117.019132 175.175108 
C 133.763803 191.919778 156.477637 201.328157 180.158176 201.328157 
z
" clip-path="url(#pcfd430d012)" style="fill: #ff0000; opacity: 0.2"/>
   </g>
   <g id="patch_7">
    <path d="M 108.755063 249.262051 
C 132.435602 249.262051 155.149436 239.853673 171.894107 223.109003 
C 188.638777 206.364332 198.047155 183.650498 198.047155 159.969959 
C 198.047155 136.289419 188.638777 113.575585 171.894107 96.830915 
C 155.149436 80.086245 132.435602 70.677867 108.755063 70.677867 
C 85.074523 70.677867 62.360689 80.086245 45.616019 96.830915 
C 28.871349 113.575585 19.462971 136.289419 19.462971 159.969959 
C 19.462971 183.650498 28.871349 206.364332 45.616019 223.109003 
C 62.360689 239.853673 85.074523 249.262051 108.755063 249.262051 
z
" clip-path="url(#pcfd430d012)" style="fill: #ff0000; opacity: 0.2"/>
   </g>
   <g id="patch_8">
    <path d="M 78.626394 293.273223 
C 102.306933 293.273223 125.020767 283.864845 141.765437 267.120175 
C 158.510108 250.375505 167.918486 227.661671 167.918486 203.981131 
C 167.918486 180.300591 158.510108 157.586757 141.765437 140.842087 
C 125.020767 124.097417 102.306933 114.689039 78.626394 114.689039 
C 54.945854 114.689039 32.23202 124.097417 15.48735 140.842087 
C -1.25732 157.586757 -10.665698 180.300591 -10.665698 203.981131 
C -10.665698 227.661671 -1.25732 250.375505 15.48735 267.120175 
C 32.23202 283.864845 54.945854 293.273223 78.626394 293.273223 
z
" clip-path="url(#pcfd430d012)" style="fill: #ff0000; opacity: 0.2"/>
   </g>
   <g id="patch_9">
    <path d="M 100.034279 365.920933 
C 123.714819 365.920933 146.428653 356.512555 163.173323 339.767885 
C 179.917993 323.023215 189.326371 300.309381 189.326371 276.628841 
C 189.326371 252.948301 179.917993 230.234467 163.173323 213.489797 
C 146.428653 196.745127 123.714819 187.336749 100.034279 187.336749 
C 76.35374 187.336749 53.639906 196.745127 36.895235 213.489797 
C 20.150565 230.234467 10.742187 252.948301 10.742187 276.628841 
C 10.742187 300.309381 20.150565 323.023215 36.895235 339.767885 
C 53.639906 356.512555 76.35374 365.920933 100.034279 365.920933 
z
" clip-path="url(#pcfd430d012)" style="fill: #ff0000; opacity: 0.2"/>
   </g>
   <g id="patch_10">
    <path d="M 115.259071 389.862512 
C 138.93961 389.862512 161.653444 380.454134 178.398114 363.709463 
C 195.142785 346.964793 204.551163 324.250959 204.551163 300.57042 
C 204.551163 276.88988 195.142785 254.176046 178.398114 237.431376 
C 161.653444 220.686706 138.93961 211.278328 115.259071 211.278328 
C 91.578531 211.278328 68.864697 220.686706 52.120027 237.431376 
C 35.375357 254.176046 25.966978 276.88988 25.966978 300.57042 
C 25.966978 324.250959 35.375357 346.964793 52.120027 363.709463 
C 68.864697 380.454134 91.578531 389.862512 115.259071 389.862512 
z
" clip-path="url(#pcfd430d012)" style="fill: #ff0000; opacity: 0.2"/>
   </g>
   <g id="patch_11">
    <path d="M 207.147023 418.871712 
C 230.827563 418.871712 253.541397 409.463334 270.286067 392.718664 
C 287.030737 375.973994 296.439115 353.26016 296.439115 329.57962 
C 296.439115 305.899081 287.030737 283.185247 270.286067 266.440577 
C 253.541397 249.695906 230.827563 240.287528 207.147023 240.287528 
C 183.466483 240.287528 160.752649 249.695906 144.007979 266.440577 
C 127.263309 283.185247 117.854931 305.899081 117.854931 329.57962 
C 117.854931 353.26016 127.263309 375.973994 144.007979 392.718664 
C 160.752649 409.463334 183.466483 418.871712 207.147023 418.871712 
z
" clip-path="url(#pcfd430d012)" style="fill: #ff0000; opacity: 0.2"/>
   </g>
   <g id="patch_12">
    <path d="M 260.130036 410.245048 
C 283.810575 410.245048 306.52441 400.83667 323.26908 384.092 
C 340.01375 367.347329 349.422128 344.633495 349.422128 320.952956 
C 349.422128 297.272416 340.01375 274.558582 323.26908 257.813912 
C 306.52441 241.069242 283.810575 231.660864 260.130036 231.660864 
C 236.449496 231.660864 213.735662 241.069242 196.990992 257.813912 
C 180.246322 274.558582 170.837944 297.272416 170.837944 320.952956 
C 170.837944 344.633495 180.246322 367.347329 196.990992 384.092 
C 213.735662 400.83667 236.449496 410.245048 260.130036 410.245048 
z
" clip-path="url(#pcfd430d012)" style="fill: #ff0000; opacity: 0.2"/>
   </g>
   <g id="patch_13">
    <path d="M 313.558445 338.701475 
C 337.238984 338.701475 359.952818 329.293097 376.697489 312.548427 
C 393.442159 295.803756 402.850537 273.089922 402.850537 249.409383 
C 402.850537 225.728843 393.442159 203.015009 376.697489 186.270339 
C 359.952818 169.525669 337.238984 160.117291 313.558445 160.117291 
C 289.877905 160.117291 267.164071 169.525669 250.419401 186.270339 
C 233.674731 203.015009 224.266353 225.728843 224.266353 249.409383 
C 224.266353 273.089922 233.674731 295.803756 250.419401 312.548427 
C 267.164071 329.293097 289.877905 338.701475 313.558445 338.701475 
z
" clip-path="url(#pcfd430d012)" style="fill: #ff0000; opacity: 0.2"/>
   </g>
   <g id="patch_14">
    <path d="M 442.92723 301.424487 
C 466.60777 301.424487 489.321604 292.016109 506.066274 275.271439 
C 522.810944 258.526768 532.219322 235.812934 532.219322 212.132395 
C 532.219322 188.451855 522.810944 165.738021 506.066274 148.993351 
C 489.321604 132.248681 466.60777 122.840303 442.92723 122.840303 
C 419.24669 122.840303 396.532856 132.248681 379.788186 148.993351 
C 363.043516 165.738021 353.635138 188.451855 353.635138 212.132395 
C 353.635138 235.812934 363.043516 258.526768 379.788186 275.271439 
C 396.532856 292.016109 419.24669 301.424487 442.92723 301.424487 
z
" clip-path="url(#pcfd430d012)" style="fill: #ff0000; opacity: 0.2"/>
   </g>
   <g id="patch_15">
    <path d="M 417.310213 242.417441 
C 440.990753 242.417441 463.704587 233.009063 480.449257 216.264392 
C 497.193927 199.519722 506.602305 176.805888 506.602305 153.125349 
C 506.602305 129.444809 497.193927 106.730975 480.449257 89.986305 
C 463.704587 73.241635 440.990753 63.833257 417.310213 63.833257 
C 393.629674 63.833257 370.915839 73.241635 354.171169 89.986305 
C 337.426499 106.730975 328.018121 129.444809 328.018121 153.125349 
C 328.018121 176.805888 337.426499 199.519722 354.171169 216.264392 
C 370.915839 233.009063 393.629674 242.417441 417.310213 242.417441 
z
" clip-path="url(#pcfd430d012)" style="fill: #ff0000; opacity: 0.2"/>
   </g>
   <g id="patch_16">
    <path d="M 373.528542 231.895125 
C 397.209082 231.895125 419.922916 222.486747 436.667586 205.742077 
C 453.412256 188.997407 462.820634 166.283572 462.820634 142.603033 
C 462.820634 118.922493 453.412256 96.208659 436.667586 79.463989 
C 419.922916 62.719319 397.209082 53.310941 373.528542 53.310941 
C 349.848003 53.310941 327.134169 62.719319 310.389498 79.463989 
C 293.644828 96.208659 284.23645 118.922493 284.23645 142.603033 
C 284.23645 166.283572 293.644828 188.997407 310.389498 205.742077 
C 327.134169 222.486747 349.848003 231.895125 373.528542 231.895125 
z
" clip-path="url(#pcfd430d012)" style="fill: #ff0000; opacity: 0.2"/>
   </g>
   <g id="patch_17">
    <path d="M 299.999284 298.507189 
C 323.679824 298.507189 346.393658 289.098811 363.138328 272.354141 
C 379.882998 255.609471 389.291376 232.895636 389.291376 209.215097 
C 389.291376 185.534557 379.882998 162.820723 363.138328 146.076053 
C 346.393658 129.331383 323.679824 119.923005 299.999284 119.923005 
C 276.318744 119.923005 253.60491 129.331383 236.86024 146.076053 
C 220.11557 162.820723 210.707192 185.534557 210.707192 209.215097 
C 210.707192 232.895636 220.11557 255.609471 236.86024 272.354141 
C 253.60491 289.098811 276.318744 298.507189 299.999284 298.507189 
z
" clip-path="url(#pcfd430d012)" style="fill: #ff0000; opacity: 0.2"/>
   </g>
   <g id="patch_18">
    <path d="M 300.485487 315.706228 
C 324.166026 315.706228 346.879861 306.297849 363.624531 289.553179 
C 380.369201 272.808509 389.777579 250.094675 389.777579 226.414135 
C 389.777579 202.733596 380.369201 180.019762 363.624531 163.275092 
C 346.879861 146.530422 324.166026 137.122043 300.485487 137.122043 
C 276.804947 137.122043 254.091113 146.530422 237.346443 163.275092 
C 220.601773 180.019762 211.193395 202.733596 211.193395 226.414135 
C 211.193395 250.094675 220.601773 272.808509 237.346443 289.553179 
C 254.091113 306.297849 276.804947 315.706228 300.485487 315.706228 
z
" clip-path="url(#pcfd430d012)" style="fill: #ff0000; opacity: 0.2"/>
   </g>
   <g id="patch_19">
    <path d="M 364.204424 372.899743 
C 387.884964 372.899743 410.598798 363.491365 427.343468 346.746695 
C 444.088138 330.002025 453.496516 307.288191 453.496516 283.607651 
C 453.496516 259.927112 444.088138 237.213278 427.343468 220.468607 
C 410.598798 203.723937 387.884964 194.315559 364.204424 194.315559 
C 340.523884 194.315559 317.81005 203.723937 301.06538 220.468607 
C 284.32071 237.213278 274.912332 259.927112 274.912332 283.607651 
C 274.912332 307.288191 284.32071 330.002025 301.06538 346.746695 
C 317.81005 363.491365 340.523884 372.899743 364.204424 372.899743 
z
" clip-path="url(#pcfd430d012)" style="fill: #ff0000; opacity: 0.2"/>
   </g>
   <g id="patch_20">
    <path d="M 417.662676 365.613387 
C 441.343216 365.613387 464.05705 356.205009 480.80172 339.460339 
C 497.54639 322.715669 506.954768 300.001835 506.954768 276.321295 
C 506.954768 252.640755 497.54639 229.926921 480.80172 213.182251 
C 464.05705 196.437581 441.343216 187.029203 417.662676 187.029203 
C 393.982136 187.029203 371.268302 196.437581 354.523632 213.182251 
C 337.778962 229.926921 328.370584 252.640755 328.370584 276.321295 
C 328.370584 300.001835 337.778962 322.715669 354.523632 339.460339 
C 371.268302 356.205009 393.982136 365.613387 417.662676 365.613387 
z
" clip-path="url(#pcfd430d012)" style="fill: #ff0000; opacity: 0.2"/>
   </g>
   <g id="patch_21">
    <path d="M 317.187213 317.339571 
C 340.867752 317.339571 363.581586 307.931193 380.326256 291.186523 
C 397.070927 274.441853 406.479305 251.728019 406.479305 228.047479 
C 406.479305 204.366939 397.070927 181.653105 380.326256 164.908435 
C 363.581586 148.163765 340.867752 138.755387 317.187213 138.755387 
C 293.506673 138.755387 270.792839 148.163765 254.048169 164.908435 
C 237.303499 181.653105 227.895121 204.366939 227.895121 228.047479 
C 227.895121 251.728019 237.303499 274.441853 254.048169 291.186523 
C 270.792839 307.931193 293.506673 317.339571 317.187213 317.339571 
L 317.187213 317.339571 
z
" clip-path="url(#pcfd430d012)" style="fill: none; stroke: #ff0000; stroke-width: 2; stroke-linejoin: miter"/>
   </g>
   <g id="patch_22">
    <path d="M 303.011572 251.263672 
C 326.692112 251.263672 349.405946 241.855293 366.150616 225.110623 
C 382.895286 208.365953 392.303665 185.652119 392.303665 161.97158 
C 392.303665 138.29104 382.895286 115.577206 366.150616 98.832536 
C 349.405946 82.087866 326.692112 72.679487 303.011572 72.679487 
C 279.331033 72.679487 256.617199 82.087866 239.872529 98.832536 
C 223.127859 115.577206 213.71948 138.29104 213.71948 161.97158 
C 213.71948 185.652119 223.127859 208.365953 239.872529 225.110623 
C 256.617199 241.855293 279.331033 251.263672 303.011572 251.263672 
L 303.011572 251.263672 
z
" clip-path="url(#pcfd430d012)" style="fill: none; stroke: #ff0000; stroke-width: 2; stroke-linejoin: miter"/>
   </g>
   <g id="patch_23">
    <path d="M 226.729329 185.699881 
C 250.409869 185.699881 273.123703 176.291503 289.868373 159.546832 
C 306.613043 142.802162 316.021421 120.088328 316.021421 96.407789 
C 316.021421 72.727249 306.613043 50.013415 289.868373 33.268745 
C 273.123703 16.524075 250.409869 7.115697 226.729329 7.115697 
C 203.04879 7.115697 180.334955 16.524075 163.590285 33.268745 
C 146.845615 50.013415 137.437237 72.727249 137.437237 96.407789 
C 137.437237 120.088328 146.845615 142.802162 163.590285 159.546832 
C 180.334955 176.291503 203.04879 185.699881 226.729329 185.699881 
L 226.729329 185.699881 
z
" clip-path="url(#pcfd430d012)" style="fill: none; stroke: #ff0000; stroke-width: 2; stroke-linejoin: miter"/>
   </g>
   <g id="patch_24">
    <path d="M 180.863112 181.012472 
C 204.543652 181.012472 227.257486 171.604094 244.002156 154.859423 
C 260.746826 138.114753 270.155204 115.400919 270.155204 91.72038 
C 270.155204 68.03984 260.746826 45.326006 244.002156 28.581336 
C 227.257486 11.836666 204.543652 2.428288 180.863112 2.428288 
C 157.182573 2.428288 134.468739 11.836666 117.724068 28.581336 
C 100.979398 45.326006 91.57102 68.03984 91.57102 91.72038 
C 91.57102 115.400919 100.979398 138.114753 117.724068 154.859423 
C 134.468739 171.604094 157.182573 181.012472 180.863112 181.012472 
L 180.863112 181.012472 
z
" clip-path="url(#pcfd430d012)" style="fill: none; stroke: #ff0000; stroke-width: 2; stroke-linejoin: miter"/>
   </g>
   <g id="patch_25">
    <path d="M 180.158176 201.328157 
C 203.838716 201.328157 226.55255 191.919778 243.29722 175.175108 
C 260.04189 158.430438 269.450268 135.716604 269.450268 112.036064 
C 269.450268 88.355525 260.04189 65.641691 243.29722 48.897021 
C 226.55255 32.152351 203.838716 22.743972 180.158176 22.743972 
C 156.477637 22.743972 133.763803 32.152351 117.019132 48.897021 
C 100.274462 65.641691 90.866084 88.355525 90.866084 112.036064 
C 90.866084 135.716604 100.274462 158.430438 117.019132 175.175108 
C 133.763803 191.919778 156.477637 201.328157 180.158176 201.328157 
L 180.158176 201.328157 
z
" clip-path="url(#pcfd430d012)" style="fill: none; stroke: #ff0000; stroke-width: 2; stroke-linejoin: miter"/>
   </g>
   <g id="patch_26">
    <path d="M 108.755063 249.262051 
C 132.435602 249.262051 155.149436 239.853673 171.894107 223.109003 
C 188.638777 206.364332 198.047155 183.650498 198.047155 159.969959 
C 198.047155 136.289419 188.638777 113.575585 171.894107 96.830915 
C 155.149436 80.086245 132.435602 70.677867 108.755063 70.677867 
C 85.074523 70.677867 62.360689 80.086245 45.616019 96.830915 
C 28.871349 113.575585 19.462971 136.289419 19.462971 159.969959 
C 19.462971 183.650498 28.871349 206.364332 45.616019 223.109003 
C 62.360689 239.853673 85.074523 249.262051 108.755063 249.262051 
L 108.755063 249.262051 
z
" clip-path="url(#pcfd430d012)" style="fill: none; stroke: #ff0000; stroke-width: 2; stroke-linejoin: miter"/>
   </g>
   <g id="patch_27">
    <path d="M 78.626394 293.273223 
C 102.306933 293.273223 125.020767 283.864845 141.765437 267.120175 
C 158.510108 250.375505 167.918486 227.661671 167.918486 203.981131 
C 167.918486 180.300591 158.510108 157.586757 141.765437 140.842087 
C 125.020767 124.097417 102.306933 114.689039 78.626394 114.689039 
C 54.945854 114.689039 32.23202 124.097417 15.48735 140.842087 
C -1.25732 157.586757 -10.665698 180.300591 -10.665698 203.981131 
C -10.665698 227.661671 -1.25732 250.375505 15.48735 267.120175 
C 32.23202 283.864845 54.945854 293.273223 78.626394 293.273223 
L 78.626394 293.273223 
z
" clip-path="url(#pcfd430d012)" style="fill: none; stroke: #ff0000; stroke-width: 2; stroke-linejoin: miter"/>
   </g>
   <g id="patch_28">
    <path d="M 100.034279 365.920933 
C 123.714819 365.920933 146.428653 356.512555 163.173323 339.767885 
C 179.917993 323.023215 189.326371 300.309381 189.326371 276.628841 
C 189.326371 252.948301 179.917993 230.234467 163.173323 213.489797 
C 146.428653 196.745127 123.714819 187.336749 100.034279 187.336749 
C 76.35374 187.336749 53.639906 196.745127 36.895235 213.489797 
C 20.150565 230.234467 10.742187 252.948301 10.742187 276.628841 
C 10.742187 300.309381 20.150565 323.023215 36.895235 339.767885 
C 53.639906 356.512555 76.35374 365.920933 100.034279 365.920933 
L 100.034279 365.920933 
z
" clip-path="url(#pcfd430d012)" style="fill: none; stroke: #ff0000; stroke-width: 2; stroke-linejoin: miter"/>
   </g>
   <g id="patch_29">
    <path d="M 115.259071 389.862512 
C 138.93961 389.862512 161.653444 380.454134 178.398114 363.709463 
C 195.142785 346.964793 204.551163 324.250959 204.551163 300.57042 
C 204.551163 276.88988 195.142785 254.176046 178.398114 237.431376 
C 161.653444 220.686706 138.93961 211.278328 115.259071 211.278328 
C 91.578531 211.278328 68.864697 220.686706 52.120027 237.431376 
C 35.375357 254.176046 25.966978 276.88988 25.966978 300.57042 
C 25.966978 324.250959 35.375357 346.964793 52.120027 363.709463 
C 68.864697 380.454134 91.578531 389.862512 115.259071 389.862512 
L 115.259071 389.862512 
z
" clip-path="url(#pcfd430d012)" style="fill: none; stroke: #ff0000; stroke-width: 2; stroke-linejoin: miter"/>
   </g>
   <g id="patch_30">
    <path d="M 207.147023 418.871712 
C 230.827563 418.871712 253.541397 409.463334 270.286067 392.718664 
C 287.030737 375.973994 296.439115 353.26016 296.439115 329.57962 
C 296.439115 305.899081 287.030737 283.185247 270.286067 266.440577 
C 253.541397 249.695906 230.827563 240.287528 207.147023 240.287528 
C 183.466483 240.287528 160.752649 249.695906 144.007979 266.440577 
C 127.263309 283.185247 117.854931 305.899081 117.854931 329.57962 
C 117.854931 353.26016 127.263309 375.973994 144.007979 392.718664 
C 160.752649 409.463334 183.466483 418.871712 207.147023 418.871712 
L 207.147023 418.871712 
z
" clip-path="url(#pcfd430d012)" style="fill: none; stroke: #ff0000; stroke-width: 2; stroke-linejoin: miter"/>
   </g>
   <g id="patch_31">
    <path d="M 260.130036 410.245048 
C 283.810575 410.245048 306.52441 400.83667 323.26908 384.092 
C 340.01375 367.347329 349.422128 344.633495 349.422128 320.952956 
C 349.422128 297.272416 340.01375 274.558582 323.26908 257.813912 
C 306.52441 241.069242 283.810575 231.660864 260.130036 231.660864 
C 236.449496 231.660864 213.735662 241.069242 196.990992 257.813912 
C 180.246322 274.558582 170.837944 297.272416 170.837944 320.952956 
C 170.837944 344.633495 180.246322 367.347329 196.990992 384.092 
C 213.735662 400.83667 236.449496 410.245048 260.130036 410.245048 
L 260.130036 410.245048 
z
" clip-path="url(#pcfd430d012)" style="fill: none; stroke: #ff0000; stroke-width: 2; stroke-linejoin: miter"/>
   </g>
   <g id="patch_32">
    <path d="M 313.558445 338.701475 
C 337.238984 338.701475 359.952818 329.293097 376.697489 312.548427 
C 393.442159 295.803756 402.850537 273.089922 402.850537 249.409383 
C 402.850537 225.728843 393.442159 203.015009 376.697489 186.270339 
C 359.952818 169.525669 337.238984 160.117291 313.558445 160.117291 
C 289.877905 160.117291 267.164071 169.525669 250.419401 186.270339 
C 233.674731 203.015009 224.266353 225.728843 224.266353 249.409383 
C 224.266353 273.089922 233.674731 295.803756 250.419401 312.548427 
C 267.164071 329.293097 289.877905 338.701475 313.558445 338.701475 
L 313.558445 338.701475 
z
" clip-path="url(#pcfd430d012)" style="fill: none; stroke: #ff0000; stroke-width: 2; stroke-linejoin: miter"/>
   </g>
   <g id="patch_33">
    <path d="M 442.92723 301.424487 
C 466.60777 301.424487 489.321604 292.016109 506.066274 275.271439 
C 522.810944 258.526768 532.219322 235.812934 532.219322 212.132395 
C 532.219322 188.451855 522.810944 165.738021 506.066274 148.993351 
C 489.321604 132.248681 466.60777 122.840303 442.92723 122.840303 
C 419.24669 122.840303 396.532856 132.248681 379.788186 148.993351 
C 363.043516 165.738021 353.635138 188.451855 353.635138 212.132395 
C 353.635138 235.812934 363.043516 258.526768 379.788186 275.271439 
C 396.532856 292.016109 419.24669 301.424487 442.92723 301.424487 
L 442.92723 301.424487 
z
" clip-path="url(#pcfd430d012)" style="fill: none; stroke: #ff0000; stroke-width: 2; stroke-linejoin: miter"/>
   </g>
   <g id="patch_34">
    <path d="M 417.310213 242.417441 
C 440.990753 242.417441 463.704587 233.009063 480.449257 216.264392 
C 497.193927 199.519722 506.602305 176.805888 506.602305 153.125349 
C 506.602305 129.444809 497.193927 106.730975 480.449257 89.986305 
C 463.704587 73.241635 440.990753 63.833257 417.310213 63.833257 
C 393.629674 63.833257 370.915839 73.241635 354.171169 89.986305 
C 337.426499 106.730975 328.018121 129.444809 328.018121 153.125349 
C 328.018121 176.805888 337.426499 199.519722 354.171169 216.264392 
C 370.915839 233.009063 393.629674 242.417441 417.310213 242.417441 
L 417.310213 242.417441 
z
" clip-path="url(#pcfd430d012)" style="fill: none; stroke: #ff0000; stroke-width: 2; stroke-linejoin: miter"/>
   </g>
   <g id="patch_35">
    <path d="M 373.528542 231.895125 
C 397.209082 231.895125 419.922916 222.486747 436.667586 205.742077 
C 453.412256 188.997407 462.820634 166.283572 462.820634 142.603033 
C 462.820634 118.922493 453.412256 96.208659 436.667586 79.463989 
C 419.922916 62.719319 397.209082 53.310941 373.528542 53.310941 
C 349.848003 53.310941 327.134169 62.719319 310.389498 79.463989 
C 293.644828 96.208659 284.23645 118.922493 284.23645 142.603033 
C 284.23645 166.283572 293.644828 188.997407 310.389498 205.742077 
C 327.134169 222.486747 349.848003 231.895125 373.528542 231.895125 
L 373.528542 231.895125 
z
" clip-path="url(#pcfd430d012)" style="fill: none; stroke: #ff0000; stroke-width: 2; stroke-linejoin: miter"/>
   </g>
   <g id="patch_36">
    <path d="M 299.999284 298.507189 
C 323.679824 298.507189 346.393658 289.098811 363.138328 272.354141 
C 379.882998 255.609471 389.291376 232.895636 389.291376 209.215097 
C 389.291376 185.534557 379.882998 162.820723 363.138328 146.076053 
C 346.393658 129.331383 323.679824 119.923005 299.999284 119.923005 
C 276.318744 119.923005 253.60491 129.331383 236.86024 146.076053 
C 220.11557 162.820723 210.707192 185.534557 210.707192 209.215097 
C 210.707192 232.895636 220.11557 255.609471 236.86024 272.354141 
C 253.60491 289.098811 276.318744 298.507189 299.999284 298.507189 
L 299.999284 298.507189 
z
" clip-path="url(#pcfd430d012)" style="fill: none; stroke: #ff0000; stroke-width: 2; stroke-linejoin: miter"/>
   </g>
   <g id="patch_37">
    <path d="M 300.485487 315.706228 
C 324.166026 315.706228 346.879861 306.297849 363.624531 289.553179 
C 380.369201 272.808509 389.777579 250.094675 389.777579 226.414135 
C 389.777579 202.733596 380.369201 180.019762 363.624531 163.275092 
C 346.879861 146.530422 324.166026 137.122043 300.485487 137.122043 
C 276.804947 137.122043 254.091113 146.530422 237.346443 163.275092 
C 220.601773 180.019762 211.193395 202.733596 211.193395 226.414135 
C 211.193395 250.094675 220.601773 272.808509 237.346443 289.553179 
C 254.091113 306.297849 276.804947 315.706228 300.485487 315.706228 
L 300.485487 315.706228 
z
" clip-path="url(#pcfd430d012)" style="fill: none; stroke: #ff0000; stroke-width: 2; stroke-linejoin: miter"/>
   </g>
   <g id="patch_38">
    <path d="M 364.204424 372.899743 
C 387.884964 372.899743 410.598798 363.491365 427.343468 346.746695 
C 444.088138 330.002025 453.496516 307.288191 453.496516 283.607651 
C 453.496516 259.927112 444.088138 237.213278 427.343468 220.468607 
C 410.598798 203.723937 387.884964 194.315559 364.204424 194.315559 
C 340.523884 194.315559 317.81005 203.723937 301.06538 220.468607 
C 284.32071 237.213278 274.912332 259.927112 274.912332 283.607651 
C 274.912332 307.288191 284.32071 330.002025 301.06538 346.746695 
C 317.81005 363.491365 340.523884 372.899743 364.204424 372.899743 
L 364.204424 372.899743 
z
" clip-path="url(#pcfd430d012)" style="fill: none; stroke: #ff0000; stroke-width: 2; stroke-linejoin: miter"/>
   </g>
   <g id="patch_39">
    <path d="M 417.662676 365.613387 
C 441.343216 365.613387 464.05705 356.205009 480.80172 339.460339 
C 497.54639 322.715669 506.954768 300.001835 506.954768 276.321295 
C 506.954768 252.640755 497.54639 229.926921 480.80172 213.182251 
C 464.05705 196.437581 441.343216 187.029203 417.662676 187.029203 
C 393.982136 187.029203 371.268302 196.437581 354.523632 213.182251 
C 337.778962 229.926921 328.370584 252.640755 328.370584 276.321295 
C 328.370584 300.001835 337.778962 322.715669 354.523632 339.460339 
C 371.268302 356.205009 393.982136 365.613387 417.662676 365.613387 
L 417.662676 365.613387 
z
" clip-path="url(#pcfd430d012)" style="fill: none; stroke: #ff0000; stroke-width: 2; stroke-linejoin: miter"/>
   </g>
   <g id="line2d_1">
    <path d="M 317.187213 228.047479 
L 303.011572 161.97158 
" clip-path="url(#pcfd430d012)" style="fill: none; stroke: #000000; stroke-width: 2; stroke-linecap: square"/>
   </g>
   <g id="line2d_2">
    <path d="M 317.187213 228.047479 
L 313.558445 249.409383 
" clip-path="url(#pcfd430d012)" style="fill: none; stroke: #000000; stroke-width: 2; stroke-linecap: square"/>
   </g>
   <g id="line2d_3">
    <path d="M 317.187213 228.047479 
L 299.999284 209.215097 
" clip-path="url(#pcfd430d012)" style="fill: none; stroke: #000000; stroke-width: 2; stroke-linecap: square"/>
   </g>
   <g id="line2d_4">
    <path d="M 317.187213 228.047479 
L 300.485487 226.414135 
" clip-path="url(#pcfd430d012)" style="fill: none; stroke: #000000; stroke-width: 2; stroke-linecap: square"/>
   </g>
   <g id="line2d_5">
    <path d="M 317.187213 228.047479 
L 364.204424 283.607651 
" clip-path="url(#pcfd430d012)" style="fill: none; stroke: #000000; stroke-width: 2; stroke-linecap: square"/>
   </g>
   <g id="line2d_6">
    <path d="M 303.011572 161.97158 
L 313.558445 249.409383 
" clip-path="url(#pcfd430d012)" style="fill: none; stroke: #000000; stroke-width: 2; stroke-linecap: square"/>
   </g>
   <g id="line2d_7">
    <path d="M 303.011572 161.97158 
L 373.528542 142.603033 
" clip-path="url(#pcfd430d012)" style="fill: none; stroke: #000000; stroke-width: 2; stroke-linecap: square"/>
   </g>
   <g id="line2d_8">
    <path d="M 303.011572 161.97158 
L 299.999284 209.215097 
" clip-path="url(#pcfd430d012)" style="fill: none; stroke: #000000; stroke-width: 2; stroke-linecap: square"/>
   </g>
   <g id="line2d_9">
    <path d="M 303.011572 161.97158 
L 300.485487 226.414135 
" clip-path="url(#pcfd430d012)" style="fill: none; stroke: #000000; stroke-width: 2; stroke-linecap: square"/>
   </g>
   <g id="line2d_10">
    <path d="M 226.729329 96.407789 
L 180.863112 91.72038 
" clip-path="url(#pcfd430d012)" style="fill: none; stroke: #000000; stroke-width: 2; stroke-linecap: square"/>
   </g>
   <g id="line2d_11">
    <path d="M 226.729329 96.407789 
L 180.158176 112.036064 
" clip-path="url(#pcfd430d012)" style="fill: none; stroke: #000000; stroke-width: 2; stroke-linecap: square"/>
   </g>
   <g id="line2d_12">
    <path d="M 180.863112 91.72038 
L 180.158176 112.036064 
" clip-path="url(#pcfd430d012)" style="fill: none; stroke: #000000; stroke-width: 2; stroke-linecap: square"/>
   </g>
   <g id="line2d_13">
    <path d="M 180.158176 112.036064 
L 108.755063 159.969959 
" clip-path="url(#pcfd430d012)" style="fill: none; stroke: #000000; stroke-width: 2; stroke-linecap: square"/>
   </g>
   <g id="line2d_14">
    <path d="M 108.755063 159.969959 
L 78.626394 203.981131 
" clip-path="url(#pcfd430d012)" style="fill: none; stroke: #000000; stroke-width: 2; stroke-linecap: square"/>
   </g>
   <g id="line2d_15">
    <path d="M 78.626394 203.981131 
L 100.034279 276.628841 
" clip-path="url(#pcfd430d012)" style="fill: none; stroke: #000000; stroke-width: 2; stroke-linecap: square"/>
   </g>
   <g id="line2d_16">
    <path d="M 100.034279 276.628841 
L 115.259071 300.57042 
" clip-path="url(#pcfd430d012)" style="fill: none; stroke: #000000; stroke-width: 2; stroke-linecap: square"/>
   </g>
   <g id="line2d_17">
    <path d="M 207.147023 329.57962 
L 260.130036 320.952956 
" clip-path="url(#pcfd430d012)" style="fill: none; stroke: #000000; stroke-width: 2; stroke-linecap: square"/>
   </g>
   <g id="line2d_18">
    <path d="M 260.130036 320.952956 
L 313.558445 249.409383 
" clip-path="url(#pcfd430d012)" style="fill: none; stroke: #000000; stroke-width: 2; stroke-linecap: square"/>
   </g>
   <g id="line2d_19">
    <path d="M 313.558445 249.409383 
L 299.999284 209.215097 
" clip-path="url(#pcfd430d012)" style="fill: none; stroke: #000000; stroke-width: 2; stroke-linecap: square"/>
   </g>
   <g id="line2d_20">
    <path d="M 313.558445 249.409383 
L 300.485487 226.414135 
" clip-path="url(#pcfd430d012)" style="fill: none; stroke: #000000; stroke-width: 2; stroke-linecap: square"/>
   </g>
   <g id="line2d_21">
    <path d="M 313.558445 249.409383 
L 364.204424 283.607651 
" clip-path="url(#pcfd430d012)" style="fill: none; stroke: #000000; stroke-width: 2; stroke-linecap: square"/>
   </g>
   <g id="line2d_22">
    <path d="M 442.92723 212.132395 
L 417.310213 153.125349 
" clip-path="url(#pcfd430d012)" style="fill: none; stroke: #000000; stroke-width: 2; stroke-linecap: square"/>
   </g>
   <g id="line2d_23">
    <path d="M 442.92723 212.132395 
L 417.662676 276.321295 
" clip-path="url(#pcfd430d012)" style="fill: none; stroke: #000000; stroke-width: 2; stroke-linecap: square"/>
   </g>
   <g id="line2d_24">
    <path d="M 417.310213 153.125349 
L 373.528542 142.603033 
" clip-path="url(#pcfd430d012)" style="fill: none; stroke: #000000; stroke-width: 2; stroke-linecap: square"/>
   </g>
   <g id="line2d_25">
    <path d="M 299.999284 209.215097 
L 300.485487 226.414135 
" clip-path="url(#pcfd430d012)" style="fill: none; stroke: #000000; stroke-width: 2; stroke-linecap: square"/>
   </g>
   <g id="line2d_26">
    <path d="M 300.485487 226.414135 
L 364.204424 283.607651 
" clip-path="url(#pcfd430d012)" style="fill: none; stroke: #000000; stroke-width: 2; stroke-linecap: square"/>
   </g>
   <g id="line2d_27">
    <path d="M 364.204424 283.607651 
L 417.662676 276.321295 
" clip-path="url(#pcfd430d012)" style="fill: none; stroke: #000000; stroke-width: 2; stroke-linecap: square"/>
   </g>
   <g id="PathCollection_2">
    <defs>
     <path id="mc611405d60" d="M 0 3 
C 0.795609 3 1.55874 2.683901 2.12132 2.12132 
C 2.683901 1.55874 3 0.795609 3 0 
C 3 -0.795609 2.683901 -1.55874 2.12132 -2.12132 
C 1.55874 -2.683901 0.795609 -3 0 -3 
C -0.795609 -3 -1.55874 -2.683901 -2.12132 -2.12132 
C -2.683901 -1.55874 -3 -0.795609 -3 0 
C -3 0.795609 -2.683901 1.55874 -2.12132 2.12132 
C -1.55874 2.683901 -0.795609 3 0 3 
z
" style="stroke: #0000ff"/>
    </defs>
    <g clip-path="url(#pcfd430d012)">
     <use xlink:href="#mc611405d60" x="317.187213" y="228.047479" style="fill: #0000ff; stroke: #0000ff"/>
     <use xlink:href="#mc611405d60" x="303.011572" y="161.97158" style="fill: #0000ff; stroke: #0000ff"/>
     <use xlink:href="#mc611405d60" x="226.729329" y="96.407789" style="fill: #0000ff; stroke: #0000ff"/>
     <use xlink:href="#mc611405d60" x="180.863112" y="91.72038" style="fill: #0000ff; stroke: #0000ff"/>
     <use xlink:href="#mc611405d60" x="180.158176" y="112.036064" style="fill: #0000ff; stroke: #0000ff"/>
     <use xlink:href="#mc611405d60" x="108.755063" y="159.969959" style="fill: #0000ff; stroke: #0000ff"/>
     <use xlink:href="#mc611405d60" x="78.626394" y="203.981131" style="fill: #0000ff; stroke: #0000ff"/>
     <use xlink:href="#mc611405d60" x="100.034279" y="276.628841" style="fill: #0000ff; stroke: #0000ff"/>
     <use xlink:href="#mc611405d60" x="115.259071" y="300.57042" style="fill: #0000ff; stroke: #0000ff"/>
     <use xlink:href="#mc611405d60" x="207.147023" y="329.57962" style="fill: #0000ff; stroke: #0000ff"/>
     <use xlink:href="#mc611405d60" x="260.130036" y="320.952956" style="fill: #0000ff; stroke: #0000ff"/>
     <use xlink:href="#mc611405d60" x="313.558445" y="249.409383" style="fill: #0000ff; stroke: #0000ff"/>
     <use xlink:href="#mc611405d60" x="442.92723" y="212.132395" style="fill: #0000ff; stroke: #0000ff"/>
     <use xlink:href="#mc611405d60" x="417.310213" y="153.125349" style="fill: #0000ff; stroke: #0000ff"/>
     <use xlink:href="#mc611405d60" x="373.528542" y="142.603033" style="fill: #0000ff; stroke: #0000ff"/>
     <use xlink:href="#mc611405d60" x="299.999284" y="209.215097" style="fill: #0000ff; stroke: #0000ff"/>
     <use xlink:href="#mc611405d60" x="300.485487" y="226.414135" style="fill: #0000ff; stroke: #0000ff"/>
     <use xlink:href="#mc611405d60" x="364.204424" y="283.607651" style="fill: #0000ff; stroke: #0000ff"/>
     <use xlink:href="#mc611405d60" x="417.662676" y="276.321295" style="fill: #0000ff; stroke: #0000ff"/>
    </g>
   </g>
  </g>
  <g id="axes_2">
   <g id="patch_40">
    <path d="M 558.446376 414.1 
L 1065.6 414.1 
L 1065.6 7.2 
L 558.446376 7.2 
z
" style="fill: #ffffff"/>
   </g>
   <g id="matplotlib.axis_1">
    <g id="xtick_1">
     <g id="line2d_28">
      <defs>
       <path id="m066606faa4" d="M 0 0 
L 0 3.5 
" style="stroke: #000000; stroke-width: 0.8"/>
      </defs>
      <g>
       <use xlink:href="#m066606faa4" x="571.792524" y="414.1" style="stroke: #000000; stroke-width: 0.8"/>
      </g>
     </g>
    </g>
    <g id="xtick_2">
     <g id="line2d_29">
      <g>
       <use xlink:href="#m066606faa4" x="598.48482" y="414.1" style="stroke: #000000; stroke-width: 0.8"/>
      </g>
     </g>
    </g>
    <g id="xtick_3">
     <g id="line2d_30">
      <g>
       <use xlink:href="#m066606faa4" x="625.177116" y="414.1" style="stroke: #000000; stroke-width: 0.8"/>
      </g>
     </g>
    </g>
    <g id="xtick_4">
     <g id="line2d_31">
      <g>
       <use xlink:href="#m066606faa4" x="651.869412" y="414.1" style="stroke: #000000; stroke-width: 0.8"/>
      </g>
     </g>
    </g>
    <g id="xtick_5">
     <g id="line2d_32">
      <g>
       <use xlink:href="#m066606faa4" x="678.561708" y="414.1" style="stroke: #000000; stroke-width: 0.8"/>
      </g>
     </g>
    </g>
    <g id="xtick_6">
     <g id="line2d_33">
      <g>
       <use xlink:href="#m066606faa4" x="705.254004" y="414.1" style="stroke: #000000; stroke-width: 0.8"/>
      </g>
     </g>
    </g>
    <g id="xtick_7">
     <g id="line2d_34">
      <g>
       <use xlink:href="#m066606faa4" x="731.9463" y="414.1" style="stroke: #000000; stroke-width: 0.8"/>
      </g>
     </g>
    </g>
    <g id="xtick_8">
     <g id="line2d_35">
      <g>
       <use xlink:href="#m066606faa4" x="758.638596" y="414.1" style="stroke: #000000; stroke-width: 0.8"/>
      </g>
     </g>
    </g>
    <g id="xtick_9">
     <g id="line2d_36">
      <g>
       <use xlink:href="#m066606faa4" x="785.330892" y="414.1" style="stroke: #000000; stroke-width: 0.8"/>
      </g>
     </g>
    </g>
    <g id="xtick_10">
     <g id="line2d_37">
      <g>
       <use xlink:href="#m066606faa4" x="812.023188" y="414.1" style="stroke: #000000; stroke-width: 0.8"/>
      </g>
     </g>
    </g>
    <g id="xtick_11">
     <g id="line2d_38">
      <g>
       <use xlink:href="#m066606faa4" x="838.715484" y="414.1" style="stroke: #000000; stroke-width: 0.8"/>
      </g>
     </g>
    </g>
    <g id="xtick_12">
     <g id="line2d_39">
      <g>
       <use xlink:href="#m066606faa4" x="865.40778" y="414.1" style="stroke: #000000; stroke-width: 0.8"/>
      </g>
     </g>
    </g>
    <g id="xtick_13">
     <g id="line2d_40">
      <g>
       <use xlink:href="#m066606faa4" x="892.100076" y="414.1" style="stroke: #000000; stroke-width: 0.8"/>
      </g>
     </g>
    </g>
    <g id="xtick_14">
     <g id="line2d_41">
      <g>
       <use xlink:href="#m066606faa4" x="918.792372" y="414.1" style="stroke: #000000; stroke-width: 0.8"/>
      </g>
     </g>
    </g>
    <g id="xtick_15">
     <g id="line2d_42">
      <g>
       <use xlink:href="#m066606faa4" x="945.484668" y="414.1" style="stroke: #000000; stroke-width: 0.8"/>
      </g>
     </g>
    </g>
    <g id="xtick_16">
     <g id="line2d_43">
      <g>
       <use xlink:href="#m066606faa4" x="972.176964" y="414.1" style="stroke: #000000; stroke-width: 0.8"/>
      </g>
     </g>
    </g>
    <g id="xtick_17">
     <g id="line2d_44">
      <g>
       <use xlink:href="#m066606faa4" x="998.86926" y="414.1" style="stroke: #000000; stroke-width: 0.8"/>
      </g>
     </g>
    </g>
    <g id="xtick_18">
     <g id="line2d_45">
      <g>
       <use xlink:href="#m066606faa4" x="1025.561556" y="414.1" style="stroke: #000000; stroke-width: 0.8"/>
      </g>
     </g>
    </g>
    <g id="xtick_19">
     <g id="line2d_46">
      <g>
       <use xlink:href="#m066606faa4" x="1052.253852" y="414.1" style="stroke: #000000; stroke-width: 0.8"/>
      </g>
     </g>
    </g>
   </g>
   <g id="matplotlib.axis_2">
    <g id="ytick_1">
     <g id="line2d_47">
      <defs>
       <path id="m2406e1d3d3" d="M 0 0 
L -3.5 0 
" style="stroke: #000000; stroke-width: 0.8"/>
      </defs>
      <g>
       <use xlink:href="#m2406e1d3d3" x="558.446376" y="95.989663" style="stroke: #000000; stroke-width: 0.8"/>
      </g>
     </g>
     <g id="text_1">
      <!-- $r_{17}$ -->
      <g transform="translate(524.846376 103.588101) scale(0.2 -0.2)">
       <defs>
        <path id="DejaVuSans-Oblique-72" d="M 2853 2969 
Q 2766 3016 2653 3041 
Q 2541 3066 2413 3066 
Q 1953 3066 1609 2717 
Q 1266 2369 1153 1784 
L 800 0 
L 225 0 
L 909 3500 
L 1484 3500 
L 1375 2956 
Q 1603 3259 1920 3421 
Q 2238 3584 2597 3584 
Q 2691 3584 2781 3573 
Q 2872 3563 2963 3538 
L 2853 2969 
z
" transform="scale(0.015625)"/>
        <path id="DejaVuSans-31" d="M 794 531 
L 1825 531 
L 1825 4091 
L 703 3866 
L 703 4441 
L 1819 4666 
L 2450 4666 
L 2450 531 
L 3481 531 
L 3481 0 
L 794 0 
L 794 531 
z
" transform="scale(0.015625)"/>
        <path id="DejaVuSans-37" d="M 525 4666 
L 3525 4666 
L 3525 4397 
L 1831 0 
L 1172 0 
L 2766 4134 
L 525 4134 
L 525 4666 
z
" transform="scale(0.015625)"/>
       </defs>
       <use xlink:href="#DejaVuSans-Oblique-72"/>
       <use xlink:href="#DejaVuSans-31" transform="translate(41.113281 -16.40625) scale(0.7)"/>
       <use xlink:href="#DejaVuSans-37" transform="translate(85.649414 -16.40625) scale(0.7)"/>
      </g>
     </g>
    </g>
   </g>
   <g id="line2d_48">
    <path d="M 598.48482 414.1 
L 598.48482 341.680163 
L 625.177116 341.680163 
L 625.177116 414.1 
" clip-path="url(#p4ad1d0d72e)" style="fill: none; stroke: #ff0000; stroke-width: 5; stroke-linecap: square"/>
   </g>
   <g id="line2d_49">
    <path d="M 571.792524 414.1 
L 571.792524 249.846779 
L 611.830968 249.846779 
L 611.830968 341.680163 
" clip-path="url(#p4ad1d0d72e)" style="fill: none; stroke: #ff0000; stroke-width: 5; stroke-linecap: square"/>
   </g>
   <g id="line2d_50">
    <path d="M 651.869412 414.1 
L 651.869412 313.020995 
L 678.561708 313.020995 
L 678.561708 414.1 
" clip-path="url(#p4ad1d0d72e)" style="fill: none; stroke: #ff0000; stroke-width: 5; stroke-linecap: square"/>
   </g>
   <g id="line2d_51">
    <path d="M 705.254004 414.1 
L 705.254004 224.086462 
L 731.9463 224.086462 
L 731.9463 414.1 
" clip-path="url(#p4ad1d0d72e)" style="fill: none; stroke: #ff0000; stroke-width: 5; stroke-linecap: square"/>
   </g>
   <g id="line2d_52">
    <path d="M 665.21556 313.020995 
L 665.21556 144.28327 
L 718.600152 144.28327 
L 718.600152 224.086462 
" clip-path="url(#p4ad1d0d72e)" style="fill: none; stroke: #ff0000; stroke-width: 5; stroke-linecap: square"/>
   </g>
   <g id="line2d_53">
    <path d="M 591.811746 249.846779 
L 591.811746 107.716708 
L 691.907856 107.716708 
L 691.907856 144.28327 
" clip-path="url(#p4ad1d0d72e)" style="fill: none; stroke: #ff0000; stroke-width: 5; stroke-linecap: square"/>
   </g>
   <g id="line2d_54">
    <path d="M 758.638596 414.1 
L 758.638596 222.858095 
L 785.330892 222.858095 
L 785.330892 414.1 
" clip-path="url(#p4ad1d0d72e)" style="fill: none; stroke: #ff0000; stroke-width: 5; stroke-linecap: square"/>
   </g>
   <g id="line2d_55">
    <path d="M 892.100076 414.1 
L 892.100076 354.314891 
L 918.792372 354.314891 
L 918.792372 414.1 
" clip-path="url(#p4ad1d0d72e)" style="fill: none; stroke: #ff0000; stroke-width: 5; stroke-linecap: square"/>
   </g>
   <g id="line2d_56">
    <path d="M 865.40778 414.1 
L 865.40778 352.802549 
L 905.446224 352.802549 
L 905.446224 354.314891 
" clip-path="url(#p4ad1d0d72e)" style="fill: none; stroke: #ff0000; stroke-width: 5; stroke-linecap: square"/>
   </g>
   <g id="line2d_57">
    <path d="M 838.715484 414.1 
L 838.715484 336.906263 
L 885.427002 336.906263 
L 885.427002 352.802549 
" clip-path="url(#p4ad1d0d72e)" style="fill: none; stroke: #ff0000; stroke-width: 5; stroke-linecap: square"/>
   </g>
   <g id="line2d_58">
    <path d="M 812.023188 414.1 
L 812.023188 245.44935 
L 862.071243 245.44935 
L 862.071243 336.906263 
" clip-path="url(#p4ad1d0d72e)" style="fill: none; stroke: #ff0000; stroke-width: 5; stroke-linecap: square"/>
   </g>
   <g id="line2d_59">
    <path d="M 945.484668 414.1 
L 945.484668 221.88972 
L 972.176964 221.88972 
L 972.176964 414.1 
" clip-path="url(#p4ad1d0d72e)" style="fill: none; stroke: #ff0000; stroke-width: 5; stroke-linecap: square"/>
   </g>
   <g id="line2d_60">
    <path d="M 837.047216 245.44935 
L 837.047216 196.387606 
L 958.830816 196.387606 
L 958.830816 221.88972 
" clip-path="url(#p4ad1d0d72e)" style="fill: none; stroke: #ff0000; stroke-width: 5; stroke-linecap: square"/>
   </g>
   <g id="line2d_61">
    <path d="M 1025.561556 414.1 
L 1025.561556 253.682782 
L 1052.253852 253.682782 
L 1052.253852 414.1 
" clip-path="url(#p4ad1d0d72e)" style="fill: none; stroke: #ff0000; stroke-width: 5; stroke-linecap: square"/>
   </g>
   <g id="line2d_62">
    <path d="M 998.86926 414.1 
L 998.86926 184.927061 
L 1038.907704 184.927061 
L 1038.907704 253.682782 
" clip-path="url(#p4ad1d0d72e)" style="fill: none; stroke: #ff0000; stroke-width: 5; stroke-linecap: square"/>
   </g>
   <g id="line2d_63">
    <path d="M 897.939016 196.387606 
L 897.939016 168.346113 
L 1018.888482 168.346113 
L 1018.888482 184.927061 
" clip-path="url(#p4ad1d0d72e)" style="fill: none; stroke: #ff0000; stroke-width: 5; stroke-linecap: square"/>
   </g>
   <g id="line2d_64">
    <path d="M 771.984744 222.858095 
L 771.984744 95.989663 
L 958.413749 95.989663 
L 958.413749 168.346113 
" clip-path="url(#p4ad1d0d72e)" style="fill: none; stroke: #ff0000; stroke-width: 5; stroke-linecap: square"/>
   </g>
   <g id="line2d_65">
    <path d="M 641.859801 107.716708 
L 641.859801 95.989663 
" clip-path="url(#p4ad1d0d72e)" style="fill: none; stroke: #ff0000; stroke-width: 5; stroke-linecap: square"/>
   </g>
   <g id="line2d_66">
    <path d="M 865.199247 95.989663 
L 865.199247 95.989663 
" clip-path="url(#p4ad1d0d72e)" style="fill: none; stroke: #ff0000; stroke-width: 5; stroke-linecap: square"/>
   </g>
   <g id="patch_41">
    <path d="M 558.446376 414.1 
L 558.446376 7.2 
" style="fill: none; stroke: #000000; stroke-width: 0.8; stroke-linejoin: miter; stroke-linecap: square"/>
   </g>
   <g id="patch_42">
    <path d="M 1065.6 414.1 
L 1065.6 7.2 
" style="fill: none; stroke: #000000; stroke-width: 0.8; stroke-linejoin: miter; stroke-linecap: square"/>
   </g>
   <g id="patch_43">
    <path d="M 558.446376 414.1 
L 1065.6 414.1 
" style="fill: none; stroke: #000000; stroke-width: 0.8; stroke-linejoin: miter; stroke-linecap: square"/>
   </g>
   <g id="patch_44">
    <path d="M 558.446376 7.2 
L 1065.6 7.2 
" style="fill: none; stroke: #000000; stroke-width: 0.8; stroke-linejoin: miter; stroke-linecap: square"/>
   </g>
   <g id="PathCollection_3">
    <defs>
     <path id="m6576f95ba9" d="M 0 6.123724 
C 1.624031 6.123724 3.181764 5.47849 4.330127 4.330127 
C 5.47849 3.181764 6.123724 1.624031 6.123724 0 
C 6.123724 -1.624031 5.47849 -3.181764 4.330127 -4.330127 
C 3.181764 -5.47849 1.624031 -6.123724 0 -6.123724 
C -1.624031 -6.123724 -3.181764 -5.47849 -4.330127 -4.330127 
C -5.47849 -3.181764 -6.123724 -1.624031 -6.123724 0 
C -6.123724 1.624031 -5.47849 3.181764 -4.330127 4.330127 
C -3.181764 5.47849 -1.624031 6.123724 0 6.123724 
z
" style="stroke: #0000ff"/>
    </defs>
    <g clip-path="url(#p4ad1d0d72e)">
     <use xlink:href="#m6576f95ba9" x="571.792524" y="414.1" style="fill: #0000ff; stroke: #0000ff"/>
     <use xlink:href="#m6576f95ba9" x="598.48482" y="414.1" style="fill: #0000ff; stroke: #0000ff"/>
     <use xlink:href="#m6576f95ba9" x="625.177116" y="414.1" style="fill: #0000ff; stroke: #0000ff"/>
     <use xlink:href="#m6576f95ba9" x="651.869412" y="414.1" style="fill: #0000ff; stroke: #0000ff"/>
     <use xlink:href="#m6576f95ba9" x="678.561708" y="414.1" style="fill: #0000ff; stroke: #0000ff"/>
     <use xlink:href="#m6576f95ba9" x="705.254004" y="414.1" style="fill: #0000ff; stroke: #0000ff"/>
     <use xlink:href="#m6576f95ba9" x="731.9463" y="414.1" style="fill: #0000ff; stroke: #0000ff"/>
     <use xlink:href="#m6576f95ba9" x="758.638596" y="414.1" style="fill: #0000ff; stroke: #0000ff"/>
     <use xlink:href="#m6576f95ba9" x="785.330892" y="414.1" style="fill: #0000ff; stroke: #0000ff"/>
     <use xlink:href="#m6576f95ba9" x="812.023188" y="414.1" style="fill: #0000ff; stroke: #0000ff"/>
     <use xlink:href="#m6576f95ba9" x="838.715484" y="414.1" style="fill: #0000ff; stroke: #0000ff"/>
     <use xlink:href="#m6576f95ba9" x="865.40778" y="414.1" style="fill: #0000ff; stroke: #0000ff"/>
     <use xlink:href="#m6576f95ba9" x="892.100076" y="414.1" style="fill: #0000ff; stroke: #0000ff"/>
     <use xlink:href="#m6576f95ba9" x="918.792372" y="414.1" style="fill: #0000ff; stroke: #0000ff"/>
     <use xlink:href="#m6576f95ba9" x="945.484668" y="414.1" style="fill: #0000ff; stroke: #0000ff"/>
     <use xlink:href="#m6576f95ba9" x="972.176964" y="414.1" style="fill: #0000ff; stroke: #0000ff"/>
     <use xlink:href="#m6576f95ba9" x="998.86926" y="414.1" style="fill: #0000ff; stroke: #0000ff"/>
     <use xlink:href="#m6576f95ba9" x="1025.561556" y="414.1" style="fill: #0000ff; stroke: #0000ff"/>
     <use xlink:href="#m6576f95ba9" x="1052.253852" y="414.1" style="fill: #0000ff; stroke: #0000ff"/>
    </g>
   </g>
  </g>
 </g>
 <defs>
  <clipPath id="pcfd430d012">
   <rect x="7.2" y="20.293986" width="507.153624" height="380.712028"/>
  </clipPath>
  <clipPath id="p4ad1d0d72e">
   <rect x="558.446376" y="7.2" width="507.153624" height="406.9"/>
  </clipPath>
 </defs>
</svg>
