<?xml version="1.0" encoding="utf-8" standalone="no"?>
<!DOCTYPE svg PUBLIC "-//W3C//DTD SVG 1.1//EN"
  "http://www.w3.org/Graphics/SVG/1.1/DTD/svg11.dtd">
<svg xmlns:xlink="http://www.w3.org/1999/xlink" width="1072.8pt" height="424.8pt" viewBox="0 0 1072.8 424.8" xmlns="http://www.w3.org/2000/svg" version="1.1">
 <metadata>
  <rdf:RDF xmlns:dc="http://purl.org/dc/elements/1.1/" xmlns:cc="http://creativecommons.org/ns#" xmlns:rdf="http://www.w3.org/1999/02/22-rdf-syntax-ns#">
   <cc:Work>
    <dc:type rdf:resource="http://purl.org/dc/dcmitype/StillImage"/>
    <dc:date>2023-10-24T09:47:27.710116</dc:date>
    <dc:format>image/svg+xml</dc:format>
    <dc:creator>
     <cc:Agent>
      <dc:title>Matplotlib v3.7.2, https://matplotlib.org/</dc:title>
     </cc:Agent>
    </dc:creator>
   </cc:Work>
  </rdf:RDF>
 </metadata>
 <defs>
  <style type="text/css">*{stroke-linejoin: round; stroke-linecap: butt}</style>
 </defs>
 <g id="figure_1">
  <g id="patch_1">
   <path d="M 0 424.8 
L 1072.8 424.8 
L 1072.8 -0 
L 0 -0 
z
" style="fill: #ffffff"/>
  </g>
  <g id="axes_1">
   <g id="PathCollection_1">
    <defs>
     <path id="md1bcde76c2" d="M 0 3 
C 0.795609 3 1.55874 2.683901 2.12132 2.12132 
C 2.683901 1.55874 3 0.795609 3 0 
C 3 -0.795609 2.683901 -1.55874 2.12132 -2.12132 
C 1.55874 -2.683901 0.795609 -3 0 -3 
C -0.795609 -3 -1.55874 -2.683901 -2.12132 -2.12132 
C -2.683901 -1.55874 -3 -0.795609 -3 0 
C -3 0.795609 -2.683901 1.55874 -2.12132 2.12132 
C -1.55874 2.683901 -0.795609 3 0 3 
z
" style="stroke: #1f77b4; stroke-opacity: 0"/>
    </defs>
    <g clip-path="url(#p58f7514dbd)">
     <use xlink:href="#md1bcde76c2" x="7.2" y="402.67597" style="fill: #1f77b4; fill-opacity: 0; stroke: #1f77b4; stroke-opacity: 0"/>
     <use xlink:href="#md1bcde76c2" x="518.802783" y="18.62403" style="fill: #1f77b4; fill-opacity: 0; stroke: #1f77b4; stroke-opacity: 0"/>
    </g>
   </g>
   <g id="patch_2">
    <path d="M 319.90667 274.70969 
C 332.241156 274.70969 344.072115 269.809147 352.793914 261.087348 
C 361.515713 252.365549 366.416256 240.53459 366.416256 228.200104 
C 366.416256 215.865617 361.515713 204.034659 352.793914 195.31286 
C 344.072115 186.591061 332.241156 181.690517 319.90667 181.690517 
C 307.572183 181.690517 295.741225 186.591061 287.019426 195.31286 
C 278.297627 204.034659 273.397083 215.865617 273.397083 228.200104 
C 273.397083 240.53459 278.297627 252.365549 287.019426 261.087348 
C 295.741225 269.809147 307.572183 274.70969 319.90667 274.70969 
z
" clip-path="url(#p58f7514dbd)" style="fill: #ff0000; opacity: 0.2"/>
   </g>
   <g id="patch_3">
    <path d="M 305.60667 208.05412 
C 317.941156 208.05412 329.772115 203.153576 338.493914 194.431777 
C 347.215713 185.709978 352.116256 173.87902 352.116256 161.544533 
C 352.116256 149.210047 347.215713 137.379088 338.493914 128.657289 
C 329.772115 119.93549 317.941156 115.034947 305.60667 115.034947 
C 293.272183 115.034947 281.441225 119.93549 272.719426 128.657289 
C 263.997627 137.379088 259.097083 149.210047 259.097083 161.544533 
C 259.097083 173.87902 263.997627 185.709978 272.719426 194.431777 
C 281.441225 203.153576 293.272183 208.05412 305.60667 208.05412 
z
" clip-path="url(#p58f7514dbd)" style="fill: #ff0000; opacity: 0.2"/>
   </g>
   <g id="patch_4">
    <path d="M 228.655217 141.915151 
C 240.989704 141.915151 252.820662 137.014607 261.542461 128.292808 
C 270.26426 119.571009 275.164804 107.740051 275.164804 95.405564 
C 275.164804 83.071077 270.26426 71.240119 261.542461 62.51832 
C 252.820662 53.796521 240.989704 48.895977 228.655217 48.895977 
C 216.320731 48.895977 204.489772 53.796521 195.767973 62.51832 
C 187.046174 71.240119 182.145631 83.071077 182.145631 95.405564 
C 182.145631 107.740051 187.046174 119.571009 195.767973 128.292808 
C 204.489772 137.014607 216.320731 141.915151 228.655217 141.915151 
z
" clip-path="url(#p58f7514dbd)" style="fill: #ff0000; opacity: 0.2"/>
   </g>
   <g id="patch_5">
    <path d="M 182.386625 137.18662 
C 194.721111 137.18662 206.55207 132.286076 215.273869 123.564277 
C 223.995668 114.842478 228.896211 103.01152 228.896211 90.677033 
C 228.896211 78.342547 223.995668 66.511588 215.273869 57.789789 
C 206.55207 49.06799 194.721111 44.167447 182.386625 44.167447 
C 170.052138 44.167447 158.22118 49.06799 149.499381 57.789789 
C 140.777582 66.511588 135.877038 78.342547 135.877038 90.677033 
C 135.877038 103.01152 140.777582 114.842478 149.499381 123.564277 
C 158.22118 132.286076 170.052138 137.18662 182.386625 137.18662 
z
" clip-path="url(#p58f7514dbd)" style="fill: #ff0000; opacity: 0.2"/>
   </g>
   <g id="patch_6">
    <path d="M 181.675504 157.68053 
C 194.009991 157.68053 205.840949 152.779987 214.562749 144.058188 
C 223.284548 135.336389 228.185091 123.50543 228.185091 111.170944 
C 228.185091 98.836457 223.284548 87.005499 214.562749 78.2837 
C 205.840949 69.561901 194.009991 64.661357 181.675504 64.661357 
C 169.341018 64.661357 157.51006 69.561901 148.78826 78.2837 
C 140.066461 87.005499 135.165918 98.836457 135.165918 111.170944 
C 135.165918 123.50543 140.066461 135.336389 148.78826 144.058188 
C 157.51006 152.779987 169.341018 157.68053 181.675504 157.68053 
z
" clip-path="url(#p58f7514dbd)" style="fill: #ff0000; opacity: 0.2"/>
   </g>
   <g id="patch_7">
    <path d="M 109.645986 206.034939 
C 121.980472 206.034939 133.81143 201.134396 142.53323 192.412597 
C 151.255029 183.690798 156.155572 171.859839 156.155572 159.525353 
C 156.155572 147.190866 151.255029 135.359908 142.53323 126.638109 
C 133.81143 117.91631 121.980472 113.015766 109.645986 113.015766 
C 97.311499 113.015766 85.480541 117.91631 76.758741 126.638109 
C 68.036942 135.359908 63.136399 147.190866 63.136399 159.525353 
C 63.136399 171.859839 68.036942 183.690798 76.758741 192.412597 
C 85.480541 201.134396 97.311499 206.034939 109.645986 206.034939 
z
" clip-path="url(#p58f7514dbd)" style="fill: #ff0000; opacity: 0.2"/>
   </g>
   <g id="patch_8">
    <path d="M 79.253003 250.432213 
C 91.58749 250.432213 103.418448 245.531669 112.140247 236.80987 
C 120.862047 228.088071 125.76259 216.257113 125.76259 203.922626 
C 125.76259 191.58814 120.862047 179.757181 112.140247 171.035382 
C 103.418448 162.313583 91.58749 157.41304 79.253003 157.41304 
C 66.918517 157.41304 55.087558 162.313583 46.365759 171.035382 
C 37.64396 179.757181 32.743417 191.58814 32.743417 203.922626 
C 32.743417 216.257113 37.64396 228.088071 46.365759 236.80987 
C 55.087558 245.531669 66.918517 250.432213 79.253003 250.432213 
z
" clip-path="url(#p58f7514dbd)" style="fill: #ff0000; opacity: 0.2"/>
   </g>
   <g id="patch_9">
    <path d="M 100.848696 323.717247 
C 113.183183 323.717247 125.014141 318.816704 133.73594 310.094904 
C 142.457739 301.373105 147.358283 289.542147 147.358283 277.20766 
C 147.358283 264.873174 142.457739 253.042215 133.73594 244.320416 
C 125.014141 235.598617 113.183183 230.698074 100.848696 230.698074 
C 88.51421 230.698074 76.683251 235.598617 67.961452 244.320416 
C 59.239653 253.042215 54.33911 264.873174 54.33911 277.20766 
C 54.33911 289.542147 59.239653 301.373105 67.961452 310.094904 
C 76.683251 318.816704 88.51421 323.717247 100.848696 323.717247 
z
" clip-path="url(#p58f7514dbd)" style="fill: #ff0000; opacity: 0.2"/>
   </g>
   <g id="patch_10">
    <path d="M 116.207052 347.86886 
C 128.541538 347.86886 140.372497 342.968317 149.094296 334.246518 
C 157.816095 325.524719 162.716638 313.69376 162.716638 301.359274 
C 162.716638 289.024787 157.816095 277.193829 149.094296 268.47203 
C 140.372497 259.750231 128.541538 254.849687 116.207052 254.849687 
C 103.872565 254.849687 92.041607 259.750231 83.319808 268.47203 
C 74.598009 277.193829 69.697465 289.024787 69.697465 301.359274 
C 69.697465 313.69376 74.598009 325.524719 83.319808 334.246518 
C 92.041607 342.968317 103.872565 347.86886 116.207052 347.86886 
z
" clip-path="url(#p58f7514dbd)" style="fill: #ff0000; opacity: 0.2"/>
   </g>
   <g id="patch_11">
    <path d="M 208.901119 377.132553 
C 221.235606 377.132553 233.066564 372.23201 241.788363 363.510211 
C 250.510162 354.788412 255.410706 342.957453 255.410706 330.622967 
C 255.410706 318.28848 250.510162 306.457522 241.788363 297.735723 
C 233.066564 289.013924 221.235606 284.11338 208.901119 284.11338 
C 196.566633 284.11338 184.735674 289.013924 176.013875 297.735723 
C 167.292076 306.457522 162.391533 318.28848 162.391533 330.622967 
C 162.391533 342.957453 167.292076 354.788412 176.013875 363.510211 
C 184.735674 372.23201 196.566633 377.132553 208.901119 377.132553 
z
" clip-path="url(#p58f7514dbd)" style="fill: #ff0000; opacity: 0.2"/>
   </g>
   <g id="patch_12">
    <path d="M 262.348942 368.430209 
C 274.683428 368.430209 286.514387 363.529665 295.236186 354.807866 
C 303.957985 346.086067 308.858528 334.255109 308.858528 321.920622 
C 308.858528 309.586135 303.957985 297.755177 295.236186 289.033378 
C 286.514387 280.311579 274.683428 275.411035 262.348942 275.411035 
C 250.014455 275.411035 238.183497 280.311579 229.461698 289.033378 
C 220.739899 297.755177 215.839355 309.586135 215.839355 321.920622 
C 215.839355 334.255109 220.739899 346.086067 229.461698 354.807866 
C 238.183497 363.529665 250.014455 368.430209 262.348942 368.430209 
z
" clip-path="url(#p58f7514dbd)" style="fill: #ff0000; opacity: 0.2"/>
   </g>
   <g id="patch_13">
    <path d="M 316.246068 296.258998 
C 328.580554 296.258998 340.411512 291.358454 349.133312 282.636655 
C 357.855111 273.914856 362.755654 262.083898 362.755654 249.749411 
C 362.755654 237.414925 357.855111 225.583966 349.133312 216.862167 
C 340.411512 208.140368 328.580554 203.239825 316.246068 203.239825 
C 303.911581 203.239825 292.080623 208.140368 283.358823 216.862167 
C 274.637024 225.583966 269.736481 237.414925 269.736481 249.749411 
C 269.736481 262.083898 274.637024 273.914856 283.358823 282.636655 
C 292.080623 291.358454 303.911581 296.258998 316.246068 296.258998 
z
" clip-path="url(#p58f7514dbd)" style="fill: #ff0000; opacity: 0.2"/>
   </g>
   <g id="patch_14">
    <path d="M 446.74978 258.654986 
C 459.084266 258.654986 470.915225 253.754443 479.637024 245.032644 
C 488.358823 236.310844 493.259366 224.479886 493.259366 212.145399 
C 493.259366 199.810913 488.358823 187.979955 479.637024 179.258155 
C 470.915225 170.536356 459.084266 165.635813 446.74978 165.635813 
C 434.415293 165.635813 422.584335 170.536356 413.862536 179.258155 
C 405.140737 187.979955 400.240193 199.810913 400.240193 212.145399 
C 400.240193 224.479886 405.140737 236.310844 413.862536 245.032644 
C 422.584335 253.754443 434.415293 258.654986 446.74978 258.654986 
z
" clip-path="url(#p58f7514dbd)" style="fill: #ff0000; opacity: 0.2"/>
   </g>
   <g id="patch_15">
    <path d="M 420.90803 199.130283 
C 433.242516 199.130283 445.073475 194.229739 453.795274 185.50794 
C 462.517073 176.786141 467.417616 164.955183 467.417616 152.620696 
C 467.417616 140.28621 462.517073 128.455251 453.795274 119.733452 
C 445.073475 111.011653 433.242516 106.11111 420.90803 106.11111 
C 408.573543 106.11111 396.742585 111.011653 388.020786 119.733452 
C 379.298987 128.455251 374.398443 140.28621 374.398443 152.620696 
C 374.398443 164.955183 379.298987 176.786141 388.020786 185.50794 
C 396.742585 194.229739 408.573543 199.130283 420.90803 199.130283 
z
" clip-path="url(#p58f7514dbd)" style="fill: #ff0000; opacity: 0.2"/>
   </g>
   <g id="patch_16">
    <path d="M 376.742271 188.515657 
C 389.076758 188.515657 400.907716 183.615113 409.629515 174.893314 
C 418.351314 166.171515 423.251858 154.340557 423.251858 142.00607 
C 423.251858 129.671584 418.351314 117.840625 409.629515 109.118826 
C 400.907716 100.397027 389.076758 95.496484 376.742271 95.496484 
C 364.407784 95.496484 352.576826 100.397027 343.855027 109.118826 
C 335.133228 117.840625 330.232684 129.671584 330.232684 142.00607 
C 330.232684 154.340557 335.133228 166.171515 343.855027 174.893314 
C 352.576826 183.615113 364.407784 188.515657 376.742271 188.515657 
z
" clip-path="url(#p58f7514dbd)" style="fill: #ff0000; opacity: 0.2"/>
   </g>
   <g id="patch_17">
    <path d="M 302.567955 255.712095 
C 314.902441 255.712095 326.7334 250.811552 335.455199 242.089753 
C 344.176998 233.367954 349.077541 221.536995 349.077541 209.202509 
C 349.077541 196.868022 344.176998 185.037064 335.455199 176.315265 
C 326.7334 167.593466 314.902441 162.692922 302.567955 162.692922 
C 290.233468 162.692922 278.40251 167.593466 269.680711 176.315265 
C 260.958912 185.037064 256.058368 196.868022 256.058368 209.202509 
C 256.058368 221.536995 260.958912 233.367954 269.680711 242.089753 
C 278.40251 250.811552 290.233468 255.712095 302.567955 255.712095 
z
" clip-path="url(#p58f7514dbd)" style="fill: #ff0000; opacity: 0.2"/>
   </g>
   <g id="patch_18">
    <path d="M 303.058423 273.062018 
C 315.39291 273.062018 327.223868 268.161474 335.945667 259.439675 
C 344.667466 250.717876 349.56801 238.886918 349.56801 226.552431 
C 349.56801 214.217945 344.667466 202.386986 335.945667 193.665187 
C 327.223868 184.943388 315.39291 180.042845 303.058423 180.042845 
C 290.723937 180.042845 278.892978 184.943388 270.171179 193.665187 
C 261.44938 202.386986 256.548837 214.217945 256.548837 226.552431 
C 256.548837 238.886918 261.44938 250.717876 270.171179 259.439675 
C 278.892978 268.161474 290.723937 273.062018 303.058423 273.062018 
z
" clip-path="url(#p58f7514dbd)" style="fill: #ff0000; opacity: 0.2"/>
   </g>
   <g id="patch_19">
    <path d="M 367.336354 330.757281 
C 379.670841 330.757281 391.501799 325.856738 400.223598 317.134938 
C 408.945397 308.413139 413.845941 296.582181 413.845941 284.247694 
C 413.845941 271.913208 408.945397 260.082249 400.223598 251.36045 
C 391.501799 242.638651 379.670841 237.738108 367.336354 237.738108 
C 355.001868 237.738108 343.170909 242.638651 334.44911 251.36045 
C 325.727311 260.082249 320.826768 271.913208 320.826768 284.247694 
C 320.826768 296.582181 325.727311 308.413139 334.44911 317.134938 
C 343.170909 325.856738 355.001868 330.757281 367.336354 330.757281 
z
" clip-path="url(#p58f7514dbd)" style="fill: #ff0000; opacity: 0.2"/>
   </g>
   <g id="patch_20">
    <path d="M 421.263585 323.407003 
C 433.598071 323.407003 445.42903 318.50646 454.150829 309.784661 
C 462.872628 301.062862 467.773171 289.231903 467.773171 276.897417 
C 467.773171 264.56293 462.872628 252.731972 454.150829 244.010173 
C 445.42903 235.288373 433.598071 230.38783 421.263585 230.38783 
C 408.929098 230.38783 397.09814 235.288373 388.376341 244.010173 
C 379.654542 252.731972 374.753998 264.56293 374.753998 276.897417 
C 374.753998 289.231903 379.654542 301.062862 388.376341 309.784661 
C 397.09814 318.50646 408.929098 323.407003 421.263585 323.407003 
z
" clip-path="url(#p58f7514dbd)" style="fill: #ff0000; opacity: 0.2"/>
   </g>
   <g id="patch_21">
    <path d="M 319.90667 274.70969 
C 332.241156 274.70969 344.072115 269.809147 352.793914 261.087348 
C 361.515713 252.365549 366.416256 240.53459 366.416256 228.200104 
C 366.416256 215.865617 361.515713 204.034659 352.793914 195.31286 
C 344.072115 186.591061 332.241156 181.690517 319.90667 181.690517 
C 307.572183 181.690517 295.741225 186.591061 287.019426 195.31286 
C 278.297627 204.034659 273.397083 215.865617 273.397083 228.200104 
C 273.397083 240.53459 278.297627 252.365549 287.019426 261.087348 
C 295.741225 269.809147 307.572183 274.70969 319.90667 274.70969 
L 319.90667 274.70969 
z
" clip-path="url(#p58f7514dbd)" style="fill: none; stroke: #ff0000; stroke-width: 2; stroke-linejoin: miter"/>
   </g>
   <g id="patch_22">
    <path d="M 305.60667 208.05412 
C 317.941156 208.05412 329.772115 203.153576 338.493914 194.431777 
C 347.215713 185.709978 352.116256 173.87902 352.116256 161.544533 
C 352.116256 149.210047 347.215713 137.379088 338.493914 128.657289 
C 329.772115 119.93549 317.941156 115.034947 305.60667 115.034947 
C 293.272183 115.034947 281.441225 119.93549 272.719426 128.657289 
C 263.997627 137.379088 259.097083 149.210047 259.097083 161.544533 
C 259.097083 173.87902 263.997627 185.709978 272.719426 194.431777 
C 281.441225 203.153576 293.272183 208.05412 305.60667 208.05412 
L 305.60667 208.05412 
z
" clip-path="url(#p58f7514dbd)" style="fill: none; stroke: #ff0000; stroke-width: 2; stroke-linejoin: miter"/>
   </g>
   <g id="patch_23">
    <path d="M 228.655217 141.915151 
C 240.989704 141.915151 252.820662 137.014607 261.542461 128.292808 
C 270.26426 119.571009 275.164804 107.740051 275.164804 95.405564 
C 275.164804 83.071077 270.26426 71.240119 261.542461 62.51832 
C 252.820662 53.796521 240.989704 48.895977 228.655217 48.895977 
C 216.320731 48.895977 204.489772 53.796521 195.767973 62.51832 
C 187.046174 71.240119 182.145631 83.071077 182.145631 95.405564 
C 182.145631 107.740051 187.046174 119.571009 195.767973 128.292808 
C 204.489772 137.014607 216.320731 141.915151 228.655217 141.915151 
L 228.655217 141.915151 
z
" clip-path="url(#p58f7514dbd)" style="fill: none; stroke: #ff0000; stroke-width: 2; stroke-linejoin: miter"/>
   </g>
   <g id="patch_24">
    <path d="M 182.386625 137.18662 
C 194.721111 137.18662 206.55207 132.286076 215.273869 123.564277 
C 223.995668 114.842478 228.896211 103.01152 228.896211 90.677033 
C 228.896211 78.342547 223.995668 66.511588 215.273869 57.789789 
C 206.55207 49.06799 194.721111 44.167447 182.386625 44.167447 
C 170.052138 44.167447 158.22118 49.06799 149.499381 57.789789 
C 140.777582 66.511588 135.877038 78.342547 135.877038 90.677033 
C 135.877038 103.01152 140.777582 114.842478 149.499381 123.564277 
C 158.22118 132.286076 170.052138 137.18662 182.386625 137.18662 
L 182.386625 137.18662 
z
" clip-path="url(#p58f7514dbd)" style="fill: none; stroke: #ff0000; stroke-width: 2; stroke-linejoin: miter"/>
   </g>
   <g id="patch_25">
    <path d="M 181.675504 157.68053 
C 194.009991 157.68053 205.840949 152.779987 214.562749 144.058188 
C 223.284548 135.336389 228.185091 123.50543 228.185091 111.170944 
C 228.185091 98.836457 223.284548 87.005499 214.562749 78.2837 
C 205.840949 69.561901 194.009991 64.661357 181.675504 64.661357 
C 169.341018 64.661357 157.51006 69.561901 148.78826 78.2837 
C 140.066461 87.005499 135.165918 98.836457 135.165918 111.170944 
C 135.165918 123.50543 140.066461 135.336389 148.78826 144.058188 
C 157.51006 152.779987 169.341018 157.68053 181.675504 157.68053 
L 181.675504 157.68053 
z
" clip-path="url(#p58f7514dbd)" style="fill: none; stroke: #ff0000; stroke-width: 2; stroke-linejoin: miter"/>
   </g>
   <g id="patch_26">
    <path d="M 109.645986 206.034939 
C 121.980472 206.034939 133.81143 201.134396 142.53323 192.412597 
C 151.255029 183.690798 156.155572 171.859839 156.155572 159.525353 
C 156.155572 147.190866 151.255029 135.359908 142.53323 126.638109 
C 133.81143 117.91631 121.980472 113.015766 109.645986 113.015766 
C 97.311499 113.015766 85.480541 117.91631 76.758741 126.638109 
C 68.036942 135.359908 63.136399 147.190866 63.136399 159.525353 
C 63.136399 171.859839 68.036942 183.690798 76.758741 192.412597 
C 85.480541 201.134396 97.311499 206.034939 109.645986 206.034939 
L 109.645986 206.034939 
z
" clip-path="url(#p58f7514dbd)" style="fill: none; stroke: #ff0000; stroke-width: 2; stroke-linejoin: miter"/>
   </g>
   <g id="patch_27">
    <path d="M 79.253003 250.432213 
C 91.58749 250.432213 103.418448 245.531669 112.140247 236.80987 
C 120.862047 228.088071 125.76259 216.257113 125.76259 203.922626 
C 125.76259 191.58814 120.862047 179.757181 112.140247 171.035382 
C 103.418448 162.313583 91.58749 157.41304 79.253003 157.41304 
C 66.918517 157.41304 55.087558 162.313583 46.365759 171.035382 
C 37.64396 179.757181 32.743417 191.58814 32.743417 203.922626 
C 32.743417 216.257113 37.64396 228.088071 46.365759 236.80987 
C 55.087558 245.531669 66.918517 250.432213 79.253003 250.432213 
L 79.253003 250.432213 
z
" clip-path="url(#p58f7514dbd)" style="fill: none; stroke: #ff0000; stroke-width: 2; stroke-linejoin: miter"/>
   </g>
   <g id="patch_28">
    <path d="M 100.848696 323.717247 
C 113.183183 323.717247 125.014141 318.816704 133.73594 310.094904 
C 142.457739 301.373105 147.358283 289.542147 147.358283 277.20766 
C 147.358283 264.873174 142.457739 253.042215 133.73594 244.320416 
C 125.014141 235.598617 113.183183 230.698074 100.848696 230.698074 
C 88.51421 230.698074 76.683251 235.598617 67.961452 244.320416 
C 59.239653 253.042215 54.33911 264.873174 54.33911 277.20766 
C 54.33911 289.542147 59.239653 301.373105 67.961452 310.094904 
C 76.683251 318.816704 88.51421 323.717247 100.848696 323.717247 
L 100.848696 323.717247 
z
" clip-path="url(#p58f7514dbd)" style="fill: none; stroke: #ff0000; stroke-width: 2; stroke-linejoin: miter"/>
   </g>
   <g id="patch_29">
    <path d="M 116.207052 347.86886 
C 128.541538 347.86886 140.372497 342.968317 149.094296 334.246518 
C 157.816095 325.524719 162.716638 313.69376 162.716638 301.359274 
C 162.716638 289.024787 157.816095 277.193829 149.094296 268.47203 
C 140.372497 259.750231 128.541538 254.849687 116.207052 254.849687 
C 103.872565 254.849687 92.041607 259.750231 83.319808 268.47203 
C 74.598009 277.193829 69.697465 289.024787 69.697465 301.359274 
C 69.697465 313.69376 74.598009 325.524719 83.319808 334.246518 
C 92.041607 342.968317 103.872565 347.86886 116.207052 347.86886 
L 116.207052 347.86886 
z
" clip-path="url(#p58f7514dbd)" style="fill: none; stroke: #ff0000; stroke-width: 2; stroke-linejoin: miter"/>
   </g>
   <g id="patch_30">
    <path d="M 208.901119 377.132553 
C 221.235606 377.132553 233.066564 372.23201 241.788363 363.510211 
C 250.510162 354.788412 255.410706 342.957453 255.410706 330.622967 
C 255.410706 318.28848 250.510162 306.457522 241.788363 297.735723 
C 233.066564 289.013924 221.235606 284.11338 208.901119 284.11338 
C 196.566633 284.11338 184.735674 289.013924 176.013875 297.735723 
C 167.292076 306.457522 162.391533 318.28848 162.391533 330.622967 
C 162.391533 342.957453 167.292076 354.788412 176.013875 363.510211 
C 184.735674 372.23201 196.566633 377.132553 208.901119 377.132553 
L 208.901119 377.132553 
z
" clip-path="url(#p58f7514dbd)" style="fill: none; stroke: #ff0000; stroke-width: 2; stroke-linejoin: miter"/>
   </g>
   <g id="patch_31">
    <path d="M 262.348942 368.430209 
C 274.683428 368.430209 286.514387 363.529665 295.236186 354.807866 
C 303.957985 346.086067 308.858528 334.255109 308.858528 321.920622 
C 308.858528 309.586135 303.957985 297.755177 295.236186 289.033378 
C 286.514387 280.311579 274.683428 275.411035 262.348942 275.411035 
C 250.014455 275.411035 238.183497 280.311579 229.461698 289.033378 
C 220.739899 297.755177 215.839355 309.586135 215.839355 321.920622 
C 215.839355 334.255109 220.739899 346.086067 229.461698 354.807866 
C 238.183497 363.529665 250.014455 368.430209 262.348942 368.430209 
L 262.348942 368.430209 
z
" clip-path="url(#p58f7514dbd)" style="fill: none; stroke: #ff0000; stroke-width: 2; stroke-linejoin: miter"/>
   </g>
   <g id="patch_32">
    <path d="M 316.246068 296.258998 
C 328.580554 296.258998 340.411512 291.358454 349.133312 282.636655 
C 357.855111 273.914856 362.755654 262.083898 362.755654 249.749411 
C 362.755654 237.414925 357.855111 225.583966 349.133312 216.862167 
C 340.411512 208.140368 328.580554 203.239825 316.246068 203.239825 
C 303.911581 203.239825 292.080623 208.140368 283.358823 216.862167 
C 274.637024 225.583966 269.736481 237.414925 269.736481 249.749411 
C 269.736481 262.083898 274.637024 273.914856 283.358823 282.636655 
C 292.080623 291.358454 303.911581 296.258998 316.246068 296.258998 
L 316.246068 296.258998 
z
" clip-path="url(#p58f7514dbd)" style="fill: none; stroke: #ff0000; stroke-width: 2; stroke-linejoin: miter"/>
   </g>
   <g id="patch_33">
    <path d="M 446.74978 258.654986 
C 459.084266 258.654986 470.915225 253.754443 479.637024 245.032644 
C 488.358823 236.310844 493.259366 224.479886 493.259366 212.145399 
C 493.259366 199.810913 488.358823 187.979955 479.637024 179.258155 
C 470.915225 170.536356 459.084266 165.635813 446.74978 165.635813 
C 434.415293 165.635813 422.584335 170.536356 413.862536 179.258155 
C 405.140737 187.979955 400.240193 199.810913 400.240193 212.145399 
C 400.240193 224.479886 405.140737 236.310844 413.862536 245.032644 
C 422.584335 253.754443 434.415293 258.654986 446.74978 258.654986 
L 446.74978 258.654986 
z
" clip-path="url(#p58f7514dbd)" style="fill: none; stroke: #ff0000; stroke-width: 2; stroke-linejoin: miter"/>
   </g>
   <g id="patch_34">
    <path d="M 420.90803 199.130283 
C 433.242516 199.130283 445.073475 194.229739 453.795274 185.50794 
C 462.517073 176.786141 467.417616 164.955183 467.417616 152.620696 
C 467.417616 140.28621 462.517073 128.455251 453.795274 119.733452 
C 445.073475 111.011653 433.242516 106.11111 420.90803 106.11111 
C 408.573543 106.11111 396.742585 111.011653 388.020786 119.733452 
C 379.298987 128.455251 374.398443 140.28621 374.398443 152.620696 
C 374.398443 164.955183 379.298987 176.786141 388.020786 185.50794 
C 396.742585 194.229739 408.573543 199.130283 420.90803 199.130283 
L 420.90803 199.130283 
z
" clip-path="url(#p58f7514dbd)" style="fill: none; stroke: #ff0000; stroke-width: 2; stroke-linejoin: miter"/>
   </g>
   <g id="patch_35">
    <path d="M 376.742271 188.515657 
C 389.076758 188.515657 400.907716 183.615113 409.629515 174.893314 
C 418.351314 166.171515 423.251858 154.340557 423.251858 142.00607 
C 423.251858 129.671584 418.351314 117.840625 409.629515 109.118826 
C 400.907716 100.397027 389.076758 95.496484 376.742271 95.496484 
C 364.407784 95.496484 352.576826 100.397027 343.855027 109.118826 
C 335.133228 117.840625 330.232684 129.671584 330.232684 142.00607 
C 330.232684 154.340557 335.133228 166.171515 343.855027 174.893314 
C 352.576826 183.615113 364.407784 188.515657 376.742271 188.515657 
L 376.742271 188.515657 
z
" clip-path="url(#p58f7514dbd)" style="fill: none; stroke: #ff0000; stroke-width: 2; stroke-linejoin: miter"/>
   </g>
   <g id="patch_36">
    <path d="M 302.567955 255.712095 
C 314.902441 255.712095 326.7334 250.811552 335.455199 242.089753 
C 344.176998 233.367954 349.077541 221.536995 349.077541 209.202509 
C 349.077541 196.868022 344.176998 185.037064 335.455199 176.315265 
C 326.7334 167.593466 314.902441 162.692922 302.567955 162.692922 
C 290.233468 162.692922 278.40251 167.593466 269.680711 176.315265 
C 260.958912 185.037064 256.058368 196.868022 256.058368 209.202509 
C 256.058368 221.536995 260.958912 233.367954 269.680711 242.089753 
C 278.40251 250.811552 290.233468 255.712095 302.567955 255.712095 
L 302.567955 255.712095 
z
" clip-path="url(#p58f7514dbd)" style="fill: none; stroke: #ff0000; stroke-width: 2; stroke-linejoin: miter"/>
   </g>
   <g id="patch_37">
    <path d="M 303.058423 273.062018 
C 315.39291 273.062018 327.223868 268.161474 335.945667 259.439675 
C 344.667466 250.717876 349.56801 238.886918 349.56801 226.552431 
C 349.56801 214.217945 344.667466 202.386986 335.945667 193.665187 
C 327.223868 184.943388 315.39291 180.042845 303.058423 180.042845 
C 290.723937 180.042845 278.892978 184.943388 270.171179 193.665187 
C 261.44938 202.386986 256.548837 214.217945 256.548837 226.552431 
C 256.548837 238.886918 261.44938 250.717876 270.171179 259.439675 
C 278.892978 268.161474 290.723937 273.062018 303.058423 273.062018 
L 303.058423 273.062018 
z
" clip-path="url(#p58f7514dbd)" style="fill: none; stroke: #ff0000; stroke-width: 2; stroke-linejoin: miter"/>
   </g>
   <g id="patch_38">
    <path d="M 367.336354 330.757281 
C 379.670841 330.757281 391.501799 325.856738 400.223598 317.134938 
C 408.945397 308.413139 413.845941 296.582181 413.845941 284.247694 
C 413.845941 271.913208 408.945397 260.082249 400.223598 251.36045 
C 391.501799 242.638651 379.670841 237.738108 367.336354 237.738108 
C 355.001868 237.738108 343.170909 242.638651 334.44911 251.36045 
C 325.727311 260.082249 320.826768 271.913208 320.826768 284.247694 
C 320.826768 296.582181 325.727311 308.413139 334.44911 317.134938 
C 343.170909 325.856738 355.001868 330.757281 367.336354 330.757281 
L 367.336354 330.757281 
z
" clip-path="url(#p58f7514dbd)" style="fill: none; stroke: #ff0000; stroke-width: 2; stroke-linejoin: miter"/>
   </g>
   <g id="patch_39">
    <path d="M 421.263585 323.407003 
C 433.598071 323.407003 445.42903 318.50646 454.150829 309.784661 
C 462.872628 301.062862 467.773171 289.231903 467.773171 276.897417 
C 467.773171 264.56293 462.872628 252.731972 454.150829 244.010173 
C 445.42903 235.288373 433.598071 230.38783 421.263585 230.38783 
C 408.929098 230.38783 397.09814 235.288373 388.376341 244.010173 
C 379.654542 252.731972 374.753998 264.56293 374.753998 276.897417 
C 374.753998 289.231903 379.654542 301.062862 388.376341 309.784661 
C 397.09814 318.50646 408.929098 323.407003 421.263585 323.407003 
L 421.263585 323.407003 
z
" clip-path="url(#p58f7514dbd)" style="fill: none; stroke: #ff0000; stroke-width: 2; stroke-linejoin: miter"/>
   </g>
   <g id="line2d_1">
    <path d="M 319.90667 228.200104 
L 316.246068 249.749411 
" clip-path="url(#p58f7514dbd)" style="fill: none; stroke: #000000; stroke-width: 2; stroke-linecap: square"/>
   </g>
   <g id="line2d_2">
    <path d="M 319.90667 228.200104 
L 302.567955 209.202509 
" clip-path="url(#p58f7514dbd)" style="fill: none; stroke: #000000; stroke-width: 2; stroke-linecap: square"/>
   </g>
   <g id="line2d_3">
    <path d="M 319.90667 228.200104 
L 303.058423 226.552431 
" clip-path="url(#p58f7514dbd)" style="fill: none; stroke: #000000; stroke-width: 2; stroke-linecap: square"/>
   </g>
   <g id="line2d_4">
    <path d="M 228.655217 95.405564 
L 182.386625 90.677033 
" clip-path="url(#p58f7514dbd)" style="fill: none; stroke: #000000; stroke-width: 2; stroke-linecap: square"/>
   </g>
   <g id="line2d_5">
    <path d="M 182.386625 90.677033 
L 181.675504 111.170944 
" clip-path="url(#p58f7514dbd)" style="fill: none; stroke: #000000; stroke-width: 2; stroke-linecap: square"/>
   </g>
   <g id="line2d_6">
    <path d="M 100.848696 277.20766 
L 116.207052 301.359274 
" clip-path="url(#p58f7514dbd)" style="fill: none; stroke: #000000; stroke-width: 2; stroke-linecap: square"/>
   </g>
   <g id="line2d_7">
    <path d="M 316.246068 249.749411 
L 302.567955 209.202509 
" clip-path="url(#p58f7514dbd)" style="fill: none; stroke: #000000; stroke-width: 2; stroke-linecap: square"/>
   </g>
   <g id="line2d_8">
    <path d="M 316.246068 249.749411 
L 303.058423 226.552431 
" clip-path="url(#p58f7514dbd)" style="fill: none; stroke: #000000; stroke-width: 2; stroke-linecap: square"/>
   </g>
   <g id="line2d_9">
    <path d="M 420.90803 152.620696 
L 376.742271 142.00607 
" clip-path="url(#p58f7514dbd)" style="fill: none; stroke: #000000; stroke-width: 2; stroke-linecap: square"/>
   </g>
   <g id="line2d_10">
    <path d="M 302.567955 209.202509 
L 303.058423 226.552431 
" clip-path="url(#p58f7514dbd)" style="fill: none; stroke: #000000; stroke-width: 2; stroke-linecap: square"/>
   </g>
   <g id="PathCollection_2">
    <defs>
     <path id="ma9ba304ec2" d="M 0 3 
C 0.795609 3 1.55874 2.683901 2.12132 2.12132 
C 2.683901 1.55874 3 0.795609 3 0 
C 3 -0.795609 2.683901 -1.55874 2.12132 -2.12132 
C 1.55874 -2.683901 0.795609 -3 0 -3 
C -0.795609 -3 -1.55874 -2.683901 -2.12132 -2.12132 
C -2.683901 -1.55874 -3 -0.795609 -3 0 
C -3 0.795609 -2.683901 1.55874 -2.12132 2.12132 
C -1.55874 2.683901 -0.795609 3 0 3 
z
" style="stroke: #0000ff"/>
    </defs>
    <g clip-path="url(#p58f7514dbd)">
     <use xlink:href="#ma9ba304ec2" x="319.90667" y="228.200104" style="fill: #0000ff; stroke: #0000ff"/>
     <use xlink:href="#ma9ba304ec2" x="305.60667" y="161.544533" style="fill: #0000ff; stroke: #0000ff"/>
     <use xlink:href="#ma9ba304ec2" x="228.655217" y="95.405564" style="fill: #0000ff; stroke: #0000ff"/>
     <use xlink:href="#ma9ba304ec2" x="182.386625" y="90.677033" style="fill: #0000ff; stroke: #0000ff"/>
     <use xlink:href="#ma9ba304ec2" x="181.675504" y="111.170944" style="fill: #0000ff; stroke: #0000ff"/>
     <use xlink:href="#ma9ba304ec2" x="109.645986" y="159.525353" style="fill: #0000ff; stroke: #0000ff"/>
     <use xlink:href="#ma9ba304ec2" x="79.253003" y="203.922626" style="fill: #0000ff; stroke: #0000ff"/>
     <use xlink:href="#ma9ba304ec2" x="100.848696" y="277.20766" style="fill: #0000ff; stroke: #0000ff"/>
     <use xlink:href="#ma9ba304ec2" x="116.207052" y="301.359274" style="fill: #0000ff; stroke: #0000ff"/>
     <use xlink:href="#ma9ba304ec2" x="208.901119" y="330.622967" style="fill: #0000ff; stroke: #0000ff"/>
     <use xlink:href="#ma9ba304ec2" x="262.348942" y="321.920622" style="fill: #0000ff; stroke: #0000ff"/>
     <use xlink:href="#ma9ba304ec2" x="316.246068" y="249.749411" style="fill: #0000ff; stroke: #0000ff"/>
     <use xlink:href="#ma9ba304ec2" x="446.74978" y="212.145399" style="fill: #0000ff; stroke: #0000ff"/>
     <use xlink:href="#ma9ba304ec2" x="420.90803" y="152.620696" style="fill: #0000ff; stroke: #0000ff"/>
     <use xlink:href="#ma9ba304ec2" x="376.742271" y="142.00607" style="fill: #0000ff; stroke: #0000ff"/>
     <use xlink:href="#ma9ba304ec2" x="302.567955" y="209.202509" style="fill: #0000ff; stroke: #0000ff"/>
     <use xlink:href="#ma9ba304ec2" x="303.058423" y="226.552431" style="fill: #0000ff; stroke: #0000ff"/>
     <use xlink:href="#ma9ba304ec2" x="367.336354" y="284.247694" style="fill: #0000ff; stroke: #0000ff"/>
     <use xlink:href="#ma9ba304ec2" x="421.263585" y="276.897417" style="fill: #0000ff; stroke: #0000ff"/>
    </g>
   </g>
  </g>
  <g id="axes_2">
   <g id="patch_40">
    <path d="M 553.997217 414.1 
L 1065.6 414.1 
L 1065.6 7.2 
L 553.997217 7.2 
z
" style="fill: #ffffff"/>
   </g>
   <g id="matplotlib.axis_1">
    <g id="xtick_1">
     <g id="line2d_11">
      <defs>
       <path id="m62edbb3281" d="M 0 0 
L 0 3.5 
" style="stroke: #000000; stroke-width: 0.8"/>
      </defs>
      <g>
       <use xlink:href="#m62edbb3281" x="567.460448" y="414.1" style="stroke: #000000; stroke-width: 0.8"/>
      </g>
     </g>
    </g>
    <g id="xtick_2">
     <g id="line2d_12">
      <g>
       <use xlink:href="#m62edbb3281" x="594.38691" y="414.1" style="stroke: #000000; stroke-width: 0.8"/>
      </g>
     </g>
    </g>
    <g id="xtick_3">
     <g id="line2d_13">
      <g>
       <use xlink:href="#m62edbb3281" x="621.313372" y="414.1" style="stroke: #000000; stroke-width: 0.8"/>
      </g>
     </g>
    </g>
    <g id="xtick_4">
     <g id="line2d_14">
      <g>
       <use xlink:href="#m62edbb3281" x="648.239835" y="414.1" style="stroke: #000000; stroke-width: 0.8"/>
      </g>
     </g>
    </g>
    <g id="xtick_5">
     <g id="line2d_15">
      <g>
       <use xlink:href="#m62edbb3281" x="675.166297" y="414.1" style="stroke: #000000; stroke-width: 0.8"/>
      </g>
     </g>
    </g>
    <g id="xtick_6">
     <g id="line2d_16">
      <g>
       <use xlink:href="#m62edbb3281" x="702.092759" y="414.1" style="stroke: #000000; stroke-width: 0.8"/>
      </g>
     </g>
    </g>
    <g id="xtick_7">
     <g id="line2d_17">
      <g>
       <use xlink:href="#m62edbb3281" x="729.019222" y="414.1" style="stroke: #000000; stroke-width: 0.8"/>
      </g>
     </g>
    </g>
    <g id="xtick_8">
     <g id="line2d_18">
      <g>
       <use xlink:href="#m62edbb3281" x="755.945684" y="414.1" style="stroke: #000000; stroke-width: 0.8"/>
      </g>
     </g>
    </g>
    <g id="xtick_9">
     <g id="line2d_19">
      <g>
       <use xlink:href="#m62edbb3281" x="782.872146" y="414.1" style="stroke: #000000; stroke-width: 0.8"/>
      </g>
     </g>
    </g>
    <g id="xtick_10">
     <g id="line2d_20">
      <g>
       <use xlink:href="#m62edbb3281" x="809.798608" y="414.1" style="stroke: #000000; stroke-width: 0.8"/>
      </g>
     </g>
    </g>
    <g id="xtick_11">
     <g id="line2d_21">
      <g>
       <use xlink:href="#m62edbb3281" x="836.725071" y="414.1" style="stroke: #000000; stroke-width: 0.8"/>
      </g>
     </g>
    </g>
    <g id="xtick_12">
     <g id="line2d_22">
      <g>
       <use xlink:href="#m62edbb3281" x="863.651533" y="414.1" style="stroke: #000000; stroke-width: 0.8"/>
      </g>
     </g>
    </g>
    <g id="xtick_13">
     <g id="line2d_23">
      <g>
       <use xlink:href="#m62edbb3281" x="890.577995" y="414.1" style="stroke: #000000; stroke-width: 0.8"/>
      </g>
     </g>
    </g>
    <g id="xtick_14">
     <g id="line2d_24">
      <g>
       <use xlink:href="#m62edbb3281" x="917.504457" y="414.1" style="stroke: #000000; stroke-width: 0.8"/>
      </g>
     </g>
    </g>
    <g id="xtick_15">
     <g id="line2d_25">
      <g>
       <use xlink:href="#m62edbb3281" x="944.43092" y="414.1" style="stroke: #000000; stroke-width: 0.8"/>
      </g>
     </g>
    </g>
    <g id="xtick_16">
     <g id="line2d_26">
      <g>
       <use xlink:href="#m62edbb3281" x="971.357382" y="414.1" style="stroke: #000000; stroke-width: 0.8"/>
      </g>
     </g>
    </g>
    <g id="xtick_17">
     <g id="line2d_27">
      <g>
       <use xlink:href="#m62edbb3281" x="998.283844" y="414.1" style="stroke: #000000; stroke-width: 0.8"/>
      </g>
     </g>
    </g>
    <g id="xtick_18">
     <g id="line2d_28">
      <g>
       <use xlink:href="#m62edbb3281" x="1025.210307" y="414.1" style="stroke: #000000; stroke-width: 0.8"/>
      </g>
     </g>
    </g>
    <g id="xtick_19">
     <g id="line2d_29">
      <g>
       <use xlink:href="#m62edbb3281" x="1052.136769" y="414.1" style="stroke: #000000; stroke-width: 0.8"/>
      </g>
     </g>
    </g>
   </g>
   <g id="matplotlib.axis_2">
    <g id="ytick_1">
     <g id="line2d_30">
      <defs>
       <path id="m6e0006bf48" d="M 0 0 
L -3.5 0 
" style="stroke: #000000; stroke-width: 0.8"/>
      </defs>
      <g>
       <use xlink:href="#m6e0006bf48" x="553.997217" y="249.846779" style="stroke: #000000; stroke-width: 0.8"/>
      </g>
     </g>
     <g id="text_1">
      <!-- $r_{7}$ -->
      <g transform="translate(529.197217 257.445216) scale(0.2 -0.2)">
       <defs>
        <path id="DejaVuSans-Oblique-72" d="M 2853 2969 
Q 2766 3016 2653 3041 
Q 2541 3066 2413 3066 
Q 1953 3066 1609 2717 
Q 1266 2369 1153 1784 
L 800 0 
L 225 0 
L 909 3500 
L 1484 3500 
L 1375 2956 
Q 1603 3259 1920 3421 
Q 2238 3584 2597 3584 
Q 2691 3584 2781 3573 
Q 2872 3563 2963 3538 
L 2853 2969 
z
" transform="scale(0.015625)"/>
        <path id="DejaVuSans-37" d="M 525 4666 
L 3525 4666 
L 3525 4397 
L 1831 0 
L 1172 0 
L 2766 4134 
L 525 4134 
L 525 4666 
z
" transform="scale(0.015625)"/>
       </defs>
       <use xlink:href="#DejaVuSans-Oblique-72"/>
       <use xlink:href="#DejaVuSans-37" transform="translate(41.113281 -16.40625) scale(0.7)"/>
      </g>
     </g>
    </g>
   </g>
   <g id="line2d_31">
    <path d="M 594.38691 414.1 
L 594.38691 341.680163 
L 621.313372 341.680163 
L 621.313372 414.1 
" clip-path="url(#paf42b2982d)" style="fill: none; stroke: #ff0000; stroke-width: 5; stroke-linecap: square"/>
   </g>
   <g id="line2d_32">
    <path d="M 567.460448 414.1 
L 567.460448 249.846779 
L 607.850141 249.846779 
L 607.850141 341.680163 
" clip-path="url(#paf42b2982d)" style="fill: none; stroke: #ff0000; stroke-width: 5; stroke-linecap: square"/>
   </g>
   <g id="line2d_33">
    <path d="M 648.239835 414.1 
L 648.239835 313.020995 
L 675.166297 313.020995 
L 675.166297 414.1 
" clip-path="url(#paf42b2982d)" style="fill: none; stroke: #ff0000; stroke-width: 5; stroke-linecap: square"/>
   </g>
   <g id="line2d_34">
    <path d="M 890.577995 414.1 
L 890.577995 354.314891 
L 917.504457 354.314891 
L 917.504457 414.1 
" clip-path="url(#paf42b2982d)" style="fill: none; stroke: #ff0000; stroke-width: 5; stroke-linecap: square"/>
   </g>
   <g id="line2d_35">
    <path d="M 863.651533 414.1 
L 863.651533 352.802549 
L 904.041226 352.802549 
L 904.041226 354.314891 
" clip-path="url(#paf42b2982d)" style="fill: none; stroke: #ff0000; stroke-width: 5; stroke-linecap: square"/>
   </g>
   <g id="line2d_36">
    <path d="M 836.725071 414.1 
L 836.725071 336.906263 
L 883.84638 336.906263 
L 883.84638 352.802549 
" clip-path="url(#paf42b2982d)" style="fill: none; stroke: #ff0000; stroke-width: 5; stroke-linecap: square"/>
   </g>
   <g id="line2d_37">
    <path d="M 1025.210307 414.1 
L 1025.210307 253.682782 
L 1052.136769 253.682782 
L 1052.136769 414.1 
" clip-path="url(#paf42b2982d)" style="fill: none; stroke: #ff0000; stroke-width: 5; stroke-linecap: square"/>
   </g>
   <g id="line2d_38">
    <path d="M 702.092759 414.1 
L 702.092759 249.846779 
" clip-path="url(#paf42b2982d)" style="fill: none; stroke: #ff0000; stroke-width: 5; stroke-linecap: square"/>
   </g>
   <g id="line2d_39">
    <path d="M 729.019222 414.1 
L 729.019222 249.846779 
" clip-path="url(#paf42b2982d)" style="fill: none; stroke: #ff0000; stroke-width: 5; stroke-linecap: square"/>
   </g>
   <g id="line2d_40">
    <path d="M 755.945684 414.1 
L 755.945684 249.846779 
" clip-path="url(#paf42b2982d)" style="fill: none; stroke: #ff0000; stroke-width: 5; stroke-linecap: square"/>
   </g>
   <g id="line2d_41">
    <path d="M 782.872146 414.1 
L 782.872146 249.846779 
" clip-path="url(#paf42b2982d)" style="fill: none; stroke: #ff0000; stroke-width: 5; stroke-linecap: square"/>
   </g>
   <g id="line2d_42">
    <path d="M 809.798608 414.1 
L 809.798608 249.846779 
" clip-path="url(#paf42b2982d)" style="fill: none; stroke: #ff0000; stroke-width: 5; stroke-linecap: square"/>
   </g>
   <g id="line2d_43">
    <path d="M 944.43092 414.1 
L 944.43092 249.846779 
" clip-path="url(#paf42b2982d)" style="fill: none; stroke: #ff0000; stroke-width: 5; stroke-linecap: square"/>
   </g>
   <g id="line2d_44">
    <path d="M 971.357382 414.1 
L 971.357382 249.846779 
" clip-path="url(#paf42b2982d)" style="fill: none; stroke: #ff0000; stroke-width: 5; stroke-linecap: square"/>
   </g>
   <g id="line2d_45">
    <path d="M 998.283844 414.1 
L 998.283844 249.846779 
" clip-path="url(#paf42b2982d)" style="fill: none; stroke: #ff0000; stroke-width: 5; stroke-linecap: square"/>
   </g>
   <g id="line2d_46">
    <path d="M 587.655295 249.846779 
L 587.655295 249.846779 
" clip-path="url(#paf42b2982d)" style="fill: none; stroke: #ff0000; stroke-width: 5; stroke-linecap: square"/>
   </g>
   <g id="line2d_47">
    <path d="M 661.703066 313.020995 
L 661.703066 249.846779 
" clip-path="url(#paf42b2982d)" style="fill: none; stroke: #ff0000; stroke-width: 5; stroke-linecap: square"/>
   </g>
   <g id="line2d_48">
    <path d="M 860.285725 336.906263 
L 860.285725 249.846779 
" clip-path="url(#paf42b2982d)" style="fill: none; stroke: #ff0000; stroke-width: 5; stroke-linecap: square"/>
   </g>
   <g id="line2d_49">
    <path d="M 1038.673538 253.682782 
L 1038.673538 249.846779 
" clip-path="url(#paf42b2982d)" style="fill: none; stroke: #ff0000; stroke-width: 5; stroke-linecap: square"/>
   </g>
   <g id="patch_41">
    <path d="M 553.997217 414.1 
L 553.997217 7.2 
" style="fill: none; stroke: #000000; stroke-width: 0.8; stroke-linejoin: miter; stroke-linecap: square"/>
   </g>
   <g id="patch_42">
    <path d="M 1065.6 414.1 
L 1065.6 7.2 
" style="fill: none; stroke: #000000; stroke-width: 0.8; stroke-linejoin: miter; stroke-linecap: square"/>
   </g>
   <g id="patch_43">
    <path d="M 553.997217 414.1 
L 1065.6 414.1 
" style="fill: none; stroke: #000000; stroke-width: 0.8; stroke-linejoin: miter; stroke-linecap: square"/>
   </g>
   <g id="patch_44">
    <path d="M 553.997217 7.2 
L 1065.6 7.2 
" style="fill: none; stroke: #000000; stroke-width: 0.8; stroke-linejoin: miter; stroke-linecap: square"/>
   </g>
   <g id="PathCollection_3">
    <defs>
     <path id="m7d342aecb7" d="M 0 6.123724 
C 1.624031 6.123724 3.181764 5.47849 4.330127 4.330127 
C 5.47849 3.181764 6.123724 1.624031 6.123724 0 
C 6.123724 -1.624031 5.47849 -3.181764 4.330127 -4.330127 
C 3.181764 -5.47849 1.624031 -6.123724 0 -6.123724 
C -1.624031 -6.123724 -3.181764 -5.47849 -4.330127 -4.330127 
C -5.47849 -3.181764 -6.123724 -1.624031 -6.123724 0 
C -6.123724 1.624031 -5.47849 3.181764 -4.330127 4.330127 
C -3.181764 5.47849 -1.624031 6.123724 0 6.123724 
z
" style="stroke: #0000ff"/>
    </defs>
    <g clip-path="url(#paf42b2982d)">
     <use xlink:href="#m7d342aecb7" x="567.460448" y="414.1" style="fill: #0000ff; stroke: #0000ff"/>
     <use xlink:href="#m7d342aecb7" x="594.38691" y="414.1" style="fill: #0000ff; stroke: #0000ff"/>
     <use xlink:href="#m7d342aecb7" x="621.313372" y="414.1" style="fill: #0000ff; stroke: #0000ff"/>
     <use xlink:href="#m7d342aecb7" x="648.239835" y="414.1" style="fill: #0000ff; stroke: #0000ff"/>
     <use xlink:href="#m7d342aecb7" x="675.166297" y="414.1" style="fill: #0000ff; stroke: #0000ff"/>
     <use xlink:href="#m7d342aecb7" x="702.092759" y="414.1" style="fill: #0000ff; stroke: #0000ff"/>
     <use xlink:href="#m7d342aecb7" x="729.019222" y="414.1" style="fill: #0000ff; stroke: #0000ff"/>
     <use xlink:href="#m7d342aecb7" x="755.945684" y="414.1" style="fill: #0000ff; stroke: #0000ff"/>
     <use xlink:href="#m7d342aecb7" x="782.872146" y="414.1" style="fill: #0000ff; stroke: #0000ff"/>
     <use xlink:href="#m7d342aecb7" x="809.798608" y="414.1" style="fill: #0000ff; stroke: #0000ff"/>
     <use xlink:href="#m7d342aecb7" x="836.725071" y="414.1" style="fill: #0000ff; stroke: #0000ff"/>
     <use xlink:href="#m7d342aecb7" x="863.651533" y="414.1" style="fill: #0000ff; stroke: #0000ff"/>
     <use xlink:href="#m7d342aecb7" x="890.577995" y="414.1" style="fill: #0000ff; stroke: #0000ff"/>
     <use xlink:href="#m7d342aecb7" x="917.504457" y="414.1" style="fill: #0000ff; stroke: #0000ff"/>
     <use xlink:href="#m7d342aecb7" x="944.43092" y="414.1" style="fill: #0000ff; stroke: #0000ff"/>
     <use xlink:href="#m7d342aecb7" x="971.357382" y="414.1" style="fill: #0000ff; stroke: #0000ff"/>
     <use xlink:href="#m7d342aecb7" x="998.283844" y="414.1" style="fill: #0000ff; stroke: #0000ff"/>
     <use xlink:href="#m7d342aecb7" x="1025.210307" y="414.1" style="fill: #0000ff; stroke: #0000ff"/>
     <use xlink:href="#m7d342aecb7" x="1052.136769" y="414.1" style="fill: #0000ff; stroke: #0000ff"/>
    </g>
   </g>
  </g>
 </g>
 <defs>
  <clipPath id="p58f7514dbd">
   <rect x="7.2" y="18.62403" width="511.602783" height="384.05194"/>
  </clipPath>
  <clipPath id="paf42b2982d">
   <rect x="553.997217" y="7.2" width="511.602783" height="406.9"/>
  </clipPath>
 </defs>
</svg>
