<?xml version="1.0" encoding="utf-8" standalone="no"?>
<!DOCTYPE svg PUBLIC "-//W3C//DTD SVG 1.1//EN"
  "http://www.w3.org/Graphics/SVG/1.1/DTD/svg11.dtd">
<svg xmlns:xlink="http://www.w3.org/1999/xlink" width="1072.8pt" height="424.8pt" viewBox="0 0 1072.8 424.8" xmlns="http://www.w3.org/2000/svg" version="1.1">
 <metadata>
  <rdf:RDF xmlns:dc="http://purl.org/dc/elements/1.1/" xmlns:cc="http://creativecommons.org/ns#" xmlns:rdf="http://www.w3.org/1999/02/22-rdf-syntax-ns#">
   <cc:Work>
    <dc:type rdf:resource="http://purl.org/dc/dcmitype/StillImage"/>
    <dc:date>2023-10-24T09:47:30.678816</dc:date>
    <dc:format>image/svg+xml</dc:format>
    <dc:creator>
     <cc:Agent>
      <dc:title>Matplotlib v3.7.2, https://matplotlib.org/</dc:title>
     </cc:Agent>
    </dc:creator>
   </cc:Work>
  </rdf:RDF>
 </metadata>
 <defs>
  <style type="text/css">*{stroke-linejoin: round; stroke-linecap: butt}</style>
 </defs>
 <g id="figure_1">
  <g id="patch_1">
   <path d="M 0 424.8 
L 1072.8 424.8 
L 1072.8 -0 
L 0 -0 
z
" style="fill: #ffffff"/>
  </g>
  <g id="axes_1">
   <g id="PathCollection_1">
    <defs>
     <path id="mcd3b115777" d="M 0 3 
C 0.795609 3 1.55874 2.683901 2.12132 2.12132 
C 2.683901 1.55874 3 0.795609 3 0 
C 3 -0.795609 2.683901 -1.55874 2.12132 -2.12132 
C 1.55874 -2.683901 0.795609 -3 0 -3 
C -0.795609 -3 -1.55874 -2.683901 -2.12132 -2.12132 
C -2.683901 -1.55874 -3 -0.795609 -3 0 
C -3 0.795609 -2.683901 1.55874 -2.12132 2.12132 
C -1.55874 2.683901 -0.795609 3 0 3 
z
" style="stroke: #1f77b4; stroke-opacity: 0"/>
    </defs>
    <g clip-path="url(#p45b00ac06f)">
     <use xlink:href="#mcd3b115777" x="7.2" y="400.955343" style="fill: #1f77b4; fill-opacity: 0; stroke: #1f77b4; stroke-opacity: 0"/>
     <use xlink:href="#mcd3b115777" x="514.218624" y="20.344657" style="fill: #1f77b4; fill-opacity: 0; stroke: #1f77b4; stroke-opacity: 0"/>
    </g>
   </g>
   <g id="patch_2">
    <path d="M 317.104697 314.020321 
C 339.906189 314.020321 361.776861 304.961192 377.899951 288.838102 
C 394.02304 272.715012 403.082169 250.84434 403.082169 228.042848 
C 403.082169 205.241356 394.02304 183.370684 377.899951 167.247594 
C 361.776861 151.124504 339.906189 142.065375 317.104697 142.065375 
C 294.303204 142.065375 272.432532 151.124504 256.309443 167.247594 
C 240.186353 183.370684 231.127224 205.241356 231.127224 228.042848 
C 231.127224 250.84434 240.186353 272.715012 256.309443 288.838102 
C 272.432532 304.961192 294.303204 314.020321 317.104697 314.020321 
z
" clip-path="url(#p45b00ac06f)" style="fill: #ff0000; opacity: 0.2"/>
   </g>
   <g id="patch_3">
    <path d="M 302.93283 247.96201 
C 325.734322 247.96201 347.604994 238.902881 363.728084 222.779791 
C 379.851174 206.656701 388.910303 184.78603 388.910303 161.984537 
C 388.910303 139.183045 379.851174 117.312373 363.728084 101.189283 
C 347.604994 85.066194 325.734322 76.007065 302.93283 76.007065 
C 280.131338 76.007065 258.260666 85.066194 242.137576 101.189283 
C 226.014486 117.312373 216.955357 139.183045 216.955357 161.984537 
C 216.955357 184.78603 226.014486 206.656701 242.137576 222.779791 
C 258.260666 238.902881 280.131338 247.96201 302.93283 247.96201 
z
" clip-path="url(#p45b00ac06f)" style="fill: #ff0000; opacity: 0.2"/>
   </g>
   <g id="patch_4">
    <path d="M 226.670892 182.415672 
C 249.472385 182.415672 271.343056 173.356543 287.466146 157.233453 
C 303.589236 141.110363 312.648365 119.239691 312.648365 96.438199 
C 312.648365 73.636707 303.589236 51.766035 287.466146 35.642945 
C 271.343056 19.519855 249.472385 10.460726 226.670892 10.460726 
C 203.8694 10.460726 181.998728 19.519855 165.875638 35.642945 
C 149.752549 51.766035 140.69342 73.636707 140.69342 96.438199 
C 140.69342 119.239691 149.752549 141.110363 165.875638 157.233453 
C 181.998728 173.356543 203.8694 182.415672 226.670892 182.415672 
z
" clip-path="url(#p45b00ac06f)" style="fill: #ff0000; opacity: 0.2"/>
   </g>
   <g id="patch_5">
    <path d="M 180.816885 177.72951 
C 203.618377 177.72951 225.489049 168.670381 241.612138 152.547292 
C 257.735228 136.424202 266.794357 114.55353 266.794357 91.752038 
C 266.794357 68.950545 257.735228 47.079874 241.612138 30.956784 
C 225.489049 14.833694 203.618377 5.774565 180.816885 5.774565 
C 158.015392 5.774565 136.14472 14.833694 120.021631 30.956784 
C 103.898541 47.079874 94.839412 68.950545 94.839412 91.752038 
C 94.839412 114.55353 103.898541 136.424202 120.021631 152.547292 
C 136.14472 168.670381 158.015392 177.72951 180.816885 177.72951 
z
" clip-path="url(#p45b00ac06f)" style="fill: #ff0000; opacity: 0.2"/>
   </g>
   <g id="patch_6">
    <path d="M 180.112136 198.039787 
C 202.913628 198.039787 224.7843 188.980658 240.90739 172.857569 
C 257.03048 156.734479 266.089609 134.863807 266.089609 112.062315 
C 266.089609 89.260822 257.03048 67.390151 240.90739 51.267061 
C 224.7843 35.143971 202.913628 26.084842 180.112136 26.084842 
C 157.310644 26.084842 135.439972 35.143971 119.316882 51.267061 
C 103.193792 67.390151 94.134664 89.260822 94.134664 112.062315 
C 94.134664 134.863807 103.193792 156.734479 119.316882 172.857569 
C 135.439972 188.980658 157.310644 198.039787 180.112136 198.039787 
z
" clip-path="url(#p45b00ac06f)" style="fill: #ff0000; opacity: 0.2"/>
   </g>
   <g id="patch_7">
    <path d="M 108.72803 245.960922 
C 131.529522 245.960922 153.400194 236.901793 169.523284 220.778703 
C 185.646373 204.655613 194.705502 182.784942 194.705502 159.983449 
C 194.705502 137.181957 185.646373 115.311285 169.523284 99.188195 
C 153.400194 83.065106 131.529522 74.005977 108.72803 74.005977 
C 85.926537 74.005977 64.055866 83.065106 47.932776 99.188195 
C 31.809686 115.311285 22.750557 137.181957 22.750557 159.983449 
C 22.750557 182.784942 31.809686 204.655613 47.932776 220.778703 
C 64.055866 236.901793 85.926537 245.960922 108.72803 245.960922 
z
" clip-path="url(#p45b00ac06f)" style="fill: #ff0000; opacity: 0.2"/>
   </g>
   <g id="patch_8">
    <path d="M 78.607381 289.960379 
C 101.408873 289.960379 123.279545 280.90125 139.402634 264.77816 
C 155.525724 248.65507 164.584853 226.784398 164.584853 203.982906 
C 164.584853 181.181414 155.525724 159.310742 139.402634 143.187652 
C 123.279545 127.064562 101.408873 118.005434 78.607381 118.005434 
C 55.805888 118.005434 33.935216 127.064562 17.812127 143.187652 
C 1.689037 159.310742 -7.370092 181.181414 -7.370092 203.982906 
C -7.370092 226.784398 1.689037 248.65507 17.812127 264.77816 
C 33.935216 280.90125 55.805888 289.960379 78.607381 289.960379 
z
" clip-path="url(#p45b00ac06f)" style="fill: #ff0000; opacity: 0.2"/>
   </g>
   <g id="patch_9">
    <path d="M 100.009568 362.588751 
C 122.81106 362.588751 144.681732 353.529622 160.804822 337.406532 
C 176.927911 321.283442 185.98704 299.41277 185.98704 276.611278 
C 185.98704 253.809786 176.927911 231.939114 160.804822 215.816024 
C 144.681732 199.692934 122.81106 190.633805 100.009568 190.633805 
C 77.208075 190.633805 55.337403 199.692934 39.214314 215.816024 
C 23.091224 231.939114 14.032095 253.809786 14.032095 276.611278 
C 14.032095 299.41277 23.091224 321.283442 39.214314 337.406532 
C 55.337403 353.529622 77.208075 362.588751 100.009568 362.588751 
z
" clip-path="url(#p45b00ac06f)" style="fill: #ff0000; opacity: 0.2"/>
   </g>
   <g id="patch_10">
    <path d="M 115.230306 386.523956 
C 138.031798 386.523956 159.90247 377.464827 176.02556 361.341738 
C 192.14865 345.218648 201.207779 323.347976 201.207779 300.546484 
C 201.207779 277.744991 192.14865 255.874319 176.02556 239.75123 
C 159.90247 223.62814 138.031798 214.569011 115.230306 214.569011 
C 92.428814 214.569011 70.558142 223.62814 54.435052 239.75123 
C 38.311962 255.874319 29.252833 277.744991 29.252833 300.546484 
C 29.252833 323.347976 38.311962 345.218648 54.435052 361.341738 
C 70.558142 377.464827 92.428814 386.523956 115.230306 386.523956 
z
" clip-path="url(#p45b00ac06f)" style="fill: #ff0000; opacity: 0.2"/>
   </g>
   <g id="patch_11">
    <path d="M 207.093799 415.525435 
C 229.895291 415.525435 251.765963 406.466306 267.889053 390.343216 
C 284.012143 374.220126 293.071272 352.349455 293.071272 329.547962 
C 293.071272 306.74647 284.012143 284.875798 267.889053 268.752708 
C 251.765963 252.629619 229.895291 243.57049 207.093799 243.57049 
C 184.292307 243.57049 162.421635 252.629619 146.298545 268.752708 
C 130.175455 284.875798 121.116326 306.74647 121.116326 329.547962 
C 121.116326 352.349455 130.175455 374.220126 146.298545 390.343216 
C 162.421635 406.466306 184.292307 415.525435 207.093799 415.525435 
z
" clip-path="url(#p45b00ac06f)" style="fill: #ff0000; opacity: 0.2"/>
   </g>
   <g id="patch_12">
    <path d="M 260.062708 406.901067 
C 282.8642 406.901067 304.734872 397.841938 320.857962 381.718848 
C 336.981052 365.595758 346.040181 343.725086 346.040181 320.923594 
C 346.040181 298.122102 336.981052 276.25143 320.857962 260.12834 
C 304.734872 244.00525 282.8642 234.946121 260.062708 234.946121 
C 237.261216 234.946121 215.390544 244.00525 199.267454 260.12834 
C 183.144364 276.25143 174.085235 298.122102 174.085235 320.923594 
C 174.085235 343.725086 183.144364 365.595758 199.267454 381.718848 
C 215.390544 397.841938 237.261216 406.901067 260.062708 406.901067 
z
" clip-path="url(#p45b00ac06f)" style="fill: #ff0000; opacity: 0.2"/>
   </g>
   <g id="patch_13">
    <path d="M 313.476895 335.376538 
C 336.278387 335.376538 358.149059 326.317409 374.272149 310.194319 
C 390.395238 294.071229 399.454367 272.200558 399.454367 249.399065 
C 399.454367 226.597573 390.395238 204.726901 374.272149 188.603811 
C 358.149059 172.480722 336.278387 163.421593 313.476895 163.421593 
C 290.675402 163.421593 268.804731 172.480722 252.681641 188.603811 
C 236.558551 204.726901 227.499422 226.597573 227.499422 249.399065 
C 227.499422 272.200558 236.558551 294.071229 252.681641 310.194319 
C 268.804731 326.317409 290.675402 335.376538 313.476895 335.376538 
z
" clip-path="url(#p45b00ac06f)" style="fill: #ff0000; opacity: 0.2"/>
   </g>
   <g id="patch_14">
    <path d="M 442.811243 298.109473 
C 465.612735 298.109473 487.483407 289.050344 503.606497 272.927254 
C 519.729587 256.804164 528.788716 234.933492 528.788716 212.132 
C 528.788716 189.330508 519.729587 167.459836 503.606497 151.336746 
C 487.483407 135.213656 465.612735 126.154527 442.811243 126.154527 
C 420.009751 126.154527 398.139079 135.213656 382.015989 151.336746 
C 365.892899 167.459836 356.83377 189.330508 356.83377 212.132 
C 356.83377 234.933492 365.892899 256.804164 382.015989 272.927254 
C 398.139079 289.050344 420.009751 298.109473 442.811243 298.109473 
z
" clip-path="url(#p45b00ac06f)" style="fill: #ff0000; opacity: 0.2"/>
   </g>
   <g id="patch_15">
    <path d="M 417.201045 239.118134 
C 440.002538 239.118134 461.873209 230.059005 477.996299 213.935915 
C 494.119389 197.812825 503.178518 175.942153 503.178518 153.140661 
C 503.178518 130.339169 494.119389 108.468497 477.996299 92.345407 
C 461.873209 76.222317 440.002538 67.163189 417.201045 67.163189 
C 394.399553 67.163189 372.528881 76.222317 356.405791 92.345407 
C 340.282702 108.468497 331.223573 130.339169 331.223573 153.140661 
C 331.223573 175.942153 340.282702 197.812825 356.405791 213.935915 
C 372.528881 230.059005 394.399553 239.118134 417.201045 239.118134 
z
" clip-path="url(#p45b00ac06f)" style="fill: #ff0000; opacity: 0.2"/>
   </g>
   <g id="patch_16">
    <path d="M 373.431029 228.598619 
C 396.232521 228.598619 418.103193 219.53949 434.226283 203.4164 
C 450.349372 187.293311 459.408501 165.422639 459.408501 142.621146 
C 459.408501 119.819654 450.349372 97.948982 434.226283 81.825892 
C 418.103193 65.702803 396.232521 56.643674 373.431029 56.643674 
C 350.629536 56.643674 328.758865 65.702803 312.635775 81.825892 
C 296.512685 97.948982 287.453556 119.819654 287.453556 142.621146 
C 287.453556 165.422639 296.512685 187.293311 312.635775 203.4164 
C 328.758865 219.53949 350.629536 228.598619 373.431029 228.598619 
z
" clip-path="url(#p45b00ac06f)" style="fill: #ff0000; opacity: 0.2"/>
   </g>
   <g id="patch_17">
    <path d="M 299.921343 295.192951 
C 322.722836 295.192951 344.593507 286.133823 360.716597 270.010733 
C 376.839687 253.887643 385.898816 232.016971 385.898816 209.215479 
C 385.898816 186.413987 376.839687 164.543315 360.716597 148.420225 
C 344.593507 132.297135 322.722836 123.238006 299.921343 123.238006 
C 277.119851 123.238006 255.249179 132.297135 239.126089 148.420225 
C 223.002999 164.543315 213.943871 186.413987 213.943871 209.215479 
C 213.943871 232.016971 223.002999 253.887643 239.126089 270.010733 
C 255.249179 286.133823 277.119851 295.192951 299.921343 295.192951 
z
" clip-path="url(#p45b00ac06f)" style="fill: #ff0000; opacity: 0.2"/>
   </g>
   <g id="patch_18">
    <path d="M 300.407417 312.387412 
C 323.208909 312.387412 345.079581 303.328283 361.202671 287.205193 
C 377.325761 271.082103 386.384889 249.211431 386.384889 226.409939 
C 386.384889 203.608447 377.325761 181.737775 361.202671 165.614685 
C 345.079581 149.491595 323.208909 140.432467 300.407417 140.432467 
C 277.605924 140.432467 255.735253 149.491595 239.612163 165.614685 
C 223.489073 181.737775 214.429944 203.608447 214.429944 226.409939 
C 214.429944 249.211431 223.489073 271.082103 239.612163 287.205193 
C 255.735253 303.328283 277.605924 312.387412 300.407417 312.387412 
z
" clip-path="url(#p45b00ac06f)" style="fill: #ff0000; opacity: 0.2"/>
   </g>
   <g id="patch_19">
    <path d="M 364.109393 369.565703 
C 386.910885 369.565703 408.781557 360.506574 424.904647 344.383484 
C 441.027736 328.260395 450.086865 306.389723 450.086865 283.588231 
C 450.086865 260.786738 441.027736 238.916066 424.904647 222.792977 
C 408.781557 206.669887 386.910885 197.610758 364.109393 197.610758 
C 341.3079 197.610758 319.437228 206.669887 303.314139 222.792977 
C 287.191049 238.916066 278.13192 260.786738 278.13192 283.588231 
C 278.13192 306.389723 287.191049 328.260395 303.314139 344.383484 
C 319.437228 360.506574 341.3079 369.565703 364.109393 369.565703 
z
" clip-path="url(#p45b00ac06f)" style="fill: #ff0000; opacity: 0.2"/>
   </g>
   <g id="patch_20">
    <path d="M 417.553414 362.281287 
C 440.354907 362.281287 462.225578 353.222158 478.348668 337.099068 
C 494.471758 320.975978 503.530887 299.105306 503.530887 276.303814 
C 503.530887 253.502322 494.471758 231.63165 478.348668 215.50856 
C 462.225578 199.38547 440.354907 190.326341 417.553414 190.326341 
C 394.751922 190.326341 372.88125 199.38547 356.75816 215.50856 
C 340.635071 231.63165 331.575942 253.502322 331.575942 276.303814 
C 331.575942 299.105306 340.635071 320.975978 356.75816 337.099068 
C 372.88125 353.222158 394.751922 362.281287 417.553414 362.281287 
z
" clip-path="url(#p45b00ac06f)" style="fill: #ff0000; opacity: 0.2"/>
   </g>
   <g id="patch_21">
    <path d="M 317.104697 314.020321 
C 339.906189 314.020321 361.776861 304.961192 377.899951 288.838102 
C 394.02304 272.715012 403.082169 250.84434 403.082169 228.042848 
C 403.082169 205.241356 394.02304 183.370684 377.899951 167.247594 
C 361.776861 151.124504 339.906189 142.065375 317.104697 142.065375 
C 294.303204 142.065375 272.432532 151.124504 256.309443 167.247594 
C 240.186353 183.370684 231.127224 205.241356 231.127224 228.042848 
C 231.127224 250.84434 240.186353 272.715012 256.309443 288.838102 
C 272.432532 304.961192 294.303204 314.020321 317.104697 314.020321 
L 317.104697 314.020321 
z
" clip-path="url(#p45b00ac06f)" style="fill: none; stroke: #ff0000; stroke-width: 2; stroke-linejoin: miter"/>
   </g>
   <g id="patch_22">
    <path d="M 302.93283 247.96201 
C 325.734322 247.96201 347.604994 238.902881 363.728084 222.779791 
C 379.851174 206.656701 388.910303 184.78603 388.910303 161.984537 
C 388.910303 139.183045 379.851174 117.312373 363.728084 101.189283 
C 347.604994 85.066194 325.734322 76.007065 302.93283 76.007065 
C 280.131338 76.007065 258.260666 85.066194 242.137576 101.189283 
C 226.014486 117.312373 216.955357 139.183045 216.955357 161.984537 
C 216.955357 184.78603 226.014486 206.656701 242.137576 222.779791 
C 258.260666 238.902881 280.131338 247.96201 302.93283 247.96201 
L 302.93283 247.96201 
z
" clip-path="url(#p45b00ac06f)" style="fill: none; stroke: #ff0000; stroke-width: 2; stroke-linejoin: miter"/>
   </g>
   <g id="patch_23">
    <path d="M 226.670892 182.415672 
C 249.472385 182.415672 271.343056 173.356543 287.466146 157.233453 
C 303.589236 141.110363 312.648365 119.239691 312.648365 96.438199 
C 312.648365 73.636707 303.589236 51.766035 287.466146 35.642945 
C 271.343056 19.519855 249.472385 10.460726 226.670892 10.460726 
C 203.8694 10.460726 181.998728 19.519855 165.875638 35.642945 
C 149.752549 51.766035 140.69342 73.636707 140.69342 96.438199 
C 140.69342 119.239691 149.752549 141.110363 165.875638 157.233453 
C 181.998728 173.356543 203.8694 182.415672 226.670892 182.415672 
L 226.670892 182.415672 
z
" clip-path="url(#p45b00ac06f)" style="fill: none; stroke: #ff0000; stroke-width: 2; stroke-linejoin: miter"/>
   </g>
   <g id="patch_24">
    <path d="M 180.816885 177.72951 
C 203.618377 177.72951 225.489049 168.670381 241.612138 152.547292 
C 257.735228 136.424202 266.794357 114.55353 266.794357 91.752038 
C 266.794357 68.950545 257.735228 47.079874 241.612138 30.956784 
C 225.489049 14.833694 203.618377 5.774565 180.816885 5.774565 
C 158.015392 5.774565 136.14472 14.833694 120.021631 30.956784 
C 103.898541 47.079874 94.839412 68.950545 94.839412 91.752038 
C 94.839412 114.55353 103.898541 136.424202 120.021631 152.547292 
C 136.14472 168.670381 158.015392 177.72951 180.816885 177.72951 
L 180.816885 177.72951 
z
" clip-path="url(#p45b00ac06f)" style="fill: none; stroke: #ff0000; stroke-width: 2; stroke-linejoin: miter"/>
   </g>
   <g id="patch_25">
    <path d="M 180.112136 198.039787 
C 202.913628 198.039787 224.7843 188.980658 240.90739 172.857569 
C 257.03048 156.734479 266.089609 134.863807 266.089609 112.062315 
C 266.089609 89.260822 257.03048 67.390151 240.90739 51.267061 
C 224.7843 35.143971 202.913628 26.084842 180.112136 26.084842 
C 157.310644 26.084842 135.439972 35.143971 119.316882 51.267061 
C 103.193792 67.390151 94.134664 89.260822 94.134664 112.062315 
C 94.134664 134.863807 103.193792 156.734479 119.316882 172.857569 
C 135.439972 188.980658 157.310644 198.039787 180.112136 198.039787 
L 180.112136 198.039787 
z
" clip-path="url(#p45b00ac06f)" style="fill: none; stroke: #ff0000; stroke-width: 2; stroke-linejoin: miter"/>
   </g>
   <g id="patch_26">
    <path d="M 108.72803 245.960922 
C 131.529522 245.960922 153.400194 236.901793 169.523284 220.778703 
C 185.646373 204.655613 194.705502 182.784942 194.705502 159.983449 
C 194.705502 137.181957 185.646373 115.311285 169.523284 99.188195 
C 153.400194 83.065106 131.529522 74.005977 108.72803 74.005977 
C 85.926537 74.005977 64.055866 83.065106 47.932776 99.188195 
C 31.809686 115.311285 22.750557 137.181957 22.750557 159.983449 
C 22.750557 182.784942 31.809686 204.655613 47.932776 220.778703 
C 64.055866 236.901793 85.926537 245.960922 108.72803 245.960922 
L 108.72803 245.960922 
z
" clip-path="url(#p45b00ac06f)" style="fill: none; stroke: #ff0000; stroke-width: 2; stroke-linejoin: miter"/>
   </g>
   <g id="patch_27">
    <path d="M 78.607381 289.960379 
C 101.408873 289.960379 123.279545 280.90125 139.402634 264.77816 
C 155.525724 248.65507 164.584853 226.784398 164.584853 203.982906 
C 164.584853 181.181414 155.525724 159.310742 139.402634 143.187652 
C 123.279545 127.064562 101.408873 118.005434 78.607381 118.005434 
C 55.805888 118.005434 33.935216 127.064562 17.812127 143.187652 
C 1.689037 159.310742 -7.370092 181.181414 -7.370092 203.982906 
C -7.370092 226.784398 1.689037 248.65507 17.812127 264.77816 
C 33.935216 280.90125 55.805888 289.960379 78.607381 289.960379 
L 78.607381 289.960379 
z
" clip-path="url(#p45b00ac06f)" style="fill: none; stroke: #ff0000; stroke-width: 2; stroke-linejoin: miter"/>
   </g>
   <g id="patch_28">
    <path d="M 100.009568 362.588751 
C 122.81106 362.588751 144.681732 353.529622 160.804822 337.406532 
C 176.927911 321.283442 185.98704 299.41277 185.98704 276.611278 
C 185.98704 253.809786 176.927911 231.939114 160.804822 215.816024 
C 144.681732 199.692934 122.81106 190.633805 100.009568 190.633805 
C 77.208075 190.633805 55.337403 199.692934 39.214314 215.816024 
C 23.091224 231.939114 14.032095 253.809786 14.032095 276.611278 
C 14.032095 299.41277 23.091224 321.283442 39.214314 337.406532 
C 55.337403 353.529622 77.208075 362.588751 100.009568 362.588751 
L 100.009568 362.588751 
z
" clip-path="url(#p45b00ac06f)" style="fill: none; stroke: #ff0000; stroke-width: 2; stroke-linejoin: miter"/>
   </g>
   <g id="patch_29">
    <path d="M 115.230306 386.523956 
C 138.031798 386.523956 159.90247 377.464827 176.02556 361.341738 
C 192.14865 345.218648 201.207779 323.347976 201.207779 300.546484 
C 201.207779 277.744991 192.14865 255.874319 176.02556 239.75123 
C 159.90247 223.62814 138.031798 214.569011 115.230306 214.569011 
C 92.428814 214.569011 70.558142 223.62814 54.435052 239.75123 
C 38.311962 255.874319 29.252833 277.744991 29.252833 300.546484 
C 29.252833 323.347976 38.311962 345.218648 54.435052 361.341738 
C 70.558142 377.464827 92.428814 386.523956 115.230306 386.523956 
L 115.230306 386.523956 
z
" clip-path="url(#p45b00ac06f)" style="fill: none; stroke: #ff0000; stroke-width: 2; stroke-linejoin: miter"/>
   </g>
   <g id="patch_30">
    <path d="M 207.093799 415.525435 
C 229.895291 415.525435 251.765963 406.466306 267.889053 390.343216 
C 284.012143 374.220126 293.071272 352.349455 293.071272 329.547962 
C 293.071272 306.74647 284.012143 284.875798 267.889053 268.752708 
C 251.765963 252.629619 229.895291 243.57049 207.093799 243.57049 
C 184.292307 243.57049 162.421635 252.629619 146.298545 268.752708 
C 130.175455 284.875798 121.116326 306.74647 121.116326 329.547962 
C 121.116326 352.349455 130.175455 374.220126 146.298545 390.343216 
C 162.421635 406.466306 184.292307 415.525435 207.093799 415.525435 
L 207.093799 415.525435 
z
" clip-path="url(#p45b00ac06f)" style="fill: none; stroke: #ff0000; stroke-width: 2; stroke-linejoin: miter"/>
   </g>
   <g id="patch_31">
    <path d="M 260.062708 406.901067 
C 282.8642 406.901067 304.734872 397.841938 320.857962 381.718848 
C 336.981052 365.595758 346.040181 343.725086 346.040181 320.923594 
C 346.040181 298.122102 336.981052 276.25143 320.857962 260.12834 
C 304.734872 244.00525 282.8642 234.946121 260.062708 234.946121 
C 237.261216 234.946121 215.390544 244.00525 199.267454 260.12834 
C 183.144364 276.25143 174.085235 298.122102 174.085235 320.923594 
C 174.085235 343.725086 183.144364 365.595758 199.267454 381.718848 
C 215.390544 397.841938 237.261216 406.901067 260.062708 406.901067 
L 260.062708 406.901067 
z
" clip-path="url(#p45b00ac06f)" style="fill: none; stroke: #ff0000; stroke-width: 2; stroke-linejoin: miter"/>
   </g>
   <g id="patch_32">
    <path d="M 313.476895 335.376538 
C 336.278387 335.376538 358.149059 326.317409 374.272149 310.194319 
C 390.395238 294.071229 399.454367 272.200558 399.454367 249.399065 
C 399.454367 226.597573 390.395238 204.726901 374.272149 188.603811 
C 358.149059 172.480722 336.278387 163.421593 313.476895 163.421593 
C 290.675402 163.421593 268.804731 172.480722 252.681641 188.603811 
C 236.558551 204.726901 227.499422 226.597573 227.499422 249.399065 
C 227.499422 272.200558 236.558551 294.071229 252.681641 310.194319 
C 268.804731 326.317409 290.675402 335.376538 313.476895 335.376538 
L 313.476895 335.376538 
z
" clip-path="url(#p45b00ac06f)" style="fill: none; stroke: #ff0000; stroke-width: 2; stroke-linejoin: miter"/>
   </g>
   <g id="patch_33">
    <path d="M 442.811243 298.109473 
C 465.612735 298.109473 487.483407 289.050344 503.606497 272.927254 
C 519.729587 256.804164 528.788716 234.933492 528.788716 212.132 
C 528.788716 189.330508 519.729587 167.459836 503.606497 151.336746 
C 487.483407 135.213656 465.612735 126.154527 442.811243 126.154527 
C 420.009751 126.154527 398.139079 135.213656 382.015989 151.336746 
C 365.892899 167.459836 356.83377 189.330508 356.83377 212.132 
C 356.83377 234.933492 365.892899 256.804164 382.015989 272.927254 
C 398.139079 289.050344 420.009751 298.109473 442.811243 298.109473 
L 442.811243 298.109473 
z
" clip-path="url(#p45b00ac06f)" style="fill: none; stroke: #ff0000; stroke-width: 2; stroke-linejoin: miter"/>
   </g>
   <g id="patch_34">
    <path d="M 417.201045 239.118134 
C 440.002538 239.118134 461.873209 230.059005 477.996299 213.935915 
C 494.119389 197.812825 503.178518 175.942153 503.178518 153.140661 
C 503.178518 130.339169 494.119389 108.468497 477.996299 92.345407 
C 461.873209 76.222317 440.002538 67.163189 417.201045 67.163189 
C 394.399553 67.163189 372.528881 76.222317 356.405791 92.345407 
C 340.282702 108.468497 331.223573 130.339169 331.223573 153.140661 
C 331.223573 175.942153 340.282702 197.812825 356.405791 213.935915 
C 372.528881 230.059005 394.399553 239.118134 417.201045 239.118134 
L 417.201045 239.118134 
z
" clip-path="url(#p45b00ac06f)" style="fill: none; stroke: #ff0000; stroke-width: 2; stroke-linejoin: miter"/>
   </g>
   <g id="patch_35">
    <path d="M 373.431029 228.598619 
C 396.232521 228.598619 418.103193 219.53949 434.226283 203.4164 
C 450.349372 187.293311 459.408501 165.422639 459.408501 142.621146 
C 459.408501 119.819654 450.349372 97.948982 434.226283 81.825892 
C 418.103193 65.702803 396.232521 56.643674 373.431029 56.643674 
C 350.629536 56.643674 328.758865 65.702803 312.635775 81.825892 
C 296.512685 97.948982 287.453556 119.819654 287.453556 142.621146 
C 287.453556 165.422639 296.512685 187.293311 312.635775 203.4164 
C 328.758865 219.53949 350.629536 228.598619 373.431029 228.598619 
L 373.431029 228.598619 
z
" clip-path="url(#p45b00ac06f)" style="fill: none; stroke: #ff0000; stroke-width: 2; stroke-linejoin: miter"/>
   </g>
   <g id="patch_36">
    <path d="M 299.921343 295.192951 
C 322.722836 295.192951 344.593507 286.133823 360.716597 270.010733 
C 376.839687 253.887643 385.898816 232.016971 385.898816 209.215479 
C 385.898816 186.413987 376.839687 164.543315 360.716597 148.420225 
C 344.593507 132.297135 322.722836 123.238006 299.921343 123.238006 
C 277.119851 123.238006 255.249179 132.297135 239.126089 148.420225 
C 223.002999 164.543315 213.943871 186.413987 213.943871 209.215479 
C 213.943871 232.016971 223.002999 253.887643 239.126089 270.010733 
C 255.249179 286.133823 277.119851 295.192951 299.921343 295.192951 
L 299.921343 295.192951 
z
" clip-path="url(#p45b00ac06f)" style="fill: none; stroke: #ff0000; stroke-width: 2; stroke-linejoin: miter"/>
   </g>
   <g id="patch_37">
    <path d="M 300.407417 312.387412 
C 323.208909 312.387412 345.079581 303.328283 361.202671 287.205193 
C 377.325761 271.082103 386.384889 249.211431 386.384889 226.409939 
C 386.384889 203.608447 377.325761 181.737775 361.202671 165.614685 
C 345.079581 149.491595 323.208909 140.432467 300.407417 140.432467 
C 277.605924 140.432467 255.735253 149.491595 239.612163 165.614685 
C 223.489073 181.737775 214.429944 203.608447 214.429944 226.409939 
C 214.429944 249.211431 223.489073 271.082103 239.612163 287.205193 
C 255.735253 303.328283 277.605924 312.387412 300.407417 312.387412 
L 300.407417 312.387412 
z
" clip-path="url(#p45b00ac06f)" style="fill: none; stroke: #ff0000; stroke-width: 2; stroke-linejoin: miter"/>
   </g>
   <g id="patch_38">
    <path d="M 364.109393 369.565703 
C 386.910885 369.565703 408.781557 360.506574 424.904647 344.383484 
C 441.027736 328.260395 450.086865 306.389723 450.086865 283.588231 
C 450.086865 260.786738 441.027736 238.916066 424.904647 222.792977 
C 408.781557 206.669887 386.910885 197.610758 364.109393 197.610758 
C 341.3079 197.610758 319.437228 206.669887 303.314139 222.792977 
C 287.191049 238.916066 278.13192 260.786738 278.13192 283.588231 
C 278.13192 306.389723 287.191049 328.260395 303.314139 344.383484 
C 319.437228 360.506574 341.3079 369.565703 364.109393 369.565703 
L 364.109393 369.565703 
z
" clip-path="url(#p45b00ac06f)" style="fill: none; stroke: #ff0000; stroke-width: 2; stroke-linejoin: miter"/>
   </g>
   <g id="patch_39">
    <path d="M 417.553414 362.281287 
C 440.354907 362.281287 462.225578 353.222158 478.348668 337.099068 
C 494.471758 320.975978 503.530887 299.105306 503.530887 276.303814 
C 503.530887 253.502322 494.471758 231.63165 478.348668 215.50856 
C 462.225578 199.38547 440.354907 190.326341 417.553414 190.326341 
C 394.751922 190.326341 372.88125 199.38547 356.75816 215.50856 
C 340.635071 231.63165 331.575942 253.502322 331.575942 276.303814 
C 331.575942 299.105306 340.635071 320.975978 356.75816 337.099068 
C 372.88125 353.222158 394.751922 362.281287 417.553414 362.281287 
L 417.553414 362.281287 
z
" clip-path="url(#p45b00ac06f)" style="fill: none; stroke: #ff0000; stroke-width: 2; stroke-linejoin: miter"/>
   </g>
   <g id="line2d_1">
    <path d="M 317.104697 228.042848 
L 302.93283 161.984537 
" clip-path="url(#p45b00ac06f)" style="fill: none; stroke: #000000; stroke-width: 2; stroke-linecap: square"/>
   </g>
   <g id="line2d_2">
    <path d="M 317.104697 228.042848 
L 313.476895 249.399065 
" clip-path="url(#p45b00ac06f)" style="fill: none; stroke: #000000; stroke-width: 2; stroke-linecap: square"/>
   </g>
   <g id="line2d_3">
    <path d="M 317.104697 228.042848 
L 299.921343 209.215479 
" clip-path="url(#p45b00ac06f)" style="fill: none; stroke: #000000; stroke-width: 2; stroke-linecap: square"/>
   </g>
   <g id="line2d_4">
    <path d="M 317.104697 228.042848 
L 300.407417 226.409939 
" clip-path="url(#p45b00ac06f)" style="fill: none; stroke: #000000; stroke-width: 2; stroke-linecap: square"/>
   </g>
   <g id="line2d_5">
    <path d="M 317.104697 228.042848 
L 364.109393 283.588231 
" clip-path="url(#p45b00ac06f)" style="fill: none; stroke: #000000; stroke-width: 2; stroke-linecap: square"/>
   </g>
   <g id="line2d_6">
    <path d="M 302.93283 161.984537 
L 373.431029 142.621146 
" clip-path="url(#p45b00ac06f)" style="fill: none; stroke: #000000; stroke-width: 2; stroke-linecap: square"/>
   </g>
   <g id="line2d_7">
    <path d="M 302.93283 161.984537 
L 299.921343 209.215479 
" clip-path="url(#p45b00ac06f)" style="fill: none; stroke: #000000; stroke-width: 2; stroke-linecap: square"/>
   </g>
   <g id="line2d_8">
    <path d="M 302.93283 161.984537 
L 300.407417 226.409939 
" clip-path="url(#p45b00ac06f)" style="fill: none; stroke: #000000; stroke-width: 2; stroke-linecap: square"/>
   </g>
   <g id="line2d_9">
    <path d="M 226.670892 96.438199 
L 180.816885 91.752038 
" clip-path="url(#p45b00ac06f)" style="fill: none; stroke: #000000; stroke-width: 2; stroke-linecap: square"/>
   </g>
   <g id="line2d_10">
    <path d="M 226.670892 96.438199 
L 180.112136 112.062315 
" clip-path="url(#p45b00ac06f)" style="fill: none; stroke: #000000; stroke-width: 2; stroke-linecap: square"/>
   </g>
   <g id="line2d_11">
    <path d="M 180.816885 91.752038 
L 180.112136 112.062315 
" clip-path="url(#p45b00ac06f)" style="fill: none; stroke: #000000; stroke-width: 2; stroke-linecap: square"/>
   </g>
   <g id="line2d_12">
    <path d="M 180.112136 112.062315 
L 108.72803 159.983449 
" clip-path="url(#p45b00ac06f)" style="fill: none; stroke: #000000; stroke-width: 2; stroke-linecap: square"/>
   </g>
   <g id="line2d_13">
    <path d="M 108.72803 159.983449 
L 78.607381 203.982906 
" clip-path="url(#p45b00ac06f)" style="fill: none; stroke: #000000; stroke-width: 2; stroke-linecap: square"/>
   </g>
   <g id="line2d_14">
    <path d="M 78.607381 203.982906 
L 100.009568 276.611278 
" clip-path="url(#p45b00ac06f)" style="fill: none; stroke: #000000; stroke-width: 2; stroke-linecap: square"/>
   </g>
   <g id="line2d_15">
    <path d="M 100.009568 276.611278 
L 115.230306 300.546484 
" clip-path="url(#p45b00ac06f)" style="fill: none; stroke: #000000; stroke-width: 2; stroke-linecap: square"/>
   </g>
   <g id="line2d_16">
    <path d="M 207.093799 329.547962 
L 260.062708 320.923594 
" clip-path="url(#p45b00ac06f)" style="fill: none; stroke: #000000; stroke-width: 2; stroke-linecap: square"/>
   </g>
   <g id="line2d_17">
    <path d="M 313.476895 249.399065 
L 299.921343 209.215479 
" clip-path="url(#p45b00ac06f)" style="fill: none; stroke: #000000; stroke-width: 2; stroke-linecap: square"/>
   </g>
   <g id="line2d_18">
    <path d="M 313.476895 249.399065 
L 300.407417 226.409939 
" clip-path="url(#p45b00ac06f)" style="fill: none; stroke: #000000; stroke-width: 2; stroke-linecap: square"/>
   </g>
   <g id="line2d_19">
    <path d="M 313.476895 249.399065 
L 364.109393 283.588231 
" clip-path="url(#p45b00ac06f)" style="fill: none; stroke: #000000; stroke-width: 2; stroke-linecap: square"/>
   </g>
   <g id="line2d_20">
    <path d="M 442.811243 212.132 
L 417.201045 153.140661 
" clip-path="url(#p45b00ac06f)" style="fill: none; stroke: #000000; stroke-width: 2; stroke-linecap: square"/>
   </g>
   <g id="line2d_21">
    <path d="M 442.811243 212.132 
L 417.553414 276.303814 
" clip-path="url(#p45b00ac06f)" style="fill: none; stroke: #000000; stroke-width: 2; stroke-linecap: square"/>
   </g>
   <g id="line2d_22">
    <path d="M 417.201045 153.140661 
L 373.431029 142.621146 
" clip-path="url(#p45b00ac06f)" style="fill: none; stroke: #000000; stroke-width: 2; stroke-linecap: square"/>
   </g>
   <g id="line2d_23">
    <path d="M 299.921343 209.215479 
L 300.407417 226.409939 
" clip-path="url(#p45b00ac06f)" style="fill: none; stroke: #000000; stroke-width: 2; stroke-linecap: square"/>
   </g>
   <g id="line2d_24">
    <path d="M 300.407417 226.409939 
L 364.109393 283.588231 
" clip-path="url(#p45b00ac06f)" style="fill: none; stroke: #000000; stroke-width: 2; stroke-linecap: square"/>
   </g>
   <g id="line2d_25">
    <path d="M 364.109393 283.588231 
L 417.553414 276.303814 
" clip-path="url(#p45b00ac06f)" style="fill: none; stroke: #000000; stroke-width: 2; stroke-linecap: square"/>
   </g>
   <g id="PathCollection_2">
    <defs>
     <path id="m8b38a4f744" d="M 0 3 
C 0.795609 3 1.55874 2.683901 2.12132 2.12132 
C 2.683901 1.55874 3 0.795609 3 0 
C 3 -0.795609 2.683901 -1.55874 2.12132 -2.12132 
C 1.55874 -2.683901 0.795609 -3 0 -3 
C -0.795609 -3 -1.55874 -2.683901 -2.12132 -2.12132 
C -2.683901 -1.55874 -3 -0.795609 -3 0 
C -3 0.795609 -2.683901 1.55874 -2.12132 2.12132 
C -1.55874 2.683901 -0.795609 3 0 3 
z
" style="stroke: #0000ff"/>
    </defs>
    <g clip-path="url(#p45b00ac06f)">
     <use xlink:href="#m8b38a4f744" x="317.104697" y="228.042848" style="fill: #0000ff; stroke: #0000ff"/>
     <use xlink:href="#m8b38a4f744" x="302.93283" y="161.984537" style="fill: #0000ff; stroke: #0000ff"/>
     <use xlink:href="#m8b38a4f744" x="226.670892" y="96.438199" style="fill: #0000ff; stroke: #0000ff"/>
     <use xlink:href="#m8b38a4f744" x="180.816885" y="91.752038" style="fill: #0000ff; stroke: #0000ff"/>
     <use xlink:href="#m8b38a4f744" x="180.112136" y="112.062315" style="fill: #0000ff; stroke: #0000ff"/>
     <use xlink:href="#m8b38a4f744" x="108.72803" y="159.983449" style="fill: #0000ff; stroke: #0000ff"/>
     <use xlink:href="#m8b38a4f744" x="78.607381" y="203.982906" style="fill: #0000ff; stroke: #0000ff"/>
     <use xlink:href="#m8b38a4f744" x="100.009568" y="276.611278" style="fill: #0000ff; stroke: #0000ff"/>
     <use xlink:href="#m8b38a4f744" x="115.230306" y="300.546484" style="fill: #0000ff; stroke: #0000ff"/>
     <use xlink:href="#m8b38a4f744" x="207.093799" y="329.547962" style="fill: #0000ff; stroke: #0000ff"/>
     <use xlink:href="#m8b38a4f744" x="260.062708" y="320.923594" style="fill: #0000ff; stroke: #0000ff"/>
     <use xlink:href="#m8b38a4f744" x="313.476895" y="249.399065" style="fill: #0000ff; stroke: #0000ff"/>
     <use xlink:href="#m8b38a4f744" x="442.811243" y="212.132" style="fill: #0000ff; stroke: #0000ff"/>
     <use xlink:href="#m8b38a4f744" x="417.201045" y="153.140661" style="fill: #0000ff; stroke: #0000ff"/>
     <use xlink:href="#m8b38a4f744" x="373.431029" y="142.621146" style="fill: #0000ff; stroke: #0000ff"/>
     <use xlink:href="#m8b38a4f744" x="299.921343" y="209.215479" style="fill: #0000ff; stroke: #0000ff"/>
     <use xlink:href="#m8b38a4f744" x="300.407417" y="226.409939" style="fill: #0000ff; stroke: #0000ff"/>
     <use xlink:href="#m8b38a4f744" x="364.109393" y="283.588231" style="fill: #0000ff; stroke: #0000ff"/>
     <use xlink:href="#m8b38a4f744" x="417.553414" y="276.303814" style="fill: #0000ff; stroke: #0000ff"/>
    </g>
   </g>
  </g>
  <g id="axes_2">
   <g id="patch_40">
    <path d="M 558.581376 414.1 
L 1065.6 414.1 
L 1065.6 7.2 
L 558.581376 7.2 
z
" style="fill: #ffffff"/>
   </g>
   <g id="matplotlib.axis_1">
    <g id="xtick_1">
     <g id="line2d_26">
      <defs>
       <path id="mb25307017d" d="M 0 0 
L 0 3.5 
" style="stroke: #000000; stroke-width: 0.8"/>
      </defs>
      <g>
       <use xlink:href="#mb25307017d" x="571.923972" y="414.1" style="stroke: #000000; stroke-width: 0.8"/>
      </g>
     </g>
    </g>
    <g id="xtick_2">
     <g id="line2d_27">
      <g>
       <use xlink:href="#mb25307017d" x="598.609163" y="414.1" style="stroke: #000000; stroke-width: 0.8"/>
      </g>
     </g>
    </g>
    <g id="xtick_3">
     <g id="line2d_28">
      <g>
       <use xlink:href="#mb25307017d" x="625.294353" y="414.1" style="stroke: #000000; stroke-width: 0.8"/>
      </g>
     </g>
    </g>
    <g id="xtick_4">
     <g id="line2d_29">
      <g>
       <use xlink:href="#mb25307017d" x="651.979544" y="414.1" style="stroke: #000000; stroke-width: 0.8"/>
      </g>
     </g>
    </g>
    <g id="xtick_5">
     <g id="line2d_30">
      <g>
       <use xlink:href="#mb25307017d" x="678.664735" y="414.1" style="stroke: #000000; stroke-width: 0.8"/>
      </g>
     </g>
    </g>
    <g id="xtick_6">
     <g id="line2d_31">
      <g>
       <use xlink:href="#mb25307017d" x="705.349925" y="414.1" style="stroke: #000000; stroke-width: 0.8"/>
      </g>
     </g>
    </g>
    <g id="xtick_7">
     <g id="line2d_32">
      <g>
       <use xlink:href="#mb25307017d" x="732.035116" y="414.1" style="stroke: #000000; stroke-width: 0.8"/>
      </g>
     </g>
    </g>
    <g id="xtick_8">
     <g id="line2d_33">
      <g>
       <use xlink:href="#mb25307017d" x="758.720307" y="414.1" style="stroke: #000000; stroke-width: 0.8"/>
      </g>
     </g>
    </g>
    <g id="xtick_9">
     <g id="line2d_34">
      <g>
       <use xlink:href="#mb25307017d" x="785.405498" y="414.1" style="stroke: #000000; stroke-width: 0.8"/>
      </g>
     </g>
    </g>
    <g id="xtick_10">
     <g id="line2d_35">
      <g>
       <use xlink:href="#mb25307017d" x="812.090688" y="414.1" style="stroke: #000000; stroke-width: 0.8"/>
      </g>
     </g>
    </g>
    <g id="xtick_11">
     <g id="line2d_36">
      <g>
       <use xlink:href="#mb25307017d" x="838.775879" y="414.1" style="stroke: #000000; stroke-width: 0.8"/>
      </g>
     </g>
    </g>
    <g id="xtick_12">
     <g id="line2d_37">
      <g>
       <use xlink:href="#mb25307017d" x="865.46107" y="414.1" style="stroke: #000000; stroke-width: 0.8"/>
      </g>
     </g>
    </g>
    <g id="xtick_13">
     <g id="line2d_38">
      <g>
       <use xlink:href="#mb25307017d" x="892.14626" y="414.1" style="stroke: #000000; stroke-width: 0.8"/>
      </g>
     </g>
    </g>
    <g id="xtick_14">
     <g id="line2d_39">
      <g>
       <use xlink:href="#mb25307017d" x="918.831451" y="414.1" style="stroke: #000000; stroke-width: 0.8"/>
      </g>
     </g>
    </g>
    <g id="xtick_15">
     <g id="line2d_40">
      <g>
       <use xlink:href="#mb25307017d" x="945.516642" y="414.1" style="stroke: #000000; stroke-width: 0.8"/>
      </g>
     </g>
    </g>
    <g id="xtick_16">
     <g id="line2d_41">
      <g>
       <use xlink:href="#mb25307017d" x="972.201833" y="414.1" style="stroke: #000000; stroke-width: 0.8"/>
      </g>
     </g>
    </g>
    <g id="xtick_17">
     <g id="line2d_42">
      <g>
       <use xlink:href="#mb25307017d" x="998.887023" y="414.1" style="stroke: #000000; stroke-width: 0.8"/>
      </g>
     </g>
    </g>
    <g id="xtick_18">
     <g id="line2d_43">
      <g>
       <use xlink:href="#mb25307017d" x="1025.572214" y="414.1" style="stroke: #000000; stroke-width: 0.8"/>
      </g>
     </g>
    </g>
    <g id="xtick_19">
     <g id="line2d_44">
      <g>
       <use xlink:href="#mb25307017d" x="1052.257405" y="414.1" style="stroke: #000000; stroke-width: 0.8"/>
      </g>
     </g>
    </g>
   </g>
   <g id="matplotlib.axis_2">
    <g id="ytick_1">
     <g id="line2d_45">
      <defs>
       <path id="md159338bd0" d="M 0 0 
L -3.5 0 
" style="stroke: #000000; stroke-width: 0.8"/>
      </defs>
      <g>
       <use xlink:href="#md159338bd0" x="558.581376" y="107.716708" style="stroke: #000000; stroke-width: 0.8"/>
      </g>
     </g>
     <g id="text_1">
      <!-- $r_{16}$ -->
      <g transform="translate(524.981376 115.315145) scale(0.2 -0.2)">
       <defs>
        <path id="DejaVuSans-Oblique-72" d="M 2853 2969 
Q 2766 3016 2653 3041 
Q 2541 3066 2413 3066 
Q 1953 3066 1609 2717 
Q 1266 2369 1153 1784 
L 800 0 
L 225 0 
L 909 3500 
L 1484 3500 
L 1375 2956 
Q 1603 3259 1920 3421 
Q 2238 3584 2597 3584 
Q 2691 3584 2781 3573 
Q 2872 3563 2963 3538 
L 2853 2969 
z
" transform="scale(0.015625)"/>
        <path id="DejaVuSans-31" d="M 794 531 
L 1825 531 
L 1825 4091 
L 703 3866 
L 703 4441 
L 1819 4666 
L 2450 4666 
L 2450 531 
L 3481 531 
L 3481 0 
L 794 0 
L 794 531 
z
" transform="scale(0.015625)"/>
        <path id="DejaVuSans-36" d="M 2113 2584 
Q 1688 2584 1439 2293 
Q 1191 2003 1191 1497 
Q 1191 994 1439 701 
Q 1688 409 2113 409 
Q 2538 409 2786 701 
Q 3034 994 3034 1497 
Q 3034 2003 2786 2293 
Q 2538 2584 2113 2584 
z
M 3366 4563 
L 3366 3988 
Q 3128 4100 2886 4159 
Q 2644 4219 2406 4219 
Q 1781 4219 1451 3797 
Q 1122 3375 1075 2522 
Q 1259 2794 1537 2939 
Q 1816 3084 2150 3084 
Q 2853 3084 3261 2657 
Q 3669 2231 3669 1497 
Q 3669 778 3244 343 
Q 2819 -91 2113 -91 
Q 1303 -91 875 529 
Q 447 1150 447 2328 
Q 447 3434 972 4092 
Q 1497 4750 2381 4750 
Q 2619 4750 2861 4703 
Q 3103 4656 3366 4563 
z
" transform="scale(0.015625)"/>
       </defs>
       <use xlink:href="#DejaVuSans-Oblique-72"/>
       <use xlink:href="#DejaVuSans-31" transform="translate(41.113281 -16.40625) scale(0.7)"/>
       <use xlink:href="#DejaVuSans-36" transform="translate(85.649414 -16.40625) scale(0.7)"/>
      </g>
     </g>
    </g>
   </g>
   <g id="line2d_46">
    <path d="M 598.609163 414.1 
L 598.609163 341.680163 
L 625.294353 341.680163 
L 625.294353 414.1 
" clip-path="url(#p0a13dbf2a6)" style="fill: none; stroke: #ff0000; stroke-width: 5; stroke-linecap: square"/>
   </g>
   <g id="line2d_47">
    <path d="M 571.923972 414.1 
L 571.923972 249.846779 
L 611.951758 249.846779 
L 611.951758 341.680163 
" clip-path="url(#p0a13dbf2a6)" style="fill: none; stroke: #ff0000; stroke-width: 5; stroke-linecap: square"/>
   </g>
   <g id="line2d_48">
    <path d="M 651.979544 414.1 
L 651.979544 313.020995 
L 678.664735 313.020995 
L 678.664735 414.1 
" clip-path="url(#p0a13dbf2a6)" style="fill: none; stroke: #ff0000; stroke-width: 5; stroke-linecap: square"/>
   </g>
   <g id="line2d_49">
    <path d="M 705.349925 414.1 
L 705.349925 224.086462 
L 732.035116 224.086462 
L 732.035116 414.1 
" clip-path="url(#p0a13dbf2a6)" style="fill: none; stroke: #ff0000; stroke-width: 5; stroke-linecap: square"/>
   </g>
   <g id="line2d_50">
    <path d="M 665.322139 313.020995 
L 665.322139 144.28327 
L 718.692521 144.28327 
L 718.692521 224.086462 
" clip-path="url(#p0a13dbf2a6)" style="fill: none; stroke: #ff0000; stroke-width: 5; stroke-linecap: square"/>
   </g>
   <g id="line2d_51">
    <path d="M 591.937865 249.846779 
L 591.937865 107.716708 
L 692.00733 107.716708 
L 692.00733 144.28327 
" clip-path="url(#p0a13dbf2a6)" style="fill: none; stroke: #ff0000; stroke-width: 5; stroke-linecap: square"/>
   </g>
   <g id="line2d_52">
    <path d="M 758.720307 414.1 
L 758.720307 222.858095 
L 785.405498 222.858095 
L 785.405498 414.1 
" clip-path="url(#p0a13dbf2a6)" style="fill: none; stroke: #ff0000; stroke-width: 5; stroke-linecap: square"/>
   </g>
   <g id="line2d_53">
    <path d="M 892.14626 414.1 
L 892.14626 354.314891 
L 918.831451 354.314891 
L 918.831451 414.1 
" clip-path="url(#p0a13dbf2a6)" style="fill: none; stroke: #ff0000; stroke-width: 5; stroke-linecap: square"/>
   </g>
   <g id="line2d_54">
    <path d="M 865.46107 414.1 
L 865.46107 352.802549 
L 905.488856 352.802549 
L 905.488856 354.314891 
" clip-path="url(#p0a13dbf2a6)" style="fill: none; stroke: #ff0000; stroke-width: 5; stroke-linecap: square"/>
   </g>
   <g id="line2d_55">
    <path d="M 838.775879 414.1 
L 838.775879 336.906263 
L 885.474963 336.906263 
L 885.474963 352.802549 
" clip-path="url(#p0a13dbf2a6)" style="fill: none; stroke: #ff0000; stroke-width: 5; stroke-linecap: square"/>
   </g>
   <g id="line2d_56">
    <path d="M 812.090688 414.1 
L 812.090688 245.44935 
L 862.125421 245.44935 
L 862.125421 336.906263 
" clip-path="url(#p0a13dbf2a6)" style="fill: none; stroke: #ff0000; stroke-width: 5; stroke-linecap: square"/>
   </g>
   <g id="line2d_57">
    <path d="M 945.516642 414.1 
L 945.516642 221.88972 
L 972.201833 221.88972 
L 972.201833 414.1 
" clip-path="url(#p0a13dbf2a6)" style="fill: none; stroke: #ff0000; stroke-width: 5; stroke-linecap: square"/>
   </g>
   <g id="line2d_58">
    <path d="M 837.108055 245.44935 
L 837.108055 196.387606 
L 958.859237 196.387606 
L 958.859237 221.88972 
" clip-path="url(#p0a13dbf2a6)" style="fill: none; stroke: #ff0000; stroke-width: 5; stroke-linecap: square"/>
   </g>
   <g id="line2d_59">
    <path d="M 1025.572214 414.1 
L 1025.572214 253.682782 
L 1052.257405 253.682782 
L 1052.257405 414.1 
" clip-path="url(#p0a13dbf2a6)" style="fill: none; stroke: #ff0000; stroke-width: 5; stroke-linecap: square"/>
   </g>
   <g id="line2d_60">
    <path d="M 998.887023 414.1 
L 998.887023 184.927061 
L 1038.914809 184.927061 
L 1038.914809 253.682782 
" clip-path="url(#p0a13dbf2a6)" style="fill: none; stroke: #ff0000; stroke-width: 5; stroke-linecap: square"/>
   </g>
   <g id="line2d_61">
    <path d="M 897.983646 196.387606 
L 897.983646 168.346113 
L 1018.900916 168.346113 
L 1018.900916 184.927061 
" clip-path="url(#p0a13dbf2a6)" style="fill: none; stroke: #ff0000; stroke-width: 5; stroke-linecap: square"/>
   </g>
   <g id="line2d_62">
    <path d="M 641.972597 107.716708 
L 641.972597 107.716708 
" clip-path="url(#p0a13dbf2a6)" style="fill: none; stroke: #ff0000; stroke-width: 5; stroke-linecap: square"/>
   </g>
   <g id="line2d_63">
    <path d="M 772.062902 222.858095 
L 772.062902 107.716708 
" clip-path="url(#p0a13dbf2a6)" style="fill: none; stroke: #ff0000; stroke-width: 5; stroke-linecap: square"/>
   </g>
   <g id="line2d_64">
    <path d="M 958.442281 168.346113 
L 958.442281 107.716708 
" clip-path="url(#p0a13dbf2a6)" style="fill: none; stroke: #ff0000; stroke-width: 5; stroke-linecap: square"/>
   </g>
   <g id="patch_41">
    <path d="M 558.581376 414.1 
L 558.581376 7.2 
" style="fill: none; stroke: #000000; stroke-width: 0.8; stroke-linejoin: miter; stroke-linecap: square"/>
   </g>
   <g id="patch_42">
    <path d="M 1065.6 414.1 
L 1065.6 7.2 
" style="fill: none; stroke: #000000; stroke-width: 0.8; stroke-linejoin: miter; stroke-linecap: square"/>
   </g>
   <g id="patch_43">
    <path d="M 558.581376 414.1 
L 1065.6 414.1 
" style="fill: none; stroke: #000000; stroke-width: 0.8; stroke-linejoin: miter; stroke-linecap: square"/>
   </g>
   <g id="patch_44">
    <path d="M 558.581376 7.2 
L 1065.6 7.2 
" style="fill: none; stroke: #000000; stroke-width: 0.8; stroke-linejoin: miter; stroke-linecap: square"/>
   </g>
   <g id="PathCollection_3">
    <defs>
     <path id="mc6b8a7ba37" d="M 0 6.123724 
C 1.624031 6.123724 3.181764 5.47849 4.330127 4.330127 
C 5.47849 3.181764 6.123724 1.624031 6.123724 0 
C 6.123724 -1.624031 5.47849 -3.181764 4.330127 -4.330127 
C 3.181764 -5.47849 1.624031 -6.123724 0 -6.123724 
C -1.624031 -6.123724 -3.181764 -5.47849 -4.330127 -4.330127 
C -5.47849 -3.181764 -6.123724 -1.624031 -6.123724 0 
C -6.123724 1.624031 -5.47849 3.181764 -4.330127 4.330127 
C -3.181764 5.47849 -1.624031 6.123724 0 6.123724 
z
" style="stroke: #0000ff"/>
    </defs>
    <g clip-path="url(#p0a13dbf2a6)">
     <use xlink:href="#mc6b8a7ba37" x="571.923972" y="414.1" style="fill: #0000ff; stroke: #0000ff"/>
     <use xlink:href="#mc6b8a7ba37" x="598.609163" y="414.1" style="fill: #0000ff; stroke: #0000ff"/>
     <use xlink:href="#mc6b8a7ba37" x="625.294353" y="414.1" style="fill: #0000ff; stroke: #0000ff"/>
     <use xlink:href="#mc6b8a7ba37" x="651.979544" y="414.1" style="fill: #0000ff; stroke: #0000ff"/>
     <use xlink:href="#mc6b8a7ba37" x="678.664735" y="414.1" style="fill: #0000ff; stroke: #0000ff"/>
     <use xlink:href="#mc6b8a7ba37" x="705.349925" y="414.1" style="fill: #0000ff; stroke: #0000ff"/>
     <use xlink:href="#mc6b8a7ba37" x="732.035116" y="414.1" style="fill: #0000ff; stroke: #0000ff"/>
     <use xlink:href="#mc6b8a7ba37" x="758.720307" y="414.1" style="fill: #0000ff; stroke: #0000ff"/>
     <use xlink:href="#mc6b8a7ba37" x="785.405498" y="414.1" style="fill: #0000ff; stroke: #0000ff"/>
     <use xlink:href="#mc6b8a7ba37" x="812.090688" y="414.1" style="fill: #0000ff; stroke: #0000ff"/>
     <use xlink:href="#mc6b8a7ba37" x="838.775879" y="414.1" style="fill: #0000ff; stroke: #0000ff"/>
     <use xlink:href="#mc6b8a7ba37" x="865.46107" y="414.1" style="fill: #0000ff; stroke: #0000ff"/>
     <use xlink:href="#mc6b8a7ba37" x="892.14626" y="414.1" style="fill: #0000ff; stroke: #0000ff"/>
     <use xlink:href="#mc6b8a7ba37" x="918.831451" y="414.1" style="fill: #0000ff; stroke: #0000ff"/>
     <use xlink:href="#mc6b8a7ba37" x="945.516642" y="414.1" style="fill: #0000ff; stroke: #0000ff"/>
     <use xlink:href="#mc6b8a7ba37" x="972.201833" y="414.1" style="fill: #0000ff; stroke: #0000ff"/>
     <use xlink:href="#mc6b8a7ba37" x="998.887023" y="414.1" style="fill: #0000ff; stroke: #0000ff"/>
     <use xlink:href="#mc6b8a7ba37" x="1025.572214" y="414.1" style="fill: #0000ff; stroke: #0000ff"/>
     <use xlink:href="#mc6b8a7ba37" x="1052.257405" y="414.1" style="fill: #0000ff; stroke: #0000ff"/>
    </g>
   </g>
  </g>
 </g>
 <defs>
  <clipPath id="p45b00ac06f">
   <rect x="7.2" y="20.344657" width="507.018624" height="380.610686"/>
  </clipPath>
  <clipPath id="p0a13dbf2a6">
   <rect x="558.581376" y="7.2" width="507.018624" height="406.9"/>
  </clipPath>
 </defs>
</svg>
