<?xml version="1.0" encoding="utf-8" standalone="no"?>
<!DOCTYPE svg PUBLIC "-//W3C//DTD SVG 1.1//EN"
  "http://www.w3.org/Graphics/SVG/1.1/DTD/svg11.dtd">
<svg xmlns:xlink="http://www.w3.org/1999/xlink" width="1072.8pt" height="424.8pt" viewBox="0 0 1072.8 424.8" xmlns="http://www.w3.org/2000/svg" version="1.1">
 <metadata>
  <rdf:RDF xmlns:dc="http://purl.org/dc/elements/1.1/" xmlns:cc="http://creativecommons.org/ns#" xmlns:rdf="http://www.w3.org/1999/02/22-rdf-syntax-ns#">
   <cc:Work>
    <dc:type rdf:resource="http://purl.org/dc/dcmitype/StillImage"/>
    <dc:date>2023-10-24T09:47:28.660526</dc:date>
    <dc:format>image/svg+xml</dc:format>
    <dc:creator>
     <cc:Agent>
      <dc:title>Matplotlib v3.7.2, https://matplotlib.org/</dc:title>
     </cc:Agent>
    </dc:creator>
   </cc:Work>
  </rdf:RDF>
 </metadata>
 <defs>
  <style type="text/css">*{stroke-linejoin: round; stroke-linecap: butt}</style>
 </defs>
 <g id="figure_1">
  <g id="patch_1">
   <path d="M 0 424.8 
L 1072.8 424.8 
L 1072.8 -0 
L 0 -0 
z
" style="fill: #ffffff"/>
  </g>
  <g id="axes_1">
   <g id="PathCollection_1">
    <defs>
     <path id="m9f7115a171" d="M 0 3 
C 0.795609 3 1.55874 2.683901 2.12132 2.12132 
C 2.683901 1.55874 3 0.795609 3 0 
C 3 -0.795609 2.683901 -1.55874 2.12132 -2.12132 
C 1.55874 -2.683901 0.795609 -3 0 -3 
C -0.795609 -3 -1.55874 -2.683901 -2.12132 -2.12132 
C -2.683901 -1.55874 -3 -0.795609 -3 0 
C -3 0.795609 -2.683901 1.55874 -2.12132 2.12132 
C -1.55874 2.683901 -0.795609 3 0 3 
z
" style="stroke: #1f77b4; stroke-opacity: 0"/>
    </defs>
    <g clip-path="url(#pccc8e1e1c4)">
     <use xlink:href="#m9f7115a171" x="7.2" y="400.976456" style="fill: #1f77b4; fill-opacity: 0; stroke: #1f77b4; stroke-opacity: 0"/>
     <use xlink:href="#m9f7115a171" x="514.274874" y="20.323544" style="fill: #1f77b4; fill-opacity: 0; stroke: #1f77b4; stroke-opacity: 0"/>
    </g>
   </g>
   <g id="patch_2">
    <path d="M 317.139078 281.717156 
C 331.373159 281.717156 345.026165 276.061895 355.091181 265.99688 
C 365.156196 255.931865 370.811456 242.278859 370.811456 228.044778 
C 370.811456 213.810697 365.156196 200.15769 355.091181 190.092675 
C 345.026165 180.02766 331.373159 174.3724 317.139078 174.3724 
C 302.904997 174.3724 289.251991 180.02766 279.186976 190.092675 
C 269.121961 200.15769 263.4667 213.810697 263.4667 228.044778 
C 263.4667 242.278859 269.121961 255.931865 279.186976 265.99688 
C 289.251991 276.061895 302.904997 281.717156 317.139078 281.717156 
z
" clip-path="url(#pccc8e1e1c4)" style="fill: #ff0000; opacity: 0.2"/>
   </g>
   <g id="patch_3">
    <path d="M 302.965639 215.651516 
C 317.19972 215.651516 330.852727 209.996256 340.917742 199.931241 
C 350.982757 189.866225 356.638017 176.213219 356.638017 161.979138 
C 356.638017 147.745057 350.982757 134.092051 340.917742 124.027036 
C 330.852727 113.962021 317.19972 108.30676 302.965639 108.30676 
C 288.731558 108.30676 275.078552 113.962021 265.013537 124.027036 
C 254.948522 134.092051 249.293261 147.745057 249.293261 161.979138 
C 249.293261 176.213219 254.948522 189.866225 265.013537 199.931241 
C 275.078552 209.996256 288.731558 215.651516 302.965639 215.651516 
z
" clip-path="url(#pccc8e1e1c4)" style="fill: #ff0000; opacity: 0.2"/>
   </g>
   <g id="patch_4">
    <path d="M 226.695241 150.097906 
C 240.929322 150.097906 254.582328 144.442646 264.647343 134.37763 
C 274.712359 124.312615 280.367619 110.659609 280.367619 96.425528 
C 280.367619 82.191447 274.712359 68.538441 264.647343 58.473426 
C 254.582328 48.40841 240.929322 42.75315 226.695241 42.75315 
C 212.46116 42.75315 198.808154 48.40841 188.743139 58.473426 
C 178.678123 68.538441 173.022863 82.191447 173.022863 96.425528 
C 173.022863 110.659609 178.678123 124.312615 188.743139 134.37763 
C 198.808154 144.442646 212.46116 150.097906 226.695241 150.097906 
z
" clip-path="url(#pccc8e1e1c4)" style="fill: #ff0000; opacity: 0.2"/>
   </g>
   <g id="patch_5">
    <path d="M 180.836146 145.411225 
C 195.070227 145.411225 208.723233 139.755964 218.788248 129.690949 
C 228.853264 119.625934 234.508524 105.972928 234.508524 91.738847 
C 234.508524 77.504766 228.853264 63.85176 218.788248 53.786744 
C 208.723233 43.721729 195.070227 38.066469 180.836146 38.066469 
C 166.602065 38.066469 152.949059 43.721729 142.884044 53.786744 
C 132.819028 63.85176 127.163768 77.504766 127.163768 91.738847 
C 127.163768 105.972928 132.819028 119.625934 142.884044 129.690949 
C 152.949059 139.755964 166.602065 145.411225 180.836146 145.411225 
z
" clip-path="url(#pccc8e1e1c4)" style="fill: #ff0000; opacity: 0.2"/>
   </g>
   <g id="patch_6">
    <path d="M 180.13132 165.723755 
C 194.365401 165.723755 208.018407 160.068495 218.083422 150.003479 
C 228.148437 139.938464 233.803697 126.285458 233.803697 112.051377 
C 233.803697 97.817296 228.148437 84.16429 218.083422 74.099275 
C 208.018407 64.034259 194.365401 58.378999 180.13132 58.378999 
C 165.897239 58.378999 152.244232 64.034259 142.179217 74.099275 
C 132.114202 84.16429 126.458942 97.817296 126.458942 112.051377 
C 126.458942 126.285458 132.114202 139.938464 142.179217 150.003479 
C 152.244232 160.068495 165.897239 165.723755 180.13132 165.723755 
z
" clip-path="url(#pccc8e1e1c4)" style="fill: #ff0000; opacity: 0.2"/>
   </g>
   <g id="patch_7">
    <path d="M 108.739293 213.650206 
C 122.973375 213.650206 136.626381 207.994946 146.691396 197.929931 
C 156.756411 187.864915 162.411671 174.211909 162.411671 159.977828 
C 162.411671 145.743747 156.756411 132.090741 146.691396 122.025726 
C 136.626381 111.960711 122.973375 106.30545 108.739293 106.30545 
C 94.505212 106.30545 80.852206 111.960711 70.787191 122.025726 
C 60.722176 132.090741 55.066916 145.743747 55.066916 159.977828 
C 55.066916 174.211909 60.722176 187.864915 70.787191 197.929931 
C 80.852206 207.994946 94.505212 213.650206 108.739293 213.650206 
z
" clip-path="url(#pccc8e1e1c4)" style="fill: #ff0000; opacity: 0.2"/>
   </g>
   <g id="patch_8">
    <path d="M 78.615303 257.654544 
C 92.849384 257.654544 106.50239 251.999284 116.567405 241.934269 
C 126.63242 231.869254 132.287681 218.216248 132.287681 203.982167 
C 132.287681 189.748086 126.63242 176.095079 116.567405 166.030064 
C 106.50239 155.965049 92.849384 150.309789 78.615303 150.309789 
C 64.381222 150.309789 50.728215 155.965049 40.6632 166.030064 
C 30.598185 176.095079 24.942925 189.748086 24.942925 203.982167 
C 24.942925 218.216248 30.598185 231.869254 40.6632 241.934269 
C 50.728215 251.999284 64.381222 257.654544 78.615303 257.654544 
z
" clip-path="url(#pccc8e1e1c4)" style="fill: #ff0000; opacity: 0.2"/>
   </g>
   <g id="patch_9">
    <path d="M 100.019864 330.290974 
C 114.253945 330.290974 127.906951 324.635713 137.971967 314.570698 
C 148.036982 304.505683 153.692242 290.852677 153.692242 276.618596 
C 153.692242 262.384515 148.036982 248.731509 137.971967 238.666493 
C 127.906951 228.601478 114.253945 222.946218 100.019864 222.946218 
C 85.785783 222.946218 72.132777 228.601478 62.067762 238.666493 
C 52.002747 248.731509 46.347486 262.384515 46.347486 276.618596 
C 46.347486 290.852677 52.002747 304.505683 62.067762 314.570698 
C 72.132777 324.635713 85.785783 330.290974 100.019864 330.290974 
z
" clip-path="url(#pccc8e1e1c4)" style="fill: #ff0000; opacity: 0.2"/>
   </g>
   <g id="patch_10">
    <path d="M 115.242291 354.228835 
C 129.476372 354.228835 143.129379 348.573575 153.194394 338.508559 
C 163.259409 328.443544 168.914669 314.790538 168.914669 300.556457 
C 168.914669 286.322376 163.259409 272.66937 153.194394 262.604355 
C 143.129379 252.539339 129.476372 246.884079 115.242291 246.884079 
C 101.00821 246.884079 87.355204 252.539339 77.290189 262.604355 
C 67.225174 272.66937 61.569913 286.322376 61.569913 300.556457 
C 61.569913 314.790538 67.225174 328.443544 77.290189 338.508559 
C 87.355204 348.573575 101.00821 354.228835 115.242291 354.228835 
z
" clip-path="url(#pccc8e1e1c4)" style="fill: #ff0000; opacity: 0.2"/>
   </g>
   <g id="patch_11">
    <path d="M 207.115976 383.233531 
C 221.350057 383.233531 235.003063 377.578271 245.068078 367.513256 
C 255.133093 357.44824 260.788354 343.795234 260.788354 329.561153 
C 260.788354 315.327072 255.133093 301.674066 245.068078 291.609051 
C 235.003063 281.544036 221.350057 275.888775 207.115976 275.888775 
C 192.881895 275.888775 179.228888 281.544036 169.163873 291.609051 
C 159.098858 301.674066 153.443598 315.327072 153.443598 329.561153 
C 153.443598 343.795234 159.098858 357.44824 169.163873 367.513256 
C 179.228888 377.578271 192.881895 383.233531 207.115976 383.233531 
z
" clip-path="url(#pccc8e1e1c4)" style="fill: #ff0000; opacity: 0.2"/>
   </g>
   <g id="patch_12">
    <path d="M 260.090761 374.608206 
C 274.324842 374.608206 287.977848 368.952946 298.042864 358.88793 
C 308.107879 348.822915 313.763139 335.169909 313.763139 320.935828 
C 313.763139 306.701747 308.107879 293.048741 298.042864 282.983726 
C 287.977848 272.91871 274.324842 267.26345 260.090761 267.26345 
C 245.85668 267.26345 232.203674 272.91871 222.138659 282.983726 
C 212.073644 293.048741 206.418383 306.701747 206.418383 320.935828 
C 206.418383 335.169909 212.073644 348.822915 222.138659 358.88793 
C 232.203674 368.952946 245.85668 374.608206 260.090761 374.608206 
z
" clip-path="url(#pccc8e1e1c4)" style="fill: #ff0000; opacity: 0.2"/>
   </g>
   <g id="patch_13">
    <path d="M 313.510874 303.075742 
C 327.744955 303.075742 341.397961 297.420482 351.462976 287.355467 
C 361.527991 277.290451 367.183252 263.637445 367.183252 249.403364 
C 367.183252 235.169283 361.527991 221.516277 351.462976 211.451262 
C 341.397961 201.386247 327.744955 195.730986 313.510874 195.730986 
C 299.276793 195.730986 285.623787 201.386247 275.558771 211.451262 
C 265.493756 221.516277 259.838496 235.169283 259.838496 249.403364 
C 259.838496 263.637445 265.493756 277.290451 275.558771 287.355467 
C 285.623787 297.420482 299.276793 303.075742 313.510874 303.075742 
z
" clip-path="url(#pccc8e1e1c4)" style="fill: #ff0000; opacity: 0.2"/>
   </g>
   <g id="patch_14">
    <path d="M 442.859571 265.804542 
C 457.093652 265.804542 470.746658 260.149282 480.811673 250.084267 
C 490.876689 240.019252 496.531949 226.366246 496.531949 212.132165 
C 496.531949 197.898084 490.876689 184.245077 480.811673 174.180062 
C 470.746658 164.115047 457.093652 158.459787 442.859571 158.459787 
C 428.62549 158.459787 414.972484 164.115047 404.907469 174.180062 
C 394.842453 184.245077 389.187193 197.898084 389.187193 212.132165 
C 389.187193 226.366246 394.842453 240.019252 404.907469 250.084267 
C 414.972484 260.149282 428.62549 265.804542 442.859571 265.804542 
z
" clip-path="url(#pccc8e1e1c4)" style="fill: #ff0000; opacity: 0.2"/>
   </g>
   <g id="patch_15">
    <path d="M 417.246532 206.806659 
C 431.480613 206.806659 445.133619 201.151399 455.198634 191.086383 
C 465.263649 181.021368 470.91891 167.368362 470.91891 153.134281 
C 470.91891 138.9002 465.263649 125.247194 455.198634 115.182179 
C 445.133619 105.117163 431.480613 99.461903 417.246532 99.461903 
C 403.012451 99.461903 389.359445 105.117163 379.294429 115.182179 
C 369.229414 125.247194 363.574154 138.9002 363.574154 153.134281 
C 363.574154 167.368362 369.229414 181.021368 379.294429 191.086383 
C 389.359445 201.151399 403.012451 206.806659 417.246532 206.806659 
z
" clip-path="url(#pccc8e1e1c4)" style="fill: #ff0000; opacity: 0.2"/>
   </g>
   <g id="patch_16">
    <path d="M 373.471659 196.285977 
C 387.70574 196.285977 401.358747 190.630717 411.423762 180.565701 
C 421.488777 170.500686 427.144037 156.84768 427.144037 142.613599 
C 427.144037 128.379518 421.488777 114.726512 411.423762 104.661497 
C 401.358747 94.596481 387.70574 88.941221 373.471659 88.941221 
C 359.237578 88.941221 345.584572 94.596481 335.519557 104.661497 
C 325.454542 114.726512 319.799281 128.379518 319.799281 142.613599 
C 319.799281 156.84768 325.454542 170.500686 335.519557 180.565701 
C 345.584572 190.630717 359.237578 196.285977 373.471659 196.285977 
z
" clip-path="url(#pccc8e1e1c4)" style="fill: #ff0000; opacity: 0.2"/>
   </g>
   <g id="patch_17">
    <path d="M 299.953819 262.887698 
C 314.1879 262.887698 327.840906 257.232437 337.905921 247.167422 
C 347.970936 237.102407 353.626196 223.449401 353.626196 209.21532 
C 353.626196 194.981239 347.970936 181.328232 337.905921 171.263217 
C 327.840906 161.198202 314.1879 155.542942 299.953819 155.542942 
C 285.719738 155.542942 272.066731 161.198202 262.001716 171.263217 
C 251.936701 181.328232 246.281441 194.981239 246.281441 209.21532 
C 246.281441 223.449401 251.936701 237.102407 262.001716 247.167422 
C 272.066731 257.232437 285.719738 262.887698 299.953819 262.887698 
z
" clip-path="url(#pccc8e1e1c4)" style="fill: #ff0000; opacity: 0.2"/>
   </g>
   <g id="patch_18">
    <path d="M 300.439946 280.084066 
C 314.674027 280.084066 328.327033 274.428805 338.392048 264.36379 
C 348.457064 254.298775 354.112324 240.645769 354.112324 226.411688 
C 354.112324 212.177607 348.457064 198.5246 338.392048 188.459585 
C 328.327033 178.39457 314.674027 172.73931 300.439946 172.73931 
C 286.205865 172.73931 272.552859 178.39457 262.487844 188.459585 
C 252.422828 198.5246 246.767568 212.177607 246.767568 226.411688 
C 246.767568 240.645769 252.422828 254.298775 262.487844 264.36379 
C 272.552859 274.428805 286.205865 280.084066 300.439946 280.084066 
z
" clip-path="url(#pccc8e1e1c4)" style="fill: #ff0000; opacity: 0.2"/>
   </g>
   <g id="patch_19">
    <path d="M 364.148989 337.2687 
C 378.38307 337.2687 392.036076 331.61344 402.101091 321.548425 
C 412.166107 311.48341 417.821367 297.830403 417.821367 283.596322 
C 417.821367 269.362241 412.166107 255.709235 402.101091 245.64422 
C 392.036076 235.579205 378.38307 229.923945 364.148989 229.923945 
C 349.914908 229.923945 336.261902 235.579205 326.196887 245.64422 
C 316.131871 255.709235 310.476611 269.362241 310.476611 283.596322 
C 310.476611 297.830403 316.131871 311.48341 326.196887 321.548425 
C 336.261902 331.61344 349.914908 337.2687 364.148989 337.2687 
z
" clip-path="url(#pccc8e1e1c4)" style="fill: #ff0000; opacity: 0.2"/>
   </g>
   <g id="patch_20">
    <path d="M 417.59894 329.983476 
C 431.833021 329.983476 445.486027 324.328215 455.551042 314.2632 
C 465.616058 304.198185 471.271318 290.545179 471.271318 276.311098 
C 471.271318 262.077017 465.616058 248.424011 455.551042 238.358995 
C 445.486027 228.29398 431.833021 222.63872 417.59894 222.63872 
C 403.364859 222.63872 389.711853 228.29398 379.646838 238.358995 
C 369.581822 248.424011 363.926562 262.077017 363.926562 276.311098 
C 363.926562 290.545179 369.581822 304.198185 379.646838 314.2632 
C 389.711853 324.328215 403.364859 329.983476 417.59894 329.983476 
z
" clip-path="url(#pccc8e1e1c4)" style="fill: #ff0000; opacity: 0.2"/>
   </g>
   <g id="patch_21">
    <path d="M 317.139078 281.717156 
C 331.373159 281.717156 345.026165 276.061895 355.091181 265.99688 
C 365.156196 255.931865 370.811456 242.278859 370.811456 228.044778 
C 370.811456 213.810697 365.156196 200.15769 355.091181 190.092675 
C 345.026165 180.02766 331.373159 174.3724 317.139078 174.3724 
C 302.904997 174.3724 289.251991 180.02766 279.186976 190.092675 
C 269.121961 200.15769 263.4667 213.810697 263.4667 228.044778 
C 263.4667 242.278859 269.121961 255.931865 279.186976 265.99688 
C 289.251991 276.061895 302.904997 281.717156 317.139078 281.717156 
L 317.139078 281.717156 
z
" clip-path="url(#pccc8e1e1c4)" style="fill: none; stroke: #ff0000; stroke-width: 2; stroke-linejoin: miter"/>
   </g>
   <g id="patch_22">
    <path d="M 302.965639 215.651516 
C 317.19972 215.651516 330.852727 209.996256 340.917742 199.931241 
C 350.982757 189.866225 356.638017 176.213219 356.638017 161.979138 
C 356.638017 147.745057 350.982757 134.092051 340.917742 124.027036 
C 330.852727 113.962021 317.19972 108.30676 302.965639 108.30676 
C 288.731558 108.30676 275.078552 113.962021 265.013537 124.027036 
C 254.948522 134.092051 249.293261 147.745057 249.293261 161.979138 
C 249.293261 176.213219 254.948522 189.866225 265.013537 199.931241 
C 275.078552 209.996256 288.731558 215.651516 302.965639 215.651516 
L 302.965639 215.651516 
z
" clip-path="url(#pccc8e1e1c4)" style="fill: none; stroke: #ff0000; stroke-width: 2; stroke-linejoin: miter"/>
   </g>
   <g id="patch_23">
    <path d="M 226.695241 150.097906 
C 240.929322 150.097906 254.582328 144.442646 264.647343 134.37763 
C 274.712359 124.312615 280.367619 110.659609 280.367619 96.425528 
C 280.367619 82.191447 274.712359 68.538441 264.647343 58.473426 
C 254.582328 48.40841 240.929322 42.75315 226.695241 42.75315 
C 212.46116 42.75315 198.808154 48.40841 188.743139 58.473426 
C 178.678123 68.538441 173.022863 82.191447 173.022863 96.425528 
C 173.022863 110.659609 178.678123 124.312615 188.743139 134.37763 
C 198.808154 144.442646 212.46116 150.097906 226.695241 150.097906 
L 226.695241 150.097906 
z
" clip-path="url(#pccc8e1e1c4)" style="fill: none; stroke: #ff0000; stroke-width: 2; stroke-linejoin: miter"/>
   </g>
   <g id="patch_24">
    <path d="M 180.836146 145.411225 
C 195.070227 145.411225 208.723233 139.755964 218.788248 129.690949 
C 228.853264 119.625934 234.508524 105.972928 234.508524 91.738847 
C 234.508524 77.504766 228.853264 63.85176 218.788248 53.786744 
C 208.723233 43.721729 195.070227 38.066469 180.836146 38.066469 
C 166.602065 38.066469 152.949059 43.721729 142.884044 53.786744 
C 132.819028 63.85176 127.163768 77.504766 127.163768 91.738847 
C 127.163768 105.972928 132.819028 119.625934 142.884044 129.690949 
C 152.949059 139.755964 166.602065 145.411225 180.836146 145.411225 
L 180.836146 145.411225 
z
" clip-path="url(#pccc8e1e1c4)" style="fill: none; stroke: #ff0000; stroke-width: 2; stroke-linejoin: miter"/>
   </g>
   <g id="patch_25">
    <path d="M 180.13132 165.723755 
C 194.365401 165.723755 208.018407 160.068495 218.083422 150.003479 
C 228.148437 139.938464 233.803697 126.285458 233.803697 112.051377 
C 233.803697 97.817296 228.148437 84.16429 218.083422 74.099275 
C 208.018407 64.034259 194.365401 58.378999 180.13132 58.378999 
C 165.897239 58.378999 152.244232 64.034259 142.179217 74.099275 
C 132.114202 84.16429 126.458942 97.817296 126.458942 112.051377 
C 126.458942 126.285458 132.114202 139.938464 142.179217 150.003479 
C 152.244232 160.068495 165.897239 165.723755 180.13132 165.723755 
L 180.13132 165.723755 
z
" clip-path="url(#pccc8e1e1c4)" style="fill: none; stroke: #ff0000; stroke-width: 2; stroke-linejoin: miter"/>
   </g>
   <g id="patch_26">
    <path d="M 108.739293 213.650206 
C 122.973375 213.650206 136.626381 207.994946 146.691396 197.929931 
C 156.756411 187.864915 162.411671 174.211909 162.411671 159.977828 
C 162.411671 145.743747 156.756411 132.090741 146.691396 122.025726 
C 136.626381 111.960711 122.973375 106.30545 108.739293 106.30545 
C 94.505212 106.30545 80.852206 111.960711 70.787191 122.025726 
C 60.722176 132.090741 55.066916 145.743747 55.066916 159.977828 
C 55.066916 174.211909 60.722176 187.864915 70.787191 197.929931 
C 80.852206 207.994946 94.505212 213.650206 108.739293 213.650206 
L 108.739293 213.650206 
z
" clip-path="url(#pccc8e1e1c4)" style="fill: none; stroke: #ff0000; stroke-width: 2; stroke-linejoin: miter"/>
   </g>
   <g id="patch_27">
    <path d="M 78.615303 257.654544 
C 92.849384 257.654544 106.50239 251.999284 116.567405 241.934269 
C 126.63242 231.869254 132.287681 218.216248 132.287681 203.982167 
C 132.287681 189.748086 126.63242 176.095079 116.567405 166.030064 
C 106.50239 155.965049 92.849384 150.309789 78.615303 150.309789 
C 64.381222 150.309789 50.728215 155.965049 40.6632 166.030064 
C 30.598185 176.095079 24.942925 189.748086 24.942925 203.982167 
C 24.942925 218.216248 30.598185 231.869254 40.6632 241.934269 
C 50.728215 251.999284 64.381222 257.654544 78.615303 257.654544 
L 78.615303 257.654544 
z
" clip-path="url(#pccc8e1e1c4)" style="fill: none; stroke: #ff0000; stroke-width: 2; stroke-linejoin: miter"/>
   </g>
   <g id="patch_28">
    <path d="M 100.019864 330.290974 
C 114.253945 330.290974 127.906951 324.635713 137.971967 314.570698 
C 148.036982 304.505683 153.692242 290.852677 153.692242 276.618596 
C 153.692242 262.384515 148.036982 248.731509 137.971967 238.666493 
C 127.906951 228.601478 114.253945 222.946218 100.019864 222.946218 
C 85.785783 222.946218 72.132777 228.601478 62.067762 238.666493 
C 52.002747 248.731509 46.347486 262.384515 46.347486 276.618596 
C 46.347486 290.852677 52.002747 304.505683 62.067762 314.570698 
C 72.132777 324.635713 85.785783 330.290974 100.019864 330.290974 
L 100.019864 330.290974 
z
" clip-path="url(#pccc8e1e1c4)" style="fill: none; stroke: #ff0000; stroke-width: 2; stroke-linejoin: miter"/>
   </g>
   <g id="patch_29">
    <path d="M 115.242291 354.228835 
C 129.476372 354.228835 143.129379 348.573575 153.194394 338.508559 
C 163.259409 328.443544 168.914669 314.790538 168.914669 300.556457 
C 168.914669 286.322376 163.259409 272.66937 153.194394 262.604355 
C 143.129379 252.539339 129.476372 246.884079 115.242291 246.884079 
C 101.00821 246.884079 87.355204 252.539339 77.290189 262.604355 
C 67.225174 272.66937 61.569913 286.322376 61.569913 300.556457 
C 61.569913 314.790538 67.225174 328.443544 77.290189 338.508559 
C 87.355204 348.573575 101.00821 354.228835 115.242291 354.228835 
L 115.242291 354.228835 
z
" clip-path="url(#pccc8e1e1c4)" style="fill: none; stroke: #ff0000; stroke-width: 2; stroke-linejoin: miter"/>
   </g>
   <g id="patch_30">
    <path d="M 207.115976 383.233531 
C 221.350057 383.233531 235.003063 377.578271 245.068078 367.513256 
C 255.133093 357.44824 260.788354 343.795234 260.788354 329.561153 
C 260.788354 315.327072 255.133093 301.674066 245.068078 291.609051 
C 235.003063 281.544036 221.350057 275.888775 207.115976 275.888775 
C 192.881895 275.888775 179.228888 281.544036 169.163873 291.609051 
C 159.098858 301.674066 153.443598 315.327072 153.443598 329.561153 
C 153.443598 343.795234 159.098858 357.44824 169.163873 367.513256 
C 179.228888 377.578271 192.881895 383.233531 207.115976 383.233531 
L 207.115976 383.233531 
z
" clip-path="url(#pccc8e1e1c4)" style="fill: none; stroke: #ff0000; stroke-width: 2; stroke-linejoin: miter"/>
   </g>
   <g id="patch_31">
    <path d="M 260.090761 374.608206 
C 274.324842 374.608206 287.977848 368.952946 298.042864 358.88793 
C 308.107879 348.822915 313.763139 335.169909 313.763139 320.935828 
C 313.763139 306.701747 308.107879 293.048741 298.042864 282.983726 
C 287.977848 272.91871 274.324842 267.26345 260.090761 267.26345 
C 245.85668 267.26345 232.203674 272.91871 222.138659 282.983726 
C 212.073644 293.048741 206.418383 306.701747 206.418383 320.935828 
C 206.418383 335.169909 212.073644 348.822915 222.138659 358.88793 
C 232.203674 368.952946 245.85668 374.608206 260.090761 374.608206 
L 260.090761 374.608206 
z
" clip-path="url(#pccc8e1e1c4)" style="fill: none; stroke: #ff0000; stroke-width: 2; stroke-linejoin: miter"/>
   </g>
   <g id="patch_32">
    <path d="M 313.510874 303.075742 
C 327.744955 303.075742 341.397961 297.420482 351.462976 287.355467 
C 361.527991 277.290451 367.183252 263.637445 367.183252 249.403364 
C 367.183252 235.169283 361.527991 221.516277 351.462976 211.451262 
C 341.397961 201.386247 327.744955 195.730986 313.510874 195.730986 
C 299.276793 195.730986 285.623787 201.386247 275.558771 211.451262 
C 265.493756 221.516277 259.838496 235.169283 259.838496 249.403364 
C 259.838496 263.637445 265.493756 277.290451 275.558771 287.355467 
C 285.623787 297.420482 299.276793 303.075742 313.510874 303.075742 
L 313.510874 303.075742 
z
" clip-path="url(#pccc8e1e1c4)" style="fill: none; stroke: #ff0000; stroke-width: 2; stroke-linejoin: miter"/>
   </g>
   <g id="patch_33">
    <path d="M 442.859571 265.804542 
C 457.093652 265.804542 470.746658 260.149282 480.811673 250.084267 
C 490.876689 240.019252 496.531949 226.366246 496.531949 212.132165 
C 496.531949 197.898084 490.876689 184.245077 480.811673 174.180062 
C 470.746658 164.115047 457.093652 158.459787 442.859571 158.459787 
C 428.62549 158.459787 414.972484 164.115047 404.907469 174.180062 
C 394.842453 184.245077 389.187193 197.898084 389.187193 212.132165 
C 389.187193 226.366246 394.842453 240.019252 404.907469 250.084267 
C 414.972484 260.149282 428.62549 265.804542 442.859571 265.804542 
L 442.859571 265.804542 
z
" clip-path="url(#pccc8e1e1c4)" style="fill: none; stroke: #ff0000; stroke-width: 2; stroke-linejoin: miter"/>
   </g>
   <g id="patch_34">
    <path d="M 417.246532 206.806659 
C 431.480613 206.806659 445.133619 201.151399 455.198634 191.086383 
C 465.263649 181.021368 470.91891 167.368362 470.91891 153.134281 
C 470.91891 138.9002 465.263649 125.247194 455.198634 115.182179 
C 445.133619 105.117163 431.480613 99.461903 417.246532 99.461903 
C 403.012451 99.461903 389.359445 105.117163 379.294429 115.182179 
C 369.229414 125.247194 363.574154 138.9002 363.574154 153.134281 
C 363.574154 167.368362 369.229414 181.021368 379.294429 191.086383 
C 389.359445 201.151399 403.012451 206.806659 417.246532 206.806659 
L 417.246532 206.806659 
z
" clip-path="url(#pccc8e1e1c4)" style="fill: none; stroke: #ff0000; stroke-width: 2; stroke-linejoin: miter"/>
   </g>
   <g id="patch_35">
    <path d="M 373.471659 196.285977 
C 387.70574 196.285977 401.358747 190.630717 411.423762 180.565701 
C 421.488777 170.500686 427.144037 156.84768 427.144037 142.613599 
C 427.144037 128.379518 421.488777 114.726512 411.423762 104.661497 
C 401.358747 94.596481 387.70574 88.941221 373.471659 88.941221 
C 359.237578 88.941221 345.584572 94.596481 335.519557 104.661497 
C 325.454542 114.726512 319.799281 128.379518 319.799281 142.613599 
C 319.799281 156.84768 325.454542 170.500686 335.519557 180.565701 
C 345.584572 190.630717 359.237578 196.285977 373.471659 196.285977 
L 373.471659 196.285977 
z
" clip-path="url(#pccc8e1e1c4)" style="fill: none; stroke: #ff0000; stroke-width: 2; stroke-linejoin: miter"/>
   </g>
   <g id="patch_36">
    <path d="M 299.953819 262.887698 
C 314.1879 262.887698 327.840906 257.232437 337.905921 247.167422 
C 347.970936 237.102407 353.626196 223.449401 353.626196 209.21532 
C 353.626196 194.981239 347.970936 181.328232 337.905921 171.263217 
C 327.840906 161.198202 314.1879 155.542942 299.953819 155.542942 
C 285.719738 155.542942 272.066731 161.198202 262.001716 171.263217 
C 251.936701 181.328232 246.281441 194.981239 246.281441 209.21532 
C 246.281441 223.449401 251.936701 237.102407 262.001716 247.167422 
C 272.066731 257.232437 285.719738 262.887698 299.953819 262.887698 
L 299.953819 262.887698 
z
" clip-path="url(#pccc8e1e1c4)" style="fill: none; stroke: #ff0000; stroke-width: 2; stroke-linejoin: miter"/>
   </g>
   <g id="patch_37">
    <path d="M 300.439946 280.084066 
C 314.674027 280.084066 328.327033 274.428805 338.392048 264.36379 
C 348.457064 254.298775 354.112324 240.645769 354.112324 226.411688 
C 354.112324 212.177607 348.457064 198.5246 338.392048 188.459585 
C 328.327033 178.39457 314.674027 172.73931 300.439946 172.73931 
C 286.205865 172.73931 272.552859 178.39457 262.487844 188.459585 
C 252.422828 198.5246 246.767568 212.177607 246.767568 226.411688 
C 246.767568 240.645769 252.422828 254.298775 262.487844 264.36379 
C 272.552859 274.428805 286.205865 280.084066 300.439946 280.084066 
L 300.439946 280.084066 
z
" clip-path="url(#pccc8e1e1c4)" style="fill: none; stroke: #ff0000; stroke-width: 2; stroke-linejoin: miter"/>
   </g>
   <g id="patch_38">
    <path d="M 364.148989 337.2687 
C 378.38307 337.2687 392.036076 331.61344 402.101091 321.548425 
C 412.166107 311.48341 417.821367 297.830403 417.821367 283.596322 
C 417.821367 269.362241 412.166107 255.709235 402.101091 245.64422 
C 392.036076 235.579205 378.38307 229.923945 364.148989 229.923945 
C 349.914908 229.923945 336.261902 235.579205 326.196887 245.64422 
C 316.131871 255.709235 310.476611 269.362241 310.476611 283.596322 
C 310.476611 297.830403 316.131871 311.48341 326.196887 321.548425 
C 336.261902 331.61344 349.914908 337.2687 364.148989 337.2687 
L 364.148989 337.2687 
z
" clip-path="url(#pccc8e1e1c4)" style="fill: none; stroke: #ff0000; stroke-width: 2; stroke-linejoin: miter"/>
   </g>
   <g id="patch_39">
    <path d="M 417.59894 329.983476 
C 431.833021 329.983476 445.486027 324.328215 455.551042 314.2632 
C 465.616058 304.198185 471.271318 290.545179 471.271318 276.311098 
C 471.271318 262.077017 465.616058 248.424011 455.551042 238.358995 
C 445.486027 228.29398 431.833021 222.63872 417.59894 222.63872 
C 403.364859 222.63872 389.711853 228.29398 379.646838 238.358995 
C 369.581822 248.424011 363.926562 262.077017 363.926562 276.311098 
C 363.926562 290.545179 369.581822 304.198185 379.646838 314.2632 
C 389.711853 324.328215 403.364859 329.983476 417.59894 329.983476 
L 417.59894 329.983476 
z
" clip-path="url(#pccc8e1e1c4)" style="fill: none; stroke: #ff0000; stroke-width: 2; stroke-linejoin: miter"/>
   </g>
   <g id="line2d_1">
    <path d="M 317.139078 228.044778 
L 313.510874 249.403364 
" clip-path="url(#pccc8e1e1c4)" style="fill: none; stroke: #000000; stroke-width: 2; stroke-linecap: square"/>
   </g>
   <g id="line2d_2">
    <path d="M 317.139078 228.044778 
L 299.953819 209.21532 
" clip-path="url(#pccc8e1e1c4)" style="fill: none; stroke: #000000; stroke-width: 2; stroke-linecap: square"/>
   </g>
   <g id="line2d_3">
    <path d="M 317.139078 228.044778 
L 300.439946 226.411688 
" clip-path="url(#pccc8e1e1c4)" style="fill: none; stroke: #000000; stroke-width: 2; stroke-linecap: square"/>
   </g>
   <g id="line2d_4">
    <path d="M 302.965639 161.979138 
L 299.953819 209.21532 
" clip-path="url(#pccc8e1e1c4)" style="fill: none; stroke: #000000; stroke-width: 2; stroke-linecap: square"/>
   </g>
   <g id="line2d_5">
    <path d="M 226.695241 96.425528 
L 180.836146 91.738847 
" clip-path="url(#pccc8e1e1c4)" style="fill: none; stroke: #000000; stroke-width: 2; stroke-linecap: square"/>
   </g>
   <g id="line2d_6">
    <path d="M 226.695241 96.425528 
L 180.13132 112.051377 
" clip-path="url(#pccc8e1e1c4)" style="fill: none; stroke: #000000; stroke-width: 2; stroke-linecap: square"/>
   </g>
   <g id="line2d_7">
    <path d="M 180.836146 91.738847 
L 180.13132 112.051377 
" clip-path="url(#pccc8e1e1c4)" style="fill: none; stroke: #000000; stroke-width: 2; stroke-linecap: square"/>
   </g>
   <g id="line2d_8">
    <path d="M 108.739293 159.977828 
L 78.615303 203.982167 
" clip-path="url(#pccc8e1e1c4)" style="fill: none; stroke: #000000; stroke-width: 2; stroke-linecap: square"/>
   </g>
   <g id="line2d_9">
    <path d="M 100.019864 276.618596 
L 115.242291 300.556457 
" clip-path="url(#pccc8e1e1c4)" style="fill: none; stroke: #000000; stroke-width: 2; stroke-linecap: square"/>
   </g>
   <g id="line2d_10">
    <path d="M 207.115976 329.561153 
L 260.090761 320.935828 
" clip-path="url(#pccc8e1e1c4)" style="fill: none; stroke: #000000; stroke-width: 2; stroke-linecap: square"/>
   </g>
   <g id="line2d_11">
    <path d="M 313.510874 249.403364 
L 299.953819 209.21532 
" clip-path="url(#pccc8e1e1c4)" style="fill: none; stroke: #000000; stroke-width: 2; stroke-linecap: square"/>
   </g>
   <g id="line2d_12">
    <path d="M 313.510874 249.403364 
L 300.439946 226.411688 
" clip-path="url(#pccc8e1e1c4)" style="fill: none; stroke: #000000; stroke-width: 2; stroke-linecap: square"/>
   </g>
   <g id="line2d_13">
    <path d="M 417.246532 153.134281 
L 373.471659 142.613599 
" clip-path="url(#pccc8e1e1c4)" style="fill: none; stroke: #000000; stroke-width: 2; stroke-linecap: square"/>
   </g>
   <g id="line2d_14">
    <path d="M 299.953819 209.21532 
L 300.439946 226.411688 
" clip-path="url(#pccc8e1e1c4)" style="fill: none; stroke: #000000; stroke-width: 2; stroke-linecap: square"/>
   </g>
   <g id="PathCollection_2">
    <defs>
     <path id="ma4490924fc" d="M 0 3 
C 0.795609 3 1.55874 2.683901 2.12132 2.12132 
C 2.683901 1.55874 3 0.795609 3 0 
C 3 -0.795609 2.683901 -1.55874 2.12132 -2.12132 
C 1.55874 -2.683901 0.795609 -3 0 -3 
C -0.795609 -3 -1.55874 -2.683901 -2.12132 -2.12132 
C -2.683901 -1.55874 -3 -0.795609 -3 0 
C -3 0.795609 -2.683901 1.55874 -2.12132 2.12132 
C -1.55874 2.683901 -0.795609 3 0 3 
z
" style="stroke: #0000ff"/>
    </defs>
    <g clip-path="url(#pccc8e1e1c4)">
     <use xlink:href="#ma4490924fc" x="317.139078" y="228.044778" style="fill: #0000ff; stroke: #0000ff"/>
     <use xlink:href="#ma4490924fc" x="302.965639" y="161.979138" style="fill: #0000ff; stroke: #0000ff"/>
     <use xlink:href="#ma4490924fc" x="226.695241" y="96.425528" style="fill: #0000ff; stroke: #0000ff"/>
     <use xlink:href="#ma4490924fc" x="180.836146" y="91.738847" style="fill: #0000ff; stroke: #0000ff"/>
     <use xlink:href="#ma4490924fc" x="180.13132" y="112.051377" style="fill: #0000ff; stroke: #0000ff"/>
     <use xlink:href="#ma4490924fc" x="108.739293" y="159.977828" style="fill: #0000ff; stroke: #0000ff"/>
     <use xlink:href="#ma4490924fc" x="78.615303" y="203.982167" style="fill: #0000ff; stroke: #0000ff"/>
     <use xlink:href="#ma4490924fc" x="100.019864" y="276.618596" style="fill: #0000ff; stroke: #0000ff"/>
     <use xlink:href="#ma4490924fc" x="115.242291" y="300.556457" style="fill: #0000ff; stroke: #0000ff"/>
     <use xlink:href="#ma4490924fc" x="207.115976" y="329.561153" style="fill: #0000ff; stroke: #0000ff"/>
     <use xlink:href="#ma4490924fc" x="260.090761" y="320.935828" style="fill: #0000ff; stroke: #0000ff"/>
     <use xlink:href="#ma4490924fc" x="313.510874" y="249.403364" style="fill: #0000ff; stroke: #0000ff"/>
     <use xlink:href="#ma4490924fc" x="442.859571" y="212.132165" style="fill: #0000ff; stroke: #0000ff"/>
     <use xlink:href="#ma4490924fc" x="417.246532" y="153.134281" style="fill: #0000ff; stroke: #0000ff"/>
     <use xlink:href="#ma4490924fc" x="373.471659" y="142.613599" style="fill: #0000ff; stroke: #0000ff"/>
     <use xlink:href="#ma4490924fc" x="299.953819" y="209.21532" style="fill: #0000ff; stroke: #0000ff"/>
     <use xlink:href="#ma4490924fc" x="300.439946" y="226.411688" style="fill: #0000ff; stroke: #0000ff"/>
     <use xlink:href="#ma4490924fc" x="364.148989" y="283.596322" style="fill: #0000ff; stroke: #0000ff"/>
     <use xlink:href="#ma4490924fc" x="417.59894" y="276.311098" style="fill: #0000ff; stroke: #0000ff"/>
    </g>
   </g>
  </g>
  <g id="axes_2">
   <g id="patch_40">
    <path d="M 558.525126 414.1 
L 1065.6 414.1 
L 1065.6 7.2 
L 558.525126 7.2 
z
" style="fill: #ffffff"/>
   </g>
   <g id="matplotlib.axis_1">
    <g id="xtick_1">
     <g id="line2d_15">
      <defs>
       <path id="m3e99f44748" d="M 0 0 
L 0 3.5 
" style="stroke: #000000; stroke-width: 0.8"/>
      </defs>
      <g>
       <use xlink:href="#m3e99f44748" x="571.869202" y="414.1" style="stroke: #000000; stroke-width: 0.8"/>
      </g>
     </g>
    </g>
    <g id="xtick_2">
     <g id="line2d_16">
      <g>
       <use xlink:href="#m3e99f44748" x="598.557353" y="414.1" style="stroke: #000000; stroke-width: 0.8"/>
      </g>
     </g>
    </g>
    <g id="xtick_3">
     <g id="line2d_17">
      <g>
       <use xlink:href="#m3e99f44748" x="625.245505" y="414.1" style="stroke: #000000; stroke-width: 0.8"/>
      </g>
     </g>
    </g>
    <g id="xtick_4">
     <g id="line2d_18">
      <g>
       <use xlink:href="#m3e99f44748" x="651.933656" y="414.1" style="stroke: #000000; stroke-width: 0.8"/>
      </g>
     </g>
    </g>
    <g id="xtick_5">
     <g id="line2d_19">
      <g>
       <use xlink:href="#m3e99f44748" x="678.621807" y="414.1" style="stroke: #000000; stroke-width: 0.8"/>
      </g>
     </g>
    </g>
    <g id="xtick_6">
     <g id="line2d_20">
      <g>
       <use xlink:href="#m3e99f44748" x="705.309958" y="414.1" style="stroke: #000000; stroke-width: 0.8"/>
      </g>
     </g>
    </g>
    <g id="xtick_7">
     <g id="line2d_21">
      <g>
       <use xlink:href="#m3e99f44748" x="731.99811" y="414.1" style="stroke: #000000; stroke-width: 0.8"/>
      </g>
     </g>
    </g>
    <g id="xtick_8">
     <g id="line2d_22">
      <g>
       <use xlink:href="#m3e99f44748" x="758.686261" y="414.1" style="stroke: #000000; stroke-width: 0.8"/>
      </g>
     </g>
    </g>
    <g id="xtick_9">
     <g id="line2d_23">
      <g>
       <use xlink:href="#m3e99f44748" x="785.374412" y="414.1" style="stroke: #000000; stroke-width: 0.8"/>
      </g>
     </g>
    </g>
    <g id="xtick_10">
     <g id="line2d_24">
      <g>
       <use xlink:href="#m3e99f44748" x="812.062563" y="414.1" style="stroke: #000000; stroke-width: 0.8"/>
      </g>
     </g>
    </g>
    <g id="xtick_11">
     <g id="line2d_25">
      <g>
       <use xlink:href="#m3e99f44748" x="838.750714" y="414.1" style="stroke: #000000; stroke-width: 0.8"/>
      </g>
     </g>
    </g>
    <g id="xtick_12">
     <g id="line2d_26">
      <g>
       <use xlink:href="#m3e99f44748" x="865.438866" y="414.1" style="stroke: #000000; stroke-width: 0.8"/>
      </g>
     </g>
    </g>
    <g id="xtick_13">
     <g id="line2d_27">
      <g>
       <use xlink:href="#m3e99f44748" x="892.127017" y="414.1" style="stroke: #000000; stroke-width: 0.8"/>
      </g>
     </g>
    </g>
    <g id="xtick_14">
     <g id="line2d_28">
      <g>
       <use xlink:href="#m3e99f44748" x="918.815168" y="414.1" style="stroke: #000000; stroke-width: 0.8"/>
      </g>
     </g>
    </g>
    <g id="xtick_15">
     <g id="line2d_29">
      <g>
       <use xlink:href="#m3e99f44748" x="945.503319" y="414.1" style="stroke: #000000; stroke-width: 0.8"/>
      </g>
     </g>
    </g>
    <g id="xtick_16">
     <g id="line2d_30">
      <g>
       <use xlink:href="#m3e99f44748" x="972.191471" y="414.1" style="stroke: #000000; stroke-width: 0.8"/>
      </g>
     </g>
    </g>
    <g id="xtick_17">
     <g id="line2d_31">
      <g>
       <use xlink:href="#m3e99f44748" x="998.879622" y="414.1" style="stroke: #000000; stroke-width: 0.8"/>
      </g>
     </g>
    </g>
    <g id="xtick_18">
     <g id="line2d_32">
      <g>
       <use xlink:href="#m3e99f44748" x="1025.567773" y="414.1" style="stroke: #000000; stroke-width: 0.8"/>
      </g>
     </g>
    </g>
    <g id="xtick_19">
     <g id="line2d_33">
      <g>
       <use xlink:href="#m3e99f44748" x="1052.255924" y="414.1" style="stroke: #000000; stroke-width: 0.8"/>
      </g>
     </g>
    </g>
   </g>
   <g id="matplotlib.axis_2">
    <g id="ytick_1">
     <g id="line2d_34">
      <defs>
       <path id="m0ae7aca830" d="M 0 0 
L -3.5 0 
" style="stroke: #000000; stroke-width: 0.8"/>
      </defs>
      <g>
       <use xlink:href="#m0ae7aca830" x="558.525126" y="222.858095" style="stroke: #000000; stroke-width: 0.8"/>
      </g>
     </g>
     <g id="text_1">
      <!-- $r_{10}$ -->
      <g transform="translate(524.925126 230.456532) scale(0.2 -0.2)">
       <defs>
        <path id="DejaVuSans-Oblique-72" d="M 2853 2969 
Q 2766 3016 2653 3041 
Q 2541 3066 2413 3066 
Q 1953 3066 1609 2717 
Q 1266 2369 1153 1784 
L 800 0 
L 225 0 
L 909 3500 
L 1484 3500 
L 1375 2956 
Q 1603 3259 1920 3421 
Q 2238 3584 2597 3584 
Q 2691 3584 2781 3573 
Q 2872 3563 2963 3538 
L 2853 2969 
z
" transform="scale(0.015625)"/>
        <path id="DejaVuSans-31" d="M 794 531 
L 1825 531 
L 1825 4091 
L 703 3866 
L 703 4441 
L 1819 4666 
L 2450 4666 
L 2450 531 
L 3481 531 
L 3481 0 
L 794 0 
L 794 531 
z
" transform="scale(0.015625)"/>
        <path id="DejaVuSans-30" d="M 2034 4250 
Q 1547 4250 1301 3770 
Q 1056 3291 1056 2328 
Q 1056 1369 1301 889 
Q 1547 409 2034 409 
Q 2525 409 2770 889 
Q 3016 1369 3016 2328 
Q 3016 3291 2770 3770 
Q 2525 4250 2034 4250 
z
M 2034 4750 
Q 2819 4750 3233 4129 
Q 3647 3509 3647 2328 
Q 3647 1150 3233 529 
Q 2819 -91 2034 -91 
Q 1250 -91 836 529 
Q 422 1150 422 2328 
Q 422 3509 836 4129 
Q 1250 4750 2034 4750 
z
" transform="scale(0.015625)"/>
       </defs>
       <use xlink:href="#DejaVuSans-Oblique-72"/>
       <use xlink:href="#DejaVuSans-31" transform="translate(41.113281 -16.40625) scale(0.7)"/>
       <use xlink:href="#DejaVuSans-30" transform="translate(85.649414 -16.40625) scale(0.7)"/>
      </g>
     </g>
    </g>
   </g>
   <g id="line2d_35">
    <path d="M 598.557353 414.1 
L 598.557353 341.680163 
L 625.245505 341.680163 
L 625.245505 414.1 
" clip-path="url(#p25353939a0)" style="fill: none; stroke: #ff0000; stroke-width: 5; stroke-linecap: square"/>
   </g>
   <g id="line2d_36">
    <path d="M 571.869202 414.1 
L 571.869202 249.846779 
L 611.901429 249.846779 
L 611.901429 341.680163 
" clip-path="url(#p25353939a0)" style="fill: none; stroke: #ff0000; stroke-width: 5; stroke-linecap: square"/>
   </g>
   <g id="line2d_37">
    <path d="M 651.933656 414.1 
L 651.933656 313.020995 
L 678.621807 313.020995 
L 678.621807 414.1 
" clip-path="url(#p25353939a0)" style="fill: none; stroke: #ff0000; stroke-width: 5; stroke-linecap: square"/>
   </g>
   <g id="line2d_38">
    <path d="M 705.309958 414.1 
L 705.309958 224.086462 
L 731.99811 224.086462 
L 731.99811 414.1 
" clip-path="url(#p25353939a0)" style="fill: none; stroke: #ff0000; stroke-width: 5; stroke-linecap: square"/>
   </g>
   <g id="line2d_39">
    <path d="M 758.686261 414.1 
L 758.686261 222.858095 
L 785.374412 222.858095 
L 785.374412 414.1 
" clip-path="url(#p25353939a0)" style="fill: none; stroke: #ff0000; stroke-width: 5; stroke-linecap: square"/>
   </g>
   <g id="line2d_40">
    <path d="M 892.127017 414.1 
L 892.127017 354.314891 
L 918.815168 354.314891 
L 918.815168 414.1 
" clip-path="url(#p25353939a0)" style="fill: none; stroke: #ff0000; stroke-width: 5; stroke-linecap: square"/>
   </g>
   <g id="line2d_41">
    <path d="M 865.438866 414.1 
L 865.438866 352.802549 
L 905.471093 352.802549 
L 905.471093 354.314891 
" clip-path="url(#p25353939a0)" style="fill: none; stroke: #ff0000; stroke-width: 5; stroke-linecap: square"/>
   </g>
   <g id="line2d_42">
    <path d="M 838.750714 414.1 
L 838.750714 336.906263 
L 885.454979 336.906263 
L 885.454979 352.802549 
" clip-path="url(#p25353939a0)" style="fill: none; stroke: #ff0000; stroke-width: 5; stroke-linecap: square"/>
   </g>
   <g id="line2d_43">
    <path d="M 812.062563 414.1 
L 812.062563 245.44935 
L 862.102847 245.44935 
L 862.102847 336.906263 
" clip-path="url(#p25353939a0)" style="fill: none; stroke: #ff0000; stroke-width: 5; stroke-linecap: square"/>
   </g>
   <g id="line2d_44">
    <path d="M 1025.567773 414.1 
L 1025.567773 253.682782 
L 1052.255924 253.682782 
L 1052.255924 414.1 
" clip-path="url(#p25353939a0)" style="fill: none; stroke: #ff0000; stroke-width: 5; stroke-linecap: square"/>
   </g>
   <g id="line2d_45">
    <path d="M 945.503319 414.1 
L 945.503319 222.858095 
" clip-path="url(#p25353939a0)" style="fill: none; stroke: #ff0000; stroke-width: 5; stroke-linecap: square"/>
   </g>
   <g id="line2d_46">
    <path d="M 972.191471 414.1 
L 972.191471 222.858095 
" clip-path="url(#p25353939a0)" style="fill: none; stroke: #ff0000; stroke-width: 5; stroke-linecap: square"/>
   </g>
   <g id="line2d_47">
    <path d="M 998.879622 414.1 
L 998.879622 222.858095 
" clip-path="url(#p25353939a0)" style="fill: none; stroke: #ff0000; stroke-width: 5; stroke-linecap: square"/>
   </g>
   <g id="line2d_48">
    <path d="M 591.885316 249.846779 
L 591.885316 222.858095 
" clip-path="url(#p25353939a0)" style="fill: none; stroke: #ff0000; stroke-width: 5; stroke-linecap: square"/>
   </g>
   <g id="line2d_49">
    <path d="M 665.277731 313.020995 
L 665.277731 222.858095 
" clip-path="url(#p25353939a0)" style="fill: none; stroke: #ff0000; stroke-width: 5; stroke-linecap: square"/>
   </g>
   <g id="line2d_50">
    <path d="M 718.654034 224.086462 
L 718.654034 222.858095 
" clip-path="url(#p25353939a0)" style="fill: none; stroke: #ff0000; stroke-width: 5; stroke-linecap: square"/>
   </g>
   <g id="line2d_51">
    <path d="M 772.030336 222.858095 
L 772.030336 222.858095 
" clip-path="url(#p25353939a0)" style="fill: none; stroke: #ff0000; stroke-width: 5; stroke-linecap: square"/>
   </g>
   <g id="line2d_52">
    <path d="M 837.082705 245.44935 
L 837.082705 222.858095 
" clip-path="url(#p25353939a0)" style="fill: none; stroke: #ff0000; stroke-width: 5; stroke-linecap: square"/>
   </g>
   <g id="line2d_53">
    <path d="M 1038.911849 253.682782 
L 1038.911849 222.858095 
" clip-path="url(#p25353939a0)" style="fill: none; stroke: #ff0000; stroke-width: 5; stroke-linecap: square"/>
   </g>
   <g id="patch_41">
    <path d="M 558.525126 414.1 
L 558.525126 7.2 
" style="fill: none; stroke: #000000; stroke-width: 0.8; stroke-linejoin: miter; stroke-linecap: square"/>
   </g>
   <g id="patch_42">
    <path d="M 1065.6 414.1 
L 1065.6 7.2 
" style="fill: none; stroke: #000000; stroke-width: 0.8; stroke-linejoin: miter; stroke-linecap: square"/>
   </g>
   <g id="patch_43">
    <path d="M 558.525126 414.1 
L 1065.6 414.1 
" style="fill: none; stroke: #000000; stroke-width: 0.8; stroke-linejoin: miter; stroke-linecap: square"/>
   </g>
   <g id="patch_44">
    <path d="M 558.525126 7.2 
L 1065.6 7.2 
" style="fill: none; stroke: #000000; stroke-width: 0.8; stroke-linejoin: miter; stroke-linecap: square"/>
   </g>
   <g id="PathCollection_3">
    <defs>
     <path id="m32e704494e" d="M 0 6.123724 
C 1.624031 6.123724 3.181764 5.47849 4.330127 4.330127 
C 5.47849 3.181764 6.123724 1.624031 6.123724 0 
C 6.123724 -1.624031 5.47849 -3.181764 4.330127 -4.330127 
C 3.181764 -5.47849 1.624031 -6.123724 0 -6.123724 
C -1.624031 -6.123724 -3.181764 -5.47849 -4.330127 -4.330127 
C -5.47849 -3.181764 -6.123724 -1.624031 -6.123724 0 
C -6.123724 1.624031 -5.47849 3.181764 -4.330127 4.330127 
C -3.181764 5.47849 -1.624031 6.123724 0 6.123724 
z
" style="stroke: #0000ff"/>
    </defs>
    <g clip-path="url(#p25353939a0)">
     <use xlink:href="#m32e704494e" x="571.869202" y="414.1" style="fill: #0000ff; stroke: #0000ff"/>
     <use xlink:href="#m32e704494e" x="598.557353" y="414.1" style="fill: #0000ff; stroke: #0000ff"/>
     <use xlink:href="#m32e704494e" x="625.245505" y="414.1" style="fill: #0000ff; stroke: #0000ff"/>
     <use xlink:href="#m32e704494e" x="651.933656" y="414.1" style="fill: #0000ff; stroke: #0000ff"/>
     <use xlink:href="#m32e704494e" x="678.621807" y="414.1" style="fill: #0000ff; stroke: #0000ff"/>
     <use xlink:href="#m32e704494e" x="705.309958" y="414.1" style="fill: #0000ff; stroke: #0000ff"/>
     <use xlink:href="#m32e704494e" x="731.99811" y="414.1" style="fill: #0000ff; stroke: #0000ff"/>
     <use xlink:href="#m32e704494e" x="758.686261" y="414.1" style="fill: #0000ff; stroke: #0000ff"/>
     <use xlink:href="#m32e704494e" x="785.374412" y="414.1" style="fill: #0000ff; stroke: #0000ff"/>
     <use xlink:href="#m32e704494e" x="812.062563" y="414.1" style="fill: #0000ff; stroke: #0000ff"/>
     <use xlink:href="#m32e704494e" x="838.750714" y="414.1" style="fill: #0000ff; stroke: #0000ff"/>
     <use xlink:href="#m32e704494e" x="865.438866" y="414.1" style="fill: #0000ff; stroke: #0000ff"/>
     <use xlink:href="#m32e704494e" x="892.127017" y="414.1" style="fill: #0000ff; stroke: #0000ff"/>
     <use xlink:href="#m32e704494e" x="918.815168" y="414.1" style="fill: #0000ff; stroke: #0000ff"/>
     <use xlink:href="#m32e704494e" x="945.503319" y="414.1" style="fill: #0000ff; stroke: #0000ff"/>
     <use xlink:href="#m32e704494e" x="972.191471" y="414.1" style="fill: #0000ff; stroke: #0000ff"/>
     <use xlink:href="#m32e704494e" x="998.879622" y="414.1" style="fill: #0000ff; stroke: #0000ff"/>
     <use xlink:href="#m32e704494e" x="1025.567773" y="414.1" style="fill: #0000ff; stroke: #0000ff"/>
     <use xlink:href="#m32e704494e" x="1052.255924" y="414.1" style="fill: #0000ff; stroke: #0000ff"/>
    </g>
   </g>
  </g>
 </g>
 <defs>
  <clipPath id="pccc8e1e1c4">
   <rect x="7.2" y="20.323544" width="507.074874" height="380.652912"/>
  </clipPath>
  <clipPath id="p25353939a0">
   <rect x="558.525126" y="7.2" width="507.074874" height="406.9"/>
  </clipPath>
 </defs>
</svg>
