<?xml version="1.0" encoding="utf-8" standalone="no"?>
<!DOCTYPE svg PUBLIC "-//W3C//DTD SVG 1.1//EN"
  "http://www.w3.org/Graphics/SVG/1.1/DTD/svg11.dtd">
<svg xmlns:xlink="http://www.w3.org/1999/xlink" width="1072.8pt" height="424.8pt" viewBox="0 0 1072.8 424.8" xmlns="http://www.w3.org/2000/svg" version="1.1">
 <metadata>
  <rdf:RDF xmlns:dc="http://purl.org/dc/elements/1.1/" xmlns:cc="http://creativecommons.org/ns#" xmlns:rdf="http://www.w3.org/1999/02/22-rdf-syntax-ns#">
   <cc:Work>
    <dc:type rdf:resource="http://purl.org/dc/dcmitype/StillImage"/>
    <dc:date>2023-10-24T09:47:26.374092</dc:date>
    <dc:format>image/svg+xml</dc:format>
    <dc:creator>
     <cc:Agent>
      <dc:title>Matplotlib v3.7.2, https://matplotlib.org/</dc:title>
     </cc:Agent>
    </dc:creator>
   </cc:Work>
  </rdf:RDF>
 </metadata>
 <defs>
  <style type="text/css">*{stroke-linejoin: round; stroke-linecap: butt}</style>
 </defs>
 <g id="figure_1">
  <g id="patch_1">
   <path d="M 0 424.8 
L 1072.8 424.8 
L 1072.8 -0 
L 0 -0 
z
" style="fill: #ffffff"/>
  </g>
  <g id="axes_1">
   <g id="PathCollection_1">
    <defs>
     <path id="m9df5d563a7" d="M 0 3 
C 0.795609 3 1.55874 2.683901 2.12132 2.12132 
C 2.683901 1.55874 3 0.795609 3 0 
C 3 -0.795609 2.683901 -1.55874 2.12132 -2.12132 
C 1.55874 -2.683901 0.795609 -3 0 -3 
C -0.795609 -3 -1.55874 -2.683901 -2.12132 -2.12132 
C -2.683901 -1.55874 -3 -0.795609 -3 0 
C -3 0.795609 -2.683901 1.55874 -2.12132 2.12132 
C -1.55874 2.683901 -0.795609 3 0 3 
z
" style="stroke: #1f77b4; stroke-opacity: 0"/>
    </defs>
    <g clip-path="url(#p1a39c117bb)">
     <use xlink:href="#m9df5d563a7" x="7.2" y="402.663302" style="fill: #1f77b4; fill-opacity: 0; stroke: #1f77b4; stroke-opacity: 0"/>
     <use xlink:href="#m9df5d563a7" x="518.769033" y="18.636698" style="fill: #1f77b4; fill-opacity: 0; stroke: #1f77b4; stroke-opacity: 0"/>
    </g>
   </g>
   <g id="patch_2">
    <path d="M 319.886041 248.703837 
C 325.324002 248.703837 330.53997 246.543313 334.385189 242.698094 
C 338.230408 238.852875 340.390932 233.636907 340.390932 228.198946 
C 340.390932 222.760985 338.230408 217.545017 334.385189 213.699798 
C 330.53997 209.854579 325.324002 207.694054 319.886041 207.694054 
C 314.44808 207.694054 309.232112 209.854579 305.386893 213.699798 
C 301.541674 217.545017 299.381149 222.760985 299.381149 228.198946 
C 299.381149 233.636907 301.541674 238.852875 305.386893 242.698094 
C 309.232112 246.543313 314.44808 248.703837 319.886041 248.703837 
z
" clip-path="url(#p1a39c117bb)" style="fill: #ff0000; opacity: 0.2"/>
   </g>
   <g id="patch_3">
    <path d="M 305.586984 182.052664 
C 311.024945 182.052664 316.240913 179.892139 320.086132 176.046921 
C 323.931351 172.201702 326.091876 166.985733 326.091876 161.547773 
C 326.091876 156.109812 323.931351 150.893844 320.086132 147.048625 
C 316.240913 143.203406 311.024945 141.042881 305.586984 141.042881 
C 300.149023 141.042881 294.933055 143.203406 291.087836 147.048625 
C 287.242617 150.893844 285.082092 156.109812 285.082092 161.547773 
C 285.082092 166.985733 287.242617 172.201702 291.087836 176.046921 
C 294.933055 179.892139 300.149023 182.052664 305.586984 182.052664 
z
" clip-path="url(#p1a39c117bb)" style="fill: #ff0000; opacity: 0.2"/>
   </g>
   <g id="patch_4">
    <path d="M 228.640608 115.918058 
C 234.078569 115.918058 239.294537 113.757533 243.139756 109.912314 
C 246.984975 106.067095 249.145499 100.851127 249.145499 95.413167 
C 249.145499 89.975206 246.984975 84.759238 243.139756 80.914019 
C 239.294537 77.0688 234.078569 74.908275 228.640608 74.908275 
C 223.202647 74.908275 217.986679 77.0688 214.14146 80.914019 
C 210.296241 84.759238 208.135716 89.975206 208.135716 95.413167 
C 208.135716 100.851127 210.296241 106.067095 214.14146 109.912314 
C 217.986679 113.757533 223.202647 115.918058 228.640608 115.918058 
z
" clip-path="url(#p1a39c117bb)" style="fill: #ff0000; opacity: 0.2"/>
   </g>
   <g id="patch_5">
    <path d="M 182.375068 111.189839 
C 187.813029 111.189839 193.028997 109.029315 196.874216 105.184096 
C 200.719435 101.338877 202.879959 96.122909 202.879959 90.684948 
C 202.879959 85.246987 200.719435 80.031019 196.874216 76.1858 
C 193.028997 72.340581 187.813029 70.180056 182.375068 70.180056 
C 176.937107 70.180056 171.721139 72.340581 167.87592 76.1858 
C 164.030701 80.031019 161.870176 85.246987 161.870176 90.684948 
C 161.870176 96.122909 164.030701 101.338877 167.87592 105.184096 
C 171.721139 109.029315 176.937107 111.189839 182.375068 111.189839 
z
" clip-path="url(#p1a39c117bb)" style="fill: #ff0000; opacity: 0.2"/>
   </g>
   <g id="patch_6">
    <path d="M 181.663994 131.682398 
C 187.101955 131.682398 192.317923 129.521873 196.163142 125.676654 
C 200.008361 121.831435 202.168886 116.615467 202.168886 111.177506 
C 202.168886 105.739545 200.008361 100.523577 196.163142 96.678358 
C 192.317923 92.833139 187.101955 90.672615 181.663994 90.672615 
C 176.226034 90.672615 171.010066 92.833139 167.164847 96.678358 
C 163.319628 100.523577 161.159103 105.739545 161.159103 111.177506 
C 161.159103 116.615467 163.319628 121.831435 167.164847 125.676654 
C 171.010066 129.521873 176.226034 131.682398 181.663994 131.682398 
z
" clip-path="url(#p1a39c117bb)" style="fill: #ff0000; opacity: 0.2"/>
   </g>
   <g id="patch_7">
    <path d="M 109.639227 180.033617 
C 115.077188 180.033617 120.293156 177.873092 124.138375 174.027873 
C 127.983594 170.182654 130.144119 164.966686 130.144119 159.528725 
C 130.144119 154.090764 127.983594 148.874796 124.138375 145.029577 
C 120.293156 141.184358 115.077188 139.023834 109.639227 139.023834 
C 104.201266 139.023834 98.985298 141.184358 95.140079 145.029577 
C 91.29486 148.874796 89.134336 154.090764 89.134336 159.528725 
C 89.134336 164.966686 91.29486 170.182654 95.140079 174.027873 
C 98.985298 177.873092 104.201266 180.033617 109.639227 180.033617 
z
" clip-path="url(#p1a39c117bb)" style="fill: #ff0000; opacity: 0.2"/>
   </g>
   <g id="patch_8">
    <path d="M 79.24825 224.427962 
C 84.686211 224.427962 89.902179 222.267437 93.747398 218.422218 
C 97.592617 214.576999 99.753142 209.361031 99.753142 203.92307 
C 99.753142 198.485109 97.592617 193.269141 93.747398 189.423922 
C 89.902179 185.578703 84.686211 183.418179 79.24825 183.418179 
C 73.810289 183.418179 68.594321 185.578703 64.749102 189.423922 
C 60.903883 193.269141 58.743359 198.485109 58.743359 203.92307 
C 58.743359 209.361031 60.903883 214.576999 64.749102 218.422218 
C 68.594321 222.267437 73.810289 224.427962 79.24825 224.427962 
z
" clip-path="url(#p1a39c117bb)" style="fill: #ff0000; opacity: 0.2"/>
   </g>
   <g id="patch_9">
    <path d="M 100.842518 297.708161 
C 106.280479 297.708161 111.496447 295.547636 115.341666 291.702418 
C 119.186885 287.857199 121.34741 282.64123 121.34741 277.20327 
C 121.34741 271.765309 119.186885 266.549341 115.341666 262.704122 
C 111.496447 258.858903 106.280479 256.698378 100.842518 256.698378 
C 95.404558 256.698378 90.188589 258.858903 86.343371 262.704122 
C 82.498152 266.549341 80.337627 271.765309 80.337627 277.20327 
C 80.337627 282.64123 82.498152 287.857199 86.343371 291.702418 
C 90.188589 295.547636 95.404558 297.708161 100.842518 297.708161 
z
" clip-path="url(#p1a39c117bb)" style="fill: #ff0000; opacity: 0.2"/>
   </g>
   <g id="patch_10">
    <path d="M 116.199861 321.858181 
C 121.637821 321.858181 126.853789 319.697657 130.699008 315.852438 
C 134.544227 312.007219 136.704752 306.791251 136.704752 301.35329 
C 136.704752 295.915329 134.544227 290.699361 130.699008 286.854142 
C 126.853789 283.008923 121.637821 280.848398 116.199861 280.848398 
C 110.7619 280.848398 105.545932 283.008923 101.700713 286.854142 
C 97.855494 290.699361 95.694969 295.915329 95.694969 301.35329 
C 95.694969 306.791251 97.855494 312.007219 101.700713 315.852438 
C 105.545932 319.697657 110.7619 321.858181 116.199861 321.858181 
z
" clip-path="url(#p1a39c117bb)" style="fill: #ff0000; opacity: 0.2"/>
   </g>
   <g id="patch_11">
    <path d="M 208.887813 351.119944 
C 214.325774 351.119944 219.541742 348.959419 223.386961 345.1142 
C 227.23218 341.268981 229.392705 336.053013 229.392705 330.615052 
C 229.392705 325.177091 227.23218 319.961123 223.386961 316.115904 
C 219.541742 312.270685 214.325774 310.110161 208.887813 310.110161 
C 203.449852 310.110161 198.233884 312.270685 194.388665 316.115904 
C 190.543446 319.961123 188.382922 325.177091 188.382922 330.615052 
C 188.382922 336.053013 190.543446 341.268981 194.388665 345.1142 
C 198.233884 348.959419 203.449852 351.119944 208.887813 351.119944 
z
" clip-path="url(#p1a39c117bb)" style="fill: #ff0000; opacity: 0.2"/>
   </g>
   <g id="patch_12">
    <path d="M 262.33211 342.418173 
C 267.77007 342.418173 272.986039 340.257648 276.831258 336.412429 
C 280.676476 332.56721 282.837001 327.351242 282.837001 321.913282 
C 282.837001 316.475321 280.676476 311.259353 276.831258 307.414134 
C 272.986039 303.568915 267.77007 301.40839 262.33211 301.40839 
C 256.894149 301.40839 251.678181 303.568915 247.832962 307.414134 
C 243.987743 311.259353 241.827218 316.475321 241.827218 321.913282 
C 241.827218 327.351242 243.987743 332.56721 247.832962 336.412429 
C 251.678181 340.257648 256.894149 342.418173 262.33211 342.418173 
z
" clip-path="url(#p1a39c117bb)" style="fill: #ff0000; opacity: 0.2"/>
   </g>
   <g id="patch_13">
    <path d="M 316.22568 270.251723 
C 321.663641 270.251723 326.879609 268.091199 330.724828 264.24598 
C 334.570047 260.400761 336.730572 255.184793 336.730572 249.746832 
C 336.730572 244.308871 334.570047 239.092903 330.724828 235.247684 
C 326.879609 231.402465 321.663641 229.24194 316.22568 229.24194 
C 310.787719 229.24194 305.571751 231.402465 301.726532 235.247684 
C 297.881313 239.092903 295.720789 244.308871 295.720789 249.746832 
C 295.720789 255.184793 297.881313 260.400761 301.726532 264.24598 
C 305.571751 268.091199 310.787719 270.251723 316.22568 270.251723 
z
" clip-path="url(#p1a39c117bb)" style="fill: #ff0000; opacity: 0.2"/>
   </g>
   <g id="patch_14">
    <path d="M 446.720783 232.650192 
C 452.158744 232.650192 457.374712 230.489668 461.219931 226.644449 
C 465.06515 222.79923 467.225675 217.583262 467.225675 212.145301 
C 467.225675 206.70734 465.06515 201.491372 461.219931 197.646153 
C 457.374712 193.800934 452.158744 191.640409 446.720783 191.640409 
C 441.282822 191.640409 436.066854 193.800934 432.221635 197.646153 
C 428.376416 201.491372 426.215892 206.70734 426.215892 212.145301 
C 426.215892 217.583262 428.376416 222.79923 432.221635 226.644449 
C 436.066854 230.489668 441.282822 232.650192 446.720783 232.650192 
z
" clip-path="url(#p1a39c117bb)" style="fill: #ff0000; opacity: 0.2"/>
   </g>
   <g id="patch_15">
    <path d="M 420.880738 173.129416 
C 426.318699 173.129416 431.534667 170.968891 435.379886 167.123672 
C 439.225105 163.278453 441.385629 158.062485 441.385629 152.624524 
C 441.385629 147.186563 439.225105 141.970595 435.379886 138.125376 
C 431.534667 134.280157 426.318699 132.119633 420.880738 132.119633 
C 415.442777 132.119633 410.226809 134.280157 406.38159 138.125376 
C 402.536371 141.970595 400.375846 147.186563 400.375846 152.624524 
C 400.375846 158.062485 402.536371 163.278453 406.38159 167.123672 
C 410.226809 170.968891 415.442777 173.129416 420.880738 173.129416 
z
" clip-path="url(#p1a39c117bb)" style="fill: #ff0000; opacity: 0.2"/>
   </g>
   <g id="patch_16">
    <path d="M 376.717893 162.51549 
C 382.155853 162.51549 387.371822 160.354965 391.21704 156.509746 
C 395.062259 152.664527 397.222784 147.448559 397.222784 142.010598 
C 397.222784 136.572638 395.062259 131.35667 391.21704 127.511451 
C 387.371822 123.666232 382.155853 121.505707 376.717893 121.505707 
C 371.279932 121.505707 366.063964 123.666232 362.218745 127.511451 
C 358.373526 131.35667 356.213001 136.572638 356.213001 142.010598 
C 356.213001 147.448559 358.373526 152.664527 362.218745 156.509746 
C 366.063964 160.354965 371.279932 162.51549 376.717893 162.51549 
z
" clip-path="url(#p1a39c117bb)" style="fill: #ff0000; opacity: 0.2"/>
   </g>
   <g id="patch_17">
    <path d="M 302.54847 229.707496 
C 307.98643 229.707496 313.202399 227.546971 317.047618 223.701752 
C 320.892836 219.856533 323.053361 214.640565 323.053361 209.202604 
C 323.053361 203.764643 320.892836 198.548675 317.047618 194.703456 
C 313.202399 190.858237 307.98643 188.697713 302.54847 188.697713 
C 297.110509 188.697713 291.894541 190.858237 288.049322 194.703456 
C 284.204103 198.548675 282.043578 203.764643 282.043578 209.202604 
C 282.043578 214.640565 284.204103 219.856533 288.049322 223.701752 
C 291.894541 227.546971 297.110509 229.707496 302.54847 229.707496 
z
" clip-path="url(#p1a39c117bb)" style="fill: #ff0000; opacity: 0.2"/>
   </g>
   <g id="patch_18">
    <path d="M 303.038906 247.056274 
C 308.476866 247.056274 313.692835 244.895749 317.538053 241.05053 
C 321.383272 237.205311 323.543797 231.989343 323.543797 226.551382 
C 323.543797 221.113421 321.383272 215.897453 317.538053 212.052234 
C 313.692835 208.207015 308.476866 206.046491 303.038906 206.046491 
C 297.600945 206.046491 292.384977 208.207015 288.539758 212.052234 
C 284.694539 215.897453 282.534014 221.113421 282.534014 226.551382 
C 282.534014 231.989343 284.694539 237.205311 288.539758 241.05053 
C 292.384977 244.895749 297.600945 247.056274 303.038906 247.056274 
z
" clip-path="url(#p1a39c117bb)" style="fill: #ff0000; opacity: 0.2"/>
   </g>
   <g id="patch_19">
    <path d="M 367.312596 304.747731 
C 372.750557 304.747731 377.966525 302.587206 381.811744 298.741987 
C 385.656963 294.896768 387.817488 289.6808 387.817488 284.242839 
C 387.817488 278.804878 385.656963 273.58891 381.811744 269.743691 
C 377.966525 265.898472 372.750557 263.737948 367.312596 263.737948 
C 361.874635 263.737948 356.658667 265.898472 352.813448 269.743691 
C 348.96823 273.58891 346.807705 278.804878 346.807705 284.242839 
C 346.807705 289.6808 348.96823 294.896768 352.813448 298.741987 
C 356.658667 302.587206 361.874635 304.747731 367.312596 304.747731 
z
" clip-path="url(#p1a39c117bb)" style="fill: #ff0000; opacity: 0.2"/>
   </g>
   <g id="patch_20">
    <path d="M 421.236269 297.397938 
C 426.67423 297.397938 431.890198 295.237413 435.735417 291.392194 
C 439.580636 287.546975 441.741161 282.331007 441.741161 276.893046 
C 441.741161 271.455085 439.580636 266.239117 435.735417 262.393898 
C 431.890198 258.548679 426.67423 256.388155 421.236269 256.388155 
C 415.798309 256.388155 410.582341 258.548679 406.737122 262.393898 
C 402.891903 266.239117 400.731378 271.455085 400.731378 276.893046 
C 400.731378 282.331007 402.891903 287.546975 406.737122 291.392194 
C 410.582341 295.237413 415.798309 297.397938 421.236269 297.397938 
z
" clip-path="url(#p1a39c117bb)" style="fill: #ff0000; opacity: 0.2"/>
   </g>
   <g id="patch_21">
    <path d="M 319.886041 248.703837 
C 325.324002 248.703837 330.53997 246.543313 334.385189 242.698094 
C 338.230408 238.852875 340.390932 233.636907 340.390932 228.198946 
C 340.390932 222.760985 338.230408 217.545017 334.385189 213.699798 
C 330.53997 209.854579 325.324002 207.694054 319.886041 207.694054 
C 314.44808 207.694054 309.232112 209.854579 305.386893 213.699798 
C 301.541674 217.545017 299.381149 222.760985 299.381149 228.198946 
C 299.381149 233.636907 301.541674 238.852875 305.386893 242.698094 
C 309.232112 246.543313 314.44808 248.703837 319.886041 248.703837 
L 319.886041 248.703837 
z
" clip-path="url(#p1a39c117bb)" style="fill: none; stroke: #ff0000; stroke-width: 2; stroke-linejoin: miter"/>
   </g>
   <g id="patch_22">
    <path d="M 305.586984 182.052664 
C 311.024945 182.052664 316.240913 179.892139 320.086132 176.046921 
C 323.931351 172.201702 326.091876 166.985733 326.091876 161.547773 
C 326.091876 156.109812 323.931351 150.893844 320.086132 147.048625 
C 316.240913 143.203406 311.024945 141.042881 305.586984 141.042881 
C 300.149023 141.042881 294.933055 143.203406 291.087836 147.048625 
C 287.242617 150.893844 285.082092 156.109812 285.082092 161.547773 
C 285.082092 166.985733 287.242617 172.201702 291.087836 176.046921 
C 294.933055 179.892139 300.149023 182.052664 305.586984 182.052664 
L 305.586984 182.052664 
z
" clip-path="url(#p1a39c117bb)" style="fill: none; stroke: #ff0000; stroke-width: 2; stroke-linejoin: miter"/>
   </g>
   <g id="patch_23">
    <path d="M 228.640608 115.918058 
C 234.078569 115.918058 239.294537 113.757533 243.139756 109.912314 
C 246.984975 106.067095 249.145499 100.851127 249.145499 95.413167 
C 249.145499 89.975206 246.984975 84.759238 243.139756 80.914019 
C 239.294537 77.0688 234.078569 74.908275 228.640608 74.908275 
C 223.202647 74.908275 217.986679 77.0688 214.14146 80.914019 
C 210.296241 84.759238 208.135716 89.975206 208.135716 95.413167 
C 208.135716 100.851127 210.296241 106.067095 214.14146 109.912314 
C 217.986679 113.757533 223.202647 115.918058 228.640608 115.918058 
L 228.640608 115.918058 
z
" clip-path="url(#p1a39c117bb)" style="fill: none; stroke: #ff0000; stroke-width: 2; stroke-linejoin: miter"/>
   </g>
   <g id="patch_24">
    <path d="M 182.375068 111.189839 
C 187.813029 111.189839 193.028997 109.029315 196.874216 105.184096 
C 200.719435 101.338877 202.879959 96.122909 202.879959 90.684948 
C 202.879959 85.246987 200.719435 80.031019 196.874216 76.1858 
C 193.028997 72.340581 187.813029 70.180056 182.375068 70.180056 
C 176.937107 70.180056 171.721139 72.340581 167.87592 76.1858 
C 164.030701 80.031019 161.870176 85.246987 161.870176 90.684948 
C 161.870176 96.122909 164.030701 101.338877 167.87592 105.184096 
C 171.721139 109.029315 176.937107 111.189839 182.375068 111.189839 
L 182.375068 111.189839 
z
" clip-path="url(#p1a39c117bb)" style="fill: none; stroke: #ff0000; stroke-width: 2; stroke-linejoin: miter"/>
   </g>
   <g id="patch_25">
    <path d="M 181.663994 131.682398 
C 187.101955 131.682398 192.317923 129.521873 196.163142 125.676654 
C 200.008361 121.831435 202.168886 116.615467 202.168886 111.177506 
C 202.168886 105.739545 200.008361 100.523577 196.163142 96.678358 
C 192.317923 92.833139 187.101955 90.672615 181.663994 90.672615 
C 176.226034 90.672615 171.010066 92.833139 167.164847 96.678358 
C 163.319628 100.523577 161.159103 105.739545 161.159103 111.177506 
C 161.159103 116.615467 163.319628 121.831435 167.164847 125.676654 
C 171.010066 129.521873 176.226034 131.682398 181.663994 131.682398 
L 181.663994 131.682398 
z
" clip-path="url(#p1a39c117bb)" style="fill: none; stroke: #ff0000; stroke-width: 2; stroke-linejoin: miter"/>
   </g>
   <g id="patch_26">
    <path d="M 109.639227 180.033617 
C 115.077188 180.033617 120.293156 177.873092 124.138375 174.027873 
C 127.983594 170.182654 130.144119 164.966686 130.144119 159.528725 
C 130.144119 154.090764 127.983594 148.874796 124.138375 145.029577 
C 120.293156 141.184358 115.077188 139.023834 109.639227 139.023834 
C 104.201266 139.023834 98.985298 141.184358 95.140079 145.029577 
C 91.29486 148.874796 89.134336 154.090764 89.134336 159.528725 
C 89.134336 164.966686 91.29486 170.182654 95.140079 174.027873 
C 98.985298 177.873092 104.201266 180.033617 109.639227 180.033617 
L 109.639227 180.033617 
z
" clip-path="url(#p1a39c117bb)" style="fill: none; stroke: #ff0000; stroke-width: 2; stroke-linejoin: miter"/>
   </g>
   <g id="patch_27">
    <path d="M 79.24825 224.427962 
C 84.686211 224.427962 89.902179 222.267437 93.747398 218.422218 
C 97.592617 214.576999 99.753142 209.361031 99.753142 203.92307 
C 99.753142 198.485109 97.592617 193.269141 93.747398 189.423922 
C 89.902179 185.578703 84.686211 183.418179 79.24825 183.418179 
C 73.810289 183.418179 68.594321 185.578703 64.749102 189.423922 
C 60.903883 193.269141 58.743359 198.485109 58.743359 203.92307 
C 58.743359 209.361031 60.903883 214.576999 64.749102 218.422218 
C 68.594321 222.267437 73.810289 224.427962 79.24825 224.427962 
L 79.24825 224.427962 
z
" clip-path="url(#p1a39c117bb)" style="fill: none; stroke: #ff0000; stroke-width: 2; stroke-linejoin: miter"/>
   </g>
   <g id="patch_28">
    <path d="M 100.842518 297.708161 
C 106.280479 297.708161 111.496447 295.547636 115.341666 291.702418 
C 119.186885 287.857199 121.34741 282.64123 121.34741 277.20327 
C 121.34741 271.765309 119.186885 266.549341 115.341666 262.704122 
C 111.496447 258.858903 106.280479 256.698378 100.842518 256.698378 
C 95.404558 256.698378 90.188589 258.858903 86.343371 262.704122 
C 82.498152 266.549341 80.337627 271.765309 80.337627 277.20327 
C 80.337627 282.64123 82.498152 287.857199 86.343371 291.702418 
C 90.188589 295.547636 95.404558 297.708161 100.842518 297.708161 
L 100.842518 297.708161 
z
" clip-path="url(#p1a39c117bb)" style="fill: none; stroke: #ff0000; stroke-width: 2; stroke-linejoin: miter"/>
   </g>
   <g id="patch_29">
    <path d="M 116.199861 321.858181 
C 121.637821 321.858181 126.853789 319.697657 130.699008 315.852438 
C 134.544227 312.007219 136.704752 306.791251 136.704752 301.35329 
C 136.704752 295.915329 134.544227 290.699361 130.699008 286.854142 
C 126.853789 283.008923 121.637821 280.848398 116.199861 280.848398 
C 110.7619 280.848398 105.545932 283.008923 101.700713 286.854142 
C 97.855494 290.699361 95.694969 295.915329 95.694969 301.35329 
C 95.694969 306.791251 97.855494 312.007219 101.700713 315.852438 
C 105.545932 319.697657 110.7619 321.858181 116.199861 321.858181 
L 116.199861 321.858181 
z
" clip-path="url(#p1a39c117bb)" style="fill: none; stroke: #ff0000; stroke-width: 2; stroke-linejoin: miter"/>
   </g>
   <g id="patch_30">
    <path d="M 208.887813 351.119944 
C 214.325774 351.119944 219.541742 348.959419 223.386961 345.1142 
C 227.23218 341.268981 229.392705 336.053013 229.392705 330.615052 
C 229.392705 325.177091 227.23218 319.961123 223.386961 316.115904 
C 219.541742 312.270685 214.325774 310.110161 208.887813 310.110161 
C 203.449852 310.110161 198.233884 312.270685 194.388665 316.115904 
C 190.543446 319.961123 188.382922 325.177091 188.382922 330.615052 
C 188.382922 336.053013 190.543446 341.268981 194.388665 345.1142 
C 198.233884 348.959419 203.449852 351.119944 208.887813 351.119944 
L 208.887813 351.119944 
z
" clip-path="url(#p1a39c117bb)" style="fill: none; stroke: #ff0000; stroke-width: 2; stroke-linejoin: miter"/>
   </g>
   <g id="patch_31">
    <path d="M 262.33211 342.418173 
C 267.77007 342.418173 272.986039 340.257648 276.831258 336.412429 
C 280.676476 332.56721 282.837001 327.351242 282.837001 321.913282 
C 282.837001 316.475321 280.676476 311.259353 276.831258 307.414134 
C 272.986039 303.568915 267.77007 301.40839 262.33211 301.40839 
C 256.894149 301.40839 251.678181 303.568915 247.832962 307.414134 
C 243.987743 311.259353 241.827218 316.475321 241.827218 321.913282 
C 241.827218 327.351242 243.987743 332.56721 247.832962 336.412429 
C 251.678181 340.257648 256.894149 342.418173 262.33211 342.418173 
L 262.33211 342.418173 
z
" clip-path="url(#p1a39c117bb)" style="fill: none; stroke: #ff0000; stroke-width: 2; stroke-linejoin: miter"/>
   </g>
   <g id="patch_32">
    <path d="M 316.22568 270.251723 
C 321.663641 270.251723 326.879609 268.091199 330.724828 264.24598 
C 334.570047 260.400761 336.730572 255.184793 336.730572 249.746832 
C 336.730572 244.308871 334.570047 239.092903 330.724828 235.247684 
C 326.879609 231.402465 321.663641 229.24194 316.22568 229.24194 
C 310.787719 229.24194 305.571751 231.402465 301.726532 235.247684 
C 297.881313 239.092903 295.720789 244.308871 295.720789 249.746832 
C 295.720789 255.184793 297.881313 260.400761 301.726532 264.24598 
C 305.571751 268.091199 310.787719 270.251723 316.22568 270.251723 
L 316.22568 270.251723 
z
" clip-path="url(#p1a39c117bb)" style="fill: none; stroke: #ff0000; stroke-width: 2; stroke-linejoin: miter"/>
   </g>
   <g id="patch_33">
    <path d="M 446.720783 232.650192 
C 452.158744 232.650192 457.374712 230.489668 461.219931 226.644449 
C 465.06515 222.79923 467.225675 217.583262 467.225675 212.145301 
C 467.225675 206.70734 465.06515 201.491372 461.219931 197.646153 
C 457.374712 193.800934 452.158744 191.640409 446.720783 191.640409 
C 441.282822 191.640409 436.066854 193.800934 432.221635 197.646153 
C 428.376416 201.491372 426.215892 206.70734 426.215892 212.145301 
C 426.215892 217.583262 428.376416 222.79923 432.221635 226.644449 
C 436.066854 230.489668 441.282822 232.650192 446.720783 232.650192 
L 446.720783 232.650192 
z
" clip-path="url(#p1a39c117bb)" style="fill: none; stroke: #ff0000; stroke-width: 2; stroke-linejoin: miter"/>
   </g>
   <g id="patch_34">
    <path d="M 420.880738 173.129416 
C 426.318699 173.129416 431.534667 170.968891 435.379886 167.123672 
C 439.225105 163.278453 441.385629 158.062485 441.385629 152.624524 
C 441.385629 147.186563 439.225105 141.970595 435.379886 138.125376 
C 431.534667 134.280157 426.318699 132.119633 420.880738 132.119633 
C 415.442777 132.119633 410.226809 134.280157 406.38159 138.125376 
C 402.536371 141.970595 400.375846 147.186563 400.375846 152.624524 
C 400.375846 158.062485 402.536371 163.278453 406.38159 167.123672 
C 410.226809 170.968891 415.442777 173.129416 420.880738 173.129416 
L 420.880738 173.129416 
z
" clip-path="url(#p1a39c117bb)" style="fill: none; stroke: #ff0000; stroke-width: 2; stroke-linejoin: miter"/>
   </g>
   <g id="patch_35">
    <path d="M 376.717893 162.51549 
C 382.155853 162.51549 387.371822 160.354965 391.21704 156.509746 
C 395.062259 152.664527 397.222784 147.448559 397.222784 142.010598 
C 397.222784 136.572638 395.062259 131.35667 391.21704 127.511451 
C 387.371822 123.666232 382.155853 121.505707 376.717893 121.505707 
C 371.279932 121.505707 366.063964 123.666232 362.218745 127.511451 
C 358.373526 131.35667 356.213001 136.572638 356.213001 142.010598 
C 356.213001 147.448559 358.373526 152.664527 362.218745 156.509746 
C 366.063964 160.354965 371.279932 162.51549 376.717893 162.51549 
L 376.717893 162.51549 
z
" clip-path="url(#p1a39c117bb)" style="fill: none; stroke: #ff0000; stroke-width: 2; stroke-linejoin: miter"/>
   </g>
   <g id="patch_36">
    <path d="M 302.54847 229.707496 
C 307.98643 229.707496 313.202399 227.546971 317.047618 223.701752 
C 320.892836 219.856533 323.053361 214.640565 323.053361 209.202604 
C 323.053361 203.764643 320.892836 198.548675 317.047618 194.703456 
C 313.202399 190.858237 307.98643 188.697713 302.54847 188.697713 
C 297.110509 188.697713 291.894541 190.858237 288.049322 194.703456 
C 284.204103 198.548675 282.043578 203.764643 282.043578 209.202604 
C 282.043578 214.640565 284.204103 219.856533 288.049322 223.701752 
C 291.894541 227.546971 297.110509 229.707496 302.54847 229.707496 
L 302.54847 229.707496 
z
" clip-path="url(#p1a39c117bb)" style="fill: none; stroke: #ff0000; stroke-width: 2; stroke-linejoin: miter"/>
   </g>
   <g id="patch_37">
    <path d="M 303.038906 247.056274 
C 308.476866 247.056274 313.692835 244.895749 317.538053 241.05053 
C 321.383272 237.205311 323.543797 231.989343 323.543797 226.551382 
C 323.543797 221.113421 321.383272 215.897453 317.538053 212.052234 
C 313.692835 208.207015 308.476866 206.046491 303.038906 206.046491 
C 297.600945 206.046491 292.384977 208.207015 288.539758 212.052234 
C 284.694539 215.897453 282.534014 221.113421 282.534014 226.551382 
C 282.534014 231.989343 284.694539 237.205311 288.539758 241.05053 
C 292.384977 244.895749 297.600945 247.056274 303.038906 247.056274 
L 303.038906 247.056274 
z
" clip-path="url(#p1a39c117bb)" style="fill: none; stroke: #ff0000; stroke-width: 2; stroke-linejoin: miter"/>
   </g>
   <g id="patch_38">
    <path d="M 367.312596 304.747731 
C 372.750557 304.747731 377.966525 302.587206 381.811744 298.741987 
C 385.656963 294.896768 387.817488 289.6808 387.817488 284.242839 
C 387.817488 278.804878 385.656963 273.58891 381.811744 269.743691 
C 377.966525 265.898472 372.750557 263.737948 367.312596 263.737948 
C 361.874635 263.737948 356.658667 265.898472 352.813448 269.743691 
C 348.96823 273.58891 346.807705 278.804878 346.807705 284.242839 
C 346.807705 289.6808 348.96823 294.896768 352.813448 298.741987 
C 356.658667 302.587206 361.874635 304.747731 367.312596 304.747731 
L 367.312596 304.747731 
z
" clip-path="url(#p1a39c117bb)" style="fill: none; stroke: #ff0000; stroke-width: 2; stroke-linejoin: miter"/>
   </g>
   <g id="patch_39">
    <path d="M 421.236269 297.397938 
C 426.67423 297.397938 431.890198 295.237413 435.735417 291.392194 
C 439.580636 287.546975 441.741161 282.331007 441.741161 276.893046 
C 441.741161 271.455085 439.580636 266.239117 435.735417 262.393898 
C 431.890198 258.548679 426.67423 256.388155 421.236269 256.388155 
C 415.798309 256.388155 410.582341 258.548679 406.737122 262.393898 
C 402.891903 266.239117 400.731378 271.455085 400.731378 276.893046 
C 400.731378 282.331007 402.891903 287.546975 406.737122 291.392194 
C 410.582341 295.237413 415.798309 297.397938 421.236269 297.397938 
L 421.236269 297.397938 
z
" clip-path="url(#p1a39c117bb)" style="fill: none; stroke: #ff0000; stroke-width: 2; stroke-linejoin: miter"/>
   </g>
   <g id="line2d_1">
    <path d="M 319.886041 228.198946 
L 303.038906 226.551382 
" clip-path="url(#p1a39c117bb)" style="fill: none; stroke: #000000; stroke-width: 2; stroke-linecap: square"/>
   </g>
   <g id="line2d_2">
    <path d="M 182.375068 90.684948 
L 181.663994 111.177506 
" clip-path="url(#p1a39c117bb)" style="fill: none; stroke: #000000; stroke-width: 2; stroke-linecap: square"/>
   </g>
   <g id="line2d_3">
    <path d="M 302.54847 209.202604 
L 303.038906 226.551382 
" clip-path="url(#p1a39c117bb)" style="fill: none; stroke: #000000; stroke-width: 2; stroke-linecap: square"/>
   </g>
   <g id="PathCollection_2">
    <defs>
     <path id="m96a8855a48" d="M 0 3 
C 0.795609 3 1.55874 2.683901 2.12132 2.12132 
C 2.683901 1.55874 3 0.795609 3 0 
C 3 -0.795609 2.683901 -1.55874 2.12132 -2.12132 
C 1.55874 -2.683901 0.795609 -3 0 -3 
C -0.795609 -3 -1.55874 -2.683901 -2.12132 -2.12132 
C -2.683901 -1.55874 -3 -0.795609 -3 0 
C -3 0.795609 -2.683901 1.55874 -2.12132 2.12132 
C -1.55874 2.683901 -0.795609 3 0 3 
z
" style="stroke: #0000ff"/>
    </defs>
    <g clip-path="url(#p1a39c117bb)">
     <use xlink:href="#m96a8855a48" x="319.886041" y="228.198946" style="fill: #0000ff; stroke: #0000ff"/>
     <use xlink:href="#m96a8855a48" x="305.586984" y="161.547773" style="fill: #0000ff; stroke: #0000ff"/>
     <use xlink:href="#m96a8855a48" x="228.640608" y="95.413167" style="fill: #0000ff; stroke: #0000ff"/>
     <use xlink:href="#m96a8855a48" x="182.375068" y="90.684948" style="fill: #0000ff; stroke: #0000ff"/>
     <use xlink:href="#m96a8855a48" x="181.663994" y="111.177506" style="fill: #0000ff; stroke: #0000ff"/>
     <use xlink:href="#m96a8855a48" x="109.639227" y="159.528725" style="fill: #0000ff; stroke: #0000ff"/>
     <use xlink:href="#m96a8855a48" x="79.24825" y="203.92307" style="fill: #0000ff; stroke: #0000ff"/>
     <use xlink:href="#m96a8855a48" x="100.842518" y="277.20327" style="fill: #0000ff; stroke: #0000ff"/>
     <use xlink:href="#m96a8855a48" x="116.199861" y="301.35329" style="fill: #0000ff; stroke: #0000ff"/>
     <use xlink:href="#m96a8855a48" x="208.887813" y="330.615052" style="fill: #0000ff; stroke: #0000ff"/>
     <use xlink:href="#m96a8855a48" x="262.33211" y="321.913282" style="fill: #0000ff; stroke: #0000ff"/>
     <use xlink:href="#m96a8855a48" x="316.22568" y="249.746832" style="fill: #0000ff; stroke: #0000ff"/>
     <use xlink:href="#m96a8855a48" x="446.720783" y="212.145301" style="fill: #0000ff; stroke: #0000ff"/>
     <use xlink:href="#m96a8855a48" x="420.880738" y="152.624524" style="fill: #0000ff; stroke: #0000ff"/>
     <use xlink:href="#m96a8855a48" x="376.717893" y="142.010598" style="fill: #0000ff; stroke: #0000ff"/>
     <use xlink:href="#m96a8855a48" x="302.54847" y="209.202604" style="fill: #0000ff; stroke: #0000ff"/>
     <use xlink:href="#m96a8855a48" x="303.038906" y="226.551382" style="fill: #0000ff; stroke: #0000ff"/>
     <use xlink:href="#m96a8855a48" x="367.312596" y="284.242839" style="fill: #0000ff; stroke: #0000ff"/>
     <use xlink:href="#m96a8855a48" x="421.236269" y="276.893046" style="fill: #0000ff; stroke: #0000ff"/>
    </g>
   </g>
  </g>
  <g id="axes_2">
   <g id="patch_40">
    <path d="M 554.030967 414.1 
L 1065.6 414.1 
L 1065.6 7.2 
L 554.030967 7.2 
z
" style="fill: #ffffff"/>
   </g>
   <g id="matplotlib.axis_1">
    <g id="xtick_1">
     <g id="line2d_4">
      <defs>
       <path id="m47f0b42162" d="M 0 0 
L 0 3.5 
" style="stroke: #000000; stroke-width: 0.8"/>
      </defs>
      <g>
       <use xlink:href="#m47f0b42162" x="567.49331" y="414.1" style="stroke: #000000; stroke-width: 0.8"/>
      </g>
     </g>
    </g>
    <g id="xtick_2">
     <g id="line2d_5">
      <g>
       <use xlink:href="#m47f0b42162" x="594.417996" y="414.1" style="stroke: #000000; stroke-width: 0.8"/>
      </g>
     </g>
    </g>
    <g id="xtick_3">
     <g id="line2d_6">
      <g>
       <use xlink:href="#m47f0b42162" x="621.342682" y="414.1" style="stroke: #000000; stroke-width: 0.8"/>
      </g>
     </g>
    </g>
    <g id="xtick_4">
     <g id="line2d_7">
      <g>
       <use xlink:href="#m47f0b42162" x="648.267368" y="414.1" style="stroke: #000000; stroke-width: 0.8"/>
      </g>
     </g>
    </g>
    <g id="xtick_5">
     <g id="line2d_8">
      <g>
       <use xlink:href="#m47f0b42162" x="675.192054" y="414.1" style="stroke: #000000; stroke-width: 0.8"/>
      </g>
     </g>
    </g>
    <g id="xtick_6">
     <g id="line2d_9">
      <g>
       <use xlink:href="#m47f0b42162" x="702.11674" y="414.1" style="stroke: #000000; stroke-width: 0.8"/>
      </g>
     </g>
    </g>
    <g id="xtick_7">
     <g id="line2d_10">
      <g>
       <use xlink:href="#m47f0b42162" x="729.041426" y="414.1" style="stroke: #000000; stroke-width: 0.8"/>
      </g>
     </g>
    </g>
    <g id="xtick_8">
     <g id="line2d_11">
      <g>
       <use xlink:href="#m47f0b42162" x="755.966111" y="414.1" style="stroke: #000000; stroke-width: 0.8"/>
      </g>
     </g>
    </g>
    <g id="xtick_9">
     <g id="line2d_12">
      <g>
       <use xlink:href="#m47f0b42162" x="782.890797" y="414.1" style="stroke: #000000; stroke-width: 0.8"/>
      </g>
     </g>
    </g>
    <g id="xtick_10">
     <g id="line2d_13">
      <g>
       <use xlink:href="#m47f0b42162" x="809.815483" y="414.1" style="stroke: #000000; stroke-width: 0.8"/>
      </g>
     </g>
    </g>
    <g id="xtick_11">
     <g id="line2d_14">
      <g>
       <use xlink:href="#m47f0b42162" x="836.740169" y="414.1" style="stroke: #000000; stroke-width: 0.8"/>
      </g>
     </g>
    </g>
    <g id="xtick_12">
     <g id="line2d_15">
      <g>
       <use xlink:href="#m47f0b42162" x="863.664855" y="414.1" style="stroke: #000000; stroke-width: 0.8"/>
      </g>
     </g>
    </g>
    <g id="xtick_13">
     <g id="line2d_16">
      <g>
       <use xlink:href="#m47f0b42162" x="890.589541" y="414.1" style="stroke: #000000; stroke-width: 0.8"/>
      </g>
     </g>
    </g>
    <g id="xtick_14">
     <g id="line2d_17">
      <g>
       <use xlink:href="#m47f0b42162" x="917.514227" y="414.1" style="stroke: #000000; stroke-width: 0.8"/>
      </g>
     </g>
    </g>
    <g id="xtick_15">
     <g id="line2d_18">
      <g>
       <use xlink:href="#m47f0b42162" x="944.438913" y="414.1" style="stroke: #000000; stroke-width: 0.8"/>
      </g>
     </g>
    </g>
    <g id="xtick_16">
     <g id="line2d_19">
      <g>
       <use xlink:href="#m47f0b42162" x="971.363599" y="414.1" style="stroke: #000000; stroke-width: 0.8"/>
      </g>
     </g>
    </g>
    <g id="xtick_17">
     <g id="line2d_20">
      <g>
       <use xlink:href="#m47f0b42162" x="998.288285" y="414.1" style="stroke: #000000; stroke-width: 0.8"/>
      </g>
     </g>
    </g>
    <g id="xtick_18">
     <g id="line2d_21">
      <g>
       <use xlink:href="#m47f0b42162" x="1025.212971" y="414.1" style="stroke: #000000; stroke-width: 0.8"/>
      </g>
     </g>
    </g>
    <g id="xtick_19">
     <g id="line2d_22">
      <g>
       <use xlink:href="#m47f0b42162" x="1052.137657" y="414.1" style="stroke: #000000; stroke-width: 0.8"/>
      </g>
     </g>
    </g>
   </g>
   <g id="matplotlib.axis_2">
    <g id="ytick_1">
     <g id="line2d_23">
      <defs>
       <path id="m463ba5d30a" d="M 0 0 
L -3.5 0 
" style="stroke: #000000; stroke-width: 0.8"/>
      </defs>
      <g>
       <use xlink:href="#m463ba5d30a" x="554.030967" y="341.680163" style="stroke: #000000; stroke-width: 0.8"/>
      </g>
     </g>
     <g id="text_1">
      <!-- $r_{3}$ -->
      <g transform="translate(529.230967 349.2786) scale(0.2 -0.2)">
       <defs>
        <path id="DejaVuSans-Oblique-72" d="M 2853 2969 
Q 2766 3016 2653 3041 
Q 2541 3066 2413 3066 
Q 1953 3066 1609 2717 
Q 1266 2369 1153 1784 
L 800 0 
L 225 0 
L 909 3500 
L 1484 3500 
L 1375 2956 
Q 1603 3259 1920 3421 
Q 2238 3584 2597 3584 
Q 2691 3584 2781 3573 
Q 2872 3563 2963 3538 
L 2853 2969 
z
" transform="scale(0.015625)"/>
        <path id="DejaVuSans-33" d="M 2597 2516 
Q 3050 2419 3304 2112 
Q 3559 1806 3559 1356 
Q 3559 666 3084 287 
Q 2609 -91 1734 -91 
Q 1441 -91 1130 -33 
Q 819 25 488 141 
L 488 750 
Q 750 597 1062 519 
Q 1375 441 1716 441 
Q 2309 441 2620 675 
Q 2931 909 2931 1356 
Q 2931 1769 2642 2001 
Q 2353 2234 1838 2234 
L 1294 2234 
L 1294 2753 
L 1863 2753 
Q 2328 2753 2575 2939 
Q 2822 3125 2822 3475 
Q 2822 3834 2567 4026 
Q 2313 4219 1838 4219 
Q 1578 4219 1281 4162 
Q 984 4106 628 3988 
L 628 4550 
Q 988 4650 1302 4700 
Q 1616 4750 1894 4750 
Q 2613 4750 3031 4423 
Q 3450 4097 3450 3541 
Q 3450 3153 3228 2886 
Q 3006 2619 2597 2516 
z
" transform="scale(0.015625)"/>
       </defs>
       <use xlink:href="#DejaVuSans-Oblique-72"/>
       <use xlink:href="#DejaVuSans-33" transform="translate(41.113281 -16.40625) scale(0.7)"/>
      </g>
     </g>
    </g>
   </g>
   <g id="line2d_24">
    <path d="M 594.417996 414.1 
L 594.417996 341.680163 
L 621.342682 341.680163 
L 621.342682 414.1 
" clip-path="url(#p276b8a8917)" style="fill: none; stroke: #ff0000; stroke-width: 5; stroke-linecap: square"/>
   </g>
   <g id="line2d_25">
    <path d="M 890.589541 414.1 
L 890.589541 354.314891 
L 917.514227 354.314891 
L 917.514227 414.1 
" clip-path="url(#p276b8a8917)" style="fill: none; stroke: #ff0000; stroke-width: 5; stroke-linecap: square"/>
   </g>
   <g id="line2d_26">
    <path d="M 863.664855 414.1 
L 863.664855 352.802549 
L 904.051884 352.802549 
L 904.051884 354.314891 
" clip-path="url(#p276b8a8917)" style="fill: none; stroke: #ff0000; stroke-width: 5; stroke-linecap: square"/>
   </g>
   <g id="line2d_27">
    <path d="M 567.49331 414.1 
L 567.49331 341.680163 
" clip-path="url(#p276b8a8917)" style="fill: none; stroke: #ff0000; stroke-width: 5; stroke-linecap: square"/>
   </g>
   <g id="line2d_28">
    <path d="M 648.267368 414.1 
L 648.267368 341.680163 
" clip-path="url(#p276b8a8917)" style="fill: none; stroke: #ff0000; stroke-width: 5; stroke-linecap: square"/>
   </g>
   <g id="line2d_29">
    <path d="M 675.192054 414.1 
L 675.192054 341.680163 
" clip-path="url(#p276b8a8917)" style="fill: none; stroke: #ff0000; stroke-width: 5; stroke-linecap: square"/>
   </g>
   <g id="line2d_30">
    <path d="M 702.11674 414.1 
L 702.11674 341.680163 
" clip-path="url(#p276b8a8917)" style="fill: none; stroke: #ff0000; stroke-width: 5; stroke-linecap: square"/>
   </g>
   <g id="line2d_31">
    <path d="M 729.041426 414.1 
L 729.041426 341.680163 
" clip-path="url(#p276b8a8917)" style="fill: none; stroke: #ff0000; stroke-width: 5; stroke-linecap: square"/>
   </g>
   <g id="line2d_32">
    <path d="M 755.966111 414.1 
L 755.966111 341.680163 
" clip-path="url(#p276b8a8917)" style="fill: none; stroke: #ff0000; stroke-width: 5; stroke-linecap: square"/>
   </g>
   <g id="line2d_33">
    <path d="M 782.890797 414.1 
L 782.890797 341.680163 
" clip-path="url(#p276b8a8917)" style="fill: none; stroke: #ff0000; stroke-width: 5; stroke-linecap: square"/>
   </g>
   <g id="line2d_34">
    <path d="M 836.740169 414.1 
L 836.740169 341.680163 
" clip-path="url(#p276b8a8917)" style="fill: none; stroke: #ff0000; stroke-width: 5; stroke-linecap: square"/>
   </g>
   <g id="line2d_35">
    <path d="M 809.815483 414.1 
L 809.815483 341.680163 
" clip-path="url(#p276b8a8917)" style="fill: none; stroke: #ff0000; stroke-width: 5; stroke-linecap: square"/>
   </g>
   <g id="line2d_36">
    <path d="M 944.438913 414.1 
L 944.438913 341.680163 
" clip-path="url(#p276b8a8917)" style="fill: none; stroke: #ff0000; stroke-width: 5; stroke-linecap: square"/>
   </g>
   <g id="line2d_37">
    <path d="M 971.363599 414.1 
L 971.363599 341.680163 
" clip-path="url(#p276b8a8917)" style="fill: none; stroke: #ff0000; stroke-width: 5; stroke-linecap: square"/>
   </g>
   <g id="line2d_38">
    <path d="M 1025.212971 414.1 
L 1025.212971 341.680163 
" clip-path="url(#p276b8a8917)" style="fill: none; stroke: #ff0000; stroke-width: 5; stroke-linecap: square"/>
   </g>
   <g id="line2d_39">
    <path d="M 1052.137657 414.1 
L 1052.137657 341.680163 
" clip-path="url(#p276b8a8917)" style="fill: none; stroke: #ff0000; stroke-width: 5; stroke-linecap: square"/>
   </g>
   <g id="line2d_40">
    <path d="M 998.288285 414.1 
L 998.288285 341.680163 
" clip-path="url(#p276b8a8917)" style="fill: none; stroke: #ff0000; stroke-width: 5; stroke-linecap: square"/>
   </g>
   <g id="line2d_41">
    <path d="M 607.880339 341.680163 
L 607.880339 341.680163 
" clip-path="url(#p276b8a8917)" style="fill: none; stroke: #ff0000; stroke-width: 5; stroke-linecap: square"/>
   </g>
   <g id="line2d_42">
    <path d="M 883.85837 352.802549 
L 883.85837 341.680163 
" clip-path="url(#p276b8a8917)" style="fill: none; stroke: #ff0000; stroke-width: 5; stroke-linecap: square"/>
   </g>
   <g id="patch_41">
    <path d="M 554.030967 414.1 
L 554.030967 7.2 
" style="fill: none; stroke: #000000; stroke-width: 0.8; stroke-linejoin: miter; stroke-linecap: square"/>
   </g>
   <g id="patch_42">
    <path d="M 1065.6 414.1 
L 1065.6 7.2 
" style="fill: none; stroke: #000000; stroke-width: 0.8; stroke-linejoin: miter; stroke-linecap: square"/>
   </g>
   <g id="patch_43">
    <path d="M 554.030967 414.1 
L 1065.6 414.1 
" style="fill: none; stroke: #000000; stroke-width: 0.8; stroke-linejoin: miter; stroke-linecap: square"/>
   </g>
   <g id="patch_44">
    <path d="M 554.030967 7.2 
L 1065.6 7.2 
" style="fill: none; stroke: #000000; stroke-width: 0.8; stroke-linejoin: miter; stroke-linecap: square"/>
   </g>
   <g id="PathCollection_3">
    <defs>
     <path id="mb576ea1c6a" d="M 0 6.123724 
C 1.624031 6.123724 3.181764 5.47849 4.330127 4.330127 
C 5.47849 3.181764 6.123724 1.624031 6.123724 0 
C 6.123724 -1.624031 5.47849 -3.181764 4.330127 -4.330127 
C 3.181764 -5.47849 1.624031 -6.123724 0 -6.123724 
C -1.624031 -6.123724 -3.181764 -5.47849 -4.330127 -4.330127 
C -5.47849 -3.181764 -6.123724 -1.624031 -6.123724 0 
C -6.123724 1.624031 -5.47849 3.181764 -4.330127 4.330127 
C -3.181764 5.47849 -1.624031 6.123724 0 6.123724 
z
" style="stroke: #0000ff"/>
    </defs>
    <g clip-path="url(#p276b8a8917)">
     <use xlink:href="#mb576ea1c6a" x="567.49331" y="414.1" style="fill: #0000ff; stroke: #0000ff"/>
     <use xlink:href="#mb576ea1c6a" x="594.417996" y="414.1" style="fill: #0000ff; stroke: #0000ff"/>
     <use xlink:href="#mb576ea1c6a" x="621.342682" y="414.1" style="fill: #0000ff; stroke: #0000ff"/>
     <use xlink:href="#mb576ea1c6a" x="648.267368" y="414.1" style="fill: #0000ff; stroke: #0000ff"/>
     <use xlink:href="#mb576ea1c6a" x="675.192054" y="414.1" style="fill: #0000ff; stroke: #0000ff"/>
     <use xlink:href="#mb576ea1c6a" x="702.11674" y="414.1" style="fill: #0000ff; stroke: #0000ff"/>
     <use xlink:href="#mb576ea1c6a" x="729.041426" y="414.1" style="fill: #0000ff; stroke: #0000ff"/>
     <use xlink:href="#mb576ea1c6a" x="755.966111" y="414.1" style="fill: #0000ff; stroke: #0000ff"/>
     <use xlink:href="#mb576ea1c6a" x="782.890797" y="414.1" style="fill: #0000ff; stroke: #0000ff"/>
     <use xlink:href="#mb576ea1c6a" x="809.815483" y="414.1" style="fill: #0000ff; stroke: #0000ff"/>
     <use xlink:href="#mb576ea1c6a" x="836.740169" y="414.1" style="fill: #0000ff; stroke: #0000ff"/>
     <use xlink:href="#mb576ea1c6a" x="863.664855" y="414.1" style="fill: #0000ff; stroke: #0000ff"/>
     <use xlink:href="#mb576ea1c6a" x="890.589541" y="414.1" style="fill: #0000ff; stroke: #0000ff"/>
     <use xlink:href="#mb576ea1c6a" x="917.514227" y="414.1" style="fill: #0000ff; stroke: #0000ff"/>
     <use xlink:href="#mb576ea1c6a" x="944.438913" y="414.1" style="fill: #0000ff; stroke: #0000ff"/>
     <use xlink:href="#mb576ea1c6a" x="971.363599" y="414.1" style="fill: #0000ff; stroke: #0000ff"/>
     <use xlink:href="#mb576ea1c6a" x="998.288285" y="414.1" style="fill: #0000ff; stroke: #0000ff"/>
     <use xlink:href="#mb576ea1c6a" x="1025.212971" y="414.1" style="fill: #0000ff; stroke: #0000ff"/>
     <use xlink:href="#mb576ea1c6a" x="1052.137657" y="414.1" style="fill: #0000ff; stroke: #0000ff"/>
    </g>
   </g>
  </g>
 </g>
 <defs>
  <clipPath id="p1a39c117bb">
   <rect x="7.2" y="18.636698" width="511.569033" height="384.026605"/>
  </clipPath>
  <clipPath id="p276b8a8917">
   <rect x="554.030967" y="7.2" width="511.569033" height="406.9"/>
  </clipPath>
 </defs>
</svg>
