<?xml version="1.0" encoding="UTF-8"?>
<svg xmlns="http://www.w3.org/2000/svg" xmlns:xlink="http://www.w3.org/1999/xlink" width="112.673pt" height="72.988pt" viewBox="0 0 112.673 72.988" version="1.1">
<defs>
<clipPath id="clip1">
  <path d="M 96 3 L 112.671875 3 L 112.671875 19 L 96 19 Z M 96 3 "/>
</clipPath>
<clipPath id="clip2">
  <path d="M 9 60 L 25 60 L 25 72.988281 L 9 72.988281 Z M 9 60 "/>
</clipPath>
<clipPath id="clip3">
  <path d="M 99 48 L 112.671875 48 L 112.671875 64 L 99 64 Z M 99 48 "/>
</clipPath>
<clipPath id="clip4">
  <path d="M 96 23 L 112.671875 23 L 112.671875 39 L 96 39 Z M 96 23 "/>
</clipPath>
<clipPath id="clip5">
  <path d="M 0 28 L 31 28 L 31 72.988281 L 0 72.988281 Z M 0 28 "/>
</clipPath>
<clipPath id="clip6">
  <path d="M 5 28 L 45 28 L 45 72.988281 L 5 72.988281 Z M 5 28 "/>
</clipPath>
<clipPath id="clip7">
  <path d="M 45 28 L 112.671875 28 L 112.671875 72.988281 L 45 72.988281 Z M 45 28 "/>
</clipPath>
<clipPath id="clip8">
  <path d="M 36 0 L 112.671875 0 L 112.671875 51 L 36 51 Z M 36 0 "/>
</clipPath>
<clipPath id="clip9">
  <path d="M 96 3 L 112.671875 3 L 112.671875 19 L 96 19 Z M 96 3 "/>
</clipPath>
<clipPath id="clip10">
  <path d="M 9 60 L 25 60 L 25 72.988281 L 9 72.988281 Z M 9 60 "/>
</clipPath>
<clipPath id="clip11">
  <path d="M 99 48 L 112.671875 48 L 112.671875 64 L 99 64 Z M 99 48 "/>
</clipPath>
<clipPath id="clip12">
  <path d="M 96 23 L 112.671875 23 L 112.671875 39 L 96 39 Z M 96 23 "/>
</clipPath>
</defs>
<g id="surface1">
<path style=" stroke:none;fill-rule:nonzero;fill:rgb(0%,0%,0%);fill-opacity:1;" d="M 106.519531 10.980469 C 106.519531 9.882812 105.625 8.988281 104.527344 8.988281 C 103.425781 8.988281 102.535156 9.882812 102.535156 10.980469 C 102.535156 12.082031 103.425781 12.972656 104.527344 12.972656 C 105.625 12.972656 106.519531 12.082031 106.519531 10.980469 Z M 106.519531 10.980469 "/>
<g clip-path="url(#clip1)" clip-rule="nonzero">
<path style="fill:none;stroke-width:0.3985;stroke-linecap:butt;stroke-linejoin:miter;stroke:rgb(0%,0%,0%);stroke-opacity:1;stroke-miterlimit:10;" d="M 1.993531 0.00153125 C 1.993531 1.099187 1.099 1.993719 0.00134375 1.993719 C -1.100219 1.993719 -1.990844 1.099187 -1.990844 0.00153125 C -1.990844 -1.100031 -1.100219 -1.990656 0.00134375 -1.990656 C 1.099 -1.990656 1.993531 -1.100031 1.993531 0.00153125 Z M 1.993531 0.00153125 " transform="matrix(1,0,0,-1,104.526,10.982)"/>
</g>
<path style="fill-rule:nonzero;fill:rgb(0%,0%,0%);fill-opacity:1;stroke-width:0.3985;stroke-linecap:butt;stroke-linejoin:miter;stroke:rgb(0%,0%,0%);stroke-opacity:1;stroke-miterlimit:10;" d="M 1.991688 0.0005 C 1.991688 1.102062 1.101063 1.992687 -0.0005 1.992687 C -1.102062 1.992687 -1.992687 1.102062 -1.992687 0.0005 C -1.992687 -1.101063 -1.102062 -1.991688 -0.0005 -1.991688 C 1.101063 -1.991688 1.991688 -1.101063 1.991688 0.0005 Z M 1.991688 0.0005 " transform="matrix(1,0,0,-1,5.313,5.313)"/>
<path style="fill-rule:nonzero;fill:rgb(0%,0%,0%);fill-opacity:1;stroke-width:0.3985;stroke-linecap:butt;stroke-linejoin:miter;stroke:rgb(0%,0%,0%);stroke-opacity:1;stroke-miterlimit:10;" d="M 1.994469 0.0006875 C 1.994469 1.10225 1.099937 1.992875 -0.001625 1.992875 C -1.099281 1.992875 -1.993813 1.10225 -1.993813 0.0006875 C -1.993813 -1.100875 -1.099281 -1.9915 -0.001625 -1.9915 C 1.099937 -1.9915 1.994469 -1.100875 1.994469 0.0006875 Z M 1.994469 0.0006875 " transform="matrix(1,0,0,-1,19.486,22.321)"/>
<path style="fill-rule:nonzero;fill:rgb(0%,0%,0%);fill-opacity:1;stroke-width:0.3985;stroke-linecap:butt;stroke-linejoin:miter;stroke:rgb(0%,0%,0%);stroke-opacity:1;stroke-miterlimit:10;" d="M 1.991688 -0.0018125 C 1.991688 1.09975 1.101063 1.994281 -0.0005 1.994281 C -1.102062 1.994281 -1.992687 1.09975 -1.992687 -0.0018125 C -1.992687 -1.099469 -1.102062 -1.994 -0.0005 -1.994 C 1.101063 -1.994 1.991688 -1.099469 1.991688 -0.0018125 Z M 1.991688 -0.0018125 " transform="matrix(1,0,0,-1,5.313,62.006)"/>
<path style="fill-rule:nonzero;fill:rgb(0%,0%,0%);fill-opacity:1;stroke-width:0.3985;stroke-linecap:butt;stroke-linejoin:miter;stroke:rgb(0%,0%,0%);stroke-opacity:1;stroke-miterlimit:10;" d="M 1.994469 0.000875 C 1.994469 1.098531 1.099937 1.993062 -0.001625 1.993062 C -1.099281 1.993062 -1.993813 1.098531 -1.993813 0.000875 C -1.993813 -1.100688 -1.099281 -1.991313 -0.001625 -1.991313 C 1.099937 -1.991313 1.994469 -1.100688 1.994469 0.000875 Z M 1.994469 0.000875 " transform="matrix(1,0,0,-1,19.486,39.329)"/>
<path style=" stroke:none;fill-rule:nonzero;fill:rgb(0%,0%,0%);fill-opacity:1;" d="M 18.644531 67.675781 C 18.644531 66.574219 17.75 65.683594 16.652344 65.683594 C 15.550781 65.683594 14.660156 66.574219 14.660156 67.675781 C 14.660156 68.777344 15.550781 69.667969 16.652344 69.667969 C 17.75 69.667969 18.644531 68.777344 18.644531 67.675781 Z M 18.644531 67.675781 "/>
<g clip-path="url(#clip2)" clip-rule="nonzero">
<path style="fill:none;stroke-width:0.3985;stroke-linecap:butt;stroke-linejoin:miter;stroke:rgb(0%,0%,0%);stroke-opacity:1;stroke-miterlimit:10;" d="M 1.993531 -0.00078125 C 1.993531 1.100781 1.099 1.991406 0.00134375 1.991406 C -1.100219 1.991406 -1.990844 1.100781 -1.990844 -0.00078125 C -1.990844 -1.102344 -1.100219 -1.992969 0.00134375 -1.992969 C 1.099 -1.992969 1.993531 -1.102344 1.993531 -0.00078125 Z M 1.993531 -0.00078125 " transform="matrix(1,0,0,-1,16.651,67.675)"/>
</g>
<path style="fill-rule:nonzero;fill:rgb(0%,0%,0%);fill-opacity:1;stroke-width:0.3985;stroke-linecap:butt;stroke-linejoin:miter;stroke:rgb(0%,0%,0%);stroke-opacity:1;stroke-miterlimit:10;" d="M 1.993344 0.001625 C 1.993344 1.099281 1.098813 1.993812 0.00115625 1.993812 C -1.100406 1.993812 -1.991031 1.099281 -1.991031 0.001625 C -1.991031 -1.099938 -1.100406 -1.994469 0.00115625 -1.994469 C 1.098813 -1.994469 1.993344 -1.099938 1.993344 0.001625 Z M 1.993344 0.001625 " transform="matrix(1,0,0,-1,33.659,19.486)"/>
<path style="fill-rule:nonzero;fill:rgb(0%,0%,0%);fill-opacity:1;stroke-width:0.3985;stroke-linecap:butt;stroke-linejoin:miter;stroke:rgb(0%,0%,0%);stroke-opacity:1;stroke-miterlimit:10;" d="M 1.993344 -0.0018125 C 1.993344 1.09975 1.098813 1.994281 0.00115625 1.994281 C -1.100406 1.994281 -1.991031 1.09975 -1.991031 -0.0018125 C -1.991031 -1.099469 -1.100406 -1.994 0.00115625 -1.994 C 1.098813 -1.994 1.993344 -1.099469 1.993344 -0.0018125 Z M 1.993344 -0.0018125 " transform="matrix(1,0,0,-1,33.659,62.006)"/>
<path style="fill-rule:nonzero;fill:rgb(0%,0%,0%);fill-opacity:1;stroke-width:0.3985;stroke-linecap:butt;stroke-linejoin:miter;stroke:rgb(0%,0%,0%);stroke-opacity:1;stroke-miterlimit:10;" d="M 1.991219 0.000875 C 1.991219 1.098531 1.100594 1.993062 -0.00096875 1.993062 C -1.098625 1.993062 -1.993156 1.098531 -1.993156 0.000875 C -1.993156 -1.100688 -1.098625 -1.991313 -0.00096875 -1.991313 C 1.100594 -1.991313 1.991219 -1.100688 1.991219 0.000875 Z M 1.991219 0.000875 " transform="matrix(1,0,0,-1,47.833,39.329)"/>
<path style="fill-rule:nonzero;fill:rgb(0%,0%,0%);fill-opacity:1;stroke-width:0.3985;stroke-linecap:butt;stroke-linejoin:miter;stroke:rgb(0%,0%,0%);stroke-opacity:1;stroke-miterlimit:10;" d="M 1.991219 0.0005 C 1.991219 1.102062 1.100594 1.992687 -0.00096875 1.992687 C -1.098625 1.992687 -1.993156 1.102062 -1.993156 0.0005 C -1.993156 -1.101063 -1.098625 -1.991688 -0.00096875 -1.991688 C 1.100594 -1.991688 1.991219 -1.101063 1.991219 0.0005 Z M 1.991219 0.0005 " transform="matrix(1,0,0,-1,47.833,5.313)"/>
<path style="fill-rule:nonzero;fill:rgb(0%,0%,0%);fill-opacity:1;stroke-width:0.3985;stroke-linecap:butt;stroke-linejoin:miter;stroke:rgb(0%,0%,0%);stroke-opacity:1;stroke-miterlimit:10;" d="M 1.994 0.001625 C 1.994 1.099281 1.099469 1.993812 0.0018125 1.993812 C -1.09975 1.993812 -1.994281 1.099281 -1.994281 0.001625 C -1.994281 -1.099938 -1.09975 -1.994469 0.0018125 -1.994469 C 1.099469 -1.994469 1.994 -1.099938 1.994 0.001625 Z M 1.994 0.001625 " transform="matrix(1,0,0,-1,62.006,19.486)"/>
<path style="fill-rule:nonzero;fill:rgb(0%,0%,0%);fill-opacity:1;stroke-width:0.3985;stroke-linecap:butt;stroke-linejoin:miter;stroke:rgb(0%,0%,0%);stroke-opacity:1;stroke-miterlimit:10;" d="M 1.992875 0.000875 C 1.992875 1.098531 1.10225 1.993062 0.0006875 1.993062 C -1.100875 1.993062 -1.9915 1.098531 -1.9915 0.000875 C -1.9915 -1.100688 -1.100875 -1.991313 0.0006875 -1.991313 C 1.10225 -1.991313 1.992875 -1.100688 1.992875 0.000875 Z M 1.992875 0.000875 " transform="matrix(1,0,0,-1,76.179,39.329)"/>
<path style="fill-rule:nonzero;fill:rgb(0%,0%,0%);fill-opacity:1;stroke-width:0.3985;stroke-linecap:butt;stroke-linejoin:miter;stroke:rgb(0%,0%,0%);stroke-opacity:1;stroke-miterlimit:10;" d="M 1.991125 -0.0018125 C 1.991125 1.09975 1.1005 1.994281 -0.0010625 1.994281 C -1.098719 1.994281 -1.99325 1.09975 -1.99325 -0.0018125 C -1.99325 -1.099469 -1.098719 -1.994 -0.0010625 -1.994 C 1.1005 -1.994 1.991125 -1.099469 1.991125 -0.0018125 Z M 1.991125 -0.0018125 " transform="matrix(1,0,0,-1,56.337,62.006)"/>
<path style=" stroke:none;fill-rule:nonzero;fill:rgb(0%,0%,0%);fill-opacity:1;" d="M 109.351562 56.335938 C 109.351562 55.238281 108.460938 54.34375 107.359375 54.34375 C 106.257812 54.34375 105.367188 55.238281 105.367188 56.335938 C 105.367188 57.4375 106.257812 58.328125 107.359375 58.328125 C 108.460938 58.328125 109.351562 57.4375 109.351562 56.335938 Z M 109.351562 56.335938 "/>
<g clip-path="url(#clip3)" clip-rule="nonzero">
<path style="fill:none;stroke-width:0.3985;stroke-linecap:butt;stroke-linejoin:miter;stroke:rgb(0%,0%,0%);stroke-opacity:1;stroke-miterlimit:10;" d="M 1.991562 0.0010625 C 1.991562 1.098719 1.100937 1.99325 -0.000625 1.99325 C -1.102188 1.99325 -1.992813 1.098719 -1.992813 0.0010625 C -1.992813 -1.1005 -1.102188 -1.991125 -0.000625 -1.991125 C 1.100937 -1.991125 1.991562 -1.1005 1.991562 0.0010625 Z M 1.991562 0.0010625 " transform="matrix(1,0,0,-1,107.36,56.337)"/>
</g>
<path style="fill-rule:nonzero;fill:rgb(0%,0%,0%);fill-opacity:1;stroke-width:0.3985;stroke-linecap:butt;stroke-linejoin:miter;stroke:rgb(0%,0%,0%);stroke-opacity:1;stroke-miterlimit:10;" d="M 1.99175 0.00153125 C 1.99175 1.099187 1.101125 1.993719 -0.0004375 1.993719 C -1.102 1.993719 -1.992625 1.099187 -1.992625 0.00153125 C -1.992625 -1.100031 -1.102 -1.990656 -0.0004375 -1.990656 C 1.101125 -1.990656 1.99175 -1.100031 1.99175 0.00153125 Z M 1.99175 0.00153125 " transform="matrix(1,0,0,-1,90.352,10.982)"/>
<path style=" stroke:none;fill-rule:nonzero;fill:rgb(0%,0%,0%);fill-opacity:1;" d="M 106.519531 30.824219 C 106.519531 29.722656 105.625 28.832031 104.527344 28.832031 C 103.425781 28.832031 102.535156 29.722656 102.535156 30.824219 C 102.535156 31.925781 103.425781 32.816406 104.527344 32.816406 C 105.625 32.816406 106.519531 31.925781 106.519531 30.824219 Z M 106.519531 30.824219 "/>
<g clip-path="url(#clip4)" clip-rule="nonzero">
<path style="fill:none;stroke-width:0.3985;stroke-linecap:butt;stroke-linejoin:miter;stroke:rgb(0%,0%,0%);stroke-opacity:1;stroke-miterlimit:10;" d="M 1.993531 0.00078125 C 1.993531 1.102344 1.099 1.992969 0.00134375 1.992969 C -1.100219 1.992969 -1.990844 1.102344 -1.990844 0.00078125 C -1.990844 -1.100781 -1.100219 -1.991406 0.00134375 -1.991406 C 1.099 -1.991406 1.993531 -1.100781 1.993531 0.00078125 Z M 1.993531 0.00078125 " transform="matrix(1,0,0,-1,104.526,30.825)"/>
</g>
<path style=" stroke:none;fill-rule:nonzero;fill:rgb(79.998779%,79.998779%,79.998779%);fill-opacity:1;" d="M 5.3125 62.007812 L 19.488281 39.328125 L 16.652344 67.675781 Z M 5.3125 62.007812 "/>
<g clip-path="url(#clip5)" clip-rule="nonzero">
<path style="fill:none;stroke-width:0.79701;stroke-linecap:butt;stroke-linejoin:miter;stroke:rgb(0%,0%,0%);stroke-opacity:1;stroke-miterlimit:10;" d="M -0.0005 -0.0018125 L 14.175281 22.677875 L 11.339344 -5.669781 Z M -0.0005 -0.0018125 " transform="matrix(1,0,0,-1,5.313,62.006)"/>
</g>
<path style=" stroke:none;fill-rule:nonzero;fill:rgb(54.998779%,54.998779%,54.998779%);fill-opacity:1;" d="M 33.660156 62.007812 L 19.488281 39.328125 L 16.652344 67.675781 Z M 33.660156 62.007812 "/>
<g clip-path="url(#clip6)" clip-rule="nonzero">
<path style="fill:none;stroke-width:0.79701;stroke-linecap:butt;stroke-linejoin:miter;stroke:rgb(0%,0%,0%);stroke-opacity:1;stroke-miterlimit:10;" d="M 28.347156 -0.0018125 L 14.175281 22.677875 L 11.339344 -5.669781 Z M 28.347156 -0.0018125 " transform="matrix(1,0,0,-1,5.313,62.006)"/>
</g>
<path style="fill:none;stroke-width:0.79701;stroke-linecap:butt;stroke-linejoin:miter;stroke:rgb(0%,0%,0%);stroke-opacity:1;stroke-dasharray:0.79701,0.99628;stroke-miterlimit:10;" d="M -0.0005 -0.0018125 L 28.347156 -0.0018125 " transform="matrix(1,0,0,-1,5.313,62.006)"/>
<path style="fill:none;stroke-width:0.79701;stroke-linecap:butt;stroke-linejoin:miter;stroke:rgb(0%,0%,0%);stroke-opacity:1;stroke-miterlimit:10;" d="M 14.175281 22.677875 L 28.347156 42.521625 " transform="matrix(1,0,0,-1,5.313,62.006)"/>
<path style="fill-rule:nonzero;fill:rgb(79.998779%,79.998779%,79.998779%);fill-opacity:1;stroke-width:0.79701;stroke-linecap:butt;stroke-linejoin:miter;stroke:rgb(0%,0%,0%);stroke-opacity:1;stroke-miterlimit:10;" d="M 28.347156 42.521625 L 42.519031 56.6935 L 56.694812 42.521625 L 70.866687 22.677875 L 42.519031 22.677875 Z M 28.347156 42.521625 " transform="matrix(1,0,0,-1,5.313,62.006)"/>
<g clip-path="url(#clip7)" clip-rule="nonzero">
<path style="fill:none;stroke-width:0.79701;stroke-linecap:butt;stroke-linejoin:miter;stroke:rgb(0%,0%,0%);stroke-opacity:1;stroke-miterlimit:10;" d="M 70.866687 22.677875 L 102.050281 5.670063 L 51.022937 -0.0018125 " transform="matrix(1,0,0,-1,5.313,62.006)"/>
</g>
<g clip-path="url(#clip8)" clip-rule="nonzero">
<path style="fill:none;stroke-width:0.79701;stroke-linecap:butt;stroke-linejoin:miter;stroke:rgb(0%,0%,0%);stroke-opacity:1;stroke-miterlimit:10;" d="M 99.214344 31.181781 L 85.038562 51.025531 L 56.694812 42.521625 L 42.519031 22.677875 L 42.519031 56.6935 " transform="matrix(1,0,0,-1,5.313,62.006)"/>
</g>
<path style="fill:none;stroke-width:0.79701;stroke-linecap:butt;stroke-linejoin:miter;stroke:rgb(0%,0%,0%);stroke-opacity:1;stroke-miterlimit:10;" d="M 70.866687 22.677875 L 85.038562 51.025531 " transform="matrix(1,0,0,-1,5.313,62.006)"/>
<path style="fill:none;stroke-width:0.79701;stroke-linecap:butt;stroke-linejoin:miter;stroke:rgb(0%,0%,0%);stroke-opacity:1;stroke-miterlimit:10;" d="M -0.0005 56.6935 L 14.175281 39.685688 " transform="matrix(1,0,0,-1,5.313,62.006)"/>
<path style=" stroke:none;fill-rule:nonzero;fill:rgb(0%,0%,0%);fill-opacity:1;" d="M 106.519531 10.980469 C 106.519531 9.882812 105.625 8.988281 104.527344 8.988281 C 103.425781 8.988281 102.535156 9.882812 102.535156 10.980469 C 102.535156 12.082031 103.425781 12.972656 104.527344 12.972656 C 105.625 12.972656 106.519531 12.082031 106.519531 10.980469 Z M 106.519531 10.980469 "/>
<g clip-path="url(#clip9)" clip-rule="nonzero">
<path style="fill:none;stroke-width:0.3985;stroke-linecap:butt;stroke-linejoin:miter;stroke:rgb(0%,0%,0%);stroke-opacity:1;stroke-miterlimit:10;" d="M 1.993531 0.00153125 C 1.993531 1.099187 1.099 1.993719 0.00134375 1.993719 C -1.100219 1.993719 -1.990844 1.099187 -1.990844 0.00153125 C -1.990844 -1.100031 -1.100219 -1.990656 0.00134375 -1.990656 C 1.099 -1.990656 1.993531 -1.100031 1.993531 0.00153125 Z M 1.993531 0.00153125 " transform="matrix(1,0,0,-1,104.526,10.982)"/>
</g>
<path style="fill-rule:nonzero;fill:rgb(0%,0%,0%);fill-opacity:1;stroke-width:0.3985;stroke-linecap:butt;stroke-linejoin:miter;stroke:rgb(0%,0%,0%);stroke-opacity:1;stroke-miterlimit:10;" d="M 1.991688 0.0005 C 1.991688 1.102062 1.101063 1.992687 -0.0005 1.992687 C -1.102062 1.992687 -1.992687 1.102062 -1.992687 0.0005 C -1.992687 -1.101063 -1.102062 -1.991688 -0.0005 -1.991688 C 1.101063 -1.991688 1.991688 -1.101063 1.991688 0.0005 Z M 1.991688 0.0005 " transform="matrix(1,0,0,-1,5.313,5.313)"/>
<path style="fill-rule:nonzero;fill:rgb(0%,0%,0%);fill-opacity:1;stroke-width:0.3985;stroke-linecap:butt;stroke-linejoin:miter;stroke:rgb(0%,0%,0%);stroke-opacity:1;stroke-miterlimit:10;" d="M 1.994469 0.0006875 C 1.994469 1.10225 1.099937 1.992875 -0.001625 1.992875 C -1.099281 1.992875 -1.993813 1.10225 -1.993813 0.0006875 C -1.993813 -1.100875 -1.099281 -1.9915 -0.001625 -1.9915 C 1.099937 -1.9915 1.994469 -1.100875 1.994469 0.0006875 Z M 1.994469 0.0006875 " transform="matrix(1,0,0,-1,19.486,22.321)"/>
<path style="fill-rule:nonzero;fill:rgb(0%,0%,0%);fill-opacity:1;stroke-width:0.3985;stroke-linecap:butt;stroke-linejoin:miter;stroke:rgb(0%,0%,0%);stroke-opacity:1;stroke-miterlimit:10;" d="M 1.991688 -0.0018125 C 1.991688 1.09975 1.101063 1.994281 -0.0005 1.994281 C -1.102062 1.994281 -1.992687 1.09975 -1.992687 -0.0018125 C -1.992687 -1.099469 -1.102062 -1.994 -0.0005 -1.994 C 1.101063 -1.994 1.991688 -1.099469 1.991688 -0.0018125 Z M 1.991688 -0.0018125 " transform="matrix(1,0,0,-1,5.313,62.006)"/>
<path style="fill-rule:nonzero;fill:rgb(0%,0%,0%);fill-opacity:1;stroke-width:0.3985;stroke-linecap:butt;stroke-linejoin:miter;stroke:rgb(0%,0%,0%);stroke-opacity:1;stroke-miterlimit:10;" d="M 1.994469 0.000875 C 1.994469 1.098531 1.099937 1.993062 -0.001625 1.993062 C -1.099281 1.993062 -1.993813 1.098531 -1.993813 0.000875 C -1.993813 -1.100688 -1.099281 -1.991313 -0.001625 -1.991313 C 1.099937 -1.991313 1.994469 -1.100688 1.994469 0.000875 Z M 1.994469 0.000875 " transform="matrix(1,0,0,-1,19.486,39.329)"/>
<path style=" stroke:none;fill-rule:nonzero;fill:rgb(0%,0%,0%);fill-opacity:1;" d="M 18.644531 67.675781 C 18.644531 66.574219 17.75 65.683594 16.652344 65.683594 C 15.550781 65.683594 14.660156 66.574219 14.660156 67.675781 C 14.660156 68.777344 15.550781 69.667969 16.652344 69.667969 C 17.75 69.667969 18.644531 68.777344 18.644531 67.675781 Z M 18.644531 67.675781 "/>
<g clip-path="url(#clip10)" clip-rule="nonzero">
<path style="fill:none;stroke-width:0.3985;stroke-linecap:butt;stroke-linejoin:miter;stroke:rgb(0%,0%,0%);stroke-opacity:1;stroke-miterlimit:10;" d="M 1.993531 -0.00078125 C 1.993531 1.100781 1.099 1.991406 0.00134375 1.991406 C -1.100219 1.991406 -1.990844 1.100781 -1.990844 -0.00078125 C -1.990844 -1.102344 -1.100219 -1.992969 0.00134375 -1.992969 C 1.099 -1.992969 1.993531 -1.102344 1.993531 -0.00078125 Z M 1.993531 -0.00078125 " transform="matrix(1,0,0,-1,16.651,67.675)"/>
</g>
<path style="fill-rule:nonzero;fill:rgb(0%,0%,0%);fill-opacity:1;stroke-width:0.3985;stroke-linecap:butt;stroke-linejoin:miter;stroke:rgb(0%,0%,0%);stroke-opacity:1;stroke-miterlimit:10;" d="M 1.993344 0.001625 C 1.993344 1.099281 1.098813 1.993812 0.00115625 1.993812 C -1.100406 1.993812 -1.991031 1.099281 -1.991031 0.001625 C -1.991031 -1.099938 -1.100406 -1.994469 0.00115625 -1.994469 C 1.098813 -1.994469 1.993344 -1.099938 1.993344 0.001625 Z M 1.993344 0.001625 " transform="matrix(1,0,0,-1,33.659,19.486)"/>
<path style="fill-rule:nonzero;fill:rgb(0%,0%,0%);fill-opacity:1;stroke-width:0.3985;stroke-linecap:butt;stroke-linejoin:miter;stroke:rgb(0%,0%,0%);stroke-opacity:1;stroke-miterlimit:10;" d="M 1.993344 -0.0018125 C 1.993344 1.09975 1.098813 1.994281 0.00115625 1.994281 C -1.100406 1.994281 -1.991031 1.09975 -1.991031 -0.0018125 C -1.991031 -1.099469 -1.100406 -1.994 0.00115625 -1.994 C 1.098813 -1.994 1.993344 -1.099469 1.993344 -0.0018125 Z M 1.993344 -0.0018125 " transform="matrix(1,0,0,-1,33.659,62.006)"/>
<path style="fill-rule:nonzero;fill:rgb(0%,0%,0%);fill-opacity:1;stroke-width:0.3985;stroke-linecap:butt;stroke-linejoin:miter;stroke:rgb(0%,0%,0%);stroke-opacity:1;stroke-miterlimit:10;" d="M 1.991219 0.000875 C 1.991219 1.098531 1.100594 1.993062 -0.00096875 1.993062 C -1.098625 1.993062 -1.993156 1.098531 -1.993156 0.000875 C -1.993156 -1.100688 -1.098625 -1.991313 -0.00096875 -1.991313 C 1.100594 -1.991313 1.991219 -1.100688 1.991219 0.000875 Z M 1.991219 0.000875 " transform="matrix(1,0,0,-1,47.833,39.329)"/>
<path style="fill-rule:nonzero;fill:rgb(0%,0%,0%);fill-opacity:1;stroke-width:0.3985;stroke-linecap:butt;stroke-linejoin:miter;stroke:rgb(0%,0%,0%);stroke-opacity:1;stroke-miterlimit:10;" d="M 1.991219 0.0005 C 1.991219 1.102062 1.100594 1.992687 -0.00096875 1.992687 C -1.098625 1.992687 -1.993156 1.102062 -1.993156 0.0005 C -1.993156 -1.101063 -1.098625 -1.991688 -0.00096875 -1.991688 C 1.100594 -1.991688 1.991219 -1.101063 1.991219 0.0005 Z M 1.991219 0.0005 " transform="matrix(1,0,0,-1,47.833,5.313)"/>
<path style="fill-rule:nonzero;fill:rgb(0%,0%,0%);fill-opacity:1;stroke-width:0.3985;stroke-linecap:butt;stroke-linejoin:miter;stroke:rgb(0%,0%,0%);stroke-opacity:1;stroke-miterlimit:10;" d="M 1.994 0.001625 C 1.994 1.099281 1.099469 1.993812 0.0018125 1.993812 C -1.09975 1.993812 -1.994281 1.099281 -1.994281 0.001625 C -1.994281 -1.099938 -1.09975 -1.994469 0.0018125 -1.994469 C 1.099469 -1.994469 1.994 -1.099938 1.994 0.001625 Z M 1.994 0.001625 " transform="matrix(1,0,0,-1,62.006,19.486)"/>
<path style="fill-rule:nonzero;fill:rgb(0%,0%,0%);fill-opacity:1;stroke-width:0.3985;stroke-linecap:butt;stroke-linejoin:miter;stroke:rgb(0%,0%,0%);stroke-opacity:1;stroke-miterlimit:10;" d="M 1.992875 0.000875 C 1.992875 1.098531 1.10225 1.993062 0.0006875 1.993062 C -1.100875 1.993062 -1.9915 1.098531 -1.9915 0.000875 C -1.9915 -1.100688 -1.100875 -1.991313 0.0006875 -1.991313 C 1.10225 -1.991313 1.992875 -1.100688 1.992875 0.000875 Z M 1.992875 0.000875 " transform="matrix(1,0,0,-1,76.179,39.329)"/>
<path style="fill-rule:nonzero;fill:rgb(0%,0%,0%);fill-opacity:1;stroke-width:0.3985;stroke-linecap:butt;stroke-linejoin:miter;stroke:rgb(0%,0%,0%);stroke-opacity:1;stroke-miterlimit:10;" d="M 1.991125 -0.0018125 C 1.991125 1.09975 1.1005 1.994281 -0.0010625 1.994281 C -1.098719 1.994281 -1.99325 1.09975 -1.99325 -0.0018125 C -1.99325 -1.099469 -1.098719 -1.994 -0.0010625 -1.994 C 1.1005 -1.994 1.991125 -1.099469 1.991125 -0.0018125 Z M 1.991125 -0.0018125 " transform="matrix(1,0,0,-1,56.337,62.006)"/>
<path style=" stroke:none;fill-rule:nonzero;fill:rgb(0%,0%,0%);fill-opacity:1;" d="M 109.351562 56.335938 C 109.351562 55.238281 108.460938 54.34375 107.359375 54.34375 C 106.257812 54.34375 105.367188 55.238281 105.367188 56.335938 C 105.367188 57.4375 106.257812 58.328125 107.359375 58.328125 C 108.460938 58.328125 109.351562 57.4375 109.351562 56.335938 Z M 109.351562 56.335938 "/>
<g clip-path="url(#clip11)" clip-rule="nonzero">
<path style="fill:none;stroke-width:0.3985;stroke-linecap:butt;stroke-linejoin:miter;stroke:rgb(0%,0%,0%);stroke-opacity:1;stroke-miterlimit:10;" d="M 1.991562 0.0010625 C 1.991562 1.098719 1.100937 1.99325 -0.000625 1.99325 C -1.102188 1.99325 -1.992813 1.098719 -1.992813 0.0010625 C -1.992813 -1.1005 -1.102188 -1.991125 -0.000625 -1.991125 C 1.100937 -1.991125 1.991562 -1.1005 1.991562 0.0010625 Z M 1.991562 0.0010625 " transform="matrix(1,0,0,-1,107.36,56.337)"/>
</g>
<path style="fill-rule:nonzero;fill:rgb(0%,0%,0%);fill-opacity:1;stroke-width:0.3985;stroke-linecap:butt;stroke-linejoin:miter;stroke:rgb(0%,0%,0%);stroke-opacity:1;stroke-miterlimit:10;" d="M 1.99175 0.00153125 C 1.99175 1.099187 1.101125 1.993719 -0.0004375 1.993719 C -1.102 1.993719 -1.992625 1.099187 -1.992625 0.00153125 C -1.992625 -1.100031 -1.102 -1.990656 -0.0004375 -1.990656 C 1.101125 -1.990656 1.99175 -1.100031 1.99175 0.00153125 Z M 1.99175 0.00153125 " transform="matrix(1,0,0,-1,90.352,10.982)"/>
<path style=" stroke:none;fill-rule:nonzero;fill:rgb(0%,0%,0%);fill-opacity:1;" d="M 106.519531 30.824219 C 106.519531 29.722656 105.625 28.832031 104.527344 28.832031 C 103.425781 28.832031 102.535156 29.722656 102.535156 30.824219 C 102.535156 31.925781 103.425781 32.816406 104.527344 32.816406 C 105.625 32.816406 106.519531 31.925781 106.519531 30.824219 Z M 106.519531 30.824219 "/>
<g clip-path="url(#clip12)" clip-rule="nonzero">
<path style="fill:none;stroke-width:0.3985;stroke-linecap:butt;stroke-linejoin:miter;stroke:rgb(0%,0%,0%);stroke-opacity:1;stroke-miterlimit:10;" d="M 1.993531 0.00078125 C 1.993531 1.102344 1.099 1.992969 0.00134375 1.992969 C -1.100219 1.992969 -1.990844 1.102344 -1.990844 0.00078125 C -1.990844 -1.100781 -1.100219 -1.991406 0.00134375 -1.991406 C 1.099 -1.991406 1.993531 -1.100781 1.993531 0.00078125 Z M 1.993531 0.00078125 " transform="matrix(1,0,0,-1,104.526,30.825)"/>
</g>
</g>
</svg>
