<?xml version="1.0" encoding="UTF-8"?>
<svg xmlns="http://www.w3.org/2000/svg" xmlns:xlink="http://www.w3.org/1999/xlink" width="129.681pt" height="75.823pt" viewBox="0 0 129.681 75.823" version="1.1">
<defs>
<clipPath id="clip1">
  <path d="M 34 62 L 50 62 L 50 75.824219 L 34 75.824219 Z M 34 62 "/>
</clipPath>
<clipPath id="clip2">
  <path d="M 30 0 L 88 0 L 88 75.824219 L 30 75.824219 Z M 30 0 "/>
</clipPath>
<clipPath id="clip3">
  <path d="M 8 0 L 54 0 L 54 75.824219 L 8 75.824219 Z M 8 0 "/>
</clipPath>
<clipPath id="clip4">
  <path d="M 34 62 L 50 62 L 50 75.824219 L 34 75.824219 Z M 34 62 "/>
</clipPath>
</defs>
<g id="surface1">
<path style=" stroke:none;fill-rule:nonzero;fill:rgb(0%,0%,0%);fill-opacity:1;" d="M 44.15625 70.511719 C 44.15625 69.410156 43.261719 68.515625 42.164062 68.515625 C 41.0625 68.515625 40.171875 69.410156 40.171875 70.511719 C 40.171875 71.609375 41.0625 72.503906 42.164062 72.503906 C 43.261719 72.503906 44.15625 71.609375 44.15625 70.511719 Z M 44.15625 70.511719 "/>
<g clip-path="url(#clip1)" clip-rule="nonzero">
<path style="fill:none;stroke-width:0.3985;stroke-linecap:butt;stroke-linejoin:miter;stroke:rgb(0%,0%,0%);stroke-opacity:1;stroke-miterlimit:10;" d="M 1.99325 -0.00171875 C 1.99325 1.099844 1.098719 1.994375 0.0010625 1.994375 C -1.1005 1.994375 -1.991125 1.099844 -1.991125 -0.00171875 C -1.991125 -1.099375 -1.1005 -1.993906 0.0010625 -1.993906 C 1.098719 -1.993906 1.99325 -1.099375 1.99325 -0.00171875 Z M 1.99325 -0.00171875 " transform="matrix(1,0,0,-1,42.163,70.51)"/>
</g>
<path style="fill-rule:nonzero;fill:rgb(0%,0%,0%);fill-opacity:1;stroke-width:0.3985;stroke-linecap:butt;stroke-linejoin:miter;stroke:rgb(0%,0%,0%);stroke-opacity:1;stroke-miterlimit:10;" d="M 1.99325 0.0005 C 1.99325 1.102062 1.098719 1.992687 0.0010625 1.992687 C -1.1005 1.992687 -1.991125 1.102062 -1.991125 0.0005 C -1.991125 -1.101063 -1.1005 -1.991688 0.0010625 -1.991688 C 1.098719 -1.991688 1.99325 -1.101063 1.99325 0.0005 Z M 1.99325 0.0005 " transform="matrix(1,0,0,-1,42.163,5.313)"/>
<path style="fill-rule:nonzero;fill:rgb(0%,0%,0%);fill-opacity:1;stroke-width:0.3985;stroke-linecap:butt;stroke-linejoin:miter;stroke:rgb(0%,0%,0%);stroke-opacity:1;stroke-miterlimit:10;" d="M 1.992875 0.00003125 C 1.992875 1.101594 1.10225 1.992219 0.0006875 1.992219 C -1.100875 1.992219 -1.9915 1.101594 -1.9915 0.00003125 C -1.9915 -1.101531 -1.100875 -1.992156 0.0006875 -1.992156 C 1.10225 -1.992156 1.992875 -1.101531 1.992875 0.00003125 Z M 1.992875 0.00003125 " transform="matrix(1,0,0,-1,76.179,50.668)"/>
<path style="fill-rule:nonzero;fill:rgb(0%,0%,0%);fill-opacity:1;stroke-width:0.3985;stroke-linecap:butt;stroke-linejoin:miter;stroke:rgb(0%,0%,0%);stroke-opacity:1;stroke-miterlimit:10;" d="M 1.991688 0.000875 C 1.991688 1.098531 1.101063 1.993062 -0.0005 1.993062 C -1.102062 1.993062 -1.992687 1.098531 -1.992687 0.000875 C -1.992687 -1.100688 -1.102062 -1.991313 -0.0005 -1.991313 C 1.101063 -1.991313 1.991688 -1.100688 1.991688 0.000875 Z M 1.991688 0.000875 " transform="matrix(1,0,0,-1,5.313,39.329)"/>
<path style="fill-rule:nonzero;fill:rgb(0%,0%,0%);fill-opacity:1;stroke-width:0.3985;stroke-linecap:butt;stroke-linejoin:miter;stroke:rgb(0%,0%,0%);stroke-opacity:1;stroke-miterlimit:10;" d="M 1.994375 0.001625 C 1.994375 1.099281 1.099844 1.993812 -0.00171875 1.993812 C -1.099375 1.993812 -1.993906 1.099281 -1.993906 0.001625 C -1.993906 -1.099938 -1.099375 -1.994469 -0.00171875 -1.994469 C 1.099844 -1.994469 1.994375 -1.099938 1.994375 0.001625 Z M 1.994375 0.001625 " transform="matrix(1,0,0,-1,27.99,19.486)"/>
<path style="fill-rule:nonzero;fill:rgb(0%,0%,0%);fill-opacity:1;stroke-width:0.3985;stroke-linecap:butt;stroke-linejoin:miter;stroke:rgb(0%,0%,0%);stroke-opacity:1;stroke-miterlimit:10;" d="M 1.993906 -0.00015625 C 1.993906 1.101406 1.099375 1.992031 0.00171875 1.992031 C -1.099844 1.992031 -1.994375 1.101406 -1.994375 -0.00015625 C -1.994375 -1.101719 -1.099844 -1.992344 0.00171875 -1.992344 C 1.099375 -1.992344 1.993906 -1.101719 1.993906 -0.00015625 Z M 1.993906 -0.00015625 " transform="matrix(1,0,0,-1,70.51,33.66)"/>
<path style="fill-rule:nonzero;fill:rgb(0%,0%,0%);fill-opacity:1;stroke-width:0.3985;stroke-linecap:butt;stroke-linejoin:miter;stroke:rgb(0%,0%,0%);stroke-opacity:1;stroke-miterlimit:10;" d="M 1.992687 0.0006875 C 1.992687 1.10225 1.102062 1.992875 0.0005 1.992875 C -1.101063 1.992875 -1.991688 1.10225 -1.991688 0.0006875 C -1.991688 -1.100875 -1.101063 -1.9915 0.0005 -1.9915 C 1.102062 -1.9915 1.992687 -1.100875 1.992687 0.0006875 Z M 1.992687 0.0006875 " transform="matrix(1,0,0,-1,93.187,22.321)"/>
<path style="fill-rule:nonzero;fill:rgb(0%,0%,0%);fill-opacity:1;stroke-width:0.3985;stroke-linecap:butt;stroke-linejoin:miter;stroke:rgb(0%,0%,0%);stroke-opacity:1;stroke-miterlimit:10;" d="M 1.993531 0.0005 C 1.993531 1.102062 1.099 1.992687 0.00134375 1.992687 C -1.100219 1.992687 -1.990844 1.102062 -1.990844 0.0005 C -1.990844 -1.101063 -1.100219 -1.991688 0.00134375 -1.991688 C 1.099 -1.991688 1.993531 -1.101063 1.993531 0.0005 Z M 1.993531 0.0005 " transform="matrix(1,0,0,-1,104.526,5.313)"/>
<path style=" stroke:none;fill-rule:nonzero;fill:rgb(75%,75%,75%);fill-opacity:1;" d="M 76.179688 50.667969 L 42.164062 70.511719 L 42.164062 5.3125 Z M 76.179688 50.667969 "/>
<path style=" stroke:none;fill-rule:nonzero;fill:rgb(75%,75%,75%);fill-opacity:1;" d="M 76.179688 50.667969 L 42.164062 70.511719 L 42.164062 5.3125 "/>
<g clip-path="url(#clip2)" clip-rule="nonzero">
<path style="fill:none;stroke-width:0.79701;stroke-linecap:butt;stroke-linejoin:miter;stroke:rgb(0%,0%,0%);stroke-opacity:1;stroke-miterlimit:10;" d="M 56.693688 11.338031 L 22.678063 -8.505719 L 22.678063 56.6935 " transform="matrix(1,0,0,-1,19.486,62.006)"/>
</g>
<path style=" stroke:none;fill-rule:nonzero;fill:rgb(84.999084%,84.999084%,84.999084%);fill-opacity:1;" d="M 5.3125 39.328125 L 27.988281 19.484375 L 70.511719 33.660156 Z M 5.3125 39.328125 "/>
<path style="fill-rule:nonzero;fill:rgb(84.999084%,84.999084%,84.999084%);fill-opacity:1;stroke-width:0.79701;stroke-linecap:butt;stroke-linejoin:miter;stroke:rgb(0%,0%,0%);stroke-opacity:1;stroke-miterlimit:10;" d="M 8.502281 42.521625 L 51.025719 28.345844 L -14.1735 22.677875 " transform="matrix(1,0,0,-1,19.486,62.006)"/>
<path style=" stroke:none;fill-rule:nonzero;fill:rgb(0%,0%,0%);fill-opacity:0.75;" d="M 19.484375 62.007812 L 42.164062 70.511719 L 42.164062 5.3125 Z M 19.484375 62.007812 "/>
<path style="fill:none;stroke-width:0.79701;stroke-linecap:butt;stroke-linejoin:miter;stroke:rgb(0%,0%,0%);stroke-opacity:1;stroke-dasharray:0.79701,0.99628;stroke-miterlimit:10;" d="M -0.001625 -0.0018125 L 56.693688 11.338031 " transform="matrix(1,0,0,-1,19.486,62.006)"/>
<path style=" stroke:none;fill-rule:nonzero;fill:rgb(50%,50%,50%);fill-opacity:0.75;" d="M 19.484375 62.007812 L 42.164062 70.511719 L 42.164062 5.3125 L 19.484375 62.007812 "/>
<g clip-path="url(#clip3)" clip-rule="nonzero">
<path style="fill:none;stroke-width:0.79701;stroke-linecap:butt;stroke-linejoin:miter;stroke:rgb(0%,0%,0%);stroke-opacity:0.75;stroke-miterlimit:10;" d="M -0.001625 -0.0018125 L 22.678063 -8.505719 L 22.678063 56.6935 L -0.001625 -0.0018125 " transform="matrix(1,0,0,-1,19.486,62.006)"/>
</g>
<path style="fill:none;stroke-width:0.79701;stroke-linecap:butt;stroke-linejoin:miter;stroke:rgb(0%,0%,0%);stroke-opacity:1;stroke-dasharray:0.79701,0.99628;stroke-miterlimit:10;" d="M -0.001625 -0.0018125 L 56.693688 11.338031 " transform="matrix(1,0,0,-1,19.486,62.006)"/>
<path style="fill:none;stroke-width:0.79701;stroke-linecap:butt;stroke-linejoin:miter;stroke:rgb(0%,0%,0%);stroke-opacity:1;stroke-miterlimit:10;" d="M 85.041344 56.6935 L 96.377281 28.345844 " transform="matrix(1,0,0,-1,19.486,62.006)"/>
<path style="fill:none;stroke-width:0.79701;stroke-linecap:butt;stroke-linejoin:miter;stroke:rgb(0%,0%,0%);stroke-opacity:1;stroke-miterlimit:10;" d="M 73.7015 39.685687 L 104.881188 39.685687 " transform="matrix(1,0,0,-1,19.486,62.006)"/>
<path style=" stroke:none;fill-rule:nonzero;fill:rgb(0%,0%,0%);fill-opacity:1;" d="M 44.15625 70.511719 C 44.15625 69.410156 43.261719 68.515625 42.164062 68.515625 C 41.0625 68.515625 40.171875 69.410156 40.171875 70.511719 C 40.171875 71.609375 41.0625 72.503906 42.164062 72.503906 C 43.261719 72.503906 44.15625 71.609375 44.15625 70.511719 Z M 44.15625 70.511719 "/>
<g clip-path="url(#clip4)" clip-rule="nonzero">
<path style="fill:none;stroke-width:0.3985;stroke-linecap:butt;stroke-linejoin:miter;stroke:rgb(0%,0%,0%);stroke-opacity:1;stroke-miterlimit:10;" d="M 1.99325 -0.00171875 C 1.99325 1.099844 1.098719 1.994375 0.0010625 1.994375 C -1.1005 1.994375 -1.991125 1.099844 -1.991125 -0.00171875 C -1.991125 -1.099375 -1.1005 -1.993906 0.0010625 -1.993906 C 1.098719 -1.993906 1.99325 -1.099375 1.99325 -0.00171875 Z M 1.99325 -0.00171875 " transform="matrix(1,0,0,-1,42.163,70.51)"/>
</g>
<path style="fill-rule:nonzero;fill:rgb(0%,0%,0%);fill-opacity:1;stroke-width:0.3985;stroke-linecap:butt;stroke-linejoin:miter;stroke:rgb(0%,0%,0%);stroke-opacity:1;stroke-miterlimit:10;" d="M 1.99325 0.0005 C 1.99325 1.102062 1.098719 1.992687 0.0010625 1.992687 C -1.1005 1.992687 -1.991125 1.102062 -1.991125 0.0005 C -1.991125 -1.101063 -1.1005 -1.991688 0.0010625 -1.991688 C 1.098719 -1.991688 1.99325 -1.101063 1.99325 0.0005 Z M 1.99325 0.0005 " transform="matrix(1,0,0,-1,42.163,5.313)"/>
<path style="fill-rule:nonzero;fill:rgb(0%,0%,0%);fill-opacity:1;stroke-width:0.3985;stroke-linecap:butt;stroke-linejoin:miter;stroke:rgb(0%,0%,0%);stroke-opacity:1;stroke-miterlimit:10;" d="M 1.992875 0.00003125 C 1.992875 1.101594 1.10225 1.992219 0.0006875 1.992219 C -1.100875 1.992219 -1.9915 1.101594 -1.9915 0.00003125 C -1.9915 -1.101531 -1.100875 -1.992156 0.0006875 -1.992156 C 1.10225 -1.992156 1.992875 -1.101531 1.992875 0.00003125 Z M 1.992875 0.00003125 " transform="matrix(1,0,0,-1,76.179,50.668)"/>
<path style="fill-rule:nonzero;fill:rgb(0%,0%,0%);fill-opacity:1;stroke-width:0.3985;stroke-linecap:butt;stroke-linejoin:miter;stroke:rgb(0%,0%,0%);stroke-opacity:1;stroke-miterlimit:10;" d="M 1.991688 0.000875 C 1.991688 1.098531 1.101063 1.993062 -0.0005 1.993062 C -1.102062 1.993062 -1.992687 1.098531 -1.992687 0.000875 C -1.992687 -1.100688 -1.102062 -1.991313 -0.0005 -1.991313 C 1.101063 -1.991313 1.991688 -1.100688 1.991688 0.000875 Z M 1.991688 0.000875 " transform="matrix(1,0,0,-1,5.313,39.329)"/>
<path style="fill-rule:nonzero;fill:rgb(0%,0%,0%);fill-opacity:1;stroke-width:0.3985;stroke-linecap:butt;stroke-linejoin:miter;stroke:rgb(0%,0%,0%);stroke-opacity:1;stroke-miterlimit:10;" d="M 1.994375 0.001625 C 1.994375 1.099281 1.099844 1.993812 -0.00171875 1.993812 C -1.099375 1.993812 -1.993906 1.099281 -1.993906 0.001625 C -1.993906 -1.099938 -1.099375 -1.994469 -0.00171875 -1.994469 C 1.099844 -1.994469 1.994375 -1.099938 1.994375 0.001625 Z M 1.994375 0.001625 " transform="matrix(1,0,0,-1,27.99,19.486)"/>
<path style="fill-rule:nonzero;fill:rgb(0%,0%,0%);fill-opacity:1;stroke-width:0.3985;stroke-linecap:butt;stroke-linejoin:miter;stroke:rgb(0%,0%,0%);stroke-opacity:1;stroke-miterlimit:10;" d="M 1.993906 -0.00015625 C 1.993906 1.101406 1.099375 1.992031 0.00171875 1.992031 C -1.099844 1.992031 -1.994375 1.101406 -1.994375 -0.00015625 C -1.994375 -1.101719 -1.099844 -1.992344 0.00171875 -1.992344 C 1.099375 -1.992344 1.993906 -1.101719 1.993906 -0.00015625 Z M 1.993906 -0.00015625 " transform="matrix(1,0,0,-1,70.51,33.66)"/>
<path style="fill-rule:nonzero;fill:rgb(0%,0%,0%);fill-opacity:1;stroke-width:0.3985;stroke-linecap:butt;stroke-linejoin:miter;stroke:rgb(0%,0%,0%);stroke-opacity:1;stroke-miterlimit:10;" d="M 1.992687 0.0006875 C 1.992687 1.10225 1.102062 1.992875 0.0005 1.992875 C -1.101063 1.992875 -1.991688 1.10225 -1.991688 0.0006875 C -1.991688 -1.100875 -1.101063 -1.9915 0.0005 -1.9915 C 1.102062 -1.9915 1.992687 -1.100875 1.992687 0.0006875 Z M 1.992687 0.0006875 " transform="matrix(1,0,0,-1,93.187,22.321)"/>
<path style="fill-rule:nonzero;fill:rgb(0%,0%,0%);fill-opacity:1;stroke-width:0.3985;stroke-linecap:butt;stroke-linejoin:miter;stroke:rgb(0%,0%,0%);stroke-opacity:1;stroke-miterlimit:10;" d="M 1.990625 0.0005 C 1.990625 1.102062 1.1 1.992687 -0.0015625 1.992687 C -1.099219 1.992687 -1.99375 1.102062 -1.99375 0.0005 C -1.99375 -1.101063 -1.099219 -1.991688 -0.0015625 -1.991688 C 1.1 -1.991688 1.990625 -1.101063 1.990625 0.0005 Z M 1.990625 0.0005 " transform="matrix(1,0,0,-1,104.525,5.313)"/>
</g>
</svg>
