<?xml version="1.0" encoding="UTF-8"?>
<svg xmlns="http://www.w3.org/2000/svg" xmlns:xlink="http://www.w3.org/1999/xlink" width="126.004pt" height="97.658pt" viewBox="0 0 126.004 97.658" version="1.1">
<defs>
<clipPath id="clip1">
  <path d="M 0 82 L 15 82 L 15 97.65625 L 0 97.65625 Z M 0 82 "/>
</clipPath>
<clipPath id="clip2">
  <path d="M 26 82 L 44 82 L 44 97.65625 L 26 97.65625 Z M 26 82 "/>
</clipPath>
<clipPath id="clip3">
  <path d="M 54 82 L 72 82 L 72 97.65625 L 54 97.65625 Z M 54 82 "/>
</clipPath>
<clipPath id="clip4">
  <path d="M 82 82 L 100 82 L 100 97.65625 L 82 97.65625 Z M 82 82 "/>
</clipPath>
<clipPath id="clip5">
  <path d="M 111 82 L 126.003906 82 L 126.003906 97.65625 L 111 97.65625 Z M 111 82 "/>
</clipPath>
<clipPath id="clip6">
  <path d="M 111 54 L 126.003906 54 L 126.003906 72 L 111 72 Z M 111 54 "/>
</clipPath>
<clipPath id="clip7">
  <path d="M 111 26 L 126.003906 26 L 126.003906 44 L 111 44 Z M 111 26 "/>
</clipPath>
</defs>
<g id="surface1">
<path style=" stroke:none;fill-rule:nonzero;fill:rgb(59.997559%,59.997559%,59.997559%);fill-opacity:1;" d="M 34.65625 34.65625 L 63.003906 34.65625 L 63.003906 6.308594 L 34.65625 6.308594 Z M 34.65625 34.65625 "/>
<path style=" stroke:none;fill-rule:nonzero;fill:rgb(59.997559%,59.997559%,59.997559%);fill-opacity:1;" d="M 63.003906 34.65625 L 91.347656 34.65625 L 91.347656 6.308594 L 63.003906 6.308594 Z M 63.003906 34.65625 "/>
<path style=" stroke:none;fill-rule:nonzero;fill:rgb(59.997559%,59.997559%,59.997559%);fill-opacity:1;" d="M 63.003906 63.003906 L 91.347656 63.003906 L 91.347656 34.65625 L 63.003906 34.65625 Z M 63.003906 63.003906 "/>
<path style=" stroke:none;fill-rule:nonzero;fill:rgb(59.997559%,59.997559%,59.997559%);fill-opacity:1;" d="M 91.347656 63.003906 L 119.695312 63.003906 L 119.695312 34.65625 L 91.347656 34.65625 Z M 91.347656 63.003906 "/>
<path style=" stroke:none;fill-rule:nonzero;fill:rgb(0%,0%,0%);fill-opacity:1;" d="M 9.296875 91.347656 C 9.296875 89.699219 7.960938 88.359375 6.308594 88.359375 C 4.660156 88.359375 3.320312 89.699219 3.320312 91.347656 C 3.320312 93 4.660156 94.335938 6.308594 94.335938 C 7.960938 94.335938 9.296875 93 9.296875 91.347656 Z M 9.296875 91.347656 "/>
<g clip-path="url(#clip1)" clip-rule="nonzero">
<path style="fill:none;stroke-width:0.3985;stroke-linecap:butt;stroke-linejoin:miter;stroke:rgb(0%,0%,0%);stroke-opacity:1;stroke-miterlimit:10;" d="M 2.987875 0.00134375 C 2.987875 1.649781 1.651937 2.989625 -0.00040625 2.989625 C -1.648844 2.989625 -2.988688 1.649781 -2.988688 0.00134375 C -2.988688 -1.651 -1.648844 -2.986938 -0.00040625 -2.986938 C 1.651937 -2.986938 2.987875 -1.651 2.987875 0.00134375 Z M 2.987875 0.00134375 " transform="matrix(1,0,0,-1,6.309,91.349)"/>
</g>
<path style=" stroke:none;fill-rule:nonzero;fill:rgb(0%,0%,0%);fill-opacity:1;" d="M 37.644531 91.347656 C 37.644531 89.699219 36.308594 88.359375 34.65625 88.359375 C 33.003906 88.359375 31.667969 89.699219 31.667969 91.347656 C 31.667969 93 33.003906 94.335938 34.65625 94.335938 C 36.308594 94.335938 37.644531 93 37.644531 91.347656 Z M 37.644531 91.347656 "/>
<g clip-path="url(#clip2)" clip-rule="nonzero">
<path style="fill:none;stroke-width:0.3985;stroke-linecap:butt;stroke-linejoin:miter;stroke:rgb(0%,0%,0%);stroke-opacity:1;stroke-miterlimit:10;" d="M 2.988531 0.00134375 C 2.988531 1.649781 1.652594 2.989625 0.00025 2.989625 C -1.652094 2.989625 -2.988031 1.649781 -2.988031 0.00134375 C -2.988031 -1.651 -1.652094 -2.986938 0.00025 -2.986938 C 1.652594 -2.986938 2.988531 -1.651 2.988531 0.00134375 Z M 2.988531 0.00134375 " transform="matrix(1,0,0,-1,34.656,91.349)"/>
</g>
<path style=" stroke:none;fill-rule:nonzero;fill:rgb(0%,0%,0%);fill-opacity:1;" d="M 65.992188 91.347656 C 65.992188 89.699219 64.652344 88.359375 63.003906 88.359375 C 61.351562 88.359375 60.011719 89.699219 60.011719 91.347656 C 60.011719 93 61.351562 94.335938 63.003906 94.335938 C 64.652344 94.335938 65.992188 93 65.992188 91.347656 Z M 65.992188 91.347656 "/>
<g clip-path="url(#clip3)" clip-rule="nonzero">
<path style="fill:none;stroke-width:0.3985;stroke-linecap:butt;stroke-linejoin:miter;stroke:rgb(0%,0%,0%);stroke-opacity:1;stroke-miterlimit:10;" d="M 2.990187 0.00134375 C 2.990187 1.649781 1.650344 2.989625 0.00190625 2.989625 C -1.650438 2.989625 -2.990281 1.649781 -2.990281 0.00134375 C -2.990281 -1.651 -1.650438 -2.986938 0.00190625 -2.986938 C 1.650344 -2.986938 2.990187 -1.651 2.990187 0.00134375 Z M 2.990187 0.00134375 " transform="matrix(1,0,0,-1,63.002,91.349)"/>
</g>
<path style=" stroke:none;fill-rule:nonzero;fill:rgb(0%,0%,0%);fill-opacity:1;" d="M 94.335938 91.347656 C 94.335938 89.699219 93 88.359375 91.347656 88.359375 C 89.699219 88.359375 88.359375 89.699219 88.359375 91.347656 C 88.359375 93 89.699219 94.335938 91.347656 94.335938 C 93 94.335938 94.335938 93 94.335938 91.347656 Z M 94.335938 91.347656 "/>
<g clip-path="url(#clip4)" clip-rule="nonzero">
<path style="fill:none;stroke-width:0.3985;stroke-linecap:butt;stroke-linejoin:miter;stroke:rgb(0%,0%,0%);stroke-opacity:1;stroke-miterlimit:10;" d="M 2.986937 0.00134375 C 2.986937 1.649781 1.651 2.989625 -0.00134375 2.989625 C -1.649781 2.989625 -2.989625 1.649781 -2.989625 0.00134375 C -2.989625 -1.651 -1.649781 -2.986938 -0.00134375 -2.986938 C 1.651 -2.986938 2.986937 -1.651 2.986937 0.00134375 Z M 2.986937 0.00134375 " transform="matrix(1,0,0,-1,91.349,91.349)"/>
</g>
<path style=" stroke:none;fill-rule:nonzero;fill:rgb(0%,0%,0%);fill-opacity:1;" d="M 122.683594 91.347656 C 122.683594 89.699219 121.34375 88.359375 119.695312 88.359375 C 118.042969 88.359375 116.707031 89.699219 116.707031 91.347656 C 116.707031 93 118.042969 94.335938 119.695312 94.335938 C 121.34375 94.335938 122.683594 93 122.683594 91.347656 Z M 122.683594 91.347656 "/>
<g clip-path="url(#clip5)" clip-rule="nonzero">
<path style="fill:none;stroke-width:0.3985;stroke-linecap:butt;stroke-linejoin:miter;stroke:rgb(0%,0%,0%);stroke-opacity:1;stroke-miterlimit:10;" d="M 2.988594 0.00134375 C 2.988594 1.649781 1.64875 2.989625 0.0003125 2.989625 C -1.652031 2.989625 -2.987969 1.649781 -2.987969 0.00134375 C -2.987969 -1.651 -1.652031 -2.986938 0.0003125 -2.986938 C 1.64875 -2.986938 2.988594 -1.651 2.988594 0.00134375 Z M 2.988594 0.00134375 " transform="matrix(1,0,0,-1,119.695,91.349)"/>
</g>
<path style="fill-rule:nonzero;fill:rgb(0%,0%,0%);fill-opacity:1;stroke-width:0.3985;stroke-linecap:butt;stroke-linejoin:miter;stroke:rgb(0%,0%,0%);stroke-opacity:1;stroke-miterlimit:10;" d="M 2.988531 -0.00190625 C 2.988531 1.650437 1.652594 2.990281 0.00025 2.990281 C -1.652094 2.990281 -2.988031 1.650437 -2.988031 -0.00190625 C -2.988031 -1.650344 -1.652094 -2.990188 0.00025 -2.990188 C 1.652594 -2.990188 2.988531 -1.650344 2.988531 -0.00190625 Z M 2.988531 -0.00190625 " transform="matrix(1,0,0,-1,34.656,63.002)"/>
<path style="fill-rule:nonzero;fill:rgb(0%,0%,0%);fill-opacity:1;stroke-width:0.3985;stroke-linecap:butt;stroke-linejoin:miter;stroke:rgb(0%,0%,0%);stroke-opacity:1;stroke-miterlimit:10;" d="M 2.990187 -0.00190625 C 2.990187 1.650437 1.650344 2.990281 0.00190625 2.990281 C -1.650438 2.990281 -2.990281 1.650437 -2.990281 -0.00190625 C -2.990281 -1.650344 -1.650438 -2.990188 0.00190625 -2.990188 C 1.650344 -2.990188 2.990187 -1.650344 2.990187 -0.00190625 Z M 2.990187 -0.00190625 " transform="matrix(1,0,0,-1,63.002,63.002)"/>
<path style="fill-rule:nonzero;fill:rgb(0%,0%,0%);fill-opacity:1;stroke-width:0.3985;stroke-linecap:butt;stroke-linejoin:miter;stroke:rgb(0%,0%,0%);stroke-opacity:1;stroke-miterlimit:10;" d="M 2.986937 -0.00190625 C 2.986937 1.650437 1.651 2.990281 -0.00134375 2.990281 C -1.649781 2.990281 -2.989625 1.650437 -2.989625 -0.00190625 C -2.989625 -1.650344 -1.649781 -2.990188 -0.00134375 -2.990188 C 1.651 -2.990188 2.986937 -1.650344 2.986937 -0.00190625 Z M 2.986937 -0.00190625 " transform="matrix(1,0,0,-1,91.349,63.002)"/>
<path style=" stroke:none;fill-rule:nonzero;fill:rgb(0%,0%,0%);fill-opacity:1;" d="M 122.683594 63.003906 C 122.683594 61.351562 121.34375 60.011719 119.695312 60.011719 C 118.042969 60.011719 116.707031 61.351562 116.707031 63.003906 C 116.707031 64.652344 118.042969 65.992188 119.695312 65.992188 C 121.34375 65.992188 122.683594 64.652344 122.683594 63.003906 Z M 122.683594 63.003906 "/>
<g clip-path="url(#clip6)" clip-rule="nonzero">
<path style="fill:none;stroke-width:0.3985;stroke-linecap:butt;stroke-linejoin:miter;stroke:rgb(0%,0%,0%);stroke-opacity:1;stroke-miterlimit:10;" d="M 2.988594 -0.00190625 C 2.988594 1.650437 1.64875 2.990281 0.0003125 2.990281 C -1.652031 2.990281 -2.987969 1.650437 -2.987969 -0.00190625 C -2.987969 -1.650344 -1.652031 -2.990188 0.0003125 -2.990188 C 1.64875 -2.990188 2.988594 -1.650344 2.988594 -0.00190625 Z M 2.988594 -0.00190625 " transform="matrix(1,0,0,-1,119.695,63.002)"/>
</g>
<path style="fill-rule:nonzero;fill:rgb(0%,0%,0%);fill-opacity:1;stroke-width:0.3985;stroke-linecap:butt;stroke-linejoin:miter;stroke:rgb(0%,0%,0%);stroke-opacity:1;stroke-miterlimit:10;" d="M 2.988531 -0.00025 C 2.988531 1.652094 1.652594 2.988031 0.00025 2.988031 C -1.652094 2.988031 -2.988031 1.652094 -2.988031 -0.00025 C -2.988031 -1.652594 -1.652094 -2.988531 0.00025 -2.988531 C 1.652594 -2.988531 2.988531 -1.652594 2.988531 -0.00025 Z M 2.988531 -0.00025 " transform="matrix(1,0,0,-1,34.656,34.656)"/>
<path style="fill-rule:nonzero;fill:rgb(0%,0%,0%);fill-opacity:1;stroke-width:0.3985;stroke-linecap:butt;stroke-linejoin:miter;stroke:rgb(0%,0%,0%);stroke-opacity:1;stroke-miterlimit:10;" d="M 2.990187 -0.00025 C 2.990187 1.652094 1.650344 2.988031 0.00190625 2.988031 C -1.650438 2.988031 -2.990281 1.652094 -2.990281 -0.00025 C -2.990281 -1.652594 -1.650438 -2.988531 0.00190625 -2.988531 C 1.650344 -2.988531 2.990187 -1.652594 2.990187 -0.00025 Z M 2.990187 -0.00025 " transform="matrix(1,0,0,-1,63.002,34.656)"/>
<path style="fill-rule:nonzero;fill:rgb(0%,0%,0%);fill-opacity:1;stroke-width:0.3985;stroke-linecap:butt;stroke-linejoin:miter;stroke:rgb(0%,0%,0%);stroke-opacity:1;stroke-miterlimit:10;" d="M 2.986937 -0.00025 C 2.986937 1.652094 1.651 2.988031 -0.00134375 2.988031 C -1.649781 2.988031 -2.989625 1.652094 -2.989625 -0.00025 C -2.989625 -1.652594 -1.649781 -2.988531 -0.00134375 -2.988531 C 1.651 -2.988531 2.986937 -1.652594 2.986937 -0.00025 Z M 2.986937 -0.00025 " transform="matrix(1,0,0,-1,91.349,34.656)"/>
<path style=" stroke:none;fill-rule:nonzero;fill:rgb(0%,0%,0%);fill-opacity:1;" d="M 122.683594 34.65625 C 122.683594 33.003906 121.34375 31.667969 119.695312 31.667969 C 118.042969 31.667969 116.707031 33.003906 116.707031 34.65625 C 116.707031 36.308594 118.042969 37.644531 119.695312 37.644531 C 121.34375 37.644531 122.683594 36.308594 122.683594 34.65625 Z M 122.683594 34.65625 "/>
<g clip-path="url(#clip7)" clip-rule="nonzero">
<path style="fill:none;stroke-width:0.3985;stroke-linecap:butt;stroke-linejoin:miter;stroke:rgb(0%,0%,0%);stroke-opacity:1;stroke-miterlimit:10;" d="M 2.988594 -0.00025 C 2.988594 1.652094 1.64875 2.988031 0.0003125 2.988031 C -1.652031 2.988031 -2.987969 1.652094 -2.987969 -0.00025 C -2.987969 -1.652594 -1.652031 -2.988531 0.0003125 -2.988531 C 1.64875 -2.988531 2.988594 -1.652594 2.988594 -0.00025 Z M 2.988594 -0.00025 " transform="matrix(1,0,0,-1,119.695,34.656)"/>
</g>
<path style="fill-rule:nonzero;fill:rgb(0%,0%,0%);fill-opacity:1;stroke-width:0.3985;stroke-linecap:butt;stroke-linejoin:miter;stroke:rgb(0%,0%,0%);stroke-opacity:1;stroke-miterlimit:10;" d="M 2.988531 0.00040625 C 2.988531 1.648844 1.652594 2.988687 0.00025 2.988687 C -1.652094 2.988687 -2.988031 1.648844 -2.988031 0.00040625 C -2.988031 -1.651938 -1.652094 -2.987875 0.00025 -2.987875 C 1.652594 -2.987875 2.988531 -1.651938 2.988531 0.00040625 Z M 2.988531 0.00040625 " transform="matrix(1,0,0,-1,34.656,6.309)"/>
<path style="fill-rule:nonzero;fill:rgb(0%,0%,0%);fill-opacity:1;stroke-width:0.3985;stroke-linecap:butt;stroke-linejoin:miter;stroke:rgb(0%,0%,0%);stroke-opacity:1;stroke-miterlimit:10;" d="M 2.990187 0.00040625 C 2.990187 1.648844 1.650344 2.988687 0.00190625 2.988687 C -1.650438 2.988687 -2.990281 1.648844 -2.990281 0.00040625 C -2.990281 -1.651938 -1.650438 -2.987875 0.00190625 -2.987875 C 1.650344 -2.987875 2.990187 -1.651938 2.990187 0.00040625 Z M 2.990187 0.00040625 " transform="matrix(1,0,0,-1,63.002,6.309)"/>
<path style="fill-rule:nonzero;fill:rgb(0%,0%,0%);fill-opacity:1;stroke-width:0.3985;stroke-linecap:butt;stroke-linejoin:miter;stroke:rgb(0%,0%,0%);stroke-opacity:1;stroke-miterlimit:10;" d="M 2.986937 0.00040625 C 2.986937 1.648844 1.651 2.988687 -0.00134375 2.988687 C -1.649781 2.988687 -2.989625 1.648844 -2.989625 0.00040625 C -2.989625 -1.651938 -1.649781 -2.987875 -0.00134375 -2.987875 C 1.651 -2.987875 2.986937 -1.651938 2.986937 0.00040625 Z M 2.986937 0.00040625 " transform="matrix(1,0,0,-1,91.349,6.309)"/>
<path style="fill:none;stroke-width:0.79701;stroke-linecap:butt;stroke-linejoin:miter;stroke:rgb(0%,0%,0%);stroke-opacity:1;stroke-miterlimit:10;" d="M -0.00040625 0.00134375 L 85.038656 0.00134375 " transform="matrix(1,0,0,-1,6.309,91.349)"/>
<path style="fill:none;stroke-width:0.79701;stroke-linecap:butt;stroke-linejoin:miter;stroke:rgb(0%,0%,0%);stroke-opacity:1;stroke-miterlimit:10;" d="M 56.694906 28.345094 L 113.386313 28.345094 " transform="matrix(1,0,0,-1,6.309,91.349)"/>
<path style="fill:none;stroke-width:0.79701;stroke-linecap:butt;stroke-linejoin:miter;stroke:rgb(0%,0%,0%);stroke-opacity:1;stroke-miterlimit:10;" d="M 28.34725 56.69275 L 113.386313 56.69275 " transform="matrix(1,0,0,-1,6.309,91.349)"/>
<path style="fill:none;stroke-width:0.79701;stroke-linecap:butt;stroke-linejoin:miter;stroke:rgb(0%,0%,0%);stroke-opacity:1;stroke-miterlimit:10;" d="M 28.34725 85.040406 L 85.038656 85.040406 " transform="matrix(1,0,0,-1,6.309,91.349)"/>
<path style="fill:none;stroke-width:0.79701;stroke-linecap:butt;stroke-linejoin:miter;stroke:rgb(0%,0%,0%);stroke-opacity:1;stroke-miterlimit:10;" d="M 28.34725 56.69275 L 28.34725 85.040406 " transform="matrix(1,0,0,-1,6.309,91.349)"/>
<path style="fill:none;stroke-width:0.79701;stroke-linecap:butt;stroke-linejoin:miter;stroke:rgb(0%,0%,0%);stroke-opacity:1;stroke-miterlimit:10;" d="M 56.694906 0.00134375 L 56.694906 85.040406 " transform="matrix(1,0,0,-1,6.309,91.349)"/>
<path style="fill:none;stroke-width:0.79701;stroke-linecap:butt;stroke-linejoin:miter;stroke:rgb(0%,0%,0%);stroke-opacity:1;stroke-miterlimit:10;" d="M 85.038656 0.00134375 L 85.038656 85.040406 " transform="matrix(1,0,0,-1,6.309,91.349)"/>
<path style="fill:none;stroke-width:0.79701;stroke-linecap:butt;stroke-linejoin:miter;stroke:rgb(0%,0%,0%);stroke-opacity:1;stroke-miterlimit:10;" d="M 113.386313 28.345094 L 113.386313 56.69275 " transform="matrix(1,0,0,-1,6.309,91.349)"/>
<path style="fill-rule:nonzero;fill:rgb(83.999634%,83.999634%,83.999634%);fill-opacity:1;stroke-width:0.79701;stroke-linecap:butt;stroke-linejoin:miter;stroke:rgb(0%,0%,0%);stroke-opacity:1;stroke-miterlimit:10;" d="M 42.519125 42.520875 L 14.171469 42.520875 L 14.171469 70.868531 L 42.519125 70.868531 Z M 42.519125 42.520875 " transform="matrix(1,0,0,-1,6.309,91.349)"/>
<path style="fill-rule:nonzero;fill:rgb(75.999451%,75.999451%,75.999451%);fill-opacity:1;stroke-width:0.79701;stroke-linecap:butt;stroke-linejoin:miter;stroke:rgb(0%,0%,0%);stroke-opacity:1;stroke-miterlimit:10;" d="M 42.519125 42.520875 L 56.694906 56.69275 L 56.694906 85.040406 L 42.519125 70.868531 Z M 42.519125 42.520875 " transform="matrix(1,0,0,-1,6.309,91.349)"/>
<path style="fill-rule:nonzero;fill:rgb(67.999268%,67.999268%,67.999268%);fill-opacity:1;stroke-width:0.79701;stroke-linecap:butt;stroke-linejoin:miter;stroke:rgb(0%,0%,0%);stroke-opacity:1;stroke-miterlimit:10;" d="M 42.519125 70.868531 L 56.694906 85.040406 L 28.34725 85.040406 L 14.171469 70.868531 Z M 42.519125 70.868531 " transform="matrix(1,0,0,-1,6.309,91.349)"/>
<path style="fill:none;stroke-width:0.79701;stroke-linecap:butt;stroke-linejoin:miter;stroke:rgb(0%,0%,0%);stroke-opacity:1;stroke-miterlimit:10;" d="M 42.519125 42.520875 L 14.171469 42.520875 L 14.171469 14.173219 L 42.519125 14.173219 Z M 42.519125 42.520875 " transform="matrix(1,0,0,-1,6.309,91.349)"/>
<path style="fill:none;stroke-width:0.79701;stroke-linecap:butt;stroke-linejoin:miter;stroke:rgb(0%,0%,0%);stroke-opacity:1;stroke-miterlimit:10;" d="M 14.171469 14.173219 L 28.34725 28.345094 " transform="matrix(1,0,0,-1,6.309,91.349)"/>
<path style="fill:none;stroke-width:0.79701;stroke-linecap:butt;stroke-linejoin:miter;stroke:rgb(0%,0%,0%);stroke-opacity:1;stroke-miterlimit:10;" d="M 42.519125 14.173219 L 56.694906 28.345094 " transform="matrix(1,0,0,-1,6.309,91.349)"/>
<path style="fill:none;stroke-width:0.79701;stroke-linecap:butt;stroke-linejoin:miter;stroke:rgb(0%,0%,0%);stroke-opacity:1;stroke-dasharray:0.79701,1.99255;stroke-miterlimit:10;" d="M 14.171469 42.520875 L 28.34725 56.69275 L 28.34725 85.040406 " transform="matrix(1,0,0,-1,6.309,91.349)"/>
<path style="fill:none;stroke-width:0.79701;stroke-linecap:butt;stroke-linejoin:miter;stroke:rgb(0%,0%,0%);stroke-opacity:1;stroke-dasharray:0.79701,1.99255;stroke-miterlimit:10;" d="M 28.34725 56.69275 L 56.694906 56.69275 " transform="matrix(1,0,0,-1,6.309,91.349)"/>
<path style="fill-rule:nonzero;fill:rgb(0%,0%,0%);fill-opacity:1;stroke-width:0.3985;stroke-linecap:butt;stroke-linejoin:miter;stroke:rgb(0%,0%,0%);stroke-opacity:1;stroke-miterlimit:10;" d="M 2.990656 0.00021875 C 2.990656 1.652562 1.650813 2.9885 -0.00153125 2.9885 C -1.649969 2.9885 -2.989812 1.652562 -2.989812 0.00021875 C -2.989812 -1.652125 -1.649969 -2.988063 -0.00153125 -2.988063 C 1.650813 -2.988063 2.990656 -1.652125 2.990656 0.00021875 Z M 2.990656 0.00021875 " transform="matrix(1,0,0,-1,20.482,77.176)"/>
<path style="fill-rule:nonzero;fill:rgb(0%,0%,0%);fill-opacity:1;stroke-width:0.3985;stroke-linecap:butt;stroke-linejoin:miter;stroke:rgb(0%,0%,0%);stroke-opacity:1;stroke-miterlimit:10;" d="M 2.987406 0.00021875 C 2.987406 1.652562 1.651469 2.9885 -0.000875 2.9885 C -1.649313 2.9885 -2.989156 1.652562 -2.989156 0.00021875 C -2.989156 -1.652125 -1.649313 -2.988063 -0.000875 -2.988063 C 1.651469 -2.988063 2.987406 -1.652125 2.987406 0.00021875 Z M 2.987406 0.00021875 " transform="matrix(1,0,0,-1,48.829,77.176)"/>
<path style="fill-rule:nonzero;fill:rgb(0%,0%,0%);fill-opacity:1;stroke-width:0.3985;stroke-linecap:butt;stroke-linejoin:miter;stroke:rgb(0%,0%,0%);stroke-opacity:1;stroke-miterlimit:10;" d="M 2.988531 0.00040625 C 2.988531 1.648844 1.652594 2.988687 0.00025 2.988687 C -1.652094 2.988687 -2.988031 1.648844 -2.988031 0.00040625 C -2.988031 -1.651938 -1.652094 -2.987875 0.00025 -2.987875 C 1.652594 -2.987875 2.988531 -1.651938 2.988531 0.00040625 Z M 2.988531 0.00040625 " transform="matrix(1,0,0,-1,34.656,6.309)"/>
<path style="fill-rule:nonzero;fill:rgb(0%,0%,0%);fill-opacity:1;stroke-width:0.3985;stroke-linecap:butt;stroke-linejoin:miter;stroke:rgb(0%,0%,0%);stroke-opacity:1;stroke-miterlimit:10;" d="M 2.990187 0.00040625 C 2.990187 1.648844 1.650344 2.988687 0.00190625 2.988687 C -1.650438 2.988687 -2.990281 1.648844 -2.990281 0.00040625 C -2.990281 -1.651938 -1.650438 -2.987875 0.00190625 -2.987875 C 1.650344 -2.987875 2.990187 -1.651938 2.990187 0.00040625 Z M 2.990187 0.00040625 " transform="matrix(1,0,0,-1,63.002,6.309)"/>
<path style="fill-rule:nonzero;fill:rgb(0%,0%,0%);fill-opacity:1;stroke-width:0.3985;stroke-linecap:butt;stroke-linejoin:miter;stroke:rgb(0%,0%,0%);stroke-opacity:1;stroke-miterlimit:10;" d="M 2.990187 -0.00025 C 2.990187 1.652094 1.650344 2.988031 0.00190625 2.988031 C -1.650438 2.988031 -2.990281 1.652094 -2.990281 -0.00025 C -2.990281 -1.652594 -1.650438 -2.988531 0.00190625 -2.988531 C 1.650344 -2.988531 2.990187 -1.652594 2.990187 -0.00025 Z M 2.990187 -0.00025 " transform="matrix(1,0,0,-1,63.002,34.656)"/>
<path style="fill-rule:nonzero;fill:rgb(0%,0%,0%);fill-opacity:1;stroke-width:0.3985;stroke-linecap:butt;stroke-linejoin:miter;stroke:rgb(0%,0%,0%);stroke-opacity:1;stroke-miterlimit:10;" d="M 2.987406 0.000875 C 2.987406 1.649312 1.651469 2.989156 -0.000875 2.989156 C -1.649313 2.989156 -2.989156 1.649312 -2.989156 0.000875 C -2.989156 -1.651469 -1.649313 -2.987406 -0.000875 -2.987406 C 1.651469 -2.987406 2.987406 -1.651469 2.987406 0.000875 Z M 2.987406 0.000875 " transform="matrix(1,0,0,-1,48.829,48.829)"/>
<path style="fill-rule:nonzero;fill:rgb(0%,0%,0%);fill-opacity:1;stroke-width:0.3985;stroke-linecap:butt;stroke-linejoin:miter;stroke:rgb(0%,0%,0%);stroke-opacity:1;stroke-miterlimit:10;" d="M 2.990656 0.000875 C 2.990656 1.649312 1.650813 2.989156 -0.00153125 2.989156 C -1.649969 2.989156 -2.989812 1.649312 -2.989812 0.000875 C -2.989812 -1.651469 -1.649969 -2.987406 -0.00153125 -2.987406 C 1.650813 -2.987406 2.990656 -1.651469 2.990656 0.000875 Z M 2.990656 0.000875 " transform="matrix(1,0,0,-1,20.482,48.829)"/>
<path style="fill-rule:nonzero;fill:rgb(0%,0%,0%);fill-opacity:1;stroke-width:0.3985;stroke-linecap:butt;stroke-linejoin:miter;stroke:rgb(0%,0%,0%);stroke-opacity:1;stroke-miterlimit:10;" d="M 2.990656 -0.001375 C 2.990656 1.650969 1.650813 2.986906 -0.00153125 2.986906 C -1.649969 2.986906 -2.989812 1.650969 -2.989812 -0.001375 C -2.989812 -1.649813 -1.649969 -2.989656 -0.00153125 -2.989656 C 1.650813 -2.989656 2.990656 -1.649813 2.990656 -0.001375 Z M 2.990656 -0.001375 " transform="matrix(1,0,0,-1,20.482,20.483)"/>
<path style="fill-rule:nonzero;fill:rgb(0%,0%,0%);fill-opacity:1;stroke-width:0.3985;stroke-linecap:butt;stroke-linejoin:miter;stroke:rgb(0%,0%,0%);stroke-opacity:1;stroke-miterlimit:10;" d="M 2.987406 -0.001375 C 2.987406 1.650969 1.651469 2.986906 -0.000875 2.986906 C -1.649313 2.986906 -2.989156 1.650969 -2.989156 -0.001375 C -2.989156 -1.649813 -1.649313 -2.989656 -0.000875 -2.989656 C 1.651469 -2.989656 2.987406 -1.649813 2.987406 -0.001375 Z M 2.987406 -0.001375 " transform="matrix(1,0,0,-1,48.829,20.483)"/>
</g>
</svg>
