<?xml version="1.0" encoding="UTF-8"?>
<svg xmlns="http://www.w3.org/2000/svg" xmlns:xlink="http://www.w3.org/1999/xlink" width="425.339pt" height="246.347pt" viewBox="0 0 425.339 246.347" version="1.1">
<defs>
<clipPath id="clip1">
  <path d="M 187 0 L 425.339844 0 L 425.339844 246.347656 L 187 246.347656 Z M 187 0 "/>
</clipPath>
<clipPath id="clip2">
  <path d="M 393 94 L 425.339844 94 L 425.339844 131 L 393 131 Z M 393 94 "/>
</clipPath>
<clipPath id="clip3">
  <path d="M 213 0 L 425.339844 0 L 425.339844 246.347656 L 213 246.347656 Z M 213 0 "/>
</clipPath>
<clipPath id="clip4">
  <path d="M 311 42 L 425.339844 42 L 425.339844 246.347656 L 311 246.347656 Z M 311 42 "/>
</clipPath>
<clipPath id="clip5">
  <path d="M 283 0 L 425.339844 0 L 425.339844 183 L 283 183 Z M 283 0 "/>
</clipPath>
<clipPath id="clip6">
  <path d="M 311 0 L 425.339844 0 L 425.339844 183 L 311 183 Z M 311 0 "/>
</clipPath>
<clipPath id="clip7">
  <path d="M 393 94 L 425.339844 94 L 425.339844 131 L 393 131 Z M 393 94 "/>
</clipPath>
<clipPath id="clip8">
  <path d="M 395 96 L 425.339844 96 L 425.339844 129 L 395 129 Z M 395 96 "/>
</clipPath>
</defs>
<g id="surface1">
<path style="fill:none;stroke-width:4.98138;stroke-linecap:round;stroke-linejoin:miter;stroke:rgb(33.332825%,33.332825%,33.332825%);stroke-opacity:1;stroke-miterlimit:10;" d="M -104.882969 -42.519687 L -104.882969 42.519375 " transform="matrix(1,0,0,-1,127.215,183.41)"/>
<path style="fill:none;stroke-width:4.98138;stroke-linecap:round;stroke-linejoin:miter;stroke:rgb(33.332825%,33.332825%,33.332825%);stroke-opacity:1;stroke-miterlimit:10;" d="M -113.386875 113.386563 L -113.386875 14.171719 " transform="matrix(1,0,0,-1,127.215,183.41)"/>
<path style="fill:none;stroke-width:4.98138;stroke-linecap:round;stroke-linejoin:miter;stroke:rgb(33.332825%,33.332825%,33.332825%);stroke-opacity:1;stroke-miterlimit:10;" d="M -104.882969 92.12875 L -104.882969 155.906094 " transform="matrix(1,0,0,-1,127.215,183.41)"/>
<path style=" stroke:none;fill-rule:nonzero;fill:rgb(39.216614%,56.077576%,100%);fill-opacity:0.75;" d="M 32.984375 225.929688 L 51.367188 225.929688 C 54.117188 225.929688 56.347656 223.699219 56.347656 220.949219 L 56.347656 145.871094 C 56.347656 143.121094 54.117188 140.890625 51.367188 140.890625 L 32.984375 140.890625 C 30.230469 140.890625 28 143.121094 28 145.871094 L 28 220.949219 C 28 223.699219 30.230469 225.929688 32.984375 225.929688 Z M 32.984375 225.929688 "/>
<path style=" stroke:none;fill-rule:nonzero;fill:rgb(86.274719%,14.901733%,49.804688%);fill-opacity:0.75;" d="M 32.984375 169.238281 L 51.367188 169.238281 C 54.117188 169.238281 56.347656 167.007812 56.347656 164.253906 L 56.347656 75.003906 C 56.347656 72.253906 54.117188 70.023438 51.367188 70.023438 L 32.984375 70.023438 C 30.230469 70.023438 28 72.253906 28 75.003906 L 28 164.253906 C 28 167.007812 30.230469 169.238281 32.984375 169.238281 Z M 32.984375 169.238281 "/>
<path style=" stroke:none;fill-rule:nonzero;fill:rgb(100%,69.018555%,0%);fill-opacity:0.75;" d="M 32.984375 91.28125 L 51.367188 91.28125 C 54.117188 91.28125 56.347656 89.050781 56.347656 86.300781 L 56.347656 32.484375 C 56.347656 29.734375 54.117188 27.503906 51.367188 27.503906 L 32.984375 27.503906 C 30.230469 27.503906 28 29.734375 28 32.484375 L 28 86.300781 C 28 89.050781 30.230469 91.28125 32.984375 91.28125 Z M 32.984375 91.28125 "/>
<path style="fill:none;stroke-width:3.9851;stroke-linecap:butt;stroke-linejoin:miter;stroke:rgb(0%,0%,0%);stroke-opacity:1;stroke-miterlimit:10;" d="M -85.039219 -49.605625 L -85.039219 165.640469 " transform="matrix(1,0,0,-1,127.215,183.41)"/>
<path style="fill:none;stroke-width:3.9851;stroke-linecap:butt;stroke-linejoin:miter;stroke:rgb(0%,0%,0%);stroke-opacity:1;stroke-miterlimit:10;" d="M 0.0013075 6.975341 L 4.981776 -0.00122125 L 0.0013075 -6.973878 " transform="matrix(0,-1,-1,0,42.17456,20.75912)"/>
<path style="fill-rule:nonzero;fill:rgb(39.216614%,56.077576%,100%);fill-opacity:0.75;stroke-width:2.00003;stroke-linecap:butt;stroke-linejoin:miter;stroke:rgb(39.216614%,56.077576%,100%);stroke-opacity:0.75;stroke-miterlimit:10;" d="M 3.987 0.00096875 C 3.987 2.200188 2.201844 3.985344 -0.00128125 3.985344 C -2.2005 3.985344 -3.985656 2.200188 -3.985656 0.00096875 C -3.985656 -2.202156 -2.2005 -3.983406 -0.00128125 -3.983406 C 2.201844 -3.983406 3.987 -2.202156 3.987 0.00096875 Z M 3.987 0.00096875 " transform="matrix(1,0,0,-1,141.388,197.583)"/>
<path style="fill-rule:nonzero;fill:rgb(39.216614%,56.077576%,100%);fill-opacity:0.75;stroke-width:2.00003;stroke-linecap:butt;stroke-linejoin:miter;stroke:rgb(39.216614%,56.077576%,100%);stroke-opacity:0.75;stroke-miterlimit:10;" d="M 3.985875 -0.00015625 C 3.985875 2.199063 2.200719 3.984219 0.0015 3.984219 C -2.201625 3.984219 -3.986781 2.199063 -3.986781 -0.00015625 C -3.986781 -2.199375 -2.201625 -3.984531 0.0015 -3.984531 C 2.200719 -3.984531 3.985875 -2.199375 3.985875 -0.00015625 Z M 3.985875 -0.00015625 " transform="matrix(1,0,0,-1,155.561,183.41)"/>
<path style="fill-rule:nonzero;fill:rgb(39.216614%,56.077576%,100%);fill-opacity:0.75;stroke-width:2.00003;stroke-linecap:butt;stroke-linejoin:miter;stroke:rgb(39.216614%,56.077576%,100%);stroke-opacity:0.75;stroke-miterlimit:10;" d="M 3.984219 -0.00015625 C 3.984219 2.199063 2.199062 3.984219 -0.00015625 3.984219 C -2.199375 3.984219 -3.984531 2.199063 -3.984531 -0.00015625 C -3.984531 -2.199375 -2.199375 -3.984531 -0.00015625 -3.984531 C 2.199062 -3.984531 3.984219 -2.199375 3.984219 -0.00015625 Z M 3.984219 -0.00015625 " transform="matrix(1,0,0,-1,127.215,183.41)"/>
<path style="fill-rule:nonzero;fill:rgb(39.216614%,56.077576%,100%);fill-opacity:0.75;stroke-width:2.00003;stroke-linecap:butt;stroke-linejoin:miter;stroke:rgb(39.216614%,56.077576%,100%);stroke-opacity:0.75;stroke-miterlimit:10;" d="M 3.98375 0.00103125 C 3.98375 2.20025 2.2025 3.985406 -0.000625 3.985406 C -2.199844 3.985406 -3.985 2.20025 -3.985 0.00103125 C -3.985 -2.202094 -2.199844 -3.983344 -0.000625 -3.983344 C 2.2025 -3.983344 3.98375 -2.202094 3.98375 0.00103125 Z M 3.98375 0.00103125 " transform="matrix(1,0,0,-1,169.735,204.669)"/>
<path style="fill-rule:nonzero;fill:rgb(39.216614%,56.077576%,100%);fill-opacity:0.75;stroke-width:2.00003;stroke-linecap:butt;stroke-linejoin:miter;stroke:rgb(39.216614%,56.077576%,100%);stroke-opacity:0.75;stroke-miterlimit:10;" d="M 3.986531 0.00096875 C 3.986531 2.200188 2.201375 3.985344 -0.00175 3.985344 C -2.200969 3.985344 -3.986125 2.200188 -3.986125 0.00096875 C -3.986125 -2.202156 -2.200969 -3.983406 -0.00175 -3.983406 C 2.201375 -3.983406 3.986531 -2.202156 3.986531 0.00096875 Z M 3.986531 0.00096875 " transform="matrix(1,0,0,-1,183.908,197.583)"/>
<path style="fill-rule:nonzero;fill:rgb(39.216614%,56.077576%,100%);fill-opacity:0.75;stroke-width:2.00003;stroke-linecap:butt;stroke-linejoin:miter;stroke:rgb(39.216614%,56.077576%,100%);stroke-opacity:0.75;stroke-miterlimit:10;" d="M 3.984344 -0.00015625 C 3.984344 2.199063 2.199187 3.984219 -0.00003125 3.984219 C -2.19925 3.984219 -3.984406 2.199063 -3.984406 -0.00015625 C -3.984406 -2.199375 -2.19925 -3.984531 -0.00003125 -3.984531 C 2.199187 -3.984531 3.984344 -2.199375 3.984344 -0.00015625 Z M 3.984344 -0.00015625 " transform="matrix(1,0,0,-1,205.168,183.41)"/>
<path style="fill-rule:nonzero;fill:rgb(39.216614%,56.077576%,100%);fill-opacity:0.75;stroke-width:2.00003;stroke-linecap:butt;stroke-linejoin:miter;stroke:rgb(39.216614%,56.077576%,100%);stroke-opacity:0.75;stroke-miterlimit:10;" d="M 3.984281 0.00096875 C 3.984281 2.200188 2.199125 3.985344 -0.00009375 3.985344 C -2.199313 3.985344 -3.984469 2.200188 -3.984469 0.00096875 C -3.984469 -2.202156 -2.199313 -3.983406 -0.00009375 -3.983406 C 2.199125 -3.983406 3.984281 -2.202156 3.984281 0.00096875 Z M 3.984281 0.00096875 " transform="matrix(1,0,0,-1,212.254,197.583)"/>
<path style="fill-rule:nonzero;fill:rgb(39.216614%,56.077576%,100%);fill-opacity:0.75;stroke-width:2.00003;stroke-linecap:butt;stroke-linejoin:miter;stroke:rgb(39.216614%,56.077576%,100%);stroke-opacity:0.75;stroke-miterlimit:10;" d="M 3.986063 -0.00015625 C 3.986063 2.199063 2.200906 3.984219 0.0016875 3.984219 C -2.201437 3.984219 -3.986594 2.199063 -3.986594 -0.00015625 C -3.986594 -2.199375 -2.201437 -3.984531 0.0016875 -3.984531 C 2.200906 -3.984531 3.986063 -2.199375 3.986063 -0.00015625 Z M 3.986063 -0.00015625 " transform="matrix(1,0,0,-1,226.428,183.41)"/>
<path style="fill-rule:nonzero;fill:rgb(39.216614%,56.077576%,100%);fill-opacity:0.75;stroke-width:2.00003;stroke-linecap:butt;stroke-linejoin:miter;stroke:rgb(39.216614%,56.077576%,100%);stroke-opacity:0.75;stroke-miterlimit:10;" d="M 3.984938 -0.00121875 C 3.984938 2.201906 2.199781 3.983156 0.0005625 3.983156 C -2.202562 3.983156 -3.983812 2.201906 -3.983812 -0.00121875 C -3.983812 -2.200437 -2.202562 -3.985594 0.0005625 -3.985594 C 2.199781 -3.985594 3.984938 -2.200437 3.984938 -0.00121875 Z M 3.984938 -0.00121875 " transform="matrix(1,0,0,-1,240.601,176.323)"/>
<path style="fill-rule:nonzero;fill:rgb(39.216614%,56.077576%,100%);fill-opacity:0.75;stroke-width:2.00003;stroke-linecap:butt;stroke-linejoin:miter;stroke:rgb(39.216614%,56.077576%,100%);stroke-opacity:0.75;stroke-miterlimit:10;" d="M 3.984219 0.0004375 C 3.984219 2.199656 2.199062 3.984813 -0.00015625 3.984813 C -2.199375 3.984813 -3.984531 2.199656 -3.984531 0.0004375 C -3.984531 -2.202687 -2.199375 -3.983937 -0.00015625 -3.983937 C 2.199062 -3.983937 3.984219 -2.202687 3.984219 0.0004375 Z M 3.984219 0.0004375 " transform="matrix(1,0,0,-1,127.215,147.977)"/>
<path style="fill-rule:nonzero;fill:rgb(39.216614%,56.077576%,100%);fill-opacity:0.75;stroke-width:2.00003;stroke-linecap:butt;stroke-linejoin:miter;stroke:rgb(39.216614%,56.077576%,100%);stroke-opacity:0.75;stroke-miterlimit:10;" d="M 3.984219 0.0015625 C 3.984219 2.200781 2.199062 3.985938 -0.00015625 3.985938 C -2.199375 3.985938 -3.984531 2.200781 -3.984531 0.0015625 C -3.984531 -2.201562 -2.199375 -3.986719 -0.00015625 -3.986719 C 2.199062 -3.986719 3.984219 -2.201562 3.984219 0.0015625 Z M 3.984219 0.0015625 " transform="matrix(1,0,0,-1,127.215,162.15)"/>
<path style="fill-rule:nonzero;fill:rgb(39.216614%,56.077576%,100%);fill-opacity:0.75;stroke-width:2.00003;stroke-linecap:butt;stroke-linejoin:miter;stroke:rgb(39.216614%,56.077576%,100%);stroke-opacity:0.75;stroke-miterlimit:10;" d="M 3.986 0.00053125 C 3.986 2.19975 2.200844 3.984906 0.001625 3.984906 C -2.2015 3.984906 -3.986656 2.19975 -3.986656 0.00053125 C -3.986656 -2.202594 -2.2015 -3.983844 0.001625 -3.983844 C 2.200844 -3.983844 3.986 -2.202594 3.986 0.00053125 Z M 3.986 0.00053125 " transform="matrix(1,0,0,-1,233.514,156.481)"/>
<path style="fill-rule:nonzero;fill:rgb(86.274719%,14.901733%,49.804688%);fill-opacity:0.75;stroke-width:2.00003;stroke-linecap:butt;stroke-linejoin:miter;stroke:rgb(86.274719%,14.901733%,49.804688%);stroke-opacity:0.75;stroke-miterlimit:10;" d="M 4.980312 0.0004375 C 4.980312 2.750438 2.749844 4.980906 -0.00015625 4.980906 C -2.750156 4.980906 -4.980625 2.750438 -4.980625 0.0004375 C -4.980625 -2.749562 -2.750156 -4.980031 -0.00015625 -4.980031 C 2.749844 -4.980031 4.980312 -2.749562 4.980312 0.0004375 Z M 4.980312 0.0004375 " transform="matrix(1,0,0,-1,127.215,147.977)"/>
<path style="fill-rule:nonzero;fill:rgb(86.274719%,14.901733%,49.804688%);fill-opacity:0.75;stroke-width:2.00003;stroke-linecap:butt;stroke-linejoin:miter;stroke:rgb(86.274719%,14.901733%,49.804688%);stroke-opacity:0.75;stroke-miterlimit:10;" d="M 4.980312 0.0015625 C 4.980312 2.751563 2.749844 4.982031 -0.00015625 4.982031 C -2.750156 4.982031 -4.980625 2.751563 -4.980625 0.0015625 C -4.980625 -2.752344 -2.750156 -4.982812 -0.00015625 -4.982812 C 2.749844 -4.982812 4.980312 -2.752344 4.980312 0.0015625 Z M 4.980312 0.0015625 " transform="matrix(1,0,0,-1,127.215,162.15)"/>
<path style="fill-rule:nonzero;fill:rgb(86.274719%,14.901733%,49.804688%);fill-opacity:0.75;stroke-width:2.00003;stroke-linecap:butt;stroke-linejoin:miter;stroke:rgb(86.274719%,14.901733%,49.804688%);stroke-opacity:0.75;stroke-miterlimit:10;" d="M 4.982094 0.00053125 C 4.982094 2.750531 2.751625 4.981 0.001625 4.981 C -2.752281 4.981 -4.98275 2.750531 -4.98275 0.00053125 C -4.98275 -2.749469 -2.752281 -4.979937 0.001625 -4.979937 C 2.751625 -4.979937 4.982094 -2.749469 4.982094 0.00053125 Z M 4.982094 0.00053125 " transform="matrix(1,0,0,-1,233.514,156.481)"/>
<path style="fill-rule:nonzero;fill:rgb(86.274719%,14.901733%,49.804688%);fill-opacity:0.75;stroke-width:2.00003;stroke-linecap:butt;stroke-linejoin:miter;stroke:rgb(86.274719%,14.901733%,49.804688%);stroke-opacity:0.75;stroke-miterlimit:10;" d="M 4.982156 -0.00175 C 4.982156 2.752156 2.751688 4.982625 0.0016875 4.982625 C -2.752219 4.982625 -4.982687 2.752156 -4.982687 -0.00175 C -4.982687 -2.75175 -2.752219 -4.982219 0.0016875 -4.982219 C 2.751688 -4.982219 4.982156 -2.75175 4.982156 -0.00175 Z M 4.982156 -0.00175 " transform="matrix(1,0,0,-1,226.428,126.717)"/>
<path style="fill-rule:nonzero;fill:rgb(86.274719%,14.901733%,49.804688%);fill-opacity:0.75;stroke-width:2.00003;stroke-linecap:butt;stroke-linejoin:miter;stroke:rgb(86.274719%,14.901733%,49.804688%);stroke-opacity:0.75;stroke-miterlimit:10;" d="M 4.979906 0.00103125 C 4.979906 2.751031 2.749437 4.9815 -0.0005625 4.9815 C -2.750563 4.9815 -4.981031 2.751031 -4.981031 0.00103125 C -4.981031 -2.752875 -2.750563 -4.979437 -0.0005625 -4.979437 C 2.749437 -4.979437 4.979906 -2.752875 4.979906 0.00103125 Z M 4.979906 0.00103125 " transform="matrix(1,0,0,-1,254.774,112.544)"/>
<path style="fill-rule:nonzero;fill:rgb(86.274719%,14.901733%,49.804688%);fill-opacity:0.75;stroke-width:2.00003;stroke-linecap:butt;stroke-linejoin:miter;stroke:rgb(86.274719%,14.901733%,49.804688%);stroke-opacity:0.75;stroke-miterlimit:10;" d="M 4.980969 -0.0006875 C 4.980969 2.749313 2.7505 4.979781 0.0005 4.979781 C -2.7495 4.979781 -4.979969 2.749313 -4.979969 -0.0006875 C -4.979969 -2.750687 -2.7495 -4.981156 0.0005 -4.981156 C 2.7505 -4.981156 4.980969 -2.750687 4.980969 -0.0006875 Z M 4.980969 -0.0006875 " transform="matrix(1,0,0,-1,247.687,133.804)"/>
<path style="fill-rule:nonzero;fill:rgb(86.274719%,14.901733%,49.804688%);fill-opacity:0.75;stroke-width:2.00003;stroke-linecap:butt;stroke-linejoin:miter;stroke:rgb(86.274719%,14.901733%,49.804688%);stroke-opacity:0.75;stroke-miterlimit:10;" d="M 4.980969 0.001625 C 4.980969 2.751625 2.7505 4.982094 0.0005 4.982094 C -2.7495 4.982094 -4.979969 2.751625 -4.979969 0.001625 C -4.979969 -2.752281 -2.7495 -4.98275 0.0005 -4.98275 C 2.7505 -4.98275 4.980969 -2.752281 4.980969 0.001625 Z M 4.980969 0.001625 " transform="matrix(1,0,0,-1,247.687,77.111)"/>
<path style="fill-rule:nonzero;fill:rgb(86.274719%,14.901733%,49.804688%);fill-opacity:0.75;stroke-width:2.00003;stroke-linecap:butt;stroke-linejoin:miter;stroke:rgb(86.274719%,14.901733%,49.804688%);stroke-opacity:0.75;stroke-miterlimit:10;" d="M 4.981437 0.001625 C 4.981437 2.751625 2.750969 4.982094 0.00096875 4.982094 C -2.752938 4.982094 -4.9795 2.751625 -4.9795 0.001625 C -4.9795 -2.752281 -2.752938 -4.98275 0.00096875 -4.98275 C 2.750969 -4.98275 4.981437 -2.752281 4.981437 0.001625 Z M 4.981437 0.001625 " transform="matrix(1,0,0,-1,113.042,77.111)"/>
<path style="fill-rule:nonzero;fill:rgb(86.274719%,14.901733%,49.804688%);fill-opacity:0.75;stroke-width:2.00003;stroke-linecap:butt;stroke-linejoin:miter;stroke:rgb(86.274719%,14.901733%,49.804688%);stroke-opacity:0.75;stroke-miterlimit:10;" d="M 4.981437 -0.00175 C 4.981437 2.752156 2.750969 4.982625 0.00096875 4.982625 C -2.752938 4.982625 -4.9795 2.752156 -4.9795 -0.00175 C -4.9795 -2.75175 -2.752938 -4.982219 0.00096875 -4.982219 C 2.750969 -4.982219 4.981437 -2.75175 4.981437 -0.00175 Z M 4.981437 -0.00175 " transform="matrix(1,0,0,-1,113.042,126.717)"/>
<path style="fill-rule:nonzero;fill:rgb(86.274719%,14.901733%,49.804688%);fill-opacity:0.75;stroke-width:2.00003;stroke-linecap:butt;stroke-linejoin:miter;stroke:rgb(86.274719%,14.901733%,49.804688%);stroke-opacity:0.75;stroke-miterlimit:10;" d="M 4.982563 -0.00009375 C 4.982563 2.749906 2.752094 4.980375 -0.0018125 4.980375 C -2.751812 4.980375 -4.982281 2.749906 -4.982281 -0.00009375 C -4.982281 -2.750094 -2.751812 -4.980562 -0.0018125 -4.980562 C 2.752094 -4.980562 4.982563 -2.750094 4.982563 -0.00009375 Z M 4.982563 -0.00009375 " transform="matrix(1,0,0,-1,98.869,98.371)"/>
<path style="fill-rule:nonzero;fill:rgb(86.274719%,14.901733%,49.804688%);fill-opacity:0.75;stroke-width:2.00003;stroke-linecap:butt;stroke-linejoin:miter;stroke:rgb(86.274719%,14.901733%,49.804688%);stroke-opacity:0.75;stroke-miterlimit:10;" d="M 4.980312 0.00103125 C 4.980312 2.751031 2.749844 4.9815 -0.00015625 4.9815 C -2.750156 4.9815 -4.980625 2.751031 -4.980625 0.00103125 C -4.980625 -2.752875 -2.750156 -4.979437 -0.00015625 -4.979437 C 2.749844 -4.979437 4.980312 -2.752875 4.980312 0.00103125 Z M 4.980312 0.00103125 " transform="matrix(1,0,0,-1,127.215,112.544)"/>
<path style="fill-rule:nonzero;fill:rgb(86.274719%,14.901733%,49.804688%);fill-opacity:0.75;stroke-width:2.00003;stroke-linecap:butt;stroke-linejoin:miter;stroke:rgb(86.274719%,14.901733%,49.804688%);stroke-opacity:0.75;stroke-miterlimit:10;" d="M 4.981031 -0.00009375 C 4.981031 2.749906 2.750563 4.980375 0.0005625 4.980375 C -2.749437 4.980375 -4.979906 2.749906 -4.979906 -0.00009375 C -4.979906 -2.750094 -2.749437 -4.980562 0.0005625 -4.980562 C 2.750563 -4.980562 4.981031 -2.750094 4.981031 -0.00009375 Z M 4.981031 -0.00009375 " transform="matrix(1,0,0,-1,240.601,98.371)"/>
<path style="fill-rule:nonzero;fill:rgb(100%,69.018555%,0%);fill-opacity:0.75;stroke-width:2.00003;stroke-linecap:butt;stroke-linejoin:miter;stroke:rgb(100%,69.018555%,0%);stroke-opacity:0.75;stroke-miterlimit:10;" d="M 4.980969 0.001625 C 4.980969 2.751625 2.7505 4.982094 0.0005 4.982094 C -2.7495 4.982094 -4.979969 2.751625 -4.979969 0.001625 C -4.979969 -2.752281 -2.7495 -4.98275 0.0005 -4.98275 C 2.7505 -4.98275 4.980969 -2.752281 4.980969 0.001625 Z M 4.980969 0.001625 " transform="matrix(1,0,0,-1,247.687,77.111)"/>
<path style="fill-rule:nonzero;fill:rgb(100%,69.018555%,0%);fill-opacity:0.75;stroke-width:2.00003;stroke-linecap:butt;stroke-linejoin:miter;stroke:rgb(100%,69.018555%,0%);stroke-opacity:0.75;stroke-miterlimit:10;" d="M 4.981437 0.001625 C 4.981437 2.751625 2.750969 4.982094 0.00096875 4.982094 C -2.752938 4.982094 -4.9795 2.751625 -4.9795 0.001625 C -4.9795 -2.752281 -2.752938 -4.98275 0.00096875 -4.98275 C 2.750969 -4.98275 4.981437 -2.752281 4.981437 0.001625 Z M 4.981437 0.001625 " transform="matrix(1,0,0,-1,113.042,77.111)"/>
<path style="fill-rule:nonzero;fill:rgb(100%,69.018555%,0%);fill-opacity:0.75;stroke-width:2.00003;stroke-linecap:butt;stroke-linejoin:miter;stroke:rgb(100%,69.018555%,0%);stroke-opacity:0.75;stroke-miterlimit:10;" d="M 4.980312 -0.0005625 C 4.980312 2.749438 2.749844 4.979906 -0.00015625 4.979906 C -2.750156 4.979906 -4.980625 2.749438 -4.980625 -0.0005625 C -4.980625 -2.750562 -2.750156 -4.981031 -0.00015625 -4.981031 C 2.749844 -4.981031 4.980312 -2.750562 4.980312 -0.0005625 Z M 4.980312 -0.0005625 " transform="matrix(1,0,0,-1,127.215,55.851)"/>
<path style="fill-rule:nonzero;fill:rgb(100%,69.018555%,0%);fill-opacity:0.75;stroke-width:2.00003;stroke-linecap:butt;stroke-linejoin:miter;stroke:rgb(100%,69.018555%,0%);stroke-opacity:0.75;stroke-miterlimit:10;" d="M 4.983094 0.0005 C 4.983094 2.7505 2.752625 4.980969 -0.00128125 4.980969 C -2.751281 4.980969 -4.98175 2.7505 -4.98175 0.0005 C -4.98175 -2.7495 -2.751281 -4.979969 -0.00128125 -4.979969 C 2.752625 -4.979969 4.983094 -2.7495 4.983094 0.0005 Z M 4.983094 0.0005 " transform="matrix(1,0,0,-1,141.388,62.938)"/>
<path style="fill-rule:nonzero;fill:rgb(100%,69.018555%,0%);fill-opacity:0.75;stroke-width:2.00003;stroke-linecap:butt;stroke-linejoin:miter;stroke:rgb(100%,69.018555%,0%);stroke-opacity:0.75;stroke-miterlimit:10;" d="M 4.979844 -0.001625 C 4.979844 2.752281 2.749375 4.98275 -0.000625 4.98275 C -2.750625 4.98275 -4.981094 2.752281 -4.981094 -0.001625 C -4.981094 -2.751625 -2.750625 -4.982094 -0.000625 -4.982094 C 2.749375 -4.982094 4.979844 -2.751625 4.979844 -0.001625 Z M 4.979844 -0.001625 " transform="matrix(1,0,0,-1,169.735,48.764)"/>
<path style="fill-rule:nonzero;fill:rgb(100%,69.018555%,0%);fill-opacity:0.75;stroke-width:2.00003;stroke-linecap:butt;stroke-linejoin:miter;stroke:rgb(100%,69.018555%,0%);stroke-opacity:0.75;stroke-miterlimit:10;" d="M 4.981969 -0.0005625 C 4.981969 2.749438 2.7515 4.979906 0.0015 4.979906 C -2.752406 4.979906 -4.982875 2.749438 -4.982875 -0.0005625 C -4.982875 -2.750562 -2.752406 -4.981031 0.0015 -4.981031 C 2.7515 -4.981031 4.981969 -2.750562 4.981969 -0.0005625 Z M 4.981969 -0.0005625 " transform="matrix(1,0,0,-1,155.561,55.851)"/>
<path style="fill-rule:nonzero;fill:rgb(100%,69.018555%,0%);fill-opacity:0.75;stroke-width:2.00003;stroke-linecap:butt;stroke-linejoin:miter;stroke:rgb(100%,69.018555%,0%);stroke-opacity:0.75;stroke-miterlimit:10;" d="M 4.982625 -0.001625 C 4.982625 2.752281 2.752156 4.98275 -0.00175 4.98275 C -2.75175 4.98275 -4.982219 2.752281 -4.982219 -0.001625 C -4.982219 -2.751625 -2.75175 -4.982094 -0.00175 -4.982094 C 2.752156 -4.982094 4.982625 -2.751625 4.982625 -0.001625 Z M 4.982625 -0.001625 " transform="matrix(1,0,0,-1,183.908,48.764)"/>
<path style="fill-rule:nonzero;fill:rgb(100%,69.018555%,0%);fill-opacity:0.75;stroke-width:2.00003;stroke-linecap:butt;stroke-linejoin:miter;stroke:rgb(100%,69.018555%,0%);stroke-opacity:0.75;stroke-miterlimit:10;" d="M 4.9815 0.0005 C 4.9815 2.7505 2.751031 4.980969 0.00103125 4.980969 C -2.752875 4.980969 -4.979438 2.7505 -4.979438 0.0005 C -4.979438 -2.7495 -2.752875 -4.979969 0.00103125 -4.979969 C 2.751031 -4.979969 4.9815 -2.7495 4.9815 0.0005 Z M 4.9815 0.0005 " transform="matrix(1,0,0,-1,198.081,62.938)"/>
<path style="fill-rule:nonzero;fill:rgb(100%,69.018555%,0%);fill-opacity:0.75;stroke-width:2.00003;stroke-linecap:butt;stroke-linejoin:miter;stroke:rgb(100%,69.018555%,0%);stroke-opacity:0.75;stroke-miterlimit:10;" d="M 4.980375 -0.0005625 C 4.980375 2.749438 2.749906 4.979906 -0.00009375 4.979906 C -2.750094 4.979906 -4.980563 2.749438 -4.980563 -0.0005625 C -4.980563 -2.750562 -2.750094 -4.981031 -0.00009375 -4.981031 C 2.749906 -4.981031 4.980375 -2.750562 4.980375 -0.0005625 Z M 4.980375 -0.0005625 " transform="matrix(1,0,0,-1,212.254,55.851)"/>
<path style="fill-rule:nonzero;fill:rgb(100%,69.018555%,0%);fill-opacity:0.75;stroke-width:2.00003;stroke-linecap:butt;stroke-linejoin:miter;stroke:rgb(100%,69.018555%,0%);stroke-opacity:0.75;stroke-miterlimit:10;" d="M 4.982094 -0.0005625 C 4.982094 2.749438 2.751625 4.979906 0.001625 4.979906 C -2.752281 4.979906 -4.98275 2.749438 -4.98275 -0.0005625 C -4.98275 -2.750562 -2.752281 -4.981031 0.001625 -4.981031 C 2.751625 -4.981031 4.982094 -2.750562 4.982094 -0.0005625 Z M 4.982094 -0.0005625 " transform="matrix(1,0,0,-1,233.514,55.851)"/>
<path style="fill:none;stroke-width:8.50403;stroke-linecap:butt;stroke-linejoin:miter;stroke:rgb(33.332825%,33.332825%,33.332825%);stroke-opacity:1;stroke-miterlimit:10;" d="M 155.906094 70.867031 L 199.843594 70.867031 " transform="matrix(1,0,0,-1,127.215,183.41)"/>
<g clip-path="url(#clip1)" clip-rule="nonzero">
<path style="fill:none;stroke-width:8.50403;stroke-linecap:butt;stroke-linejoin:miter;stroke:rgb(33.332825%,33.332825%,33.332825%);stroke-opacity:1;stroke-miterlimit:10;" d="M -0.0001525 13.753938 L 23.82016 0.00003125 L -0.0001525 -13.753875 " transform="matrix(1,0,0,-1,307.49234,112.543)"/>
</g>
<path style="fill-rule:nonzero;fill:rgb(0%,0%,0%);fill-opacity:1;stroke-width:0.3985;stroke-linecap:butt;stroke-linejoin:miter;stroke:rgb(0%,0%,0%);stroke-opacity:1;stroke-miterlimit:10;" d="M 11.956063 -0.00015625 C 11.956063 6.601406 6.6045 11.956875 -0.00096875 11.956875 C -6.602531 11.956875 -11.954094 6.601406 -11.954094 -0.00015625 C -11.954094 -6.601719 -6.602531 -11.957187 -0.00096875 -11.957187 C 6.6045 -11.957187 11.956063 -6.601719 11.956063 -0.00015625 Z M 11.956063 -0.00015625 " transform="matrix(1,0,0,-1,382.333,183.41)"/>
<path style="fill-rule:nonzero;fill:rgb(0%,0%,0%);fill-opacity:1;stroke-width:0.3985;stroke-linecap:butt;stroke-linejoin:miter;stroke:rgb(0%,0%,0%);stroke-opacity:1;stroke-miterlimit:10;" d="M 11.954406 0.00103125 C 11.954406 6.602594 6.602844 11.954156 0.00128125 11.954156 C -6.604187 11.954156 -11.95575 6.602594 -11.95575 0.00103125 C -11.95575 -6.604437 -6.604187 -11.956 0.00128125 -11.956 C 6.602844 -11.956 11.954406 -6.604437 11.954406 0.00103125 Z M 11.954406 0.00103125 " transform="matrix(1,0,0,-1,353.987,112.544)"/>
<path style=" stroke:none;fill-rule:nonzero;fill:rgb(0%,0%,0%);fill-opacity:1;" d="M 422.636719 112.542969 C 422.636719 105.941406 417.28125 100.589844 410.679688 100.589844 C 404.078125 100.589844 398.726562 105.941406 398.726562 112.542969 C 398.726562 119.148438 404.078125 124.5 410.679688 124.5 C 417.28125 124.5 422.636719 119.148438 422.636719 112.542969 Z M 422.636719 112.542969 "/>
<g clip-path="url(#clip2)" clip-rule="nonzero">
<path style="fill:none;stroke-width:0.3985;stroke-linecap:butt;stroke-linejoin:miter;stroke:rgb(0%,0%,0%);stroke-opacity:1;stroke-miterlimit:10;" d="M 11.956719 0.00103125 C 11.956719 6.602594 6.60125 11.954156 -0.0003125 11.954156 C -6.601875 11.954156 -11.953437 6.602594 -11.953437 0.00103125 C -11.953437 -6.604437 -6.601875 -11.956 -0.0003125 -11.956 C 6.60125 -11.956 11.956719 -6.604437 11.956719 0.00103125 Z M 11.956719 0.00103125 " transform="matrix(1,0,0,-1,410.68,112.544)"/>
</g>
<path style="fill-rule:nonzero;fill:rgb(0%,0%,0%);fill-opacity:1;stroke-width:0.3985;stroke-linecap:butt;stroke-linejoin:miter;stroke:rgb(0%,0%,0%);stroke-opacity:1;stroke-miterlimit:10;" d="M 11.956063 -0.0005625 C 11.956063 6.601 6.6045 11.956469 -0.00096875 11.956469 C -6.602531 11.956469 -11.954094 6.601 -11.954094 -0.0005625 C -11.954094 -6.602125 -6.602531 -11.953687 -0.00096875 -11.953687 C 6.6045 -11.953687 11.956063 -6.602125 11.956063 -0.0005625 Z M 11.956063 -0.0005625 " transform="matrix(1,0,0,-1,382.333,55.851)"/>
<g clip-path="url(#clip3)" clip-rule="nonzero">
<path style="fill:none;stroke-width:9.96277;stroke-linecap:butt;stroke-linejoin:miter;stroke:rgb(39.216614%,56.077576%,100%);stroke-opacity:0.75;stroke-miterlimit:10;" d="M 255.120937 -0.00015625 L 226.773281 70.867031 " transform="matrix(1,0,0,-1,127.215,183.41)"/>
<path style="fill:none;stroke-width:9.96277;stroke-linecap:butt;stroke-linejoin:miter;stroke:rgb(86.274719%,14.901733%,49.804688%);stroke-opacity:0.75;stroke-miterlimit:10;" d="M 255.120937 -0.00015625 L 226.773281 70.867031 " transform="matrix(1,0,0,-1,127.215,183.41)"/>
</g>
<g clip-path="url(#clip4)" clip-rule="nonzero">
<path style="fill:none;stroke-width:4.98138;stroke-linecap:butt;stroke-linejoin:miter;stroke:rgb(39.216614%,56.077576%,100%);stroke-opacity:0.75;stroke-miterlimit:10;" d="M 255.120937 -0.00015625 L 283.468594 70.867031 " transform="matrix(1,0,0,-1,127.215,183.41)"/>
<path style="fill:none;stroke-width:4.98138;stroke-linecap:butt;stroke-linejoin:miter;stroke:rgb(86.274719%,14.901733%,49.804688%);stroke-opacity:0.75;stroke-miterlimit:10;" d="M 255.120937 -0.00015625 L 283.468594 70.867031 " transform="matrix(1,0,0,-1,127.215,183.41)"/>
</g>
<g clip-path="url(#clip5)" clip-rule="nonzero">
<path style="fill:none;stroke-width:4.98138;stroke-linecap:butt;stroke-linejoin:miter;stroke:rgb(86.274719%,14.901733%,49.804688%);stroke-opacity:0.75;stroke-miterlimit:10;" d="M 255.120937 127.562344 L 226.773281 70.867031 " transform="matrix(1,0,0,-1,127.215,183.41)"/>
<path style="fill:none;stroke-width:4.98138;stroke-linecap:butt;stroke-linejoin:miter;stroke:rgb(100%,69.018555%,0%);stroke-opacity:0.75;stroke-miterlimit:10;" d="M 255.120937 127.562344 L 226.773281 70.867031 " transform="matrix(1,0,0,-1,127.215,183.41)"/>
</g>
<g clip-path="url(#clip6)" clip-rule="nonzero">
<path style="fill:none;stroke-width:4.98138;stroke-linecap:butt;stroke-linejoin:miter;stroke:rgb(86.274719%,14.901733%,49.804688%);stroke-opacity:0.75;stroke-miterlimit:10;" d="M 255.120937 127.562344 L 283.468594 70.867031 " transform="matrix(1,0,0,-1,127.215,183.41)"/>
<path style="fill:none;stroke-width:4.98138;stroke-linecap:butt;stroke-linejoin:miter;stroke:rgb(100%,69.018555%,0%);stroke-opacity:0.75;stroke-miterlimit:10;" d="M 255.120937 127.562344 L 283.468594 70.867031 " transform="matrix(1,0,0,-1,127.215,183.41)"/>
</g>
<path style="fill-rule:nonzero;fill:rgb(0%,0%,0%);fill-opacity:1;stroke-width:0.3985;stroke-linecap:butt;stroke-linejoin:miter;stroke:rgb(0%,0%,0%);stroke-opacity:1;stroke-miterlimit:10;" d="M 11.956063 -0.00015625 C 11.956063 6.601406 6.6045 11.956875 -0.00096875 11.956875 C -6.602531 11.956875 -11.954094 6.601406 -11.954094 -0.00015625 C -11.954094 -6.601719 -6.602531 -11.957187 -0.00096875 -11.957187 C 6.6045 -11.957187 11.956063 -6.601719 11.956063 -0.00015625 Z M 11.956063 -0.00015625 " transform="matrix(1,0,0,-1,382.333,183.41)"/>
<path style="fill-rule:nonzero;fill:rgb(0%,0%,0%);fill-opacity:1;stroke-width:0.3985;stroke-linecap:butt;stroke-linejoin:miter;stroke:rgb(0%,0%,0%);stroke-opacity:1;stroke-miterlimit:10;" d="M 11.954406 0.00103125 C 11.954406 6.602594 6.602844 11.954156 0.00128125 11.954156 C -6.604187 11.954156 -11.95575 6.602594 -11.95575 0.00103125 C -11.95575 -6.604437 -6.604187 -11.956 0.00128125 -11.956 C 6.602844 -11.956 11.954406 -6.604437 11.954406 0.00103125 Z M 11.954406 0.00103125 " transform="matrix(1,0,0,-1,353.987,112.544)"/>
<path style=" stroke:none;fill-rule:nonzero;fill:rgb(0%,0%,0%);fill-opacity:1;" d="M 422.636719 112.542969 C 422.636719 105.941406 417.28125 100.589844 410.679688 100.589844 C 404.078125 100.589844 398.726562 105.941406 398.726562 112.542969 C 398.726562 119.148438 404.078125 124.5 410.679688 124.5 C 417.28125 124.5 422.636719 119.148438 422.636719 112.542969 Z M 422.636719 112.542969 "/>
<g clip-path="url(#clip7)" clip-rule="nonzero">
<path style="fill:none;stroke-width:0.3985;stroke-linecap:butt;stroke-linejoin:miter;stroke:rgb(0%,0%,0%);stroke-opacity:1;stroke-miterlimit:10;" d="M 11.956719 0.00103125 C 11.956719 6.602594 6.60125 11.954156 -0.0003125 11.954156 C -6.601875 11.954156 -11.953437 6.602594 -11.953437 0.00103125 C -11.953437 -6.604437 -6.601875 -11.956 -0.0003125 -11.956 C 6.60125 -11.956 11.956719 -6.604437 11.956719 0.00103125 Z M 11.956719 0.00103125 " transform="matrix(1,0,0,-1,410.68,112.544)"/>
</g>
<path style="fill-rule:nonzero;fill:rgb(0%,0%,0%);fill-opacity:1;stroke-width:0.3985;stroke-linecap:butt;stroke-linejoin:miter;stroke:rgb(0%,0%,0%);stroke-opacity:1;stroke-miterlimit:10;" d="M 11.956063 -0.0005625 C 11.956063 6.601 6.6045 11.956469 -0.00096875 11.956469 C -6.602531 11.956469 -11.954094 6.601 -11.954094 -0.0005625 C -11.954094 -6.602125 -6.602531 -11.953687 -0.00096875 -11.953687 C 6.6045 -11.953687 11.956063 -6.602125 11.956063 -0.0005625 Z M 11.956063 -0.0005625 " transform="matrix(1,0,0,-1,382.333,55.851)"/>
<path style="fill-rule:nonzero;fill:rgb(39.216614%,56.077576%,100%);fill-opacity:1;stroke-width:0.3985;stroke-linecap:butt;stroke-linejoin:miter;stroke:rgb(39.216614%,56.077576%,100%);stroke-opacity:1;stroke-miterlimit:10;" d="M 9.963875 -0.00015625 C 9.963875 5.50375 5.502938 9.964688 -0.00096875 9.964688 C -5.500969 9.964688 -9.961906 5.50375 -9.961906 -0.00015625 C -9.961906 -5.504062 -5.500969 -9.961094 -0.00096875 -9.961094 C 5.502938 -9.961094 9.963875 -5.504062 9.963875 -0.00015625 Z M 9.963875 -0.00015625 " transform="matrix(1,0,0,-1,382.333,183.41)"/>
<path style="fill-rule:nonzero;fill:rgb(86.274719%,14.901733%,49.804688%);fill-opacity:1;stroke-width:0.3985;stroke-linecap:butt;stroke-linejoin:miter;stroke:rgb(86.274719%,14.901733%,49.804688%);stroke-opacity:1;stroke-miterlimit:10;" d="M 9.962219 0.00103125 C 9.962219 5.501031 5.501281 9.961969 0.00128125 9.961969 C -5.502625 9.961969 -9.963562 5.501031 -9.963562 0.00103125 C -9.963562 -5.502875 -5.502625 -9.963812 0.00128125 -9.963812 C 5.501281 -9.963812 9.962219 -5.502875 9.962219 0.00103125 Z M 9.962219 0.00103125 " transform="matrix(1,0,0,-1,353.987,112.544)"/>
<path style=" stroke:none;fill-rule:nonzero;fill:rgb(86.274719%,14.901733%,49.804688%);fill-opacity:1;" d="M 420.644531 112.542969 C 420.644531 107.042969 416.183594 102.582031 410.679688 102.582031 C 405.175781 102.582031 400.71875 107.042969 400.71875 112.542969 C 400.71875 118.046875 405.175781 122.507812 410.679688 122.507812 C 416.183594 122.507812 420.644531 118.046875 420.644531 112.542969 Z M 420.644531 112.542969 "/>
<g clip-path="url(#clip8)" clip-rule="nonzero">
<path style="fill:none;stroke-width:0.3985;stroke-linecap:butt;stroke-linejoin:miter;stroke:rgb(86.274719%,14.901733%,49.804688%);stroke-opacity:1;stroke-miterlimit:10;" d="M 9.964531 0.00103125 C 9.964531 5.501031 5.503594 9.961969 -0.0003125 9.961969 C -5.504219 9.961969 -9.96125 5.501031 -9.96125 0.00103125 C -9.96125 -5.502875 -5.504219 -9.963812 -0.0003125 -9.963812 C 5.503594 -9.963812 9.964531 -5.502875 9.964531 0.00103125 Z M 9.964531 0.00103125 " transform="matrix(1,0,0,-1,410.68,112.544)"/>
</g>
<path style="fill-rule:nonzero;fill:rgb(100%,69.018555%,0%);fill-opacity:1;stroke-width:0.3985;stroke-linecap:butt;stroke-linejoin:miter;stroke:rgb(100%,69.018555%,0%);stroke-opacity:1;stroke-miterlimit:10;" d="M 9.963875 -0.0005625 C 9.963875 5.503344 5.502938 9.964281 -0.00096875 9.964281 C -5.500969 9.964281 -9.961906 5.503344 -9.961906 -0.0005625 C -9.961906 -5.500562 -5.500969 -9.9615 -0.00096875 -9.9615 C 5.502938 -9.9615 9.963875 -5.500562 9.963875 -0.0005625 Z M 9.963875 -0.0005625 " transform="matrix(1,0,0,-1,382.333,55.851)"/>
</g>
</svg>
