<?xml version="1.0" encoding="UTF-8"?>
<svg xmlns="http://www.w3.org/2000/svg" xmlns:xlink="http://www.w3.org/1999/xlink" width="425.339pt" height="246.347pt" viewBox="0 0 425.339 246.347" version="1.1">
<g id="surface1">
<path style="fill:none;stroke-width:4.98138;stroke-linecap:round;stroke-linejoin:miter;stroke:rgb(33.332825%,33.332825%,33.332825%);stroke-opacity:1;stroke-miterlimit:10;" d="M -104.882969 -42.519687 L -104.882969 42.519375 " transform="matrix(1,0,0,-1,127.215,183.41)"/>
<path style="fill:none;stroke-width:4.98138;stroke-linecap:round;stroke-linejoin:miter;stroke:rgb(33.332825%,33.332825%,33.332825%);stroke-opacity:1;stroke-miterlimit:10;" d="M -113.386875 113.386563 L -113.386875 14.171719 " transform="matrix(1,0,0,-1,127.215,183.41)"/>
<path style="fill:none;stroke-width:4.98138;stroke-linecap:round;stroke-linejoin:miter;stroke:rgb(33.332825%,33.332825%,33.332825%);stroke-opacity:1;stroke-miterlimit:10;" d="M -104.882969 92.12875 L -104.882969 155.906094 " transform="matrix(1,0,0,-1,127.215,183.41)"/>
<path style=" stroke:none;fill-rule:nonzero;fill:rgb(39.216614%,56.077576%,100%);fill-opacity:0.75;" d="M 32.984375 225.929688 L 51.367188 225.929688 C 54.117188 225.929688 56.347656 223.699219 56.347656 220.949219 L 56.347656 145.871094 C 56.347656 143.121094 54.117188 140.890625 51.367188 140.890625 L 32.984375 140.890625 C 30.230469 140.890625 28 143.121094 28 145.871094 L 28 220.949219 C 28 223.699219 30.230469 225.929688 32.984375 225.929688 Z M 32.984375 225.929688 "/>
<path style="fill:none;stroke-width:3.9851;stroke-linecap:butt;stroke-linejoin:miter;stroke:rgb(0%,0%,0%);stroke-opacity:1;stroke-miterlimit:10;" d="M -85.039219 -49.605625 L -85.039219 165.640469 " transform="matrix(1,0,0,-1,127.215,183.41)"/>
<path style="fill:none;stroke-width:3.9851;stroke-linecap:butt;stroke-linejoin:miter;stroke:rgb(0%,0%,0%);stroke-opacity:1;stroke-miterlimit:10;" d="M 0.0013075 6.975341 L 4.981776 -0.00122125 L 0.0013075 -6.973878 " transform="matrix(0,-1,-1,0,42.17456,20.75912)"/>
<path style=" stroke:none;fill-rule:nonzero;fill:rgb(39.216614%,56.077576%,100%);fill-opacity:0.75;" d="M 98.867188 215.96875 L 98.867188 150.851562 C 98.867188 145.351562 103.328125 140.890625 108.832031 140.890625 L 258.984375 140.890625 C 264.488281 140.890625 268.949219 145.351562 268.949219 150.851562 L 268.949219 215.96875 C 268.949219 221.46875 264.488281 225.929688 258.984375 225.929688 L 108.832031 225.929688 C 103.328125 225.929688 98.867188 221.46875 98.867188 215.96875 Z M 98.867188 215.96875 "/>
<path style="fill-rule:nonzero;fill:rgb(0%,0%,0%);fill-opacity:1;stroke-width:0.3985;stroke-linecap:butt;stroke-linejoin:miter;stroke:rgb(0%,0%,0%);stroke-opacity:1;stroke-miterlimit:10;" d="M 4.980312 0.0004375 C 4.980312 2.750438 2.749844 4.980906 -0.00015625 4.980906 C -2.750156 4.980906 -4.980625 2.750438 -4.980625 0.0004375 C -4.980625 -2.749562 -2.750156 -4.980031 -0.00015625 -4.980031 C 2.749844 -4.980031 4.980312 -2.749562 4.980312 0.0004375 Z M 4.980312 0.0004375 " transform="matrix(1,0,0,-1,127.215,147.977)"/>
<path style="fill-rule:nonzero;fill:rgb(0%,0%,0%);fill-opacity:1;stroke-width:0.3985;stroke-linecap:butt;stroke-linejoin:miter;stroke:rgb(0%,0%,0%);stroke-opacity:1;stroke-miterlimit:10;" d="M 4.983094 0.00096875 C 4.983094 2.750969 2.752625 4.981438 -0.00128125 4.981438 C -2.751281 4.981438 -4.98175 2.750969 -4.98175 0.00096875 C -4.98175 -2.752937 -2.751281 -4.9795 -0.00128125 -4.9795 C 2.752625 -4.9795 4.983094 -2.752937 4.983094 0.00096875 Z M 4.983094 0.00096875 " transform="matrix(1,0,0,-1,141.388,197.583)"/>
<path style="fill-rule:nonzero;fill:rgb(0%,0%,0%);fill-opacity:1;stroke-width:0.3985;stroke-linecap:butt;stroke-linejoin:miter;stroke:rgb(0%,0%,0%);stroke-opacity:1;stroke-miterlimit:10;" d="M 4.981969 -0.00015625 C 4.981969 2.749844 2.7515 4.980313 0.0015 4.980313 C -2.752406 4.980313 -4.982875 2.749844 -4.982875 -0.00015625 C -4.982875 -2.750156 -2.752406 -4.980625 0.0015 -4.980625 C 2.7515 -4.980625 4.981969 -2.750156 4.981969 -0.00015625 Z M 4.981969 -0.00015625 " transform="matrix(1,0,0,-1,155.561,183.41)"/>
<path style="fill-rule:nonzero;fill:rgb(0%,0%,0%);fill-opacity:1;stroke-width:0.3985;stroke-linecap:butt;stroke-linejoin:miter;stroke:rgb(0%,0%,0%);stroke-opacity:1;stroke-miterlimit:10;" d="M 4.980312 0.0015625 C 4.980312 2.751563 2.749844 4.982031 -0.00015625 4.982031 C -2.750156 4.982031 -4.980625 2.751563 -4.980625 0.0015625 C -4.980625 -2.752344 -2.750156 -4.982812 -0.00015625 -4.982812 C 2.749844 -4.982812 4.980312 -2.752344 4.980312 0.0015625 Z M 4.980312 0.0015625 " transform="matrix(1,0,0,-1,127.215,162.15)"/>
<path style="fill-rule:nonzero;fill:rgb(0%,0%,0%);fill-opacity:1;stroke-width:0.3985;stroke-linecap:butt;stroke-linejoin:miter;stroke:rgb(0%,0%,0%);stroke-opacity:1;stroke-miterlimit:10;" d="M 4.980312 -0.00015625 C 4.980312 2.749844 2.749844 4.980313 -0.00015625 4.980313 C -2.750156 4.980313 -4.980625 2.749844 -4.980625 -0.00015625 C -4.980625 -2.750156 -2.750156 -4.980625 -0.00015625 -4.980625 C 2.749844 -4.980625 4.980312 -2.750156 4.980312 -0.00015625 Z M 4.980312 -0.00015625 " transform="matrix(1,0,0,-1,127.215,183.41)"/>
<path style="fill-rule:nonzero;fill:rgb(0%,0%,0%);fill-opacity:1;stroke-width:0.3985;stroke-linecap:butt;stroke-linejoin:miter;stroke:rgb(0%,0%,0%);stroke-opacity:1;stroke-miterlimit:10;" d="M 4.979844 -0.001875 C 4.979844 2.752031 2.749375 4.9825 -0.000625 4.9825 C -2.750625 4.9825 -4.981094 2.752031 -4.981094 -0.001875 C -4.981094 -2.751875 -2.750625 -4.982344 -0.000625 -4.982344 C 2.749375 -4.982344 4.979844 -2.751875 4.979844 -0.001875 Z M 4.979844 -0.001875 " transform="matrix(1,0,0,-1,169.735,204.67)"/>
<path style="fill-rule:nonzero;fill:rgb(0%,0%,0%);fill-opacity:1;stroke-width:0.3985;stroke-linecap:butt;stroke-linejoin:miter;stroke:rgb(0%,0%,0%);stroke-opacity:1;stroke-miterlimit:10;" d="M 4.982625 0.00096875 C 4.982625 2.750969 2.752156 4.981438 -0.00175 4.981438 C -2.75175 4.981438 -4.982219 2.750969 -4.982219 0.00096875 C -4.982219 -2.752937 -2.75175 -4.9795 -0.00175 -4.9795 C 2.752156 -4.9795 4.982625 -2.752937 4.982625 0.00096875 Z M 4.982625 0.00096875 " transform="matrix(1,0,0,-1,183.908,197.583)"/>
<path style="fill-rule:nonzero;fill:rgb(0%,0%,0%);fill-opacity:1;stroke-width:0.3985;stroke-linecap:butt;stroke-linejoin:miter;stroke:rgb(0%,0%,0%);stroke-opacity:1;stroke-miterlimit:10;" d="M 4.980437 -0.00015625 C 4.980437 2.749844 2.749969 4.980313 -0.00003125 4.980313 C -2.750031 4.980313 -4.9805 2.749844 -4.9805 -0.00015625 C -4.9805 -2.750156 -2.750031 -4.980625 -0.00003125 -4.980625 C 2.749969 -4.980625 4.980437 -2.750156 4.980437 -0.00015625 Z M 4.980437 -0.00015625 " transform="matrix(1,0,0,-1,205.168,183.41)"/>
<path style="fill-rule:nonzero;fill:rgb(0%,0%,0%);fill-opacity:1;stroke-width:0.3985;stroke-linecap:butt;stroke-linejoin:miter;stroke:rgb(0%,0%,0%);stroke-opacity:1;stroke-miterlimit:10;" d="M 4.980375 0.00096875 C 4.980375 2.750969 2.749906 4.981438 -0.00009375 4.981438 C -2.750094 4.981438 -4.980563 2.750969 -4.980563 0.00096875 C -4.980563 -2.752937 -2.750094 -4.9795 -0.00009375 -4.9795 C 2.749906 -4.9795 4.980375 -2.752937 4.980375 0.00096875 Z M 4.980375 0.00096875 " transform="matrix(1,0,0,-1,212.254,197.583)"/>
<path style="fill-rule:nonzero;fill:rgb(0%,0%,0%);fill-opacity:1;stroke-width:0.3985;stroke-linecap:butt;stroke-linejoin:miter;stroke:rgb(0%,0%,0%);stroke-opacity:1;stroke-miterlimit:10;" d="M 4.982094 0.00053125 C 4.982094 2.750531 2.751625 4.981 0.001625 4.981 C -2.752281 4.981 -4.98275 2.750531 -4.98275 0.00053125 C -4.98275 -2.749469 -2.752281 -4.979937 0.001625 -4.979937 C 2.751625 -4.979937 4.982094 -2.749469 4.982094 0.00053125 Z M 4.982094 0.00053125 " transform="matrix(1,0,0,-1,233.514,156.481)"/>
<path style="fill-rule:nonzero;fill:rgb(0%,0%,0%);fill-opacity:1;stroke-width:0.3985;stroke-linecap:butt;stroke-linejoin:miter;stroke:rgb(0%,0%,0%);stroke-opacity:1;stroke-miterlimit:10;" d="M 4.982156 -0.00015625 C 4.982156 2.749844 2.751688 4.980313 0.0016875 4.980313 C -2.752219 4.980313 -4.982687 2.749844 -4.982687 -0.00015625 C -4.982687 -2.750156 -2.752219 -4.980625 0.0016875 -4.980625 C 2.751688 -4.980625 4.982156 -2.750156 4.982156 -0.00015625 Z M 4.982156 -0.00015625 " transform="matrix(1,0,0,-1,226.428,183.41)"/>
<path style="fill-rule:nonzero;fill:rgb(0%,0%,0%);fill-opacity:1;stroke-width:0.3985;stroke-linecap:butt;stroke-linejoin:miter;stroke:rgb(0%,0%,0%);stroke-opacity:1;stroke-miterlimit:10;" d="M 4.981031 -0.00121875 C 4.981031 2.752688 2.750563 4.983156 0.0005625 4.983156 C -2.749437 4.983156 -4.979906 2.752688 -4.979906 -0.00121875 C -4.979906 -2.751219 -2.749437 -4.981687 0.0005625 -4.981687 C 2.750563 -4.981687 4.981031 -2.751219 4.981031 -0.00121875 Z M 4.981031 -0.00121875 " transform="matrix(1,0,0,-1,240.601,176.323)"/>
<path style="fill-rule:nonzero;fill:rgb(73.33374%,73.33374%,73.33374%);fill-opacity:1;stroke-width:0.3985;stroke-linecap:butt;stroke-linejoin:miter;stroke:rgb(73.33374%,73.33374%,73.33374%);stroke-opacity:1;stroke-miterlimit:10;" d="M 4.981437 -0.00175 C 4.981437 2.752156 2.750969 4.982625 0.00096875 4.982625 C -2.752938 4.982625 -4.9795 2.752156 -4.9795 -0.00175 C -4.9795 -2.75175 -2.752938 -4.982219 0.00096875 -4.982219 C 2.750969 -4.982219 4.981437 -2.75175 4.981437 -0.00175 Z M 4.981437 -0.00175 " transform="matrix(1,0,0,-1,113.042,126.717)"/>
<path style="fill-rule:nonzero;fill:rgb(73.33374%,73.33374%,73.33374%);fill-opacity:1;stroke-width:0.3985;stroke-linecap:butt;stroke-linejoin:miter;stroke:rgb(73.33374%,73.33374%,73.33374%);stroke-opacity:1;stroke-miterlimit:10;" d="M 4.982563 -0.00109375 C 4.982563 2.752813 2.752094 4.983281 -0.0018125 4.983281 C -2.751812 4.983281 -4.982281 2.752813 -4.982281 -0.00109375 C -4.982281 -2.751094 -2.751812 -4.981562 -0.0018125 -4.981562 C 2.752094 -4.981562 4.982563 -2.751094 4.982563 -0.00109375 Z M 4.982563 -0.00109375 " transform="matrix(1,0,0,-1,98.869,98.37)"/>
<path style="fill-rule:nonzero;fill:rgb(73.33374%,73.33374%,73.33374%);fill-opacity:1;stroke-width:0.3985;stroke-linecap:butt;stroke-linejoin:miter;stroke:rgb(73.33374%,73.33374%,73.33374%);stroke-opacity:1;stroke-miterlimit:10;" d="M 4.981437 0.001625 C 4.981437 2.751625 2.750969 4.982094 0.00096875 4.982094 C -2.752938 4.982094 -4.9795 2.751625 -4.9795 0.001625 C -4.9795 -2.752281 -2.752938 -4.98275 0.00096875 -4.98275 C 2.750969 -4.98275 4.981437 -2.752281 4.981437 0.001625 Z M 4.981437 0.001625 " transform="matrix(1,0,0,-1,113.042,77.111)"/>
<path style="fill-rule:nonzero;fill:rgb(73.33374%,73.33374%,73.33374%);fill-opacity:1;stroke-width:0.3985;stroke-linecap:butt;stroke-linejoin:miter;stroke:rgb(73.33374%,73.33374%,73.33374%);stroke-opacity:1;stroke-miterlimit:10;" d="M 4.980312 0.00103125 C 4.980312 2.751031 2.749844 4.9815 -0.00015625 4.9815 C -2.750156 4.9815 -4.980625 2.751031 -4.980625 0.00103125 C -4.980625 -2.752875 -2.750156 -4.979437 -0.00015625 -4.979437 C 2.749844 -4.979437 4.980312 -2.752875 4.980312 0.00103125 Z M 4.980312 0.00103125 " transform="matrix(1,0,0,-1,127.215,112.544)"/>
<path style="fill-rule:nonzero;fill:rgb(73.33374%,73.33374%,73.33374%);fill-opacity:1;stroke-width:0.3985;stroke-linecap:butt;stroke-linejoin:miter;stroke:rgb(73.33374%,73.33374%,73.33374%);stroke-opacity:1;stroke-miterlimit:10;" d="M 4.980312 -0.0005625 C 4.980312 2.749438 2.749844 4.979906 -0.00015625 4.979906 C -2.750156 4.979906 -4.980625 2.749438 -4.980625 -0.0005625 C -4.980625 -2.750562 -2.750156 -4.981031 -0.00015625 -4.981031 C 2.749844 -4.981031 4.980312 -2.750562 4.980312 -0.0005625 Z M 4.980312 -0.0005625 " transform="matrix(1,0,0,-1,127.215,55.851)"/>
<path style="fill-rule:nonzero;fill:rgb(73.33374%,73.33374%,73.33374%);fill-opacity:1;stroke-width:0.3985;stroke-linecap:butt;stroke-linejoin:miter;stroke:rgb(73.33374%,73.33374%,73.33374%);stroke-opacity:1;stroke-miterlimit:10;" d="M 4.983094 -0.0005 C 4.983094 2.7495 2.752625 4.979969 -0.00128125 4.979969 C -2.751281 4.979969 -4.98175 2.7495 -4.98175 -0.0005 C -4.98175 -2.7505 -2.751281 -4.980969 -0.00128125 -4.980969 C 2.752625 -4.980969 4.983094 -2.7505 4.983094 -0.0005 Z M 4.983094 -0.0005 " transform="matrix(1,0,0,-1,141.388,62.937)"/>
<path style="fill-rule:nonzero;fill:rgb(73.33374%,73.33374%,73.33374%);fill-opacity:1;stroke-width:0.3985;stroke-linecap:butt;stroke-linejoin:miter;stroke:rgb(73.33374%,73.33374%,73.33374%);stroke-opacity:1;stroke-miterlimit:10;" d="M 4.979844 -0.001625 C 4.979844 2.752281 2.749375 4.98275 -0.000625 4.98275 C -2.750625 4.98275 -4.981094 2.752281 -4.981094 -0.001625 C -4.981094 -2.751625 -2.750625 -4.982094 -0.000625 -4.982094 C 2.749375 -4.982094 4.979844 -2.751625 4.979844 -0.001625 Z M 4.979844 -0.001625 " transform="matrix(1,0,0,-1,169.735,48.764)"/>
<path style="fill-rule:nonzero;fill:rgb(73.33374%,73.33374%,73.33374%);fill-opacity:1;stroke-width:0.3985;stroke-linecap:butt;stroke-linejoin:miter;stroke:rgb(73.33374%,73.33374%,73.33374%);stroke-opacity:1;stroke-miterlimit:10;" d="M 4.981969 -0.0005625 C 4.981969 2.749438 2.7515 4.979906 0.0015 4.979906 C -2.752406 4.979906 -4.982875 2.749438 -4.982875 -0.0005625 C -4.982875 -2.750562 -2.752406 -4.981031 0.0015 -4.981031 C 2.7515 -4.981031 4.981969 -2.750562 4.981969 -0.0005625 Z M 4.981969 -0.0005625 " transform="matrix(1,0,0,-1,155.561,55.851)"/>
<path style="fill-rule:nonzero;fill:rgb(73.33374%,73.33374%,73.33374%);fill-opacity:1;stroke-width:0.3985;stroke-linecap:butt;stroke-linejoin:miter;stroke:rgb(73.33374%,73.33374%,73.33374%);stroke-opacity:1;stroke-miterlimit:10;" d="M 4.982625 -0.001625 C 4.982625 2.752281 2.752156 4.98275 -0.00175 4.98275 C -2.75175 4.98275 -4.982219 2.752281 -4.982219 -0.001625 C -4.982219 -2.751625 -2.75175 -4.982094 -0.00175 -4.982094 C 2.752156 -4.982094 4.982625 -2.751625 4.982625 -0.001625 Z M 4.982625 -0.001625 " transform="matrix(1,0,0,-1,183.908,48.764)"/>
<path style="fill-rule:nonzero;fill:rgb(73.33374%,73.33374%,73.33374%);fill-opacity:1;stroke-width:0.3985;stroke-linecap:butt;stroke-linejoin:miter;stroke:rgb(73.33374%,73.33374%,73.33374%);stroke-opacity:1;stroke-miterlimit:10;" d="M 4.9815 -0.0005 C 4.9815 2.7495 2.751031 4.979969 0.00103125 4.979969 C -2.752875 4.979969 -4.979438 2.7495 -4.979438 -0.0005 C -4.979438 -2.7505 -2.752875 -4.980969 0.00103125 -4.980969 C 2.751031 -4.980969 4.9815 -2.7505 4.9815 -0.0005 Z M 4.9815 -0.0005 " transform="matrix(1,0,0,-1,198.081,62.937)"/>
<path style="fill-rule:nonzero;fill:rgb(73.33374%,73.33374%,73.33374%);fill-opacity:1;stroke-width:0.3985;stroke-linecap:butt;stroke-linejoin:miter;stroke:rgb(73.33374%,73.33374%,73.33374%);stroke-opacity:1;stroke-miterlimit:10;" d="M 4.980375 -0.0005625 C 4.980375 2.749438 2.749906 4.979906 -0.00009375 4.979906 C -2.750094 4.979906 -4.980563 2.749438 -4.980563 -0.0005625 C -4.980563 -2.750562 -2.750094 -4.981031 -0.00009375 -4.981031 C 2.749906 -4.981031 4.980375 -2.750562 4.980375 -0.0005625 Z M 4.980375 -0.0005625 " transform="matrix(1,0,0,-1,212.254,55.851)"/>
<path style="fill-rule:nonzero;fill:rgb(73.33374%,73.33374%,73.33374%);fill-opacity:1;stroke-width:0.3985;stroke-linecap:butt;stroke-linejoin:miter;stroke:rgb(73.33374%,73.33374%,73.33374%);stroke-opacity:1;stroke-miterlimit:10;" d="M 4.982094 -0.0005625 C 4.982094 2.749438 2.751625 4.979906 0.001625 4.979906 C -2.752281 4.979906 -4.98275 2.749438 -4.98275 -0.0005625 C -4.98275 -2.750562 -2.752281 -4.981031 0.001625 -4.981031 C 2.751625 -4.981031 4.982094 -2.750562 4.982094 -0.0005625 Z M 4.982094 -0.0005625 " transform="matrix(1,0,0,-1,233.514,55.851)"/>
<path style="fill-rule:nonzero;fill:rgb(73.33374%,73.33374%,73.33374%);fill-opacity:1;stroke-width:0.3985;stroke-linecap:butt;stroke-linejoin:miter;stroke:rgb(73.33374%,73.33374%,73.33374%);stroke-opacity:1;stroke-miterlimit:10;" d="M 4.980969 0.001625 C 4.980969 2.751625 2.7505 4.982094 0.0005 4.982094 C -2.7495 4.982094 -4.979969 2.751625 -4.979969 0.001625 C -4.979969 -2.752281 -2.7495 -4.98275 0.0005 -4.98275 C 2.7505 -4.98275 4.980969 -2.752281 4.980969 0.001625 Z M 4.980969 0.001625 " transform="matrix(1,0,0,-1,247.687,77.111)"/>
<path style="fill-rule:nonzero;fill:rgb(73.33374%,73.33374%,73.33374%);fill-opacity:1;stroke-width:0.3985;stroke-linecap:butt;stroke-linejoin:miter;stroke:rgb(73.33374%,73.33374%,73.33374%);stroke-opacity:1;stroke-miterlimit:10;" d="M 4.981031 -0.00009375 C 4.981031 2.749906 2.750563 4.980375 0.0005625 4.980375 C -2.749437 4.980375 -4.979906 2.749906 -4.979906 -0.00009375 C -4.979906 -2.750094 -2.749437 -4.980562 0.0005625 -4.980562 C 2.750563 -4.980562 4.981031 -2.750094 4.981031 -0.00009375 Z M 4.981031 -0.00009375 " transform="matrix(1,0,0,-1,240.601,98.371)"/>
<path style="fill-rule:nonzero;fill:rgb(73.33374%,73.33374%,73.33374%);fill-opacity:1;stroke-width:0.3985;stroke-linecap:butt;stroke-linejoin:miter;stroke:rgb(73.33374%,73.33374%,73.33374%);stroke-opacity:1;stroke-miterlimit:10;" d="M 4.982156 -0.00175 C 4.982156 2.752156 2.751688 4.982625 0.0016875 4.982625 C -2.752219 4.982625 -4.982687 2.752156 -4.982687 -0.00175 C -4.982687 -2.75175 -2.752219 -4.982219 0.0016875 -4.982219 C 2.751688 -4.982219 4.982156 -2.75175 4.982156 -0.00175 Z M 4.982156 -0.00175 " transform="matrix(1,0,0,-1,226.428,126.717)"/>
<path style="fill-rule:nonzero;fill:rgb(73.33374%,73.33374%,73.33374%);fill-opacity:1;stroke-width:0.3985;stroke-linecap:butt;stroke-linejoin:miter;stroke:rgb(73.33374%,73.33374%,73.33374%);stroke-opacity:1;stroke-miterlimit:10;" d="M 4.979906 0.00103125 C 4.979906 2.751031 2.749437 4.9815 -0.0005625 4.9815 C -2.750563 4.9815 -4.981031 2.751031 -4.981031 0.00103125 C -4.981031 -2.752875 -2.750563 -4.979437 -0.0005625 -4.979437 C 2.749437 -4.979437 4.979906 -2.752875 4.979906 0.00103125 Z M 4.979906 0.00103125 " transform="matrix(1,0,0,-1,254.774,112.544)"/>
<path style="fill-rule:nonzero;fill:rgb(73.33374%,73.33374%,73.33374%);fill-opacity:1;stroke-width:0.3985;stroke-linecap:butt;stroke-linejoin:miter;stroke:rgb(73.33374%,73.33374%,73.33374%);stroke-opacity:1;stroke-miterlimit:10;" d="M 4.980969 -0.0006875 C 4.980969 2.749313 2.7505 4.979781 0.0005 4.979781 C -2.7495 4.979781 -4.979969 2.749313 -4.979969 -0.0006875 C -4.979969 -2.750687 -2.7495 -4.981156 0.0005 -4.981156 C 2.7505 -4.981156 4.980969 -2.750687 4.980969 -0.0006875 Z M 4.980969 -0.0006875 " transform="matrix(1,0,0,-1,247.687,133.804)"/>
<path style="fill:none;stroke-width:1.99255;stroke-linecap:butt;stroke-linejoin:miter;stroke:rgb(0%,0%,0%);stroke-opacity:1;stroke-miterlimit:10;" d="M -7.086094 35.433438 L -68.488438 35.433438 " transform="matrix(1,0,0,-1,127.215,183.41)"/>
<path style="fill-rule:nonzero;fill:rgb(0%,0%,0%);fill-opacity:1;stroke-width:1.99255;stroke-linecap:butt;stroke-linejoin:miter;stroke:rgb(0%,0%,0%);stroke-opacity:1;stroke-miterlimit:10;" d="M 5.856862 0.0000525 L 0.997487 1.484427 L 0.997487 -1.484323 Z M 5.856862 0.0000525 " transform="matrix(-1,0,0,1,59.22405,147.97651)"/>
<path style="fill:none;stroke-width:1.99255;stroke-linecap:butt;stroke-linejoin:miter;stroke:rgb(0%,0%,0%);stroke-opacity:1;stroke-miterlimit:10;" d="M 7.085781 -14.172031 L -68.488438 -14.172031 " transform="matrix(1,0,0,-1,127.215,183.41)"/>
<path style="fill-rule:nonzero;fill:rgb(0%,0%,0%);fill-opacity:1;stroke-width:1.99255;stroke-linecap:butt;stroke-linejoin:miter;stroke:rgb(0%,0%,0%);stroke-opacity:1;stroke-miterlimit:10;" d="M 5.856862 -0.00135875 L 0.997487 1.483016 L 0.997487 -1.485734 Z M 5.856862 -0.00135875 " transform="matrix(-1,0,0,1,59.22405,197.58339)"/>
<path style="fill:none;stroke-width:1.99255;stroke-linecap:butt;stroke-linejoin:miter;stroke:rgb(0%,0%,0%);stroke-opacity:1;stroke-miterlimit:10;" d="M -7.086094 21.261563 L -68.488438 21.261563 " transform="matrix(1,0,0,-1,127.215,183.41)"/>
<path style="fill-rule:nonzero;fill:rgb(0%,0%,0%);fill-opacity:1;stroke-width:1.99255;stroke-linecap:butt;stroke-linejoin:miter;stroke:rgb(0%,0%,0%);stroke-opacity:1;stroke-miterlimit:10;" d="M 5.856862 -0.0014625 L 0.997487 1.486819 L 0.997487 -1.485838 Z M 5.856862 -0.0014625 " transform="matrix(-1,0,0,1,59.22405,162.1499)"/>
<path style="fill:none;stroke-width:1.99255;stroke-linecap:butt;stroke-linejoin:miter;stroke:rgb(0%,0%,0%);stroke-opacity:1;stroke-miterlimit:10;" d="M -7.086094 -0.00015625 L -68.488438 -0.00015625 " transform="matrix(1,0,0,-1,127.215,183.41)"/>
<path style="fill-rule:nonzero;fill:rgb(0%,0%,0%);fill-opacity:1;stroke-width:1.99255;stroke-linecap:butt;stroke-linejoin:miter;stroke:rgb(0%,0%,0%);stroke-opacity:1;stroke-miterlimit:10;" d="M 5.856862 0.00015625 L 0.997487 1.484531 L 0.997487 -1.484219 Z M 5.856862 0.00015625 " transform="matrix(-1,0,0,1,59.22405,183.41)"/>
<path style="fill:none;stroke-width:1.99255;stroke-linecap:butt;stroke-linejoin:miter;stroke:rgb(0%,0%,0%);stroke-opacity:1;stroke-miterlimit:10;" d="M 35.433437 -21.261875 L -68.488438 -21.261875 " transform="matrix(1,0,0,-1,127.215,183.41)"/>
<path style="fill-rule:nonzero;fill:rgb(0%,0%,0%);fill-opacity:1;stroke-width:1.99255;stroke-linecap:butt;stroke-linejoin:miter;stroke:rgb(0%,0%,0%);stroke-opacity:1;stroke-miterlimit:10;" d="M 5.856862 0.001775 L 0.997487 1.48615 L 0.997487 -1.486506 Z M 5.856862 0.001775 " transform="matrix(-1,0,0,1,59.22405,204.6701)"/>
<path style="fill:none;stroke-width:1.99255;stroke-linecap:butt;stroke-linejoin:miter;stroke:rgb(73.33374%,73.33374%,73.33374%);stroke-opacity:1;stroke-miterlimit:10;" d="M -21.261875 56.695156 L -68.488438 56.695156 " transform="matrix(1,0,0,-1,127.215,183.41)"/>
<path style="fill-rule:nonzero;fill:rgb(73.33374%,73.33374%,73.33374%);fill-opacity:1;stroke-width:1.99255;stroke-linecap:butt;stroke-linejoin:miter;stroke:rgb(73.33374%,73.33374%,73.33374%);stroke-opacity:1;stroke-miterlimit:10;" d="M 5.856862 -0.00153625 L 0.997487 1.486745 L 0.997487 -1.485911 Z M 5.856862 -0.00153625 " transform="matrix(-1,0,0,1,59.22405,126.71638)"/>
<path style="fill:none;stroke-width:1.99255;stroke-linecap:butt;stroke-linejoin:miter;stroke:rgb(73.33374%,73.33374%,73.33374%);stroke-opacity:1;stroke-miterlimit:10;" d="M -35.43375 85.038906 L -68.488438 85.038906 " transform="matrix(1,0,0,-1,127.215,183.41)"/>
<path style="fill-rule:nonzero;fill:rgb(73.33374%,73.33374%,73.33374%);fill-opacity:1;stroke-width:1.99255;stroke-linecap:butt;stroke-linejoin:miter;stroke:rgb(73.33374%,73.33374%,73.33374%);stroke-opacity:1;stroke-miterlimit:10;" d="M 5.856862 0.00151375 L 0.997487 1.485889 L 0.997487 -1.486768 Z M 5.856862 0.00151375 " transform="matrix(-1,0,0,1,59.22405,98.36958)"/>
<path style="fill:none;stroke-width:1.99255;stroke-linecap:butt;stroke-linejoin:miter;stroke:rgb(73.33374%,73.33374%,73.33374%);stroke-opacity:1;stroke-miterlimit:10;" d="M -21.261875 106.300625 L -68.488438 106.300625 " transform="matrix(1,0,0,-1,127.215,183.41)"/>
<path style="fill-rule:nonzero;fill:rgb(73.33374%,73.33374%,73.33374%);fill-opacity:1;stroke-width:1.99255;stroke-linecap:butt;stroke-linejoin:miter;stroke:rgb(73.33374%,73.33374%,73.33374%);stroke-opacity:1;stroke-miterlimit:10;" d="M 5.856862 -0.000105 L 0.997487 1.48427 L 0.997487 -1.48448 Z M 5.856862 -0.000105 " transform="matrix(-1,0,0,1,59.22405,77.10948)"/>
<path style="fill:none;stroke-width:1.99255;stroke-linecap:butt;stroke-linejoin:miter;stroke:rgb(73.33374%,73.33374%,73.33374%);stroke-opacity:1;stroke-miterlimit:10;" d="M -7.086094 70.867031 L -68.488438 70.867031 " transform="matrix(1,0,0,-1,127.215,183.41)"/>
<path style="fill-rule:nonzero;fill:rgb(73.33374%,73.33374%,73.33374%);fill-opacity:1;stroke-width:1.99255;stroke-linecap:butt;stroke-linejoin:miter;stroke:rgb(73.33374%,73.33374%,73.33374%);stroke-opacity:1;stroke-miterlimit:10;" d="M 5.856862 -0.00003125 L 0.997487 1.484344 L 0.997487 -1.484406 Z M 5.856862 -0.00003125 " transform="matrix(-1,0,0,1,59.22405,112.543)"/>
<path style="fill:none;stroke-width:1.99255;stroke-linecap:butt;stroke-linejoin:miter;stroke:rgb(73.33374%,73.33374%,73.33374%);stroke-opacity:1;stroke-miterlimit:10;" d="M -7.086094 127.562344 L -68.488438 127.562344 " transform="matrix(1,0,0,-1,127.215,183.41)"/>
<path style="fill-rule:nonzero;fill:rgb(73.33374%,73.33374%,73.33374%);fill-opacity:1;stroke-width:1.99255;stroke-linecap:butt;stroke-linejoin:miter;stroke:rgb(73.33374%,73.33374%,73.33374%);stroke-opacity:1;stroke-miterlimit:10;" d="M 5.856862 -0.00172375 L 0.997487 1.486557 L 0.997487 -1.486099 Z M 5.856862 -0.00172375 " transform="matrix(-1,0,0,1,59.22405,55.84938)"/>
<path style="fill:none;stroke-width:1.99255;stroke-linecap:butt;stroke-linejoin:miter;stroke:rgb(73.33374%,73.33374%,73.33374%);stroke-opacity:1;stroke-miterlimit:10;" d="M 7.085781 120.4725 L -68.488438 120.4725 " transform="matrix(1,0,0,-1,127.215,183.41)"/>
<path style="fill-rule:nonzero;fill:rgb(73.33374%,73.33374%,73.33374%);fill-opacity:1;stroke-width:1.99255;stroke-linecap:butt;stroke-linejoin:miter;stroke:rgb(73.33374%,73.33374%,73.33374%);stroke-opacity:1;stroke-miterlimit:10;" d="M 5.856862 0.00142 L 0.997487 1.485795 L 0.997487 -1.486861 Z M 5.856862 0.00142 " transform="matrix(-1,0,0,1,59.22405,62.93608)"/>
<path style="fill:none;stroke-width:1.99255;stroke-linecap:butt;stroke-linejoin:miter;stroke:rgb(73.33374%,73.33374%,73.33374%);stroke-opacity:1;stroke-miterlimit:10;" d="M 35.433437 134.648281 L -68.488438 134.648281 " transform="matrix(1,0,0,-1,127.215,183.41)"/>
<path style="fill-rule:nonzero;fill:rgb(73.33374%,73.33374%,73.33374%);fill-opacity:1;stroke-width:1.99255;stroke-linecap:butt;stroke-linejoin:miter;stroke:rgb(73.33374%,73.33374%,73.33374%);stroke-opacity:1;stroke-miterlimit:10;" d="M 5.856862 -0.00094125 L 0.997487 1.483434 L 0.997487 -1.485316 Z M 5.856862 -0.00094125 " transform="matrix(-1,0,0,1,59.22405,48.76266)"/>
<path style="fill:none;stroke-width:1.19553;stroke-linecap:butt;stroke-linejoin:miter;stroke:rgb(0%,0%,0%);stroke-opacity:1;stroke-dasharray:2.98883,2.98883;stroke-miterlimit:10;" d="M 141.734219 14.171719 C 141.734219 37.656094 103.66 56.695156 56.695156 56.695156 C 9.726406 56.695156 -28.347813 37.656094 -28.347813 14.171719 C -28.347813 -9.30875 9.726406 -28.347812 56.695156 -28.347812 C 103.66 -28.347812 141.734219 -9.30875 141.734219 14.171719 Z M 141.734219 14.171719 " transform="matrix(1,0,0,-1,127.215,183.41)"/>
</g>
</svg>
