<?xml version="1.0" encoding="UTF-8"?>
<svg xmlns="http://www.w3.org/2000/svg" xmlns:xlink="http://www.w3.org/1999/xlink" width="425.339pt" height="246.347pt" viewBox="0 0 425.339 246.347" version="1.1">
<g id="surface1">
<path style="fill-rule:nonzero;fill:rgb(0%,0%,0%);fill-opacity:1;stroke-width:0.3985;stroke-linecap:butt;stroke-linejoin:miter;stroke:rgb(0%,0%,0%);stroke-opacity:1;stroke-miterlimit:10;" d="M 4.980312 0.0004375 C 4.980312 2.750438 2.749844 4.980906 -0.00015625 4.980906 C -2.750156 4.980906 -4.980625 2.750438 -4.980625 0.0004375 C -4.980625 -2.749562 -2.750156 -4.980031 -0.00015625 -4.980031 C 2.749844 -4.980031 4.980312 -2.749562 4.980312 0.0004375 Z M 4.980312 0.0004375 " transform="matrix(1,0,0,-1,127.215,147.977)"/>
<path style="fill-rule:nonzero;fill:rgb(0%,0%,0%);fill-opacity:1;stroke-width:0.3985;stroke-linecap:butt;stroke-linejoin:miter;stroke:rgb(0%,0%,0%);stroke-opacity:1;stroke-miterlimit:10;" d="M 4.983094 0.00096875 C 4.983094 2.750969 2.752625 4.981438 -0.00128125 4.981438 C -2.751281 4.981438 -4.98175 2.750969 -4.98175 0.00096875 C -4.98175 -2.752937 -2.751281 -4.9795 -0.00128125 -4.9795 C 2.752625 -4.9795 4.983094 -2.752937 4.983094 0.00096875 Z M 4.983094 0.00096875 " transform="matrix(1,0,0,-1,141.388,197.583)"/>
<path style="fill-rule:nonzero;fill:rgb(0%,0%,0%);fill-opacity:1;stroke-width:0.3985;stroke-linecap:butt;stroke-linejoin:miter;stroke:rgb(0%,0%,0%);stroke-opacity:1;stroke-miterlimit:10;" d="M 4.981969 -0.00015625 C 4.981969 2.749844 2.7515 4.980313 0.0015 4.980313 C -2.752406 4.980313 -4.982875 2.749844 -4.982875 -0.00015625 C -4.982875 -2.750156 -2.752406 -4.980625 0.0015 -4.980625 C 2.7515 -4.980625 4.981969 -2.750156 4.981969 -0.00015625 Z M 4.981969 -0.00015625 " transform="matrix(1,0,0,-1,155.561,183.41)"/>
<path style="fill-rule:nonzero;fill:rgb(0%,0%,0%);fill-opacity:1;stroke-width:0.3985;stroke-linecap:butt;stroke-linejoin:miter;stroke:rgb(0%,0%,0%);stroke-opacity:1;stroke-miterlimit:10;" d="M 4.980312 0.0015625 C 4.980312 2.751563 2.749844 4.982031 -0.00015625 4.982031 C -2.750156 4.982031 -4.980625 2.751563 -4.980625 0.0015625 C -4.980625 -2.752344 -2.750156 -4.982812 -0.00015625 -4.982812 C 2.749844 -4.982812 4.980312 -2.752344 4.980312 0.0015625 Z M 4.980312 0.0015625 " transform="matrix(1,0,0,-1,127.215,162.15)"/>
<path style="fill-rule:nonzero;fill:rgb(0%,0%,0%);fill-opacity:1;stroke-width:0.3985;stroke-linecap:butt;stroke-linejoin:miter;stroke:rgb(0%,0%,0%);stroke-opacity:1;stroke-miterlimit:10;" d="M 4.980312 -0.00015625 C 4.980312 2.749844 2.749844 4.980313 -0.00015625 4.980313 C -2.750156 4.980313 -4.980625 2.749844 -4.980625 -0.00015625 C -4.980625 -2.750156 -2.750156 -4.980625 -0.00015625 -4.980625 C 2.749844 -4.980625 4.980312 -2.750156 4.980312 -0.00015625 Z M 4.980312 -0.00015625 " transform="matrix(1,0,0,-1,127.215,183.41)"/>
<path style="fill-rule:nonzero;fill:rgb(0%,0%,0%);fill-opacity:1;stroke-width:0.3985;stroke-linecap:butt;stroke-linejoin:miter;stroke:rgb(0%,0%,0%);stroke-opacity:1;stroke-miterlimit:10;" d="M 4.979844 -0.001875 C 4.979844 2.752031 2.749375 4.9825 -0.000625 4.9825 C -2.750625 4.9825 -4.981094 2.752031 -4.981094 -0.001875 C -4.981094 -2.751875 -2.750625 -4.982344 -0.000625 -4.982344 C 2.749375 -4.982344 4.979844 -2.751875 4.979844 -0.001875 Z M 4.979844 -0.001875 " transform="matrix(1,0,0,-1,169.735,204.67)"/>
<path style="fill-rule:nonzero;fill:rgb(0%,0%,0%);fill-opacity:1;stroke-width:0.3985;stroke-linecap:butt;stroke-linejoin:miter;stroke:rgb(0%,0%,0%);stroke-opacity:1;stroke-miterlimit:10;" d="M 4.982625 0.00096875 C 4.982625 2.750969 2.752156 4.981438 -0.00175 4.981438 C -2.75175 4.981438 -4.982219 2.750969 -4.982219 0.00096875 C -4.982219 -2.752937 -2.75175 -4.9795 -0.00175 -4.9795 C 2.752156 -4.9795 4.982625 -2.752937 4.982625 0.00096875 Z M 4.982625 0.00096875 " transform="matrix(1,0,0,-1,183.908,197.583)"/>
<path style="fill-rule:nonzero;fill:rgb(0%,0%,0%);fill-opacity:1;stroke-width:0.3985;stroke-linecap:butt;stroke-linejoin:miter;stroke:rgb(0%,0%,0%);stroke-opacity:1;stroke-miterlimit:10;" d="M 4.980437 -0.00015625 C 4.980437 2.749844 2.749969 4.980313 -0.00003125 4.980313 C -2.750031 4.980313 -4.9805 2.749844 -4.9805 -0.00015625 C -4.9805 -2.750156 -2.750031 -4.980625 -0.00003125 -4.980625 C 2.749969 -4.980625 4.980437 -2.750156 4.980437 -0.00015625 Z M 4.980437 -0.00015625 " transform="matrix(1,0,0,-1,205.168,183.41)"/>
<path style="fill-rule:nonzero;fill:rgb(0%,0%,0%);fill-opacity:1;stroke-width:0.3985;stroke-linecap:butt;stroke-linejoin:miter;stroke:rgb(0%,0%,0%);stroke-opacity:1;stroke-miterlimit:10;" d="M 4.980375 0.00096875 C 4.980375 2.750969 2.749906 4.981438 -0.00009375 4.981438 C -2.750094 4.981438 -4.980563 2.750969 -4.980563 0.00096875 C -4.980563 -2.752937 -2.750094 -4.9795 -0.00009375 -4.9795 C 2.749906 -4.9795 4.980375 -2.752937 4.980375 0.00096875 Z M 4.980375 0.00096875 " transform="matrix(1,0,0,-1,212.254,197.583)"/>
<path style="fill-rule:nonzero;fill:rgb(0%,0%,0%);fill-opacity:1;stroke-width:0.3985;stroke-linecap:butt;stroke-linejoin:miter;stroke:rgb(0%,0%,0%);stroke-opacity:1;stroke-miterlimit:10;" d="M 4.982094 0.00053125 C 4.982094 2.750531 2.751625 4.981 0.001625 4.981 C -2.752281 4.981 -4.98275 2.750531 -4.98275 0.00053125 C -4.98275 -2.749469 -2.752281 -4.979937 0.001625 -4.979937 C 2.751625 -4.979937 4.982094 -2.749469 4.982094 0.00053125 Z M 4.982094 0.00053125 " transform="matrix(1,0,0,-1,233.514,156.481)"/>
<path style="fill-rule:nonzero;fill:rgb(0%,0%,0%);fill-opacity:1;stroke-width:0.3985;stroke-linecap:butt;stroke-linejoin:miter;stroke:rgb(0%,0%,0%);stroke-opacity:1;stroke-miterlimit:10;" d="M 4.982156 -0.00015625 C 4.982156 2.749844 2.751688 4.980313 0.0016875 4.980313 C -2.752219 4.980313 -4.982687 2.749844 -4.982687 -0.00015625 C -4.982687 -2.750156 -2.752219 -4.980625 0.0016875 -4.980625 C 2.751688 -4.980625 4.982156 -2.750156 4.982156 -0.00015625 Z M 4.982156 -0.00015625 " transform="matrix(1,0,0,-1,226.428,183.41)"/>
<path style="fill-rule:nonzero;fill:rgb(0%,0%,0%);fill-opacity:1;stroke-width:0.3985;stroke-linecap:butt;stroke-linejoin:miter;stroke:rgb(0%,0%,0%);stroke-opacity:1;stroke-miterlimit:10;" d="M 4.981031 -0.00121875 C 4.981031 2.752688 2.750563 4.983156 0.0005625 4.983156 C -2.749437 4.983156 -4.979906 2.752688 -4.979906 -0.00121875 C -4.979906 -2.751219 -2.749437 -4.981687 0.0005625 -4.981687 C 2.750563 -4.981687 4.981031 -2.751219 4.981031 -0.00121875 Z M 4.981031 -0.00121875 " transform="matrix(1,0,0,-1,240.601,176.323)"/>
<path style="fill-rule:nonzero;fill:rgb(0%,0%,0%);fill-opacity:1;stroke-width:0.3985;stroke-linecap:butt;stroke-linejoin:miter;stroke:rgb(0%,0%,0%);stroke-opacity:1;stroke-miterlimit:10;" d="M 4.981437 -0.00175 C 4.981437 2.752156 2.750969 4.982625 0.00096875 4.982625 C -2.752938 4.982625 -4.9795 2.752156 -4.9795 -0.00175 C -4.9795 -2.75175 -2.752938 -4.982219 0.00096875 -4.982219 C 2.750969 -4.982219 4.981437 -2.75175 4.981437 -0.00175 Z M 4.981437 -0.00175 " transform="matrix(1,0,0,-1,113.042,126.717)"/>
<path style="fill-rule:nonzero;fill:rgb(0%,0%,0%);fill-opacity:1;stroke-width:0.3985;stroke-linecap:butt;stroke-linejoin:miter;stroke:rgb(0%,0%,0%);stroke-opacity:1;stroke-miterlimit:10;" d="M 4.982563 -0.00109375 C 4.982563 2.752813 2.752094 4.983281 -0.0018125 4.983281 C -2.751812 4.983281 -4.982281 2.752813 -4.982281 -0.00109375 C -4.982281 -2.751094 -2.751812 -4.981562 -0.0018125 -4.981562 C 2.752094 -4.981562 4.982563 -2.751094 4.982563 -0.00109375 Z M 4.982563 -0.00109375 " transform="matrix(1,0,0,-1,98.869,98.37)"/>
<path style="fill-rule:nonzero;fill:rgb(0%,0%,0%);fill-opacity:1;stroke-width:0.3985;stroke-linecap:butt;stroke-linejoin:miter;stroke:rgb(0%,0%,0%);stroke-opacity:1;stroke-miterlimit:10;" d="M 4.981437 0.001625 C 4.981437 2.751625 2.750969 4.982094 0.00096875 4.982094 C -2.752938 4.982094 -4.9795 2.751625 -4.9795 0.001625 C -4.9795 -2.752281 -2.752938 -4.98275 0.00096875 -4.98275 C 2.750969 -4.98275 4.981437 -2.752281 4.981437 0.001625 Z M 4.981437 0.001625 " transform="matrix(1,0,0,-1,113.042,77.111)"/>
<path style="fill-rule:nonzero;fill:rgb(0%,0%,0%);fill-opacity:1;stroke-width:0.3985;stroke-linecap:butt;stroke-linejoin:miter;stroke:rgb(0%,0%,0%);stroke-opacity:1;stroke-miterlimit:10;" d="M 4.980312 0.00103125 C 4.980312 2.751031 2.749844 4.9815 -0.00015625 4.9815 C -2.750156 4.9815 -4.980625 2.751031 -4.980625 0.00103125 C -4.980625 -2.752875 -2.750156 -4.979437 -0.00015625 -4.979437 C 2.749844 -4.979437 4.980312 -2.752875 4.980312 0.00103125 Z M 4.980312 0.00103125 " transform="matrix(1,0,0,-1,127.215,112.544)"/>
<path style="fill-rule:nonzero;fill:rgb(0%,0%,0%);fill-opacity:1;stroke-width:0.3985;stroke-linecap:butt;stroke-linejoin:miter;stroke:rgb(0%,0%,0%);stroke-opacity:1;stroke-miterlimit:10;" d="M 4.980312 -0.0005625 C 4.980312 2.749438 2.749844 4.979906 -0.00015625 4.979906 C -2.750156 4.979906 -4.980625 2.749438 -4.980625 -0.0005625 C -4.980625 -2.750562 -2.750156 -4.981031 -0.00015625 -4.981031 C 2.749844 -4.981031 4.980312 -2.750562 4.980312 -0.0005625 Z M 4.980312 -0.0005625 " transform="matrix(1,0,0,-1,127.215,55.851)"/>
<path style="fill-rule:nonzero;fill:rgb(0%,0%,0%);fill-opacity:1;stroke-width:0.3985;stroke-linecap:butt;stroke-linejoin:miter;stroke:rgb(0%,0%,0%);stroke-opacity:1;stroke-miterlimit:10;" d="M 4.983094 -0.0005 C 4.983094 2.7495 2.752625 4.979969 -0.00128125 4.979969 C -2.751281 4.979969 -4.98175 2.7495 -4.98175 -0.0005 C -4.98175 -2.7505 -2.751281 -4.980969 -0.00128125 -4.980969 C 2.752625 -4.980969 4.983094 -2.7505 4.983094 -0.0005 Z M 4.983094 -0.0005 " transform="matrix(1,0,0,-1,141.388,62.937)"/>
<path style="fill-rule:nonzero;fill:rgb(0%,0%,0%);fill-opacity:1;stroke-width:0.3985;stroke-linecap:butt;stroke-linejoin:miter;stroke:rgb(0%,0%,0%);stroke-opacity:1;stroke-miterlimit:10;" d="M 4.979844 -0.001625 C 4.979844 2.752281 2.749375 4.98275 -0.000625 4.98275 C -2.750625 4.98275 -4.981094 2.752281 -4.981094 -0.001625 C -4.981094 -2.751625 -2.750625 -4.982094 -0.000625 -4.982094 C 2.749375 -4.982094 4.979844 -2.751625 4.979844 -0.001625 Z M 4.979844 -0.001625 " transform="matrix(1,0,0,-1,169.735,48.764)"/>
<path style="fill-rule:nonzero;fill:rgb(0%,0%,0%);fill-opacity:1;stroke-width:0.3985;stroke-linecap:butt;stroke-linejoin:miter;stroke:rgb(0%,0%,0%);stroke-opacity:1;stroke-miterlimit:10;" d="M 4.981969 -0.0005625 C 4.981969 2.749438 2.7515 4.979906 0.0015 4.979906 C -2.752406 4.979906 -4.982875 2.749438 -4.982875 -0.0005625 C -4.982875 -2.750562 -2.752406 -4.981031 0.0015 -4.981031 C 2.7515 -4.981031 4.981969 -2.750562 4.981969 -0.0005625 Z M 4.981969 -0.0005625 " transform="matrix(1,0,0,-1,155.561,55.851)"/>
<path style="fill-rule:nonzero;fill:rgb(0%,0%,0%);fill-opacity:1;stroke-width:0.3985;stroke-linecap:butt;stroke-linejoin:miter;stroke:rgb(0%,0%,0%);stroke-opacity:1;stroke-miterlimit:10;" d="M 4.982625 -0.001625 C 4.982625 2.752281 2.752156 4.98275 -0.00175 4.98275 C -2.75175 4.98275 -4.982219 2.752281 -4.982219 -0.001625 C -4.982219 -2.751625 -2.75175 -4.982094 -0.00175 -4.982094 C 2.752156 -4.982094 4.982625 -2.751625 4.982625 -0.001625 Z M 4.982625 -0.001625 " transform="matrix(1,0,0,-1,183.908,48.764)"/>
<path style="fill-rule:nonzero;fill:rgb(0%,0%,0%);fill-opacity:1;stroke-width:0.3985;stroke-linecap:butt;stroke-linejoin:miter;stroke:rgb(0%,0%,0%);stroke-opacity:1;stroke-miterlimit:10;" d="M 4.9815 -0.0005 C 4.9815 2.7495 2.751031 4.979969 0.00103125 4.979969 C -2.752875 4.979969 -4.979438 2.7495 -4.979438 -0.0005 C -4.979438 -2.7505 -2.752875 -4.980969 0.00103125 -4.980969 C 2.751031 -4.980969 4.9815 -2.7505 4.9815 -0.0005 Z M 4.9815 -0.0005 " transform="matrix(1,0,0,-1,198.081,62.937)"/>
<path style="fill-rule:nonzero;fill:rgb(0%,0%,0%);fill-opacity:1;stroke-width:0.3985;stroke-linecap:butt;stroke-linejoin:miter;stroke:rgb(0%,0%,0%);stroke-opacity:1;stroke-miterlimit:10;" d="M 4.980375 -0.0005625 C 4.980375 2.749438 2.749906 4.979906 -0.00009375 4.979906 C -2.750094 4.979906 -4.980563 2.749438 -4.980563 -0.0005625 C -4.980563 -2.750562 -2.750094 -4.981031 -0.00009375 -4.981031 C 2.749906 -4.981031 4.980375 -2.750562 4.980375 -0.0005625 Z M 4.980375 -0.0005625 " transform="matrix(1,0,0,-1,212.254,55.851)"/>
<path style="fill-rule:nonzero;fill:rgb(0%,0%,0%);fill-opacity:1;stroke-width:0.3985;stroke-linecap:butt;stroke-linejoin:miter;stroke:rgb(0%,0%,0%);stroke-opacity:1;stroke-miterlimit:10;" d="M 4.982094 -0.0005625 C 4.982094 2.749438 2.751625 4.979906 0.001625 4.979906 C -2.752281 4.979906 -4.98275 2.749438 -4.98275 -0.0005625 C -4.98275 -2.750562 -2.752281 -4.981031 0.001625 -4.981031 C 2.751625 -4.981031 4.982094 -2.750562 4.982094 -0.0005625 Z M 4.982094 -0.0005625 " transform="matrix(1,0,0,-1,233.514,55.851)"/>
<path style="fill-rule:nonzero;fill:rgb(0%,0%,0%);fill-opacity:1;stroke-width:0.3985;stroke-linecap:butt;stroke-linejoin:miter;stroke:rgb(0%,0%,0%);stroke-opacity:1;stroke-miterlimit:10;" d="M 4.980969 0.001625 C 4.980969 2.751625 2.7505 4.982094 0.0005 4.982094 C -2.7495 4.982094 -4.979969 2.751625 -4.979969 0.001625 C -4.979969 -2.752281 -2.7495 -4.98275 0.0005 -4.98275 C 2.7505 -4.98275 4.980969 -2.752281 4.980969 0.001625 Z M 4.980969 0.001625 " transform="matrix(1,0,0,-1,247.687,77.111)"/>
<path style="fill-rule:nonzero;fill:rgb(0%,0%,0%);fill-opacity:1;stroke-width:0.3985;stroke-linecap:butt;stroke-linejoin:miter;stroke:rgb(0%,0%,0%);stroke-opacity:1;stroke-miterlimit:10;" d="M 4.981031 -0.00009375 C 4.981031 2.749906 2.750563 4.980375 0.0005625 4.980375 C -2.749437 4.980375 -4.979906 2.749906 -4.979906 -0.00009375 C -4.979906 -2.750094 -2.749437 -4.980562 0.0005625 -4.980562 C 2.750563 -4.980562 4.981031 -2.750094 4.981031 -0.00009375 Z M 4.981031 -0.00009375 " transform="matrix(1,0,0,-1,240.601,98.371)"/>
<path style="fill-rule:nonzero;fill:rgb(0%,0%,0%);fill-opacity:1;stroke-width:0.3985;stroke-linecap:butt;stroke-linejoin:miter;stroke:rgb(0%,0%,0%);stroke-opacity:1;stroke-miterlimit:10;" d="M 4.982156 -0.00175 C 4.982156 2.752156 2.751688 4.982625 0.0016875 4.982625 C -2.752219 4.982625 -4.982687 2.752156 -4.982687 -0.00175 C -4.982687 -2.75175 -2.752219 -4.982219 0.0016875 -4.982219 C 2.751688 -4.982219 4.982156 -2.75175 4.982156 -0.00175 Z M 4.982156 -0.00175 " transform="matrix(1,0,0,-1,226.428,126.717)"/>
<path style="fill-rule:nonzero;fill:rgb(0%,0%,0%);fill-opacity:1;stroke-width:0.3985;stroke-linecap:butt;stroke-linejoin:miter;stroke:rgb(0%,0%,0%);stroke-opacity:1;stroke-miterlimit:10;" d="M 4.979906 0.00103125 C 4.979906 2.751031 2.749437 4.9815 -0.0005625 4.9815 C -2.750563 4.9815 -4.981031 2.751031 -4.981031 0.00103125 C -4.981031 -2.752875 -2.750563 -4.979437 -0.0005625 -4.979437 C 2.749437 -4.979437 4.979906 -2.752875 4.979906 0.00103125 Z M 4.979906 0.00103125 " transform="matrix(1,0,0,-1,254.774,112.544)"/>
<path style="fill-rule:nonzero;fill:rgb(0%,0%,0%);fill-opacity:1;stroke-width:0.3985;stroke-linecap:butt;stroke-linejoin:miter;stroke:rgb(0%,0%,0%);stroke-opacity:1;stroke-miterlimit:10;" d="M 4.980969 -0.0006875 C 4.980969 2.749313 2.7505 4.979781 0.0005 4.979781 C -2.7495 4.979781 -4.979969 2.749313 -4.979969 -0.0006875 C -4.979969 -2.750687 -2.7495 -4.981156 0.0005 -4.981156 C 2.7505 -4.981156 4.980969 -2.750687 4.980969 -0.0006875 Z M 4.980969 -0.0006875 " transform="matrix(1,0,0,-1,247.687,133.804)"/>
</g>
</svg>
