<?xml version="1.0" encoding="utf-8" standalone="no"?>
<!DOCTYPE svg PUBLIC "-//W3C//DTD SVG 1.1//EN"
  "http://www.w3.org/Graphics/SVG/1.1/DTD/svg11.dtd">
<svg xmlns:xlink="http://www.w3.org/1999/xlink" width="567.564937pt" height="288.635203pt" viewBox="0 0 567.564937 288.635203" xmlns="http://www.w3.org/2000/svg" version="1.1">
 <metadata>
  <rdf:RDF xmlns:dc="http://purl.org/dc/elements/1.1/" xmlns:cc="http://creativecommons.org/ns#" xmlns:rdf="http://www.w3.org/1999/02/22-rdf-syntax-ns#">
   <cc:Work>
    <dc:type rdf:resource="http://purl.org/dc/dcmitype/StillImage"/>
    <dc:date>2026-01-27T12:19:12.990218</dc:date>
    <dc:format>image/svg+xml</dc:format>
    <dc:creator>
     <cc:Agent>
      <dc:title>Matplotlib v3.10.0, https://matplotlib.org/</dc:title>
     </cc:Agent>
    </dc:creator>
   </cc:Work>
  </rdf:RDF>
 </metadata>
 <defs>
  <style type="text/css">*{stroke-linejoin: round; stroke-linecap: butt}</style>
 </defs>
 <g id="figure_1">
  <g id="patch_1">
   <path d="M 0 288.635203 
L 567.564937 288.635203 
L 567.564937 0 
L 0 0 
z
" style="fill: #ffffff"/>
  </g>
  <g id="axes_1">
   <g id="patch_2">
    <path d="M 46.034938 212.031537 
L 290.394096 212.031537 
L 290.394096 11.075203 
L 46.034938 11.075203 
z
" style="fill: #fffafa"/>
   </g>
   <g id="matplotlib.axis_1">
    <g id="xtick_1">
     <g id="line2d_1">
      <defs>
       <path id="m5e058922ec" d="M 0 0 
L 0 3.5 
" style="stroke: #000000; stroke-width: 0.8"/>
      </defs>
      <g>
       <use xlink:href="#m5e058922ec" x="86.761464" y="212.031537" style="stroke: #000000; stroke-width: 0.8"/>
      </g>
     </g>
     <g id="text_1">
      <!-- Hoosier Pass - East -->
      <g transform="translate(40.027883 246.728405) rotate(-12) scale(0.102 -0.102)">
       <defs>
        <path id="DejaVuSans-48" d="M 628 4666 
L 1259 4666 
L 1259 2753 
L 3553 2753 
L 3553 4666 
L 4184 4666 
L 4184 0 
L 3553 0 
L 3553 2222 
L 1259 2222 
L 1259 0 
L 628 0 
L 628 4666 
z
" transform="scale(0.015625)"/>
        <path id="DejaVuSans-6f" d="M 1959 3097 
Q 1497 3097 1228 2736 
Q 959 2375 959 1747 
Q 959 1119 1226 758 
Q 1494 397 1959 397 
Q 2419 397 2687 759 
Q 2956 1122 2956 1747 
Q 2956 2369 2687 2733 
Q 2419 3097 1959 3097 
z
M 1959 3584 
Q 2709 3584 3137 3096 
Q 3566 2609 3566 1747 
Q 3566 888 3137 398 
Q 2709 -91 1959 -91 
Q 1206 -91 779 398 
Q 353 888 353 1747 
Q 353 2609 779 3096 
Q 1206 3584 1959 3584 
z
" transform="scale(0.015625)"/>
        <path id="DejaVuSans-73" d="M 2834 3397 
L 2834 2853 
Q 2591 2978 2328 3040 
Q 2066 3103 1784 3103 
Q 1356 3103 1142 2972 
Q 928 2841 928 2578 
Q 928 2378 1081 2264 
Q 1234 2150 1697 2047 
L 1894 2003 
Q 2506 1872 2764 1633 
Q 3022 1394 3022 966 
Q 3022 478 2636 193 
Q 2250 -91 1575 -91 
Q 1294 -91 989 -36 
Q 684 19 347 128 
L 347 722 
Q 666 556 975 473 
Q 1284 391 1588 391 
Q 1994 391 2212 530 
Q 2431 669 2431 922 
Q 2431 1156 2273 1281 
Q 2116 1406 1581 1522 
L 1381 1569 
Q 847 1681 609 1914 
Q 372 2147 372 2553 
Q 372 3047 722 3315 
Q 1072 3584 1716 3584 
Q 2034 3584 2315 3537 
Q 2597 3491 2834 3397 
z
" transform="scale(0.015625)"/>
        <path id="DejaVuSans-69" d="M 603 3500 
L 1178 3500 
L 1178 0 
L 603 0 
L 603 3500 
z
M 603 4863 
L 1178 4863 
L 1178 4134 
L 603 4134 
L 603 4863 
z
" transform="scale(0.015625)"/>
        <path id="DejaVuSans-65" d="M 3597 1894 
L 3597 1613 
L 953 1613 
Q 991 1019 1311 708 
Q 1631 397 2203 397 
Q 2534 397 2845 478 
Q 3156 559 3463 722 
L 3463 178 
Q 3153 47 2828 -22 
Q 2503 -91 2169 -91 
Q 1331 -91 842 396 
Q 353 884 353 1716 
Q 353 2575 817 3079 
Q 1281 3584 2069 3584 
Q 2775 3584 3186 3129 
Q 3597 2675 3597 1894 
z
M 3022 2063 
Q 3016 2534 2758 2815 
Q 2500 3097 2075 3097 
Q 1594 3097 1305 2825 
Q 1016 2553 972 2059 
L 3022 2063 
z
" transform="scale(0.015625)"/>
        <path id="DejaVuSans-72" d="M 2631 2963 
Q 2534 3019 2420 3045 
Q 2306 3072 2169 3072 
Q 1681 3072 1420 2755 
Q 1159 2438 1159 1844 
L 1159 0 
L 581 0 
L 581 3500 
L 1159 3500 
L 1159 2956 
Q 1341 3275 1631 3429 
Q 1922 3584 2338 3584 
Q 2397 3584 2469 3576 
Q 2541 3569 2628 3553 
L 2631 2963 
z
" transform="scale(0.015625)"/>
        <path id="DejaVuSans-20" transform="scale(0.015625)"/>
        <path id="DejaVuSans-50" d="M 1259 4147 
L 1259 2394 
L 2053 2394 
Q 2494 2394 2734 2622 
Q 2975 2850 2975 3272 
Q 2975 3691 2734 3919 
Q 2494 4147 2053 4147 
L 1259 4147 
z
M 628 4666 
L 2053 4666 
Q 2838 4666 3239 4311 
Q 3641 3956 3641 3272 
Q 3641 2581 3239 2228 
Q 2838 1875 2053 1875 
L 1259 1875 
L 1259 0 
L 628 0 
L 628 4666 
z
" transform="scale(0.015625)"/>
        <path id="DejaVuSans-61" d="M 2194 1759 
Q 1497 1759 1228 1600 
Q 959 1441 959 1056 
Q 959 750 1161 570 
Q 1363 391 1709 391 
Q 2188 391 2477 730 
Q 2766 1069 2766 1631 
L 2766 1759 
L 2194 1759 
z
M 3341 1997 
L 3341 0 
L 2766 0 
L 2766 531 
Q 2569 213 2275 61 
Q 1981 -91 1556 -91 
Q 1019 -91 701 211 
Q 384 513 384 1019 
Q 384 1609 779 1909 
Q 1175 2209 1959 2209 
L 2766 2209 
L 2766 2266 
Q 2766 2663 2505 2880 
Q 2244 3097 1772 3097 
Q 1472 3097 1187 3025 
Q 903 2953 641 2809 
L 641 3341 
Q 956 3463 1253 3523 
Q 1550 3584 1831 3584 
Q 2591 3584 2966 3190 
Q 3341 2797 3341 1997 
z
" transform="scale(0.015625)"/>
        <path id="DejaVuSans-2d" d="M 313 2009 
L 1997 2009 
L 1997 1497 
L 313 1497 
L 313 2009 
z
" transform="scale(0.015625)"/>
        <path id="DejaVuSans-45" d="M 628 4666 
L 3578 4666 
L 3578 4134 
L 1259 4134 
L 1259 2753 
L 3481 2753 
L 3481 2222 
L 1259 2222 
L 1259 531 
L 3634 531 
L 3634 0 
L 628 0 
L 628 4666 
z
" transform="scale(0.015625)"/>
        <path id="DejaVuSans-74" d="M 1172 4494 
L 1172 3500 
L 2356 3500 
L 2356 3053 
L 1172 3053 
L 1172 1153 
Q 1172 725 1289 603 
Q 1406 481 1766 481 
L 2356 481 
L 2356 0 
L 1766 0 
Q 1100 0 847 248 
Q 594 497 594 1153 
L 594 3053 
L 172 3053 
L 172 3500 
L 594 3500 
L 594 4494 
L 1172 4494 
z
" transform="scale(0.015625)"/>
       </defs>
       <use xlink:href="#DejaVuSans-48"/>
       <use xlink:href="#DejaVuSans-6f" transform="translate(75.195312 0)"/>
       <use xlink:href="#DejaVuSans-6f" transform="translate(136.376953 0)"/>
       <use xlink:href="#DejaVuSans-73" transform="translate(197.558594 0)"/>
       <use xlink:href="#DejaVuSans-69" transform="translate(249.658203 0)"/>
       <use xlink:href="#DejaVuSans-65" transform="translate(277.441406 0)"/>
       <use xlink:href="#DejaVuSans-72" transform="translate(338.964844 0)"/>
       <use xlink:href="#DejaVuSans-20" transform="translate(380.078125 0)"/>
       <use xlink:href="#DejaVuSans-50" transform="translate(411.865234 0)"/>
       <use xlink:href="#DejaVuSans-61" transform="translate(467.667969 0)"/>
       <use xlink:href="#DejaVuSans-73" transform="translate(528.947266 0)"/>
       <use xlink:href="#DejaVuSans-73" transform="translate(581.046875 0)"/>
       <use xlink:href="#DejaVuSans-20" transform="translate(633.146484 0)"/>
       <use xlink:href="#DejaVuSans-2d" transform="translate(664.933594 0)"/>
       <use xlink:href="#DejaVuSans-20" transform="translate(701.017578 0)"/>
       <use xlink:href="#DejaVuSans-45" transform="translate(732.804688 0)"/>
       <use xlink:href="#DejaVuSans-61" transform="translate(795.988281 0)"/>
       <use xlink:href="#DejaVuSans-73" transform="translate(857.267578 0)"/>
       <use xlink:href="#DejaVuSans-74" transform="translate(909.367188 0)"/>
      </g>
     </g>
    </g>
    <g id="xtick_2">
     <g id="line2d_2">
      <g>
       <use xlink:href="#m5e058922ec" x="168.214517" y="212.031537" style="stroke: #000000; stroke-width: 0.8"/>
      </g>
     </g>
     <g id="text_2">
      <!-- Hoosier Pass - West -->
      <g transform="translate(119.981252 247.36594) rotate(-12) scale(0.102 -0.102)">
       <defs>
        <path id="DejaVuSans-57" d="M 213 4666 
L 850 4666 
L 1831 722 
L 2809 4666 
L 3519 4666 
L 4500 722 
L 5478 4666 
L 6119 4666 
L 4947 0 
L 4153 0 
L 3169 4050 
L 2175 0 
L 1381 0 
L 213 4666 
z
" transform="scale(0.015625)"/>
       </defs>
       <use xlink:href="#DejaVuSans-48"/>
       <use xlink:href="#DejaVuSans-6f" transform="translate(75.195312 0)"/>
       <use xlink:href="#DejaVuSans-6f" transform="translate(136.376953 0)"/>
       <use xlink:href="#DejaVuSans-73" transform="translate(197.558594 0)"/>
       <use xlink:href="#DejaVuSans-69" transform="translate(249.658203 0)"/>
       <use xlink:href="#DejaVuSans-65" transform="translate(277.441406 0)"/>
       <use xlink:href="#DejaVuSans-72" transform="translate(338.964844 0)"/>
       <use xlink:href="#DejaVuSans-20" transform="translate(380.078125 0)"/>
       <use xlink:href="#DejaVuSans-50" transform="translate(411.865234 0)"/>
       <use xlink:href="#DejaVuSans-61" transform="translate(467.667969 0)"/>
       <use xlink:href="#DejaVuSans-73" transform="translate(528.947266 0)"/>
       <use xlink:href="#DejaVuSans-73" transform="translate(581.046875 0)"/>
       <use xlink:href="#DejaVuSans-20" transform="translate(633.146484 0)"/>
       <use xlink:href="#DejaVuSans-2d" transform="translate(664.933594 0)"/>
       <use xlink:href="#DejaVuSans-20" transform="translate(701.017578 0)"/>
       <use xlink:href="#DejaVuSans-57" transform="translate(732.804688 0)"/>
       <use xlink:href="#DejaVuSans-65" transform="translate(825.806641 0)"/>
       <use xlink:href="#DejaVuSans-73" transform="translate(887.330078 0)"/>
       <use xlink:href="#DejaVuSans-74" transform="translate(939.429688 0)"/>
      </g>
     </g>
    </g>
    <g id="xtick_3">
     <g id="line2d_3">
      <g>
       <use xlink:href="#m5e058922ec" x="249.66757" y="212.031537" style="stroke: #000000; stroke-width: 0.8"/>
      </g>
     </g>
     <g id="text_3">
      <!-- Weston Pass -->
      <g transform="translate(219.152241 239.833813) rotate(-12) scale(0.102 -0.102)">
       <defs>
        <path id="DejaVuSans-6e" d="M 3513 2113 
L 3513 0 
L 2938 0 
L 2938 2094 
Q 2938 2591 2744 2837 
Q 2550 3084 2163 3084 
Q 1697 3084 1428 2787 
Q 1159 2491 1159 1978 
L 1159 0 
L 581 0 
L 581 3500 
L 1159 3500 
L 1159 2956 
Q 1366 3272 1645 3428 
Q 1925 3584 2291 3584 
Q 2894 3584 3203 3211 
Q 3513 2838 3513 2113 
z
" transform="scale(0.015625)"/>
       </defs>
       <use xlink:href="#DejaVuSans-57"/>
       <use xlink:href="#DejaVuSans-65" transform="translate(93.001953 0)"/>
       <use xlink:href="#DejaVuSans-73" transform="translate(154.525391 0)"/>
       <use xlink:href="#DejaVuSans-74" transform="translate(206.625 0)"/>
       <use xlink:href="#DejaVuSans-6f" transform="translate(245.833984 0)"/>
       <use xlink:href="#DejaVuSans-6e" transform="translate(307.015625 0)"/>
       <use xlink:href="#DejaVuSans-20" transform="translate(370.394531 0)"/>
       <use xlink:href="#DejaVuSans-50" transform="translate(402.181641 0)"/>
       <use xlink:href="#DejaVuSans-61" transform="translate(457.984375 0)"/>
       <use xlink:href="#DejaVuSans-73" transform="translate(519.263672 0)"/>
       <use xlink:href="#DejaVuSans-73" transform="translate(571.363281 0)"/>
      </g>
     </g>
    </g>
   </g>
   <g id="matplotlib.axis_2">
    <g id="ytick_1">
     <g id="line2d_4">
      <defs>
       <path id="me9d7ea9431" d="M 0 0 
L -3.5 0 
" style="stroke: #000000; stroke-width: 0.8"/>
      </defs>
      <g>
       <use xlink:href="#me9d7ea9431" x="46.034938" y="212.031537" style="stroke: #000000; stroke-width: 0.8"/>
      </g>
     </g>
     <g id="text_4">
      <!-- 0.0 -->
      <g transform="translate(22.81375 215.90674) scale(0.102 -0.102)">
       <defs>
        <path id="DejaVuSans-30" d="M 2034 4250 
Q 1547 4250 1301 3770 
Q 1056 3291 1056 2328 
Q 1056 1369 1301 889 
Q 1547 409 2034 409 
Q 2525 409 2770 889 
Q 3016 1369 3016 2328 
Q 3016 3291 2770 3770 
Q 2525 4250 2034 4250 
z
M 2034 4750 
Q 2819 4750 3233 4129 
Q 3647 3509 3647 2328 
Q 3647 1150 3233 529 
Q 2819 -91 2034 -91 
Q 1250 -91 836 529 
Q 422 1150 422 2328 
Q 422 3509 836 4129 
Q 1250 4750 2034 4750 
z
" transform="scale(0.015625)"/>
        <path id="DejaVuSans-2e" d="M 684 794 
L 1344 794 
L 1344 0 
L 684 0 
L 684 794 
z
" transform="scale(0.015625)"/>
       </defs>
       <use xlink:href="#DejaVuSans-30"/>
       <use xlink:href="#DejaVuSans-2e" transform="translate(63.623047 0)"/>
       <use xlink:href="#DejaVuSans-30" transform="translate(95.410156 0)"/>
      </g>
     </g>
    </g>
    <g id="ytick_2">
     <g id="line2d_5">
      <g>
       <use xlink:href="#me9d7ea9431" x="46.034938" y="171.84027" style="stroke: #000000; stroke-width: 0.8"/>
      </g>
     </g>
     <g id="text_5">
      <!-- 0.2 -->
      <g transform="translate(22.81375 175.715473) scale(0.102 -0.102)">
       <defs>
        <path id="DejaVuSans-32" d="M 1228 531 
L 3431 531 
L 3431 0 
L 469 0 
L 469 531 
Q 828 903 1448 1529 
Q 2069 2156 2228 2338 
Q 2531 2678 2651 2914 
Q 2772 3150 2772 3378 
Q 2772 3750 2511 3984 
Q 2250 4219 1831 4219 
Q 1534 4219 1204 4116 
Q 875 4013 500 3803 
L 500 4441 
Q 881 4594 1212 4672 
Q 1544 4750 1819 4750 
Q 2544 4750 2975 4387 
Q 3406 4025 3406 3419 
Q 3406 3131 3298 2873 
Q 3191 2616 2906 2266 
Q 2828 2175 2409 1742 
Q 1991 1309 1228 531 
z
" transform="scale(0.015625)"/>
       </defs>
       <use xlink:href="#DejaVuSans-30"/>
       <use xlink:href="#DejaVuSans-2e" transform="translate(63.623047 0)"/>
       <use xlink:href="#DejaVuSans-32" transform="translate(95.410156 0)"/>
      </g>
     </g>
    </g>
    <g id="ytick_3">
     <g id="line2d_6">
      <g>
       <use xlink:href="#me9d7ea9431" x="46.034938" y="131.649004" style="stroke: #000000; stroke-width: 0.8"/>
      </g>
     </g>
     <g id="text_6">
      <!-- 0.4 -->
      <g transform="translate(22.81375 135.524207) scale(0.102 -0.102)">
       <defs>
        <path id="DejaVuSans-34" d="M 2419 4116 
L 825 1625 
L 2419 1625 
L 2419 4116 
z
M 2253 4666 
L 3047 4666 
L 3047 1625 
L 3713 1625 
L 3713 1100 
L 3047 1100 
L 3047 0 
L 2419 0 
L 2419 1100 
L 313 1100 
L 313 1709 
L 2253 4666 
z
" transform="scale(0.015625)"/>
       </defs>
       <use xlink:href="#DejaVuSans-30"/>
       <use xlink:href="#DejaVuSans-2e" transform="translate(63.623047 0)"/>
       <use xlink:href="#DejaVuSans-34" transform="translate(95.410156 0)"/>
      </g>
     </g>
    </g>
    <g id="ytick_4">
     <g id="line2d_7">
      <g>
       <use xlink:href="#me9d7ea9431" x="46.034938" y="91.457737" style="stroke: #000000; stroke-width: 0.8"/>
      </g>
     </g>
     <g id="text_7">
      <!-- 0.6 -->
      <g transform="translate(22.81375 95.33294) scale(0.102 -0.102)">
       <defs>
        <path id="DejaVuSans-36" d="M 2113 2584 
Q 1688 2584 1439 2293 
Q 1191 2003 1191 1497 
Q 1191 994 1439 701 
Q 1688 409 2113 409 
Q 2538 409 2786 701 
Q 3034 994 3034 1497 
Q 3034 2003 2786 2293 
Q 2538 2584 2113 2584 
z
M 3366 4563 
L 3366 3988 
Q 3128 4100 2886 4159 
Q 2644 4219 2406 4219 
Q 1781 4219 1451 3797 
Q 1122 3375 1075 2522 
Q 1259 2794 1537 2939 
Q 1816 3084 2150 3084 
Q 2853 3084 3261 2657 
Q 3669 2231 3669 1497 
Q 3669 778 3244 343 
Q 2819 -91 2113 -91 
Q 1303 -91 875 529 
Q 447 1150 447 2328 
Q 447 3434 972 4092 
Q 1497 4750 2381 4750 
Q 2619 4750 2861 4703 
Q 3103 4656 3366 4563 
z
" transform="scale(0.015625)"/>
       </defs>
       <use xlink:href="#DejaVuSans-30"/>
       <use xlink:href="#DejaVuSans-2e" transform="translate(63.623047 0)"/>
       <use xlink:href="#DejaVuSans-36" transform="translate(95.410156 0)"/>
      </g>
     </g>
    </g>
    <g id="ytick_5">
     <g id="line2d_8">
      <g>
       <use xlink:href="#me9d7ea9431" x="46.034938" y="51.26647" style="stroke: #000000; stroke-width: 0.8"/>
      </g>
     </g>
     <g id="text_8">
      <!-- 0.8 -->
      <g transform="translate(22.81375 55.141673) scale(0.102 -0.102)">
       <defs>
        <path id="DejaVuSans-38" d="M 2034 2216 
Q 1584 2216 1326 1975 
Q 1069 1734 1069 1313 
Q 1069 891 1326 650 
Q 1584 409 2034 409 
Q 2484 409 2743 651 
Q 3003 894 3003 1313 
Q 3003 1734 2745 1975 
Q 2488 2216 2034 2216 
z
M 1403 2484 
Q 997 2584 770 2862 
Q 544 3141 544 3541 
Q 544 4100 942 4425 
Q 1341 4750 2034 4750 
Q 2731 4750 3128 4425 
Q 3525 4100 3525 3541 
Q 3525 3141 3298 2862 
Q 3072 2584 2669 2484 
Q 3125 2378 3379 2068 
Q 3634 1759 3634 1313 
Q 3634 634 3220 271 
Q 2806 -91 2034 -91 
Q 1263 -91 848 271 
Q 434 634 434 1313 
Q 434 1759 690 2068 
Q 947 2378 1403 2484 
z
M 1172 3481 
Q 1172 3119 1398 2916 
Q 1625 2713 2034 2713 
Q 2441 2713 2670 2916 
Q 2900 3119 2900 3481 
Q 2900 3844 2670 4047 
Q 2441 4250 2034 4250 
Q 1625 4250 1398 4047 
Q 1172 3844 1172 3481 
z
" transform="scale(0.015625)"/>
       </defs>
       <use xlink:href="#DejaVuSans-30"/>
       <use xlink:href="#DejaVuSans-2e" transform="translate(63.623047 0)"/>
       <use xlink:href="#DejaVuSans-38" transform="translate(95.410156 0)"/>
      </g>
     </g>
    </g>
    <g id="ytick_6">
     <g id="line2d_9">
      <g>
       <use xlink:href="#me9d7ea9431" x="46.034938" y="11.075203" style="stroke: #000000; stroke-width: 0.8"/>
      </g>
     </g>
     <g id="text_9">
      <!-- 1.0 -->
      <g transform="translate(22.81375 14.950406) scale(0.102 -0.102)">
       <defs>
        <path id="DejaVuSans-31" d="M 794 531 
L 1825 531 
L 1825 4091 
L 703 3866 
L 703 4441 
L 1819 4666 
L 2450 4666 
L 2450 531 
L 3481 531 
L 3481 0 
L 794 0 
L 794 531 
z
" transform="scale(0.015625)"/>
       </defs>
       <use xlink:href="#DejaVuSans-31"/>
       <use xlink:href="#DejaVuSans-2e" transform="translate(63.623047 0)"/>
       <use xlink:href="#DejaVuSans-30" transform="translate(95.410156 0)"/>
      </g>
     </g>
    </g>
    <g id="text_10">
     <!-- Contamination % -->
     <g transform="translate(16.318125 163.33712) rotate(-90) scale(0.12 -0.12)">
      <defs>
       <path id="DejaVuSans-43" d="M 4122 4306 
L 4122 3641 
Q 3803 3938 3442 4084 
Q 3081 4231 2675 4231 
Q 1875 4231 1450 3742 
Q 1025 3253 1025 2328 
Q 1025 1406 1450 917 
Q 1875 428 2675 428 
Q 3081 428 3442 575 
Q 3803 722 4122 1019 
L 4122 359 
Q 3791 134 3420 21 
Q 3050 -91 2638 -91 
Q 1578 -91 968 557 
Q 359 1206 359 2328 
Q 359 3453 968 4101 
Q 1578 4750 2638 4750 
Q 3056 4750 3426 4639 
Q 3797 4528 4122 4306 
z
" transform="scale(0.015625)"/>
       <path id="DejaVuSans-6d" d="M 3328 2828 
Q 3544 3216 3844 3400 
Q 4144 3584 4550 3584 
Q 5097 3584 5394 3201 
Q 5691 2819 5691 2113 
L 5691 0 
L 5113 0 
L 5113 2094 
Q 5113 2597 4934 2840 
Q 4756 3084 4391 3084 
Q 3944 3084 3684 2787 
Q 3425 2491 3425 1978 
L 3425 0 
L 2847 0 
L 2847 2094 
Q 2847 2600 2669 2842 
Q 2491 3084 2119 3084 
Q 1678 3084 1418 2786 
Q 1159 2488 1159 1978 
L 1159 0 
L 581 0 
L 581 3500 
L 1159 3500 
L 1159 2956 
Q 1356 3278 1631 3431 
Q 1906 3584 2284 3584 
Q 2666 3584 2933 3390 
Q 3200 3197 3328 2828 
z
" transform="scale(0.015625)"/>
       <path id="DejaVuSans-25" d="M 4653 2053 
Q 4381 2053 4226 1822 
Q 4072 1591 4072 1178 
Q 4072 772 4226 539 
Q 4381 306 4653 306 
Q 4919 306 5073 539 
Q 5228 772 5228 1178 
Q 5228 1588 5073 1820 
Q 4919 2053 4653 2053 
z
M 4653 2450 
Q 5147 2450 5437 2106 
Q 5728 1763 5728 1178 
Q 5728 594 5436 251 
Q 5144 -91 4653 -91 
Q 4153 -91 3862 251 
Q 3572 594 3572 1178 
Q 3572 1766 3864 2108 
Q 4156 2450 4653 2450 
z
M 1428 4353 
Q 1159 4353 1004 4120 
Q 850 3888 850 3481 
Q 850 3069 1003 2837 
Q 1156 2606 1428 2606 
Q 1700 2606 1854 2837 
Q 2009 3069 2009 3481 
Q 2009 3884 1853 4118 
Q 1697 4353 1428 4353 
z
M 4250 4750 
L 4750 4750 
L 1831 -91 
L 1331 -91 
L 4250 4750 
z
M 1428 4750 
Q 1922 4750 2215 4408 
Q 2509 4066 2509 3481 
Q 2509 2891 2217 2550 
Q 1925 2209 1428 2209 
Q 931 2209 642 2551 
Q 353 2894 353 3481 
Q 353 4063 643 4406 
Q 934 4750 1428 4750 
z
" transform="scale(0.015625)"/>
      </defs>
      <use xlink:href="#DejaVuSans-43"/>
      <use xlink:href="#DejaVuSans-6f" transform="translate(69.824219 0)"/>
      <use xlink:href="#DejaVuSans-6e" transform="translate(131.005859 0)"/>
      <use xlink:href="#DejaVuSans-74" transform="translate(194.384766 0)"/>
      <use xlink:href="#DejaVuSans-61" transform="translate(233.59375 0)"/>
      <use xlink:href="#DejaVuSans-6d" transform="translate(294.873047 0)"/>
      <use xlink:href="#DejaVuSans-69" transform="translate(392.285156 0)"/>
      <use xlink:href="#DejaVuSans-6e" transform="translate(420.068359 0)"/>
      <use xlink:href="#DejaVuSans-61" transform="translate(483.447266 0)"/>
      <use xlink:href="#DejaVuSans-74" transform="translate(544.726562 0)"/>
      <use xlink:href="#DejaVuSans-69" transform="translate(583.935547 0)"/>
      <use xlink:href="#DejaVuSans-6f" transform="translate(611.71875 0)"/>
      <use xlink:href="#DejaVuSans-6e" transform="translate(672.900391 0)"/>
      <use xlink:href="#DejaVuSans-20" transform="translate(736.279297 0)"/>
      <use xlink:href="#DejaVuSans-25" transform="translate(768.066406 0)"/>
     </g>
    </g>
   </g>
   <g id="patch_3">
    <path d="M 60.289222 208.943522 
L 113.233706 208.943522 
L 113.233706 189.790324 
L 60.289222 189.790324 
L 60.289222 208.943522 
z
" clip-path="url(#p7732e64a82)" style="fill: #ff4500; stroke: #000000; stroke-linejoin: miter"/>
   </g>
   <g id="line2d_10">
    <path d="M 86.761464 208.943522 
L 86.761464 212.031537 
" clip-path="url(#p7732e64a82)" style="fill: none; stroke: #000000; stroke-linecap: square"/>
   </g>
   <g id="line2d_11">
    <path d="M 86.761464 189.790324 
L 86.761464 171.014018 
" clip-path="url(#p7732e64a82)" style="fill: none; stroke: #000000; stroke-linecap: square"/>
   </g>
   <g id="line2d_12">
    <path d="M 73.525343 212.031537 
L 99.997585 212.031537 
" clip-path="url(#p7732e64a82)" style="fill: none; stroke: #000000; stroke-linecap: square"/>
   </g>
   <g id="line2d_13">
    <path d="M 73.525343 171.014018 
L 99.997585 171.014018 
" clip-path="url(#p7732e64a82)" style="fill: none; stroke: #000000; stroke-linecap: square"/>
   </g>
   <g id="line2d_14">
    <defs>
     <path id="m4dcc3baef8" d="M 0 3 
C 0.795609 3 1.55874 2.683901 2.12132 2.12132 
C 2.683901 1.55874 3 0.795609 3 0 
C 3 -0.795609 2.683901 -1.55874 2.12132 -2.12132 
C 1.55874 -2.683901 0.795609 -3 0 -3 
C -0.795609 -3 -1.55874 -2.683901 -2.12132 -2.12132 
C -2.683901 -1.55874 -3 -0.795609 -3 0 
C -3 0.795609 -2.683901 1.55874 -2.12132 2.12132 
C -1.55874 2.683901 -0.795609 3 0 3 
z
" style="stroke: #000000"/>
    </defs>
    <g clip-path="url(#p7732e64a82)">
     <use xlink:href="#m4dcc3baef8" x="86.761464" y="150.61514" style="fill-opacity: 0; stroke: #000000"/>
     <use xlink:href="#m4dcc3baef8" x="86.761464" y="61.745153" style="fill-opacity: 0; stroke: #000000"/>
     <use xlink:href="#m4dcc3baef8" x="86.761464" y="145.327544" style="fill-opacity: 0; stroke: #000000"/>
    </g>
   </g>
   <g id="patch_4">
    <path d="M 141.742275 191.420631 
L 194.686759 191.420631 
L 194.686759 142.788028 
L 141.742275 142.788028 
L 141.742275 191.420631 
z
" clip-path="url(#p7732e64a82)" style="fill: #1e90ff; stroke: #000000; stroke-linejoin: miter"/>
   </g>
   <g id="line2d_15">
    <path d="M 168.214517 191.420631 
L 168.214517 210.948214 
" clip-path="url(#p7732e64a82)" style="fill: none; stroke: #000000; stroke-linecap: square"/>
   </g>
   <g id="line2d_16">
    <path d="M 168.214517 142.788028 
L 168.214517 95.280556 
" clip-path="url(#p7732e64a82)" style="fill: none; stroke: #000000; stroke-linecap: square"/>
   </g>
   <g id="line2d_17">
    <path d="M 154.978396 210.948214 
L 181.450638 210.948214 
" clip-path="url(#p7732e64a82)" style="fill: none; stroke: #000000; stroke-linecap: square"/>
   </g>
   <g id="line2d_18">
    <path d="M 154.978396 95.280556 
L 181.450638 95.280556 
" clip-path="url(#p7732e64a82)" style="fill: none; stroke: #000000; stroke-linecap: square"/>
   </g>
   <g id="line2d_19">
    <g clip-path="url(#p7732e64a82)">
     <use xlink:href="#m4dcc3baef8" x="168.214517" y="68.039203" style="fill-opacity: 0; stroke: #000000"/>
     <use xlink:href="#m4dcc3baef8" x="168.214517" y="47.354604" style="fill-opacity: 0; stroke: #000000"/>
    </g>
   </g>
   <g id="patch_5">
    <path d="M 223.195327 211.367533 
L 276.139812 211.367533 
L 276.139812 196.614792 
L 223.195327 196.614792 
L 223.195327 211.367533 
z
" clip-path="url(#p7732e64a82)" style="fill: #808080; stroke: #000000; stroke-linejoin: miter"/>
   </g>
   <g id="line2d_20">
    <path d="M 249.66757 211.367533 
L 249.66757 212.031537 
" clip-path="url(#p7732e64a82)" style="fill: none; stroke: #000000; stroke-linecap: square"/>
   </g>
   <g id="line2d_21">
    <path d="M 249.66757 196.614792 
L 249.66757 185.541839 
" clip-path="url(#p7732e64a82)" style="fill: none; stroke: #000000; stroke-linecap: square"/>
   </g>
   <g id="line2d_22">
    <path d="M 236.431448 212.031537 
L 262.903691 212.031537 
" clip-path="url(#p7732e64a82)" style="fill: none; stroke: #000000; stroke-linecap: square"/>
   </g>
   <g id="line2d_23">
    <path d="M 236.431448 185.541839 
L 262.903691 185.541839 
" clip-path="url(#p7732e64a82)" style="fill: none; stroke: #000000; stroke-linecap: square"/>
   </g>
   <g id="line2d_24">
    <g clip-path="url(#p7732e64a82)">
     <use xlink:href="#m4dcc3baef8" x="249.66757" y="159.681568" style="fill-opacity: 0; stroke: #000000"/>
    </g>
   </g>
   <g id="line2d_25">
    <path d="M 60.289222 205.108355 
L 113.233706 205.108355 
" clip-path="url(#p7732e64a82)" style="fill: none; stroke: #000000; stroke-width: 3"/>
   </g>
   <g id="line2d_26">
    <path d="M 141.742275 171.540702 
L 194.686759 171.540702 
" clip-path="url(#p7732e64a82)" style="fill: none; stroke: #000000; stroke-width: 3"/>
   </g>
   <g id="line2d_27">
    <path d="M 223.195327 210.077558 
L 276.139812 210.077558 
" clip-path="url(#p7732e64a82)" style="fill: none; stroke: #000000; stroke-width: 3"/>
   </g>
   <g id="patch_6">
    <path d="M 46.034938 212.031537 
L 46.034938 11.075203 
" style="fill: none; stroke: #000000; stroke-width: 0.8; stroke-linejoin: miter; stroke-linecap: square"/>
   </g>
   <g id="patch_7">
    <path d="M 290.394096 212.031537 
L 290.394096 11.075203 
" style="fill: none; stroke: #000000; stroke-width: 0.8; stroke-linejoin: miter; stroke-linecap: square"/>
   </g>
   <g id="patch_8">
    <path d="M 46.034938 212.031537 
L 290.394096 212.031537 
" style="fill: none; stroke: #000000; stroke-width: 0.8; stroke-linejoin: miter; stroke-linecap: square"/>
   </g>
   <g id="patch_9">
    <path d="M 46.034938 11.075203 
L 290.394096 11.075203 
" style="fill: none; stroke: #000000; stroke-width: 0.8; stroke-linejoin: miter; stroke-linecap: square"/>
   </g>
   <g id="text_11">
    <!-- A -->
    <g transform="translate(48.478529 26.761954) scale(0.18 -0.18)">
     <defs>
      <path id="DejaVuSans-41" d="M 2188 4044 
L 1331 1722 
L 3047 1722 
L 2188 4044 
z
M 1831 4666 
L 2547 4666 
L 4325 0 
L 3669 0 
L 3244 1197 
L 1141 1197 
L 716 0 
L 50 0 
L 1831 4666 
z
" transform="scale(0.015625)"/>
     </defs>
     <use xlink:href="#DejaVuSans-41"/>
    </g>
   </g>
  </g>
  <g id="axes_2">
   <g id="patch_10">
    <path d="M 316.005779 212.031537 
L 560.364937 212.031537 
L 560.364937 11.075203 
L 316.005779 11.075203 
z
" style="fill: #fffafa"/>
   </g>
   <g id="line2d_28">
    <path d="M 320.078432 192.969145 
L 393.386179 192.969145 
" clip-path="url(#pe7e6779491)" style="fill: none; stroke: #ff4500; stroke-width: 4; stroke-linecap: square"/>
   </g>
   <g id="line2d_29">
    <path d="M 328.223737 187.455673 
L 385.240874 187.455673 
" clip-path="url(#pe7e6779491)" style="fill: none; stroke-dasharray: 7.4,3.2; stroke-dashoffset: 0; stroke: #ff4500; stroke-width: 2"/>
   </g>
   <g id="line2d_30">
    <path d="M 328.223737 198.482618 
L 385.240874 198.482618 
" clip-path="url(#pe7e6779491)" style="fill: none; stroke-dasharray: 7.4,3.2; stroke-dashoffset: 0; stroke: #ff4500; stroke-width: 2"/>
   </g>
   <g id="line2d_31">
    <path d="M 401.531485 161.796216 
L 474.839232 161.796216 
" clip-path="url(#pe7e6779491)" style="fill: none; stroke: #1e90ff; stroke-width: 4; stroke-linecap: square"/>
   </g>
   <g id="line2d_32">
    <path d="M 409.67679 154.159432 
L 466.693927 154.159432 
" clip-path="url(#pe7e6779491)" style="fill: none; stroke-dasharray: 7.4,3.2; stroke-dashoffset: 0; stroke: #1e90ff; stroke-width: 2"/>
   </g>
   <g id="line2d_33">
    <path d="M 409.67679 169.432999 
L 466.693927 169.432999 
" clip-path="url(#pe7e6779491)" style="fill: none; stroke-dasharray: 7.4,3.2; stroke-dashoffset: 0; stroke: #1e90ff; stroke-width: 2"/>
   </g>
   <g id="line2d_34">
    <path d="M 482.984537 203.507721 
L 556.292285 203.507721 
" clip-path="url(#pe7e6779491)" style="fill: none; stroke: #808080; stroke-width: 4; stroke-linecap: square"/>
   </g>
   <g id="line2d_35">
    <path d="M 491.129843 201.320179 
L 548.14698 201.320179 
" clip-path="url(#pe7e6779491)" style="fill: none; stroke-dasharray: 7.4,3.2; stroke-dashoffset: 0; stroke: #808080; stroke-width: 2"/>
   </g>
   <g id="line2d_36">
    <path d="M 491.129843 205.695263 
L 548.14698 205.695263 
" clip-path="url(#pe7e6779491)" style="fill: none; stroke-dasharray: 7.4,3.2; stroke-dashoffset: 0; stroke: #808080; stroke-width: 2"/>
   </g>
   <g id="matplotlib.axis_3">
    <g id="xtick_4">
     <g id="line2d_37">
      <g>
       <use xlink:href="#m5e058922ec" x="356.732305" y="212.031537" style="stroke: #000000; stroke-width: 0.8"/>
      </g>
     </g>
     <g id="text_12">
      <!-- Hoosier Pass - East -->
      <g transform="translate(309.998725 246.728405) rotate(-12) scale(0.102 -0.102)">
       <use xlink:href="#DejaVuSans-48"/>
       <use xlink:href="#DejaVuSans-6f" transform="translate(75.195312 0)"/>
       <use xlink:href="#DejaVuSans-6f" transform="translate(136.376953 0)"/>
       <use xlink:href="#DejaVuSans-73" transform="translate(197.558594 0)"/>
       <use xlink:href="#DejaVuSans-69" transform="translate(249.658203 0)"/>
       <use xlink:href="#DejaVuSans-65" transform="translate(277.441406 0)"/>
       <use xlink:href="#DejaVuSans-72" transform="translate(338.964844 0)"/>
       <use xlink:href="#DejaVuSans-20" transform="translate(380.078125 0)"/>
       <use xlink:href="#DejaVuSans-50" transform="translate(411.865234 0)"/>
       <use xlink:href="#DejaVuSans-61" transform="translate(467.667969 0)"/>
       <use xlink:href="#DejaVuSans-73" transform="translate(528.947266 0)"/>
       <use xlink:href="#DejaVuSans-73" transform="translate(581.046875 0)"/>
       <use xlink:href="#DejaVuSans-20" transform="translate(633.146484 0)"/>
       <use xlink:href="#DejaVuSans-2d" transform="translate(664.933594 0)"/>
       <use xlink:href="#DejaVuSans-20" transform="translate(701.017578 0)"/>
       <use xlink:href="#DejaVuSans-45" transform="translate(732.804688 0)"/>
       <use xlink:href="#DejaVuSans-61" transform="translate(795.988281 0)"/>
       <use xlink:href="#DejaVuSans-73" transform="translate(857.267578 0)"/>
       <use xlink:href="#DejaVuSans-74" transform="translate(909.367188 0)"/>
      </g>
     </g>
    </g>
    <g id="xtick_5">
     <g id="line2d_38">
      <g>
       <use xlink:href="#m5e058922ec" x="438.185358" y="212.031537" style="stroke: #000000; stroke-width: 0.8"/>
      </g>
     </g>
     <g id="text_13">
      <!-- Hoosier Pass - West -->
      <g transform="translate(389.952094 247.36594) rotate(-12) scale(0.102 -0.102)">
       <use xlink:href="#DejaVuSans-48"/>
       <use xlink:href="#DejaVuSans-6f" transform="translate(75.195312 0)"/>
       <use xlink:href="#DejaVuSans-6f" transform="translate(136.376953 0)"/>
       <use xlink:href="#DejaVuSans-73" transform="translate(197.558594 0)"/>
       <use xlink:href="#DejaVuSans-69" transform="translate(249.658203 0)"/>
       <use xlink:href="#DejaVuSans-65" transform="translate(277.441406 0)"/>
       <use xlink:href="#DejaVuSans-72" transform="translate(338.964844 0)"/>
       <use xlink:href="#DejaVuSans-20" transform="translate(380.078125 0)"/>
       <use xlink:href="#DejaVuSans-50" transform="translate(411.865234 0)"/>
       <use xlink:href="#DejaVuSans-61" transform="translate(467.667969 0)"/>
       <use xlink:href="#DejaVuSans-73" transform="translate(528.947266 0)"/>
       <use xlink:href="#DejaVuSans-73" transform="translate(581.046875 0)"/>
       <use xlink:href="#DejaVuSans-20" transform="translate(633.146484 0)"/>
       <use xlink:href="#DejaVuSans-2d" transform="translate(664.933594 0)"/>
       <use xlink:href="#DejaVuSans-20" transform="translate(701.017578 0)"/>
       <use xlink:href="#DejaVuSans-57" transform="translate(732.804688 0)"/>
       <use xlink:href="#DejaVuSans-65" transform="translate(825.806641 0)"/>
       <use xlink:href="#DejaVuSans-73" transform="translate(887.330078 0)"/>
       <use xlink:href="#DejaVuSans-74" transform="translate(939.429688 0)"/>
      </g>
     </g>
    </g>
    <g id="xtick_6">
     <g id="line2d_39">
      <g>
       <use xlink:href="#m5e058922ec" x="519.638411" y="212.031537" style="stroke: #000000; stroke-width: 0.8"/>
      </g>
     </g>
     <g id="text_14">
      <!-- Weston Pass -->
      <g transform="translate(489.123083 239.833813) rotate(-12) scale(0.102 -0.102)">
       <use xlink:href="#DejaVuSans-57"/>
       <use xlink:href="#DejaVuSans-65" transform="translate(93.001953 0)"/>
       <use xlink:href="#DejaVuSans-73" transform="translate(154.525391 0)"/>
       <use xlink:href="#DejaVuSans-74" transform="translate(206.625 0)"/>
       <use xlink:href="#DejaVuSans-6f" transform="translate(245.833984 0)"/>
       <use xlink:href="#DejaVuSans-6e" transform="translate(307.015625 0)"/>
       <use xlink:href="#DejaVuSans-20" transform="translate(370.394531 0)"/>
       <use xlink:href="#DejaVuSans-50" transform="translate(402.181641 0)"/>
       <use xlink:href="#DejaVuSans-61" transform="translate(457.984375 0)"/>
       <use xlink:href="#DejaVuSans-73" transform="translate(519.263672 0)"/>
       <use xlink:href="#DejaVuSans-73" transform="translate(571.363281 0)"/>
      </g>
     </g>
    </g>
   </g>
   <g id="matplotlib.axis_4">
    <g id="ytick_7">
     <g id="line2d_40">
      <g>
       <use xlink:href="#me9d7ea9431" x="316.005779" y="212.031537" style="stroke: #000000; stroke-width: 0.8"/>
      </g>
     </g>
    </g>
    <g id="ytick_8">
     <g id="line2d_41">
      <g>
       <use xlink:href="#me9d7ea9431" x="316.005779" y="171.84027" style="stroke: #000000; stroke-width: 0.8"/>
      </g>
     </g>
    </g>
    <g id="ytick_9">
     <g id="line2d_42">
      <g>
       <use xlink:href="#me9d7ea9431" x="316.005779" y="131.649004" style="stroke: #000000; stroke-width: 0.8"/>
      </g>
     </g>
    </g>
    <g id="ytick_10">
     <g id="line2d_43">
      <g>
       <use xlink:href="#me9d7ea9431" x="316.005779" y="91.457737" style="stroke: #000000; stroke-width: 0.8"/>
      </g>
     </g>
    </g>
    <g id="ytick_11">
     <g id="line2d_44">
      <g>
       <use xlink:href="#me9d7ea9431" x="316.005779" y="51.26647" style="stroke: #000000; stroke-width: 0.8"/>
      </g>
     </g>
    </g>
    <g id="ytick_12">
     <g id="line2d_45">
      <g>
       <use xlink:href="#me9d7ea9431" x="316.005779" y="11.075203" style="stroke: #000000; stroke-width: 0.8"/>
      </g>
     </g>
    </g>
   </g>
   <g id="PathCollection_1">
    <defs>
     <path id="m9ab1fc99aa" d="M -0 4.330127 
L 4.330127 -4.330127 
L -4.330127 -4.330127 
z
" style="stroke: #000000"/>
    </defs>
    <g clip-path="url(#pe7e6779491)">
     <use xlink:href="#m9ab1fc99aa" x="363.426672" y="204.18387" style="fill: #ff4500; stroke: #000000"/>
     <use xlink:href="#m9ab1fc99aa" x="355.238744" y="210.479751" style="fill: #ff4500; stroke: #000000"/>
     <use xlink:href="#m9ab1fc99aa" x="365.494974" y="176.44552" style="fill: #ff4500; stroke: #000000"/>
     <use xlink:href="#m9ab1fc99aa" x="361.555174" y="207.075215" style="fill: #ff4500; stroke: #000000"/>
     <use xlink:href="#m9ab1fc99aa" x="346.815657" y="171.014018" style="fill: #ff4500; stroke: #000000"/>
     <use xlink:href="#m9ab1fc99aa" x="368.354573" y="197.677513" style="fill: #ff4500; stroke: #000000"/>
     <use xlink:href="#m9ab1fc99aa" x="363.113493" y="194.282695" style="fill: #ff4500; stroke: #000000"/>
     <use xlink:href="#m9ab1fc99aa" x="363.722549" y="210.122861" style="fill: #ff4500; stroke: #000000"/>
     <use xlink:href="#m9ab1fc99aa" x="347.644922" y="190.151513" style="fill: #ff4500; stroke: #000000"/>
     <use xlink:href="#m9ab1fc99aa" x="355.51994" y="150.61514" style="fill: #ff4500; stroke: #000000"/>
     <use xlink:href="#m9ab1fc99aa" x="353.575137" y="212.031537" style="fill: #ff4500; stroke: #000000"/>
     <use xlink:href="#m9ab1fc99aa" x="367.160699" y="211.389504" style="fill: #ff4500; stroke: #000000"/>
     <use xlink:href="#m9ab1fc99aa" x="360.247781" y="211.104403" style="fill: #ff4500; stroke: #000000"/>
     <use xlink:href="#m9ab1fc99aa" x="364.619281" y="212.031537" style="fill: #ff4500; stroke: #000000"/>
     <use xlink:href="#m9ab1fc99aa" x="355.34958" y="211.559809" style="fill: #ff4500; stroke: #000000"/>
     <use xlink:href="#m9ab1fc99aa" x="350.067134" y="185.848301" style="fill: #ff4500; stroke: #000000"/>
     <use xlink:href="#m9ab1fc99aa" x="358.066135" y="199.383936" style="fill: #ff4500; stroke: #000000"/>
     <use xlink:href="#m9ab1fc99aa" x="346.073781" y="61.745153" style="fill: #ff4500; stroke: #000000"/>
     <use xlink:href="#m9ab1fc99aa" x="364.738273" y="209.05728" style="fill: #ff4500; stroke: #000000"/>
     <use xlink:href="#m9ab1fc99aa" x="359.949646" y="206.032841" style="fill: #ff4500; stroke: #000000"/>
     <use xlink:href="#m9ab1fc99aa" x="363.038916" y="206.278186" style="fill: #ff4500; stroke: #000000"/>
     <use xlink:href="#m9ab1fc99aa" x="353.177514" y="186.119472" style="fill: #ff4500; stroke: #000000"/>
     <use xlink:href="#m9ab1fc99aa" x="368.234243" y="208.602248" style="fill: #ff4500; stroke: #000000"/>
     <use xlink:href="#m9ab1fc99aa" x="366.33858" y="206.566197" style="fill: #ff4500; stroke: #000000"/>
     <use xlink:href="#m9ab1fc99aa" x="363.534861" y="200.099755" style="fill: #ff4500; stroke: #000000"/>
     <use xlink:href="#m9ab1fc99aa" x="349.270523" y="208.249423" style="fill: #ff4500; stroke: #000000"/>
     <use xlink:href="#m9ab1fc99aa" x="355.919103" y="145.327544" style="fill: #ff4500; stroke: #000000"/>
     <use xlink:href="#m9ab1fc99aa" x="345.584733" y="207.464348" style="fill: #ff4500; stroke: #000000"/>
     <use xlink:href="#m9ab1fc99aa" x="348.284553" y="198.464865" style="fill: #ff4500; stroke: #000000"/>
     <use xlink:href="#m9ab1fc99aa" x="361.205274" y="189.669927" style="fill: #ff4500; stroke: #000000"/>
    </g>
   </g>
   <g id="PathCollection_2">
    <defs>
     <path id="m5e9593fe04" d="M 0 4.330127 
C 1.148363 4.330127 2.249847 3.873878 3.061862 3.061862 
C 3.873878 2.249847 4.330127 1.148363 4.330127 0 
C 4.330127 -1.148363 3.873878 -2.249847 3.061862 -3.061862 
C 2.249847 -3.873878 1.148363 -4.330127 0 -4.330127 
C -1.148363 -4.330127 -2.249847 -3.873878 -3.061862 -3.061862 
C -3.873878 -2.249847 -4.330127 -1.148363 -4.330127 0 
C -4.330127 1.148363 -3.873878 2.249847 -3.061862 3.061862 
C -2.249847 3.873878 -1.148363 4.330127 0 4.330127 
z
" style="stroke: #000000"/>
    </defs>
    <g clip-path="url(#pe7e6779491)">
     <use xlink:href="#m5e9593fe04" x="444.879725" y="152.732947" style="fill: #1e90ff; stroke: #000000"/>
     <use xlink:href="#m5e9593fe04" x="436.691797" y="186.350217" style="fill: #1e90ff; stroke: #000000"/>
     <use xlink:href="#m5e9593fe04" x="446.948027" y="158.848386" style="fill: #1e90ff; stroke: #000000"/>
     <use xlink:href="#m5e9593fe04" x="443.008227" y="210.948214" style="fill: #1e90ff; stroke: #000000"/>
     <use xlink:href="#m5e9593fe04" x="428.26871" y="199.204537" style="fill: #1e90ff; stroke: #000000"/>
     <use xlink:href="#m5e9593fe04" x="449.807626" y="119.883166" style="fill: #1e90ff; stroke: #000000"/>
     <use xlink:href="#m5e9593fe04" x="444.566546" y="209.550595" style="fill: #1e90ff; stroke: #000000"/>
     <use xlink:href="#m5e9593fe04" x="445.175602" y="169.428794" style="fill: #1e90ff; stroke: #000000"/>
     <use xlink:href="#m5e9593fe04" x="429.097974" y="108.442024" style="fill: #1e90ff; stroke: #000000"/>
     <use xlink:href="#m5e9593fe04" x="436.972993" y="68.039203" style="fill: #1e90ff; stroke: #000000"/>
     <use xlink:href="#m5e9593fe04" x="435.02819" y="209.6392" style="fill: #1e90ff; stroke: #000000"/>
     <use xlink:href="#m5e9593fe04" x="448.613752" y="140.461893" style="fill: #1e90ff; stroke: #000000"/>
     <use xlink:href="#m5e9593fe04" x="441.700834" y="129.48101" style="fill: #1e90ff; stroke: #000000"/>
     <use xlink:href="#m5e9593fe04" x="446.072334" y="145.87512" style="fill: #1e90ff; stroke: #000000"/>
     <use xlink:href="#m5e9593fe04" x="436.802632" y="181.235631" style="fill: #1e90ff; stroke: #000000"/>
     <use xlink:href="#m5e9593fe04" x="431.520187" y="141.895787" style="fill: #1e90ff; stroke: #000000"/>
     <use xlink:href="#m5e9593fe04" x="439.519188" y="95.280556" style="fill: #1e90ff; stroke: #000000"/>
     <use xlink:href="#m5e9593fe04" x="427.526833" y="192.926533" style="fill: #1e90ff; stroke: #000000"/>
     <use xlink:href="#m5e9593fe04" x="446.191326" y="191.420631" style="fill: #1e90ff; stroke: #000000"/>
     <use xlink:href="#m5e9593fe04" x="441.402698" y="145.464751" style="fill: #1e90ff; stroke: #000000"/>
     <use xlink:href="#m5e9593fe04" x="444.491969" y="173.652609" style="fill: #1e90ff; stroke: #000000"/>
     <use xlink:href="#m5e9593fe04" x="434.630567" y="47.354604" style="fill: #1e90ff; stroke: #000000"/>
     <use xlink:href="#m5e9593fe04" x="449.687296" y="164.372709" style="fill: #1e90ff; stroke: #000000"/>
     <use xlink:href="#m5e9593fe04" x="447.791633" y="191.420631" style="fill: #1e90ff; stroke: #000000"/>
     <use xlink:href="#m5e9593fe04" x="444.987914" y="179.830819" style="fill: #1e90ff; stroke: #000000"/>
     <use xlink:href="#m5e9593fe04" x="430.723575" y="202.897158" style="fill: #1e90ff; stroke: #000000"/>
     <use xlink:href="#m5e9593fe04" x="437.372156" y="182.387357" style="fill: #1e90ff; stroke: #000000"/>
     <use xlink:href="#m5e9593fe04" x="427.037785" y="208.883396" style="fill: #1e90ff; stroke: #000000"/>
     <use xlink:href="#m5e9593fe04" x="429.737605" y="165.38096" style="fill: #1e90ff; stroke: #000000"/>
     <use xlink:href="#m5e9593fe04" x="442.658327" y="180.597027" style="fill: #1e90ff; stroke: #000000"/>
    </g>
   </g>
   <g id="PathCollection_3">
    <defs>
     <path id="m9d52f25a2a" d="M 0 -4.330127 
L -4.330127 4.330127 
L 4.330127 4.330127 
z
" style="stroke: #000000"/>
    </defs>
    <g clip-path="url(#pe7e6779491)">
     <use xlink:href="#m9d52f25a2a" x="526.332778" y="206.811892" style="fill: #808080; stroke: #000000"/>
     <use xlink:href="#m9d52f25a2a" x="518.14485" y="210.001675" style="fill: #808080; stroke: #000000"/>
     <use xlink:href="#m9d52f25a2a" x="528.40108" y="210.153441" style="fill: #808080; stroke: #000000"/>
     <use xlink:href="#m9d52f25a2a" x="524.46128" y="210.321271" style="fill: #808080; stroke: #000000"/>
     <use xlink:href="#m9d52f25a2a" x="509.721763" y="190.051938" style="fill: #808080; stroke: #000000"/>
     <use xlink:href="#m9d52f25a2a" x="531.260679" y="159.681568" style="fill: #808080; stroke: #000000"/>
     <use xlink:href="#m9d52f25a2a" x="526.019599" y="210.669121" style="fill: #808080; stroke: #000000"/>
     <use xlink:href="#m9d52f25a2a" x="526.628654" y="210.229238" style="fill: #808080; stroke: #000000"/>
     <use xlink:href="#m9d52f25a2a" x="510.551027" y="196.050914" style="fill: #808080; stroke: #000000"/>
     <use xlink:href="#m9d52f25a2a" x="518.426046" y="212.031537" style="fill: #808080; stroke: #000000"/>
     <use xlink:href="#m9d52f25a2a" x="516.481242" y="212.031537" style="fill: #808080; stroke: #000000"/>
     <use xlink:href="#m9d52f25a2a" x="530.066804" y="212.031537" style="fill: #808080; stroke: #000000"/>
     <use xlink:href="#m9d52f25a2a" x="523.153887" y="211.18362" style="fill: #808080; stroke: #000000"/>
     <use xlink:href="#m9d52f25a2a" x="527.525387" y="188.307525" style="fill: #808080; stroke: #000000"/>
     <use xlink:href="#m9d52f25a2a" x="518.255685" y="212.031537" style="fill: #808080; stroke: #000000"/>
     <use xlink:href="#m9d52f25a2a" x="512.973239" y="211.345679" style="fill: #808080; stroke: #000000"/>
     <use xlink:href="#m9d52f25a2a" x="520.97224" y="185.541839" style="fill: #808080; stroke: #000000"/>
     <use xlink:href="#m9d52f25a2a" x="508.979886" y="208.949385" style="fill: #808080; stroke: #000000"/>
     <use xlink:href="#m9d52f25a2a" x="527.644379" y="211.374817" style="fill: #808080; stroke: #000000"/>
     <use xlink:href="#m9d52f25a2a" x="522.855751" y="208.715426" style="fill: #808080; stroke: #000000"/>
     <use xlink:href="#m9d52f25a2a" x="525.945021" y="212.031537" style="fill: #808080; stroke: #000000"/>
     <use xlink:href="#m9d52f25a2a" x="516.08362" y="211.564197" style="fill: #808080; stroke: #000000"/>
     <use xlink:href="#m9d52f25a2a" x="531.140348" y="205.219458" style="fill: #808080; stroke: #000000"/>
     <use xlink:href="#m9d52f25a2a" x="529.244686" y="192.692643" style="fill: #808080; stroke: #000000"/>
     <use xlink:href="#m9d52f25a2a" x="526.440967" y="210.598693" style="fill: #808080; stroke: #000000"/>
     <use xlink:href="#m9d52f25a2a" x="512.176628" y="202.603956" style="fill: #808080; stroke: #000000"/>
     <use xlink:href="#m9d52f25a2a" x="518.825208" y="191.036099" style="fill: #808080; stroke: #000000"/>
     <use xlink:href="#m9d52f25a2a" x="508.490838" y="211.462793" style="fill: #808080; stroke: #000000"/>
     <use xlink:href="#m9d52f25a2a" x="511.190658" y="192.20032" style="fill: #808080; stroke: #000000"/>
     <use xlink:href="#m9d52f25a2a" x="524.11138" y="198.306427" style="fill: #808080; stroke: #000000"/>
    </g>
   </g>
   <g id="patch_11">
    <path d="M 316.005779 212.031537 
L 316.005779 11.075203 
" style="fill: none; stroke: #000000; stroke-width: 0.8; stroke-linejoin: miter; stroke-linecap: square"/>
   </g>
   <g id="patch_12">
    <path d="M 560.364937 212.031537 
L 560.364937 11.075203 
" style="fill: none; stroke: #000000; stroke-width: 0.8; stroke-linejoin: miter; stroke-linecap: square"/>
   </g>
   <g id="patch_13">
    <path d="M 316.005779 212.031537 
L 560.364937 212.031537 
" style="fill: none; stroke: #000000; stroke-width: 0.8; stroke-linejoin: miter; stroke-linecap: square"/>
   </g>
   <g id="patch_14">
    <path d="M 316.005779 11.075203 
L 560.364937 11.075203 
" style="fill: none; stroke: #000000; stroke-width: 0.8; stroke-linejoin: miter; stroke-linecap: square"/>
   </g>
   <g id="text_15">
    <!-- B -->
    <g transform="translate(318.449371 26.761954) scale(0.18 -0.18)">
     <defs>
      <path id="DejaVuSans-42" d="M 1259 2228 
L 1259 519 
L 2272 519 
Q 2781 519 3026 730 
Q 3272 941 3272 1375 
Q 3272 1813 3026 2020 
Q 2781 2228 2272 2228 
L 1259 2228 
z
M 1259 4147 
L 1259 2741 
L 2194 2741 
Q 2656 2741 2882 2914 
Q 3109 3088 3109 3444 
Q 3109 3797 2882 3972 
Q 2656 4147 2194 4147 
L 1259 4147 
z
M 628 4666 
L 2241 4666 
Q 2963 4666 3353 4366 
Q 3744 4066 3744 3513 
Q 3744 3084 3544 2831 
Q 3344 2578 2956 2516 
Q 3422 2416 3680 2098 
Q 3938 1781 3938 1306 
Q 3938 681 3513 340 
Q 3088 0 2303 0 
L 628 0 
L 628 4666 
z
" transform="scale(0.015625)"/>
     </defs>
     <use xlink:href="#DejaVuSans-42"/>
    </g>
   </g>
  </g>
  <g id="text_16">
   <!-- Site from collection -->
   <g transform="translate(225.084 278.939578) scale(0.12 -0.12)">
    <defs>
     <path id="DejaVuSans-53" d="M 3425 4513 
L 3425 3897 
Q 3066 4069 2747 4153 
Q 2428 4238 2131 4238 
Q 1616 4238 1336 4038 
Q 1056 3838 1056 3469 
Q 1056 3159 1242 3001 
Q 1428 2844 1947 2747 
L 2328 2669 
Q 3034 2534 3370 2195 
Q 3706 1856 3706 1288 
Q 3706 609 3251 259 
Q 2797 -91 1919 -91 
Q 1588 -91 1214 -16 
Q 841 59 441 206 
L 441 856 
Q 825 641 1194 531 
Q 1563 422 1919 422 
Q 2459 422 2753 634 
Q 3047 847 3047 1241 
Q 3047 1584 2836 1778 
Q 2625 1972 2144 2069 
L 1759 2144 
Q 1053 2284 737 2584 
Q 422 2884 422 3419 
Q 422 4038 858 4394 
Q 1294 4750 2059 4750 
Q 2388 4750 2728 4690 
Q 3069 4631 3425 4513 
z
" transform="scale(0.015625)"/>
     <path id="DejaVuSans-66" d="M 2375 4863 
L 2375 4384 
L 1825 4384 
Q 1516 4384 1395 4259 
Q 1275 4134 1275 3809 
L 1275 3500 
L 2222 3500 
L 2222 3053 
L 1275 3053 
L 1275 0 
L 697 0 
L 697 3053 
L 147 3053 
L 147 3500 
L 697 3500 
L 697 3744 
Q 697 4328 969 4595 
Q 1241 4863 1831 4863 
L 2375 4863 
z
" transform="scale(0.015625)"/>
     <path id="DejaVuSans-63" d="M 3122 3366 
L 3122 2828 
Q 2878 2963 2633 3030 
Q 2388 3097 2138 3097 
Q 1578 3097 1268 2742 
Q 959 2388 959 1747 
Q 959 1106 1268 751 
Q 1578 397 2138 397 
Q 2388 397 2633 464 
Q 2878 531 3122 666 
L 3122 134 
Q 2881 22 2623 -34 
Q 2366 -91 2075 -91 
Q 1284 -91 818 406 
Q 353 903 353 1747 
Q 353 2603 823 3093 
Q 1294 3584 2113 3584 
Q 2378 3584 2631 3529 
Q 2884 3475 3122 3366 
z
" transform="scale(0.015625)"/>
     <path id="DejaVuSans-6c" d="M 603 4863 
L 1178 4863 
L 1178 0 
L 603 0 
L 603 4863 
z
" transform="scale(0.015625)"/>
    </defs>
    <use xlink:href="#DejaVuSans-53"/>
    <use xlink:href="#DejaVuSans-69" transform="translate(63.476562 0)"/>
    <use xlink:href="#DejaVuSans-74" transform="translate(91.259766 0)"/>
    <use xlink:href="#DejaVuSans-65" transform="translate(130.46875 0)"/>
    <use xlink:href="#DejaVuSans-20" transform="translate(191.992188 0)"/>
    <use xlink:href="#DejaVuSans-66" transform="translate(223.779297 0)"/>
    <use xlink:href="#DejaVuSans-72" transform="translate(258.984375 0)"/>
    <use xlink:href="#DejaVuSans-6f" transform="translate(297.847656 0)"/>
    <use xlink:href="#DejaVuSans-6d" transform="translate(359.029297 0)"/>
    <use xlink:href="#DejaVuSans-20" transform="translate(456.441406 0)"/>
    <use xlink:href="#DejaVuSans-63" transform="translate(488.228516 0)"/>
    <use xlink:href="#DejaVuSans-6f" transform="translate(543.208984 0)"/>
    <use xlink:href="#DejaVuSans-6c" transform="translate(604.390625 0)"/>
    <use xlink:href="#DejaVuSans-6c" transform="translate(632.173828 0)"/>
    <use xlink:href="#DejaVuSans-65" transform="translate(659.957031 0)"/>
    <use xlink:href="#DejaVuSans-63" transform="translate(721.480469 0)"/>
    <use xlink:href="#DejaVuSans-74" transform="translate(776.460938 0)"/>
    <use xlink:href="#DejaVuSans-69" transform="translate(815.669922 0)"/>
    <use xlink:href="#DejaVuSans-6f" transform="translate(843.453125 0)"/>
    <use xlink:href="#DejaVuSans-6e" transform="translate(904.634766 0)"/>
   </g>
  </g>
 </g>
 <defs>
  <clipPath id="p7732e64a82">
   <rect x="46.034938" y="11.075203" width="244.359158" height="200.956334"/>
  </clipPath>
  <clipPath id="pe7e6779491">
   <rect x="316.005779" y="11.075203" width="244.359158" height="200.956334"/>
  </clipPath>
 </defs>
</svg>
