<?xml version="1.0" encoding="utf-8" standalone="no"?>
<!DOCTYPE svg PUBLIC "-//W3C//DTD SVG 1.1//EN"
  "http://www.w3.org/Graphics/SVG/1.1/DTD/svg11.dtd">
<svg xmlns:xlink="http://www.w3.org/1999/xlink" width="424.444516pt" height="280.18278pt" viewBox="0 0 424.444516 280.18278" xmlns="http://www.w3.org/2000/svg" version="1.1">
 <metadata>
  <rdf:RDF xmlns:dc="http://purl.org/dc/elements/1.1/" xmlns:cc="http://creativecommons.org/ns#" xmlns:rdf="http://www.w3.org/1999/02/22-rdf-syntax-ns#">
   <cc:Work>
    <dc:type rdf:resource="http://purl.org/dc/dcmitype/StillImage"/>
    <dc:date>2026-01-26T20:54:12.746201</dc:date>
    <dc:format>image/svg+xml</dc:format>
    <dc:creator>
     <cc:Agent>
      <dc:title>Matplotlib v3.10.0, https://matplotlib.org/</dc:title>
     </cc:Agent>
    </dc:creator>
   </cc:Work>
  </rdf:RDF>
 </metadata>
 <defs>
  <style type="text/css">*{stroke-linejoin: round; stroke-linecap: butt}</style>
 </defs>
 <g id="figure_1">
  <g id="patch_1">
   <path d="M 0 280.18278 
L 424.444516 280.18278 
L 424.444516 0 
L 0 0 
z
" style="fill: #ffffff"/>
  </g>
  <g id="axes_1">
   <g id="patch_2">
    <path d="M 48.354516 229.322882 
L 417.244516 229.322882 
L 417.244516 11.398137 
L 48.354516 11.398137 
z
" style="fill: #fffafa"/>
   </g>
   <g id="line2d_1">
    <path d="M 65.122243 208.650894 
L 169.197791 208.650894 
" clip-path="url(#pec871153bd)" style="fill: none; stroke-dasharray: 18.5,8; stroke-dashoffset: 0; stroke: #ff4500; stroke-width: 5"/>
   </g>
   <g id="line2d_2">
    <path d="M 180.761741 174.845775 
L 284.83729 174.845775 
" clip-path="url(#pec871153bd)" style="fill: none; stroke-dasharray: 18.5,8; stroke-dashoffset: 0; stroke: #1e90ff; stroke-width: 5"/>
   </g>
   <g id="line2d_3">
    <path d="M 296.40124 220.079329 
L 400.476788 220.079329 
" clip-path="url(#pec871153bd)" style="fill: none; stroke-dasharray: 18.5,8; stroke-dashoffset: 0; stroke: #808080; stroke-width: 5"/>
   </g>
   <g id="matplotlib.axis_1">
    <g id="xtick_1">
     <g id="line2d_4">
      <defs>
       <path id="m35f0e98ee1" d="M 0 0 
L 0 3.5 
" style="stroke: #000000; stroke-width: 0.8"/>
      </defs>
      <g>
       <use xlink:href="#m35f0e98ee1" x="117.160017" y="229.322882" style="stroke: #000000; stroke-width: 0.8"/>
      </g>
     </g>
     <g id="text_1">
      <!-- Hoosier Pass - East -->
      <g transform="translate(65.217975 253.822384) rotate(-5) scale(0.1105 -0.1105)">
       <defs>
        <path id="DejaVuSans-48" d="M 628 4666 
L 1259 4666 
L 1259 2753 
L 3553 2753 
L 3553 4666 
L 4184 4666 
L 4184 0 
L 3553 0 
L 3553 2222 
L 1259 2222 
L 1259 0 
L 628 0 
L 628 4666 
z
" transform="scale(0.015625)"/>
        <path id="DejaVuSans-6f" d="M 1959 3097 
Q 1497 3097 1228 2736 
Q 959 2375 959 1747 
Q 959 1119 1226 758 
Q 1494 397 1959 397 
Q 2419 397 2687 759 
Q 2956 1122 2956 1747 
Q 2956 2369 2687 2733 
Q 2419 3097 1959 3097 
z
M 1959 3584 
Q 2709 3584 3137 3096 
Q 3566 2609 3566 1747 
Q 3566 888 3137 398 
Q 2709 -91 1959 -91 
Q 1206 -91 779 398 
Q 353 888 353 1747 
Q 353 2609 779 3096 
Q 1206 3584 1959 3584 
z
" transform="scale(0.015625)"/>
        <path id="DejaVuSans-73" d="M 2834 3397 
L 2834 2853 
Q 2591 2978 2328 3040 
Q 2066 3103 1784 3103 
Q 1356 3103 1142 2972 
Q 928 2841 928 2578 
Q 928 2378 1081 2264 
Q 1234 2150 1697 2047 
L 1894 2003 
Q 2506 1872 2764 1633 
Q 3022 1394 3022 966 
Q 3022 478 2636 193 
Q 2250 -91 1575 -91 
Q 1294 -91 989 -36 
Q 684 19 347 128 
L 347 722 
Q 666 556 975 473 
Q 1284 391 1588 391 
Q 1994 391 2212 530 
Q 2431 669 2431 922 
Q 2431 1156 2273 1281 
Q 2116 1406 1581 1522 
L 1381 1569 
Q 847 1681 609 1914 
Q 372 2147 372 2553 
Q 372 3047 722 3315 
Q 1072 3584 1716 3584 
Q 2034 3584 2315 3537 
Q 2597 3491 2834 3397 
z
" transform="scale(0.015625)"/>
        <path id="DejaVuSans-69" d="M 603 3500 
L 1178 3500 
L 1178 0 
L 603 0 
L 603 3500 
z
M 603 4863 
L 1178 4863 
L 1178 4134 
L 603 4134 
L 603 4863 
z
" transform="scale(0.015625)"/>
        <path id="DejaVuSans-65" d="M 3597 1894 
L 3597 1613 
L 953 1613 
Q 991 1019 1311 708 
Q 1631 397 2203 397 
Q 2534 397 2845 478 
Q 3156 559 3463 722 
L 3463 178 
Q 3153 47 2828 -22 
Q 2503 -91 2169 -91 
Q 1331 -91 842 396 
Q 353 884 353 1716 
Q 353 2575 817 3079 
Q 1281 3584 2069 3584 
Q 2775 3584 3186 3129 
Q 3597 2675 3597 1894 
z
M 3022 2063 
Q 3016 2534 2758 2815 
Q 2500 3097 2075 3097 
Q 1594 3097 1305 2825 
Q 1016 2553 972 2059 
L 3022 2063 
z
" transform="scale(0.015625)"/>
        <path id="DejaVuSans-72" d="M 2631 2963 
Q 2534 3019 2420 3045 
Q 2306 3072 2169 3072 
Q 1681 3072 1420 2755 
Q 1159 2438 1159 1844 
L 1159 0 
L 581 0 
L 581 3500 
L 1159 3500 
L 1159 2956 
Q 1341 3275 1631 3429 
Q 1922 3584 2338 3584 
Q 2397 3584 2469 3576 
Q 2541 3569 2628 3553 
L 2631 2963 
z
" transform="scale(0.015625)"/>
        <path id="DejaVuSans-20" transform="scale(0.015625)"/>
        <path id="DejaVuSans-50" d="M 1259 4147 
L 1259 2394 
L 2053 2394 
Q 2494 2394 2734 2622 
Q 2975 2850 2975 3272 
Q 2975 3691 2734 3919 
Q 2494 4147 2053 4147 
L 1259 4147 
z
M 628 4666 
L 2053 4666 
Q 2838 4666 3239 4311 
Q 3641 3956 3641 3272 
Q 3641 2581 3239 2228 
Q 2838 1875 2053 1875 
L 1259 1875 
L 1259 0 
L 628 0 
L 628 4666 
z
" transform="scale(0.015625)"/>
        <path id="DejaVuSans-61" d="M 2194 1759 
Q 1497 1759 1228 1600 
Q 959 1441 959 1056 
Q 959 750 1161 570 
Q 1363 391 1709 391 
Q 2188 391 2477 730 
Q 2766 1069 2766 1631 
L 2766 1759 
L 2194 1759 
z
M 3341 1997 
L 3341 0 
L 2766 0 
L 2766 531 
Q 2569 213 2275 61 
Q 1981 -91 1556 -91 
Q 1019 -91 701 211 
Q 384 513 384 1019 
Q 384 1609 779 1909 
Q 1175 2209 1959 2209 
L 2766 2209 
L 2766 2266 
Q 2766 2663 2505 2880 
Q 2244 3097 1772 3097 
Q 1472 3097 1187 3025 
Q 903 2953 641 2809 
L 641 3341 
Q 956 3463 1253 3523 
Q 1550 3584 1831 3584 
Q 2591 3584 2966 3190 
Q 3341 2797 3341 1997 
z
" transform="scale(0.015625)"/>
        <path id="DejaVuSans-2d" d="M 313 2009 
L 1997 2009 
L 1997 1497 
L 313 1497 
L 313 2009 
z
" transform="scale(0.015625)"/>
        <path id="DejaVuSans-45" d="M 628 4666 
L 3578 4666 
L 3578 4134 
L 1259 4134 
L 1259 2753 
L 3481 2753 
L 3481 2222 
L 1259 2222 
L 1259 531 
L 3634 531 
L 3634 0 
L 628 0 
L 628 4666 
z
" transform="scale(0.015625)"/>
        <path id="DejaVuSans-74" d="M 1172 4494 
L 1172 3500 
L 2356 3500 
L 2356 3053 
L 1172 3053 
L 1172 1153 
Q 1172 725 1289 603 
Q 1406 481 1766 481 
L 2356 481 
L 2356 0 
L 1766 0 
Q 1100 0 847 248 
Q 594 497 594 1153 
L 594 3053 
L 172 3053 
L 172 3500 
L 594 3500 
L 594 4494 
L 1172 4494 
z
" transform="scale(0.015625)"/>
       </defs>
       <use xlink:href="#DejaVuSans-48"/>
       <use xlink:href="#DejaVuSans-6f" transform="translate(75.195312 0)"/>
       <use xlink:href="#DejaVuSans-6f" transform="translate(136.376953 0)"/>
       <use xlink:href="#DejaVuSans-73" transform="translate(197.558594 0)"/>
       <use xlink:href="#DejaVuSans-69" transform="translate(249.658203 0)"/>
       <use xlink:href="#DejaVuSans-65" transform="translate(277.441406 0)"/>
       <use xlink:href="#DejaVuSans-72" transform="translate(338.964844 0)"/>
       <use xlink:href="#DejaVuSans-20" transform="translate(380.078125 0)"/>
       <use xlink:href="#DejaVuSans-50" transform="translate(411.865234 0)"/>
       <use xlink:href="#DejaVuSans-61" transform="translate(467.667969 0)"/>
       <use xlink:href="#DejaVuSans-73" transform="translate(528.947266 0)"/>
       <use xlink:href="#DejaVuSans-73" transform="translate(581.046875 0)"/>
       <use xlink:href="#DejaVuSans-20" transform="translate(633.146484 0)"/>
       <use xlink:href="#DejaVuSans-2d" transform="translate(664.933594 0)"/>
       <use xlink:href="#DejaVuSans-20" transform="translate(701.017578 0)"/>
       <use xlink:href="#DejaVuSans-45" transform="translate(732.804688 0)"/>
       <use xlink:href="#DejaVuSans-61" transform="translate(795.988281 0)"/>
       <use xlink:href="#DejaVuSans-73" transform="translate(857.267578 0)"/>
       <use xlink:href="#DejaVuSans-74" transform="translate(909.367188 0)"/>
      </g>
     </g>
    </g>
    <g id="xtick_2">
     <g id="line2d_5">
      <g>
       <use xlink:href="#m35f0e98ee1" x="232.799516" y="229.322882" style="stroke: #000000; stroke-width: 0.8"/>
      </g>
     </g>
     <g id="text_2">
      <!-- Hoosier Pass - West -->
      <g transform="translate(179.202841 254.111907) rotate(-5) scale(0.1105 -0.1105)">
       <defs>
        <path id="DejaVuSans-57" d="M 213 4666 
L 850 4666 
L 1831 722 
L 2809 4666 
L 3519 4666 
L 4500 722 
L 5478 4666 
L 6119 4666 
L 4947 0 
L 4153 0 
L 3169 4050 
L 2175 0 
L 1381 0 
L 213 4666 
z
" transform="scale(0.015625)"/>
       </defs>
       <use xlink:href="#DejaVuSans-48"/>
       <use xlink:href="#DejaVuSans-6f" transform="translate(75.195312 0)"/>
       <use xlink:href="#DejaVuSans-6f" transform="translate(136.376953 0)"/>
       <use xlink:href="#DejaVuSans-73" transform="translate(197.558594 0)"/>
       <use xlink:href="#DejaVuSans-69" transform="translate(249.658203 0)"/>
       <use xlink:href="#DejaVuSans-65" transform="translate(277.441406 0)"/>
       <use xlink:href="#DejaVuSans-72" transform="translate(338.964844 0)"/>
       <use xlink:href="#DejaVuSans-20" transform="translate(380.078125 0)"/>
       <use xlink:href="#DejaVuSans-50" transform="translate(411.865234 0)"/>
       <use xlink:href="#DejaVuSans-61" transform="translate(467.667969 0)"/>
       <use xlink:href="#DejaVuSans-73" transform="translate(528.947266 0)"/>
       <use xlink:href="#DejaVuSans-73" transform="translate(581.046875 0)"/>
       <use xlink:href="#DejaVuSans-20" transform="translate(633.146484 0)"/>
       <use xlink:href="#DejaVuSans-2d" transform="translate(664.933594 0)"/>
       <use xlink:href="#DejaVuSans-20" transform="translate(701.017578 0)"/>
       <use xlink:href="#DejaVuSans-57" transform="translate(732.804688 0)"/>
       <use xlink:href="#DejaVuSans-65" transform="translate(825.806641 0)"/>
       <use xlink:href="#DejaVuSans-73" transform="translate(887.330078 0)"/>
       <use xlink:href="#DejaVuSans-74" transform="translate(939.429688 0)"/>
      </g>
     </g>
    </g>
    <g id="xtick_3">
     <g id="line2d_6">
      <g>
       <use xlink:href="#m35f0e98ee1" x="348.439014" y="229.322882" style="stroke: #000000; stroke-width: 0.8"/>
      </g>
     </g>
     <g id="text_3">
      <!-- Weston Pass -->
      <g transform="translate(314.390913 250.69135) rotate(-5) scale(0.1105 -0.1105)">
       <defs>
        <path id="DejaVuSans-6e" d="M 3513 2113 
L 3513 0 
L 2938 0 
L 2938 2094 
Q 2938 2591 2744 2837 
Q 2550 3084 2163 3084 
Q 1697 3084 1428 2787 
Q 1159 2491 1159 1978 
L 1159 0 
L 581 0 
L 581 3500 
L 1159 3500 
L 1159 2956 
Q 1366 3272 1645 3428 
Q 1925 3584 2291 3584 
Q 2894 3584 3203 3211 
Q 3513 2838 3513 2113 
z
" transform="scale(0.015625)"/>
       </defs>
       <use xlink:href="#DejaVuSans-57"/>
       <use xlink:href="#DejaVuSans-65" transform="translate(93.001953 0)"/>
       <use xlink:href="#DejaVuSans-73" transform="translate(154.525391 0)"/>
       <use xlink:href="#DejaVuSans-74" transform="translate(206.625 0)"/>
       <use xlink:href="#DejaVuSans-6f" transform="translate(245.833984 0)"/>
       <use xlink:href="#DejaVuSans-6e" transform="translate(307.015625 0)"/>
       <use xlink:href="#DejaVuSans-20" transform="translate(370.394531 0)"/>
       <use xlink:href="#DejaVuSans-50" transform="translate(402.181641 0)"/>
       <use xlink:href="#DejaVuSans-61" transform="translate(457.984375 0)"/>
       <use xlink:href="#DejaVuSans-73" transform="translate(519.263672 0)"/>
       <use xlink:href="#DejaVuSans-73" transform="translate(571.363281 0)"/>
      </g>
     </g>
    </g>
    <g id="text_4">
     <!-- Site from collection -->
     <g transform="translate(169.8785 270.279186) scale(0.13 -0.13)">
      <defs>
       <path id="DejaVuSans-53" d="M 3425 4513 
L 3425 3897 
Q 3066 4069 2747 4153 
Q 2428 4238 2131 4238 
Q 1616 4238 1336 4038 
Q 1056 3838 1056 3469 
Q 1056 3159 1242 3001 
Q 1428 2844 1947 2747 
L 2328 2669 
Q 3034 2534 3370 2195 
Q 3706 1856 3706 1288 
Q 3706 609 3251 259 
Q 2797 -91 1919 -91 
Q 1588 -91 1214 -16 
Q 841 59 441 206 
L 441 856 
Q 825 641 1194 531 
Q 1563 422 1919 422 
Q 2459 422 2753 634 
Q 3047 847 3047 1241 
Q 3047 1584 2836 1778 
Q 2625 1972 2144 2069 
L 1759 2144 
Q 1053 2284 737 2584 
Q 422 2884 422 3419 
Q 422 4038 858 4394 
Q 1294 4750 2059 4750 
Q 2388 4750 2728 4690 
Q 3069 4631 3425 4513 
z
" transform="scale(0.015625)"/>
       <path id="DejaVuSans-66" d="M 2375 4863 
L 2375 4384 
L 1825 4384 
Q 1516 4384 1395 4259 
Q 1275 4134 1275 3809 
L 1275 3500 
L 2222 3500 
L 2222 3053 
L 1275 3053 
L 1275 0 
L 697 0 
L 697 3053 
L 147 3053 
L 147 3500 
L 697 3500 
L 697 3744 
Q 697 4328 969 4595 
Q 1241 4863 1831 4863 
L 2375 4863 
z
" transform="scale(0.015625)"/>
       <path id="DejaVuSans-6d" d="M 3328 2828 
Q 3544 3216 3844 3400 
Q 4144 3584 4550 3584 
Q 5097 3584 5394 3201 
Q 5691 2819 5691 2113 
L 5691 0 
L 5113 0 
L 5113 2094 
Q 5113 2597 4934 2840 
Q 4756 3084 4391 3084 
Q 3944 3084 3684 2787 
Q 3425 2491 3425 1978 
L 3425 0 
L 2847 0 
L 2847 2094 
Q 2847 2600 2669 2842 
Q 2491 3084 2119 3084 
Q 1678 3084 1418 2786 
Q 1159 2488 1159 1978 
L 1159 0 
L 581 0 
L 581 3500 
L 1159 3500 
L 1159 2956 
Q 1356 3278 1631 3431 
Q 1906 3584 2284 3584 
Q 2666 3584 2933 3390 
Q 3200 3197 3328 2828 
z
" transform="scale(0.015625)"/>
       <path id="DejaVuSans-63" d="M 3122 3366 
L 3122 2828 
Q 2878 2963 2633 3030 
Q 2388 3097 2138 3097 
Q 1578 3097 1268 2742 
Q 959 2388 959 1747 
Q 959 1106 1268 751 
Q 1578 397 2138 397 
Q 2388 397 2633 464 
Q 2878 531 3122 666 
L 3122 134 
Q 2881 22 2623 -34 
Q 2366 -91 2075 -91 
Q 1284 -91 818 406 
Q 353 903 353 1747 
Q 353 2603 823 3093 
Q 1294 3584 2113 3584 
Q 2378 3584 2631 3529 
Q 2884 3475 3122 3366 
z
" transform="scale(0.015625)"/>
       <path id="DejaVuSans-6c" d="M 603 4863 
L 1178 4863 
L 1178 0 
L 603 0 
L 603 4863 
z
" transform="scale(0.015625)"/>
      </defs>
      <use xlink:href="#DejaVuSans-53"/>
      <use xlink:href="#DejaVuSans-69" transform="translate(63.476562 0)"/>
      <use xlink:href="#DejaVuSans-74" transform="translate(91.259766 0)"/>
      <use xlink:href="#DejaVuSans-65" transform="translate(130.46875 0)"/>
      <use xlink:href="#DejaVuSans-20" transform="translate(191.992188 0)"/>
      <use xlink:href="#DejaVuSans-66" transform="translate(223.779297 0)"/>
      <use xlink:href="#DejaVuSans-72" transform="translate(258.984375 0)"/>
      <use xlink:href="#DejaVuSans-6f" transform="translate(297.847656 0)"/>
      <use xlink:href="#DejaVuSans-6d" transform="translate(359.029297 0)"/>
      <use xlink:href="#DejaVuSans-20" transform="translate(456.441406 0)"/>
      <use xlink:href="#DejaVuSans-63" transform="translate(488.228516 0)"/>
      <use xlink:href="#DejaVuSans-6f" transform="translate(543.208984 0)"/>
      <use xlink:href="#DejaVuSans-6c" transform="translate(604.390625 0)"/>
      <use xlink:href="#DejaVuSans-6c" transform="translate(632.173828 0)"/>
      <use xlink:href="#DejaVuSans-65" transform="translate(659.957031 0)"/>
      <use xlink:href="#DejaVuSans-63" transform="translate(721.480469 0)"/>
      <use xlink:href="#DejaVuSans-74" transform="translate(776.460938 0)"/>
      <use xlink:href="#DejaVuSans-69" transform="translate(815.669922 0)"/>
      <use xlink:href="#DejaVuSans-6f" transform="translate(843.453125 0)"/>
      <use xlink:href="#DejaVuSans-6e" transform="translate(904.634766 0)"/>
     </g>
    </g>
   </g>
   <g id="matplotlib.axis_2">
    <g id="ytick_1">
     <g id="line2d_7">
      <defs>
       <path id="m367dac94a6" d="M 0 0 
L -3.5 0 
" style="stroke: #000000; stroke-width: 0.8"/>
      </defs>
      <g>
       <use xlink:href="#m367dac94a6" x="48.354516" y="229.322882" style="stroke: #000000; stroke-width: 0.8"/>
      </g>
     </g>
     <g id="text_5">
      <!-- 0.0 -->
      <g transform="translate(23.781563 233.521018) scale(0.1105 -0.1105)">
       <defs>
        <path id="DejaVuSans-30" d="M 2034 4250 
Q 1547 4250 1301 3770 
Q 1056 3291 1056 2328 
Q 1056 1369 1301 889 
Q 1547 409 2034 409 
Q 2525 409 2770 889 
Q 3016 1369 3016 2328 
Q 3016 3291 2770 3770 
Q 2525 4250 2034 4250 
z
M 2034 4750 
Q 2819 4750 3233 4129 
Q 3647 3509 3647 2328 
Q 3647 1150 3233 529 
Q 2819 -91 2034 -91 
Q 1250 -91 836 529 
Q 422 1150 422 2328 
Q 422 3509 836 4129 
Q 1250 4750 2034 4750 
z
" transform="scale(0.015625)"/>
        <path id="DejaVuSans-2e" d="M 684 794 
L 1344 794 
L 1344 0 
L 684 0 
L 684 794 
z
" transform="scale(0.015625)"/>
       </defs>
       <use xlink:href="#DejaVuSans-30"/>
       <use xlink:href="#DejaVuSans-2e" transform="translate(63.623047 0)"/>
       <use xlink:href="#DejaVuSans-30" transform="translate(95.410156 0)"/>
      </g>
     </g>
    </g>
    <g id="ytick_2">
     <g id="line2d_8">
      <g>
       <use xlink:href="#m367dac94a6" x="48.354516" y="185.737933" style="stroke: #000000; stroke-width: 0.8"/>
      </g>
     </g>
     <g id="text_6">
      <!-- 0.2 -->
      <g transform="translate(23.781563 189.936069) scale(0.1105 -0.1105)">
       <defs>
        <path id="DejaVuSans-32" d="M 1228 531 
L 3431 531 
L 3431 0 
L 469 0 
L 469 531 
Q 828 903 1448 1529 
Q 2069 2156 2228 2338 
Q 2531 2678 2651 2914 
Q 2772 3150 2772 3378 
Q 2772 3750 2511 3984 
Q 2250 4219 1831 4219 
Q 1534 4219 1204 4116 
Q 875 4013 500 3803 
L 500 4441 
Q 881 4594 1212 4672 
Q 1544 4750 1819 4750 
Q 2544 4750 2975 4387 
Q 3406 4025 3406 3419 
Q 3406 3131 3298 2873 
Q 3191 2616 2906 2266 
Q 2828 2175 2409 1742 
Q 1991 1309 1228 531 
z
" transform="scale(0.015625)"/>
       </defs>
       <use xlink:href="#DejaVuSans-30"/>
       <use xlink:href="#DejaVuSans-2e" transform="translate(63.623047 0)"/>
       <use xlink:href="#DejaVuSans-32" transform="translate(95.410156 0)"/>
      </g>
     </g>
    </g>
    <g id="ytick_3">
     <g id="line2d_9">
      <g>
       <use xlink:href="#m367dac94a6" x="48.354516" y="142.152984" style="stroke: #000000; stroke-width: 0.8"/>
      </g>
     </g>
     <g id="text_7">
      <!-- 0.4 -->
      <g transform="translate(23.781563 146.35112) scale(0.1105 -0.1105)">
       <defs>
        <path id="DejaVuSans-34" d="M 2419 4116 
L 825 1625 
L 2419 1625 
L 2419 4116 
z
M 2253 4666 
L 3047 4666 
L 3047 1625 
L 3713 1625 
L 3713 1100 
L 3047 1100 
L 3047 0 
L 2419 0 
L 2419 1100 
L 313 1100 
L 313 1709 
L 2253 4666 
z
" transform="scale(0.015625)"/>
       </defs>
       <use xlink:href="#DejaVuSans-30"/>
       <use xlink:href="#DejaVuSans-2e" transform="translate(63.623047 0)"/>
       <use xlink:href="#DejaVuSans-34" transform="translate(95.410156 0)"/>
      </g>
     </g>
    </g>
    <g id="ytick_4">
     <g id="line2d_10">
      <g>
       <use xlink:href="#m367dac94a6" x="48.354516" y="98.568035" style="stroke: #000000; stroke-width: 0.8"/>
      </g>
     </g>
     <g id="text_8">
      <!-- 0.6 -->
      <g transform="translate(23.781563 102.766171) scale(0.1105 -0.1105)">
       <defs>
        <path id="DejaVuSans-36" d="M 2113 2584 
Q 1688 2584 1439 2293 
Q 1191 2003 1191 1497 
Q 1191 994 1439 701 
Q 1688 409 2113 409 
Q 2538 409 2786 701 
Q 3034 994 3034 1497 
Q 3034 2003 2786 2293 
Q 2538 2584 2113 2584 
z
M 3366 4563 
L 3366 3988 
Q 3128 4100 2886 4159 
Q 2644 4219 2406 4219 
Q 1781 4219 1451 3797 
Q 1122 3375 1075 2522 
Q 1259 2794 1537 2939 
Q 1816 3084 2150 3084 
Q 2853 3084 3261 2657 
Q 3669 2231 3669 1497 
Q 3669 778 3244 343 
Q 2819 -91 2113 -91 
Q 1303 -91 875 529 
Q 447 1150 447 2328 
Q 447 3434 972 4092 
Q 1497 4750 2381 4750 
Q 2619 4750 2861 4703 
Q 3103 4656 3366 4563 
z
" transform="scale(0.015625)"/>
       </defs>
       <use xlink:href="#DejaVuSans-30"/>
       <use xlink:href="#DejaVuSans-2e" transform="translate(63.623047 0)"/>
       <use xlink:href="#DejaVuSans-36" transform="translate(95.410156 0)"/>
      </g>
     </g>
    </g>
    <g id="ytick_5">
     <g id="line2d_11">
      <g>
       <use xlink:href="#m367dac94a6" x="48.354516" y="54.983086" style="stroke: #000000; stroke-width: 0.8"/>
      </g>
     </g>
     <g id="text_9">
      <!-- 0.8 -->
      <g transform="translate(23.781563 59.181222) scale(0.1105 -0.1105)">
       <defs>
        <path id="DejaVuSans-38" d="M 2034 2216 
Q 1584 2216 1326 1975 
Q 1069 1734 1069 1313 
Q 1069 891 1326 650 
Q 1584 409 2034 409 
Q 2484 409 2743 651 
Q 3003 894 3003 1313 
Q 3003 1734 2745 1975 
Q 2488 2216 2034 2216 
z
M 1403 2484 
Q 997 2584 770 2862 
Q 544 3141 544 3541 
Q 544 4100 942 4425 
Q 1341 4750 2034 4750 
Q 2731 4750 3128 4425 
Q 3525 4100 3525 3541 
Q 3525 3141 3298 2862 
Q 3072 2584 2669 2484 
Q 3125 2378 3379 2068 
Q 3634 1759 3634 1313 
Q 3634 634 3220 271 
Q 2806 -91 2034 -91 
Q 1263 -91 848 271 
Q 434 634 434 1313 
Q 434 1759 690 2068 
Q 947 2378 1403 2484 
z
M 1172 3481 
Q 1172 3119 1398 2916 
Q 1625 2713 2034 2713 
Q 2441 2713 2670 2916 
Q 2900 3119 2900 3481 
Q 2900 3844 2670 4047 
Q 2441 4250 2034 4250 
Q 1625 4250 1398 4047 
Q 1172 3844 1172 3481 
z
" transform="scale(0.015625)"/>
       </defs>
       <use xlink:href="#DejaVuSans-30"/>
       <use xlink:href="#DejaVuSans-2e" transform="translate(63.623047 0)"/>
       <use xlink:href="#DejaVuSans-38" transform="translate(95.410156 0)"/>
      </g>
     </g>
    </g>
    <g id="ytick_6">
     <g id="line2d_12">
      <g>
       <use xlink:href="#m367dac94a6" x="48.354516" y="11.398137" style="stroke: #000000; stroke-width: 0.8"/>
      </g>
     </g>
     <g id="text_10">
      <!-- 1.0 -->
      <g transform="translate(23.781563 15.596273) scale(0.1105 -0.1105)">
       <defs>
        <path id="DejaVuSans-31" d="M 794 531 
L 1825 531 
L 1825 4091 
L 703 3866 
L 703 4441 
L 1819 4666 
L 2450 4666 
L 2450 531 
L 3481 531 
L 3481 0 
L 794 0 
L 794 531 
z
" transform="scale(0.015625)"/>
       </defs>
       <use xlink:href="#DejaVuSans-31"/>
       <use xlink:href="#DejaVuSans-2e" transform="translate(63.623047 0)"/>
       <use xlink:href="#DejaVuSans-30" transform="translate(95.410156 0)"/>
      </g>
     </g>
    </g>
    <g id="text_11">
     <!-- Contamination % -->
     <g transform="translate(17.077969 176.459572) rotate(-90) scale(0.13 -0.13)">
      <defs>
       <path id="DejaVuSans-43" d="M 4122 4306 
L 4122 3641 
Q 3803 3938 3442 4084 
Q 3081 4231 2675 4231 
Q 1875 4231 1450 3742 
Q 1025 3253 1025 2328 
Q 1025 1406 1450 917 
Q 1875 428 2675 428 
Q 3081 428 3442 575 
Q 3803 722 4122 1019 
L 4122 359 
Q 3791 134 3420 21 
Q 3050 -91 2638 -91 
Q 1578 -91 968 557 
Q 359 1206 359 2328 
Q 359 3453 968 4101 
Q 1578 4750 2638 4750 
Q 3056 4750 3426 4639 
Q 3797 4528 4122 4306 
z
" transform="scale(0.015625)"/>
       <path id="DejaVuSans-25" d="M 4653 2053 
Q 4381 2053 4226 1822 
Q 4072 1591 4072 1178 
Q 4072 772 4226 539 
Q 4381 306 4653 306 
Q 4919 306 5073 539 
Q 5228 772 5228 1178 
Q 5228 1588 5073 1820 
Q 4919 2053 4653 2053 
z
M 4653 2450 
Q 5147 2450 5437 2106 
Q 5728 1763 5728 1178 
Q 5728 594 5436 251 
Q 5144 -91 4653 -91 
Q 4153 -91 3862 251 
Q 3572 594 3572 1178 
Q 3572 1766 3864 2108 
Q 4156 2450 4653 2450 
z
M 1428 4353 
Q 1159 4353 1004 4120 
Q 850 3888 850 3481 
Q 850 3069 1003 2837 
Q 1156 2606 1428 2606 
Q 1700 2606 1854 2837 
Q 2009 3069 2009 3481 
Q 2009 3884 1853 4118 
Q 1697 4353 1428 4353 
z
M 4250 4750 
L 4750 4750 
L 1831 -91 
L 1331 -91 
L 4250 4750 
z
M 1428 4750 
Q 1922 4750 2215 4408 
Q 2509 4066 2509 3481 
Q 2509 2891 2217 2550 
Q 1925 2209 1428 2209 
Q 931 2209 642 2551 
Q 353 2894 353 3481 
Q 353 4063 643 4406 
Q 934 4750 1428 4750 
z
" transform="scale(0.015625)"/>
      </defs>
      <use xlink:href="#DejaVuSans-43"/>
      <use xlink:href="#DejaVuSans-6f" transform="translate(69.824219 0)"/>
      <use xlink:href="#DejaVuSans-6e" transform="translate(131.005859 0)"/>
      <use xlink:href="#DejaVuSans-74" transform="translate(194.384766 0)"/>
      <use xlink:href="#DejaVuSans-61" transform="translate(233.59375 0)"/>
      <use xlink:href="#DejaVuSans-6d" transform="translate(294.873047 0)"/>
      <use xlink:href="#DejaVuSans-69" transform="translate(392.285156 0)"/>
      <use xlink:href="#DejaVuSans-6e" transform="translate(420.068359 0)"/>
      <use xlink:href="#DejaVuSans-61" transform="translate(483.447266 0)"/>
      <use xlink:href="#DejaVuSans-74" transform="translate(544.726562 0)"/>
      <use xlink:href="#DejaVuSans-69" transform="translate(583.935547 0)"/>
      <use xlink:href="#DejaVuSans-6f" transform="translate(611.71875 0)"/>
      <use xlink:href="#DejaVuSans-6e" transform="translate(672.900391 0)"/>
      <use xlink:href="#DejaVuSans-20" transform="translate(736.279297 0)"/>
      <use xlink:href="#DejaVuSans-25" transform="translate(768.066406 0)"/>
     </g>
    </g>
   </g>
   <g id="PathCollection_1">
    <defs>
     <path id="m00d2ec2c13" d="M -0 4.330127 
L 4.330127 -4.330127 
L -4.330127 -4.330127 
z
" style="stroke: #000000"/>
    </defs>
    <g clip-path="url(#pec871153bd)">
     <use xlink:href="#m00d2ec2c13" x="126.664059" y="220.812571" style="fill: #ff4500; stroke: #000000"/>
     <use xlink:href="#m00d2ec2c13" x="115.039597" y="227.640065" style="fill: #ff4500; stroke: #000000"/>
     <use xlink:href="#m00d2ec2c13" x="129.600442" y="190.732042" style="fill: #ff4500; stroke: #000000"/>
     <use xlink:href="#m00d2ec2c13" x="124.007079" y="223.948056" style="fill: #ff4500; stroke: #000000"/>
     <use xlink:href="#m00d2ec2c13" x="103.081279" y="184.841913" style="fill: #ff4500; stroke: #000000"/>
     <use xlink:href="#m00d2ec2c13" x="133.660236" y="213.756829" style="fill: #ff4500; stroke: #000000"/>
     <use xlink:href="#m00d2ec2c13" x="126.219436" y="210.075358" style="fill: #ff4500; stroke: #000000"/>
     <use xlink:href="#m00d2ec2c13" x="127.084117" y="227.25304" style="fill: #ff4500; stroke: #000000"/>
     <use xlink:href="#m00d2ec2c13" x="104.258591" y="205.595346" style="fill: #ff4500; stroke: #000000"/>
     <use xlink:href="#m00d2ec2c13" x="115.438814" y="162.720588" style="fill: #ff4500; stroke: #000000"/>
     <use xlink:href="#m00d2ec2c13" x="112.677762" y="229.322882" style="fill: #ff4500; stroke: #000000"/>
     <use xlink:href="#m00d2ec2c13" x="131.965284" y="228.626637" style="fill: #ff4500; stroke: #000000"/>
     <use xlink:href="#m00d2ec2c13" x="122.150964" y="228.317462" style="fill: #ff4500; stroke: #000000"/>
     <use xlink:href="#m00d2ec2c13" x="128.357215" y="229.322882" style="fill: #ff4500; stroke: #000000"/>
     <use xlink:href="#m00d2ec2c13" x="115.196951" y="228.811321" style="fill: #ff4500; stroke: #000000"/>
     <use xlink:href="#m00d2ec2c13" x="107.697424" y="200.928778" style="fill: #ff4500; stroke: #000000"/>
     <use xlink:href="#m00d2ec2c13" x="119.053664" y="215.607338" style="fill: #ff4500; stroke: #000000"/>
     <use xlink:href="#m00d2ec2c13" x="102.028031" y="66.346571" style="fill: #ff4500; stroke: #000000"/>
     <use xlink:href="#m00d2ec2c13" x="128.526149" y="226.097483" style="fill: #ff4500; stroke: #000000"/>
     <use xlink:href="#m00d2ec2c13" x="121.727699" y="222.817666" style="fill: #ff4500; stroke: #000000"/>
     <use xlink:href="#m00d2ec2c13" x="126.113558" y="223.083727" style="fill: #ff4500; stroke: #000000"/>
     <use xlink:href="#m00d2ec2c13" x="112.113254" y="201.222846" style="fill: #ff4500; stroke: #000000"/>
     <use xlink:href="#m00d2ec2c13" x="133.489402" y="225.604029" style="fill: #ff4500; stroke: #000000"/>
     <use xlink:href="#m00d2ec2c13" x="130.798116" y="223.396058" style="fill: #ff4500; stroke: #000000"/>
     <use xlink:href="#m00d2ec2c13" x="126.817656" y="216.3836" style="fill: #ff4500; stroke: #000000"/>
     <use xlink:href="#m00d2ec2c13" x="106.566469" y="225.221412" style="fill: #ff4500; stroke: #000000"/>
     <use xlink:href="#m00d2ec2c13" x="116.005507" y="156.986517" style="fill: #ff4500; stroke: #000000"/>
     <use xlink:href="#m00d2ec2c13" x="101.333726" y="224.370047" style="fill: #ff4500; stroke: #000000"/>
     <use xlink:href="#m00d2ec2c13" x="105.16668" y="214.610663" style="fill: #ff4500; stroke: #000000"/>
     <use xlink:href="#m00d2ec2c13" x="123.510324" y="205.073096" style="fill: #ff4500; stroke: #000000"/>
    </g>
   </g>
   <g id="PathCollection_2">
    <defs>
     <path id="m56a77b3fa7" d="M 0 4.330127 
C 1.148363 4.330127 2.249847 3.873878 3.061862 3.061862 
C 3.873878 2.249847 4.330127 1.148363 4.330127 0 
C 4.330127 -1.148363 3.873878 -2.249847 3.061862 -3.061862 
C 2.249847 -3.873878 1.148363 -4.330127 0 -4.330127 
C -1.148363 -4.330127 -2.249847 -3.873878 -3.061862 -3.061862 
C -3.873878 -2.249847 -4.330127 -1.148363 -4.330127 0 
C -4.330127 1.148363 -3.873878 2.249847 -3.061862 3.061862 
C -2.249847 3.873878 -1.148363 4.330127 0 4.330127 
z
" style="stroke: #000000"/>
    </defs>
    <g clip-path="url(#pec871153bd)">
     <use xlink:href="#m56a77b3fa7" x="242.303558" y="165.017219" style="fill: #1e90ff; stroke: #000000"/>
     <use xlink:href="#m56a77b3fa7" x="230.679096" y="201.473074" style="fill: #1e90ff; stroke: #000000"/>
     <use xlink:href="#m56a77b3fa7" x="245.239941" y="171.649036" style="fill: #1e90ff; stroke: #000000"/>
     <use xlink:href="#m56a77b3fa7" x="239.646578" y="228.148085" style="fill: #1e90ff; stroke: #000000"/>
     <use xlink:href="#m56a77b3fa7" x="218.720777" y="215.412792" style="fill: #1e90ff; stroke: #000000"/>
     <use xlink:href="#m56a77b3fa7" x="249.299735" y="129.393659" style="fill: #1e90ff; stroke: #000000"/>
     <use xlink:href="#m56a77b3fa7" x="241.858935" y="226.632453" style="fill: #1e90ff; stroke: #000000"/>
     <use xlink:href="#m56a77b3fa7" x="242.723615" y="183.122836" style="fill: #1e90ff; stroke: #000000"/>
     <use xlink:href="#m56a77b3fa7" x="219.89809" y="116.986447" style="fill: #1e90ff; stroke: #000000"/>
     <use xlink:href="#m56a77b3fa7" x="231.078312" y="73.17208" style="fill: #1e90ff; stroke: #000000"/>
     <use xlink:href="#m56a77b3fa7" x="228.31726" y="226.728539" style="fill: #1e90ff; stroke: #000000"/>
     <use xlink:href="#m56a77b3fa7" x="247.604782" y="151.710019" style="fill: #1e90ff; stroke: #000000"/>
     <use xlink:href="#m56a77b3fa7" x="237.790463" y="139.801928" style="fill: #1e90ff; stroke: #000000"/>
     <use xlink:href="#m56a77b3fa7" x="243.996713" y="157.580329" style="fill: #1e90ff; stroke: #000000"/>
     <use xlink:href="#m56a77b3fa7" x="230.83645" y="195.926622" style="fill: #1e90ff; stroke: #000000"/>
     <use xlink:href="#m56a77b3fa7" x="223.336922" y="153.264988" style="fill: #1e90ff; stroke: #000000"/>
     <use xlink:href="#m56a77b3fa7" x="234.693163" y="102.713647" style="fill: #1e90ff; stroke: #000000"/>
     <use xlink:href="#m56a77b3fa7" x="217.66753" y="208.604684" style="fill: #1e90ff; stroke: #000000"/>
     <use xlink:href="#m56a77b3fa7" x="244.165647" y="206.971626" style="fill: #1e90ff; stroke: #000000"/>
     <use xlink:href="#m56a77b3fa7" x="237.367197" y="157.13531" style="fill: #1e90ff; stroke: #000000"/>
     <use xlink:href="#m56a77b3fa7" x="241.753057" y="187.703302" style="fill: #1e90ff; stroke: #000000"/>
     <use xlink:href="#m56a77b3fa7" x="227.752752" y="50.740909" style="fill: #1e90ff; stroke: #000000"/>
     <use xlink:href="#m56a77b3fa7" x="249.128901" y="177.639823" style="fill: #1e90ff; stroke: #000000"/>
     <use xlink:href="#m56a77b3fa7" x="246.437614" y="206.971626" style="fill: #1e90ff; stroke: #000000"/>
     <use xlink:href="#m56a77b3fa7" x="242.457154" y="194.40319" style="fill: #1e90ff; stroke: #000000"/>
     <use xlink:href="#m56a77b3fa7" x="222.205968" y="219.417212" style="fill: #1e90ff; stroke: #000000"/>
     <use xlink:href="#m56a77b3fa7" x="231.645006" y="197.175598" style="fill: #1e90ff; stroke: #000000"/>
     <use xlink:href="#m56a77b3fa7" x="216.973225" y="225.908917" style="fill: #1e90ff; stroke: #000000"/>
     <use xlink:href="#m56a77b3fa7" x="220.806179" y="178.733209" style="fill: #1e90ff; stroke: #000000"/>
     <use xlink:href="#m56a77b3fa7" x="239.149822" y="195.234095" style="fill: #1e90ff; stroke: #000000"/>
    </g>
   </g>
   <g id="PathCollection_3">
    <defs>
     <path id="m56eaacdfd6" d="M 0 -4.330127 
L -4.330127 4.330127 
L 4.330127 4.330127 
z
" style="stroke: #000000"/>
    </defs>
    <g clip-path="url(#pec871153bd)">
     <use xlink:href="#m56eaacdfd6" x="357.943056" y="223.662499" style="fill: #808080; stroke: #000000"/>
     <use xlink:href="#m56eaacdfd6" x="346.318594" y="227.121622" style="fill: #808080; stroke: #000000"/>
     <use xlink:href="#m56eaacdfd6" x="360.879439" y="227.286202" style="fill: #808080; stroke: #000000"/>
     <use xlink:href="#m56eaacdfd6" x="355.286076" y="227.468203" style="fill: #808080; stroke: #000000"/>
     <use xlink:href="#m56eaacdfd6" x="334.360276" y="205.487363" style="fill: #808080; stroke: #000000"/>
     <use xlink:href="#m56eaacdfd6" x="364.939233" y="172.55257" style="fill: #808080; stroke: #000000"/>
     <use xlink:href="#m56eaacdfd6" x="357.498433" y="227.845426" style="fill: #808080; stroke: #000000"/>
     <use xlink:href="#m56eaacdfd6" x="358.363114" y="227.3684" style="fill: #808080; stroke: #000000"/>
     <use xlink:href="#m56eaacdfd6" x="335.537588" y="211.992882" style="fill: #808080; stroke: #000000"/>
     <use xlink:href="#m56eaacdfd6" x="346.71781" y="229.322882" style="fill: #808080; stroke: #000000"/>
     <use xlink:href="#m56eaacdfd6" x="343.956759" y="229.322882" style="fill: #808080; stroke: #000000"/>
     <use xlink:href="#m56eaacdfd6" x="363.244281" y="229.322882" style="fill: #808080; stroke: #000000"/>
     <use xlink:href="#m56eaacdfd6" x="353.429961" y="228.403368" style="fill: #808080; stroke: #000000"/>
     <use xlink:href="#m56eaacdfd6" x="359.636211" y="203.595655" style="fill: #808080; stroke: #000000"/>
     <use xlink:href="#m56eaacdfd6" x="346.475948" y="229.322882" style="fill: #808080; stroke: #000000"/>
     <use xlink:href="#m56eaacdfd6" x="338.976421" y="228.579111" style="fill: #808080; stroke: #000000"/>
     <use xlink:href="#m56eaacdfd6" x="350.332661" y="200.596438" style="fill: #808080; stroke: #000000"/>
     <use xlink:href="#m56eaacdfd6" x="333.307028" y="225.980478" style="fill: #808080; stroke: #000000"/>
     <use xlink:href="#m56eaacdfd6" x="359.805145" y="228.610709" style="fill: #808080; stroke: #000000"/>
     <use xlink:href="#m56eaacdfd6" x="353.006696" y="225.726764" style="fill: #808080; stroke: #000000"/>
     <use xlink:href="#m56eaacdfd6" x="357.392555" y="229.322882" style="fill: #808080; stroke: #000000"/>
     <use xlink:href="#m56eaacdfd6" x="343.392251" y="228.81608" style="fill: #808080; stroke: #000000"/>
     <use xlink:href="#m56eaacdfd6" x="364.768399" y="221.935602" style="fill: #808080; stroke: #000000"/>
     <use xlink:href="#m56eaacdfd6" x="362.077113" y="208.351044" style="fill: #808080; stroke: #000000"/>
     <use xlink:href="#m56eaacdfd6" x="358.096652" y="227.769051" style="fill: #808080; stroke: #000000"/>
     <use xlink:href="#m56eaacdfd6" x="337.845466" y="219.099252" style="fill: #808080; stroke: #000000"/>
     <use xlink:href="#m56eaacdfd6" x="347.284504" y="206.554625" style="fill: #808080; stroke: #000000"/>
     <use xlink:href="#m56eaacdfd6" x="332.612723" y="228.706113" style="fill: #808080; stroke: #000000"/>
     <use xlink:href="#m56eaacdfd6" x="336.445677" y="207.81715" style="fill: #808080; stroke: #000000"/>
     <use xlink:href="#m56eaacdfd6" x="354.789321" y="214.438846" style="fill: #808080; stroke: #000000"/>
    </g>
   </g>
   <g id="patch_3">
    <path d="M 48.354516 229.322882 
L 48.354516 11.398137 
" style="fill: none; stroke: #000000; stroke-width: 0.8; stroke-linejoin: miter; stroke-linecap: square"/>
   </g>
   <g id="patch_4">
    <path d="M 417.244516 229.322882 
L 417.244516 11.398137 
" style="fill: none; stroke: #000000; stroke-width: 0.8; stroke-linejoin: miter; stroke-linecap: square"/>
   </g>
   <g id="patch_5">
    <path d="M 48.354516 229.322882 
L 417.244516 229.322882 
" style="fill: none; stroke: #000000; stroke-width: 0.8; stroke-linejoin: miter; stroke-linecap: square"/>
   </g>
   <g id="patch_6">
    <path d="M 48.354516 11.398137 
L 417.244516 11.398137 
" style="fill: none; stroke: #000000; stroke-width: 0.8; stroke-linejoin: miter; stroke-linecap: square"/>
   </g>
  </g>
 </g>
 <defs>
  <clipPath id="pec871153bd">
   <rect x="48.354516" y="11.398137" width="368.89" height="217.924745"/>
  </clipPath>
 </defs>
</svg>
