<?xml version="1.0" encoding="utf-8" standalone="no"?>
<!DOCTYPE svg PUBLIC "-//W3C//DTD SVG 1.1//EN"
  "http://www.w3.org/Graphics/SVG/1.1/DTD/svg11.dtd">
<svg xmlns:xlink="http://www.w3.org/1999/xlink" width="391.259687pt" height="217.699219pt" viewBox="0 0 391.259687 217.699219" xmlns="http://www.w3.org/2000/svg" version="1.1">
 <metadata>
  <rdf:RDF xmlns:dc="http://purl.org/dc/elements/1.1/" xmlns:cc="http://creativecommons.org/ns#" xmlns:rdf="http://www.w3.org/1999/02/22-rdf-syntax-ns#">
   <cc:Work>
    <dc:type rdf:resource="http://purl.org/dc/dcmitype/StillImage"/>
    <dc:date>2023-12-05T21:40:08.749141</dc:date>
    <dc:format>image/svg+xml</dc:format>
    <dc:creator>
     <cc:Agent>
      <dc:title>Matplotlib v3.7.2, https://matplotlib.org/</dc:title>
     </cc:Agent>
    </dc:creator>
   </cc:Work>
  </rdf:RDF>
 </metadata>
 <defs>
  <style type="text/css">*{stroke-linejoin: round; stroke-linecap: butt}</style>
 </defs>
 <g id="figure_1">
  <g id="patch_1">
   <path d="M 0 217.699219 
L 391.259687 217.699219 
L 391.259687 0 
L 0 0 
z
" style="fill: #ffffff"/>
  </g>
  <g id="axes_1">
   <g id="patch_2">
    <path d="M 49.259687 190.917656 
L 384.059687 190.917656 
L 384.059687 24.597656 
L 49.259687 24.597656 
z
" style="fill: #ffffff"/>
   </g>
   <g id="patch_3">
    <path d="M 64.477869 190.917656 
L 72.08696 190.917656 
L 72.08696 186.04381 
L 64.477869 186.04381 
z
" clip-path="url(#pa767e1bc03)" style="fill: #1f77b4"/>
   </g>
   <g id="patch_4">
    <path d="M 72.08696 190.917656 
L 79.696051 190.917656 
L 79.696051 190.917656 
L 72.08696 190.917656 
z
" clip-path="url(#pa767e1bc03)" style="fill: #1f77b4"/>
   </g>
   <g id="patch_5">
    <path d="M 79.696051 190.917656 
L 87.305142 190.917656 
L 87.305142 190.917656 
L 79.696051 190.917656 
z
" clip-path="url(#pa767e1bc03)" style="fill: #1f77b4"/>
   </g>
   <g id="patch_6">
    <path d="M 87.305142 190.917656 
L 94.914233 190.917656 
L 94.914233 190.917656 
L 87.305142 190.917656 
z
" clip-path="url(#pa767e1bc03)" style="fill: #1f77b4"/>
   </g>
   <g id="patch_7">
    <path d="M 94.914233 190.917656 
L 102.523324 190.917656 
L 102.523324 190.917656 
L 94.914233 190.917656 
z
" clip-path="url(#pa767e1bc03)" style="fill: #1f77b4"/>
   </g>
   <g id="patch_8">
    <path d="M 102.523324 190.917656 
L 110.132415 190.917656 
L 110.132415 190.917656 
L 102.523324 190.917656 
z
" clip-path="url(#pa767e1bc03)" style="fill: #1f77b4"/>
   </g>
   <g id="patch_9">
    <path d="M 110.132415 190.917656 
L 117.741506 190.917656 
L 117.741506 188.480733 
L 110.132415 188.480733 
z
" clip-path="url(#pa767e1bc03)" style="fill: #1f77b4"/>
   </g>
   <g id="patch_10">
    <path d="M 117.741506 190.917656 
L 125.350597 190.917656 
L 125.350597 190.917656 
L 117.741506 190.917656 
z
" clip-path="url(#pa767e1bc03)" style="fill: #1f77b4"/>
   </g>
   <g id="patch_11">
    <path d="M 125.350597 190.917656 
L 132.959687 190.917656 
L 132.959687 166.548425 
L 125.350597 166.548425 
z
" clip-path="url(#pa767e1bc03)" style="fill: #1f77b4"/>
   </g>
   <g id="patch_12">
    <path d="M 132.959687 190.917656 
L 140.568778 190.917656 
L 140.568778 190.917656 
L 132.959687 190.917656 
z
" clip-path="url(#pa767e1bc03)" style="fill: #1f77b4"/>
   </g>
   <g id="patch_13">
    <path d="M 140.568778 190.917656 
L 148.177869 190.917656 
L 148.177869 186.04381 
L 140.568778 186.04381 
z
" clip-path="url(#pa767e1bc03)" style="fill: #1f77b4"/>
   </g>
   <g id="patch_14">
    <path d="M 148.177869 190.917656 
L 155.78696 190.917656 
L 155.78696 181.169964 
L 148.177869 181.169964 
z
" clip-path="url(#pa767e1bc03)" style="fill: #1f77b4"/>
   </g>
   <g id="patch_15">
    <path d="M 155.78696 190.917656 
L 163.396051 190.917656 
L 163.396051 183.606887 
L 155.78696 183.606887 
z
" clip-path="url(#pa767e1bc03)" style="fill: #1f77b4"/>
   </g>
   <g id="patch_16">
    <path d="M 163.396051 190.917656 
L 171.005142 190.917656 
L 171.005142 171.422272 
L 163.396051 171.422272 
z
" clip-path="url(#pa767e1bc03)" style="fill: #1f77b4"/>
   </g>
   <g id="patch_17">
    <path d="M 171.005142 190.917656 
L 178.614233 190.917656 
L 178.614233 166.548425 
L 171.005142 166.548425 
z
" clip-path="url(#pa767e1bc03)" style="fill: #1f77b4"/>
   </g>
   <g id="patch_18">
    <path d="M 178.614233 190.917656 
L 186.223324 190.917656 
L 186.223324 181.169964 
L 178.614233 181.169964 
z
" clip-path="url(#pa767e1bc03)" style="fill: #1f77b4"/>
   </g>
   <g id="patch_19">
    <path d="M 186.223324 190.917656 
L 193.832415 190.917656 
L 193.832415 178.733041 
L 186.223324 178.733041 
z
" clip-path="url(#pa767e1bc03)" style="fill: #1f77b4"/>
   </g>
   <g id="patch_20">
    <path d="M 193.832415 190.917656 
L 201.441506 190.917656 
L 201.441506 32.517656 
L 193.832415 32.517656 
z
" clip-path="url(#pa767e1bc03)" style="fill: #1f77b4"/>
   </g>
   <g id="patch_21">
    <path d="M 201.441506 190.917656 
L 209.050597 190.917656 
L 209.050597 188.480733 
L 201.441506 188.480733 
z
" clip-path="url(#pa767e1bc03)" style="fill: #1f77b4"/>
   </g>
   <g id="patch_22">
    <path d="M 209.050597 190.917656 
L 216.659687 190.917656 
L 216.659687 186.04381 
L 209.050597 186.04381 
z
" clip-path="url(#pa767e1bc03)" style="fill: #1f77b4"/>
   </g>
   <g id="patch_23">
    <path d="M 216.659688 190.917656 
L 224.268778 190.917656 
L 224.268778 181.169964 
L 216.659688 181.169964 
z
" clip-path="url(#pa767e1bc03)" style="fill: #1f77b4"/>
   </g>
   <g id="patch_24">
    <path d="M 224.268778 190.917656 
L 231.877869 190.917656 
L 231.877869 188.480733 
L 224.268778 188.480733 
z
" clip-path="url(#pa767e1bc03)" style="fill: #1f77b4"/>
   </g>
   <g id="patch_25">
    <path d="M 231.877869 190.917656 
L 239.48696 190.917656 
L 239.48696 166.548425 
L 231.877869 166.548425 
z
" clip-path="url(#pa767e1bc03)" style="fill: #1f77b4"/>
   </g>
   <g id="patch_26">
    <path d="M 239.48696 190.917656 
L 247.096051 190.917656 
L 247.096051 178.733041 
L 239.48696 178.733041 
z
" clip-path="url(#pa767e1bc03)" style="fill: #1f77b4"/>
   </g>
   <g id="patch_27">
    <path d="M 247.096051 190.917656 
L 254.705142 190.917656 
L 254.705142 183.606887 
L 247.096051 183.606887 
z
" clip-path="url(#pa767e1bc03)" style="fill: #1f77b4"/>
   </g>
   <g id="patch_28">
    <path d="M 254.705142 190.917656 
L 262.314233 190.917656 
L 262.314233 188.480733 
L 254.705142 188.480733 
z
" clip-path="url(#pa767e1bc03)" style="fill: #1f77b4"/>
   </g>
   <g id="patch_29">
    <path d="M 262.314233 190.917656 
L 269.923324 190.917656 
L 269.923324 186.04381 
L 262.314233 186.04381 
z
" clip-path="url(#pa767e1bc03)" style="fill: #1f77b4"/>
   </g>
   <g id="patch_30">
    <path d="M 269.923324 190.917656 
L 277.532415 190.917656 
L 277.532415 190.917656 
L 269.923324 190.917656 
z
" clip-path="url(#pa767e1bc03)" style="fill: #1f77b4"/>
   </g>
   <g id="patch_31">
    <path d="M 277.532415 190.917656 
L 285.141506 190.917656 
L 285.141506 190.917656 
L 277.532415 190.917656 
z
" clip-path="url(#pa767e1bc03)" style="fill: #1f77b4"/>
   </g>
   <g id="patch_32">
    <path d="M 285.141506 190.917656 
L 292.750597 190.917656 
L 292.750597 190.917656 
L 285.141506 190.917656 
z
" clip-path="url(#pa767e1bc03)" style="fill: #1f77b4"/>
   </g>
   <g id="patch_33">
    <path d="M 292.750597 190.917656 
L 300.359688 190.917656 
L 300.359688 190.917656 
L 292.750597 190.917656 
z
" clip-path="url(#pa767e1bc03)" style="fill: #1f77b4"/>
   </g>
   <g id="patch_34">
    <path d="M 300.359688 190.917656 
L 307.968778 190.917656 
L 307.968778 188.480733 
L 300.359688 188.480733 
z
" clip-path="url(#pa767e1bc03)" style="fill: #1f77b4"/>
   </g>
   <g id="patch_35">
    <path d="M 307.968778 190.917656 
L 315.577869 190.917656 
L 315.577869 190.917656 
L 307.968778 190.917656 
z
" clip-path="url(#pa767e1bc03)" style="fill: #1f77b4"/>
   </g>
   <g id="patch_36">
    <path d="M 315.577869 190.917656 
L 323.18696 190.917656 
L 323.18696 190.917656 
L 315.577869 190.917656 
z
" clip-path="url(#pa767e1bc03)" style="fill: #1f77b4"/>
   </g>
   <g id="patch_37">
    <path d="M 323.18696 190.917656 
L 330.796051 190.917656 
L 330.796051 190.917656 
L 323.18696 190.917656 
z
" clip-path="url(#pa767e1bc03)" style="fill: #1f77b4"/>
   </g>
   <g id="patch_38">
    <path d="M 330.796051 190.917656 
L 338.405142 190.917656 
L 338.405142 181.169964 
L 330.796051 181.169964 
z
" clip-path="url(#pa767e1bc03)" style="fill: #1f77b4"/>
   </g>
   <g id="patch_39">
    <path d="M 338.405142 190.917656 
L 346.014233 190.917656 
L 346.014233 190.917656 
L 338.405142 190.917656 
z
" clip-path="url(#pa767e1bc03)" style="fill: #1f77b4"/>
   </g>
   <g id="patch_40">
    <path d="M 346.014233 190.917656 
L 353.623324 190.917656 
L 353.623324 190.917656 
L 346.014233 190.917656 
z
" clip-path="url(#pa767e1bc03)" style="fill: #1f77b4"/>
   </g>
   <g id="patch_41">
    <path d="M 353.623324 190.917656 
L 361.232415 190.917656 
L 361.232415 190.917656 
L 353.623324 190.917656 
z
" clip-path="url(#pa767e1bc03)" style="fill: #1f77b4"/>
   </g>
   <g id="patch_42">
    <path d="M 361.232415 190.917656 
L 368.841506 190.917656 
L 368.841506 188.480733 
L 361.232415 188.480733 
z
" clip-path="url(#pa767e1bc03)" style="fill: #1f77b4"/>
   </g>
   <g id="matplotlib.axis_1">
    <g id="xtick_1">
     <g id="line2d_1">
      <defs>
       <path id="m547a7893ee" d="M 0 0 
L 0 3.5 
" style="stroke: #000000; stroke-width: 0.8"/>
      </defs>
      <g>
       <use xlink:href="#m547a7893ee" x="64.477869" y="190.917656" style="stroke: #000000; stroke-width: 0.8"/>
      </g>
     </g>
     <g id="text_1">
      <!-- 3 -->
      <g transform="translate(60.342244 207.795625) scale(0.13 -0.13)">
       <defs>
        <path id="DejaVuSans-33" d="M 2597 2516 
Q 3050 2419 3304 2112 
Q 3559 1806 3559 1356 
Q 3559 666 3084 287 
Q 2609 -91 1734 -91 
Q 1441 -91 1130 -33 
Q 819 25 488 141 
L 488 750 
Q 750 597 1062 519 
Q 1375 441 1716 441 
Q 2309 441 2620 675 
Q 2931 909 2931 1356 
Q 2931 1769 2642 2001 
Q 2353 2234 1838 2234 
L 1294 2234 
L 1294 2753 
L 1863 2753 
Q 2328 2753 2575 2939 
Q 2822 3125 2822 3475 
Q 2822 3834 2567 4026 
Q 2313 4219 1838 4219 
Q 1578 4219 1281 4162 
Q 984 4106 628 3988 
L 628 4550 
Q 988 4650 1302 4700 
Q 1616 4750 1894 4750 
Q 2613 4750 3031 4423 
Q 3450 4097 3450 3541 
Q 3450 3153 3228 2886 
Q 3006 2619 2597 2516 
z
" transform="scale(0.015625)"/>
       </defs>
       <use xlink:href="#DejaVuSans-33"/>
      </g>
     </g>
    </g>
    <g id="xtick_2">
     <g id="line2d_2">
      <g>
       <use xlink:href="#m547a7893ee" x="132.114233" y="190.917656" style="stroke: #000000; stroke-width: 0.8"/>
      </g>
     </g>
     <g id="text_2">
      <!-- 4 -->
      <g transform="translate(127.978608 207.795625) scale(0.13 -0.13)">
       <defs>
        <path id="DejaVuSans-34" d="M 2419 4116 
L 825 1625 
L 2419 1625 
L 2419 4116 
z
M 2253 4666 
L 3047 4666 
L 3047 1625 
L 3713 1625 
L 3713 1100 
L 3047 1100 
L 3047 0 
L 2419 0 
L 2419 1100 
L 313 1100 
L 313 1709 
L 2253 4666 
z
" transform="scale(0.015625)"/>
       </defs>
       <use xlink:href="#DejaVuSans-34"/>
      </g>
     </g>
    </g>
    <g id="xtick_3">
     <g id="line2d_3">
      <g>
       <use xlink:href="#m547a7893ee" x="199.750597" y="190.917656" style="stroke: #000000; stroke-width: 0.8"/>
      </g>
     </g>
     <g id="text_3">
      <!-- 5 -->
      <g transform="translate(195.614972 207.795625) scale(0.13 -0.13)">
       <defs>
        <path id="DejaVuSans-35" d="M 691 4666 
L 3169 4666 
L 3169 4134 
L 1269 4134 
L 1269 2991 
Q 1406 3038 1543 3061 
Q 1681 3084 1819 3084 
Q 2600 3084 3056 2656 
Q 3513 2228 3513 1497 
Q 3513 744 3044 326 
Q 2575 -91 1722 -91 
Q 1428 -91 1123 -41 
Q 819 9 494 109 
L 494 744 
Q 775 591 1075 516 
Q 1375 441 1709 441 
Q 2250 441 2565 725 
Q 2881 1009 2881 1497 
Q 2881 1984 2565 2268 
Q 2250 2553 1709 2553 
Q 1456 2553 1204 2497 
Q 953 2441 691 2322 
L 691 4666 
z
" transform="scale(0.015625)"/>
       </defs>
       <use xlink:href="#DejaVuSans-35"/>
      </g>
     </g>
    </g>
    <g id="xtick_4">
     <g id="line2d_4">
      <g>
       <use xlink:href="#m547a7893ee" x="267.38696" y="190.917656" style="stroke: #000000; stroke-width: 0.8"/>
      </g>
     </g>
     <g id="text_4">
      <!-- 6 -->
      <g transform="translate(263.251335 207.795625) scale(0.13 -0.13)">
       <defs>
        <path id="DejaVuSans-36" d="M 2113 2584 
Q 1688 2584 1439 2293 
Q 1191 2003 1191 1497 
Q 1191 994 1439 701 
Q 1688 409 2113 409 
Q 2538 409 2786 701 
Q 3034 994 3034 1497 
Q 3034 2003 2786 2293 
Q 2538 2584 2113 2584 
z
M 3366 4563 
L 3366 3988 
Q 3128 4100 2886 4159 
Q 2644 4219 2406 4219 
Q 1781 4219 1451 3797 
Q 1122 3375 1075 2522 
Q 1259 2794 1537 2939 
Q 1816 3084 2150 3084 
Q 2853 3084 3261 2657 
Q 3669 2231 3669 1497 
Q 3669 778 3244 343 
Q 2819 -91 2113 -91 
Q 1303 -91 875 529 
Q 447 1150 447 2328 
Q 447 3434 972 4092 
Q 1497 4750 2381 4750 
Q 2619 4750 2861 4703 
Q 3103 4656 3366 4563 
z
" transform="scale(0.015625)"/>
       </defs>
       <use xlink:href="#DejaVuSans-36"/>
      </g>
     </g>
    </g>
    <g id="xtick_5">
     <g id="line2d_5">
      <g>
       <use xlink:href="#m547a7893ee" x="335.023324" y="190.917656" style="stroke: #000000; stroke-width: 0.8"/>
      </g>
     </g>
     <g id="text_5">
      <!-- 7 -->
      <g transform="translate(330.887699 207.795625) scale(0.13 -0.13)">
       <defs>
        <path id="DejaVuSans-37" d="M 525 4666 
L 3525 4666 
L 3525 4397 
L 1831 0 
L 1172 0 
L 2766 4134 
L 525 4134 
L 525 4666 
z
" transform="scale(0.015625)"/>
       </defs>
       <use xlink:href="#DejaVuSans-37"/>
      </g>
     </g>
    </g>
   </g>
   <g id="matplotlib.axis_2">
    <g id="ytick_1">
     <g id="line2d_6">
      <defs>
       <path id="m30ae917570" d="M 0 0 
L -3.5 0 
" style="stroke: #000000; stroke-width: 0.8"/>
      </defs>
      <g>
       <use xlink:href="#m30ae917570" x="49.259687" y="190.917656" style="stroke: #000000; stroke-width: 0.8"/>
      </g>
     </g>
     <g id="text_6">
      <!-- 0 -->
      <g transform="translate(33.988437 195.856641) scale(0.13 -0.13)">
       <defs>
        <path id="DejaVuSans-30" d="M 2034 4250 
Q 1547 4250 1301 3770 
Q 1056 3291 1056 2328 
Q 1056 1369 1301 889 
Q 1547 409 2034 409 
Q 2525 409 2770 889 
Q 3016 1369 3016 2328 
Q 3016 3291 2770 3770 
Q 2525 4250 2034 4250 
z
M 2034 4750 
Q 2819 4750 3233 4129 
Q 3647 3509 3647 2328 
Q 3647 1150 3233 529 
Q 2819 -91 2034 -91 
Q 1250 -91 836 529 
Q 422 1150 422 2328 
Q 422 3509 836 4129 
Q 1250 4750 2034 4750 
z
" transform="scale(0.015625)"/>
       </defs>
       <use xlink:href="#DejaVuSans-30"/>
      </g>
     </g>
    </g>
    <g id="ytick_2">
     <g id="line2d_7">
      <g>
       <use xlink:href="#m30ae917570" x="49.259687" y="142.179195" style="stroke: #000000; stroke-width: 0.8"/>
      </g>
     </g>
     <g id="text_7">
      <!-- 20 -->
      <g transform="translate(25.717187 147.118179) scale(0.13 -0.13)">
       <defs>
        <path id="DejaVuSans-32" d="M 1228 531 
L 3431 531 
L 3431 0 
L 469 0 
L 469 531 
Q 828 903 1448 1529 
Q 2069 2156 2228 2338 
Q 2531 2678 2651 2914 
Q 2772 3150 2772 3378 
Q 2772 3750 2511 3984 
Q 2250 4219 1831 4219 
Q 1534 4219 1204 4116 
Q 875 4013 500 3803 
L 500 4441 
Q 881 4594 1212 4672 
Q 1544 4750 1819 4750 
Q 2544 4750 2975 4387 
Q 3406 4025 3406 3419 
Q 3406 3131 3298 2873 
Q 3191 2616 2906 2266 
Q 2828 2175 2409 1742 
Q 1991 1309 1228 531 
z
" transform="scale(0.015625)"/>
       </defs>
       <use xlink:href="#DejaVuSans-32"/>
       <use xlink:href="#DejaVuSans-30" x="63.623047"/>
      </g>
     </g>
    </g>
    <g id="ytick_3">
     <g id="line2d_8">
      <g>
       <use xlink:href="#m30ae917570" x="49.259687" y="93.440733" style="stroke: #000000; stroke-width: 0.8"/>
      </g>
     </g>
     <g id="text_8">
      <!-- 40 -->
      <g transform="translate(25.717187 98.379718) scale(0.13 -0.13)">
       <use xlink:href="#DejaVuSans-34"/>
       <use xlink:href="#DejaVuSans-30" x="63.623047"/>
      </g>
     </g>
    </g>
    <g id="ytick_4">
     <g id="line2d_9">
      <g>
       <use xlink:href="#m30ae917570" x="49.259687" y="44.702272" style="stroke: #000000; stroke-width: 0.8"/>
      </g>
     </g>
     <g id="text_9">
      <!-- 60 -->
      <g transform="translate(25.717187 49.641256) scale(0.13 -0.13)">
       <use xlink:href="#DejaVuSans-36"/>
       <use xlink:href="#DejaVuSans-30" x="63.623047"/>
      </g>
     </g>
    </g>
    <g id="text_10">
     <!-- Count -->
     <g transform="translate(18.597656 130.030313) rotate(-90) scale(0.15 -0.15)">
      <defs>
       <path id="DejaVuSans-43" d="M 4122 4306 
L 4122 3641 
Q 3803 3938 3442 4084 
Q 3081 4231 2675 4231 
Q 1875 4231 1450 3742 
Q 1025 3253 1025 2328 
Q 1025 1406 1450 917 
Q 1875 428 2675 428 
Q 3081 428 3442 575 
Q 3803 722 4122 1019 
L 4122 359 
Q 3791 134 3420 21 
Q 3050 -91 2638 -91 
Q 1578 -91 968 557 
Q 359 1206 359 2328 
Q 359 3453 968 4101 
Q 1578 4750 2638 4750 
Q 3056 4750 3426 4639 
Q 3797 4528 4122 4306 
z
" transform="scale(0.015625)"/>
       <path id="DejaVuSans-6f" d="M 1959 3097 
Q 1497 3097 1228 2736 
Q 959 2375 959 1747 
Q 959 1119 1226 758 
Q 1494 397 1959 397 
Q 2419 397 2687 759 
Q 2956 1122 2956 1747 
Q 2956 2369 2687 2733 
Q 2419 3097 1959 3097 
z
M 1959 3584 
Q 2709 3584 3137 3096 
Q 3566 2609 3566 1747 
Q 3566 888 3137 398 
Q 2709 -91 1959 -91 
Q 1206 -91 779 398 
Q 353 888 353 1747 
Q 353 2609 779 3096 
Q 1206 3584 1959 3584 
z
" transform="scale(0.015625)"/>
       <path id="DejaVuSans-75" d="M 544 1381 
L 544 3500 
L 1119 3500 
L 1119 1403 
Q 1119 906 1312 657 
Q 1506 409 1894 409 
Q 2359 409 2629 706 
Q 2900 1003 2900 1516 
L 2900 3500 
L 3475 3500 
L 3475 0 
L 2900 0 
L 2900 538 
Q 2691 219 2414 64 
Q 2138 -91 1772 -91 
Q 1169 -91 856 284 
Q 544 659 544 1381 
z
M 1991 3584 
L 1991 3584 
z
" transform="scale(0.015625)"/>
       <path id="DejaVuSans-6e" d="M 3513 2113 
L 3513 0 
L 2938 0 
L 2938 2094 
Q 2938 2591 2744 2837 
Q 2550 3084 2163 3084 
Q 1697 3084 1428 2787 
Q 1159 2491 1159 1978 
L 1159 0 
L 581 0 
L 581 3500 
L 1159 3500 
L 1159 2956 
Q 1366 3272 1645 3428 
Q 1925 3584 2291 3584 
Q 2894 3584 3203 3211 
Q 3513 2838 3513 2113 
z
" transform="scale(0.015625)"/>
       <path id="DejaVuSans-74" d="M 1172 4494 
L 1172 3500 
L 2356 3500 
L 2356 3053 
L 1172 3053 
L 1172 1153 
Q 1172 725 1289 603 
Q 1406 481 1766 481 
L 2356 481 
L 2356 0 
L 1766 0 
Q 1100 0 847 248 
Q 594 497 594 1153 
L 594 3053 
L 172 3053 
L 172 3500 
L 594 3500 
L 594 4494 
L 1172 4494 
z
" transform="scale(0.015625)"/>
      </defs>
      <use xlink:href="#DejaVuSans-43"/>
      <use xlink:href="#DejaVuSans-6f" x="69.824219"/>
      <use xlink:href="#DejaVuSans-75" x="131.005859"/>
      <use xlink:href="#DejaVuSans-6e" x="194.384766"/>
      <use xlink:href="#DejaVuSans-74" x="257.763672"/>
     </g>
    </g>
   </g>
   <g id="patch_43">
    <path d="M 49.259687 190.917656 
L 49.259687 24.597656 
" style="fill: none; stroke: #000000; stroke-width: 0.8; stroke-linejoin: miter; stroke-linecap: square"/>
   </g>
   <g id="patch_44">
    <path d="M 384.059687 190.917656 
L 384.059687 24.597656 
" style="fill: none; stroke: #000000; stroke-width: 0.8; stroke-linejoin: miter; stroke-linecap: square"/>
   </g>
   <g id="patch_45">
    <path d="M 49.259687 190.917656 
L 384.059687 190.917656 
" style="fill: none; stroke: #000000; stroke-width: 0.8; stroke-linejoin: miter; stroke-linecap: square"/>
   </g>
   <g id="patch_46">
    <path d="M 49.259687 24.597656 
L 384.059687 24.597656 
" style="fill: none; stroke: #000000; stroke-width: 0.8; stroke-linejoin: miter; stroke-linecap: square"/>
   </g>
   <g id="text_11">
    <!-- Shell Strength score distribution -->
    <g transform="translate(95.885078 18.597656) scale(0.15 -0.15)">
     <defs>
      <path id="DejaVuSans-53" d="M 3425 4513 
L 3425 3897 
Q 3066 4069 2747 4153 
Q 2428 4238 2131 4238 
Q 1616 4238 1336 4038 
Q 1056 3838 1056 3469 
Q 1056 3159 1242 3001 
Q 1428 2844 1947 2747 
L 2328 2669 
Q 3034 2534 3370 2195 
Q 3706 1856 3706 1288 
Q 3706 609 3251 259 
Q 2797 -91 1919 -91 
Q 1588 -91 1214 -16 
Q 841 59 441 206 
L 441 856 
Q 825 641 1194 531 
Q 1563 422 1919 422 
Q 2459 422 2753 634 
Q 3047 847 3047 1241 
Q 3047 1584 2836 1778 
Q 2625 1972 2144 2069 
L 1759 2144 
Q 1053 2284 737 2584 
Q 422 2884 422 3419 
Q 422 4038 858 4394 
Q 1294 4750 2059 4750 
Q 2388 4750 2728 4690 
Q 3069 4631 3425 4513 
z
" transform="scale(0.015625)"/>
      <path id="DejaVuSans-68" d="M 3513 2113 
L 3513 0 
L 2938 0 
L 2938 2094 
Q 2938 2591 2744 2837 
Q 2550 3084 2163 3084 
Q 1697 3084 1428 2787 
Q 1159 2491 1159 1978 
L 1159 0 
L 581 0 
L 581 4863 
L 1159 4863 
L 1159 2956 
Q 1366 3272 1645 3428 
Q 1925 3584 2291 3584 
Q 2894 3584 3203 3211 
Q 3513 2838 3513 2113 
z
" transform="scale(0.015625)"/>
      <path id="DejaVuSans-65" d="M 3597 1894 
L 3597 1613 
L 953 1613 
Q 991 1019 1311 708 
Q 1631 397 2203 397 
Q 2534 397 2845 478 
Q 3156 559 3463 722 
L 3463 178 
Q 3153 47 2828 -22 
Q 2503 -91 2169 -91 
Q 1331 -91 842 396 
Q 353 884 353 1716 
Q 353 2575 817 3079 
Q 1281 3584 2069 3584 
Q 2775 3584 3186 3129 
Q 3597 2675 3597 1894 
z
M 3022 2063 
Q 3016 2534 2758 2815 
Q 2500 3097 2075 3097 
Q 1594 3097 1305 2825 
Q 1016 2553 972 2059 
L 3022 2063 
z
" transform="scale(0.015625)"/>
      <path id="DejaVuSans-6c" d="M 603 4863 
L 1178 4863 
L 1178 0 
L 603 0 
L 603 4863 
z
" transform="scale(0.015625)"/>
      <path id="DejaVuSans-20" transform="scale(0.015625)"/>
      <path id="DejaVuSans-72" d="M 2631 2963 
Q 2534 3019 2420 3045 
Q 2306 3072 2169 3072 
Q 1681 3072 1420 2755 
Q 1159 2438 1159 1844 
L 1159 0 
L 581 0 
L 581 3500 
L 1159 3500 
L 1159 2956 
Q 1341 3275 1631 3429 
Q 1922 3584 2338 3584 
Q 2397 3584 2469 3576 
Q 2541 3569 2628 3553 
L 2631 2963 
z
" transform="scale(0.015625)"/>
      <path id="DejaVuSans-67" d="M 2906 1791 
Q 2906 2416 2648 2759 
Q 2391 3103 1925 3103 
Q 1463 3103 1205 2759 
Q 947 2416 947 1791 
Q 947 1169 1205 825 
Q 1463 481 1925 481 
Q 2391 481 2648 825 
Q 2906 1169 2906 1791 
z
M 3481 434 
Q 3481 -459 3084 -895 
Q 2688 -1331 1869 -1331 
Q 1566 -1331 1297 -1286 
Q 1028 -1241 775 -1147 
L 775 -588 
Q 1028 -725 1275 -790 
Q 1522 -856 1778 -856 
Q 2344 -856 2625 -561 
Q 2906 -266 2906 331 
L 2906 616 
Q 2728 306 2450 153 
Q 2172 0 1784 0 
Q 1141 0 747 490 
Q 353 981 353 1791 
Q 353 2603 747 3093 
Q 1141 3584 1784 3584 
Q 2172 3584 2450 3431 
Q 2728 3278 2906 2969 
L 2906 3500 
L 3481 3500 
L 3481 434 
z
" transform="scale(0.015625)"/>
      <path id="DejaVuSans-73" d="M 2834 3397 
L 2834 2853 
Q 2591 2978 2328 3040 
Q 2066 3103 1784 3103 
Q 1356 3103 1142 2972 
Q 928 2841 928 2578 
Q 928 2378 1081 2264 
Q 1234 2150 1697 2047 
L 1894 2003 
Q 2506 1872 2764 1633 
Q 3022 1394 3022 966 
Q 3022 478 2636 193 
Q 2250 -91 1575 -91 
Q 1294 -91 989 -36 
Q 684 19 347 128 
L 347 722 
Q 666 556 975 473 
Q 1284 391 1588 391 
Q 1994 391 2212 530 
Q 2431 669 2431 922 
Q 2431 1156 2273 1281 
Q 2116 1406 1581 1522 
L 1381 1569 
Q 847 1681 609 1914 
Q 372 2147 372 2553 
Q 372 3047 722 3315 
Q 1072 3584 1716 3584 
Q 2034 3584 2315 3537 
Q 2597 3491 2834 3397 
z
" transform="scale(0.015625)"/>
      <path id="DejaVuSans-63" d="M 3122 3366 
L 3122 2828 
Q 2878 2963 2633 3030 
Q 2388 3097 2138 3097 
Q 1578 3097 1268 2742 
Q 959 2388 959 1747 
Q 959 1106 1268 751 
Q 1578 397 2138 397 
Q 2388 397 2633 464 
Q 2878 531 3122 666 
L 3122 134 
Q 2881 22 2623 -34 
Q 2366 -91 2075 -91 
Q 1284 -91 818 406 
Q 353 903 353 1747 
Q 353 2603 823 3093 
Q 1294 3584 2113 3584 
Q 2378 3584 2631 3529 
Q 2884 3475 3122 3366 
z
" transform="scale(0.015625)"/>
      <path id="DejaVuSans-64" d="M 2906 2969 
L 2906 4863 
L 3481 4863 
L 3481 0 
L 2906 0 
L 2906 525 
Q 2725 213 2448 61 
Q 2172 -91 1784 -91 
Q 1150 -91 751 415 
Q 353 922 353 1747 
Q 353 2572 751 3078 
Q 1150 3584 1784 3584 
Q 2172 3584 2448 3432 
Q 2725 3281 2906 2969 
z
M 947 1747 
Q 947 1113 1208 752 
Q 1469 391 1925 391 
Q 2381 391 2643 752 
Q 2906 1113 2906 1747 
Q 2906 2381 2643 2742 
Q 2381 3103 1925 3103 
Q 1469 3103 1208 2742 
Q 947 2381 947 1747 
z
" transform="scale(0.015625)"/>
      <path id="DejaVuSans-69" d="M 603 3500 
L 1178 3500 
L 1178 0 
L 603 0 
L 603 3500 
z
M 603 4863 
L 1178 4863 
L 1178 4134 
L 603 4134 
L 603 4863 
z
" transform="scale(0.015625)"/>
      <path id="DejaVuSans-62" d="M 3116 1747 
Q 3116 2381 2855 2742 
Q 2594 3103 2138 3103 
Q 1681 3103 1420 2742 
Q 1159 2381 1159 1747 
Q 1159 1113 1420 752 
Q 1681 391 2138 391 
Q 2594 391 2855 752 
Q 3116 1113 3116 1747 
z
M 1159 2969 
Q 1341 3281 1617 3432 
Q 1894 3584 2278 3584 
Q 2916 3584 3314 3078 
Q 3713 2572 3713 1747 
Q 3713 922 3314 415 
Q 2916 -91 2278 -91 
Q 1894 -91 1617 61 
Q 1341 213 1159 525 
L 1159 0 
L 581 0 
L 581 4863 
L 1159 4863 
L 1159 2969 
z
" transform="scale(0.015625)"/>
     </defs>
     <use xlink:href="#DejaVuSans-53"/>
     <use xlink:href="#DejaVuSans-68" x="63.476562"/>
     <use xlink:href="#DejaVuSans-65" x="126.855469"/>
     <use xlink:href="#DejaVuSans-6c" x="188.378906"/>
     <use xlink:href="#DejaVuSans-6c" x="216.162109"/>
     <use xlink:href="#DejaVuSans-20" x="243.945312"/>
     <use xlink:href="#DejaVuSans-53" x="275.732422"/>
     <use xlink:href="#DejaVuSans-74" x="339.208984"/>
     <use xlink:href="#DejaVuSans-72" x="378.417969"/>
     <use xlink:href="#DejaVuSans-65" x="417.28125"/>
     <use xlink:href="#DejaVuSans-6e" x="478.804688"/>
     <use xlink:href="#DejaVuSans-67" x="542.183594"/>
     <use xlink:href="#DejaVuSans-74" x="605.660156"/>
     <use xlink:href="#DejaVuSans-68" x="644.869141"/>
     <use xlink:href="#DejaVuSans-20" x="708.248047"/>
     <use xlink:href="#DejaVuSans-73" x="740.035156"/>
     <use xlink:href="#DejaVuSans-63" x="792.134766"/>
     <use xlink:href="#DejaVuSans-6f" x="847.115234"/>
     <use xlink:href="#DejaVuSans-72" x="908.296875"/>
     <use xlink:href="#DejaVuSans-65" x="947.160156"/>
     <use xlink:href="#DejaVuSans-20" x="1008.683594"/>
     <use xlink:href="#DejaVuSans-64" x="1040.470703"/>
     <use xlink:href="#DejaVuSans-69" x="1103.947266"/>
     <use xlink:href="#DejaVuSans-73" x="1131.730469"/>
     <use xlink:href="#DejaVuSans-74" x="1183.830078"/>
     <use xlink:href="#DejaVuSans-72" x="1223.039062"/>
     <use xlink:href="#DejaVuSans-69" x="1264.152344"/>
     <use xlink:href="#DejaVuSans-62" x="1291.935547"/>
     <use xlink:href="#DejaVuSans-75" x="1355.412109"/>
     <use xlink:href="#DejaVuSans-74" x="1418.791016"/>
     <use xlink:href="#DejaVuSans-69" x="1458"/>
     <use xlink:href="#DejaVuSans-6f" x="1485.783203"/>
     <use xlink:href="#DejaVuSans-6e" x="1546.964844"/>
    </g>
   </g>
  </g>
 </g>
 <defs>
  <clipPath id="pa767e1bc03">
   <rect x="49.259687" y="24.597656" width="334.8" height="166.32"/>
  </clipPath>
 </defs>
</svg>
