<svg id="Layer_1" data-name="Layer 1" xmlns="http://www.w3.org/2000/svg" viewBox="0 0 3000 3000"><defs><style>.cls-1{font-size:772.35px;fill:#595a5c;font-family:Gotham-Book, Gotham;}.cls-2,.cls-4{fill:#243c7b;}.cls-2,.cls-3,.cls-5,.cls-6,.cls-7,.cls-9{opacity:0.8;}.cls-3,.cls-8{fill:#069848;}.cls-5{fill:#1399d6;}.cls-6{fill:#dc2327;}.cls-7{fill:#834091;}.cls-9{fill:#fdec0a;}.cls-10{fill:#ffffff;}</style></defs><title>cmse logo file</title><text class="cls-1" transform="translate(375.38 2523.02)">CMSE</text><path class="cls-2" d="M1683.2,1142.94a449.4,449.4,0,0,1-151.36,419.93,452.58,452.58,0,0,0,55.39,37.91c214.43,124.53,489.21,51.65,613.73-162.78s51.66-489.2-162.77-613.73A451.6,451.6,0,0,0,1962,789a454.71,454.71,0,0,1-278.8,353.9Z"/><path class="cls-3" d="M1740.79,329.3C1523.9,203.34,1246,277.05,1120,493.94a452.4,452.4,0,0,0-53.41,313c125.4-52.76,273.19-48.13,399.9,25.46a453.76,453.76,0,0,1,55.39,37.92c120.28-102.23,288.35-135,440.11-81.31C1988.59,610.41,1906.47,425.51,1740.79,329.3Z"/><path class="cls-4" d="M1521.89,870.35a448.31,448.31,0,0,1,161.31,272.59A454.71,454.71,0,0,0,1962,789C1810.24,735.35,1642.17,768.12,1521.89,870.35Z"/><path class="cls-5" d="M1521.89,870.35a448.31,448.31,0,0,1,161.31,272.59A454.71,454.71,0,0,0,1962,789C1810.24,735.35,1642.17,768.12,1521.89,870.35Z"/><path class="cls-6" d="M1367.68,1152.45a456,456,0,0,1-83-37.72c-118.48-68.81-194.23-183-218.05-307.76A447,447,0,0,0,852.77,995.21c-124.53,214.43-51.65,489.2,162.78,613.73,169,98.14,375.42,73.65,516.29-46.07C1407.17,1463.17,1347,1305.89,1367.68,1152.45Z"/><path class="cls-4" d="M1683.2,1142.94a454,454,0,0,1-315.52,9.51c-20.65,153.44,39.49,310.72,164.16,410.42a449.4,449.4,0,0,0,151.36-419.93Z"/><path class="cls-7" d="M1683.2,1142.94a454,454,0,0,1-315.52,9.51c-20.65,153.44,39.49,310.72,164.16,410.42a449.4,449.4,0,0,0,151.36-419.93Z"/><path class="cls-8" d="M1284.65,1114.73a456,456,0,0,0,83,37.72,450.26,450.26,0,0,1,154.21-282.1,453.76,453.76,0,0,0-55.39-37.92C1339.79,758.84,1192,754.21,1066.6,807,1090.42,931.76,1166.17,1045.92,1284.65,1114.73Z"/><path class="cls-9" d="M1284.65,1114.73a456,456,0,0,0,83,37.72,450.26,450.26,0,0,1,154.21-282.1,453.76,453.76,0,0,0-55.39-37.92C1339.79,758.84,1192,754.21,1066.6,807,1090.42,931.76,1166.17,1045.92,1284.65,1114.73Z"/><path class="cls-4" d="M1367.68,1152.45a454,454,0,0,0,315.52-9.51,448.31,448.31,0,0,0-161.31-272.59,450.26,450.26,0,0,0-154.21,282.1Z"/><path class="cls-8" d="M1367.68,1152.45a454,454,0,0,0,315.52-9.51,448.31,448.31,0,0,0-161.31-272.59,450.26,450.26,0,0,0-154.21,282.1Z"/><path class="cls-10" d="M1367.68,1152.45a454,454,0,0,0,315.52-9.51,448.31,448.31,0,0,0-161.31-272.59,450.26,450.26,0,0,0-154.21,282.1Z"/></svg>
