<?xml version="1.0" encoding="utf-8"?>
<!-- Generator: Adobe Illustrator 22.1.0, SVG Export Plug-In . SVG Version: 6.00 Build 0)  -->
<svg version="1.1" id="Layer_1" xmlns="http://www.w3.org/2000/svg" xmlns:xlink="http://www.w3.org/1999/xlink" x="0px" y="0px"
	 viewBox="0 0 200 145" style="enable-background:new 0 0 200 145;" xml:space="preserve">
<style type="text/css">
	.st0{fill:#FFFFFF;}
	.st1{enable-background:new    ;}
	.st2{font-family:'Gotham-Light';}
	.st3{font-size:13.5px;}
	.st4{letter-spacing:-1;}
	.st5{fill:#18453B;}
	.st6{fill:none;stroke:#000000;stroke-width:0.758;}
</style>
<rect x="-9.2" y="-9.5" class="st0" width="220.8" height="169.2"/>
<text transform="matrix(1 0 0 1 26.4214 105.8653)" class="st1"><tspan x="0" y="0" class="st2 st3">O</tspan><tspan x="11" y="0" class="st2 st3">ffi</tspan><tspan x="24" y="0" class="st2 st3">ce f</tspan><tspan x="48.5" y="0" class="st2 st3">o</tspan><tspan x="56.7" y="0" class="st2 st3">r I</tspan><tspan x="69.8" y="0" class="st2 st3">n</tspan><tspan x="77.9" y="0" class="st2 st3">stituti</tspan><tspan x="115.8" y="0" class="st2 st3">o</tspan><tspan x="124" y="0" class="st2 st3">nal</tspan></text>
<text transform="matrix(1 0 0 1 25.2876 119.8653)" class="st1"><tspan x="0" y="0" class="st2 st3">D</tspan><tspan x="10.2" y="0" class="st2 st3">i</tspan><tspan x="13.4" y="0" class="st2 st3">v</tspan><tspan x="20.4" y="0" class="st2 st3">e</tspan><tspan x="28.3" y="0" class="st2 st3">r</tspan><tspan x="33.5" y="0" class="st2 st3">s</tspan><tspan x="40" y="0" class="st2 st3">i</tspan><tspan x="43.4" y="0" class="st2 st3">t</tspan><tspan x="48.8" y="0" class="st2 st3">y</tspan><tspan x="56.3" y="0" class="st2 st3 st4"> </tspan><tspan x="59" y="0" class="st2 st3">and </tspan><tspan x="88" y="0" class="st2 st3">I</tspan><tspan x="91.7" y="0" class="st2 st3">n</tspan><tspan x="99.4" y="0" class="st2 st3">clusion</tspan></text>
<g transform="matrix(1 0 0 1 0 1.0504)">
	<path class="st5" d="M117.6,24.7c0,0-2.7,5.7-4,8.6c-6.6-3.1-15.3-3.5-22.7,0.8c-4.9,3-8.8,8.3-9.2,14c-0.1,3.8,1.5,7.9,1,11.7
		c-0.1,2-0.6,4.1-1.6,5.8c-1.2,2-2.7,3.8-5.1,3.9c0.5-0.7,4.3-2.5,2.8-11.1c-0.6-3.4-5.2-11.8-0.7-22.3
		C82.1,26.7,99.9,15.3,117.6,24.7z"/>
	<path class="st5" d="M97.2,41.6c2.3-0.8,4.9-0.8,7.3-0.3c4.6,0.8,8.1,3.6,9.7,7.7c1.8,4.3,3,7.8,6,11.5c0.1,0.1-4.7-0.7-4.7-0.8
		c1.2-8.6-6.9-8.9-9.1-5.7c1.7,1.8,4.6,2.8,6.8,2.4c-0.5,8.5,1.9,16.2,1.8,16.2c-1.9-0.3-10.8-5.5-13.3-7.7
		c-3.8,0.7-6.8,2.1-11.2,2.7c-0.1,0,0.8-3.2,0.7-4.9c0-4.5-3.4-8.7-1-14.2C91.7,45.2,93.8,42.8,97.2,41.6z"/>
	<g>
		<path class="st5" d="M100.4,39c0.3,0,0.6,0.1,0.7,0c0.1-0.3,0.3-2.4,2.1-4c2-1.7,4.6-1.6,4.6-1.6c-2.6-0.8-5.3-0.9-7.2-0.7
			L100.4,39z"/>
		<path class="st5" d="M83.7,46.7c-0.4,2.5-0.4,4.9-0.2,6.2c0,0,0.4-2.2,1.6-3.4c1.1-1.1,2.4-1.3,2.9-1.3c0,0,0.2-0.8,0.2-0.8
			L83.7,46.7z"/>
		<path class="st5" d="M88.8,46.2c0.1-0.3,0.3-0.6,0.5-1l-4.7-1.8c-0.3,0.6-0.5,1.5-0.6,1.9L88.8,46.2z"/>
		<path class="st5" d="M89.9,44.4c0,0,0.8-1,0.8-0.9l-4.3-3.2c-0.4,0.6-0.8,1.2-1.1,1.8L89.9,44.4z"/>
		<path class="st5" d="M91.5,42.7c0,0,1-0.9,1-0.9l-3.7-4.2c-0.8,0.7-1.1,1.1-1.6,1.7L91.5,42.7z"/>
		<path class="st5" d="M93.4,41.2c0,0,1.1-0.6,1.1-0.6l-2.8-5c-1,0.5-1.7,1.1-2,1.3L93.4,41.2z"/>
		<path class="st5" d="M95.5,40.1c1.3-0.4,1.3-0.5,1.3-0.4L95.2,34c-0.9,0.3-2.1,0.8-2.3,0.9L95.5,40.1z"/>
		<path class="st5" d="M97.8,39.3c0,0,1.2-0.3,1.2-0.3l0.1-6.1c0,0-1.4,0.3-2.6,0.6L97.8,39.3z"/>
	</g>
</g>
<line class="st6" x1="21.4" y1="84.8" x2="174.6" y2="84.8"/>
</svg>
