<?xml version="1.0" encoding="UTF-8"?>
<!-- Generator: Adobe Illustrator 22.1.0, SVG Export Plug-In . SVG Version: 6.00 Build 0)  -->
<svg version="1.1" id="svgSignature" xmlns="http://www.w3.org/2000/svg" xmlns:xlink="http://www.w3.org/1999/xlink" x="0px" y="0px" viewBox="-272.7 577.7 236 69" style="enable-background:new -272.7 577.7 236 69;" xml:space="preserve">
<style type="text/css">
	.st0{enable-background:new    ;}
	.st1{fill:#FFFFFF;}
	.st2{font-family:'Gotham-Light';}
	.st3{font-size:13.5px;}
	.st4{letter-spacing:-1;}
	.st5{fill:none;stroke:#FFFFFF;stroke-width:0.7577;}
</style>
<rect x="-275.7" y="575.5" width="241" height="74.8"/>
<text transform="matrix(1 0 0 1 -205.7967 602.8008)" class="st0"><tspan x="0" y="0" class="st1 st2 st3">O</tspan><tspan x="11" y="0" class="st1 st2 st3">ffi</tspan><tspan x="24" y="0" class="st1 st2 st3">ce f</tspan><tspan x="48.5" y="0" class="st1 st2 st3">o</tspan><tspan x="56.7" y="0" class="st1 st2 st3">r I</tspan><tspan x="69.8" y="0" class="st1 st2 st3">n</tspan><tspan x="77.9" y="0" class="st1 st2 st3">stituti</tspan><tspan x="115.8" y="0" class="st1 st2 st3">o</tspan><tspan x="124" y="0" class="st1 st2 st3">nal </tspan></text>
<text transform="matrix(1 0 0 1 -205.7967 616.8008)" class="st0"><tspan x="0" y="0" class="st1 st2 st3">D</tspan><tspan x="10.2" y="0" class="st1 st2 st3">i</tspan><tspan x="13.4" y="0" class="st1 st2 st3">v</tspan><tspan x="20.4" y="0" class="st1 st2 st3">e</tspan><tspan x="28.3" y="0" class="st1 st2 st3">r</tspan><tspan x="33.5" y="0" class="st1 st2 st3">s</tspan><tspan x="40" y="0" class="st1 st2 st3">i</tspan><tspan x="43.4" y="0" class="st1 st2 st3">t</tspan><tspan x="48.8" y="0" class="st1 st2 st3">y</tspan><tspan x="56.3" y="0" class="st1 st2 st3 st4"> </tspan><tspan x="59" y="0" class="st1 st2 st3">and </tspan><tspan x="88" y="0" class="st1 st2 st3">I</tspan><tspan x="91.7" y="0" class="st1 st2 st3">n</tspan><tspan x="99.4" y="0" class="st1 st2 st3">clusion </tspan></text>
<line class="st5" x1="-212.8" y1="589" x2="-212.8" y2="634.7"/>
<g transform="matrix(1 0 0 1 0 8)">
	<path class="st1" d="M-117.3,615.5v4.5c0,0.8,0.2,1.8,1.6,1.8c1.2,0,1.7-0.8,1.7-1.9l0-4.4c0-0.2-0.1-0.4-0.3-0.5h1.2   c-0.2,0.1-0.3,0.2-0.3,0.5l0,4.4c0,1.8-1,2.5-2.4,2.5c-1.2,0-2.7-0.6-2.7-2.5v-4.5c0-0.2-0.2-0.4-0.3-0.5h2   C-117.1,615.1-117.3,615.2-117.3,615.5z"/>
	<path class="st1" d="M-106.4,615.5c0-0.2-0.1-0.4-0.3-0.5h1.1c-0.2,0.1-0.3,0.2-0.3,0.5v7.1c0,0-4.9-6.1-4.9-6.2v5.4   c0,0.2,0.1,0.4,0.3,0.5h-1.1c0.2-0.1,0.3-0.2,0.3-0.5v-5.8c0-0.4,0-0.4-0.2-0.7c-0.1-0.1-0.2-0.3-0.5-0.4h1.8l3.8,4.7L-106.4,615.5   L-106.4,615.5z"/>
	<path class="st1" d="M-102.3,615c-0.2,0.1-0.3,0.2-0.3,0.5v6.4c0,0.2,0.1,0.4,0.3,0.5h-1.9c0.2-0.1,0.3-0.2,0.3-0.5v-6.4   c0-0.2-0.1-0.4-0.3-0.5H-102.3z"/>
	<path class="st1" d="M-96.1,615.5c0.1-0.3,0.1-0.4-0.2-0.5h1.2c-0.3,0.2-0.3,0.3-0.4,0.5c-0.2,0.4-2.6,7-2.6,7s-2.7-6.6-2.9-7   c-0.1-0.2-0.2-0.4-0.6-0.5h2.3c-0.3,0.1-0.3,0.3-0.2,0.6c0,0.1,1.7,4.5,1.7,4.5S-96.1,615.6-96.1,615.5z"/>
	<path class="st1" d="M-89.9,615.9c-0.2-0.3-0.4-0.4-0.8-0.4c-0.3,0-1.7,0-1.7,0v2.5h1.5c0.1,0,0.3-0.2,0.4-0.3v1.1   c-0.1-0.2-0.2-0.3-0.4-0.3h-1.5v3.2c0.2,0,0.8,0.1,1.3,0.1c0.9,0,1.3,0,1.7-0.7l-0.2,1.2H-94c0.2-0.1,0.3-0.2,0.3-0.5v-6.4   c0-0.2-0.1-0.4-0.3-0.5h4.1L-89.9,615.9z"/>
	<path class="st1" d="M-85.4,618.6c0.7,0.1,1,0.6,1.2,0.8c0,0,1.2,2,1.6,2.5c0.2,0.3,0.7,0.4,0.7,0.4l-1.3,0c-0.4,0-0.7-0.2-0.9-0.5   c-0.5-0.7-0.9-1.5-1.3-2.1c-0.3-0.4-0.5-0.9-0.9-0.9c-0.1,0-0.5,0-0.5,0v2.9c0,0.2,0.1,0.4,0.3,0.5h-1.9c0.2-0.1,0.3-0.2,0.3-0.5   v-6.4c0-0.2-0.1-0.4-0.3-0.5h2.2c2.1,0,2.6,1.1,2.6,1.8C-83.7,618-84.7,618.5-85.4,618.6z M-86.9,615.5v2.8c0,0,0.3,0,0.5,0   c0.7,0,1.4-0.4,1.4-1.5c0-0.5-0.3-1.4-1.3-1.4C-86.6,615.5-86.9,615.5-86.9,615.5z"/>
	<path class="st1" d="M-77.2,620.1c0,1.3-1.1,2.3-2.4,2.3c-0.9,0-1.6-0.3-2-0.5l-0.1-1.8c0.2,0.8,0.8,1.8,1.9,1.8   c1,0,1.3-0.8,1.3-1.3c0-1-0.9-1.2-1.8-1.7c-0.9-0.5-1.4-1.1-1.4-2c0-1.5,1.3-2,2.2-2c0.3,0,1,0.1,1.5,0.4l0,1.6   c-0.1-0.6-0.7-1.4-1.7-1.4c-0.8,0-1.1,0.6-1.1,1c0,0.7,0.4,0.9,1.4,1.4C-78.2,618.3-77.2,618.7-77.2,620.1z"/>
	<path class="st1" d="M-74.4,615c-0.2,0.1-0.3,0.2-0.3,0.5v6.4c0,0.2,0.1,0.4,0.3,0.5h-1.9c0.2-0.1,0.3-0.2,0.3-0.5v-6.4   c0-0.2-0.1-0.4-0.3-0.5H-74.4z"/>
	<path class="st1" d="M-69.9,615.5v6.3c0,0.2,0.1,0.4,0.3,0.5h-1.8c0.2-0.1,0.3-0.2,0.3-0.5v-6.3c-0.8,0-1.6,0.1-1.6,0.1   c-0.2,0-0.4,0.2-0.5,0.4v-1h5.6v1c-0.1-0.2-0.2-0.4-0.5-0.4C-68.2,615.6-69.2,615.5-69.9,615.5z"/>
	<path class="st1" d="M-61.1,615c-0.3,0.1-0.6,0.4-0.7,0.7l-1.6,3.3v2.9c0,0.2,0.2,0.4,0.4,0.5h-2c0.2-0.1,0.4-0.2,0.4-0.5V619   l-2-3.5c-0.1-0.3-0.3-0.4-0.5-0.5h2.3c-0.3,0.1-0.4,0.2-0.2,0.7l1.4,2.7l1.3-2.8c0.1-0.2,0.1-0.5-0.2-0.5L-61.1,615L-61.1,615z"/>
	<path class="st1" d="M-199.3,615.1h1.7c-0.2,0.1-0.3,0.2-0.3,0.5v6.3c0,0.2,0.1,0.4,0.3,0.5h-1.8c0.2-0.1,0.3-0.2,0.3-0.5v-5.4   c0-0.1,0-0.2,0-0.2l-0.1,0.2l-2.4,6l-2.4-5.8l-0.1-0.3c0,0,0,0.2,0,0.3v5.2c0,0.2,0.1,0.4,0.3,0.5h-1.1c0.2-0.1,0.3-0.2,0.3-0.5   v-6.3c0-0.2-0.2-0.4-0.3-0.5h1.8l2,4.9L-199.3,615.1z"/>
	<path class="st1" d="M-194.2,615.1c-0.2,0.1-0.3,0.2-0.3,0.5v6.3c0,0.2,0.1,0.4,0.3,0.5h-1.8c0.2-0.1,0.3-0.2,0.3-0.5v-6.3   c0-0.2-0.1-0.4-0.3-0.5H-194.2z"/>
	<path class="st1" d="M-186.4,617.2c-0.6-1.5-1.8-1.6-2.3-1.6c-1.7,0-2.7,1.3-2.7,3c0,1.5,0.7,3.3,2.8,3.3c0.5,0,1.6-0.2,2.3-1.6   c0,0-0.1,1.5-0.1,1.5c-0.8,0.5-1.7,0.7-2.6,0.7c-2,0-3.8-1.4-3.8-3.7c0-1.9,1.3-3.8,3.9-3.8c0.8,0,1.6,0.2,2.4,0.6   C-186.5,615.5-186.4,617.2-186.4,617.2z"/>
	<path class="st1" d="M-180.5,615.1h1.8c-0.2,0.1-0.3,0.2-0.3,0.5v6.3c0,0.2,0.1,0.4,0.3,0.5h-1.8c0.2-0.1,0.3-0.2,0.3-0.5v-3.3   h-3.1v3.3c0,0.2,0.1,0.4,0.3,0.5h-1.8c0.2-0.1,0.3-0.2,0.3-0.5v-6.3c0-0.2-0.1-0.4-0.3-0.5h1.8c-0.2,0.1-0.3,0.2-0.3,0.5v2.5h3.1   v-2.5C-180.2,615.3-180.3,615.2-180.5,615.1z"/>
	<path class="st1" d="M-175.2,615.1c-0.2,0.1-0.3,0.2-0.3,0.5v6.3c0,0.2,0.1,0.4,0.3,0.5h-1.8c0.2-0.1,0.3-0.2,0.3-0.5v-6.3   c0-0.2-0.1-0.4-0.3-0.5H-175.2z"/>
	<path class="st1" d="M-167.5,615.5l0.1,1.7c-0.5-1.4-1.8-1.7-2.3-1.7c-1.7,0-2.7,1.3-2.7,3c0,1.5,0.7,3.3,2.8,3.3   c0.2,0,0.8,0,1.3-0.3v-1.9c0-0.2-0.1-0.4-0.3-0.5h1.8c-0.2,0.1-0.3,0.2-0.3,0.5v1.6c0,0.2,0.1,0.4,0.2,0.4   c-0.9,0.5-2.3,0.8-3.1,0.8c-2,0-3.8-1.4-3.8-3.7c0-1.9,1.3-3.8,3.9-3.8C-169.1,615-168.3,615.1-167.5,615.5z"/>
	<path class="st1" d="M-160.2,621.8c0.1,0.2,0.2,0.3,0.5,0.5h-2.2c0.3-0.1,0.3-0.3,0.2-0.5c0-0.1-0.3-0.8-0.6-1.5h-2.5   c-0.3,0.7-0.5,1.4-0.6,1.5c-0.1,0.3,0,0.4,0.2,0.5h-1.4c0.3-0.2,0.4-0.3,0.5-0.5c0.2-0.4,2.8-6.9,2.8-6.9S-160.3,621.4-160.2,621.8   z M-162.4,619.8c-0.5-1.2-1-2.6-1-2.6s-0.7,1.8-1,2.6H-162.4z"/>
	<path class="st1" d="M-153.9,615.6c0-0.2-0.1-0.4-0.3-0.5h1.1c-0.1,0.1-0.3,0.2-0.3,0.5v7.1c0,0-4.8-6-4.8-6.1v5.3   c0,0.2,0.1,0.4,0.3,0.5h-1.1c0.2-0.1,0.3-0.2,0.3-0.5v-5.7c0-0.4,0-0.4-0.2-0.7c-0.1-0.1-0.2-0.3-0.5-0.4h1.7l3.7,4.7L-153.9,615.6   L-153.9,615.6z"/>
	<path class="st1" d="M-144.8,620.2c0,1.3-1.1,2.2-2.3,2.2c-0.9,0-1.6-0.3-1.9-0.5l-0.1-1.8c0.2,0.8,0.8,1.8,1.8,1.8   c1,0,1.3-0.8,1.3-1.3c0-1-0.9-1.2-1.8-1.7c-0.9-0.5-1.3-1.1-1.3-1.9c0-1.5,1.3-2,2.2-2c0.3,0,1,0.1,1.5,0.4l0,1.6   c-0.1-0.6-0.7-1.4-1.7-1.4c-0.8,0-1.1,0.6-1.1,1c0,0.6,0.4,0.9,1.4,1.4C-145.8,618.4-144.8,618.7-144.8,620.2z"/>
	<path class="st1" d="M-140.8,615.6v6.2c0,0.2,0.1,0.4,0.3,0.5h-1.8c0.2-0.1,0.3-0.2,0.3-0.5v-6.2c-0.7,0-1.6,0.1-1.6,0.1   c-0.2,0-0.4,0.2-0.5,0.4v-1h5.5v1c-0.1-0.2-0.2-0.4-0.5-0.4C-139.1,615.7-140,615.6-140.8,615.6z"/>
	<path class="st1" d="M-133.4,621.8c0.1,0.2,0.2,0.3,0.5,0.5h-2.2c0.3-0.1,0.3-0.3,0.2-0.5c0-0.1-0.3-0.8-0.6-1.5h-2.5   c-0.3,0.7-0.5,1.4-0.6,1.5c-0.1,0.3,0,0.4,0.2,0.5h-1.4c0.3-0.2,0.4-0.3,0.5-0.5c0.2-0.4,2.8-6.9,2.8-6.9S-133.6,621.4-133.4,621.8   z M-135.6,619.8c-0.5-1.2-1-2.6-1-2.6s-0.7,1.8-1,2.6H-135.6z"/>
	<path class="st1" d="M-130.2,615.6v6.2c0,0.2,0.1,0.4,0.3,0.5h-1.8c0.2-0.1,0.3-0.2,0.3-0.5v-6.2c-0.8,0-1.6,0.1-1.6,0.1   c-0.2,0-0.4,0.2-0.5,0.4v-1h5.5v1c-0.1-0.2-0.2-0.4-0.5-0.4C-128.6,615.7-129.5,615.6-130.2,615.6z"/>
	<path class="st1" d="M-122.9,616c-0.2-0.3-0.4-0.4-0.8-0.4c-0.3,0-1.7,0-1.7,0v2.5h1.5c0.1,0,0.3-0.2,0.4-0.3v1.1   c-0.1-0.1-0.2-0.3-0.4-0.3h-1.5v3.1c0.2,0,0.8,0.1,1.3,0.1c0.9,0,1.3,0,1.7-0.7l-0.2,1.2h-4.3c0.2-0.1,0.3-0.2,0.3-0.5v-6.3   c0-0.2-0.1-0.4-0.3-0.5h4.1L-122.9,616z"/>
</g>
<g transform="matrix(1 0 0 1 0 1.0504)">
	<path class="st1" d="M-225.8,595.1c0,0-1.9,4-2.8,6c-4.7-2.1-10.8-2.4-15.9,0.6c-3.4,2.1-6.2,5.8-6.5,9.8c-0.1,2.7,1.1,5.6,0.7,8.2   c-0.1,1.4-0.4,2.8-1.1,4.1c-0.9,1.4-1.9,2.7-3.6,2.8c0.4-0.5,3-1.8,2-7.8c-0.4-2.4-3.7-8.2-0.5-15.6   C-250.7,596.4-238.2,588.5-225.8,595.1z"/>
	<path class="st1" d="M-240.1,606.9c1.6-0.6,3.4-0.6,5.1-0.2c3.2,0.6,5.6,2.5,6.8,5.4c1.2,3,2.1,5.5,4.2,8.1   c0.1,0.1-3.3-0.5-3.3-0.6c0.8-6-4.8-6.3-6.4-4c1.2,1.3,3.2,2,4.8,1.7c-0.3,6,1.3,11.4,1.2,11.4c-1.4-0.2-7.5-3.8-9.3-5.4   c-2.7,0.5-4.7,1.5-7.8,1.9c-0.1,0,0.6-2.3,0.5-3.4c0-3.1-2.4-6.1-0.7-9.9C-244,609.4-242.5,607.7-240.1,606.9z"/>
	<g>
		<path class="st1" d="M-237.9,605.1c0.2,0,0.5,0,0.5,0c0.1-0.2,0.2-1.7,1.5-2.8c1.4-1.2,3.3-1.1,3.2-1.1c-1.8-0.6-3.7-0.6-5.1-0.5    L-237.9,605.1z"/>
		<path class="st1" d="M-249.6,610.5c-0.3,1.8-0.3,3.4-0.2,4.3c0,0,0.3-1.5,1.1-2.4c0.8-0.8,1.7-0.9,2.1-0.9c0,0,0.2-0.6,0.1-0.6    L-249.6,610.5z"/>
		<path class="st1" d="M-246,610.1c0.1-0.2,0.2-0.4,0.3-0.7l-3.3-1.3c-0.2,0.4-0.4,1-0.4,1.3L-246,610.1z"/>
		<path class="st1" d="M-245.2,608.9c0,0,0.5-0.7,0.5-0.7l-3-2.3c-0.3,0.4-0.6,0.8-0.8,1.3L-245.2,608.9z"/>
		<path class="st1" d="M-244.1,607.7c0,0,0.7-0.6,0.7-0.6l-2.6-3c-0.6,0.5-0.8,0.7-1.1,1.2L-244.1,607.7z"/>
		<path class="st1" d="M-242.8,606.6c0,0,0.8-0.4,0.8-0.4l-1.9-3.5c-0.7,0.4-1.2,0.7-1.4,0.9L-242.8,606.6z"/>
		<path class="st1" d="M-241.3,605.9c0.9-0.3,0.9-0.3,0.9-0.3l-1.1-4c-0.6,0.2-1.4,0.5-1.6,0.7L-241.3,605.9z"/>
		<path class="st1" d="M-239.7,605.3c0,0,0.8-0.2,0.8-0.2l0.1-4.3c0,0-1,0.2-1.8,0.4L-239.7,605.3z"/>
	</g>
</g>
</svg>