<?xml version="1.0" encoding="UTF-8"?>
<svg version="1.1" id="svgSignature" xmlns="http://www.w3.org/2000/svg" xmlns:xlink="http://www.w3.org/1999/xlink" x="0px" y="0px" viewBox="-256 593 33 37" xml:space="preserve">
<style type="text/css">
	.st1{fill:#18453B;}
</style>
<rect x="-256" y="593" width="33" height="37" stroke-opacity="0" fill="none"/>
<g transform="matrix(1 0 0 1 0 1.0504)">
	<path class="st1" d="M-225.8,595.1c0,0-1.9,4-2.8,6c-4.7-2.1-10.8-2.4-15.9,0.6c-3.4,2.1-6.2,5.8-6.5,9.8c-0.1,2.7,1.1,5.6,0.7,8.2   c-0.1,1.4-0.4,2.8-1.1,4.1c-0.9,1.4-1.9,2.7-3.6,2.8c0.4-0.5,3-1.8,2-7.8c-0.4-2.4-3.7-8.2-0.5-15.6   C-250.7,596.4-238.2,588.5-225.8,595.1z"/>
	<path class="st1" d="M-240.1,606.9c1.6-0.6,3.4-0.6,5.1-0.2c3.2,0.6,5.6,2.5,6.8,5.4c1.2,3,2.1,5.5,4.2,8.1   c0.1,0.1-3.3-0.5-3.3-0.6c0.8-6-4.8-6.3-6.4-4c1.2,1.3,3.2,2,4.8,1.7c-0.3,6,1.3,11.4,1.2,11.4c-1.4-0.2-7.5-3.8-9.3-5.4   c-2.7,0.5-4.7,1.5-7.8,1.9c-0.1,0,0.6-2.3,0.5-3.4c0-3.1-2.4-6.1-0.7-9.9C-244,609.4-242.5,607.7-240.1,606.9z"/>
	<g>
		<path class="st1" d="M-237.9,605.1c0.2,0,0.5,0,0.5,0c0.1-0.2,0.2-1.7,1.5-2.8c1.4-1.2,3.3-1.1,3.2-1.1c-1.8-0.6-3.7-0.6-5.1-0.5    L-237.9,605.1z"/>
		<path class="st1" d="M-249.6,610.5c-0.3,1.8-0.3,3.4-0.2,4.3c0,0,0.3-1.5,1.1-2.4c0.8-0.8,1.7-0.9,2.1-0.9c0,0,0.2-0.6,0.1-0.6    L-249.6,610.5z"/>
		<path class="st1" d="M-246,610.1c0.1-0.2,0.2-0.4,0.3-0.7l-3.3-1.3c-0.2,0.4-0.4,1-0.4,1.3L-246,610.1z"/>
		<path class="st1" d="M-245.2,608.9c0,0,0.5-0.7,0.5-0.7l-3-2.3c-0.3,0.4-0.6,0.8-0.8,1.3L-245.2,608.9z"/>
		<path class="st1" d="M-244.1,607.7c0,0,0.7-0.6,0.7-0.6l-2.6-3c-0.6,0.5-0.8,0.7-1.1,1.2L-244.1,607.7z"/>
		<path class="st1" d="M-242.8,606.6c0,0,0.8-0.4,0.8-0.4l-1.9-3.5c-0.7,0.4-1.2,0.7-1.4,0.9L-242.8,606.6z"/>
		<path class="st1" d="M-241.3,605.9c0.9-0.3,0.9-0.3,0.9-0.3l-1.1-4c-0.6,0.2-1.4,0.5-1.6,0.7L-241.3,605.9z"/>
		<path class="st1" d="M-239.7,605.3c0,0,0.8-0.2,0.8-0.2l0.1-4.3c0,0-1,0.2-1.8,0.4L-239.7,605.3z"/>
	</g>
</g>
</svg>
